<svg preserveAspectRatio="none" width="100%" height="100%" overflow="visible" style="display: block;" viewBox="0 0 117 100" fill="none" xmlns="http://www.w3.org/2000/svg">
<g id="OBJECTS">
<path id="Vector" fill-rule="evenodd" clip-rule="evenodd" d="M96.687 39.6041C89.9993 34.1932 89.6902 26.2527 92.4932 20.1849C96.2544 12.0416 88.8687 0.116973 76.0664 0.00188975C53.9466 -0.197204 7.879 15.3701 2.06979 30.2377C-1.6664 39.7997 -0.795099 46.1825 8.42274 53.2484C11.0392 55.2543 12.5996 56.7417 11.9393 60.2774C11.3446 63.4606 8.63372 64.4161 7.01059 67.5357C-7.15784 94.769 34.9698 105.394 65.0297 97.4116C99.8801 88.1569 120.642 58.9836 96.687 39.6041Z" fill="var(--fill-0, #F0F0F0)" style="fill:#F0F0F0;fill:color(display-p3 0.9412 0.9412 0.9412);fill-opacity:1;"/>
<g id="Group">
<g id="Group_2">
<path id="Vector_2" fill-rule="evenodd" clip-rule="evenodd" d="M77.5961 8.70953C78.8926 8.6293 80.1658 8.89022 81.3357 9.45326C83.0907 10.2974 84.5093 11.7676 85.4043 13.4873C87.2031 16.9428 86.7703 21.0335 83.7443 23.6695C83.6766 23.7283 83.6133 23.7725 83.5341 23.8159L59.8721 36.8034C59.5177 36.9981 59.1251 37.0058 58.763 36.8258C58.4008 36.6455 58.1705 36.3276 58.112 35.9275L55.2747 16.524C55.1886 15.9352 55.5385 15.381 56.1075 15.2066C62.2564 13.318 68.4046 11.4221 74.5612 9.55924C75.3509 9.32041 76.1421 9.07753 76.9359 8.85121C77.1541 8.78865 77.3698 8.72057 77.5961 8.70953Z" fill="var(--fill-0, #000100)" style="fill:#000100;fill:color(display-p3 0.0000 0.0039 0.0000);fill-opacity:1;"/>
<path id="Vector_3" fill-rule="evenodd" clip-rule="evenodd" d="M56.457 16.3508C77.4783 9.895 77.6557 9.90531 77.6557 9.90531C83.7935 9.51412 88.1591 18.2354 82.9571 22.7669L59.2947 35.754L56.457 16.3508Z" fill="var(--fill-0, #838383)" style="fill:#838383;fill:color(display-p3 0.5137 0.5137 0.5137);fill-opacity:1;"/>
<path id="Vector_4" fill-rule="evenodd" clip-rule="evenodd" d="M25.4161 19.8848C37.0614 16.3082 48.705 12.7173 60.3654 9.18961C61.8554 8.73881 63.3488 8.28028 64.8462 7.8534C65.1387 7.7695 65.5181 7.64438 65.8438 7.62598C68.1265 7.48062 70.3647 7.93915 72.4233 8.92907C75.5388 10.4279 78.0566 13.0481 79.6445 16.0995C82.8222 22.2061 82.1017 29.4189 76.7473 34.0841C76.6785 34.1433 76.6159 34.1875 76.5372 34.2309L31.7181 58.8299C31.3637 59.0245 30.971 59.0326 30.6089 58.8523C30.2468 58.6724 30.0164 58.3544 29.9579 57.954L24.5833 21.2019C24.4972 20.6131 24.8471 20.0592 25.4161 19.8848Z" fill="var(--fill-0, #000100)" style="fill:#000100;fill:color(display-p3 0.0000 0.0039 0.0000);fill-opacity:1;"/>
<path id="Vector_5" fill-rule="evenodd" clip-rule="evenodd" d="M25.7656 21.0294C65.5814 8.8011 65.9177 8.82098 65.9177 8.82098C77.5421 8.08019 85.8129 24.5986 75.9583 33.1822L31.1395 57.7812L25.7656 21.0294Z" fill="var(--fill-0, #CECECE)" style="fill:#CECECE;fill:color(display-p3 0.8078 0.8078 0.8078);fill-opacity:1;"/>
<path id="Vector_6" fill-rule="evenodd" clip-rule="evenodd" d="M38.7148 17.0584C43.3314 15.6442 47.1623 14.474 50.3447 13.5039L51.2055 13.5153L61.3682 26.9694L79.9975 20.5364C80.4092 22.4099 80.4608 24.3503 80.0773 26.2293L46.8337 49.169L45.178 50.078L43.9059 32.6951C47.4718 31.5808 56.1223 28.3534 51.207 22.9608C48.8639 20.3903 45.04 17.7216 39.0394 17.0934C38.929 17.082 38.8227 17.0698 38.7148 17.0584Z" fill="var(--fill-0, #838383)" style="fill:#838383;fill:color(display-p3 0.5137 0.5137 0.5137);fill-opacity:1;"/>
<path id="Vector_7" fill-rule="evenodd" clip-rule="evenodd" d="M42.9305 14.44C45.9573 13.5137 48.9848 12.5889 52.0127 11.6664L52.3273 11.5703L52.6468 11.6487C65.0745 14.702 68.1705 27.7332 67.2932 38.93L67.2424 39.5747L55.8995 45.8002L56.3268 43.3478C57.4201 37.0746 57.7182 29.6295 53.9929 24.1118C51.3853 20.2492 47.3074 18.0445 42.936 16.7308L39.1562 15.5948L42.9305 14.44Z" fill="var(--fill-0, #000100)" style="fill:#000100;fill:color(display-p3 0.0000 0.0039 0.0000);fill-opacity:1;"/>
<path id="Vector_8" fill-rule="evenodd" clip-rule="evenodd" d="M43.2812 15.5838C46.799 14.5078 49.8018 13.5907 52.3624 12.8105C64.4976 15.7925 66.8815 28.8734 66.1006 38.8362L57.5067 43.5529C60.044 28.9875 56.2363 19.478 43.2812 15.5838Z" fill="var(--fill-0, #8D8D8D)" style="fill:#8D8D8D;fill:color(display-p3 0.5529 0.5529 0.5529);fill-opacity:1;"/>
<path id="Vector_9" fill-rule="evenodd" clip-rule="evenodd" d="M66.9739 35.045C66.7976 35.113 66.6165 35.1686 66.4307 35.2109C63.9658 35.771 61.685 33.9586 60.5184 31.9442C59.7294 30.5811 59.2978 28.9616 59.3916 27.3836C59.4792 25.9141 60.0389 24.4466 61.2345 23.528C61.6842 23.1825 62.1961 22.9389 62.7492 22.8134C62.9148 22.7758 63.0797 22.749 63.2431 22.7321C65.2244 21.8496 67.212 20.9774 69.2106 20.1358C70.4206 19.6258 71.6438 19.1172 72.8773 18.6642C73.3598 18.4875 73.9239 18.2756 74.4292 18.1781C74.502 18.1641 74.5753 18.1541 74.647 18.1486C75.6756 17.7125 76.7792 17.6235 77.8681 17.944C79.5801 18.4482 80.9133 19.8602 81.6434 21.4499C82.9061 24.1993 82.3938 27.4734 79.5179 28.9373L67.7375 34.9338C67.4898 35.0593 67.2337 35.0965 66.9739 35.045Z" fill="var(--fill-0, #000100)" style="fill:#000100;fill:color(display-p3 0.0000 0.0039 0.0000);fill-opacity:1;"/>
<path id="Vector_10" fill-rule="evenodd" clip-rule="evenodd" d="M62.7109 24.2806C74.721 18.9089 74.8763 19.3616 74.8763 19.3616C79.5999 17.0019 83.7664 25.4325 78.9754 27.8708L67.1954 33.8674L62.7109 24.2806Z" fill="var(--fill-0, #838383)" style="fill:#838383;fill:color(display-p3 0.5137 0.5137 0.5137);fill-opacity:1;"/>
<path id="Vector_11" fill-rule="evenodd" clip-rule="evenodd" d="M61.0584 23.2961C61.5412 22.9251 62.0917 22.6635 62.6853 22.5284C65.2786 21.9381 67.6849 23.8065 68.9163 25.9335C70.4339 28.5537 70.7794 32.6896 68.1258 34.7287C67.6426 35.1 67.0917 35.3617 66.4974 35.4967C63.9048 36.0863 61.4985 34.2183 60.2672 32.0916C58.7495 29.4715 58.404 25.3355 61.0584 23.2961Z" fill="var(--fill-0, #000100)" style="fill:#000100;fill:color(display-p3 0.0000 0.0039 0.0000);fill-opacity:1;"/>
<path id="Vector_12" fill-rule="evenodd" clip-rule="evenodd" d="M61.966 24.476C60.2894 25.764 60.1061 28.8386 61.5567 31.3436C63.007 33.8482 65.5422 34.8341 67.2184 33.5461C68.8947 32.2577 69.0783 29.1831 67.6276 26.6785C66.1777 24.1739 63.6429 23.1876 61.966 24.476Z" fill="var(--fill-0, #838383)" style="fill:#838383;fill:color(display-p3 0.5137 0.5137 0.5137);fill-opacity:1;"/>
<path id="Vector_13" fill-rule="evenodd" clip-rule="evenodd" d="M22.5355 18.8052C23.8526 18.3474 25.2256 18.092 26.6188 18.0423C30.7379 17.8947 34.7237 19.5559 37.9014 22.1028C41.5074 24.9934 44.147 29.0058 45.6584 33.3526C47.1698 37.6998 47.589 42.4841 46.5541 46.9881C45.6382 50.975 43.5623 54.7212 40.2249 57.1721C39.101 57.9975 37.8657 58.6493 36.549 59.1071C35.2904 59.5446 34.0572 60.0716 32.795 60.5135C31.4533 60.9838 29.4753 61.6267 28.0526 61.46C20.06 60.5216 15.7477 51.2352 13.4264 44.5596C11.0315 37.6718 8.73772 27.1628 14.9981 21.5674C16.5835 20.1498 20.4559 19.5283 22.5355 18.8052Z" fill="var(--fill-0, #000100)" style="fill:#000100;fill:color(display-p3 0.0000 0.0039 0.0000);fill-opacity:1;"/>
<path id="Vector_14" fill-rule="evenodd" clip-rule="evenodd" d="M22.9293 19.9341C21.2961 20.502 17.0538 21.3336 15.7956 22.4583C10.6767 27.0332 11.6251 35.7331 14.5569 44.1647C17.3784 52.2788 21.606 59.4967 28.1924 60.2695C30.1329 60.4973 34.2725 58.6293 36.1559 57.9747C44.4323 55.0969 48.1807 44.2483 44.5283 33.7441C40.8759 23.2395 31.2056 17.0568 22.9293 19.9341Z" fill="var(--fill-0, #CECECE)" style="fill:#CECECE;fill:color(display-p3 0.8078 0.8078 0.8078);fill-opacity:1;"/>
<path id="Vector_15" fill-rule="evenodd" clip-rule="evenodd" d="M16.9381 20.7504C18.2551 20.2926 19.6285 20.0372 21.0218 19.9876C25.1408 19.8404 29.1266 21.5012 32.3039 24.0484C35.9096 26.9387 38.5492 30.951 40.061 35.2978C41.5724 39.6447 41.9911 44.4294 40.9567 48.9333C40.0404 52.9199 37.9645 56.6665 34.6271 59.1174C33.5036 59.9424 32.2682 60.5945 30.9511 61.0523C29.6344 61.5101 28.2611 61.7655 26.8682 61.8152C22.7492 61.9628 18.7634 60.302 15.5857 57.7543C11.98 54.864 9.34035 50.8517 7.82861 46.5049C6.31723 42.1581 5.89844 37.3734 6.93326 32.8694C7.84921 28.8829 9.9251 25.1363 13.2629 22.6854C14.3856 21.8603 15.621 21.2086 16.9381 20.7504Z" fill="var(--fill-0, #000100)" style="fill:#000100;fill:color(display-p3 0.0000 0.0039 0.0000);fill-opacity:1;"/>
<path id="Vector_16" fill-rule="evenodd" clip-rule="evenodd" d="M17.3294 21.8816C9.05312 24.759 5.30467 35.6076 8.95707 46.1122C12.6095 56.6167 22.2798 62.7999 30.5561 59.9221C38.8324 57.0443 42.5809 46.1957 38.9285 35.6911C35.2761 25.1866 25.6061 19.0038 17.3294 21.8816Z" fill="var(--fill-0, #838383)" style="fill:#838383;fill:color(display-p3 0.5137 0.5137 0.5137);fill-opacity:1;"/>
<path id="Vector_17" fill-rule="evenodd" clip-rule="evenodd" d="M39.4452 53.2338C37.7708 56.6477 33.8296 58.8804 30.0377 58.4951C26.4217 58.1275 23.049 56.5116 20.3012 54.1652C17.2843 51.5892 15.0572 48.1826 13.7577 44.4445C11.3271 37.4547 12.2081 28.9933 17.5728 23.559C20.087 21.0125 25.0366 19.935 28.3228 21.4349C33.9852 24.019 38.0745 29.525 40.0628 35.3023C41.1071 38.3368 41.626 41.5616 41.4994 44.772C41.3846 47.6877 40.7329 50.6074 39.4452 53.2338Z" fill="var(--fill-0, #000100)" style="fill:#000100;fill:color(display-p3 0.0000 0.0039 0.0000);fill-opacity:1;"/>
<path id="Vector_18" fill-rule="evenodd" clip-rule="evenodd" d="M38.3681 52.7059C40.6747 48.0029 41.0298 41.7958 38.9289 35.6911C36.7923 29.4829 32.5956 24.7011 27.8238 22.5229C24.9961 21.2324 20.5823 22.2112 18.4225 24.3994C13.9207 28.9593 12.3093 36.6394 14.886 44.0506C17.504 51.5806 23.6852 56.6457 30.1569 57.3033C33.459 57.6393 36.9185 55.6617 38.3681 52.7059Z" fill="var(--fill-0, white)" style="fill:white;fill-opacity:1;"/>
<path id="Vector_19" fill-rule="evenodd" clip-rule="evenodd" d="M111.874 30.408C112.139 33.8962 111.15 37.3503 108.908 40.302C108.855 40.3716 108.805 40.426 108.738 40.4831L70.5745 73.5225C70.2602 73.7948 69.8632 73.8827 69.4631 73.7683C69.0631 73.655 68.7724 73.3716 68.6484 72.9745L57.7122 37.9796C57.5418 37.4342 57.7703 36.859 58.2686 36.5793C68.6344 30.7576 78.9962 24.9222 89.3867 19.1435C90.714 18.4053 92.0429 17.659 93.3824 16.9421C93.6492 16.7993 93.9841 16.6017 94.295 16.5163C96.4383 15.9139 98.6529 15.9169 100.799 16.5049C101.289 16.6389 101.769 16.8015 102.238 16.9907C102.42 16.8895 102.601 16.7883 102.783 16.6871C103.487 16.2959 104.191 15.9003 104.901 15.5205C105.101 15.4131 105.295 15.3027 105.513 15.2456C106.739 14.9041 108.006 14.9071 109.232 15.2427C111.822 15.9522 113.909 18.0465 114.89 20.511C115.998 23.2971 115.635 26.2948 113.814 28.6934C113.761 28.763 113.71 28.8175 113.644 28.8745L111.874 30.408Z" fill="var(--fill-0, #000100)" style="fill:#000100;fill:color(display-p3 0.0000 0.0039 0.0000);fill-opacity:1;"/>
<path id="Vector_20" fill-rule="evenodd" clip-rule="evenodd" d="M86.9376 26.9379C105.651 16.4278 105.82 16.4028 105.82 16.4028C111.523 14.8005 117.021 22.4902 112.86 27.9705L92.7115 45.4133L86.9376 26.9379Z" fill="var(--fill-0, #838383)" style="fill:#838383;fill:color(display-p3 0.5137 0.5137 0.5137);fill-opacity:1;"/>
<path id="Vector_21" fill-rule="evenodd" clip-rule="evenodd" d="M94.2181 16.234C96.4122 15.618 98.6794 15.6206 100.876 16.2222C105.546 17.501 109.309 21.2981 111.076 25.738C113.074 30.7619 112.426 36.1535 109.141 40.4793C109.075 40.5658 109.012 40.6339 108.93 40.7049L70.7659 73.744C70.3743 74.0829 69.8812 74.1922 69.3829 74.0505C68.8854 73.9088 68.5233 73.5555 68.3691 73.0621L57.4329 38.0671C57.2209 37.3881 57.505 36.672 58.1251 36.3242C68.4916 30.5021 78.8534 24.6667 89.2443 18.888C90.5727 18.1487 91.9038 17.4017 93.244 16.6841C93.5425 16.5244 93.8796 16.3264 94.2181 16.234Z" fill="var(--fill-0, #000100)" style="fill:#000100;fill:color(display-p3 0.0000 0.0039 0.0000);fill-opacity:1;"/>
<path id="Vector_22" fill-rule="evenodd" clip-rule="evenodd" d="M58.8516 37.6237C94.297 17.7167 94.6164 17.6696 94.6164 17.6696C105.419 14.634 115.833 29.1994 107.951 39.5796L69.7874 72.619L58.8516 37.6237Z" fill="var(--fill-0, #CECECE)" style="fill:#CECECE;fill:color(display-p3 0.8078 0.8078 0.8078);fill-opacity:1;"/>
<path id="Vector_23" fill-rule="evenodd" clip-rule="evenodd" d="M69.0547 31.8978C72.3225 30.0652 75.1727 28.4692 77.6585 27.0781C78.4641 27.1922 79.373 27.3442 80.4038 27.5403C86.4151 28.6855 91.4247 34.84 91.4247 34.84L101.158 35.4126L110.539 29.356C111.082 32.7328 110.399 36.3569 107.953 39.5783L75.6798 67.518C77.31 61.2911 81.2627 51.4434 81.2627 51.4434C81.2627 51.4434 85.9856 48.4379 86.4155 47.579C86.8449 46.7198 87.4886 45.6463 83.9105 40.2073C80.7961 35.474 72.9673 32.4219 69.0547 31.8978Z" fill="var(--fill-0, #838383)" style="fill:#838383;fill:color(display-p3 0.5137 0.5137 0.5137);fill-opacity:1;"/>
<path id="Vector_24" fill-rule="evenodd" clip-rule="evenodd" d="M69.4984 29.4496C71.5982 28.2458 73.7242 27.1989 75.9053 26.1567C76.7333 25.7611 77.5609 25.3644 78.3812 24.953C78.5659 24.8606 78.7441 24.8209 78.9509 24.8267C84.3535 24.9758 89.6405 26.4592 93.3419 30.6113C97.7174 35.5197 98.5285 42.6512 98.1837 48.958C98.1667 49.2597 98.0545 49.514 97.8433 49.73L90.8185 56.9035C90.4431 57.2865 89.8838 57.3752 89.4087 57.1265C88.9332 56.8781 88.6867 56.3676 88.7875 55.8407C89.8334 50.3766 89.3388 44.3587 86.0503 39.7042C84.1702 37.0429 81.5931 34.8047 78.6804 33.3397C76.1188 32.0513 73.1251 31.2885 70.2517 31.6737C69.6787 31.751 69.1444 31.4195 68.9589 30.8719C68.7742 30.3247 68.9969 29.7373 69.4984 29.4496Z" fill="var(--fill-0, #000100)" style="fill:#000100;fill:color(display-p3 0.0000 0.0039 0.0000);fill-opacity:1;"/>
<path id="Vector_25" fill-rule="evenodd" clip-rule="evenodd" d="M70.0938 30.4884C73.5526 28.5056 76.0311 27.4693 78.918 26.0234C92.8192 26.4073 97.7114 35.6783 96.9894 48.8932L89.9643 56.0666C91.2387 49.4062 90.1115 43.3772 87.0291 39.0146C82.9123 33.1873 75.9648 29.7009 70.0938 30.4884Z" fill="var(--fill-0, #8D8D8D)" style="fill:#8D8D8D;fill:color(display-p3 0.5529 0.5529 0.5529);fill-opacity:1;"/>
<path id="Vector_26" fill-rule="evenodd" clip-rule="evenodd" d="M54.3923 35.3163C56.3364 33.8189 58.5706 32.7955 60.9729 32.295C64.5947 31.5409 68.3664 32.0241 71.7634 33.4475C75.4588 34.9957 78.6196 37.5971 80.9785 40.823C83.5066 44.2804 85.0706 48.3942 85.3599 52.6748C85.6281 56.6419 84.7821 60.6762 82.6779 64.0744C81.6283 65.769 80.294 67.2572 78.7142 68.4742C76.7325 70.0003 73.3336 73.1713 70.9961 73.7472C69.5984 74.0917 68.1625 74.1748 66.735 73.989C60.6262 73.1949 55.5688 67.6727 52.128 62.967C47.6424 56.8336 43.1381 47.9063 47.7124 40.6044C48.4189 39.4765 50.0885 38.293 51.1808 37.5298C51.792 37.1022 52.4117 36.6882 53.03 36.2708C53.4859 35.9636 53.9566 35.6519 54.3923 35.3163Z" fill="var(--fill-0, #000100)" style="fill:#000100;fill:color(display-p3 0.0000 0.0039 0.0000);fill-opacity:1;"/>
<path id="Vector_27" fill-rule="evenodd" clip-rule="evenodd" d="M55.1219 36.263C53.655 37.3928 49.6792 39.7171 48.726 41.2388C44.8484 47.4281 48.0261 55.3302 53.0935 62.2589C57.9698 68.9271 64.0047 74.2366 70.7092 72.5839C72.6843 72.0966 76.2922 68.8273 77.9839 67.5246C85.4167 61.7996 86.325 50.1609 80.0119 41.5284C73.6985 32.8962 62.5551 30.5388 55.1219 36.263Z" fill="var(--fill-0, #CECECE)" style="fill:#CECECE;fill:color(display-p3 0.8078 0.8078 0.8078);fill-opacity:1;"/>
<path id="Vector_28" fill-rule="evenodd" clip-rule="evenodd" d="M49.3622 39.1873C51.3067 37.6899 53.5405 36.6661 55.9432 36.166C59.565 35.412 63.3367 35.8955 66.734 37.3186C70.4288 38.8667 73.5891 41.4681 75.9488 44.6937C78.4769 48.151 80.0413 52.2649 80.3305 56.5455C80.5992 60.5125 79.7528 64.5472 77.6486 67.945C76.5987 69.64 75.2643 71.1278 73.6845 72.3448C71.7399 73.8418 69.5062 74.8656 67.1039 75.3657C63.4817 76.1197 59.7104 75.6366 56.3123 74.2131C52.6176 72.665 49.4568 70.0639 47.0979 66.8377C44.5694 63.3803 43.0054 59.2665 42.7161 54.9855C42.4479 51.0185 43.2943 46.9841 45.3981 43.586C46.4477 41.8921 47.7824 40.4035 49.3622 39.1873Z" fill="var(--fill-0, #000100)" style="fill:#000100;fill:color(display-p3 0.0000 0.0039 0.0000);fill-opacity:1;"/>
<path id="Vector_29" fill-rule="evenodd" clip-rule="evenodd" d="M50.0949 40.1363C42.6617 45.8609 41.7534 57.5 48.0668 66.133C54.3795 74.7651 65.5237 77.1225 72.9569 71.3983C80.3898 65.673 81.2976 54.0342 74.9849 45.4017C68.6719 36.7691 57.5281 34.4117 50.0949 40.1363Z" fill="var(--fill-0, #838383)" style="fill:#838383;fill:color(display-p3 0.5137 0.5137 0.5137);fill-opacity:1;"/>
<path id="Vector_30" fill-rule="evenodd" clip-rule="evenodd" d="M80.0476 61.6449C79.1504 66.5187 76.4489 69.2669 71.6241 70.3577C64.2748 72.0196 56.8117 68.74 52.4229 62.739C48.2145 56.9842 47.1848 49.2683 50.1756 42.736C50.3736 42.3036 50.5885 41.8789 50.8199 41.4634C52.8513 37.8162 56.5442 35.5482 60.7593 35.8654C66.8784 36.3258 72.3667 39.7979 75.9488 44.6959C79.486 49.5322 81.1395 55.7124 80.0476 61.6449Z" fill="var(--fill-0, #000100)" style="fill:#000100;fill:color(display-p3 0.0000 0.0039 0.0000);fill-opacity:1;"/>
<path id="Vector_31" fill-rule="evenodd" clip-rule="evenodd" d="M78.8698 61.4264C79.8303 56.2081 78.5776 50.3168 74.9822 45.4007C71.293 40.3554 65.9533 37.4548 60.6692 37.0574C57.0183 36.7825 53.7335 38.6902 51.8648 42.0445C48.5444 48.0061 48.9135 55.9123 53.3883 62.031C57.7933 68.0544 64.931 70.6418 71.3589 69.189C75.7517 68.195 78.0661 65.7923 78.8698 61.4264Z" fill="var(--fill-0, white)" style="fill:white;fill-opacity:1;"/>
<path id="Vector_32" fill-rule="evenodd" clip-rule="evenodd" d="M55.6709 54.9801C55.9186 42.5329 70.3405 41.2246 73.3585 51.8307C74.1986 54.7832 73.6084 58.68 71.4269 61.2699C68.2462 65.0467 55.4443 66.366 55.6709 54.9801Z" fill="var(--fill-0, white)" style="fill:white;fill-opacity:1;"/>
<path id="Vector_33" fill-rule="evenodd" clip-rule="evenodd" d="M66.0071 61.34C69.4644 61.34 72.2837 58.5207 72.2837 55.0633C72.2837 51.6064 69.4644 48.7871 66.0071 48.7871C62.5501 48.7871 59.7305 51.6064 59.7305 55.0633C59.7305 58.5207 62.5497 61.34 66.0071 61.34Z" fill="var(--fill-0, #000100)" style="fill:#000100;fill:color(display-p3 0.0000 0.0039 0.0000);fill-opacity:1;"/>
<path id="Vector_34" fill-rule="evenodd" clip-rule="evenodd" d="M61.734 53.4957C62.9344 53.4957 63.9133 52.5164 63.9133 51.3164C63.9133 50.116 62.9344 49.1367 61.734 49.1367C60.5336 49.1367 59.5547 50.116 59.5547 51.3164C59.5547 52.5164 60.5336 53.4957 61.734 53.4957Z" fill="var(--fill-0, white)" style="fill:white;fill-opacity:1;"/>
<path id="Vector_35" fill-rule="evenodd" clip-rule="evenodd" d="M18.0225 41.4255C18.2702 28.9783 32.6921 27.6697 35.7104 38.2762C36.5506 41.2287 35.9599 45.1254 33.7788 47.7154C30.5978 51.4926 17.7958 52.8115 18.0225 41.4255Z" fill="var(--fill-0, white)" style="fill:white;fill-opacity:1;"/>
<path id="Vector_36" fill-rule="evenodd" clip-rule="evenodd" d="M28.3547 47.7872C31.8117 47.7872 34.6313 44.9676 34.6313 41.5106C34.6313 38.0536 31.8117 35.2344 28.3547 35.2344C24.8974 35.2344 22.0781 38.0536 22.0781 41.5106C22.0781 44.9676 24.8974 47.7872 28.3547 47.7872Z" fill="var(--fill-0, #000100)" style="fill:#000100;fill:color(display-p3 0.0000 0.0039 0.0000);fill-opacity:1;"/>
<path id="Vector_37" fill-rule="evenodd" clip-rule="evenodd" d="M24.0855 39.9422C25.286 39.9422 26.2648 38.9633 26.2648 37.7633C26.2648 36.5629 25.286 35.584 24.0855 35.584C22.8851 35.584 21.9062 36.5629 21.9062 37.7633C21.9062 38.9633 22.8851 39.9422 24.0855 39.9422Z" fill="var(--fill-0, white)" style="fill:white;fill-opacity:1;"/>
<path id="Vector_38" fill-rule="evenodd" clip-rule="evenodd" d="M63.527 27.1743C62.848 27.6965 62.7737 28.9414 63.361 29.9553C63.9483 30.9695 64.9747 31.3688 65.6536 30.8473C66.3326 30.3255 66.4066 29.0805 65.8192 28.0663C65.2319 27.0521 64.2055 26.6528 63.527 27.1743Z" fill="var(--fill-0, #000100)" style="fill:#000100;fill:color(display-p3 0.0000 0.0039 0.0000);fill-opacity:1;"/>
<path id="Vector_39" fill-rule="evenodd" clip-rule="evenodd" d="M44.6471 14.9661C44.5106 14.9355 44.4248 14.8005 44.4554 14.6643C44.4863 14.5282 44.6214 14.4424 44.7579 14.473C47.8881 15.1799 51.3955 16.6766 54.1908 19.2459C56.4147 21.2894 58.1873 24.0097 58.9649 27.548C59.6549 30.6885 59.8128 31.759 59.8415 32.5134C59.8691 33.2369 59.787 33.7253 59.5467 32.9661C59.231 31.9684 59.0109 30.1167 58.4699 27.6551C57.7174 24.2301 56.001 21.5971 53.8486 19.6187C51.125 17.1156 47.703 15.6561 44.6471 14.9661Z" fill="var(--fill-0, #000100)" style="fill:#000100;fill:color(display-p3 0.0000 0.0039 0.0000);fill-opacity:1;"/>
<path id="Vector_40" fill-rule="evenodd" clip-rule="evenodd" d="M71.4523 29.5229C71.3139 29.5402 71.1873 29.4423 71.17 29.304C71.1524 29.1656 71.2506 29.039 71.389 29.0217C72.0484 28.9371 72.737 28.9061 73.4454 28.9293C77.189 29.0541 81.5185 30.7013 85.1205 33.9617C88.7163 37.2171 91.5896 42.0809 92.4338 48.6435C92.6436 50.2744 92.7275 52.0099 92.666 53.8514C92.662 53.9905 92.5453 54.1002 92.4055 54.0957C92.2664 54.0913 92.1567 53.9747 92.1611 53.8352C92.2215 52.0199 92.1387 50.3109 91.9326 48.7068C91.1057 42.2782 88.2964 37.5185 84.7816 34.3367C81.2731 31.1601 77.0639 29.556 73.4292 29.435C72.7462 29.4118 72.0845 29.4416 71.4523 29.5229Z" fill="var(--fill-0, #000100)" style="fill:#000100;fill:color(display-p3 0.0000 0.0039 0.0000);fill-opacity:1;"/>
<path id="Vector_41" fill-rule="evenodd" clip-rule="evenodd" d="M67.1653 24.9132C67.0365 24.9666 66.8886 24.9051 66.8356 24.7756C66.7822 24.6464 66.8441 24.4988 66.9732 24.4459L79.2585 19.3767C79.3881 19.3233 79.5353 19.3848 79.5886 19.5143C79.6413 19.6438 79.5798 19.791 79.4506 19.8444L67.1653 24.9132Z" fill="var(--fill-0, #000100)" style="fill:#000100;fill:color(display-p3 0.0000 0.0039 0.0000);fill-opacity:1;"/>
<path id="Vector_42" fill-rule="evenodd" clip-rule="evenodd" d="M69.3263 27.529C69.2015 27.5912 69.0503 27.5408 68.9877 27.4161C68.9252 27.2913 68.976 27.1397 69.1007 27.0775C69.8518 26.7018 80.8211 21.425 80.8528 21.4099C80.9783 21.3492 81.1295 21.4022 81.1902 21.5277C81.251 21.6535 81.1983 21.8048 81.0725 21.8659C81.0401 21.8806 70.0067 27.189 69.3263 27.529Z" fill="var(--fill-0, #000100)" style="fill:#000100;fill:color(display-p3 0.0000 0.0039 0.0000);fill-opacity:1;"/>
<path id="Vector_43" fill-rule="evenodd" clip-rule="evenodd" d="M58.7401 42.249C58.8229 42.1876 58.9064 42.1276 58.9907 42.0698C59.3304 41.835 59.6833 41.6245 60.048 41.4398C60.7744 41.0718 61.5468 40.8057 62.3527 40.6504C62.557 40.611 62.7631 40.579 62.9714 40.554C63.5443 40.4852 64.1313 40.4719 64.7282 40.5168C64.8309 40.5246 64.9335 40.5334 65.0362 40.543C65.1602 40.5544 65.2842 40.5672 65.4079 40.5816C68.1848 40.9025 70.9558 41.9104 73.4759 43.5525C71.7577 41.6676 69.7878 40.1698 67.691 39.0857C67.5603 39.018 67.4289 38.9521 67.2976 38.8877C66.9844 38.7346 66.669 38.5904 66.3511 38.4557C66.2793 38.4251 66.2072 38.3953 66.1354 38.3659C64.3558 37.6365 62.511 37.1956 60.6732 37.0573C60.4163 37.0378 60.1613 37.0297 59.9081 37.0315C59.3318 37.0363 58.7666 37.0955 58.2172 37.2067C58.0405 37.2427 57.8654 37.2836 57.6924 37.33C57.5864 37.3583 57.4815 37.3885 57.377 37.4205C57.2526 37.4591 57.129 37.5 57.0068 37.5438C55.1013 38.2253 53.4464 39.5626 52.2508 41.4092C52.1176 41.6146 51.9902 41.8265 51.8688 42.0444C51.775 42.2129 51.6841 42.3833 51.5957 42.5552C50.8082 44.0916 50.2577 45.7457 49.9515 47.4569C49.8639 47.9445 49.7966 48.4373 49.7487 48.9334C49.3226 53.374 50.4998 58.0763 53.3923 62.0312C54.1747 63.1017 55.0443 64.0637 55.9801 64.9138C56.2988 65.203 56.6252 65.4794 56.9582 65.7421C57.476 66.151 58.0103 66.5282 58.5587 66.873C58.1719 66.4347 57.801 65.9732 57.4477 65.4904C57.3557 65.3646 57.2651 65.2372 57.1765 65.1103C56.8762 64.6779 56.5954 64.2374 56.3345 63.7899C53.4133 58.7763 52.9794 52.8757 54.8341 47.8732C55.0148 47.3867 55.2169 46.9083 55.4406 46.4398C55.5823 46.1428 55.7328 45.8499 55.8921 45.5614C55.9028 45.5422 55.9135 45.5231 55.9242 45.5036C55.9378 45.4789 55.9514 45.4547 55.965 45.4304C56.4176 44.6314 56.9516 43.9157 57.5518 43.2941C57.5581 43.2875 57.5643 43.2812 57.5706 43.2746C57.9364 42.8978 58.3276 42.5548 58.7401 42.249Z" fill="var(--fill-0, #D9D9D9)" style="fill:#D9D9D9;fill:color(display-p3 0.8510 0.8510 0.8510);fill-opacity:1;"/>
<path id="Vector_44" fill-rule="evenodd" clip-rule="evenodd" d="M36.9543 31.3023C34.6495 27.2451 31.3989 24.154 27.8249 22.523C27.436 22.3456 27.0172 22.2109 26.5781 22.1163C26.3596 22.0692 26.1362 22.0321 25.9091 22.0052C25.5124 21.9574 25.1039 21.9386 24.6907 21.9474C22.362 21.9982 19.8802 22.9237 18.4233 24.3994C17.8032 25.0276 17.2376 25.715 16.7305 26.4528C19.0389 25.2245 22.1772 24.8638 24.3657 25.8626C24.691 26.0109 25.0138 26.1717 25.3336 26.3443C25.7818 26.5861 26.2241 26.851 26.6595 27.1384C35.5953 33.0386 39.6495 45.6452 35.1238 55.5933C35.0547 55.7456 34.9836 55.8962 34.9104 56.0456C34.8596 56.1493 34.8066 56.2513 34.7507 56.3521C35.6619 55.8704 36.4895 55.2301 37.1718 54.4694C37.6498 53.9358 38.0564 53.3437 38.3689 52.706C39.1446 51.1243 39.6996 49.3723 40.0149 47.5109C40.1202 46.8883 40.1986 46.2535 40.2497 45.6087C40.4992 42.4509 40.0874 39.0557 38.9293 35.6911C38.5418 34.5654 38.0862 33.4861 37.5721 32.4612C37.3753 32.0667 37.1688 31.6803 36.9543 31.3023Z" fill="var(--fill-0, #D9D9D9)" style="fill:#D9D9D9;fill:color(display-p3 0.8510 0.8510 0.8510);fill-opacity:1;"/>
<path id="Vector_45" fill-rule="evenodd" clip-rule="evenodd" d="M21.3329 20.6752C21.4698 20.6469 21.6038 20.7345 21.6321 20.8714C21.6605 21.0083 21.5725 21.1419 21.436 21.1706C17.9569 21.9007 15.0619 24.059 13.0014 26.9073C10.7776 29.9827 9.52787 33.8585 9.56467 37.6135C9.59558 40.7493 10.4228 44.0366 11.8293 47.0943C13.266 50.2175 15.3058 53.0986 17.7177 55.3313C20.3184 57.7384 23.3496 59.3903 26.5188 59.7749C29.3244 60.1149 32.2441 59.4606 35.0741 57.4539C35.1878 57.3729 35.3456 57.3994 35.4262 57.5135C35.5076 57.6272 35.4807 57.7851 35.367 57.8661C32.4241 59.9526 29.384 60.6327 26.4592 60.2779C23.1792 59.8805 20.0508 58.1792 17.3751 55.7019C14.9136 53.4236 12.8332 50.4866 11.3693 47.3045C9.93488 44.1853 9.09069 40.8269 9.05941 37.6176C9.02151 33.7551 10.3058 29.7704 12.5915 26.61C14.7211 23.6656 17.7207 21.4333 21.3329 20.6752Z" fill="var(--fill-0, #000100)" style="fill:#000100;fill:color(display-p3 0.0000 0.0039 0.0000);fill-opacity:1;"/>
<path id="Vector_46" fill-rule="evenodd" clip-rule="evenodd" d="M53.5095 37.2374C53.6305 37.1671 53.7851 37.2083 53.855 37.3294C53.9249 37.4505 53.8837 37.605 53.763 37.675C51.2945 39.1131 49.2944 41.3314 47.9041 43.9122C46.4612 46.5898 45.6759 49.6545 45.7049 52.6426C45.7421 56.4397 47.107 60.3423 49.3503 63.7345C51.2231 66.5659 53.7064 69.0392 56.54 70.7946C59.3669 72.5467 62.5417 73.5844 65.8051 73.5528C68.6096 73.5248 71.4841 72.7056 74.2628 70.8678C74.3791 70.7906 74.5363 70.8226 74.6132 70.9389C74.6905 71.0555 74.6588 71.2127 74.5425 71.2896C71.6776 73.1844 68.7093 74.0293 65.8091 74.0577C62.4456 74.0908 59.1785 73.0236 56.2746 71.2244C53.377 69.4293 50.84 66.9037 48.929 64.0138C46.6341 60.5443 45.2383 56.5449 45.2 52.6467C45.1699 49.5728 45.9769 46.4227 47.4584 43.6723C48.8911 41.0131 50.957 38.7245 53.5095 37.2374Z" fill="var(--fill-0, #000100)" style="fill:#000100;fill:color(display-p3 0.0000 0.0039 0.0000);fill-opacity:1;"/>
<path id="Vector_47" fill-rule="evenodd" clip-rule="evenodd" d="M114.774 20.2985C114.861 20.1893 115.02 20.1712 115.13 20.2581C115.239 20.3449 115.257 20.5043 115.17 20.6136C113.203 23.0913 109.941 24.6858 109.932 24.6906C109.806 24.7525 109.654 24.7009 109.593 24.5754C109.531 24.4503 109.582 24.2987 109.707 24.2369C109.716 24.2328 112.877 22.6876 114.774 20.2985Z" fill="var(--fill-0, #000100)" style="fill:#000100;fill:color(display-p3 0.0000 0.0039 0.0000);fill-opacity:1;"/>
<path id="Vector_48" fill-rule="evenodd" clip-rule="evenodd" d="M79.3287 17.1196C79.1944 17.1589 79.0538 17.0824 79.0141 16.9484C78.975 16.8141 79.052 16.6735 79.1855 16.6342C83.4658 15.3712 84.629 13.66 84.6323 13.6552C84.7118 13.5404 84.8697 13.5124 84.9841 13.5926C85.0982 13.6725 85.1262 13.83 85.0463 13.9441C85.0423 13.9496 83.7796 15.8062 79.3287 17.1196Z" fill="var(--fill-0, #000100)" style="fill:#000100;fill:color(display-p3 0.0000 0.0039 0.0000);fill-opacity:1;"/>
<path id="Vector_49" fill-rule="evenodd" clip-rule="evenodd" d="M28.8825 20.0717C34.1041 21.2423 39.0529 25.3436 41.9925 31.2655C42.1975 31.6784 42.3925 32.0997 42.5773 32.5299C42.8168 33.0878 43.0391 33.6597 43.243 34.2452C43.7453 35.6903 44.1078 37.1417 44.3378 38.578C44.5608 39.9716 44.6591 41.3513 44.6392 42.697C44.6256 43.6034 44.559 44.4947 44.4405 45.3643C44.5498 45.131 44.6638 44.8999 44.7838 44.6714C44.9763 44.3037 45.1824 43.9416 45.402 43.5865C45.5643 43.3245 45.7336 43.0665 45.9099 42.8144C46.0324 39.8991 45.5964 36.8068 44.5314 33.744C44.4497 33.5088 44.365 33.2759 44.2774 33.0455C44.2241 32.9057 44.17 32.7662 44.1144 32.6278C43.9691 32.2642 43.8163 31.9058 43.6563 31.554C40.8098 25.284 35.745 20.8989 30.3674 19.6164C29.4283 19.3923 28.4796 19.2632 27.5312 19.2345C25.9823 19.1881 24.4341 19.4122 22.9327 19.9344C22.8495 19.9635 22.7597 19.9929 22.6641 20.0231C22.7697 20.0312 22.8753 20.0407 22.9805 20.0514C23.9506 19.8295 24.9343 19.7246 25.9194 19.7298C26.9086 19.7349 27.9007 19.8516 28.8825 20.0717Z" fill="var(--fill-0, white)" style="fill:white;fill-opacity:1;"/>
<path id="Vector_50" fill-rule="evenodd" clip-rule="evenodd" d="M72.3034 36.553C74.706 37.9536 76.9129 39.9128 78.7228 42.3876C80.6021 44.9577 81.8412 47.7935 82.4591 50.661C83.3625 54.8547 82.9367 59.1147 81.2388 62.7053C80.6169 64.0201 79.8242 65.2452 78.8637 66.3444C78.626 66.6164 78.3772 66.8817 78.1189 67.1382C78.0328 67.2957 77.9437 67.4517 77.8532 67.6066C77.8462 67.6181 77.8396 67.6298 77.8318 67.6416C77.8841 67.6008 77.9338 67.5621 77.9827 67.525C78.5369 67.0981 79.0543 66.6384 79.5357 66.1497C80.01 65.6677 80.4491 65.158 80.8528 64.6229C81.598 63.6334 82.2213 62.5595 82.72 61.4228C84.2582 57.9191 84.6167 53.8217 83.7438 49.7866C83.1248 46.9247 81.8861 44.0937 80.0104 41.5287C78.2341 39.0995 76.0754 37.1675 73.7242 35.7724C73.3143 35.5288 72.8981 35.3018 72.4771 35.0913C71.5589 34.6316 70.6168 34.2511 69.663 33.952C69.4812 33.8949 69.299 33.8408 69.1169 33.7897C69.0963 33.7834 69.0756 33.7783 69.0554 33.7724C68.6771 33.6679 68.2977 33.5762 67.9168 33.4971C67.7424 33.461 67.5683 33.4279 67.3939 33.397C67.3895 33.3963 67.3854 33.3955 67.381 33.3948C67.2338 33.3687 67.0859 33.3451 66.9379 33.323C66.8242 33.3061 66.7101 33.2903 66.5964 33.2752C66.5147 33.2649 66.433 33.255 66.3513 33.2458C66.2914 33.2388 66.2317 33.2321 66.1721 33.2263C65.5785 33.1648 64.9846 33.1346 64.3932 33.1368C64.2802 33.1372 64.1669 33.1387 64.0543 33.1416C63.9597 33.1438 63.8655 33.1471 63.7706 33.1504C63.5556 33.1593 63.3411 33.1729 63.1273 33.1902C62.6128 33.2321 62.1013 33.2991 61.5946 33.3911C61.482 33.4117 61.3697 33.4338 61.2579 33.4566C60.5082 33.6104 59.7708 33.8198 59.0499 34.0866C58.7698 34.1904 58.492 34.3027 58.2171 34.4234C58.1144 34.469 58.0117 34.5154 57.9098 34.5628C57.6161 34.7001 57.3261 34.8473 57.0398 35.0052C56.4503 35.3294 55.8773 35.697 55.3242 36.1088C55.8825 35.7769 56.4569 35.4847 57.0442 35.2326C57.3449 35.1031 57.6489 34.9842 57.9554 34.8756C58.0467 34.8436 58.1379 34.812 58.2296 34.7818C58.5214 34.6843 58.8162 34.5963 59.1128 34.5176C60.0081 34.2795 60.9233 34.1234 61.8485 34.0484C61.9718 34.0384 62.0954 34.03 62.2183 34.0226C62.2331 34.0215 62.2478 34.0208 62.2621 34.0204C62.3317 34.0164 62.4016 34.013 62.4715 34.0101C62.601 34.0046 62.7302 34.0005 62.8598 33.9983C63.5148 33.9862 64.1731 34.0138 64.8319 34.0804C64.9242 34.0896 65.0166 34.0995 65.1086 34.1102C65.4777 34.1532 65.8464 34.2088 66.2144 34.2762C66.617 34.3494 67.0189 34.4377 67.4193 34.5396C67.5661 34.5772 67.7122 34.6162 67.8583 34.6574C67.9444 34.6817 68.0302 34.7063 68.1166 34.7321C68.1192 34.7328 68.1218 34.7336 68.1247 34.7343C69.1135 35.0295 70.0902 35.4114 71.043 35.8781C71.4691 36.0863 71.8894 36.3112 72.3034 36.553Z" fill="var(--fill-0, white)" style="fill:white;fill-opacity:1;"/>
<path id="Vector_51" fill-rule="evenodd" clip-rule="evenodd" d="M47.7145 14.305C50.0697 15.3689 53.3342 17.2457 55.7152 19.5446C55.7711 19.599 55.827 19.6535 55.8826 19.7083C56.3496 20.1713 56.7798 20.6512 57.1588 21.1439C57.4179 21.4814 57.6531 21.8247 57.8599 22.1732C59.4732 24.8957 63.5764 21.9686 62.8544 20.7152C61.75 18.7979 60.3306 17.0893 58.5337 15.7137C58.134 15.4079 57.7156 15.1186 57.2777 14.8471C55.8878 13.9848 54.3024 13.3033 52.5 12.8459C52.4536 12.8337 52.4069 12.8223 52.3601 12.8105C50.9216 13.2492 49.3436 13.7305 47.6133 14.259C47.6464 14.2744 47.6806 14.2895 47.7145 14.305Z" fill="var(--fill-0, #838383)" style="fill:#838383;fill:color(display-p3 0.5137 0.5137 0.5137);fill-opacity:1;"/>
<path id="Vector_52" fill-rule="evenodd" clip-rule="evenodd" d="M79.2062 29.0955C79.5514 29.2206 79.8977 29.3535 80.2425 29.4933C82.9495 30.5911 85.5774 32.1241 87.1304 33.9104C87.9083 34.805 88.7337 35.2028 89.5422 35.2731C90.23 35.3335 90.9053 35.1565 91.5283 34.847C92.3968 34.4157 93.1641 33.7268 93.7227 33.0625C92.1539 30.7055 89.993 28.8648 87.1616 27.6559C85.6256 27.0001 83.8931 26.5305 81.95 26.2652C81.7369 26.2358 81.5217 26.2093 81.3027 26.185C81.1084 26.1633 80.9115 26.1438 80.7132 26.1261C80.5126 26.1084 80.3109 26.093 80.1071 26.079H80.1052C79.9076 26.0658 79.7078 26.0547 79.5061 26.0451C79.4958 26.0448 79.4855 26.0444 79.4756 26.044C79.2905 26.0359 79.1035 26.0286 78.9159 26.0234C77.5616 26.7017 76.2979 27.2897 74.9805 27.9271C75.2337 27.9731 75.4935 28.0254 75.7584 28.0842C75.7827 28.0894 75.8077 28.0949 75.8328 28.1004C76.1978 28.1825 76.5739 28.276 76.957 28.3805C77.1715 28.439 77.3879 28.5012 77.6065 28.5663C78.1063 28.7161 78.6156 28.8832 79.126 29.0668C79.1529 29.0764 79.1793 29.0859 79.2062 29.0955Z" fill="var(--fill-0, #838383)" style="fill:#838383;fill:color(display-p3 0.5137 0.5137 0.5137);fill-opacity:1;"/>
<path id="Vector_53" fill-rule="evenodd" clip-rule="evenodd" d="M64.7591 25.0865C64.992 25.2209 65.2213 25.3802 65.4428 25.5624C65.7917 25.849 66.1236 26.1939 66.4254 26.5917C66.5976 26.8187 66.7606 27.0631 66.9119 27.3244C67.5647 28.4519 67.8867 29.6954 67.89 30.8391C68.1274 30.7059 68.3648 30.5727 68.6017 30.4398C68.647 29.2306 68.3276 27.8889 67.6273 26.68C67.2946 26.1048 66.9045 25.6102 66.4806 25.2043C66.2914 25.0233 66.096 24.8599 65.8955 24.7152C65.4097 24.3642 64.8964 24.1224 64.3856 24.0013C64.0993 23.9336 63.8141 23.9038 63.5348 23.9141C62.9732 23.9343 62.4359 24.1169 61.966 24.4779C61.7776 24.6229 61.6075 24.7907 61.457 24.9773C61.8813 24.7079 62.352 24.5714 62.8407 24.557C63.4696 24.539 64.1294 24.723 64.7591 25.0865Z" fill="var(--fill-0, white)" style="fill:white;fill-opacity:1;"/>
<path id="Vector_54" fill-rule="evenodd" clip-rule="evenodd" d="M64.7749 25.0565C64.8934 25.125 65.0101 25.199 65.1249 25.2788C65.239 25.3579 65.3516 25.4437 65.4634 25.5357C65.6405 25.681 65.813 25.8415 65.979 26.0156C66.1424 26.1867 66.3003 26.3721 66.4512 26.5705C66.5387 26.6857 66.6234 26.8049 66.7054 26.9278C66.7864 27.0496 66.8648 27.1759 66.9402 27.3065C67.2622 27.8622 67.504 28.4466 67.6674 29.0328C67.8315 29.6216 67.9158 30.213 67.9228 30.7808L68.5679 30.4183C68.5889 29.8111 68.5175 29.1704 68.3515 28.5308C68.1903 27.9082 67.9397 27.2859 67.5978 26.6956C67.4345 26.4134 67.2571 26.1502 67.0683 25.9074C66.8747 25.6586 66.6697 25.4312 66.4567 25.2273C66.3636 25.1379 66.2683 25.0525 66.1711 24.9715C66.0732 24.8895 65.9746 24.8129 65.8752 24.7412C65.6342 24.5671 65.3865 24.4203 65.1359 24.3018C64.8849 24.1833 64.6307 24.0931 64.3767 24.0331C64.2343 23.9993 64.0923 23.9754 63.9517 23.9606C63.8119 23.9459 63.6724 23.9415 63.5351 23.9463C63.254 23.9566 62.9783 24.0081 62.7149 24.1027C62.4591 24.1947 62.2144 24.3279 61.9855 24.5031C61.8931 24.5737 61.8048 24.6506 61.7212 24.7331C61.6844 24.7691 61.648 24.8067 61.6131 24.8449C61.772 24.7596 61.9365 24.6915 62.1054 24.6403C62.3428 24.5682 62.5886 24.5292 62.8389 24.5222C63.1557 24.513 63.4807 24.5546 63.8049 24.6444C64.1305 24.7346 64.4566 24.8729 64.7749 25.0565ZM65.0855 25.334C64.9714 25.2545 64.8562 25.1813 64.7411 25.1147C64.4279 24.934 64.107 24.7978 63.7865 24.7095C63.4685 24.6219 63.1506 24.5811 62.8403 24.5899C62.5964 24.5969 62.356 24.6352 62.1249 24.7051C61.8994 24.7739 61.6811 24.8733 61.4736 25.0047C61.4618 25.0124 61.446 25.0117 61.4346 25.0025C61.4199 24.9907 61.4176 24.9693 61.4294 24.955C61.5063 24.8597 61.5877 24.7695 61.6741 24.6849C61.7592 24.6017 61.8493 24.523 61.9443 24.4501C62.1787 24.2698 62.4296 24.1336 62.692 24.0394C62.9621 23.9422 63.244 23.8896 63.5325 23.8789C63.6735 23.8738 63.8159 23.8786 63.9583 23.8937C64.1026 23.9084 64.2476 23.933 64.3922 23.9673C64.6498 24.0284 64.9089 24.12 65.1643 24.2407C65.4185 24.361 65.6699 24.5101 65.9146 24.6867C66.0162 24.7603 66.1166 24.838 66.2142 24.9197C66.3117 25.0014 66.4081 25.0875 66.503 25.1787C66.7187 25.3855 66.9259 25.6148 67.1209 25.8658C67.3115 26.1109 67.4904 26.3766 67.656 26.6621C68.0008 27.2579 68.254 27.8857 68.4166 28.5143C68.5856 29.166 68.6573 29.8192 68.6345 30.4378C68.6349 30.45 68.6286 30.4617 68.6176 30.4684L67.9055 30.868C67.9007 30.8706 67.8952 30.8721 67.8893 30.8721C67.8709 30.8721 67.8558 30.857 67.8558 30.8386C67.854 30.2593 67.7701 29.6536 67.6023 29.0512C67.4407 28.4701 67.2008 27.8916 66.8817 27.3407C66.807 27.2116 66.7294 27.0864 66.6491 26.9654C66.5674 26.8428 66.4839 26.7243 66.3978 26.6114C66.2495 26.4156 66.0931 26.2323 65.9308 26.0623C65.7659 25.8897 65.5959 25.7315 65.4211 25.5879C65.3111 25.4978 65.1992 25.4135 65.0855 25.334Z" fill="var(--fill-0, #000100)" style="fill:#000100;fill:color(display-p3 0.0000 0.0039 0.0000);fill-opacity:1;"/>
<path id="Vector_55" fill-rule="evenodd" clip-rule="evenodd" d="M66.7974 23.5402C76.0331 19.4838 76.1634 19.8624 76.1634 19.8624C76.9587 19.465 77.7381 19.3737 78.4616 19.508C77.4234 18.8788 76.17 18.7146 74.875 19.3616C74.875 19.3616 74.747 18.9899 65.7773 22.9216C66.1336 23.0927 66.4747 23.3018 66.7974 23.5402Z" fill="var(--fill-0, white)" style="fill:white;fill-opacity:1;"/>
<path id="Vector_56" fill-rule="evenodd" clip-rule="evenodd" d="M66.8002 23.5C74.6287 20.0618 75.9314 19.8229 76.1467 19.831C76.5372 19.636 76.9232 19.5138 77.3011 19.4557C77.6371 19.4042 77.9668 19.4023 78.2859 19.445C77.7913 19.1731 77.2507 19.0075 76.6829 18.9843C76.107 18.9607 75.5034 19.0836 74.8893 19.3905C74.8734 19.3983 74.8543 19.3928 74.8455 19.378C74.8263 19.3589 74.4167 19.172 65.8567 22.9222C66.0109 22.9988 66.1621 23.0823 66.3104 23.1717C66.4779 23.2737 66.6413 23.3833 66.8002 23.5ZM76.1338 19.8796C76.1335 19.8789 76.0194 19.5241 66.8102 23.5692C66.7995 23.5743 66.7859 23.5732 66.776 23.5655C66.6133 23.4455 66.4462 23.3329 66.2751 23.2292C66.108 23.128 65.9369 23.0345 65.7621 22.9509C65.7544 22.9476 65.7481 22.9417 65.7452 22.9337C65.7375 22.9167 65.7452 22.8965 65.7621 22.8895C73.361 19.5584 74.6431 19.3225 74.858 19.3298L74.8583 19.3295C75.4828 19.0178 76.0985 18.893 76.6851 18.9169C77.3247 18.9431 77.9304 19.1462 78.4765 19.477C78.4883 19.4837 78.4957 19.498 78.4935 19.5124C78.4898 19.5308 78.4725 19.5429 78.4541 19.5396C78.0864 19.4711 77.7034 19.4623 77.3114 19.5227C76.9401 19.5797 76.5603 19.6997 76.1773 19.891C76.1618 19.8984 76.1438 19.894 76.1338 19.8796Z" fill="var(--fill-0, #000100)" style="fill:#000100;fill:color(display-p3 0.0000 0.0039 0.0000);fill-opacity:1;"/>
<path id="Vector_57" fill-rule="evenodd" clip-rule="evenodd" d="M112.411 17.3649C112.498 17.2556 112.657 17.2376 112.767 17.3248C112.876 17.4113 112.894 17.5706 112.807 17.6803C110.839 20.158 107.577 21.7525 107.568 21.7573C107.443 21.8192 107.291 21.7676 107.229 21.6421C107.167 21.517 107.219 21.3654 107.344 21.3036C107.353 21.2992 110.514 19.7539 112.411 17.3649Z" fill="var(--fill-0, #000100)" style="fill:#000100;fill:color(display-p3 0.0000 0.0039 0.0000);fill-opacity:1;"/>
<path id="Vector_58" fill-rule="evenodd" clip-rule="evenodd" d="M109.618 15.2888C109.705 15.1795 109.864 15.1615 109.973 15.2483C110.083 15.3355 110.101 15.4945 110.014 15.6038C108.046 18.0815 104.785 19.6761 104.775 19.6809C104.65 19.7427 104.498 19.6912 104.437 19.5657C104.374 19.4406 104.426 19.2886 104.551 19.2271C104.56 19.2227 107.721 17.6775 109.618 15.2888Z" fill="var(--fill-0, #000100)" style="fill:#000100;fill:color(display-p3 0.0000 0.0039 0.0000);fill-opacity:1;"/>
<path id="Vector_59" fill-rule="evenodd" clip-rule="evenodd" d="M115.774 23.232C115.861 23.1231 116.02 23.1047 116.13 23.1915C116.24 23.2788 116.258 23.4377 116.17 23.547C114.203 26.0248 110.941 27.6193 110.931 27.6241C110.807 27.6859 110.655 27.6344 110.592 27.5089C110.531 27.3838 110.582 27.2326 110.708 27.1704C110.717 27.1663 113.878 25.6211 115.774 23.232Z" fill="var(--fill-0, #000100)" style="fill:#000100;fill:color(display-p3 0.0000 0.0039 0.0000);fill-opacity:1;"/>
<path id="Vector_60" fill-rule="evenodd" clip-rule="evenodd" d="M77.6135 14.1861C77.4792 14.2255 77.3386 14.1489 77.2992 14.0146C77.2602 13.8806 77.3368 13.7397 77.4707 13.7007C81.7509 12.4377 82.9138 10.7261 82.9175 10.7214C82.9973 10.6065 83.1549 10.5789 83.2689 10.6592C83.383 10.7387 83.411 10.8962 83.3315 11.0102C83.3274 11.0158 82.0645 12.8727 77.6135 14.1861Z" fill="var(--fill-0, #000100)" style="fill:#000100;fill:color(display-p3 0.0000 0.0039 0.0000);fill-opacity:1;"/>
<path id="Vector_61" fill-rule="evenodd" clip-rule="evenodd" d="M76.0389 12.3969C75.9049 12.4363 75.764 12.3594 75.7253 12.2254C75.6856 12.0915 75.7625 11.9509 75.8964 11.9115C80.1767 10.6486 81.3395 8.93698 81.3428 8.9322C81.4231 8.81775 81.5806 8.78978 81.6946 8.87001C81.8087 8.94986 81.8371 9.10737 81.7572 9.22181C81.7528 9.22697 80.4894 11.0835 76.0389 12.3969Z" fill="var(--fill-0, #000100)" style="fill:#000100;fill:color(display-p3 0.0000 0.0039 0.0000);fill-opacity:1;"/>
<path id="Vector_62" fill-rule="evenodd" clip-rule="evenodd" d="M80.6914 19.6974C80.5578 19.7368 80.4169 19.6599 80.3775 19.5263C80.3382 19.3923 80.4147 19.2514 80.5483 19.212C84.8289 17.949 85.9914 16.2378 85.9954 16.2331C86.0753 16.1186 86.2324 16.0906 86.3469 16.1705C86.4613 16.2504 86.4889 16.4079 86.4094 16.5219C86.4061 16.5275 85.1428 18.384 80.6914 19.6974Z" fill="var(--fill-0, #000100)" style="fill:#000100;fill:color(display-p3 0.0000 0.0039 0.0000);fill-opacity:1;"/>
<path id="Vector_63" fill-rule="evenodd" clip-rule="evenodd" d="M67.9411 10.114C68.6966 10.198 69.5488 10.4331 70.4556 10.807C70.973 11.0204 71.5077 11.2791 72.0523 11.5813C73.2587 12.2503 74.5106 13.1302 75.7195 14.197C76.9659 15.297 78.1693 16.5967 79.2313 18.0684C78.1026 15.2649 76.1706 12.7684 73.7271 11.0738C73.2826 10.7661 72.8211 10.4843 72.3442 10.2322C70.4125 9.21024 68.231 8.6737 65.9167 8.8209C65.9167 8.8209 65.7728 8.81243 54.5547 12.2212C55.0559 12.4001 55.5406 12.5973 56.0076 12.8111C57.1601 12.4508 58.1835 12.1171 59.1094 11.8153C63.0577 10.5284 65.248 9.8145 67.9411 10.114Z" fill="var(--fill-0, white)" style="fill:white;fill-opacity:1;"/>
<path id="Vector_64" fill-rule="evenodd" clip-rule="evenodd" d="M102.315 18.329C99.9551 17.247 97.2978 16.9162 94.6169 17.6695C94.6169 17.6695 94.4734 17.6908 83.7145 23.694C83.2586 23.9487 82.7839 24.2136 82.2893 24.49C82.0229 24.6383 81.7513 24.7899 81.4734 24.9449C81.4466 24.9603 81.4186 24.9758 81.3906 24.9912C81.3914 24.9912 81.3921 24.9912 81.3921 24.9912C81.4171 24.9942 81.4433 24.9971 81.4686 25.0001C81.7262 25.0288 81.9835 25.0615 82.24 25.0976C82.6713 25.159 83.0993 25.2308 83.5247 25.314C85.8839 23.6149 88.3381 22.4697 89.9761 21.4846C92.2062 20.1432 93.4114 19.2232 95.3216 18.7448C96.7771 18.3801 98.6841 18.4964 100.757 19.1952C101.723 19.5202 102.724 19.9713 103.732 20.559C105.609 21.6524 107.515 23.2189 109.265 25.3243C108.191 23.0901 106.581 21.1328 104.643 19.7064C104.557 19.6998 104.476 19.6493 104.436 19.5662C104.433 19.5618 104.431 19.557 104.429 19.5522C103.759 19.0778 103.051 18.6668 102.315 18.329Z" fill="var(--fill-0, white)" style="fill:white;fill-opacity:1;"/>
</g>
</g>
</g>
</svg>
