<svg preserveAspectRatio="none" width="100%" height="100%" overflow="visible" style="display: block;" viewBox="0 0 18 18" fill="none" xmlns="http://www.w3.org/2000/svg">
<path id="Vector" d="M1.65 11.55V1.65H0V0H2.475C2.6938 0 2.90365 0.0869194 3.05836 0.241637C3.21308 0.396354 3.3 0.606196 3.3 0.825V10.725H13.5613L15.2113 4.125H4.95V2.475H16.269C16.3944 2.475 16.5182 2.5036 16.6309 2.5586C16.7436 2.61361 16.8422 2.69358 16.9194 2.79245C16.9965 2.89131 17.0501 3.00646 17.0761 3.12915C17.1021 3.25184 17.0997 3.37883 17.0693 3.50047L15.0068 11.7505C14.9621 11.9289 14.859 12.0872 14.714 12.2004C14.5691 12.3135 14.3904 12.375 14.2065 12.375H2.475C2.2562 12.375 2.04635 12.2881 1.89164 12.1334C1.73692 11.9786 1.65 11.7688 1.65 11.55V11.55ZM3.3 17.325C2.86239 17.325 2.44271 17.1512 2.13327 16.8417C1.82384 16.5323 1.65 16.1126 1.65 15.675C1.65 15.2374 1.82384 14.8177 2.13327 14.5083C2.44271 14.1988 2.86239 14.025 3.3 14.025C3.73761 14.025 4.15729 14.1988 4.46673 14.5083C4.77616 14.8177 4.95 15.2374 4.95 15.675C4.95 16.1126 4.77616 16.5323 4.46673 16.8417C4.15729 17.1512 3.73761 17.325 3.3 17.325ZM13.2 17.325C12.7624 17.325 12.3427 17.1512 12.0333 16.8417C11.7238 16.5323 11.55 16.1126 11.55 15.675C11.55 15.2374 11.7238 14.8177 12.0333 14.5083C12.3427 14.1988 12.7624 14.025 13.2 14.025C13.6376 14.025 14.0573 14.1988 14.3667 14.5083C14.6762 14.8177 14.85 15.2374 14.85 15.675C14.85 16.1126 14.6762 16.5323 14.3667 16.8417C14.0573 17.1512 13.6376 17.325 13.2 17.325Z" fill="var(--fill-0, #646464)" style="fill:#646464;fill:color(display-p3 0.3922 0.3922 0.3922);fill-opacity:1;"/>
</svg>
