<svg preserveAspectRatio="none" width="100%" height="100%" overflow="visible" style="display: block;" viewBox="0 0 15 15" fill="none" xmlns="http://www.w3.org/2000/svg">
<path id="Vector" d="M12.4028 13.1752C11.0418 14.3545 9.30076 15.0025 7.5 15C3.35775 15 0 11.6422 0 7.5C0 3.35775 3.35775 0 7.5 0C11.6422 0 15 3.35775 15 7.5C15 9.102 14.4975 10.587 13.6425 11.805L11.25 7.5H13.5C13.4999 6.11716 13.0221 4.7768 12.1475 3.70567C11.2729 2.63454 10.0551 1.89839 8.70025 1.62177C7.34536 1.34514 5.9365 1.54501 4.71201 2.18757C3.48752 2.83013 2.52257 3.87593 1.98039 5.14806C1.43822 6.42019 1.3521 7.84054 1.73662 9.16885C2.12113 10.4972 2.95267 11.6519 4.09056 12.4377C5.22845 13.2235 6.60284 13.5921 7.98123 13.4812C9.35962 13.3703 10.6574 12.7866 11.655 11.829L12.4028 13.1752Z" fill="var(--fill-0, white)" style="fill:white;fill-opacity:1;"/>
</svg>
