<svg preserveAspectRatio="none" width="100%" height="100%" overflow="visible" style="display: block;" viewBox="0 0 13 13" fill="none" xmlns="http://www.w3.org/2000/svg">
<path id="Vector" d="M5.4 0C8.3808 0 10.8 2.4192 10.8 5.4C10.8 8.3808 8.3808 10.8 5.4 10.8C2.4192 10.8 0 8.3808 0 5.4C0 2.4192 2.4192 0 5.4 0ZM5.4 9.6C7.7202 9.6 9.6 7.7202 9.6 5.4C9.6 3.0792 7.7202 1.2 5.4 1.2C3.0792 1.2 1.2 3.0792 1.2 5.4C1.2 7.7202 3.0792 9.6 5.4 9.6ZM10.491 9.6426L12.1884 11.3394L11.3394 12.1884L9.6426 10.491L10.491 9.6426V9.6426Z" fill="var(--fill-0, #000211)" fill-opacity="0.6157" style="fill:#000211;fill:color(display-p3 0.0000 0.0078 0.0667);fill-opacity:0.6157;"/>
</svg>
