<svg width="25" height="24" viewBox="0 0 25 24" fill="none" xmlns="http://www.w3.org/2000/svg">
<path d="M12.5009 5.27647C14.615 3.37837 17.882 3.44137 19.9187 5.48167C21.9545 7.52287 22.0247 10.7737 20.1311 12.8941L12.4991 20.5369L4.86891 12.8941C2.97531 10.7737 3.04641 7.51747 5.08131 5.48167C7.11981 3.44407 10.3805 3.37567 12.5009 5.27647ZM18.6443 6.75337C17.2943 5.40157 15.1163 5.34667 13.7033 6.61567L12.5018 7.69387L11.2994 6.61657C9.88191 5.34577 7.70841 5.40157 6.35481 6.75517C5.01381 8.09617 4.94631 10.2427 6.18201 11.6611L12.5 17.989L18.818 11.662C20.0546 10.2427 19.9871 8.09887 18.6443 6.75337Z" fill="#0A0D14" style="fill:#0A0D14;fill:color(display-p3 0.0392 0.0510 0.0784);fill-opacity:1;"/>
</svg>
