<svg preserveAspectRatio="none" width="100%" height="100%" overflow="visible" style="display: block;" viewBox="0 0 15 15" fill="none" xmlns="http://www.w3.org/2000/svg">
<path id="Vector" d="M8.34015 11.2685L5.1909 9.551C4.77975 9.99055 4.24589 10.2963 3.65871 10.4284C3.07153 10.5606 2.45817 10.513 1.89835 10.292C1.33852 10.071 0.858125 9.68672 0.51958 9.18909C0.181036 8.69145 0 8.1035 0 7.50163C0 6.89975 0.181036 6.3118 0.51958 5.81417C0.858125 5.31654 1.33852 4.93224 1.89835 4.71122C2.45817 4.4902 3.07153 4.44268 3.65871 4.57484C4.24589 4.70699 4.77975 5.0127 5.1909 5.45225L8.3409 3.73475C8.16207 3.02681 8.24757 2.27794 8.58138 1.62853C8.91519 0.979114 9.47439 0.473737 10.1542 0.207127C10.8339 -0.0594823 11.5876 -0.0690201 12.2739 0.180302C12.9602 0.429624 13.532 0.920688 13.8821 1.56145C14.2323 2.20221 14.3367 2.94867 14.1758 3.66091C14.015 4.37315 13.5999 5.00228 13.0083 5.43036C12.4168 5.85844 11.6894 6.05608 10.9626 5.98625C10.2358 5.91641 9.55936 5.58388 9.06015 5.051L5.91015 6.7685C6.03106 7.24952 6.03106 7.75298 5.91015 8.234L9.0594 9.9515C9.55861 9.41862 10.235 9.08609 10.9619 9.01626C11.6887 8.94642 12.416 9.14406 13.0076 9.57214C13.5991 10.0002 14.0142 10.6293 14.1751 11.3416C14.3359 12.0538 14.2315 12.8003 13.8814 13.4411C13.5312 14.0818 12.9594 14.5729 12.2731 14.8222C11.5868 15.0715 10.8332 15.062 10.1534 14.7954C9.47364 14.5288 8.91444 14.0234 8.58063 13.374C8.24682 12.7246 8.16132 11.9757 8.34015 11.2678V11.2685ZM3.00015 9.00125C3.39798 9.00125 3.77951 8.84322 4.06081 8.56191C4.34212 8.28061 4.50015 7.89908 4.50015 7.50125C4.50015 7.10343 4.34212 6.7219 4.06081 6.44059C3.77951 6.15929 3.39798 6.00125 3.00015 6.00125C2.60233 6.00125 2.2208 6.15929 1.93949 6.44059C1.65819 6.7219 1.50015 7.10343 1.50015 7.50125C1.50015 7.89908 1.65819 8.28061 1.93949 8.56191C2.2208 8.84322 2.60233 9.00125 3.00015 9.00125V9.00125ZM11.2502 4.50125C11.648 4.50125 12.0295 4.34322 12.3108 4.06191C12.5921 3.78061 12.7502 3.39908 12.7502 3.00125C12.7502 2.60343 12.5921 2.2219 12.3108 1.94059C12.0295 1.65929 11.648 1.50125 11.2502 1.50125C10.8523 1.50125 10.4708 1.65929 10.1895 1.94059C9.90819 2.2219 9.75015 2.60343 9.75015 3.00125C9.75015 3.39908 9.90819 3.78061 10.1895 4.06191C10.4708 4.34322 10.8523 4.50125 11.2502 4.50125V4.50125ZM11.2502 13.5013C11.648 13.5013 12.0295 13.3432 12.3108 13.0619C12.5921 12.7806 12.7502 12.3991 12.7502 12.0013C12.7502 11.6034 12.5921 11.2219 12.3108 10.9406C12.0295 10.6593 11.648 10.5013 11.2502 10.5013C10.8523 10.5013 10.4708 10.6593 10.1895 10.9406C9.90819 11.2219 9.75015 11.6034 9.75015 12.0013C9.75015 12.3991 9.90819 12.7806 10.1895 13.0619C10.4708 13.3432 10.8523 13.5013 11.2502 13.5013V13.5013Z" fill="var(--fill-0, #60646C)" style="fill:#60646C;fill:color(display-p3 0.3765 0.3922 0.4235);fill-opacity:1;"/>
</svg>
