<svg preserveAspectRatio="none" width="100%" height="100%" overflow="visible" style="display: block;" viewBox="0 0 11 14" fill="none" xmlns="http://www.w3.org/2000/svg">
<path id="Vector" d="M5.4 13.0368L1.5816 9.21835C0.826406 8.46315 0.312112 7.50096 0.103757 6.45346C-0.104598 5.40597 0.00234411 4.32021 0.411059 3.33349C0.819774 2.34678 1.51191 1.50342 2.39993 0.91006C3.28795 0.316703 4.33199 0 5.4 0C6.46802 0 7.51205 0.316703 8.40007 0.91006C9.2881 1.50342 9.98023 2.34678 10.3889 3.33349C10.7977 4.32021 10.9046 5.40597 10.6962 6.45346C10.4879 7.50096 9.9736 8.46315 9.2184 9.21835L5.4 13.0368ZM8.37 8.36995C8.95734 7.78256 9.35731 7.03419 9.51933 6.21948C9.68135 5.40477 9.59816 4.56031 9.28025 3.79289C8.96235 3.02546 8.42403 2.36954 7.73335 1.90805C7.04267 1.44657 6.23067 1.20026 5.4 1.20026C4.56934 1.20026 3.75733 1.44657 3.06665 1.90805C2.37597 2.36954 1.83765 3.02546 1.51975 3.79289C1.20185 4.56031 1.11865 5.40477 1.28067 6.21948C1.4427 7.03419 1.84266 7.78256 2.43 8.36995L5.4 11.34L8.37 8.36995V8.36995ZM5.4 6.59995C5.08174 6.59995 4.77652 6.47352 4.55147 6.24848C4.32643 6.02344 4.2 5.71821 4.2 5.39995C4.2 5.08169 4.32643 4.77647 4.55147 4.55143C4.77652 4.32638 5.08174 4.19995 5.4 4.19995C5.71826 4.19995 6.02349 4.32638 6.24853 4.55143C6.47357 4.77647 6.6 5.08169 6.6 5.39995C6.6 5.71821 6.47357 6.02344 6.24853 6.24848C6.02349 6.47352 5.71826 6.59995 5.4 6.59995Z" fill="var(--fill-0, #62636C)" style="fill:#62636C;fill:color(display-p3 0.3843 0.3882 0.4235);fill-opacity:1;"/>
</svg>
