<svg preserveAspectRatio="none" width="100%" height="100%" overflow="visible" style="display: block;" viewBox="0 0 9 9" fill="none" xmlns="http://www.w3.org/2000/svg">
<path id="Vector" d="M6.75 0.9H8.55C8.66935 0.9 8.78381 0.947411 8.8682 1.0318C8.95259 1.11619 9 1.23065 9 1.35V8.55C9 8.66935 8.95259 8.78381 8.8682 8.8682C8.78381 8.95259 8.66935 9 8.55 9H0.45C0.330653 9 0.216193 8.95259 0.131802 8.8682C0.0474106 8.78381 0 8.66935 0 8.55V1.35C0 1.23065 0.0474106 1.11619 0.131802 1.0318C0.216193 0.947411 0.330653 0.9 0.45 0.9H2.25V0H3.15V0.9H5.85V0H6.75V0.9ZM5.85 1.8H3.15V2.7H2.25V1.8H0.9V3.6H8.1V1.8H6.75V2.7H5.85V1.8ZM8.1 4.5H0.9V8.1H8.1V4.5Z" fill="var(--fill-0, #297E3B)" style="fill:#297E3B;fill:color(display-p3 0.1608 0.4941 0.2314);fill-opacity:1;"/>
</svg>
