<svg width="25" height="24" viewBox="0 0 25 24" fill="none" xmlns="http://www.w3.org/2000/svg">
<path d="M12.5 12.9C13.9913 12.9 15.2 14.1087 15.2 15.6C15.2 16.365 14.8823 17.0544 14.372 17.5458L12.653 19.2H15.2V21H9.8V19.4484L13.1237 16.2489C13.2947 16.0842 13.4 15.8547 13.4 15.6C13.4 15.1032 12.9968 14.7 12.5 14.7C12.0032 14.7 11.6 15.1032 11.6 15.6H9.8C9.8 14.1087 11.0087 12.9 12.5 12.9ZM17.9 12.9V16.5H19.7V12.9H21.5V21H19.7V18.3H16.1V12.9H17.9ZM5.3 12C5.3 14.2743 6.3539 16.302 8 17.6214V19.7958C5.3099 18.2397 3.5 15.3318 3.5 12H5.3ZM12.5 3C17.1665 3 21.0041 6.5523 21.455 11.1H19.6442C19.2014 7.5486 16.172 4.8 12.5 4.8C10.025 4.8 7.8416 6.0483 6.5465 7.95H8.9V9.75H3.5V4.35H5.3V6.6C6.9416 4.413 9.5561 3 12.5 3Z" fill="#0A0D14" style="fill:#0A0D14;fill:color(display-p3 0.0392 0.0510 0.0784);fill-opacity:1;"/>
</svg>
