<svg width="25" height="24" viewBox="0 0 25 24" fill="none" xmlns="http://www.w3.org/2000/svg">
<path d="M6.20002 14.7004V16.5004C6.20002 17.449 7.05502 18.3004 8.00002 18.3004H10.7V20.1004H8.00002C7.04524 20.1004 6.12957 19.7211 5.45444 19.046C4.77931 18.3708 4.40002 17.4552 4.40002 16.5004V14.7004H6.20002ZM17.9 10.2004L21.86 20.1004H19.9205L18.8396 17.4004H15.1586L14.0795 20.1004H12.1409L16.1 10.2004H17.9ZM17 12.7969L15.8777 15.6004H18.1205L17 12.7969ZM4.40002 3.90039H9.80002C10.3212 3.90058 10.8311 4.05157 11.2683 4.33516C11.7055 4.61874 12.0513 5.02279 12.264 5.49856C12.4767 5.97432 12.5471 6.50147 12.4668 7.01638C12.3865 7.53129 12.1589 8.01196 11.8115 8.40039C12.1589 8.78882 12.3865 9.26949 12.4668 9.7844C12.5471 10.2993 12.4767 10.8265 12.264 11.3022C12.0513 11.778 11.7055 12.182 11.2683 12.4656C10.8311 12.7492 10.3212 12.9002 9.80002 12.9004H4.40002V3.90039ZM9.80002 9.30039H6.20002V11.1004H9.80002C10.0387 11.1004 10.2676 11.0056 10.4364 10.8368C10.6052 10.668 10.7 10.4391 10.7 10.2004C10.7 9.9617 10.6052 9.73278 10.4364 9.56399C10.2676 9.39521 10.0387 9.30039 9.80002 9.30039ZM17 3.90039C17.9548 3.90039 18.8705 4.27968 19.5456 4.95481C20.2207 5.62994 20.6 6.54561 20.6 7.50039V9.30039H18.8V7.50039C18.8 7.023 18.6104 6.56516 18.2728 6.2276C17.9353 5.89003 17.4774 5.70039 17 5.70039H14.3V3.90039H17ZM9.80002 5.70039H6.20002V7.50039H9.80002C10.0387 7.50039 10.2676 7.40557 10.4364 7.23679C10.6052 7.068 10.7 6.83909 10.7 6.60039C10.7 6.3617 10.6052 6.13278 10.4364 5.96399C10.2676 5.79521 10.0387 5.70039 9.80002 5.70039Z" fill="#0A0D14" style="fill:#0A0D14;fill:color(display-p3 0.0392 0.0510 0.0784);fill-opacity:1;"/>
</svg>
