<svg width="25" height="24" viewBox="0 0 25 24" fill="none" xmlns="http://www.w3.org/2000/svg">
<path d="M4.40002 5.69394C4.40002 4.70214 5.20372 3.89844 6.19552 3.89844H18.8045C19.7963 3.89844 20.6 4.70214 20.6 5.69394V18.3029C20.6 18.7791 20.4109 19.2358 20.0741 19.5725C19.7374 19.9093 19.2807 20.0984 18.8045 20.0984H6.19552C5.71933 20.0984 5.26264 19.9093 4.92591 19.5725C4.58919 19.2358 4.40002 18.7791 4.40002 18.3029V5.69394ZM6.20002 5.69844V18.2984H18.8V5.69844H6.20002ZM8.87482 17.5604C8.32131 17.3207 7.79335 17.0258 7.29892 16.6802C7.86976 15.7956 8.65339 15.0682 9.57808 14.5647C10.5028 14.0613 11.539 13.7978 12.5918 13.7984C14.7518 13.7984 16.6571 14.8847 17.792 16.5407C17.3071 16.8995 16.7872 17.2085 16.2404 17.4632C15.8236 16.8854 15.2754 16.415 14.641 16.0908C14.0067 15.7665 13.3043 15.5978 12.5918 15.5984C11.0483 15.5984 9.68482 16.376 8.87482 17.5604ZM12.5 12.8984C12.0864 12.8984 11.6767 12.817 11.2946 12.6587C10.9124 12.5004 10.5651 12.2683 10.2726 11.9758C9.98013 11.6833 9.74811 11.3361 9.5898 10.9539C9.4315 10.5717 9.35002 10.1621 9.35002 9.74844C9.35002 9.33477 9.4315 8.92516 9.5898 8.54298C9.74811 8.16081 9.98013 7.81356 10.2726 7.52105C10.5651 7.22855 10.9124 6.99652 11.2946 6.83822C11.6767 6.67991 12.0864 6.59844 12.5 6.59844C13.3355 6.59844 14.1367 6.93031 14.7274 7.52105C15.3182 8.11179 15.65 8.91301 15.65 9.74844C15.65 10.5839 15.3182 11.3851 14.7274 11.9758C14.1367 12.5666 13.3355 12.8984 12.5 12.8984ZM12.5 11.0984C12.8581 11.0984 13.2014 10.9562 13.4546 10.703C13.7078 10.4499 13.85 10.1065 13.85 9.74844C13.85 9.3904 13.7078 9.04702 13.4546 8.79384C13.2014 8.54067 12.8581 8.39844 12.5 8.39844C12.142 8.39844 11.7986 8.54067 11.5454 8.79384C11.2923 9.04702 11.15 9.3904 11.15 9.74844C11.15 10.1065 11.2923 10.4499 11.5454 10.703C11.7986 10.9562 12.142 11.0984 12.5 11.0984Z" fill="#0A0D14" style="fill:#0A0D14;fill:color(display-p3 0.0392 0.0510 0.0784);fill-opacity:1;"/>
</svg>
