<svg width="25" height="24" viewBox="0 0 25 24" fill="none" xmlns="http://www.w3.org/2000/svg">
<path d="M14.5304 20.7696L12.5 22.8L10.4696 20.7696C6.479 19.848 3.5 16.2696 3.5 12C3.5 7.032 7.532 3 12.5 3C17.468 3 21.5 7.032 21.5 12C21.5 16.2696 18.521 19.848 14.5304 20.7696ZM7.1207 15.0744C8.4419 17.0454 10.4255 18.3 12.644 18.3C14.8616 18.3 16.8461 17.0463 18.1664 15.0744C16.6686 13.6745 14.6941 12.8971 12.644 12.9C10.5935 12.8969 8.61876 13.6743 7.1207 15.0744ZM12.5 11.1C13.2161 11.1 13.9028 10.8155 14.4092 10.3092C14.9155 9.80284 15.2 9.11608 15.2 8.4C15.2 7.68392 14.9155 6.99716 14.4092 6.49081C13.9028 5.98446 13.2161 5.7 12.5 5.7C11.7839 5.7 11.0972 5.98446 10.5908 6.49081C10.0845 6.99716 9.8 7.68392 9.8 8.4C9.8 9.11608 10.0845 9.80284 10.5908 10.3092C11.0972 10.8155 11.7839 11.1 12.5 11.1Z" fill="#0A0D14" style="fill:#0A0D14;fill:color(display-p3 0.0392 0.0510 0.0784);fill-opacity:1;"/>
</svg>
