<svg width="25" height="24" viewBox="0 0 25 24" fill="none" xmlns="http://www.w3.org/2000/svg">
<path d="M4.40002 5.69394C4.40002 4.70214 5.20372 3.89844 6.19552 3.89844H18.8045C19.7963 3.89844 20.6 4.70214 20.6 5.69394V18.3029C20.6 18.7791 20.4109 19.2358 20.0741 19.5725C19.7374 19.9093 19.2807 20.0984 18.8045 20.0984H6.19552C5.71933 20.0984 5.26264 19.9093 4.92591 19.5725C4.58919 19.2358 4.40002 18.7791 4.40002 18.3029V5.69394ZM7.42132 17.3984H17.7623C17.1824 16.5645 16.4092 15.8834 15.5088 15.4132C14.6084 14.943 13.6076 14.6978 12.5918 14.6984C11.5761 14.6978 10.5752 14.943 9.67484 15.4132C8.77445 15.8834 8.00126 16.5645 7.42132 17.3984ZM12.5 12.8984C12.9137 12.8984 13.3233 12.817 13.7055 12.6587C14.0877 12.5004 14.4349 12.2683 14.7274 11.9758C15.0199 11.6833 15.2519 11.3361 15.4102 10.9539C15.5685 10.5717 15.65 10.1621 15.65 9.74844C15.65 9.33477 15.5685 8.92516 15.4102 8.54298C15.2519 8.16081 15.0199 7.81356 14.7274 7.52105C14.4349 7.22855 14.0877 6.99652 13.7055 6.83822C13.3233 6.67991 12.9137 6.59844 12.5 6.59844C11.6646 6.59844 10.8634 6.93031 10.2726 7.52105C9.6819 8.11179 9.35002 8.91301 9.35002 9.74844C9.35002 10.5839 9.6819 11.3851 10.2726 11.9758C10.8634 12.5666 11.6646 12.8984 12.5 12.8984Z" fill="#0A0D14" style="fill:#0A0D14;fill:color(display-p3 0.0392 0.0510 0.0784);fill-opacity:1;"/>
</svg>
