<svg width="25" height="24" viewBox="0 0 25 24" fill="none" xmlns="http://www.w3.org/2000/svg">
<path d="M10.4705 20.7705C6.4772 19.8498 3.5 16.2723 3.5 12C3.5 7.0293 7.5293 3 12.5 3C17.4707 3 21.5 7.0293 21.5 12C21.5 16.2723 18.5228 19.8498 14.5295 20.7705L12.5 22.8L10.4705 20.7705ZM8.0108 17.6313C8.84942 18.302 9.82819 18.7754 10.8746 19.0164L11.3786 19.1325L12.5 20.2548L13.6223 19.1325L14.1263 19.0155C15.241 18.7585 16.278 18.2382 17.1503 17.4981C16.5642 16.8965 15.8635 16.4186 15.0894 16.0925C14.3154 15.7665 13.4839 15.599 12.644 15.6C10.8116 15.6 9.161 16.383 8.0108 17.6313ZM6.7544 16.338C7.51081 15.5353 8.4236 14.8959 9.43652 14.4594C10.4494 14.0229 11.541 13.7985 12.644 13.8C13.7075 13.7986 14.7608 14.0073 15.7434 14.4141C16.726 14.821 17.6185 15.4179 18.3698 16.1706C19.1403 15.0862 19.5953 13.8096 19.6843 12.4823C19.7733 11.1551 19.493 9.8291 18.8742 8.65151C18.2555 7.47392 17.3227 6.49076 16.1792 5.8111C15.0357 5.13144 13.7262 4.78185 12.3961 4.80113C11.066 4.8204 9.76729 5.20778 8.64397 5.92028C7.52064 6.63279 6.61666 7.64256 6.03232 8.83758C5.44798 10.0326 5.20612 11.3661 5.33358 12.6903C5.46104 14.0144 5.95284 15.2773 6.7544 16.3389V16.338ZM12.5 12.9C11.5452 12.9 10.6295 12.5207 9.95442 11.8456C9.27928 11.1705 8.9 10.2548 8.9 9.3C8.9 8.34522 9.27928 7.42955 9.95442 6.75442C10.6295 6.07928 11.5452 5.7 12.5 5.7C13.4548 5.7 14.3705 6.07928 15.0456 6.75442C15.7207 7.42955 16.1 8.34522 16.1 9.3C16.1 10.2548 15.7207 11.1705 15.0456 11.8456C14.3705 12.5207 13.4548 12.9 12.5 12.9ZM12.5 11.1C12.9774 11.1 13.4352 10.9104 13.7728 10.5728C14.1104 10.2352 14.3 9.77739 14.3 9.3C14.3 8.82261 14.1104 8.36477 13.7728 8.02721C13.4352 7.68964 12.9774 7.5 12.5 7.5C12.0226 7.5 11.5648 7.68964 11.2272 8.02721C10.8896 8.36477 10.7 8.82261 10.7 9.3C10.7 9.77739 10.8896 10.2352 11.2272 10.5728C11.5648 10.9104 12.0226 11.1 12.5 11.1Z" fill="#0A0D14" style="fill:#0A0D14;fill:color(display-p3 0.0392 0.0510 0.0784);fill-opacity:1;"/>
</svg>
