<svg width="25" height="24" viewBox="0 0 25 24" fill="none" xmlns="http://www.w3.org/2000/svg">
<path d="M5.30002 3.89844H19.7C19.9387 3.89844 20.1676 3.99326 20.3364 4.16204C20.5052 4.33082 20.6 4.55974 20.6 4.79844V19.1984C20.6 19.4371 20.5052 19.6661 20.3364 19.8348C20.1676 20.0036 19.9387 20.0984 19.7 20.0984H5.30002C5.06133 20.0984 4.83241 20.0036 4.66363 19.8348C4.49485 19.6661 4.40002 19.4371 4.40002 19.1984V4.79844C4.40002 4.55974 4.49485 4.33082 4.66363 4.16204C4.83241 3.99326 5.06133 3.89844 5.30002 3.89844ZM11.6 11.0984H8.00002V12.8984H11.6V16.4984H13.4V12.8984H17V11.0984H13.4V7.49844H11.6V11.0984Z" fill="#0A0D14" style="fill:#0A0D14;fill:color(display-p3 0.0392 0.0510 0.0784);fill-opacity:1;"/>
</svg>
