<svg width="25" height="24" viewBox="0 0 25 24" fill="none" xmlns="http://www.w3.org/2000/svg">
<path d="M12.5 13.8016V21.0016H5.30005C5.30005 19.092 6.05862 17.2607 7.40888 15.9104C8.75914 14.5601 10.5905 13.8016 12.5 13.8016ZM12.5 12.9016C9.51655 12.9016 7.10005 10.4851 7.10005 7.50156C7.10005 4.51806 9.51655 2.10156 12.5 2.10156C15.4835 2.10156 17.9 4.51806 17.9 7.50156C17.9 10.4851 15.4835 12.9016 12.5 12.9016ZM20.6 16.5016H21.5V21.0016H14.3V16.5016H15.2V15.6016C15.2 14.8855 15.4845 14.1987 15.9909 13.6924C16.4972 13.186 17.184 12.9016 17.9 12.9016C18.6161 12.9016 19.3029 13.186 19.8092 13.6924C20.3156 14.1987 20.6 14.8855 20.6 15.6016V16.5016ZM18.8 16.5016V15.6016C18.8 15.3629 18.7052 15.1339 18.5364 14.9652C18.3677 14.7964 18.1387 14.7016 17.9 14.7016C17.6614 14.7016 17.4324 14.7964 17.2637 14.9652C17.0949 15.1339 17 15.3629 17 15.6016V16.5016H18.8Z" fill="#0A0D14" style="fill:#0A0D14;fill:color(display-p3 0.0392 0.0510 0.0784);fill-opacity:1;"/>
</svg>
