<svg width="25" height="24" viewBox="0 0 25 24" fill="none" xmlns="http://www.w3.org/2000/svg">
<path d="M20.6 3.8999C20.8387 3.8999 21.0676 3.99472 21.2364 4.16351C21.4052 4.33229 21.5 4.56121 21.5 4.7999V19.1999C21.5 19.4386 21.4052 19.6675 21.2364 19.8363C21.0676 20.0051 20.8387 20.0999 20.6 20.0999H4.4C4.16131 20.0999 3.93239 20.0051 3.7636 19.8363C3.59482 19.6675 3.5 19.4386 3.5 19.1999V4.7999C3.5 4.56121 3.59482 4.33229 3.7636 4.16351C3.93239 3.99472 4.16131 3.8999 4.4 3.8999H20.6ZM19.7 5.6999H5.3V18.2999H19.7V5.6999ZM10.1591 8.3999L13.0382 15.5999H11.0987L10.7387 14.6999H7.7777L7.4177 15.5999H5.4791L8.3591 8.3999H10.1591ZM18.8 8.3999V15.5999H16.1C15.3839 15.5999 14.6972 15.3154 14.1908 14.8091C13.6845 14.3027 13.4 13.616 13.4 12.8999C13.4 12.1838 13.6845 11.4971 14.1908 10.9907C14.6972 10.4844 15.3839 10.1999 16.1 10.1999H16.9991L17 8.3999H18.8ZM17 11.9999H16.1C15.8706 12.0002 15.65 12.088 15.4832 12.2455C15.3164 12.4029 15.216 12.6182 15.2025 12.8472C15.1891 13.0762 15.2636 13.3016 15.4108 13.4776C15.5581 13.6535 15.7669 13.7665 15.9947 13.7936L16.1 13.7999H17V11.9999ZM9.2591 10.9964L8.4968 12.8999H10.0196L9.2591 10.9964Z" fill="#0A0D14" style="fill:#0A0D14;fill:color(display-p3 0.0392 0.0510 0.0784);fill-opacity:1;"/>
</svg>
