<svg width="25" height="24" viewBox="0 0 25 24" fill="none" xmlns="http://www.w3.org/2000/svg">
<path d="M20.6 3.8999C20.8387 3.8999 21.0676 3.99472 21.2364 4.16351C21.4052 4.33229 21.5 4.56121 21.5 4.7999V19.1999C21.5 19.4386 21.4052 19.6675 21.2364 19.8363C21.0676 20.0051 20.8387 20.0999 20.6 20.0999H4.4C4.16131 20.0999 3.93239 20.0051 3.7636 19.8363C3.59482 19.6675 3.5 19.4386 3.5 19.1999V4.7999C3.5 4.56121 3.59482 4.33229 3.7636 4.16351C3.93239 3.99472 4.16131 3.8999 4.4 3.8999H20.6ZM10.1591 8.3999H8.3591L5.4791 15.5999H7.4177L7.7777 14.6999H10.7387L11.0987 15.5999H13.0382L10.1591 8.3999ZM18.8 8.3999H17V10.1999H16.1C15.3972 10.1992 14.7218 10.4726 14.2174 10.962C13.7129 11.4514 13.4192 12.1182 13.3986 12.8207C13.3779 13.5232 13.6321 14.206 14.1069 14.7242C14.5818 15.2423 15.24 15.5548 15.9416 15.5954L16.1 15.5999H18.8V8.3999ZM17 11.9999V13.7999H16.1L15.9947 13.7936C15.776 13.7676 15.5743 13.6622 15.4281 13.4975C15.2818 13.3328 15.201 13.1202 15.201 12.8999C15.201 12.6796 15.2818 12.467 15.4281 12.3023C15.5743 12.1376 15.776 12.0322 15.9947 12.0062L16.1 11.9999H17ZM9.2591 10.9964L10.0196 12.8999H8.4968L9.2591 10.9964Z" fill="#0A0D14" style="fill:#0A0D14;fill:color(display-p3 0.0392 0.0510 0.0784);fill-opacity:1;"/>
</svg>
