<svg width="25" height="24" viewBox="0 0 25 24" fill="none" xmlns="http://www.w3.org/2000/svg">
<path d="M14.75 6.9375C16.0962 6.9375 17.1875 5.8462 17.1875 4.5H18.3125C18.3125 5.8462 19.4038 6.9375 20.75 6.9375V8.0625C19.4038 8.0625 18.3125 9.1538 18.3125 10.5H17.1875C17.1875 9.1538 16.0962 8.0625 14.75 8.0625V6.9375ZM6.5 8.25C6.5 7.42157 7.17157 6.75 8 6.75H13.25V5.25H8C6.34314 5.25 5 6.59314 5 8.25V15.75C5 17.4068 6.34314 18.75 8 18.75H17C18.6568 18.75 20 17.4068 20 15.75V12H18.5V15.75C18.5 16.5785 17.8285 17.25 17 17.25H8C7.17157 17.25 6.5 16.5785 6.5 15.75V8.25Z" fill="#0A0D14" style="fill:#0A0D14;fill:color(display-p3 0.0392 0.0510 0.0784);fill-opacity:1;"/>
</svg>
