<svg width="25" height="24" viewBox="0 0 25 24" fill="none" xmlns="http://www.w3.org/2000/svg">
<path d="M12.86 13.3801L17.36 19.3804C17.4102 19.4472 17.4407 19.5267 17.4482 19.61C17.4557 19.6932 17.4399 19.7769 17.4025 19.8516C17.3651 19.9264 17.3077 19.9892 17.2366 20.0332C17.1655 20.0771 17.0836 20.1004 17 20.1004H8.00002C7.91645 20.1004 7.83453 20.0771 7.76344 20.0332C7.69235 19.9892 7.6349 19.9264 7.59752 19.8516C7.56015 19.7769 7.54433 19.6932 7.55183 19.61C7.55934 19.5267 7.58987 19.4472 7.64002 19.3804L12.14 13.3801C12.1819 13.3242 12.2363 13.2788 12.2988 13.2476C12.3613 13.2164 12.4302 13.2001 12.5 13.2001C12.5699 13.2001 12.6388 13.2164 12.7013 13.2476C12.7637 13.2788 12.8181 13.3242 12.86 13.3801ZM12.5 15.8974L10.7 18.3004H14.3L12.5 15.8974ZM17.9 18.3004V16.5004H19.7V5.70039H5.30002V16.5004H7.10002V18.3004H4.39282C4.27503 18.3002 4.15845 18.2767 4.04977 18.2313C3.94109 18.1859 3.84244 18.1194 3.75949 18.0358C3.67654 17.9522 3.61091 17.853 3.56639 17.744C3.52186 17.6349 3.49931 17.5182 3.50002 17.4004V4.80039C3.50002 4.30359 3.90952 3.90039 4.39282 3.90039H20.6072C21.1004 3.90039 21.5 4.30089 21.5 4.80039V17.4004C21.5 17.8972 21.0905 18.3004 20.6072 18.3004H17.9Z" fill="#0A0D14" style="fill:#0A0D14;fill:color(display-p3 0.0392 0.0510 0.0784);fill-opacity:1;"/>
</svg>
