<svg width="25" height="24" viewBox="0 0 25 24" fill="none" xmlns="http://www.w3.org/2000/svg">
<path d="M12.5 20.9996C11.4363 20.9996 10.383 20.7901 9.4003 20.383C8.41757 19.9759 7.52463 19.3793 6.77247 18.6271C6.02032 17.875 5.42368 16.982 5.01661 15.9993C4.60955 15.0166 4.40004 13.9633 4.40004 12.8996C4.40004 11.8359 4.60955 10.7826 5.01661 9.79984C5.42368 8.8171 6.02032 7.92416 6.77247 7.17201C7.52463 6.41986 8.41757 5.82321 9.4003 5.41615C10.383 5.00909 11.4363 4.79958 12.5 4.79958C14.6483 4.79958 16.7086 5.65297 18.2276 7.17201C19.7466 8.69106 20.6 10.7513 20.6 12.8996C20.6 15.0478 19.7466 17.1081 18.2276 18.6271C16.7086 20.1462 14.6483 20.9996 12.5 20.9996ZM13.4 12.8996V8.39958H11.6V14.6996H16.1V12.8996H13.4ZM3.27234 6.85338L6.45384 3.67188L7.72734 4.94447L4.54404 8.12688L3.27234 6.85338ZM18.5453 3.67188L21.7277 6.85338L20.4551 8.12688L17.2727 4.94447L18.5462 3.67188H18.5453Z" fill="#0A0D14" style="fill:#0A0D14;fill:color(display-p3 0.0392 0.0510 0.0784);fill-opacity:1;"/>
</svg>
