<svg width="25" height="24" viewBox="0 0 25 24" fill="none" xmlns="http://www.w3.org/2000/svg">
<path d="M5.29997 19.2V13.8C5.29997 11.8904 6.05854 10.0591 7.4088 8.70883C8.75907 7.35857 10.5904 6.6 12.5 6.6C14.4095 6.6 16.2409 7.35857 17.5911 8.70883C18.9414 10.0591 19.7 11.8904 19.7 13.8V19.2H20.6V21H4.39997V19.2H5.29997ZM7.09997 13.8H8.89997C8.89997 12.8452 9.27926 11.9295 9.95439 11.2544C10.6295 10.5793 11.5452 10.2 12.5 10.2V8.4C11.0678 8.4 9.69429 8.96893 8.6816 9.98162C7.6689 10.9943 7.09997 12.3678 7.09997 13.8ZM11.6 3H13.4V5.7H11.6V3ZM19.5002 5.5272L20.7728 6.7998L18.8648 8.7087L17.5913 7.4361L19.5002 5.5272ZM4.22717 6.7998L5.49977 5.5272L7.40867 7.4352L6.13697 8.7096L4.22717 6.7998Z" fill="#0A0D14" style="fill:#0A0D14;fill:color(display-p3 0.0392 0.0510 0.0784);fill-opacity:1;"/>
</svg>
