<svg width="25" height="24" viewBox="0 0 25 24" fill="none" xmlns="http://www.w3.org/2000/svg">
<path d="M12.5 3C17.468 3 21.5 7.032 21.5 12C21.5 16.968 17.468 21 12.5 21C7.532 21 3.5 16.968 3.5 12C3.5 7.032 7.532 3 12.5 3ZM12.5 15.6C14.4917 15.6 16.1 13.9917 16.1 12C16.1 10.0083 14.4917 8.4 12.5 8.4C10.5083 8.4 8.9 10.0083 8.9 12C8.9 13.9917 10.5083 15.6 12.5 15.6ZM12.5 11.1C12.995 11.1 13.4 11.505 13.4 12C13.4 12.495 12.995 12.9 12.5 12.9C12.005 12.9 11.6 12.495 11.6 12C11.6 11.505 12.005 11.1 12.5 11.1Z" fill="#0A0D14" style="fill:#0A0D14;fill:color(display-p3 0.0392 0.0510 0.0784);fill-opacity:1;"/>
</svg>
