<svg width="25" height="24" viewBox="0 0 25 24" fill="none" xmlns="http://www.w3.org/2000/svg">
<path d="M13.2794 3.94996L21.8528 18.8C21.9318 18.9368 21.9734 19.092 21.9734 19.25C21.9734 19.4079 21.9318 19.5631 21.8528 19.7C21.7738 19.8368 21.6602 19.9504 21.5234 20.0294C21.3866 20.1084 21.2314 20.15 21.0734 20.15H3.92659C3.76861 20.15 3.61341 20.1084 3.4766 20.0294C3.33978 19.9504 3.22617 19.8368 3.14718 19.7C3.06819 19.5631 3.02661 19.4079 3.02661 19.25C3.02661 19.092 3.0682 18.9368 3.14719 18.8L11.7206 3.94996C11.7996 3.81315 11.9132 3.69955 12.05 3.62057C12.1868 3.54158 12.342 3.5 12.5 3.5C12.658 3.5 12.8132 3.54158 12.95 3.62057C13.0868 3.69955 13.2004 3.81315 13.2794 3.94996ZM5.48539 18.35H19.5146L12.5 6.19996L5.48539 18.35ZM11.6 15.65H13.4V17.45H11.6V15.65ZM11.6 9.34996H13.4V13.85H11.6V9.34996Z" fill="#0A0D14" style="fill:#0A0D14;fill:color(display-p3 0.0392 0.0510 0.0784);fill-opacity:1;"/>
</svg>
