<svg width="25" height="24" viewBox="0 0 25 24" fill="none" xmlns="http://www.w3.org/2000/svg">
<path d="M12.5 3C14.5289 3 16.4747 3.80598 17.9094 5.24063C19.344 6.67529 20.15 8.62109 20.15 10.65C20.15 16.5 15.2 21.45 12.5 21.45C9.80001 21.45 4.85001 16.5 4.85001 10.65C4.85001 8.62109 5.65599 6.67529 7.09064 5.24063C8.52529 3.80598 10.4711 3 12.5 3ZM17.45 12C16.8821 12 16.3205 12.1194 15.8017 12.3505C15.283 12.5816 14.8186 12.9193 14.4388 13.3415C14.059 13.7638 13.7722 14.2612 13.5971 14.8014C13.4221 15.3417 13.3626 15.9127 13.4225 16.4775C14.0232 16.5413 14.6305 16.4699 15.2 16.2686C15.7695 16.0672 16.2868 15.7411 16.7139 15.3139C17.1411 14.8868 17.4672 14.3695 17.6686 13.8C17.8699 13.2305 17.9413 12.6232 17.8775 12.0225C17.7355 12.0076 17.5928 12 17.45 12ZM7.55001 12C7.40601 12 7.26291 12.0072 7.12251 12.0225C7.05872 12.6232 7.13011 13.2305 7.33145 13.8C7.53278 14.3695 7.85895 14.8868 8.28608 15.3139C8.71321 15.7411 9.23048 16.0672 9.79999 16.2686C10.3695 16.4699 10.9768 16.5413 11.5775 16.4775C11.6375 15.9127 11.578 15.3417 11.4029 14.8014C11.2278 14.2612 10.941 13.7638 10.5612 13.3415C10.1814 12.9193 9.71706 12.5816 9.19828 12.3505C8.67951 12.1194 8.11793 12 7.55001 12Z" fill="#0A0D14" style="fill:#0A0D14;fill:color(display-p3 0.0392 0.0510 0.0784);fill-opacity:1;"/>
</svg>
