<svg width="25" height="24" viewBox="0 0 25 24" fill="none" xmlns="http://www.w3.org/2000/svg">
<path d="M12.5 3C14.5289 3 16.4747 3.80598 17.9094 5.24063C19.344 6.67529 20.15 8.62109 20.15 10.65C20.15 16.5 15.2 21.45 12.5 21.45C9.80001 21.45 4.85001 16.5 4.85001 10.65C4.85001 8.62109 5.65599 6.67529 7.09064 5.24063C8.52529 3.80598 10.4711 3 12.5 3ZM12.5 4.8C10.9485 4.8 9.46052 5.41634 8.36343 6.51343C7.26634 7.61051 6.65001 9.09848 6.65001 10.65C6.65001 14.9646 10.3985 19.65 12.5 19.65C14.6015 19.65 18.35 14.9646 18.35 10.65C18.35 9.09848 17.7337 7.61051 16.6366 6.51343C15.5395 5.41634 14.0515 4.8 12.5 4.8ZM17.45 11.1C17.594 11.1 17.7371 11.1072 17.8775 11.1225C17.9413 11.7232 17.8699 12.3305 17.6686 12.9C17.4672 13.4695 17.1411 13.9868 16.7139 14.4139C16.2868 14.8411 15.7695 15.1672 15.2 15.3686C14.6305 15.5699 14.0232 15.6413 13.4225 15.5775C13.3626 15.0127 13.4221 14.4417 13.5971 13.9014C13.7722 13.3612 14.059 12.8638 14.4388 12.4415C14.8186 12.0193 15.283 11.6816 15.8017 11.4505C16.3205 11.2194 16.8821 11.1 17.45 11.1ZM7.55001 11.1C8.11793 11.1 8.67951 11.2194 9.19828 11.4505C9.71706 11.6816 10.1814 12.0193 10.5612 12.4415C10.941 12.8638 11.2278 13.3612 11.4029 13.9014C11.578 14.4417 11.6375 15.0127 11.5775 15.5775C10.9768 15.6413 10.3695 15.5699 9.79999 15.3686C9.23048 15.1672 8.71321 14.8411 8.28608 14.4139C7.85895 13.9868 7.53278 13.4695 7.33145 12.9C7.13011 12.3305 7.05872 11.7232 7.12251 11.1225C7.26201 11.1072 7.40601 11.1 7.55001 11.1Z" fill="#0A0D14" style="fill:#0A0D14;fill:color(display-p3 0.0392 0.0510 0.0784);fill-opacity:1;"/>
</svg>
