<svg width="25" height="24" viewBox="0 0 25 24" fill="none" xmlns="http://www.w3.org/2000/svg">
<path d="M18.2672 16.311C16.3115 15.456 14.9192 14.8296 14.0912 14.4336C12.8312 15.96 11.5064 16.8816 9.5192 16.8816C7.532 16.8816 6.2 15.6576 6.3584 14.1528C6.4664 13.1664 7.1432 11.5536 10.0736 11.8344C11.6216 11.9784 12.3272 12.2664 13.5944 12.684C13.9184 12.0864 14.192 11.424 14.3936 10.7256H8.792V10.1712H11.5568V9.1776H8.18V8.5656H11.5568V7.1328C11.5568 7.1328 11.5856 6.9096 11.8376 6.9096H13.22V8.5728H16.82V9.1848H13.22V10.1784H16.1576C15.9078 11.2265 15.5076 12.2329 14.9696 13.1664C15.4286 13.3302 16.8569 13.7748 19.2536 14.5011C19.8864 12.7946 19.8494 10.9117 19.1501 9.23131C18.4508 7.55093 17.141 6.19777 15.4842 5.44409C13.8275 4.6904 11.9469 4.59213 10.2206 5.16904C8.49438 5.74595 7.05069 6.95524 6.18002 8.55357C5.30936 10.1519 5.07634 12.0207 5.52785 13.7839C5.97935 15.5471 7.08188 17.0739 8.61359 18.057C10.1453 19.0402 11.9925 19.4067 13.7836 19.0829C15.5747 18.7592 17.1766 17.7691 18.2672 16.3119V16.311ZM12.5 21C7.5293 21 3.5 16.9707 3.5 12C3.5 7.0293 7.5293 3 12.5 3C17.4707 3 21.5 7.0293 21.5 12C21.5 16.9707 17.4707 21 12.5 21ZM9.2888 15.9312C10.5848 15.9312 11.8304 15.1464 12.8528 13.8144C11.4056 13.116 10.2032 12.7704 8.8568 12.7704C7.6832 12.7704 7.0712 13.4904 6.9632 14.0448C6.8552 14.5992 7.1864 15.9312 9.2888 15.9312Z" fill="#0A0D14" style="fill:#0A0D14;fill:color(display-p3 0.0392 0.0510 0.0784);fill-opacity:1;"/>
</svg>
