<svg width="25" height="24" viewBox="0 0 25 24" fill="none" xmlns="http://www.w3.org/2000/svg">
<path d="M20.9798 15.0222C17.5328 13.9845 15.5303 13.3662 14.9696 13.1664C15.5076 12.2329 15.9078 11.2265 16.1576 10.1784H13.22V9.1848H16.82V8.5728H13.22V6.9096H11.8376C11.5856 6.9096 11.5568 7.1328 11.5568 7.1328V8.5656H8.18V9.1776H11.5568V10.1712H8.792V10.7256H14.3936C14.1981 11.4051 13.9301 12.0617 13.5944 12.684C12.3272 12.2664 11.6216 11.9784 10.0736 11.8344C7.1432 11.5536 6.4664 13.1664 6.3584 14.1528C6.2 15.6576 7.532 16.8816 9.5192 16.8816C11.5064 16.8816 12.8312 15.96 14.0912 14.4336C15.1415 14.9358 17.0954 15.8061 19.9538 17.0454C19.1297 18.2641 18.0192 19.2619 16.7196 19.9514C15.4201 20.6409 13.9711 21.0009 12.5 21C7.5293 21 3.5 16.9707 3.5 12C3.5 7.0293 7.5293 3 12.5 3C17.4707 3 21.5 7.0293 21.5 12C21.5011 13.0298 21.3251 14.0521 20.9798 15.0222ZM9.2888 15.9312C7.1864 15.9312 6.8552 14.5992 6.9632 14.0448C7.0712 13.4904 7.6832 12.7704 8.8568 12.7704C10.2032 12.7704 11.4056 13.116 12.8528 13.8144C11.8304 15.1464 10.5848 15.9312 9.2888 15.9312Z" fill="#0A0D14" style="fill:#0A0D14;fill:color(display-p3 0.0392 0.0510 0.0784);fill-opacity:1;"/>
</svg>
