<svg width="25" height="24" viewBox="0 0 25 24" fill="none" xmlns="http://www.w3.org/2000/svg">
<path d="M15.7625 14.3579C14.7662 15.815 13.3073 16.5035 11.6 16.5035C9.52639 16.5035 7.75159 14.9078 8.00629 12.7919C8.28979 10.4447 10.1123 9.43492 13.1435 9.06322C13.6844 8.99752 13.9085 8.97862 15.0758 8.89222L15.2 8.88322V8.68972C15.2 7.07332 14.2388 5.96992 12.95 5.96992C11.6567 5.96992 10.754 6.64222 10.2005 8.24332L8.49949 7.65652C9.29779 5.34352 10.8737 4.16992 12.95 4.16992C15.2927 4.16992 17 6.13012 17 8.68972C17 11.0738 17.1467 12.9701 17.4347 13.691C17.7551 14.4938 17.8721 14.6963 18.2303 15.1427L16.8263 16.2686C16.3556 15.6818 16.1486 15.3245 15.7634 14.3588V14.3579H15.7625ZM20.8313 19.6904C20.5874 19.8704 20.1635 19.7633 20.3552 19.2944C20.5937 18.7112 20.8475 18.0272 20.591 17.7176C20.402 17.4881 20.1707 17.3738 19.6667 17.3738C19.2527 17.3738 19.0457 17.4278 18.7712 17.4458C18.5876 17.4575 18.5075 17.1785 18.6893 17.0498C18.9273 16.8793 19.1919 16.7491 19.4723 16.6646C20.5073 16.355 21.7268 16.5251 21.8753 16.7393C22.2038 17.2163 21.6962 19.0514 20.8313 19.6913V19.6904ZM19.7675 18.7148C19.5338 18.9409 19.2841 19.15 19.0205 19.3403C17.1107 20.7947 14.6375 21.5543 12.4883 21.5543C9.02959 21.5543 5.93629 19.9406 3.58909 17.2388C3.38839 17.0318 3.55489 16.7294 3.78979 16.8932C6.31879 18.7625 9.44899 19.8929 12.6899 19.8929C14.7284 19.8929 16.9271 19.4096 19.0214 18.3692C19.1672 18.3008 19.331 18.2072 19.4741 18.1406C19.8044 17.9516 20.0951 18.416 19.7675 18.7148ZM15.209 10.6868C14.0768 10.7714 13.8626 10.7885 13.3622 10.8497C11.0654 11.1314 9.94489 11.7524 9.79369 13.0079C9.68029 13.9466 10.5227 14.7035 11.6 14.7035C13.4351 14.7035 14.7653 13.5983 15.2198 10.6868H15.209Z" fill="#0A0D14" style="fill:#0A0D14;fill:color(display-p3 0.0392 0.0510 0.0784);fill-opacity:1;"/>
</svg>
