<svg width="25" height="24" viewBox="0 0 25 24" fill="none" xmlns="http://www.w3.org/2000/svg">
<path d="M21.4964 17.6074C21.4964 18.2617 21.1319 19.5217 20.3138 20.2138C20.15 20.3398 19.9853 20.2687 20.0573 20.0851C20.2958 19.5019 20.8421 18.1528 20.5856 17.8423C20.4056 17.6065 19.6586 17.6236 19.0214 17.6785C18.7298 17.7154 18.4751 17.7325 18.2762 17.773C18.0935 17.7883 18.0557 17.6263 18.2393 17.5003C18.4751 17.3338 18.7298 17.2078 19.0223 17.1151C20.0573 16.8055 21.2543 16.9918 21.4253 17.1898C21.4577 17.2276 21.4973 17.3338 21.4973 17.6065L21.4964 17.6074ZM19.7675 18.772C19.5298 18.9535 19.2803 19.1189 19.0205 19.267C17.1107 20.4145 14.6375 21.0157 12.4883 21.0157C9.02959 21.0157 5.93629 19.7404 3.58909 17.6065C3.38839 17.4427 3.55489 17.2051 3.78979 17.3338C6.31879 18.8098 9.44899 19.7026 12.6899 19.7026C14.7284 19.7026 16.9271 19.321 19.0214 18.5002C19.1672 18.4453 19.331 18.3706 19.4741 18.3184C19.8044 18.1699 20.0951 18.5371 19.7675 18.772ZM14.2145 8.84499C14.2145 7.90809 14.2514 7.35639 13.9409 6.88299C13.6655 6.49329 13.1912 6.25929 12.5297 6.29619C11.8115 6.33579 11.0402 6.80649 10.8431 7.66959C10.8053 7.86759 10.6892 8.06199 10.4507 8.10429L8.25829 7.82529C8.10169 7.78929 7.86409 7.66959 7.94149 7.35639C8.41219 4.87959 10.529 4.01649 12.5297 3.90039H13.0004C14.0984 3.90039 15.5087 4.21449 16.4114 5.03799C17.5067 6.06039 17.3906 7.43379 17.3906 8.92599V12.4603C17.3906 13.5205 17.8199 13.9903 18.2528 14.5429C18.3698 14.74 18.4094 14.9722 18.2123 15.1324C17.7803 15.5239 16.9577 16.2295 16.487 16.621C16.3304 16.7407 16.0478 16.7533 15.938 16.6615C15.245 16.081 15.0758 15.7588 14.6465 15.1693C13.8995 15.9532 13.2731 16.3861 12.527 16.621C12.0023 16.7542 11.4627 16.8195 10.9214 16.8154C9.04039 16.8154 7.54999 15.6427 7.54999 13.3234C7.54999 11.4793 8.53099 10.2256 9.97999 9.63249C11.429 9.03849 13.535 8.84949 14.2136 8.84589L14.2145 8.84499ZM13.7843 13.5178C14.2523 12.733 14.2136 12.0904 14.2136 10.6513C13.6277 10.6513 13.0382 10.6918 12.5297 10.8115C11.5892 11.0842 10.8431 11.6764 10.8431 12.931C10.8431 13.912 11.3534 14.5798 12.2156 14.5798C12.3344 14.5798 12.4388 14.5654 12.5297 14.5393C13.1327 14.3719 13.5089 14.0695 13.7843 13.5178Z" fill="#0A0D14" style="fill:#0A0D14;fill:color(display-p3 0.0392 0.0510 0.0784);fill-opacity:1;"/>
</svg>
