<svg width="25" height="24" viewBox="0 0 25 24" fill="none" xmlns="http://www.w3.org/2000/svg">
<path d="M13.4 10.0866V19.1352C16.6571 18.7275 19.2383 16.1328 19.6442 12.8604H17L20.3336 7.5C21.1006 8.85936 21.5024 10.3942 21.5 11.955C21.5 16.95 17.4707 21 12.5 21C7.5293 21 3.5 16.95 3.5 11.955C3.5 10.335 3.9239 8.8149 4.6664 7.5L8 12.8604H5.3558C5.7617 16.1328 8.3438 18.7275 11.6 19.1352V10.0866C10.7536 9.86544 10.0165 9.34377 9.52658 8.619C9.03661 7.89422 8.82719 7.01589 8.93741 6.148C9.04763 5.28012 9.46996 4.48202 10.1255 3.90273C10.7811 3.32343 11.6251 3.00255 12.5 3C13.3768 2.99914 14.2238 3.31832 14.8821 3.89764C15.5403 4.47696 15.9644 5.27659 16.0749 6.14644C16.1853 7.01629 15.9745 7.89656 15.4821 8.62202C14.9896 9.34748 14.2492 9.86826 13.4 10.0866ZM12.5 8.4C12.9774 8.4 13.4352 8.21036 13.7728 7.87279C14.1104 7.53523 14.3 7.07739 14.3 6.6C14.3 6.12261 14.1104 5.66477 13.7728 5.32721C13.4352 4.98964 12.9774 4.8 12.5 4.8C12.0226 4.8 11.5648 4.98964 11.2272 5.32721C10.8896 5.66477 10.7 6.12261 10.7 6.6C10.7 7.07739 10.8896 7.53523 11.2272 7.87279C11.5648 8.21036 12.0226 8.4 12.5 8.4Z" fill="#0A0D14" style="fill:#0A0D14;fill:color(display-p3 0.0392 0.0510 0.0784);fill-opacity:1;"/>
</svg>
