<svg width="25" height="24" viewBox="0 0 25 24" fill="none" xmlns="http://www.w3.org/2000/svg">
<path d="M18.7109 10.1999C19.0664 10.8169 19.6514 11.2684 20.3384 11.456C21.0253 11.6437 21.7586 11.5522 22.3784 11.2016C22.4513 11.8529 22.3192 12.5107 22.0006 13.0834C21.682 13.6561 21.1927 14.1151 20.6009 14.3966L20.6 20.0999H15.2V18.2999C15.2007 17.5971 14.9273 16.9217 14.4379 16.4173C13.9485 15.9128 13.2817 15.6191 12.5792 15.5985C11.8767 15.5778 11.1938 15.832 10.6757 16.3068C10.1576 16.7817 9.84505 17.4399 9.8045 18.1415L9.8 18.2999V20.0999H4.4V14.3975C3.80703 14.1164 3.31665 13.6572 2.99733 13.0839C2.67802 12.5106 2.54571 11.8519 2.6189 11.1998C3.23867 11.5511 3.9722 11.6432 4.65956 11.4559C5.34692 11.2685 5.93234 10.8171 6.2882 10.1999H18.7109ZM17.0324 3.8999C17.0968 4.34639 17.2563 4.77385 17.5002 5.15335C17.7441 5.53285 18.0666 5.85554 18.446 6.09959C18.8254 6.34364 19.2528 6.50336 19.6992 6.56794C20.1457 6.63251 20.6008 6.60045 21.0338 6.4739C20.9567 7.21962 20.6162 7.91341 20.0735 8.43058C19.5308 8.94775 18.8214 9.25439 18.0728 9.2954L17.9 9.2999H7.1C6.32057 9.30003 5.56878 9.01118 4.98995 8.48921C4.41112 7.96723 4.04637 7.24919 3.9662 6.4739C4.39919 6.60045 4.85431 6.63251 5.30077 6.56794C5.74723 6.50336 6.17462 6.34364 6.554 6.09959C6.93339 5.85554 7.25594 5.53285 7.49982 5.15335C7.7437 4.77385 7.90322 4.34639 7.9676 3.8999H17.0324Z" fill="#0A0D14" style="fill:#0A0D14;fill:color(display-p3 0.0392 0.0510 0.0784);fill-opacity:1;"/>
</svg>
