<svg width="25" height="24" viewBox="0 0 25 24" fill="none" xmlns="http://www.w3.org/2000/svg">
<path d="M12.9618 3.00098C13.5973 4.79659 14.845 6.31094 16.4859 7.2782C18.1268 8.24545 20.056 8.60378 21.9348 8.29028C21.8626 9.14655 21.52 9.95769 20.9565 10.6064C20.393 11.2552 19.6378 11.708 18.8001 11.8993V18.3001L20.6001 18.301V20.101H4.40005V18.301H6.20005V11.8993C5.36227 11.7079 4.60702 11.2551 4.0434 10.6064C3.47977 9.95767 3.13695 9.14658 3.06445 8.29028C4.9434 8.60429 6.87291 8.24631 8.51417 7.2792C10.1554 6.31209 11.4035 4.79767 12.0393 3.00188H12.9618V3.00098ZM17.0001 12.0001H8.00005V18.3001H17.0001V12.0001Z" fill="#0A0D14" style="fill:#0A0D14;fill:color(display-p3 0.0392 0.0510 0.0784);fill-opacity:1;"/>
</svg>
