<svg width="25" height="24" viewBox="0 0 25 24" fill="none" xmlns="http://www.w3.org/2000/svg">
<path d="M7.44382 4.77121C8.87819 3.62197 10.662 2.99708 12.5 3.00001C14.4125 3.00001 16.1702 3.66241 17.5562 4.77121L18.8639 3.46351L20.1365 4.73611L18.8288 6.04381C19.9781 7.47818 20.603 9.26203 20.6 11.1V12H4.40002V11.1C4.40002 9.18751 5.06242 7.42981 6.17122 6.04381L4.86352 4.73701L6.13612 3.46441L7.44382 4.77211V4.77121ZM4.40002 13.8H20.6V20.1C20.6 20.3387 20.5052 20.5676 20.3364 20.7364C20.1676 20.9052 19.9387 21 19.7 21H5.30002C5.06133 21 4.83241 20.9052 4.66363 20.7364C4.49485 20.5676 4.40002 20.3387 4.40002 20.1V13.8ZM9.80002 9.30001C10.0387 9.30001 10.2676 9.20519 10.4364 9.03641C10.6052 8.86762 10.7 8.6387 10.7 8.40001C10.7 8.16132 10.6052 7.9324 10.4364 7.76361C10.2676 7.59483 10.0387 7.50001 9.80002 7.50001C9.56133 7.50001 9.33241 7.59483 9.16363 7.76361C8.99485 7.9324 8.90002 8.16132 8.90002 8.40001C8.90002 8.6387 8.99485 8.86762 9.16363 9.03641C9.33241 9.20519 9.56133 9.30001 9.80002 9.30001ZM15.2 9.30001C15.4387 9.30001 15.6676 9.20519 15.8364 9.03641C16.0052 8.86762 16.1 8.6387 16.1 8.40001C16.1 8.16132 16.0052 7.9324 15.8364 7.76361C15.6676 7.59483 15.4387 7.50001 15.2 7.50001C14.9613 7.50001 14.7324 7.59483 14.5636 7.76361C14.3948 7.9324 14.3 8.16132 14.3 8.40001C14.3 8.6387 14.3948 8.86762 14.5636 9.03641C14.7324 9.20519 14.9613 9.30001 15.2 9.30001Z" fill="#0A0D14" style="fill:#0A0D14;fill:color(display-p3 0.0392 0.0510 0.0784);fill-opacity:1;"/>
</svg>
