<svg width="25" height="24" viewBox="0 0 25 24" fill="none" xmlns="http://www.w3.org/2000/svg">
<path d="M11.6 9.30039H20.6C20.8387 9.30039 21.0677 9.39521 21.2364 9.56399C21.4052 9.73278 21.5 9.9617 21.5 10.2004V19.2004C21.5 19.4391 21.4052 19.668 21.2364 19.8368C21.0677 20.0056 20.8387 20.1004 20.6 20.1004H11.6C11.3614 20.1004 11.1324 20.0056 10.9637 19.8368C10.7949 19.668 10.7 19.4391 10.7 19.2004V10.2004C10.7 9.9617 10.7949 9.73278 10.9637 9.56399C11.1324 9.39521 11.3614 9.30039 11.6 9.30039ZM12.5 11.1004V18.3004H19.7V11.1004H12.5ZM7.10005 10.7278L8.74525 9.08169L10.0187 10.3552L6.20005 14.173L2.38135 10.3552L3.65485 9.08169L5.30005 10.7278V8.40039C5.30005 7.20692 5.77415 6.06232 6.61807 5.21841C7.46198 4.3745 8.60657 3.90039 9.80005 3.90039H13.4V5.70039H9.80005C9.08396 5.70039 8.39721 5.98485 7.89086 6.4912C7.38451 6.99755 7.10005 7.68431 7.10005 8.40039V10.7278Z" fill="#0A0D14" style="fill:#0A0D14;fill:color(display-p3 0.0392 0.0510 0.0784);fill-opacity:1;"/>
</svg>
