<svg width="25" height="24" viewBox="0 0 25 24" fill="none" xmlns="http://www.w3.org/2000/svg">
<path d="M7.09998 10.2004H9.79998L6.19998 14.7004L2.59998 10.2004H5.29998V8.40039C5.29998 7.20692 5.77408 6.06232 6.61799 5.21841C7.46191 4.3745 8.6065 3.90039 9.79998 3.90039H13.4V5.70039H9.79998C9.08389 5.70039 8.39714 5.98485 7.89079 6.4912C7.38444 6.99755 7.09998 7.68431 7.09998 8.40039V10.2004ZM11.6 9.30039H20.6C20.8387 9.30039 21.0676 9.39521 21.2364 9.56399C21.4052 9.73278 21.5 9.9617 21.5 10.2004V19.2004C21.5 19.4391 21.4052 19.668 21.2364 19.8368C21.0676 20.0056 20.8387 20.1004 20.6 20.1004H11.6C11.3613 20.1004 11.1324 20.0056 10.9636 19.8368C10.7948 19.668 10.7 19.4391 10.7 19.2004V10.2004C10.7 9.9617 10.7948 9.73278 10.9636 9.56399C11.1324 9.39521 11.3613 9.30039 11.6 9.30039Z" fill="#0A0D14" style="fill:#0A0D14;fill:color(display-p3 0.0392 0.0510 0.0784);fill-opacity:1;"/>
</svg>
