<svg width="25" height="24" viewBox="0 0 25 24" fill="none" xmlns="http://www.w3.org/2000/svg">
<path d="M13.7726 6.59956L15.4187 8.24476L14.1452 9.51826L10.3274 5.69956L14.1452 1.88086L15.4187 3.15436L13.7726 4.79956H16.1C17.2935 4.79956 18.4381 5.27367 19.282 6.11758C20.1259 6.96149 20.6 8.10608 20.6 9.29956V12.8996H18.8V9.29956C18.8 8.58347 18.5156 7.89672 18.0092 7.39037C17.5029 6.88402 16.8161 6.59956 16.1 6.59956H13.7726ZM15.2 11.0996V20.0996C15.2 20.3383 15.1052 20.5672 14.9364 20.736C14.7676 20.9047 14.5387 20.9996 14.3 20.9996H5.30002C5.06133 20.9996 4.83241 20.9047 4.66363 20.736C4.49485 20.5672 4.40002 20.3383 4.40002 20.0996V11.0996C4.40002 10.8609 4.49485 10.6319 4.66363 10.4632C4.83241 10.2944 5.06133 10.1996 5.30002 10.1996H14.3C14.5387 10.1996 14.7676 10.2944 14.9364 10.4632C15.1052 10.6319 15.2 10.8609 15.2 11.0996ZM13.4 11.9996H6.20002V19.1996H13.4V11.9996Z" fill="#0A0D14" style="fill:#0A0D14;fill:color(display-p3 0.0392 0.0510 0.0784);fill-opacity:1;"/>
</svg>
