<svg width="25" height="24" viewBox="0 0 25 24" fill="none" xmlns="http://www.w3.org/2000/svg">
<path d="M12.5 3C17.4707 3 21.5 7.0293 21.5 12C21.5 16.9707 17.4707 21 12.5 21C7.5293 21 3.5 16.9707 3.5 12C3.5 7.0293 7.5293 3 12.5 3ZM12.5 4.8C10.5904 4.8 8.75909 5.55857 7.40883 6.90883C6.05857 8.25909 5.3 10.0904 5.3 12C5.3 13.9096 6.05857 15.7409 7.40883 17.0912C8.75909 18.4414 10.5904 19.2 12.5 19.2C14.4096 19.2 16.2409 18.4414 17.5912 17.0912C18.9414 15.7409 19.7 13.9096 19.7 12C19.7 10.0904 18.9414 8.25909 17.5912 6.90883C16.2409 5.55857 14.4096 4.8 12.5 4.8ZM9.6407 15.0087L8.9297 16.2417C8.88112 16.3261 8.8164 16.4001 8.73923 16.4595C8.66206 16.5188 8.57395 16.5624 8.47993 16.5877C8.38591 16.6131 8.28782 16.6196 8.19127 16.607C8.09472 16.5945 8.00159 16.563 7.9172 16.5144C7.83281 16.4658 7.75882 16.4011 7.69944 16.3239C7.64007 16.2468 7.59648 16.1586 7.57115 16.0646C7.54583 15.9706 7.53928 15.8725 7.55186 15.776C7.56445 15.6794 7.59592 15.5863 7.6445 15.5019L8.1746 14.5875C8.7686 14.4021 9.2555 14.5443 9.6407 15.0087ZM13.589 8.994L15.7697 12.7686H17.6966C17.7939 12.7682 17.8903 12.7871 17.9803 12.8242C18.0702 12.8612 18.152 12.9157 18.2208 12.9844C18.2897 13.0532 18.3442 13.1349 18.3814 13.2248C18.4185 13.3147 18.4375 13.4111 18.4373 13.5084C18.4377 13.6058 18.4187 13.7022 18.3816 13.7923C18.3445 13.8823 18.29 13.9641 18.2211 14.0329C18.1523 14.1018 18.0705 14.1563 17.9805 14.1934C17.8904 14.2305 17.794 14.2495 17.6966 14.2491H16.6256L17.3483 15.501C17.4399 15.6709 17.4616 15.8698 17.4089 16.0554C17.3562 16.2411 17.2332 16.3989 17.066 16.4953C16.8988 16.5917 16.7006 16.6192 16.5135 16.5718C16.3265 16.5245 16.1652 16.406 16.064 16.2417L13.328 11.5023C12.707 10.4313 13.1498 9.3576 13.589 8.994ZM13.8392 6.2544C14.1947 6.4578 14.3144 6.9114 14.111 7.2669L10.9358 12.765H13.2335C13.9769 12.765 14.3945 13.6398 14.0714 14.2455H7.3394C7.24211 14.2457 7.14572 14.2267 7.0558 14.1896C6.96588 14.1524 6.88419 14.0979 6.81543 14.029C6.74668 13.9602 6.69221 13.8784 6.65517 13.7885C6.61813 13.6985 6.59924 13.6021 6.5996 13.5048C6.59936 13.4076 6.61834 13.3113 6.65543 13.2214C6.69252 13.1315 6.74701 13.0499 6.81575 12.9812C6.8845 12.9124 6.96615 12.8579 7.05601 12.8208C7.14587 12.7837 7.24218 12.7648 7.3394 12.765H9.2267L11.6432 8.5773L10.889 7.2669C10.7974 7.09702 10.7757 6.89813 10.8284 6.71247C10.8811 6.52682 11.0041 6.36903 11.1713 6.27261C11.3385 6.17619 11.5367 6.14874 11.7238 6.19609C11.9108 6.24344 12.0721 6.36186 12.1733 6.5262L12.4964 7.0959L12.8267 6.5262C12.8753 6.44181 12.94 6.36783 13.0172 6.30849C13.0944 6.24915 13.1826 6.20561 13.2766 6.18037C13.3706 6.15512 13.4687 6.14867 13.5653 6.16137C13.6618 6.17407 13.7549 6.20569 13.8392 6.2544Z" fill="#0A0D14" style="fill:#0A0D14;fill:color(display-p3 0.0392 0.0510 0.0784);fill-opacity:1;"/>
</svg>
