<svg width="25" height="24" viewBox="0 0 25 24" fill="none" xmlns="http://www.w3.org/2000/svg">
<path d="M12.5 3C17.4707 3 21.5 7.0293 21.5 12C21.5 16.9707 17.4707 21 12.5 21C7.5293 21 3.5 16.9707 3.5 12C3.5 7.0293 7.5293 3 12.5 3ZM9.6407 15.0087C9.2852 14.5794 8.8433 14.4264 8.3096 14.5506L8.1746 14.5875L7.6436 15.5019C7.54346 15.6649 7.51029 15.8604 7.55104 16.0473C7.59179 16.2343 7.7033 16.3982 7.86221 16.5048C8.02113 16.6113 8.21511 16.6523 8.40353 16.619C8.59195 16.5857 8.76019 16.4808 8.873 16.3263L8.9288 16.2426L9.6398 15.0087H9.6407ZM13.589 8.994C13.1498 9.3576 12.707 10.4313 13.328 11.5023L16.064 16.2417C16.1587 16.4027 16.3108 16.522 16.4897 16.5758C16.6686 16.6296 16.8612 16.6139 17.029 16.5318C17.1968 16.4497 17.3275 16.3073 17.3949 16.133C17.4622 15.9588 17.4613 15.7655 17.3924 15.5919L17.3483 15.5019L16.6265 14.2491H17.6975C17.7948 14.2493 17.8912 14.2303 17.9811 14.1932C18.071 14.156 18.1527 14.1015 18.2215 14.0326C18.2902 13.9638 18.3447 13.882 18.3817 13.7921C18.4188 13.7021 18.4377 13.6057 18.4373 13.5084C18.4378 13.3279 18.3721 13.1535 18.2527 13.0182C18.1333 12.8829 17.9684 12.796 17.7893 12.774L17.6966 12.7686H15.7706L13.796 9.3513L13.589 8.9949V8.994ZM13.8392 6.2544C13.6838 6.16513 13.5013 6.13509 13.3255 6.16982C13.1496 6.20456 12.9923 6.30173 12.8825 6.4434L12.8267 6.5262L12.4964 7.0959L12.1733 6.5262C12.0786 6.36519 11.9265 6.24587 11.7476 6.19209C11.5687 6.13831 11.3761 6.15404 11.2083 6.23613C11.0405 6.31822 10.9098 6.46062 10.8424 6.63487C10.7751 6.80912 10.776 7.00237 10.8449 7.176L10.889 7.266L11.6432 8.5773L9.2267 12.765H7.3394C7.24218 12.7648 7.14587 12.7837 7.05601 12.8208C6.96615 12.8579 6.8845 12.9124 6.81575 12.9812C6.74701 13.0499 6.69252 13.1315 6.65543 13.2214C6.61834 13.3113 6.59936 13.4076 6.5996 13.5048C6.5996 13.8837 6.8804 14.1942 7.2467 14.2401L7.3394 14.2455H14.0714C14.3774 13.6695 14.0174 12.8514 13.3424 12.7713L13.2335 12.765H10.9358L14.111 7.266C14.2091 7.09581 14.2356 6.89362 14.1846 6.70391C14.1336 6.5142 14.0094 6.35251 13.8392 6.2544Z" fill="#0A0D14" style="fill:#0A0D14;fill:color(display-p3 0.0392 0.0510 0.0784);fill-opacity:1;"/>
</svg>
