<svg width="25" height="24" viewBox="0 0 25 24" fill="none" xmlns="http://www.w3.org/2000/svg">
<path d="M15.8561 8.58704C15.4304 8.55374 14.9732 8.65544 14.273 8.92274C14.3324 8.90024 13.6052 9.18374 13.4018 9.25574C12.95 9.41324 12.5783 9.49964 12.1616 9.49964C11.7494 9.49964 11.3696 9.41684 10.9322 9.27014C10.7927 9.22244 10.6523 9.17114 10.4777 9.10274C10.4039 9.07394 10.1339 8.96594 10.0745 8.94344C9.49126 8.71484 9.16276 8.62844 8.89006 8.63564C7.85326 8.64914 6.87136 9.24764 6.30166 10.2394C5.13886 12.259 5.78236 15.9085 7.48246 18.3673C8.38786 19.6669 8.88286 20.1313 9.08266 20.125C9.28246 20.116 9.42916 20.0737 9.78736 19.9225L9.93766 19.8586C10.8422 19.4725 11.4767 19.3024 12.4316 19.3024C13.3505 19.3024 13.9643 19.4698 14.8328 19.8442L14.984 19.909C15.3422 20.062 15.4718 20.0962 15.6968 20.0908C16.019 20.0863 16.4159 19.7155 17.297 18.4222C17.5382 18.0703 17.7515 17.6995 17.936 17.3242C17.8147 17.2244 17.697 17.1202 17.5832 17.0119C16.4231 15.9067 15.7058 14.4163 15.686 12.5749C15.6666 11.2125 16.1144 9.8845 16.955 8.81204C16.6022 8.68181 16.2316 8.60594 15.8561 8.58704ZM15.9956 6.79244C16.6328 6.83564 18.458 7.03004 19.646 8.76884C19.5488 8.82284 17.4644 10.0324 17.486 12.5596C17.5184 15.5836 20.132 16.588 20.1644 16.5988C20.1428 16.6744 19.7432 18.0352 18.782 19.4392C17.9504 20.6596 17.0864 21.8692 15.7256 21.8908C14.3864 21.9232 13.9544 21.1024 12.4316 21.1024C10.898 21.1024 10.4228 21.8692 9.15916 21.9232C7.84156 21.9664 6.84796 20.6056 6.00556 19.396C4.28836 16.912 2.98156 12.3976 4.74196 9.34124C5.61676 7.81844 7.17196 6.85724 8.86756 6.83564C10.1528 6.80324 11.3732 7.69964 12.1616 7.69964C12.9392 7.69964 14.3324 6.66284 15.9956 6.79244ZM14.9696 5.15084C14.2676 5.99324 13.1228 6.65204 12.0104 6.56564C11.8592 5.42084 12.4208 4.22204 13.0688 3.47684C13.7924 2.63444 15.002 2.00804 16.0064 1.96484C16.136 3.13124 15.6716 4.30844 14.9696 5.15084Z" fill="#0A0D14" style="fill:#0A0D14;fill:color(display-p3 0.0392 0.0510 0.0784);fill-opacity:1;"/>
</svg>
