<svg width="25" height="24" viewBox="0 0 25 24" fill="none" xmlns="http://www.w3.org/2000/svg">
<path d="M12.1616 7.69964C11.3732 7.69964 10.1528 6.80324 8.86756 6.83564C7.17196 6.85724 5.61676 7.81844 4.74196 9.34124C2.98156 12.3976 4.28836 16.912 6.00556 19.396C6.84796 20.6056 7.84156 21.9664 9.15916 21.9232C10.4228 21.8692 10.898 21.1024 12.4316 21.1024C13.9544 21.1024 14.3864 21.9232 15.7256 21.8908C17.0864 21.8692 17.9504 20.6596 18.782 19.4392C19.7432 18.0352 20.1428 16.6744 20.1644 16.5988C20.132 16.588 17.5184 15.5836 17.486 12.5596C17.4644 10.0324 19.5488 8.82284 19.646 8.76884C18.458 7.03004 16.6328 6.83564 15.9956 6.79244C14.3324 6.66284 12.9392 7.69964 12.1616 7.69964ZM14.9696 5.15084C15.6716 4.30844 16.136 3.13124 16.0064 1.96484C15.002 2.00804 13.7924 2.63444 13.0688 3.47684C12.4208 4.22204 11.8592 5.42084 12.0104 6.56564C13.1228 6.65204 14.2676 5.99324 14.9696 5.15084Z" fill="#0A0D14" style="fill:#0A0D14;fill:color(display-p3 0.0392 0.0510 0.0784);fill-opacity:1;"/>
</svg>
