<svg width="25" height="24" viewBox="0 0 25 24" fill="none" xmlns="http://www.w3.org/2000/svg">
<path d="M7.775 3.44922C8.27731 3.44922 8.77469 3.54816 9.23876 3.74038C9.70283 3.9326 10.1245 4.21435 10.4797 4.56954C10.8349 4.92472 11.1166 5.34638 11.3088 5.81045C11.5011 6.27452 11.6 6.77191 11.6 7.27422V11.0992H7.775C6.76055 11.0992 5.78764 10.6962 5.07032 9.9789C4.35299 9.26158 3.95 8.28867 3.95 7.27422C3.95 6.25977 4.35299 5.28686 5.07032 4.56954C5.78764 3.85221 6.76055 3.44922 7.775 3.44922ZM7.775 12.8992H11.6V16.7242C11.6 17.4807 11.3757 18.2203 10.9554 18.8493C10.5351 19.4783 9.93769 19.9686 9.23876 20.2581C8.53984 20.5476 7.77076 20.6233 7.02878 20.4757C6.2868 20.3281 5.60525 19.9638 5.07032 19.4289C4.53538 18.894 4.17108 18.2124 4.02349 17.4704C3.87591 16.7285 3.95165 15.9594 4.24116 15.2605C4.53066 14.5615 5.02092 13.9641 5.64994 13.5438C6.27896 13.1236 7.01849 12.8992 7.775 12.8992ZM17.225 3.44922C18.2395 3.44922 19.2124 3.85221 19.9297 4.56954C20.647 5.28686 21.05 6.25977 21.05 7.27422C21.05 8.28867 20.647 9.26158 19.9297 9.9789C19.2124 10.6962 18.2395 11.0992 17.225 11.0992H13.4V7.27422C13.4 6.25977 13.803 5.28686 14.5203 4.56954C15.2376 3.85221 16.2105 3.44922 17.225 3.44922ZM13.4 12.8992H17.225C17.9815 12.8992 18.721 13.1236 19.3501 13.5438C19.9791 13.9641 20.4693 14.5615 20.7588 15.2605C21.0483 15.9594 21.1241 16.7285 20.9765 17.4704C20.8289 18.2124 20.4646 18.894 19.9297 19.4289C19.3947 19.9638 18.7132 20.3281 17.9712 20.4757C17.2292 20.6233 16.4602 20.5476 15.7612 20.2581C15.0623 19.9686 14.4649 19.4783 14.0446 18.8493C13.6243 18.2203 13.4 17.4807 13.4 16.7242V12.8992Z" fill="#0A0D14" style="fill:#0A0D14;fill:color(display-p3 0.0392 0.0510 0.0784);fill-opacity:1;"/>
</svg>
