<svg width="25" height="24" viewBox="0 0 25 24" fill="none" xmlns="http://www.w3.org/2000/svg">
<path d="M8.00001 11.5492C7.46816 11.5492 6.94151 11.4445 6.45014 11.2409C5.95878 11.0374 5.51231 10.7391 5.13623 10.363C4.76015 9.98692 4.46183 9.54046 4.2583 9.04909C4.05477 8.55772 3.95001 8.03107 3.95001 7.49922C3.95001 6.96737 4.05477 6.44072 4.2583 5.94935C4.46183 5.45798 4.76015 5.01151 5.13623 4.63544C5.51231 4.25936 5.95878 3.96104 6.45014 3.75751C6.94151 3.55398 7.46816 3.44922 8.00001 3.44922C9.07414 3.44922 10.1043 3.87591 10.8638 4.63544C11.6233 5.39496 12.05 6.42509 12.05 7.49922C12.05 8.57335 11.6233 9.60348 10.8638 10.363C10.1043 11.1225 9.07414 11.5492 8.00001 11.5492ZM8.00001 20.5492C6.92589 20.5492 5.89575 20.1225 5.13623 19.363C4.37671 18.6035 3.95001 17.5733 3.95001 16.4992C3.95001 15.4251 4.37671 14.395 5.13623 13.6354C5.89575 12.8759 6.92589 12.4492 8.00001 12.4492C9.07414 12.4492 10.1043 12.8759 10.8638 13.6354C11.6233 14.395 12.05 15.4251 12.05 16.4992C12.05 17.5733 11.6233 18.6035 10.8638 19.363C10.1043 20.1225 9.07414 20.5492 8.00001 20.5492ZM17 11.5492C16.4682 11.5492 15.9415 11.4445 15.4501 11.2409C14.9588 11.0374 14.5123 10.7391 14.1362 10.363C13.7602 9.98692 13.4618 9.54046 13.2583 9.04909C13.0548 8.55772 12.95 8.03107 12.95 7.49922C12.95 6.96737 13.0548 6.44072 13.2583 5.94935C13.4618 5.45798 13.7602 5.01151 14.1362 4.63544C14.5123 4.25936 14.9588 3.96104 15.4501 3.75751C15.9415 3.55398 16.4682 3.44922 17 3.44922C18.0741 3.44922 19.1043 3.87591 19.8638 4.63544C20.6233 5.39496 21.05 6.42509 21.05 7.49922C21.05 8.57335 20.6233 9.60348 19.8638 10.363C19.1043 11.1225 18.0741 11.5492 17 11.5492ZM17 20.5492C15.9259 20.5492 14.8958 20.1225 14.1362 19.363C13.3767 18.6035 12.95 17.5733 12.95 16.4992C12.95 15.4251 13.3767 14.395 14.1362 13.6354C14.8958 12.8759 15.9259 12.4492 17 12.4492C18.0741 12.4492 19.1043 12.8759 19.8638 13.6354C20.6233 14.395 21.05 15.4251 21.05 16.4992C21.05 17.5733 20.6233 18.6035 19.8638 19.363C19.1043 20.1225 18.0741 20.5492 17 20.5492Z" fill="#0A0D14" style="fill:#0A0D14;fill:color(display-p3 0.0392 0.0510 0.0784);fill-opacity:1;"/>
</svg>
