<svg width="25" height="24" viewBox="0 0 25 24" fill="none" xmlns="http://www.w3.org/2000/svg">
<path d="M7.55 11.5492C7.01815 11.5492 6.4915 11.4445 6.00013 11.2409C5.50876 11.0374 5.06229 10.7391 4.68622 10.363C4.31014 9.98692 4.01182 9.54046 3.80829 9.04909C3.60476 8.55772 3.5 8.03107 3.5 7.49922C3.5 6.96737 3.60476 6.44072 3.80829 5.94935C4.01182 5.45798 4.31014 5.01151 4.68622 4.63544C5.06229 4.25936 5.50876 3.96104 6.00013 3.75751C6.4915 3.55398 7.01815 3.44922 7.55 3.44922C8.62413 3.44922 9.65426 3.87591 10.4138 4.63544C11.1733 5.39496 11.6 6.42509 11.6 7.49922C11.6 8.57335 11.1733 9.60348 10.4138 10.363C9.65426 11.1225 8.62413 11.5492 7.55 11.5492ZM8 20.5492C6.92587 20.5492 5.89574 20.1225 5.13622 19.363C4.3767 18.6035 3.95 17.5733 3.95 16.4992C3.95 15.4251 4.3767 14.395 5.13622 13.6354C5.89574 12.8759 6.92587 12.4492 8 12.4492C9.07413 12.4492 10.1043 12.8759 10.8638 13.6354C11.6233 14.395 12.05 15.4251 12.05 16.4992C12.05 17.5733 11.6233 18.6035 10.8638 19.363C10.1043 20.1225 9.07413 20.5492 8 20.5492ZM17 11.5492C16.4681 11.5492 15.9415 11.4445 15.4501 11.2409C14.9588 11.0374 14.5123 10.7391 14.1362 10.363C13.7601 9.98692 13.4618 9.54046 13.2583 9.04909C13.0548 8.55772 12.95 8.03107 12.95 7.49922C12.95 6.96737 13.0548 6.44072 13.2583 5.94935C13.4618 5.45798 13.7601 5.01151 14.1362 4.63544C14.5123 4.25936 14.9588 3.96104 15.4501 3.75751C15.9415 3.55398 16.4681 3.44922 17 3.44922C18.0741 3.44922 19.1043 3.87591 19.8638 4.63544C20.6233 5.39496 21.05 6.42509 21.05 7.49922C21.05 8.57335 20.6233 9.60348 19.8638 10.363C19.1043 11.1225 18.0741 11.5492 17 11.5492ZM17 20.5492C15.9259 20.5492 14.8957 20.1225 14.1362 19.363C13.3767 18.6035 12.95 17.5733 12.95 16.4992C12.95 15.4251 13.3767 14.395 14.1362 13.6354C14.8957 12.8759 15.9259 12.4492 17 12.4492C18.0741 12.4492 19.1043 12.8759 19.8638 13.6354C20.6233 14.395 21.05 15.4251 21.05 16.4992C21.05 17.5733 20.6233 18.6035 19.8638 19.363C19.1043 20.1225 18.0741 20.5492 17 20.5492ZM7.55 9.74922C8.14674 9.74922 8.71903 9.51217 9.14099 9.09021C9.56295 8.66825 9.8 8.09596 9.8 7.49922C9.8 6.90248 9.56295 6.33019 9.14099 5.90823C8.71903 5.48627 8.14674 5.24922 7.55 5.24922C6.95326 5.24922 6.38097 5.48627 5.95901 5.90823C5.53705 6.33019 5.3 6.90248 5.3 7.49922C5.3 8.09596 5.53705 8.66825 5.95901 9.09021C6.38097 9.51217 6.95326 9.74922 7.55 9.74922ZM8 18.7492C8.59674 18.7492 9.16903 18.5122 9.59099 18.0902C10.0129 17.6683 10.25 17.096 10.25 16.4992C10.25 15.9025 10.0129 15.3302 9.59099 14.9082C9.16903 14.4863 8.59674 14.2492 8 14.2492C7.40326 14.2492 6.83097 14.4863 6.40901 14.9082C5.98705 15.3302 5.75 15.9025 5.75 16.4992C5.75 17.096 5.98705 17.6683 6.40901 18.0902C6.83097 18.5122 7.40326 18.7492 8 18.7492ZM17 9.74922C17.5967 9.74922 18.169 9.51217 18.591 9.09021C19.0129 8.66825 19.25 8.09596 19.25 7.49922C19.25 6.90248 19.0129 6.33019 18.591 5.90823C18.169 5.48627 17.5967 5.24922 17 5.24922C16.4033 5.24922 15.831 5.48627 15.409 5.90823C14.9871 6.33019 14.75 6.90248 14.75 7.49922C14.75 8.09596 14.9871 8.66825 15.409 9.09021C15.831 9.51217 16.4033 9.74922 17 9.74922ZM17 18.7492C17.5967 18.7492 18.169 18.5122 18.591 18.0902C19.0129 17.6683 19.25 17.096 19.25 16.4992C19.25 15.9025 19.0129 15.3302 18.591 14.9082C18.169 14.4863 17.5967 14.2492 17 14.2492C16.4033 14.2492 15.831 14.4863 15.409 14.9082C14.9871 15.3302 14.75 15.9025 14.75 16.4992C14.75 17.096 14.9871 17.6683 15.409 18.0902C15.831 18.5122 16.4033 18.7492 17 18.7492Z" fill="#0A0D14" style="fill:#0A0D14;fill:color(display-p3 0.0392 0.0510 0.0784);fill-opacity:1;"/>
</svg>
