<svg width="25" height="24" viewBox="0 0 25 24" fill="none" xmlns="http://www.w3.org/2000/svg">
<path d="M4.40002 3.8928C4.40002 3.3996 4.80052 3 5.29372 3H19.7063C19.9427 3.00165 20.1689 3.09621 20.3361 3.26326C20.5033 3.43031 20.5981 3.65644 20.6 3.8928V20.1072C20.5998 20.3441 20.5055 20.5712 20.3379 20.7386C20.1704 20.906 19.9432 21 19.7063 21H5.29372C5.05736 20.9984 4.83114 20.9038 4.66392 20.7367C4.4967 20.5697 4.40191 20.3436 4.40002 20.1072V3.8928ZM18.8 11.1V4.8H6.20002V11.1H18.8ZM18.8 12.9H6.20002V19.2H18.8V12.9ZM9.80002 6.6H15.2V8.4H9.80002V6.6ZM9.80002 14.7H15.2V16.5H9.80002V14.7Z" fill="#0A0D14" style="fill:#0A0D14;fill:color(display-p3 0.0392 0.0510 0.0784);fill-opacity:1;"/>
</svg>
