<svg width="25" height="24" viewBox="0 0 25 24" fill="none" xmlns="http://www.w3.org/2000/svg">
<path d="M4.40003 12.9H20.6V20.1018C20.6 20.5977 20.1995 21 19.7063 21H5.29373C5.17605 20.9998 5.05958 20.9763 4.95096 20.9311C4.84235 20.8858 4.74372 20.8195 4.66072 20.7361C4.57772 20.6527 4.51198 20.5537 4.46725 20.4449C4.42251 20.3361 4.39967 20.2195 4.40003 20.1018V12.9ZM4.40003 3.8982C4.40003 3.4023 4.80053 3 5.29373 3H19.7063C20.1995 3 20.6 3.4014 20.6 3.8982V11.1H4.40003V3.8982ZM9.80003 5.7V7.5H15.2V5.7H9.80003ZM9.80003 15.6V17.4H15.2V15.6H9.80003Z" fill="#0A0D14" style="fill:#0A0D14;fill:color(display-p3 0.0392 0.0510 0.0784);fill-opacity:1;"/>
</svg>
