<svg width="25" height="24" viewBox="0 0 25 24" fill="none" xmlns="http://www.w3.org/2000/svg">
<path d="M4.4 10.1999H3.5V4.8026C3.5 4.304 3.9095 3.8999 4.3928 3.8999H20.6072C20.7253 3.89966 20.8424 3.92291 20.9515 3.96831C21.0605 4.01371 21.1595 4.08035 21.2426 4.16435C21.3257 4.24836 21.3912 4.34805 21.4354 4.45762C21.4796 4.56719 21.5016 4.68446 21.5 4.8026V10.1999H20.6V19.2008C20.6004 19.3185 20.5775 19.4352 20.5328 19.544C20.4881 19.6529 20.4223 19.752 20.3394 19.8354C20.2564 19.9189 20.1578 19.9853 20.0491 20.0306C19.9405 20.076 19.824 20.0996 19.7063 20.0999H5.2937C5.17598 20.0996 5.05949 20.076 4.95087 20.0306C4.84225 19.9853 4.74363 19.9189 4.66064 19.8354C4.57765 19.752 4.51192 19.6529 4.4672 19.544C4.42248 19.4352 4.39964 19.3185 4.4 19.2008V10.1999ZM18.8 10.1999H6.2V18.2999H18.8V10.1999ZM5.3 5.6999V8.3999H19.7V5.6999H5.3ZM9.8 11.9999H15.2V13.7999H9.8V11.9999Z" fill="#0A0D14" style="fill:#0A0D14;fill:color(display-p3 0.0392 0.0510 0.0784);fill-opacity:1;"/>
</svg>
