<svg width="25" height="24" viewBox="0 0 25 24" fill="none" xmlns="http://www.w3.org/2000/svg">
<path d="M4.4 10.1999H20.6V19.2035C20.6 19.6985 20.1995 20.0999 19.7063 20.0999H5.2937C5.17614 20.0998 5.05976 20.0765 4.95121 20.0314C4.84266 19.9863 4.74407 19.9202 4.66107 19.8369C4.57807 19.7537 4.51229 19.6549 4.46749 19.5462C4.4227 19.4375 4.39976 19.3211 4.4 19.2035V10.1999ZM9.8 11.9999V13.7999H15.2V11.9999H9.8ZM3.5 4.7999C3.5 4.3031 3.9095 3.8999 4.3928 3.8999H20.6072C21.1004 3.8999 21.5 4.2995 21.5 4.7999V8.3999H3.5V4.7999Z" fill="#0A0D14" style="fill:#0A0D14;fill:color(display-p3 0.0392 0.0510 0.0784);fill-opacity:1;"/>
</svg>
