<svg width="25" height="24" viewBox="0 0 25 24" fill="none" xmlns="http://www.w3.org/2000/svg">
<path d="M16.1 7.5001H11.6C10.1679 7.5001 8.79434 8.06902 7.78165 9.08172C6.76895 10.0944 6.20002 11.4679 6.20002 12.9001C6.20002 14.3323 6.76895 15.7058 7.78165 16.7185C8.79434 17.7312 10.1679 18.3001 11.6 18.3001H19.7V20.1001H11.6C9.69047 20.1001 7.85912 19.3415 6.50886 17.9913C5.15859 16.641 4.40002 14.8097 4.40002 12.9001C4.40002 10.9905 5.15859 9.15919 6.50886 7.80893C7.85912 6.45867 9.69047 5.7001 11.6 5.7001H16.1V2.1001L21.5 6.6001L16.1 11.1001V7.5001Z" fill="#0A0D14" style="fill:#0A0D14;fill:color(display-p3 0.0392 0.0510 0.0784);fill-opacity:1;"/>
</svg>
