<svg width="25" height="24" viewBox="0 0 25 24" fill="none" xmlns="http://www.w3.org/2000/svg">
<path d="M18.0548 7.50002H11.6C10.1679 7.50002 8.79434 8.06895 7.78165 9.08164C6.76895 10.0943 6.20002 11.4678 6.20002 12.9C6.20002 14.3322 6.76895 15.7057 7.78165 16.7184C8.79434 17.7311 10.1679 18.3 11.6 18.3H19.7V20.1H11.6C9.69047 20.1 7.85912 19.3415 6.50886 17.9912C5.15859 16.6409 4.40002 14.8096 4.40002 12.9C4.40002 10.9905 5.15859 9.15911 6.50886 7.80885C7.85912 6.45859 9.69047 5.70002 11.6 5.70002H18.0548L15.7724 3.41762L17.045 2.14502L21.5 6.60002L17.045 11.055L15.7724 9.78242L18.0548 7.50002Z" fill="#0A0D14" style="fill:#0A0D14;fill:color(display-p3 0.0392 0.0510 0.0784);fill-opacity:1;"/>
</svg>
