<svg width="25" height="24" viewBox="0 0 25 24" fill="none" xmlns="http://www.w3.org/2000/svg">
<path d="M8.9 7.5001V11.1001L3.5 6.6001L8.9 2.1001V5.7001H13.4C15.3096 5.7001 17.1409 6.45867 18.4912 7.80893C19.8414 9.15919 20.6 10.9905 20.6 12.9001C20.6 14.8097 19.8414 16.641 18.4912 17.9913C17.1409 19.3415 15.3096 20.1001 13.4 20.1001H5.3V18.3001H13.4C14.8322 18.3001 16.2057 17.7312 17.2184 16.7185C18.2311 15.7058 18.8 14.3323 18.8 12.9001C18.8 11.4679 18.2311 10.0944 17.2184 9.08172C16.2057 8.06902 14.8322 7.5001 13.4 7.5001H8.9Z" fill="#0A0D14" style="fill:#0A0D14;fill:color(display-p3 0.0392 0.0510 0.0784);fill-opacity:1;"/>
</svg>
