<svg width="25" height="24" viewBox="0 0 25 24" fill="none" xmlns="http://www.w3.org/2000/svg">
<path d="M12.5 21C7.5293 21 3.5 16.9707 3.5 12C3.5 7.0293 7.5293 3 12.5 3C17.4707 3 21.5 7.0293 21.5 12C21.5 16.9707 17.4707 21 12.5 21ZM19.7 12C19.6997 10.4137 19.1756 8.87182 18.209 7.61399C17.2423 6.35617 15.8874 5.45279 14.3546 5.04418C12.8217 4.63557 11.1969 4.74462 9.73243 5.35439C8.26797 5.96415 7.04587 7.04049 6.256 8.4162C5.46613 9.7919 5.1527 11.39 5.36441 12.9621C5.57611 14.5343 6.3011 15.9925 7.42674 17.1102C8.55238 18.228 10.0157 18.9427 11.5893 19.1434C13.1629 19.3441 14.7587 19.0194 16.1288 18.2199L15.2216 16.6656C14.194 17.2652 12.9972 17.5087 11.817 17.3582C10.6369 17.2078 9.53941 16.6718 8.69518 15.8335C7.85094 14.9952 7.30717 13.9016 7.14834 12.7225C6.98951 11.5434 7.22451 10.3449 7.81683 9.31312C8.40916 8.28132 9.32565 7.47402 10.4239 7.01663C11.5222 6.55923 12.7408 6.47734 13.8904 6.78368C15.04 7.09002 16.0563 7.76744 16.7814 8.7107C17.5064 9.65397 17.8996 10.8103 17.9 12V12.9C17.9 13.1387 17.8052 13.3676 17.6364 13.5364C17.4676 13.7052 17.2387 13.8 17 13.8C16.7613 13.8 16.5324 13.7052 16.3636 13.5364C16.1948 13.3676 16.1 13.1387 16.1 12.9V9.3H14.8814C14.3593 8.83943 13.7148 8.54016 13.026 8.43843C12.3372 8.3367 11.6337 8.43687 11.0007 8.72683C10.3678 9.01678 9.83243 9.48406 9.4596 10.0721C9.08678 10.6601 8.89247 11.3436 8.90021 12.0398C8.90794 12.736 9.11739 13.415 9.50319 13.9946C9.88898 14.5742 10.4346 15.0294 11.0738 15.3053C11.7131 15.5811 12.4187 15.6656 13.105 15.5486C13.7913 15.4316 14.429 15.1181 14.9408 14.646C15.2984 15.0676 15.7768 15.3694 16.3114 15.5104C16.8459 15.6514 17.4109 15.6249 17.9299 15.4345C18.449 15.244 18.897 14.8989 19.2136 14.4456C19.5301 13.9924 19.6999 13.4529 19.7 12.9V12ZM12.5 10.2C12.9774 10.2 13.4352 10.3896 13.7728 10.7272C14.1104 11.0648 14.3 11.5226 14.3 12C14.3 12.4774 14.1104 12.9352 13.7728 13.2728C13.4352 13.6104 12.9774 13.8 12.5 13.8C12.0226 13.8 11.5648 13.6104 11.2272 13.2728C10.8896 12.9352 10.7 12.4774 10.7 12C10.7 11.5226 10.8896 11.0648 11.2272 10.7272C11.5648 10.3896 12.0226 10.2 12.5 10.2Z" fill="#0A0D14" style="fill:#0A0D14;fill:color(display-p3 0.0392 0.0510 0.0784);fill-opacity:1;"/>
</svg>
