<svg width="25" height="24" viewBox="0 0 25 24" fill="none" xmlns="http://www.w3.org/2000/svg">
<path d="M19.7 12C19.6998 10.3952 19.1635 8.83644 18.1762 7.57127C17.1889 6.3061 15.8073 5.40704 14.2506 5.01684C12.694 4.62665 11.0516 4.76769 9.58425 5.41758C8.11693 6.06747 6.90878 7.18895 6.15166 8.60393C5.39454 10.0189 5.13184 11.6463 5.40529 13.2276C5.67874 14.809 6.47266 16.2536 7.66097 17.3322C8.84929 18.4107 10.3639 19.0614 11.9642 19.1808C13.5646 19.3002 15.159 18.8816 16.4942 17.9913L17.4932 19.4889C16.0156 20.4768 14.2775 21.0029 12.5 21C7.5293 21 3.5 16.9707 3.5 12C3.5 7.0293 7.5293 3 12.5 3C17.4707 3 21.5 7.0293 21.5 12V13.35C21.5001 14.0239 21.2841 14.68 20.8837 15.2221C20.4833 15.7641 19.9196 16.1634 19.2755 16.3614C18.6314 16.5594 17.9407 16.5456 17.305 16.3221C16.6693 16.0985 16.122 15.677 15.7436 15.1194C15.1429 15.744 14.3747 16.1819 13.5311 16.3804C12.6876 16.5789 11.8047 16.5297 10.9885 16.2386C10.1723 15.9475 9.45749 15.4269 8.92997 14.7394C8.40246 14.0519 8.08467 13.2267 8.0148 12.363C7.94492 11.4992 8.12592 10.6337 8.53606 9.8703C8.9462 9.10694 9.56803 8.47823 10.3268 8.05971C11.0856 7.64119 11.9491 7.45067 12.8136 7.51104C13.6781 7.5714 14.5067 7.88009 15.2 8.4H17V13.35C17 13.708 17.1422 14.0514 17.3954 14.3046C17.6486 14.5578 17.992 14.7 18.35 14.7C18.708 14.7 19.0514 14.5578 19.3046 14.3046C19.5578 14.0514 19.7 13.708 19.7 13.35V12ZM12.5 9.3C11.7839 9.3 11.0972 9.58446 10.5908 10.0908C10.0845 10.5972 9.8 11.2839 9.8 12C9.8 12.7161 10.0845 13.4028 10.5908 13.9092C11.0972 14.4155 11.7839 14.7 12.5 14.7C13.2161 14.7 13.9028 14.4155 14.4092 13.9092C14.9155 13.4028 15.2 12.7161 15.2 12C15.2 11.2839 14.9155 10.5972 14.4092 10.0908C13.9028 9.58446 13.2161 9.3 12.5 9.3Z" fill="#0A0D14" style="fill:#0A0D14;fill:color(display-p3 0.0392 0.0510 0.0784);fill-opacity:1;"/>
</svg>
