<svg width="25" height="24" viewBox="0 0 25 24" fill="none" xmlns="http://www.w3.org/2000/svg">
<path d="M15.0452 8.18061L9.95484 13.2719C9.86888 13.3549 9.80032 13.4542 9.75315 13.564C9.70598 13.6739 9.68115 13.792 9.68011 13.9115C9.67908 14.031 9.70185 14.1495 9.7471 14.2601C9.79235 14.3707 9.85918 14.4712 9.94368 14.5557C10.0282 14.6402 10.1287 14.707 10.2393 14.7523C10.3499 14.7975 10.4684 14.8203 10.5879 14.8192C10.7074 14.8182 10.8255 14.7934 10.9353 14.7462C11.0451 14.699 11.1444 14.6305 11.2274 14.5445L16.3187 9.45411C16.8251 8.94772 17.1096 8.26091 17.1096 7.54476C17.1096 6.82862 16.8251 6.1418 16.3187 5.63541C15.8123 5.12902 15.1255 4.84453 14.4094 4.84453C13.6932 4.84453 13.0064 5.12902 12.5 5.63541L7.40874 10.7267C6.98221 11.1426 6.64251 11.6391 6.40934 12.1873C6.17618 12.7355 6.05419 13.3246 6.05046 13.9203C6.04672 14.5161 6.16132 15.1066 6.3876 15.6577C6.61387 16.2088 6.94733 16.7095 7.36861 17.1307C7.7899 17.552 8.29063 17.8854 8.84177 18.1116C9.3929 18.3378 9.98347 18.4523 10.5792 18.4484C11.1749 18.4446 11.764 18.3226 12.3122 18.0893C12.8604 17.8561 13.3568 17.5163 13.7726 17.0897L18.8639 11.9993L20.1365 13.2719L15.0452 18.3632C14.4602 18.9483 13.7657 19.4123 13.0013 19.729C12.2369 20.0456 11.4176 20.2085 10.5902 20.2085C9.76287 20.2085 8.9436 20.0456 8.17921 19.729C7.41482 19.4123 6.72028 18.9483 6.13524 18.3632C5.5502 17.7782 5.08612 17.0836 4.7695 16.3192C4.45288 15.5549 4.28992 14.7356 4.28992 13.9082C4.28992 13.0808 4.45288 12.2616 4.7695 11.4972C5.08612 10.7328 5.5502 10.0383 6.13524 9.45321L11.2274 4.36281C12.0761 3.5431 13.2129 3.08953 14.3927 3.09978C15.5726 3.11003 16.7013 3.58329 17.5356 4.41763C18.37 5.25197 18.8432 6.38062 18.8535 7.56051C18.8637 8.74039 18.4102 9.8771 17.5904 10.7258L12.5 15.8189C12.2492 16.0697 11.9515 16.2685 11.6238 16.4042C11.2962 16.5399 10.945 16.6097 10.5904 16.6097C10.2357 16.6096 9.88457 16.5397 9.55694 16.404C9.22931 16.2682 8.93163 16.0693 8.68089 15.8185C8.43015 15.5677 8.23126 15.2699 8.09559 14.9423C7.95991 14.6146 7.8901 14.2634 7.89014 13.9088C7.89018 13.5542 7.96008 13.203 8.09583 12.8754C8.23158 12.5477 8.43054 12.2501 8.68134 11.9993L13.7726 6.90801L15.0452 8.18061Z" fill="#0A0D14" style="fill:#0A0D14;fill:color(display-p3 0.0392 0.0510 0.0784);fill-opacity:1;"/>
</svg>
