<svg width="25" height="24" viewBox="0 0 25 24" fill="none" xmlns="http://www.w3.org/2000/svg">
<path d="M14.3 13.35V8.4C14.3 7.44522 13.9207 6.52955 13.2456 5.85442C12.5704 5.17928 11.6548 4.8 10.7 4.8C9.74521 4.8 8.82953 5.17928 8.1544 5.85442C7.47927 6.52955 7.09999 7.44522 7.09999 8.4V13.35C7.09999 14.9015 7.71633 16.3895 8.81341 17.4866C9.9105 18.5837 11.3985 19.2 12.95 19.2C14.5015 19.2 15.9895 18.5837 17.0866 17.4866C18.1837 16.3895 18.8 14.9015 18.8 13.35V4.8H20.6V13.35C20.6 15.3789 19.794 17.3247 18.3594 18.7594C16.9247 20.194 14.9789 21 12.95 21C10.9211 21 8.97527 20.194 7.54062 18.7594C6.10597 17.3247 5.29999 15.3789 5.29999 13.35V8.4C5.29999 6.96783 5.86891 5.59432 6.88161 4.58162C7.89431 3.56893 9.26782 3 10.7 3C12.1322 3 13.5057 3.56893 14.5184 4.58162C15.5311 5.59432 16.1 6.96783 16.1 8.4V13.35C16.1 14.1854 15.7681 14.9866 15.1774 15.5774C14.5866 16.1681 13.7854 16.5 12.95 16.5C12.1146 16.5 11.3133 16.1681 10.7226 15.5774C10.1319 14.9866 9.79999 14.1854 9.79999 13.35V8.4H11.6V13.35C11.6 13.708 11.7422 14.0514 11.9954 14.3046C12.2486 14.5578 12.5919 14.7 12.95 14.7C13.308 14.7 13.6514 14.5578 13.9046 14.3046C14.1578 14.0514 14.3 13.708 14.3 13.35Z" fill="#0A0D14" style="fill:#0A0D14;fill:color(display-p3 0.0392 0.0510 0.0784);fill-opacity:1;"/>
</svg>
