<svg width="25" height="24" viewBox="0 0 25 24" fill="none" xmlns="http://www.w3.org/2000/svg">
<path d="M20.5973 3.8928L20.6 20.1072C20.5981 20.3436 20.5033 20.5697 20.3361 20.7367C20.1689 20.9038 19.9427 20.9984 19.7063 21H5.29372C5.05686 21 4.82968 20.906 4.6621 20.7386C4.49453 20.5712 4.40026 20.3441 4.40002 20.1072V3.8928C4.40191 3.65644 4.4967 3.43031 4.66392 3.26326C4.83114 3.09621 5.05736 3.00165 5.29372 3H19.7027C20.1968 3 20.5973 3.3996 20.5973 3.8928ZM9.80002 12.9V9.3C9.80002 9.06131 9.89485 8.83239 10.0636 8.6636C10.2324 8.49482 10.4613 8.4 10.7 8.4C10.9387 8.4 11.1676 8.49482 11.3364 8.6636C11.5052 8.83239 11.6 9.06131 11.6 9.3V12.9C11.6 13.1387 11.6948 13.3676 11.8636 13.5364C12.0324 13.7052 12.2613 13.8 12.5 13.8C12.7387 13.8 12.9676 13.7052 13.1364 13.5364C13.3052 13.3676 13.4 13.1387 13.4 12.9V9.3C13.4 8.58392 13.1156 7.89716 12.6092 7.39081C12.1029 6.88446 11.4161 6.6 10.7 6.6C9.98394 6.6 9.29718 6.88446 8.79084 7.39081C8.28449 7.89716 8.00002 8.58392 8.00002 9.3V12.9C8.00002 14.0935 8.47413 15.2381 9.31804 16.082C10.162 16.9259 11.3066 17.4 12.5 17.4C13.6935 17.4 14.8381 16.9259 15.682 16.082C16.5259 15.2381 17 14.0935 17 12.9V8.4H15.2V12.9C15.2 13.6161 14.9156 14.3028 14.4092 14.8092C13.9029 15.3155 13.2161 15.6 12.5 15.6C11.7839 15.6 11.0972 15.3155 10.5908 14.8092C10.0845 14.3028 9.80002 13.6161 9.80002 12.9Z" fill="#0A0D14" style="fill:#0A0D14;fill:color(display-p3 0.0392 0.0510 0.0784);fill-opacity:1;"/>
</svg>
