<svg width="25" height="24" viewBox="0 0 25 24" fill="none" xmlns="http://www.w3.org/2000/svg">
<path d="M8.50764 18.5524C9.26173 18.5848 10.0168 18.5191 10.754 18.3571C11.6348 18.1655 12.5418 18.1256 13.436 18.2392C13.9283 18.2995 14.3225 18.3877 14.5952 18.4705C15.5654 18.718 16.9442 18.6712 17.2997 18.1015C17.5616 17.6803 17.5274 17.3932 17.2763 17.0224C17.2198 16.9389 17.156 16.8606 17.0855 16.7884C16.8591 16.6073 16.6361 16.4219 16.4168 16.2322C15.8677 15.7593 15.3413 15.2607 14.8391 14.7382C14.3233 14.2073 13.8489 13.6377 13.4198 13.0345L13.3874 12.9868C12.7196 11.9617 11.9852 12.0265 11.5856 12.7015C11.3338 13.1245 11.0462 13.5253 10.7261 13.8994C10.3571 14.3332 9.97914 14.7004 9.55164 15.0667C9.44094 15.1612 9.09894 15.4447 9.18084 15.3763C9.17724 15.379 9.16554 15.3898 9.22674 15.3124C9.13854 15.4204 8.37174 16.1017 8.14674 16.3582C7.68324 16.8829 7.49604 17.3302 7.56624 17.6902C7.63104 18.0286 7.76334 18.2185 7.97124 18.3607C8.10265 18.4485 8.24909 18.5113 8.40324 18.5461L8.50764 18.5524ZM14.8958 12.004C16.1342 13.777 18.2546 15.4177 18.2546 15.4177C18.2546 15.4177 20.1113 16.9909 18.8279 19.0519C17.5445 21.1129 14.1002 20.2021 14.1002 20.2021C14.1002 20.2021 12.7322 19.7611 11.1428 20.1139C9.55434 20.4694 8.18544 20.3344 8.18544 20.3344C8.18544 20.3344 6.20004 20.1139 5.79864 18.0313C5.39724 15.9487 7.65264 14.3953 7.83084 14.1757C8.00634 13.9534 9.19164 13.21 10.0376 11.7835C10.8836 10.3561 13.2623 9.49749 14.8958 12.004ZM19.8809 10.726C19.8809 11.1382 20.0519 12.8797 18.4832 12.9148C16.9154 12.949 16.8488 11.8546 16.8488 11.0698C16.8488 10.2481 17.018 9.08529 18.2798 9.08529C19.5398 9.08529 19.8809 10.3174 19.8809 10.7269V10.726ZM14.9939 8.22669C13.9319 8.08989 13.6916 7.12689 13.7942 6.16299C13.8806 5.37549 14.8229 4.16589 15.5771 4.33959C16.3304 4.51059 17.0171 5.50959 16.8785 6.36819C16.7426 7.22949 16.0586 8.36439 14.9939 8.22669ZM10.4795 7.89639C9.70554 7.89639 9.07554 7.00269 9.07554 5.89839C9.07554 4.79409 9.70464 3.90039 10.4795 3.90039C11.2562 3.90039 11.8835 4.79409 11.8835 5.89839C11.8835 7.00269 11.2562 7.89639 10.4795 7.89639ZM7.06584 12.0058C5.54034 12.3343 4.97244 10.5685 5.13984 9.74229C5.13984 9.74229 5.31984 7.95399 6.55824 7.84329C7.54194 7.75779 8.26644 8.83419 8.34114 9.44979C8.38704 9.84939 8.59584 11.6773 7.06584 12.0058Z" fill="#0A0D14" style="fill:#0A0D14;fill:color(display-p3 0.0392 0.0510 0.0784);fill-opacity:1;"/>
</svg>
