<svg width="25" height="24" viewBox="0 0 25 24" fill="none" xmlns="http://www.w3.org/2000/svg">
<path d="M7.03431 12.4465C8.89101 12.0478 8.63811 9.82842 8.58231 9.34332C8.49141 8.59632 7.61211 7.28952 6.41781 7.39302C4.91481 7.52802 4.69611 9.69792 4.69611 9.69792C4.49271 10.7014 5.18211 12.8452 7.03431 12.4465ZM9.00531 16.3057C8.95131 16.4614 8.82981 16.8601 8.93511 17.2075C9.14211 17.9869 9.81891 18.022 9.81891 18.022H10.7909V15.646H9.74961C9.28161 15.7846 9.05661 16.1491 9.00531 16.3057ZM10.4795 8.72592C11.5055 8.72592 12.3335 7.54512 12.3335 6.08622C12.3335 4.62822 11.5055 3.44922 10.4795 3.44922C9.45621 3.44922 8.62551 4.62822 8.62551 6.08622C8.62551 7.54512 9.45621 8.72592 10.4795 8.72592ZM14.8967 8.89962C16.2665 9.07782 17.1476 7.61532 17.3231 6.50652C17.5022 5.39952 16.6175 4.11432 15.6473 3.89292C14.6753 3.66972 13.4612 5.22762 13.3505 6.24192C13.2182 7.48392 13.5278 8.72412 14.8967 8.89962ZM14.8967 12.0028C13.2182 9.38832 10.835 10.4521 10.0367 11.7823C9.24381 13.1116 8.00631 13.9513 7.83081 14.1745C7.65261 14.3941 5.26941 15.6802 5.79861 18.0301C6.32691 20.3782 8.18541 20.3341 8.18541 20.3341C8.18541 20.3341 9.55431 20.4691 11.1428 20.1127C12.7322 19.7608 14.1002 20.2009 14.1002 20.2009C14.1002 20.2009 17.8127 21.4429 18.8279 19.0507C19.8431 16.6567 18.2546 15.4165 18.2546 15.4165C18.2546 15.4165 16.1342 13.7758 14.8958 12.0028H14.8967ZM9.48951 18.9778C8.44731 18.7699 8.03241 18.0589 7.98021 17.9374C7.92891 17.8141 7.63281 17.2426 7.78941 16.2697C8.23941 14.8126 9.52371 14.7082 9.52371 14.7082H10.8089V13.1287L11.9024 13.1467V18.9778H9.49041H9.48951ZM13.6205 18.9607C12.5441 18.6835 12.4946 17.9185 12.4946 17.9185V14.8477L13.6205 14.8297V17.5891C13.6898 17.8843 14.0552 17.9374 14.0552 17.9374H15.1991V14.8477H16.3979V18.9607H13.6205ZM20.3291 10.7617C20.3291 10.2307 19.8881 8.63412 18.2546 8.63412C16.6175 8.63412 16.3988 10.1416 16.3988 11.2072C16.3988 12.2242 16.4843 13.6435 18.5174 13.5985C20.5514 13.5535 20.3291 11.2945 20.3291 10.7617Z" fill="#0A0D14" style="fill:#0A0D14;fill:color(display-p3 0.0392 0.0510 0.0784);fill-opacity:1;"/>
</svg>
