<svg width="25" height="24" viewBox="0 0 25 24" fill="none" xmlns="http://www.w3.org/2000/svg">
<path d="M17.7641 11.8273L17.1278 11.191L8.21782 20.101H4.40002V16.2823L14.5817 6.09972L19.673 11.191C19.8417 11.3598 19.9365 11.5887 19.9365 11.8273C19.9365 12.066 19.8417 12.2948 19.673 12.4636L13.31 18.8275L12.0365 17.5549L17.7641 11.8273ZM18.4004 3.55452L20.9465 6.09972C21.1152 6.2685 21.21 6.49738 21.21 6.73602C21.21 6.97467 21.1152 7.20355 20.9465 7.37232L19.673 8.64582L15.8552 4.82712L17.1278 3.55452C17.2966 3.3858 17.5255 3.29102 17.7641 3.29102C18.0028 3.29102 18.2316 3.3858 18.4004 3.55452Z" fill="#0A0D14" style="fill:#0A0D14;fill:color(display-p3 0.0392 0.0510 0.0784);fill-opacity:1;"/>
</svg>
