<svg width="25" height="24" viewBox="0 0 25 24" fill="none" xmlns="http://www.w3.org/2000/svg">
<path d="M3.5 19.2H21.5V21H3.5V19.2ZM5.3 12H7.1V18.3H5.3V12ZM9.8 12H11.6V18.3H9.8V12ZM13.4 12H15.2V18.3H13.4V12ZM17.9 12H19.7V18.3H17.9V12ZM3.5 7.5L12.5 3L21.5 7.5V11.1H3.5V7.5ZM12.5 8.4C12.7387 8.4 12.9676 8.30518 13.1364 8.1364C13.3052 7.96761 13.4 7.73869 13.4 7.5C13.4 7.2613 13.3052 7.03239 13.1364 6.8636C12.9676 6.69482 12.7387 6.6 12.5 6.6C12.2613 6.6 12.0324 6.69482 11.8636 6.8636C11.6948 7.03239 11.6 7.2613 11.6 7.5C11.6 7.73869 11.6948 7.96761 11.8636 8.1364C12.0324 8.30518 12.2613 8.4 12.5 8.4Z" fill="#0A0D14" style="fill:#0A0D14;fill:color(display-p3 0.0392 0.0510 0.0784);fill-opacity:1;"/>
</svg>
