<svg width="25" height="24" viewBox="0 0 25 24" fill="none" xmlns="http://www.w3.org/2000/svg">
<path d="M4.4 3.8999H20.6C20.8387 3.8999 21.0676 3.99472 21.2364 4.16351C21.4052 4.33229 21.5 4.56121 21.5 4.7999V19.1999C21.5 19.4386 21.4052 19.6675 21.2364 19.8363C21.0676 20.0051 20.8387 20.0999 20.6 20.0999H4.4C4.16131 20.0999 3.93239 20.0051 3.7636 19.8363C3.59482 19.6675 3.5 19.4386 3.5 19.1999V4.7999C3.5 4.56121 3.59482 4.33229 3.7636 4.16351C3.93239 3.99472 4.16131 3.8999 4.4 3.8999ZM5.3 5.6999V18.2999H19.7V5.6999H5.3ZM8 12.8999H9.8V16.4999H8V12.8999ZM11.6 7.4999H13.4V16.4999H11.6V7.4999ZM15.2 10.1999H17V16.4999H15.2V10.1999Z" fill="#0A0D14" style="fill:#0A0D14;fill:color(display-p3 0.0392 0.0510 0.0784);fill-opacity:1;"/>
</svg>
