<svg width="25" height="24" viewBox="0 0 25 24" fill="none" xmlns="http://www.w3.org/2000/svg">
<path d="M11.4608 16.3469L12.119 14.8393C12.7048 13.4977 13.7592 12.4297 15.0744 11.8459L16.8862 11.0417C17.4622 10.786 17.4622 9.948 16.8862 9.69232L15.1309 8.9132C13.7819 8.31438 12.7086 7.20685 12.1329 5.81945L11.4661 4.21279C11.2187 3.61657 10.3949 3.61657 10.1475 4.21279L9.4807 5.81943C8.90493 7.20685 7.83165 8.31438 6.48264 8.9132L4.72743 9.69232C4.1514 9.948 4.1514 10.786 4.72743 11.0417L6.53922 11.8459C7.85442 12.4297 8.90878 13.4977 9.49456 14.8393L10.1528 16.3469C10.4058 16.9264 11.2077 16.9264 11.4608 16.3469ZM18.0511 20.0177L18.2362 19.5934C18.5662 18.8369 19.1605 18.2346 19.9021 17.9051L20.4724 17.6517C20.7809 17.5147 20.7809 17.0664 20.4724 16.9294L19.9341 16.6901C19.1734 16.3522 18.5683 15.7276 18.244 14.9454L18.0539 14.4869C17.9214 14.1674 17.4796 14.1674 17.3471 14.4869L17.1571 14.9454C16.8328 15.7276 16.2277 16.3522 15.467 16.6901L14.9286 16.9294C14.6202 17.0664 14.6202 17.5147 14.9286 17.6517L15.4989 17.9051C16.2406 18.2346 16.8349 18.8369 17.1649 19.5934L17.35 20.0177C17.4855 20.3282 17.9155 20.3282 18.0511 20.0177Z" fill="#0A0D14" style="fill:#0A0D14;fill:color(display-p3 0.0392 0.0510 0.0784);fill-opacity:1;"/>
</svg>
