<svg width="25" height="24" viewBox="0 0 25 24" fill="none" xmlns="http://www.w3.org/2000/svg">
<path d="M11.4608 16.3469C11.2077 16.9264 10.4058 16.9264 10.1528 16.3469L9.49456 14.8393C8.90878 13.4977 7.85442 12.4297 6.53922 11.8459L4.72743 11.0417C4.1514 10.786 4.1514 9.948 4.72743 9.69232L6.48264 8.9132C7.83165 8.31438 8.90493 7.20685 9.4807 5.81943L10.1475 4.21279C10.3949 3.61657 11.2187 3.61657 11.4661 4.21279L12.1329 5.81945C12.7086 7.20685 13.7819 8.31438 15.1309 8.9132L16.8862 9.69232C17.4622 9.948 17.4622 10.786 16.8862 11.0417L15.0744 11.8459C13.7592 12.4297 12.7048 13.4977 12.119 14.8393L11.4608 16.3469ZM6.90467 10.367C8.61905 11.128 10.013 12.3788 10.8068 14.0999C11.6006 12.3788 12.9945 11.128 14.7089 10.367C12.9741 9.59692 11.5757 8.2851 10.8068 6.5334C10.0379 8.2851 8.6395 9.59692 6.90467 10.367ZM18.0511 20.0177L18.2362 19.5934C18.5662 18.8369 19.1605 18.2346 19.9021 17.9051L20.4724 17.6517C20.7809 17.5147 20.7809 17.0664 20.4724 16.9294L19.9341 16.6901C19.1734 16.3522 18.5683 15.7276 18.244 14.9454L18.0539 14.4869C17.9214 14.1674 17.4796 14.1674 17.3471 14.4869L17.1571 14.9454C16.8328 15.7276 16.2277 16.3522 15.467 16.6901L14.9286 16.9294C14.6202 17.0664 14.6202 17.5147 14.9286 17.6517L15.4989 17.9051C16.2406 18.2346 16.8349 18.8369 17.1649 19.5934L17.35 20.0177C17.4855 20.3282 17.9155 20.3282 18.0511 20.0177ZM17.2809 17.2854L17.7028 16.8665L18.1159 17.2854L17.7028 17.6926L17.2809 17.2854Z" fill="#0A0D14" style="fill:#0A0D14;fill:color(display-p3 0.0392 0.0510 0.0784);fill-opacity:1;"/>
</svg>
