<svg width="25" height="24" viewBox="0 0 25 24" fill="none" xmlns="http://www.w3.org/2000/svg">
<path d="M7.54372 18.3004H17.4563L16.856 15.6004H8.14402L7.54372 18.3004ZM19.3004 18.3004H20.6V20.1004H4.40002V18.3004H5.69962L8.74342 4.60509C8.78785 4.40523 8.89909 4.2265 9.05879 4.09838C9.21848 3.97026 9.41709 3.90043 9.62182 3.90039H15.3782C15.583 3.90043 15.7816 3.97026 15.9413 4.09838C16.101 4.2265 16.2122 4.40523 16.2566 4.60509L19.3004 18.3004ZM8.54362 13.8004H16.4564L15.6554 10.2004H9.34462L8.54452 13.8004H8.54362ZM9.74422 8.40039H15.2558L14.6564 5.70039H10.3436L9.74422 8.40039Z" fill="#0A0D14" style="fill:#0A0D14;fill:color(display-p3 0.0392 0.0510 0.0784);fill-opacity:1;"/>
</svg>
