<svg width="25" height="24" viewBox="0 0 25 24" fill="none" xmlns="http://www.w3.org/2000/svg">
<path d="M12.5 12.9004L17.9 21.0004H7.10002L12.5 12.9004ZM11.546 10.7044C11.4134 10.5808 11.307 10.4317 11.2332 10.2661C11.1594 10.1005 11.1198 9.92178 11.1166 9.74052C11.1134 9.55925 11.1467 9.3792 11.2146 9.2111C11.2825 9.043 11.3836 8.8903 11.5117 8.76211C11.6399 8.63392 11.7926 8.53286 11.9607 8.46496C12.1288 8.39706 12.3089 8.36372 12.4902 8.36691C12.6714 8.37011 12.8502 8.40979 13.0158 8.48357C13.1814 8.55736 13.3304 8.66374 13.454 8.79638C13.6925 9.05229 13.8223 9.39078 13.8161 9.74052C13.81 10.0903 13.6683 10.424 13.4209 10.6713C13.1736 10.9186 12.8399 11.0603 12.4902 11.0665C12.1404 11.0727 11.8019 10.9428 11.546 10.7044ZM6.45292 3.70508L7.72642 4.97858C6.46071 6.24443 5.74966 7.9612 5.74966 9.75128C5.74966 11.5414 6.46071 13.2581 7.72642 14.524L6.45292 15.7975C5.65884 15.0035 5.02895 14.0609 4.59919 13.0235C4.16944 11.9861 3.94824 10.8742 3.94824 9.75128C3.94824 8.62837 4.16944 7.51646 4.59919 6.47905C5.02895 5.44163 5.65884 4.49904 6.45292 3.70508ZM18.5453 3.70508C19.3394 4.49904 19.9693 5.44163 20.399 6.47905C20.8288 7.51646 21.05 8.62837 21.05 9.75128C21.05 10.8742 20.8288 11.9861 20.399 13.0235C19.9693 14.0609 19.3394 15.0035 18.5453 15.7975L17.2718 14.524C18.5375 13.2581 19.2486 11.5414 19.2486 9.75128C19.2486 7.9612 18.5375 6.24443 17.2718 4.97858L18.5453 3.70508ZM8.99902 6.25028L10.2716 7.52288C9.97908 7.81539 9.74702 8.16265 9.5887 8.54485C9.43038 8.92705 9.34889 9.33669 9.34889 9.75038C9.34889 10.1641 9.43038 10.5737 9.5887 10.9559C9.74702 11.3381 9.97908 11.6854 10.2716 11.9779L8.99902 13.2505C8.07076 12.3222 7.54927 11.0632 7.54927 9.75038C7.54927 8.4376 8.07076 7.17858 8.99902 6.25028ZM15.9992 6.25028C16.9275 7.17858 17.449 8.4376 17.449 9.75038C17.449 11.0632 16.9275 12.3222 15.9992 13.2505L14.7266 11.9779C15.0192 11.6854 15.2512 11.3381 15.4095 10.9559C15.5679 10.5737 15.6493 10.1641 15.6493 9.75038C15.6493 9.33669 15.5679 8.92705 15.4095 8.54485C15.2512 8.16265 15.0192 7.81539 14.7266 7.52288L15.9992 6.25028Z" fill="#0A0D14" style="fill:#0A0D14;fill:color(display-p3 0.0392 0.0510 0.0784);fill-opacity:1;"/>
</svg>
