<svg width="25" height="24" viewBox="0 0 25 24" fill="none" xmlns="http://www.w3.org/2000/svg">
<path d="M12.8294 13.2294L14.4269 14.1519C13.4732 16.2642 13.3729 18.6634 14.147 20.8479C13.6039 20.9495 13.0525 21.0004 12.5 21C11.2247 21.002 9.96366 20.732 8.801 20.208L12.8294 13.2294ZM15.9947 15.0582L19.8053 17.2578C18.8127 18.6356 17.4517 19.7055 15.8786 20.3448C15.2795 18.7271 15.282 16.9478 15.8858 15.3318L15.9947 15.0582ZM9.674 11.4078L11.2715 12.3294L7.2431 19.3044C5.75297 18.2311 4.62579 16.7287 4.0121 14.9979C6.18679 14.5963 8.13683 13.4064 9.4886 11.6562L9.674 11.4078ZM21.4154 10.7544C21.4721 11.1621 21.5009 11.5779 21.5009 12C21.5029 13.2753 21.2329 14.5363 20.7089 15.699L16.8965 13.4985C17.9699 12.0818 19.5301 11.1132 21.2759 10.7796L21.4154 10.7544ZM4.2929 8.30191L8.1044 10.5024C7.00135 11.9581 5.38573 12.9395 3.5855 13.2474C3.52852 12.834 3.49995 12.4173 3.5 12C3.5 10.6815 3.7835 9.42961 4.292 8.30101L4.2929 8.30191ZM17.7578 4.69471C19.2479 5.76798 20.3751 7.27037 20.9888 9.00121C18.8137 9.40361 16.8635 10.5941 15.5114 12.3447L15.3269 12.5931L13.7294 11.6706L17.7578 4.69561V4.69471ZM12.5 3.00001C13.8185 3.00001 15.0704 3.28351 16.199 3.79201L12.1706 10.7706L10.5731 9.84901C11.5273 7.73619 11.6276 5.33627 10.853 3.15121C11.3961 3.04996 11.9475 2.99935 12.5 3.00001ZM9.1223 3.65701C9.72054 5.27502 9.71734 7.05415 9.1133 8.67001L9.0053 8.94271L5.1947 6.74221C6.14891 5.41828 7.44399 4.37762 8.9423 3.73081L9.1223 3.65611V3.65701Z" fill="#0A0D14" style="fill:#0A0D14;fill:color(display-p3 0.0392 0.0510 0.0784);fill-opacity:1;"/>
</svg>
