<svg width="25" height="24" viewBox="0 0 25 24" fill="none" xmlns="http://www.w3.org/2000/svg">
<path d="M12.5 3C17.4707 3 21.5 7.0293 21.5 12C21.5 16.9707 17.4707 21 12.5 21C7.5293 21 3.5 16.9707 3.5 12C3.5 7.0293 7.5293 3 12.5 3ZM12.8294 13.2294L9.7073 18.6384C10.9745 19.1686 12.3662 19.3278 13.7204 19.0974C13.4812 17.4156 13.726 15.7005 14.426 14.1528L12.8294 13.2294ZM15.9956 15.0573C15.5286 16.1628 15.3469 17.3679 15.4673 18.5619C16.5597 18.0666 17.5114 17.3069 18.2366 16.3515L15.9956 15.0573ZM9.6731 11.4078C8.68274 12.788 7.32022 13.858 5.7446 14.493C6.22061 15.7811 7.05462 16.9064 8.1485 17.7366L11.2706 12.3294L9.6731 11.4078ZM19.6658 11.2908L19.4336 11.3988C18.4358 11.8917 17.5667 12.6107 16.8956 13.4985L19.1384 14.7936C19.6042 13.6881 19.7856 12.4835 19.6658 11.2899V11.2908ZM5.3 12C5.3 12.2394 5.3117 12.477 5.3342 12.7101C6.42815 12.2178 7.38075 11.4583 8.1044 10.5015L5.8616 9.2073C5.4897 10.0913 5.29874 11.0409 5.3 12ZM16.8515 6.2634L13.7294 11.6706L15.3269 12.5931C16.3173 11.2121 17.6801 10.1414 19.2563 9.5061C18.8138 8.31112 18.0626 7.25469 17.0792 6.4443L16.8515 6.2634ZM12.5 4.8C12.0833 4.8 11.6756 4.836 11.2787 4.9035C11.5183 6.58526 11.2735 8.30048 10.5731 9.8481L12.1706 10.7706L15.2927 5.3616C14.4087 4.9897 13.4591 4.79874 12.5 4.8ZM9.5327 5.439L9.3608 5.5182C8.33975 6.01451 7.44993 6.74431 6.7634 7.6485L9.0044 8.9427C9.47125 7.8375 9.65291 6.63272 9.5327 5.439Z" fill="#0A0D14" style="fill:#0A0D14;fill:color(display-p3 0.0392 0.0510 0.0784);fill-opacity:1;"/>
</svg>
