<svg width="25" height="24" viewBox="0 0 25 24" fill="none" xmlns="http://www.w3.org/2000/svg">
<path d="M4.4 5.7002H18.8C19.0387 5.7002 19.2676 5.79502 19.4364 5.9638C19.6052 6.13258 19.7 6.3615 19.7 6.6002V17.4002C19.7 17.6389 19.6052 17.8678 19.4364 18.0366C19.2676 18.2054 19.0387 18.3002 18.8 18.3002H4.4C4.16131 18.3002 3.93239 18.2054 3.7636 18.0366C3.59482 17.8678 3.5 17.6389 3.5 17.4002V6.6002C3.5 6.3615 3.59482 6.13258 3.7636 5.9638C3.93239 5.79502 4.16131 5.7002 4.4 5.7002ZM6.2 8.4002V15.6002H9.8V8.4002H6.2ZM20.6 9.3002H22.4V14.7002H20.6V9.3002Z" fill="#0A0D14" style="fill:#0A0D14;fill:color(display-p3 0.0392 0.0510 0.0784);fill-opacity:1;"/>
</svg>
