<svg width="25" height="24" viewBox="0 0 25 24" fill="none" xmlns="http://www.w3.org/2000/svg">
<path d="M9.8 4.8V3.9C9.8 3.66131 9.89482 3.43239 10.0636 3.2636C10.2324 3.09482 10.4613 3 10.7 3H14.3C14.5387 3 14.7676 3.09482 14.9364 3.2636C15.1052 3.43239 15.2 3.66131 15.2 3.9V4.8H17.9C18.1387 4.8 18.3676 4.89482 18.5364 5.0636C18.7052 5.23239 18.8 5.46131 18.8 5.7V20.1C18.8 20.3387 18.7052 20.5676 18.5364 20.7364C18.3676 20.9052 18.1387 21 17.9 21H7.1C6.8613 21 6.63238 20.9052 6.4636 20.7364C6.29482 20.5676 6.2 20.3387 6.2 20.1V5.7C6.2 5.46131 6.29482 5.23239 6.4636 5.0636C6.63238 4.89482 6.8613 4.8 7.1 4.8H9.8Z" fill="#0A0D14" style="fill:#0A0D14;fill:color(display-p3 0.0392 0.0510 0.0784);fill-opacity:1;"/>
</svg>
