<svg width="25" height="24" viewBox="0 0 25 24" fill="none" xmlns="http://www.w3.org/2000/svg">
<path d="M17.45 3C18.2752 3.00006 19.0806 3.25218 19.7586 3.72262C20.4365 4.19305 20.9546 4.85935 21.2435 5.63232C21.5323 6.40529 21.5782 7.24806 21.3749 8.0478C21.1716 8.84754 20.7288 9.5661 20.1059 10.1073C20.4254 10.9776 20.6 11.919 20.6 12.9C20.5993 14.0834 20.3394 15.2523 19.8384 16.3244C19.3375 17.3966 18.6076 18.3459 17.7003 19.1057C16.793 19.8654 15.7303 20.4172 14.5868 20.722C13.4434 21.0269 12.247 21.0776 11.0819 20.8704C9.91676 20.6632 8.81119 20.2032 7.84294 19.5228C6.87469 18.8424 6.06728 17.9582 5.47753 16.9322C4.88777 15.9062 4.52999 14.7635 4.42934 13.5843C4.3287 12.4052 4.48765 11.2184 4.895 10.1073C4.45408 9.72414 4.10126 9.25012 3.86075 8.71779C3.62025 8.18545 3.49774 7.60738 3.50165 7.02325C3.50555 6.43912 3.63577 5.86274 3.88336 5.33366C4.13096 4.80459 4.49008 4.33533 4.93608 3.95809C5.38208 3.58085 5.90441 3.30456 6.46723 3.14816C7.03005 2.99177 7.62005 2.95897 8.19673 3.05203C8.77342 3.14508 9.32315 3.36179 9.80821 3.68728C10.2933 4.01276 10.7022 4.43932 11.0069 4.9377C11.9944 4.75345 13.0074 4.75345 13.9949 4.9377C14.3563 4.34552 14.8639 3.85624 15.469 3.5169C16.0741 3.17756 16.7563 2.99956 17.45 3ZM10.7 12.9H8.9C8.89998 13.8392 9.26701 14.7412 9.92276 15.4136C10.5785 16.086 11.4711 16.4754 12.41 16.4989C13.3489 16.5224 14.2598 16.1781 14.9483 15.5393C15.6369 14.9006 16.0486 14.018 16.0955 13.08L16.1 12.9H14.3C14.3021 13.3671 14.1225 13.8167 13.7993 14.1538C13.476 14.491 13.0343 14.6893 12.5676 14.7068C12.1008 14.7243 11.6455 14.5597 11.2979 14.2478C10.9502 13.9358 10.7374 13.5009 10.7045 13.035L10.7 12.9Z" fill="#0A0D14" style="fill:#0A0D14;fill:color(display-p3 0.0392 0.0510 0.0784);fill-opacity:1;"/>
</svg>
