<svg width="25" height="24" viewBox="0 0 25 24" fill="none" xmlns="http://www.w3.org/2000/svg">
<path d="M17.45 3C18.2752 3.00006 19.0806 3.25218 19.7586 3.72262C20.4365 4.19305 20.9546 4.85935 21.2435 5.63232C21.5323 6.40529 21.5782 7.24806 21.3749 8.0478C21.1716 8.84754 20.7288 9.5661 20.1059 10.1073C20.4254 10.9776 20.6 11.919 20.6 12.9C20.5993 14.0834 20.3394 15.2523 19.8384 16.3244C19.3375 17.3966 18.6076 18.3459 17.7003 19.1057C16.793 19.8654 15.7303 20.4172 14.5868 20.722C13.4434 21.0269 12.247 21.0776 11.0819 20.8704C9.91676 20.6632 8.81119 20.2032 7.84294 19.5228C6.87469 18.8424 6.06728 17.9582 5.47753 16.9322C4.88777 15.9062 4.52999 14.7635 4.42934 13.5843C4.3287 12.4052 4.48765 11.2184 4.895 10.1073C4.45408 9.72414 4.10126 9.25012 3.86075 8.71779C3.62025 8.18545 3.49774 7.60738 3.50165 7.02325C3.50555 6.43912 3.63577 5.86274 3.88336 5.33366C4.13096 4.80459 4.49008 4.33533 4.93608 3.95809C5.38208 3.58085 5.90441 3.30456 6.46723 3.14816C7.03005 2.99177 7.62005 2.95897 8.19673 3.05203C8.77342 3.14508 9.32315 3.36179 9.80821 3.68728C10.2933 4.01276 10.7022 4.43932 11.0069 4.9377C11.9944 4.75345 13.0074 4.75345 13.9949 4.9377C14.3563 4.34552 14.8639 3.85624 15.469 3.5169C16.0741 3.17756 16.7563 2.99956 17.45 3ZM17.45 4.8C16.7093 4.8 16.0325 5.16 15.6158 5.7468L15.5303 5.8764L14.8841 6.9348L13.6646 6.7071C12.9915 6.58151 12.3025 6.56571 11.6243 6.6603L11.3399 6.7071L10.1195 6.9366L9.4715 5.8782C9.30592 5.60699 9.08476 5.37392 8.8226 5.19435C8.56044 5.01478 8.26321 4.89277 7.95049 4.83637C7.63777 4.77996 7.31665 4.79044 7.00828 4.8671C6.6999 4.94377 6.41125 5.08488 6.16135 5.28115C5.91145 5.47743 5.70596 5.72441 5.5584 6.00584C5.41084 6.28727 5.32457 6.59676 5.30527 6.91394C5.28596 7.23112 5.33406 7.54879 5.44639 7.84604C5.55872 8.14328 5.73275 8.41337 5.957 8.6385L6.0749 8.7492L7.0118 9.5628L6.5843 10.7283C6.2678 11.5924 6.14446 12.5154 6.22296 13.4323C6.30146 14.3493 6.57988 15.2379 7.03865 16.0356C7.49742 16.8334 8.1254 17.521 8.87842 18.05C9.63144 18.579 10.4912 18.9366 11.3973 19.0977C12.3033 19.2588 13.2337 19.2194 14.1229 18.9823C15.0121 18.7453 15.8386 18.3163 16.5442 17.7255C17.2499 17.1348 17.8175 16.3966 18.2072 15.5629C18.5969 14.7292 18.7993 13.8203 18.8 12.9C18.8 12.2556 18.7037 11.6256 18.5174 11.0253L18.4166 10.7283L17.9891 9.5628L18.9251 8.7492C19.2714 8.44862 19.5176 8.0494 19.6307 7.60501C19.7438 7.16062 19.7185 6.69228 19.558 6.26271C19.3975 5.83314 19.1097 5.46285 18.7329 5.20143C18.3562 4.94002 17.9086 4.79995 17.45 4.8ZM10.7 12.9C10.7 13.3774 10.8896 13.8352 11.2272 14.1728C11.5648 14.5104 12.0226 14.7 12.5 14.7C12.9774 14.7 13.4352 14.5104 13.7728 14.1728C14.1104 13.8352 14.3 13.3774 14.3 12.9H16.1C16.1 13.8548 15.7207 14.7705 15.0456 15.4456C14.3705 16.1207 13.4548 16.5 12.5 16.5C11.5452 16.5 10.6295 16.1207 9.95441 15.4456C9.27928 14.7705 8.9 13.8548 8.9 12.9H10.7Z" fill="#0A0D14" style="fill:#0A0D14;fill:color(display-p3 0.0392 0.0510 0.0784);fill-opacity:1;"/>
</svg>
