<svg width="25" height="24" viewBox="0 0 25 24" fill="none" xmlns="http://www.w3.org/2000/svg">
<path d="M10.25 5.25C11.0785 5.25 11.75 5.92157 11.75 6.75C11.75 6.83602 11.7428 6.91979 11.7292 7.00091L13.2085 7.24909C13.2359 7.0863 13.25 6.91951 13.25 6.75C13.25 6.57188 13.2345 6.39738 13.2047 6.22778C13.4354 6.08316 13.7077 6 14 6C14.8285 6 15.5 6.67157 15.5 7.5C15.5 7.77332 15.4272 8.02928 15.2995 8.25H7.25C6.83579 8.25 6.5 7.91421 6.5 7.5C6.5 7.08579 6.83579 6.75 7.25 6.75C7.40006 6.75 7.53771 6.7933 7.65388 6.86782C7.85895 6.99937 8.11515 7.02311 8.3409 6.93149C8.56665 6.83986 8.73384 6.64429 8.78922 6.40702C8.94407 5.7436 9.54031 5.25 10.25 5.25ZM11.3873 3.97309C11.0367 3.82931 10.6527 3.75 10.25 3.75C9.12565 3.75 8.1468 4.36807 7.63301 5.28258C7.5084 5.26116 7.3804 5.25 7.25 5.25C6.00736 5.25 5 6.25736 5 7.5C5 8.16638 5.28969 8.76509 5.75 9.17708V18C5.75 18.8285 6.42157 19.5 7.25 19.5H14.75C15.5785 19.5 16.25 18.8285 16.25 18H17.75C18.5785 18 19.25 17.3285 19.25 16.5V11.25C19.25 10.4216 18.5785 9.75 17.75 9.75H16.25V9.48431C16.7161 8.95599 17 8.26079 17 7.5C17 5.84314 15.6568 4.5 14 4.5C13.4857 4.5 13.0013 4.62976 12.5782 4.85787C12.2638 4.47151 11.8552 4.1649 11.3873 3.97309ZM16.25 16.5V11.25H17.75V16.5H16.25ZM8.75 11.25H10.25V16.5H8.75V11.25ZM11.75 11.25H13.25V16.5H11.75V11.25Z" fill="#0A0D14" style="fill:#0A0D14;fill:color(display-p3 0.0392 0.0510 0.0784);fill-opacity:1;"/>
</svg>
