<svg width="25" height="24" viewBox="0 0 25 24" fill="none" xmlns="http://www.w3.org/2000/svg">
<path d="M8.39871 6.01562C8.97381 6.01562 9.50571 6.06062 9.99171 6.19382C10.4327 6.27487 10.8537 6.44117 11.231 6.68343C11.5856 6.90573 11.8511 7.21803 12.0275 7.61853C12.2048 8.01903 12.293 8.50953 12.293 9.04323C12.293 9.66692 12.1607 10.2006 11.8511 10.6011C11.5856 11.0025 11.1428 11.358 10.6118 11.6253C11.3642 11.8485 11.9393 12.249 12.293 12.7827C12.6476 13.3173 12.869 13.9851 12.869 14.742C12.869 15.3657 12.7358 15.8994 12.5144 16.3449C12.293 16.7904 11.9393 17.1909 11.5406 17.4582C11.1075 17.7447 10.6288 17.9554 10.1249 18.081C9.59391 18.2151 9.06291 18.3042 8.53191 18.3042H2.60001V6.01562H8.39871ZM8.04411 11.0016C8.53101 11.0016 8.92971 10.8684 9.23931 10.6461C9.54891 10.4238 9.68211 10.0224 9.68211 9.53283C9.68211 9.26553 9.63711 8.99823 9.54891 8.82093C9.46071 8.64273 9.32751 8.50863 9.15111 8.37543C8.97381 8.28633 8.79651 8.19723 8.57511 8.15313C8.35371 8.10812 8.13321 8.10813 7.86681 8.10813H5.30001V11.0025H8.04501L8.04411 11.0016ZM8.17731 16.2558C8.44281 16.2558 8.70831 16.2108 8.92971 16.1667C9.15324 16.1242 9.36466 16.033 9.54891 15.8994C9.72925 15.7691 9.88013 15.6023 9.99171 15.4098C10.0799 15.1875 10.169 14.9202 10.169 14.6088C10.169 13.9851 9.99171 13.5396 9.63801 13.2282C9.28341 12.9609 8.79651 12.8277 8.22141 12.8277H5.30001V16.2567H8.17731V16.2558ZM16.7201 16.2108C17.0738 16.5672 17.6048 16.7454 18.3131 16.7454C18.8 16.7454 19.2428 16.6122 19.5965 16.3899C19.9511 16.1226 20.1725 15.8553 20.2607 15.588H22.4297C22.0751 16.6563 21.5441 17.4132 20.8367 17.9028C20.1275 18.3483 19.2869 18.6156 18.269 18.6156C17.6177 18.6176 16.9719 18.4967 16.3655 18.2592C15.8198 18.0545 15.3332 17.7181 14.9489 17.28C14.5379 16.8701 14.234 16.3654 14.0642 15.8103C13.8428 15.2316 13.7537 14.6088 13.7537 13.896C13.7537 13.2282 13.8428 12.6054 14.0642 12.0258C14.2771 11.4679 14.592 10.9545 14.993 10.512C15.3917 10.1115 15.8786 9.75603 16.4096 9.53283C17.0006 9.29528 17.632 9.17426 18.269 9.17643C19.0214 9.17643 19.6856 9.31053 20.2607 9.62193C20.8367 9.93333 21.2786 10.2897 21.6332 10.8243C21.9949 11.3378 22.2645 11.9104 22.4297 12.5163C22.5179 13.1391 22.562 13.7628 22.5179 14.4747H16.1C16.1 15.1875 16.3655 15.8553 16.7201 16.2117V16.2108ZM19.5083 11.5362C19.1987 11.2248 18.7118 11.0466 18.1358 11.0466C17.738 11.0466 17.4275 11.1357 17.162 11.2689C16.8965 11.403 16.7201 11.5812 16.5428 11.7594C16.3799 11.9316 16.2721 12.1484 16.2332 12.3822C16.1882 12.6054 16.1441 12.7827 16.1441 12.9609H20.1275C20.0393 12.2931 19.8179 11.8485 19.5083 11.5362ZM15.6131 6.86163H20.5703V8.06403H15.614V6.86163H15.6131Z" fill="#0A0D14" style="fill:#0A0D14;fill:color(display-p3 0.0392 0.0510 0.0784);fill-opacity:1;"/>
</svg>
