<svg width="25" height="24" viewBox="0 0 25 24" fill="none" xmlns="http://www.w3.org/2000/svg">
<path d="M8.45001 11.0992C8.9274 11.0992 9.38523 10.9096 9.7228 10.572C10.0604 10.2344 10.25 9.77661 10.25 9.29922C10.25 8.82183 10.0604 8.36399 9.7228 8.02643C9.38523 7.68886 8.9274 7.49922 8.45001 7.49922H4.40001V11.0992H8.45001ZM9.35001 12.8992H4.40001V16.4992H9.35001C9.8274 16.4992 10.2852 16.3096 10.6228 15.972C10.9604 15.6344 11.15 15.1766 11.15 14.6992C11.15 14.2218 10.9604 13.764 10.6228 13.4264C10.2852 13.0889 9.8274 12.8992 9.35001 12.8992ZM11.2067 11.614C11.8813 12.0196 12.4043 12.6352 12.6958 13.3664C12.9872 14.0976 13.0309 14.9042 12.8203 15.6626C12.6096 16.421 12.1562 17.0895 11.5295 17.5657C10.9027 18.0419 10.1371 18.2996 9.35001 18.2992H2.60001V5.69922H8.45001C9.13533 5.6993 9.8064 5.895 10.3843 6.26331C10.9623 6.63163 11.4231 7.15726 11.7126 7.77843C12.0021 8.39961 12.1083 9.09052 12.0187 9.76996C11.9291 10.4494 11.6474 11.0891 11.2067 11.614ZM15.65 6.59922H20.6V7.94922H15.65V6.59922ZM22.4 14.2492H15.65V14.4742C15.6498 15.0302 15.8368 15.57 16.1808 16.0067C16.5249 16.4435 17.006 16.7516 17.5465 16.8816C18.0871 17.0115 18.6557 16.9557 19.1606 16.723C19.6656 16.4904 20.0775 16.0945 20.33 15.5992H22.2506C21.9764 16.5967 21.35 17.4609 20.4874 18.0319C19.6247 18.6028 18.5844 18.8418 17.5591 18.7045C16.5338 18.5672 15.593 18.0629 14.911 17.2851C14.2291 16.5073 13.8521 15.5087 13.85 14.4742V13.1242C13.85 11.9904 14.3004 10.9031 15.1021 10.1013C15.9038 9.29962 16.9912 8.84922 18.125 8.84922C19.2588 8.84922 20.3462 9.29962 21.1479 10.1013C21.9496 10.9031 22.4 11.9904 22.4 13.1242V14.2492ZM20.5064 12.4492C20.359 11.9313 20.0468 11.4755 19.6171 11.1509C19.1874 10.8264 18.6635 10.6508 18.125 10.6508C17.5865 10.6508 17.0627 10.8264 16.6329 11.1509C16.2032 11.4755 15.891 11.9313 15.7436 12.4492H20.5064Z" fill="#0A0D14" style="fill:#0A0D14;fill:color(display-p3 0.0392 0.0510 0.0784);fill-opacity:1;"/>
</svg>
