<svg width="25" height="24" viewBox="0 0 25 24" fill="none" xmlns="http://www.w3.org/2000/svg">
<path d="M14.4089 10.0901C18.2753 13.9556 20.555 17.9453 19.5002 19.0001C19.0727 19.4267 18.1628 19.3061 16.9739 18.7544C15.5442 19.7 13.8515 20.1681 12.139 20.0915C10.4265 20.0148 8.78245 19.3973 7.4429 18.3278L7.4087 18.3638L6.1361 17.0903L6.1703 17.0543C5.10134 15.7149 4.48439 14.0712 4.40807 12.3592C4.33175 10.6472 4.79998 8.95514 5.7455 7.52595C5.1929 6.33615 5.0723 5.42625 5.4998 4.99875C6.515 3.98355 10.2491 6.05805 13.9751 9.66255L14.4089 10.0901ZM13.1363 11.3627C11.4407 9.66705 9.683 8.25675 8.2124 7.38195L8.045 7.54395C6.97394 8.61531 6.32467 10.0366 6.21608 11.5477C6.10749 13.0587 6.54685 14.5583 7.4537 15.7718L9.1151 14.1104C9.01264 13.7277 9.03928 13.3219 9.1909 12.9559C9.34251 12.5899 9.61064 12.2841 9.95371 12.086C10.2968 11.8879 10.6956 11.8085 11.0884 11.8601C11.4812 11.9117 11.846 12.0915 12.1262 12.3715C12.4064 12.6516 12.5864 13.0162 12.6383 13.409C12.6902 13.8017 12.6111 14.2006 12.4133 14.5438C12.2154 14.887 11.9098 15.1554 11.5439 15.3072C11.178 15.4591 10.7723 15.486 10.3895 15.3839L8.7263 17.0453C9.93988 17.9524 11.4396 18.3919 12.9509 18.2833C14.4621 18.1747 15.8836 17.5252 16.955 16.454L17.1161 16.2848L17.0684 16.2047C16.19 14.7512 14.8004 13.0277 13.1363 11.3627ZM19.5002 4.99875C19.6793 5.17771 19.8186 5.39242 19.909 5.62886C19.9994 5.86531 20.039 6.11817 20.025 6.37094C20.0111 6.62371 19.944 6.87069 19.8282 7.09577C19.7123 7.32085 19.5502 7.51895 19.3526 7.67715C20.0519 8.78753 20.4714 10.0509 20.5751 11.3591C20.6789 12.6672 20.4638 13.9809 19.9484 15.1877C19.577 14.4701 19.1604 13.7769 18.701 13.1123C18.8814 12.1121 18.8168 11.0831 18.5127 10.1134C18.2086 9.14367 17.6742 8.26204 16.955 7.54395C16.2368 6.82492 15.3552 6.29053 14.3855 5.98647C13.4158 5.68241 12.3869 5.61772 11.3867 5.79795C10.7222 5.33841 10.0289 4.92176 9.3113 4.55055C10.5184 4.03501 11.8325 3.81999 13.1409 3.92392C14.4494 4.02784 15.7131 4.44763 16.8236 5.14725C16.9817 4.94984 17.1797 4.78798 17.4046 4.67221C17.6295 4.55644 17.8762 4.48936 18.1287 4.47535C18.3813 4.46134 18.6339 4.50071 18.8703 4.59089C19.1066 4.68108 19.3212 4.82005 19.5002 4.99875Z" fill="#0A0D14" style="fill:#0A0D14;fill:color(display-p3 0.0392 0.0510 0.0784);fill-opacity:1;"/>
</svg>
