<svg width="25" height="24" viewBox="0 0 25 24" fill="none" xmlns="http://www.w3.org/2000/svg">
<path d="M13.7726 10.7254L14.2046 11.1628L14.6231 11.5993L15.0362 12.0421C18.1484 15.4297 19.961 18.5383 19.1825 19.3168C18.8225 19.6768 17.9621 19.4824 16.8065 18.8605C15.3831 19.753 13.7176 20.1811 12.0403 20.0857C10.363 19.9902 8.75674 19.3759 7.4438 18.3277L10.1258 15.6457C10.5027 15.7465 10.9021 15.7222 11.2639 15.5763C11.6257 15.4305 11.9303 15.171 12.1319 14.8371C12.3335 14.5031 12.4211 14.1126 12.3816 13.7245C12.3421 13.3364 12.1776 12.9717 11.9128 12.6852C11.6481 12.3987 11.2974 12.206 10.9136 12.136C10.5298 12.0661 10.1337 12.1227 9.78489 12.2974C9.43608 12.4721 9.15346 12.7554 8.97958 13.1046C8.8057 13.4538 8.74998 13.85 8.8208 14.2336L8.8523 14.3731L6.1712 17.0551C5.12275 15.742 4.50829 14.1354 4.41284 12.4578C4.31739 10.7801 4.74566 9.11426 5.6384 7.69065C5.0156 6.53595 4.8212 5.67645 5.1812 5.31555C6.0605 4.43715 9.9062 6.85905 13.7726 10.7245V10.7254ZM19.5002 4.99785C19.6792 5.1768 19.8185 5.39151 19.909 5.62796C19.9994 5.86441 20.039 6.11727 20.025 6.37004C20.0111 6.6228 19.944 6.86979 19.8281 7.09487C19.7123 7.31994 19.5502 7.51805 19.3526 7.67625C20.0628 8.80423 20.4842 10.0898 20.5795 11.4194C20.6748 12.749 20.441 14.0815 19.8989 15.2992C18.8288 13.5406 17.1359 11.5426 15.0452 9.45285L14.5619 8.97405C12.6467 7.10295 10.8215 5.58645 9.1997 4.60005C10.4176 4.05775 11.7503 3.82391 13.08 3.91919C14.4097 4.01447 15.6955 4.43595 16.8236 5.14635C16.9817 4.94894 17.1797 4.78708 17.4046 4.67131C17.6294 4.55554 17.8762 4.48846 18.1287 4.47445C18.3813 4.46044 18.6339 4.49981 18.8702 4.58999C19.1066 4.68017 19.3212 4.81915 19.5002 4.99785Z" fill="#0A0D14" style="fill:#0A0D14;fill:color(display-p3 0.0392 0.0510 0.0784);fill-opacity:1;"/>
</svg>
