<svg width="25" height="24" viewBox="0 0 25 24" fill="none" xmlns="http://www.w3.org/2000/svg">
<path d="M6.65001 12.0006H5.30001V7.50061H3.50001V5.70061H8.90001V7.50061H7.10001V10.0161L15.9317 7.65001L15.4097 5.70061H12.5V3.90061H16.0802C16.2817 3.89616 16.4788 3.95947 16.6401 4.08039C16.8013 4.20131 16.9173 4.37284 16.9694 4.56751L18.3671 9.78391L16.6283 10.2492L16.3979 9.38881L6.65001 12.0006ZM6.20001 18.3006C6.6774 18.3006 7.13523 18.111 7.4728 17.7734C7.81036 17.4358 8.00001 16.978 8.00001 16.5006C8.00001 16.0232 7.81036 15.5654 7.4728 15.2278C7.13523 14.8903 6.6774 14.7006 6.20001 14.7006C5.72262 14.7006 5.26478 14.8903 4.92721 15.2278C4.58965 15.5654 4.40001 16.0232 4.40001 16.5006C4.40001 16.978 4.58965 17.4358 4.92721 17.7734C5.26478 18.111 5.72262 18.3006 6.20001 18.3006ZM6.20001 20.1006C5.24523 20.1006 4.32955 19.7213 3.65442 19.0462C2.97929 18.3711 2.60001 17.4554 2.60001 16.5006C2.60001 15.5458 2.97929 14.6302 3.65442 13.955C4.32955 13.2799 5.24523 12.9006 6.20001 12.9006C7.15479 12.9006 8.07046 13.2799 8.74559 13.955C9.42072 14.6302 9.80001 15.5458 9.80001 16.5006C9.80001 17.4554 9.42072 18.3711 8.74559 19.0462C8.07046 19.7213 7.15479 20.1006 6.20001 20.1006ZM17.9 18.3006C18.6161 18.3006 19.3028 18.0161 19.8092 17.5098C20.3155 17.0035 20.6 16.3167 20.6 15.6006C20.6 14.8845 20.3155 14.1978 19.8092 13.6914C19.3028 13.1851 18.6161 12.9006 17.9 12.9006C17.1839 12.9006 16.4972 13.1851 15.9908 13.6914C15.4845 14.1978 15.2 14.8845 15.2 15.6006C15.2 16.3167 15.4845 17.0035 15.9908 17.5098C16.4972 18.0161 17.1839 18.3006 17.9 18.3006ZM17.9 20.1006C16.7065 20.1006 15.5619 19.6265 14.718 18.7826C13.8741 17.9387 13.4 16.7941 13.4 15.6006C13.4 14.4071 13.8741 13.2625 14.718 12.4186C15.5619 11.5747 16.7065 11.1006 17.9 11.1006C19.0935 11.1006 20.2381 11.5747 21.082 12.4186C21.9259 13.2625 22.4 14.4071 22.4 15.6006C22.4 16.7941 21.9259 17.9387 21.082 18.7826C20.2381 19.6265 19.0935 20.1006 17.9 20.1006Z" fill="#0A0D14" style="fill:#0A0D14;fill:color(display-p3 0.0392 0.0510 0.0784);fill-opacity:1;"/>
</svg>
