<svg width="25" height="24" viewBox="0 0 25 24" fill="none" xmlns="http://www.w3.org/2000/svg">
<path d="M6.65001 12.0006H5.30001V7.50061H3.50001V5.70061H8.90001V7.50061H7.10001V10.0161L15.9317 7.65001L15.4097 5.70061H12.5V3.90061H16.0802C16.2817 3.89616 16.4788 3.95947 16.6401 4.08039C16.8013 4.20131 16.9173 4.37284 16.9694 4.56751L18.3671 9.78391L16.6283 10.2492L16.3979 9.38881L6.65001 12.0006ZM6.20001 20.1006C5.24523 20.1006 4.32955 19.7213 3.65442 19.0462C2.97929 18.3711 2.60001 17.4554 2.60001 16.5006C2.60001 15.5458 2.97929 14.6302 3.65442 13.955C4.32955 13.2799 5.24523 12.9006 6.20001 12.9006C7.15479 12.9006 8.07046 13.2799 8.74559 13.955C9.42072 14.6302 9.80001 15.5458 9.80001 16.5006C9.80001 17.4554 9.42072 18.3711 8.74559 19.0462C8.07046 19.7213 7.15479 20.1006 6.20001 20.1006ZM6.20001 17.4006C6.4387 17.4006 6.66762 17.3058 6.8364 17.137C7.00518 16.9682 7.10001 16.7393 7.10001 16.5006C7.10001 16.2619 7.00518 16.033 6.8364 15.8642C6.66762 15.6954 6.4387 15.6006 6.20001 15.6006C5.96131 15.6006 5.73239 15.6954 5.56361 15.8642C5.39483 16.033 5.30001 16.2619 5.30001 16.5006C5.30001 16.7393 5.39483 16.9682 5.56361 17.137C5.73239 17.3058 5.96131 17.4006 6.20001 17.4006ZM17.9 20.1006C16.7065 20.1006 15.5619 19.6265 14.718 18.7826C13.8741 17.9387 13.4 16.7941 13.4 15.6006C13.4 14.4071 13.8741 13.2625 14.718 12.4186C15.5619 11.5747 16.7065 11.1006 17.9 11.1006C19.0935 11.1006 20.2381 11.5747 21.082 12.4186C21.9259 13.2625 22.4 14.4071 22.4 15.6006C22.4 16.7941 21.9259 17.9387 21.082 18.7826C20.2381 19.6265 19.0935 20.1006 17.9 20.1006ZM17.9 16.5006C18.1387 16.5006 18.3676 16.4058 18.5364 16.237C18.7052 16.0682 18.8 15.8393 18.8 15.6006C18.8 15.3619 18.7052 15.133 18.5364 14.9642C18.3676 14.7954 18.1387 14.7006 17.9 14.7006C17.6613 14.7006 17.4324 14.7954 17.2636 14.9642C17.0948 15.133 17 15.3619 17 15.6006C17 15.8393 17.0948 16.0682 17.2636 16.237C17.4324 16.4058 17.6613 16.5006 17.9 16.5006Z" fill="#0A0D14" style="fill:#0A0D14;fill:color(display-p3 0.0392 0.0510 0.0784);fill-opacity:1;"/>
</svg>
