<svg width="25" height="24" viewBox="0 0 25 24" fill="none" xmlns="http://www.w3.org/2000/svg">
<path d="M18.1007 3.97708C18.2052 4.08155 18.2881 4.20559 18.3446 4.3421C18.4012 4.47861 18.4303 4.62492 18.4303 4.77268C18.4303 4.92045 18.4012 5.06676 18.3446 5.20327C18.2881 5.33978 18.2052 5.46381 18.1007 5.56828L17.072 6.59608H18.125C18.5683 6.59608 19.0072 6.68341 19.4168 6.85308C19.8263 7.02274 20.1984 7.27142 20.5118 7.58492C20.8252 7.89841 21.0738 8.27057 21.2434 8.68015C21.4129 9.08973 21.5001 9.5287 21.5 9.97198V16.722C21.5 17.6171 21.1444 18.4755 20.5115 19.1085C19.8785 19.7414 19.0201 20.097 18.125 20.097H6.875C5.97989 20.097 5.12145 19.7414 4.48851 19.1085C3.85558 18.4755 3.5 17.6171 3.5 16.722V9.97198C3.5 9.07688 3.85558 8.21843 4.48851 7.5855C5.12145 6.95256 5.97989 6.59698 6.875 6.59698H7.9244L6.8975 5.56918C6.79002 5.46544 6.70428 5.34132 6.64528 5.20409C6.58628 5.06685 6.55521 4.91923 6.55387 4.76986C6.55253 4.62048 6.58095 4.47233 6.63748 4.33406C6.69401 4.19579 6.7775 4.07015 6.8831 3.9645C6.9887 3.85884 7.11429 3.77527 7.25253 3.71866C7.39077 3.66206 7.5389 3.63355 7.68828 3.63481C7.83766 3.63606 7.98529 3.66705 8.12256 3.72597C8.25983 3.7849 8.38399 3.87056 8.4878 3.97798L10.8746 6.36478C10.9457 6.43588 11.0051 6.51328 11.0528 6.59608H13.9445C13.9922 6.51328 14.0525 6.43408 14.1236 6.36388L16.5095 3.97708C16.614 3.87259 16.738 3.78969 16.8745 3.73314C17.011 3.67658 17.1573 3.64747 17.3051 3.64747C17.4529 3.64747 17.5992 3.67658 17.7357 3.73314C17.8722 3.78969 17.9962 3.87259 18.1007 3.97708ZM18.125 8.85508H6.875C6.59105 8.85498 6.31756 8.96225 6.1094 9.15539C5.90125 9.34852 5.77383 9.61322 5.7527 9.89638L5.75 9.98098V16.731C5.75 17.3241 6.209 17.8101 6.7913 17.8524L6.875 17.856H18.125C18.409 17.8561 18.6824 17.7488 18.8906 17.5557C19.0988 17.3626 19.2262 17.0979 19.2473 16.8147L19.25 16.731V9.98098C19.25 9.35998 18.746 8.85598 18.125 8.85598V8.85508ZM9.125 11.1051C9.746 11.1051 10.25 11.6091 10.25 12.2301V13.3551C10.25 13.6535 10.1315 13.9396 9.9205 14.1506C9.70952 14.3616 9.42337 14.4801 9.125 14.4801C8.82663 14.4801 8.54048 14.3616 8.3295 14.1506C8.11853 13.9396 8 13.6535 8 13.3551V12.2301C8 11.6091 8.504 11.1051 9.125 11.1051ZM15.875 11.1051C16.496 11.1051 17 11.6091 17 12.2301V13.3551C17 13.6535 16.8815 13.9396 16.6705 14.1506C16.4595 14.3616 16.1734 14.4801 15.875 14.4801C15.5766 14.4801 15.2905 14.3616 15.0795 14.1506C14.8685 13.9396 14.75 13.6535 14.75 13.3551V12.2301C14.75 11.6091 15.254 11.1051 15.875 11.1051Z" fill="#0A0D14" style="fill:#0A0D14;fill:color(display-p3 0.0392 0.0510 0.0784);fill-opacity:1;"/>
</svg>
