<svg width="25" height="24" viewBox="0 0 25 24" fill="none" xmlns="http://www.w3.org/2000/svg">
<path d="M8.1548 3.68067L11.0726 6.59937H13.9265L16.8452 3.68157C17.0141 3.51269 17.2431 3.41782 17.4819 3.41782C17.7208 3.41782 17.9498 3.51269 18.1187 3.68157C18.2876 3.85044 18.3825 4.07949 18.3825 4.31832C18.3825 4.55714 18.2876 4.78619 18.1187 4.95507L16.4726 6.59937H18.35C19.1854 6.59937 19.9866 6.93124 20.5774 7.52198C21.1681 8.11272 21.5 8.91393 21.5 9.74937V16.9494C21.5 17.7848 21.1681 18.586 20.5774 19.1768C19.9866 19.7675 19.1854 20.0994 18.35 20.0994H6.65C5.81457 20.0994 5.01335 19.7675 4.42261 19.1768C3.83187 18.586 3.5 17.7848 3.5 16.9494V9.74937C3.5 8.91393 3.83187 8.11272 4.42261 7.52198C5.01335 6.93124 5.81457 6.59937 6.65 6.59937H8.5265L6.8813 4.95327C6.71242 4.78439 6.61755 4.55534 6.61755 4.31652C6.61755 4.07769 6.71242 3.84864 6.8813 3.67977C7.05018 3.51089 7.27922 3.41602 7.51805 3.41602C7.75688 3.41602 7.98592 3.51089 8.1548 3.67977V3.68067ZM18.35 8.39937H6.65C6.31441 8.39938 5.99085 8.52439 5.74242 8.75002C5.494 8.97565 5.33852 9.28572 5.3063 9.61977L5.3 9.74937V16.9494C5.30002 17.285 5.42503 17.6085 5.65066 17.8569C5.87629 18.1054 6.18636 18.2608 6.5204 18.2931L6.65 18.2994H18.35C18.6856 18.2993 19.0092 18.1743 19.2576 17.9487C19.506 17.7231 19.6615 17.413 19.6937 17.079L19.7 16.9494V9.74937C19.7 9.39132 19.5578 9.04795 19.3046 8.79477C19.0514 8.5416 18.708 8.39937 18.35 8.39937ZM8.9 11.0994C9.13869 11.0994 9.36761 11.1942 9.5364 11.363C9.70518 11.5318 9.8 11.7607 9.8 11.9994V13.7994C9.8 14.0381 9.70518 14.267 9.5364 14.4358C9.36761 14.6045 9.13869 14.6994 8.9 14.6994C8.6613 14.6994 8.43239 14.6045 8.2636 14.4358C8.09482 14.267 8 14.0381 8 13.7994V11.9994C8 11.7607 8.09482 11.5318 8.2636 11.363C8.43239 11.1942 8.6613 11.0994 8.9 11.0994ZM16.1 11.0994C16.3387 11.0994 16.5676 11.1942 16.7364 11.363C16.9052 11.5318 17 11.7607 17 11.9994V13.7994C17 14.0381 16.9052 14.267 16.7364 14.4358C16.5676 14.6045 16.3387 14.6994 16.1 14.6994C15.8613 14.6994 15.6324 14.6045 15.4636 14.4358C15.2948 14.267 15.2 14.0381 15.2 13.7994V11.9994C15.2 11.7607 15.2948 11.5318 15.4636 11.363C15.6324 11.1942 15.8613 11.0994 16.1 11.0994Z" fill="#0A0D14" style="fill:#0A0D14;fill:color(display-p3 0.0392 0.0510 0.0784);fill-opacity:1;"/>
</svg>
