<svg width="25" height="24" viewBox="0 0 25 24" fill="none" xmlns="http://www.w3.org/2000/svg">
<path d="M12.5 3C17.4707 3 21.5 7.0293 21.5 12C21.5 16.9707 17.4707 21 12.5 21C7.5293 21 3.5 16.9707 3.5 12C3.5 7.0293 7.5293 3 12.5 3ZM12.5 4.8C10.5904 4.8 8.75909 5.55857 7.40883 6.90883C6.05857 8.25909 5.3 10.0904 5.3 12C5.3 13.9096 6.05857 15.7409 7.40883 17.0912C8.75909 18.4414 10.5904 19.2 12.5 19.2C14.4096 19.2 16.2409 18.4414 17.5912 17.0912C18.9414 15.7409 19.7 13.9096 19.7 12C19.7 10.0904 18.9414 8.25909 17.5912 6.90883C16.2409 5.55857 14.4096 4.8 12.5 4.8ZM12.5 6.6C13.9322 6.6 15.3057 7.16893 16.3184 8.18162C17.3311 9.19432 17.9 10.5678 17.9 12C17.9 13.4322 17.3311 14.8057 16.3184 15.8184C15.3057 16.8311 13.9322 17.4 12.5 17.4C11.0678 17.4 9.69432 16.8311 8.68162 15.8184C7.66893 14.8057 7.1 13.4322 7.1 12C7.1 10.5678 7.66893 9.19432 8.68162 8.18162C9.69432 7.16893 11.0678 6.6 12.5 6.6ZM12.5 8.175C12.0677 8.17514 11.6446 8.29979 11.2814 8.53406C10.9181 8.76833 10.6299 9.10229 10.4515 9.49599C10.273 9.8897 10.2117 10.3265 10.2749 10.7541C10.3381 11.1817 10.5232 11.5821 10.808 11.9073C10.2995 12.3186 9.98 12.9135 9.98 13.575C9.98 14.817 11.1086 15.825 12.5 15.825C13.8914 15.825 15.02 14.817 15.02 13.575C15.02 12.9135 14.7005 12.3186 14.192 11.9082C14.4771 11.583 14.6624 11.1826 14.7258 10.7548C14.7892 10.327 14.7279 9.89005 14.5494 9.49618C14.3709 9.1023 14.0827 8.76821 13.7192 8.5339C13.3557 8.29959 12.9324 8.17499 12.5 8.175ZM12.5 12.675C13.1777 12.675 13.67 13.1142 13.67 13.575C13.67 14.0358 13.1777 14.475 12.5 14.475C11.8223 14.475 11.33 14.0358 11.33 13.575C11.33 13.1142 11.8223 12.675 12.5 12.675ZM12.5 9.525C12.7387 9.525 12.9676 9.61982 13.1364 9.7886C13.3052 9.95739 13.4 10.1863 13.4 10.425C13.4 10.6637 13.3052 10.8926 13.1364 11.0614C12.9676 11.2302 12.7387 11.325 12.5 11.325C12.2613 11.325 12.0324 11.2302 11.8636 11.0614C11.6948 10.8926 11.6 10.6637 11.6 10.425C11.6 10.1863 11.6948 9.95739 11.8636 9.7886C12.0324 9.61982 12.2613 9.525 12.5 9.525Z" fill="#0A0D14" style="fill:#0A0D14;fill:color(display-p3 0.0392 0.0510 0.0784);fill-opacity:1;"/>
</svg>
