<svg width="25" height="24" viewBox="0 0 25 24" fill="none" xmlns="http://www.w3.org/2000/svg">
<path d="M12.5 21C7.5293 21 3.5 16.9707 3.5 12C3.5 7.0293 7.5293 3 12.5 3C17.4707 3 21.5 7.0293 21.5 12C21.5 16.9707 17.4707 21 12.5 21ZM12.5 19.2C14.4096 19.2 16.2409 18.4414 17.5912 17.0912C18.9414 15.7409 19.7 13.9096 19.7 12C19.7 10.0904 18.9414 8.25909 17.5912 6.90883C16.2409 5.55857 14.4096 4.8 12.5 4.8C10.5904 4.8 8.75909 5.55857 7.40883 6.90883C6.05857 8.25909 5.3 10.0904 5.3 12C5.3 13.9096 6.05857 15.7409 7.40883 17.0912C8.75909 18.4414 10.5904 19.2 12.5 19.2ZM11.6 15.6H8.9V8.4H11.6V6.6H13.4V8.4H14.3C14.7179 8.4 15.1274 8.51636 15.4829 8.73604C15.8383 8.95571 16.1256 9.27003 16.3125 9.64377C16.4993 10.0175 16.5784 10.4359 16.5409 10.8521C16.5034 11.2682 16.3507 11.6657 16.1 12C16.3507 12.3343 16.5034 12.7318 16.5409 13.1479C16.5784 13.5641 16.4993 13.9825 16.3125 14.3562C16.1256 14.73 15.8383 15.0443 15.4829 15.264C15.1274 15.4836 14.7179 15.6 14.3 15.6H13.4V17.4H11.6V15.6ZM10.7 12.9V13.8H14.3C14.4193 13.8 14.5338 13.7526 14.6182 13.6682C14.7026 13.5838 14.75 13.4693 14.75 13.35C14.75 13.2307 14.7026 13.1162 14.6182 13.0318C14.5338 12.9474 14.4193 12.9 14.3 12.9H10.7ZM10.7 10.2V11.1H14.3C14.4193 11.1 14.5338 11.0526 14.6182 10.9682C14.7026 10.8838 14.75 10.7693 14.75 10.65C14.75 10.5307 14.7026 10.4162 14.6182 10.3318C14.5338 10.2474 14.4193 10.2 14.3 10.2H10.7Z" fill="#0A0D14" style="fill:#0A0D14;fill:color(display-p3 0.0392 0.0510 0.0784);fill-opacity:1;"/>
</svg>
