<svg width="25" height="24" viewBox="0 0 25 24" fill="none" xmlns="http://www.w3.org/2000/svg">
<path d="M18.8 9.30156C19.4003 10.2556 19.7 11.4562 19.7 12.9016C19.7 15.6016 16.55 16.5016 15.2 21.0016C14.5997 20.4841 14.3 19.7344 14.3 18.7516C14.3 15.6178 18.8 13.9906 18.8 9.30156ZM14.75 5.70156C15.3476 6.8069 15.6572 8.04501 15.65 9.30156C15.65 13.8016 10.25 14.7016 12.05 21.0016C10.5497 19.9576 9.79998 18.4573 9.79998 16.5016C9.79998 13.5091 14.75 11.1016 14.75 5.70156ZM10.7 2.10156C11.3003 3.30126 11.6 4.65126 11.6 6.15156C11.6 11.5516 3.49998 12.9016 8.89998 21.0016C6.64998 20.5516 4.84998 18.3016 4.84998 15.6016C4.84998 9.75156 10.7 8.85156 10.7 2.10156Z" fill="#0A0D14" style="fill:#0A0D14;fill:color(display-p3 0.0392 0.0510 0.0784);fill-opacity:1;"/>
</svg>
