<svg width="25" height="24" viewBox="0 0 25 24" fill="none" xmlns="http://www.w3.org/2000/svg">
<path d="M18.35 9.30156C19.25 10.2556 19.7 11.4562 19.7 12.9016C19.7 16.021 16.37 16.75 14.75 21.0016C14.1497 20.4841 13.85 19.7344 13.85 18.7516C13.85 15.6178 18.35 13.9906 18.35 9.30156ZM14.75 5.70156C15.83 6.81576 16.37 8.01636 16.37 9.30156C16.37 13.7575 10.9295 14.4244 12.05 21.0016C10.5497 19.9576 9.79998 18.4573 9.79998 16.5016C9.79998 13.5091 14.75 11.1016 14.75 5.70156ZM10.7 2.10156C11.8997 3.60186 12.5 4.95186 12.5 6.15156C12.5 11.7766 4.84998 13.5514 8.89998 21.0016C6.54558 20.4796 4.84998 18.3016 4.84998 15.6016C4.84998 9.75156 10.7 8.85156 10.7 2.10156Z" fill="#0A0D14" style="fill:#0A0D14;fill:color(display-p3 0.0392 0.0510 0.0784);fill-opacity:1;"/>
</svg>
