<svg width="25" height="24" viewBox="0 0 25 24" fill="none" xmlns="http://www.w3.org/2000/svg">
<path d="M9.342 14.7859C9.2343 14.4442 9.16249 14.0068 9.15854 13.7816C9.15458 13.5574 9.20387 13.1837 9.20387 13.1837L5.82236 15.9513C5.2318 16.4284 4.43739 16.4274 4.06376 15.9485C3.69561 15.4775 3.88455 14.7333 4.46903 14.2858L10.6886 9.51227L7.21738 9.51684C6.62864 9.51471 6.24406 9.11796 6.35482 8.63967C6.46252 8.1702 7.00683 7.7987 7.57305 7.79809L14.4325 7.79079L12.1865 5.9616C11.8366 5.67469 11.8816 5.21982 12.2747 4.94477C12.6636 4.67277 13.2581 4.67185 13.6116 4.94325L19.0144 9.09179L19.0131 9.09271C19.5471 9.5068 19.9962 9.99878 20.3446 10.5607C20.7255 11.1723 20.9728 11.8432 21.0744 12.5582C21.1265 12.9251 21.1383 13.2924 21.1101 13.659C21.0811 14.0311 21.0091 14.402 20.895 14.7674C20.6679 15.4906 20.2846 16.1609 19.7506 16.753C19.2033 17.3593 18.5287 17.8483 17.749 18.1973C16.9293 18.563 16.0411 18.7516 15.1201 18.7528C14.1976 18.7543 13.3096 18.5694 12.4899 18.2064C11.71 17.8608 11.0349 17.374 10.4866 16.7679C9.95235 16.1782 9.56837 15.5092 9.342 14.7859ZM15.1201 16.1472C16.1756 16.1451 17.151 15.7426 17.8478 15.0327C18.1883 14.6859 18.4374 14.2885 18.592 13.864C18.7432 13.4479 18.8019 13.0069 18.7636 12.5621C18.7253 12.1255 18.5966 11.7118 18.3888 11.3363C18.1855 10.9675 17.9059 10.635 17.5609 10.3538C16.883 9.80375 16.0213 9.50771 15.1186 9.50893C14.2168 9.51014 13.3545 9.80893 12.6773 10.3608C12.3316 10.6432 12.0517 10.977 11.8485 11.3464C11.6416 11.7221 11.512 12.1374 11.4751 12.5728C11.4362 13.0182 11.4949 13.4597 11.6461 13.8756C11.8004 14.2988 12.0505 14.6962 12.391 15.0415C13.0877 15.7501 14.0631 16.149 15.1201 16.1472ZM13.6063 11.1779C14.0231 10.825 14.5842 10.6093 15.1963 10.6093C15.8079 10.6093 16.3689 10.825 16.7861 11.1779C17.2108 11.5372 17.4926 12.0441 17.5251 12.6189C17.5574 13.21 17.3197 13.7592 16.903 14.1663C16.4778 14.5804 15.8734 14.8402 15.1963 14.8402C14.5194 14.8402 13.9136 14.5804 13.4889 14.1663C13.0717 13.7592 12.8347 13.21 12.8673 12.6195C12.8995 12.0441 13.1812 11.5372 13.6063 11.1779ZM13.6063 11.1779C13.1812 11.5372 12.8995 12.0441 12.8673 12.6195C12.8347 13.21 13.0717 13.7592 13.4889 14.1663C13.9136 14.5804 14.5194 14.8402 15.1963 14.8402C15.8734 14.8402 16.4778 14.5804 16.903 14.1663C17.3197 13.7592 17.5574 13.21 17.5251 12.6189C17.4926 12.0441 17.2108 11.5372 16.7861 11.1779C16.3689 10.825 15.8079 10.6093 15.1963 10.6093C14.5842 10.6093 14.0231 10.825 13.6063 11.1779ZM9.342 14.7859C9.2343 14.4442 9.16249 14.0068 9.15854 13.7816C9.15458 13.5574 9.20387 13.1837 9.20387 13.1837L5.82236 15.9513C5.2318 16.4284 4.43739 16.4274 4.06376 15.9485C3.69561 15.4775 3.88455 14.7333 4.46903 14.2858L10.6886 9.51227L7.21738 9.51684C6.62864 9.51471 6.24406 9.11796 6.35482 8.63967C6.46252 8.1702 7.00683 7.7987 7.57305 7.79809L14.4325 7.79079L12.1865 5.9616C11.8366 5.67469 11.8816 5.21982 12.2747 4.94477C12.6636 4.67277 13.2581 4.67185 13.6116 4.94325L19.0144 9.09179L19.0131 9.09271C19.5471 9.5068 19.9962 9.99878 20.3446 10.5607C20.7255 11.1723 20.9728 11.8432 21.0744 12.5582C21.1265 12.9251 21.1383 13.2924 21.1101 13.659C21.0811 14.0311 21.0091 14.402 20.895 14.7674C20.6679 15.4906 20.2846 16.1609 19.7506 16.753C19.2033 17.3593 18.5287 17.8483 17.749 18.1973C16.9293 18.563 16.0411 18.7516 15.1201 18.7528C14.1976 18.7543 13.3096 18.5694 12.4899 18.2064C11.71 17.8608 11.0349 17.374 10.4866 16.7679C9.95235 16.1782 9.56837 15.5092 9.342 14.7859ZM15.1201 16.1472C16.1756 16.1451 17.151 15.7426 17.8478 15.0327C18.1883 14.6859 18.4374 14.2885 18.592 13.864C18.7432 13.4479 18.8019 13.0069 18.7636 12.5621C18.7253 12.1255 18.5966 11.7118 18.3888 11.3363C18.1855 10.9675 17.9059 10.635 17.5609 10.3538C16.883 9.80375 16.0213 9.50771 15.1186 9.50893C14.2168 9.51014 13.3545 9.80893 12.6773 10.3608C12.3316 10.6432 12.0517 10.977 11.8485 11.3464C11.6416 11.7221 11.512 12.1374 11.4751 12.5728C11.4362 13.0182 11.4949 13.4597 11.6461 13.8756C11.8004 14.2988 12.0505 14.6962 12.391 15.0415C13.0877 15.7501 14.0631 16.149 15.1201 16.1472Z" fill="#0A0D14" style="fill:#0A0D14;fill:color(display-p3 0.0392 0.0510 0.0784);fill-opacity:1;"/>
</svg>
