<svg width="25" height="24" viewBox="0 0 25 24" fill="none" xmlns="http://www.w3.org/2000/svg">
<path d="M13.3417 4.66287C13.0174 4.40516 12.5456 4.45912 12.2879 4.7834C12.0301 5.10767 12.0841 5.57947 12.4084 5.83718L14.9726 7.87503H6.87503C6.46081 7.87503 6.12503 8.21081 6.12503 8.62503C6.12503 9.03924 6.46081 9.37503 6.87503 9.37503H10.9788L4.1588 14.7875C3.83434 15.0451 3.78006 15.5168 4.03755 15.8413C4.29504 16.1657 4.76681 16.22 5.09126 15.9625L9.15842 12.7347C9.13637 12.9243 9.12503 13.1171 9.12503 13.3125C9.12503 16.3933 11.8935 18.75 15.125 18.75C18.3565 18.75 21.125 16.3933 21.125 13.3125C21.125 11.6275 20.2822 10.1422 18.9985 9.1586L13.3417 4.66287ZM12.1735 10.3419C12.9582 9.74402 13.9875 9.37503 15.125 9.37503C16.2651 9.37503 17.2965 9.74567 18.0819 10.3459C19.0446 11.0818 19.625 12.1487 19.625 13.3125C19.625 15.4095 17.6925 17.25 15.125 17.25C12.5576 17.25 10.625 15.4095 10.625 13.3125C10.625 12.2027 11.1528 11.181 12.0366 10.4505L12.1735 10.3419ZM14.3583 13.5689C14.1509 13.3736 14.0595 13.1449 14.0724 12.9077C14.0965 12.484 14.5404 12 15.1962 12C15.851 12 16.2949 12.4829 16.3199 12.9068C16.333 13.1543 16.2388 13.3817 16.0365 13.5722C15.8222 13.7738 15.5135 13.902 15.1962 13.902C14.8861 13.902 14.5764 13.7745 14.3583 13.5689ZM15.1962 10.5C13.8868 10.5 12.6505 11.471 12.5747 12.8244C12.4942 14.2839 13.794 15.402 15.1962 15.402C16.6033 15.402 17.8978 14.2944 17.8176 12.8235C17.7409 11.4708 16.5055 10.5 15.1962 10.5Z" fill="#0A0D14" style="fill:#0A0D14;fill:color(display-p3 0.0392 0.0510 0.0784);fill-opacity:1;"/>
</svg>
