<svg width="25" height="24" viewBox="0 0 25 24" fill="none" xmlns="http://www.w3.org/2000/svg">
<path d="M14.6069 12.0273L18.5156 15.936L13.4252 21.0264H11.6252V15.009L7.69755 18.9366L6.42405 17.664L11.6252 12.4638V11.5908L6.42405 6.38877L7.69755 5.11617L11.6252 9.04377V3.02637H13.4252L18.5156 8.11767L14.6069 12.0264V12.0273ZM13.4252 13.3899V18.4812L15.9704 15.936L13.4252 13.3899ZM13.4252 10.6629L15.9704 8.11767L13.4252 5.57247V10.6638V10.6629ZM19.25 13.3503C18.8919 13.3503 18.5485 13.208 18.2954 12.9549C18.0422 12.7017 17.9 12.3583 17.9 12.0003C17.9 11.6422 18.0422 11.2988 18.2954 11.0457C18.5485 10.7925 18.8919 10.6503 19.25 10.6503C19.608 10.6503 19.9514 10.7925 20.2045 11.0457C20.4577 11.2988 20.6 11.6422 20.6 12.0003C20.6 12.3583 20.4577 12.7017 20.2045 12.9549C19.9514 13.208 19.608 13.3503 19.25 13.3503ZM7.54995 13.3503C7.19191 13.3503 6.84853 13.208 6.59536 12.9549C6.34218 12.7017 6.19995 12.3583 6.19995 12.0003C6.19995 11.6422 6.34218 11.2988 6.59536 11.0457C6.84853 10.7925 7.19191 10.6503 7.54995 10.6503C7.90799 10.6503 8.25137 10.7925 8.50455 11.0457C8.75772 11.2988 8.89995 11.6422 8.89995 12.0003C8.89995 12.3583 8.75772 12.7017 8.50455 12.9549C8.25137 13.208 7.90799 13.3503 7.54995 13.3503Z" fill="#0A0D14" style="fill:#0A0D14;fill:color(display-p3 0.0392 0.0510 0.0784);fill-opacity:1;"/>
</svg>
