<svg width="25" height="24" viewBox="0 0 25 24" fill="none" xmlns="http://www.w3.org/2000/svg">
<path d="M14.6069 12.0263L18.5156 15.935L13.4252 21.0254H11.6252V15.008L7.69755 18.9356L6.42405 17.663L11.6252 12.4628V11.5898L6.42405 6.38779L7.69755 5.11519L11.6252 9.04279V3.02539H13.4252L18.5156 8.11669L14.6069 12.0254V12.0263ZM13.4252 13.3889V18.4802L15.9704 15.935L13.4252 13.3889ZM13.4252 10.6619L15.9704 8.11669L13.4252 5.57149V10.6628V10.6619ZM19.25 13.3493C18.8919 13.3493 18.5485 13.2071 18.2954 12.9539C18.0422 12.7007 17.9 12.3573 17.9 11.9993C17.9 11.6412 18.0422 11.2979 18.2954 11.0447C18.5485 10.7915 18.8919 10.6493 19.25 10.6493C19.608 10.6493 19.9514 10.7915 20.2045 11.0447C20.4577 11.2979 20.6 11.6412 20.6 11.9993C20.6 12.3573 20.4577 12.7007 20.2045 12.9539C19.9514 13.2071 19.608 13.3493 19.25 13.3493ZM7.54995 13.3493C7.19191 13.3493 6.84853 13.2071 6.59536 12.9539C6.34218 12.7007 6.19995 12.3573 6.19995 11.9993C6.19995 11.6412 6.34218 11.2979 6.59536 11.0447C6.84853 10.7915 7.19191 10.6493 7.54995 10.6493C7.90799 10.6493 8.25137 10.7915 8.50455 11.0447C8.75772 11.2979 8.89995 11.6412 8.89995 11.9993C8.89995 12.3573 8.75772 12.7007 8.50455 12.9539C8.25137 13.2071 7.90799 13.3493 7.54995 13.3493Z" fill="#0A0D14" style="fill:#0A0D14;fill:color(display-p3 0.0392 0.0510 0.0784);fill-opacity:1;"/>
</svg>
