<svg width="25" height="24" viewBox="0 0 25 24" fill="none" xmlns="http://www.w3.org/2000/svg">
<path d="M18.0386 18.8107C16.5051 20.2534 14.4701 21.0423 12.3649 21.0102C10.2597 20.9781 8.24966 20.1275 6.76087 18.6387C5.27208 17.1499 4.42149 15.1399 4.38938 13.0347C4.35726 10.9295 5.14614 8.89445 6.58884 7.36094L2.95374 3.72674L4.22724 2.45324L22.0463 20.2732L20.7728 21.5458L18.0386 18.8098V18.8107ZM7.86234 8.63534C6.76378 9.83191 6.16987 11.4066 6.20457 13.0306C6.23928 14.6546 6.89992 16.2024 8.04859 17.351C9.19725 18.4995 10.7452 19.16 12.3692 19.1945C13.9932 19.2291 15.5678 18.635 16.7642 17.5363L7.86323 8.63534H7.86234ZM20.0726 15.7795L18.6335 14.3404C18.8792 13.2962 18.8539 12.2066 18.5601 11.1749C18.2664 10.1432 17.7139 9.20364 16.955 8.44544L12.5 3.98954L10.3913 6.09824L9.11874 4.82654L12.5 1.44434L18.2276 7.17194C19.3321 8.2762 20.0939 9.67617 20.4212 11.2033C20.7485 12.7304 20.6275 14.3196 20.0726 15.7795Z" fill="#0A0D14" style="fill:#0A0D14;fill:color(display-p3 0.0392 0.0510 0.0784);fill-opacity:1;"/>
</svg>
