<svg width="25" height="24" viewBox="0 0 25 24" fill="none" xmlns="http://www.w3.org/2000/svg">
<path d="M6.58884 7.36094L2.95374 3.72674L4.22724 2.45324L22.0463 20.2732L20.7728 21.5458L18.0386 18.8098C16.5038 20.2436 14.472 21.0251 12.3719 20.9895C10.2719 20.9539 8.26775 20.1039 6.78239 18.6189C5.29704 17.1339 4.44659 15.13 4.41048 13.03C4.37437 10.9299 5.15541 8.89793 6.58884 7.36274V7.36094ZM9.11874 4.82654L12.5 1.44434L18.2276 7.17194C19.3321 8.2762 20.0939 9.67617 20.4212 11.2033C20.7485 12.7304 20.6275 14.3196 20.0726 15.7795L9.11964 4.82654H9.11874Z" fill="#0A0D14" style="fill:#0A0D14;fill:color(display-p3 0.0392 0.0510 0.0784);fill-opacity:1;"/>
</svg>
