<svg width="25" height="24" viewBox="0 0 25 24" fill="none" xmlns="http://www.w3.org/2000/svg">
<path d="M5.3 15.6V19.2H8.9V21H3.5V15.6H5.3ZM21.5 15.6V21H16.1V19.2H19.7V15.6H21.5ZM8.45 7.5C8.45 8.57413 8.8767 9.60426 9.63622 10.3638C10.3957 11.1233 11.4259 11.55 12.5 11.55C13.5741 11.55 14.6043 11.1233 15.3638 10.3638C16.1233 9.60426 16.55 8.57413 16.55 7.5H18.35C18.3502 8.57045 18.0567 9.62044 17.5014 10.5356C16.9462 11.4508 16.1504 12.1961 15.2009 12.6903L15.2 18.3H9.8V12.6912C8.85016 12.197 8.05416 11.4517 7.49872 10.5363C6.94329 9.62094 6.64972 8.5707 6.65 7.5H8.45ZM12.5 5.7C13.0967 5.7 13.669 5.93705 14.091 6.35901C14.5129 6.78097 14.75 7.35326 14.75 7.95C14.75 8.54674 14.5129 9.11903 14.091 9.54099C13.669 9.96295 13.0967 10.2 12.5 10.2C11.9033 10.2 11.331 9.96295 10.909 9.54099C10.4871 9.11903 10.25 8.54674 10.25 7.95C10.25 7.35326 10.4871 6.78097 10.909 6.35901C11.331 5.93705 11.9033 5.7 12.5 5.7ZM8.9 3V4.8L5.3 4.7991V8.4H3.5V3H8.9ZM21.5 3V8.4H19.7V4.8H16.1V3H21.5Z" fill="#0A0D14" style="fill:#0A0D14;fill:color(display-p3 0.0392 0.0510 0.0784);fill-opacity:1;"/>
</svg>
