<svg width="25" height="24" viewBox="0 0 25 24" fill="none" xmlns="http://www.w3.org/2000/svg">
<path d="M8.90001 11.1008H12.95C13.5467 11.1008 14.119 10.8637 14.541 10.4418C14.963 10.0198 15.2 9.44752 15.2 8.85078C15.2 8.25404 14.963 7.68175 14.541 7.25979C14.119 6.83783 13.5467 6.60078 12.95 6.60078H8.90001V11.1008ZM17.9 15.1508C17.9 15.6826 17.7952 16.2093 17.5917 16.7006C17.3882 17.192 17.0899 17.6385 16.7138 18.0146C16.3377 18.3906 15.8912 18.689 15.3999 18.8925C14.9085 19.096 14.3819 19.2008 13.85 19.2008H7.10001V4.80078H12.95C13.7429 4.80081 14.5183 5.03357 15.1801 5.47018C15.8419 5.90679 16.361 6.52806 16.673 7.25694C16.9851 7.98583 17.0763 8.79026 16.9354 9.57051C16.7945 10.3507 16.4277 11.0725 15.8804 11.6462C16.4948 12.0019 17.0048 12.513 17.3593 13.1282C17.7138 13.7433 17.9002 14.4408 17.9 15.1508ZM8.90001 12.9008V17.4008H13.85C14.4467 17.4008 15.019 17.1637 15.441 16.7418C15.863 16.3198 16.1 15.7475 16.1 15.1508C16.1 14.554 15.863 13.9817 15.441 13.5598C15.019 13.1378 14.4467 12.9008 13.85 12.9008H8.90001Z" fill="#0A0D14" style="fill:#0A0D14;fill:color(display-p3 0.0392 0.0510 0.0784);fill-opacity:1;"/>
</svg>
