<svg width="25" height="24" viewBox="0 0 25 24" fill="none" xmlns="http://www.w3.org/2000/svg">
<path d="M6.19999 3H18.8C19.0387 3 19.2676 3.09482 19.4364 3.2636C19.6052 3.43239 19.7 3.66131 19.7 3.9V21.1287C19.7001 21.2092 19.6786 21.2882 19.6378 21.3575C19.597 21.4269 19.5383 21.484 19.4679 21.523C19.3975 21.5619 19.318 21.5813 19.2375 21.5791C19.1571 21.5769 19.0787 21.5531 19.0106 21.5103L12.5 17.427L5.98939 21.5094C5.92132 21.5522 5.84304 21.5759 5.76268 21.5782C5.68232 21.5805 5.60283 21.5612 5.53245 21.5223C5.46208 21.4834 5.4034 21.4264 5.36252 21.3572C5.32164 21.288 5.30005 21.2091 5.29999 21.1287V3.9C5.29999 3.66131 5.39481 3.43239 5.56359 3.2636C5.73237 3.09482 5.96129 3 6.19999 3ZM8.89999 9.3V11.1H16.1V9.3H8.89999Z" fill="#0A0D14" style="fill:#0A0D14;fill:color(display-p3 0.0392 0.0510 0.0784);fill-opacity:1;"/>
</svg>
