<svg width="25" height="24" viewBox="0 0 25 24" fill="none" xmlns="http://www.w3.org/2000/svg">
<path d="M19.7 21H7.55002C6.71459 21 5.91338 20.6681 5.32264 20.0774C4.7319 19.4866 4.40002 18.6854 4.40002 17.85V5.7C4.40002 4.98392 4.68449 4.29716 5.19084 3.79081C5.69718 3.28446 6.38394 3 7.10002 3H19.7C19.9387 3 20.1676 3.09482 20.3364 3.2636C20.5052 3.43239 20.6 3.66131 20.6 3.9V20.1C20.6 20.3387 20.5052 20.5676 20.3364 20.7364C20.1676 20.9052 19.9387 21 19.7 21ZM18.8 19.2V16.5H7.55002C7.19198 16.5 6.8486 16.6422 6.59543 16.8954C6.34226 17.1486 6.20002 17.492 6.20002 17.85C6.20002 18.208 6.34226 18.5514 6.59543 18.8046C6.8486 19.0578 7.19198 19.2 7.55002 19.2H18.8ZM10.7 4.8V12L13.85 10.2L17 12V4.8H10.7Z" fill="#0A0D14" style="fill:#0A0D14;fill:color(display-p3 0.0392 0.0510 0.0784);fill-opacity:1;"/>
</svg>
