<svg width="25" height="24" viewBox="0 0 25 24" fill="none" xmlns="http://www.w3.org/2000/svg">
<path d="M20.6 17.4H7.10002C6.86133 17.4 6.63241 17.4948 6.46363 17.6636C6.29485 17.8324 6.20002 18.0613 6.20002 18.3C6.20002 18.5387 6.29485 18.7676 6.46363 18.9364C6.63241 19.1052 6.86133 19.2 7.10002 19.2H20.6V21H7.10002C6.38394 21 5.69718 20.7155 5.19084 20.2092C4.68449 19.7028 4.40002 19.0161 4.40002 18.3V4.8C4.40002 4.32261 4.58967 3.86477 4.92723 3.52721C5.2648 3.18964 5.72263 3 6.20002 3H20.6V17.4ZM6.20002 15.645C6.34582 15.6153 6.49612 15.6 6.65002 15.6H18.8V4.8H6.20002V15.645ZM16.1 9.3H8.90002V7.5H16.1V9.3Z" fill="#0A0D14" style="fill:#0A0D14;fill:color(display-p3 0.0392 0.0510 0.0784);fill-opacity:1;"/>
</svg>
