<svg width="25" height="24" viewBox="0 0 25 24" fill="none" xmlns="http://www.w3.org/2000/svg">
<path d="M13.4 20.1004V21.9004H11.6V20.1004H4.4C4.16131 20.1004 3.93239 20.0056 3.7636 19.8368C3.59482 19.668 3.5 19.4391 3.5 19.2004V4.80039C3.5 4.5617 3.59482 4.33278 3.7636 4.164C3.93239 3.99521 4.16131 3.90039 4.4 3.90039H9.8C10.3108 3.89979 10.8159 4.00817 11.2815 4.21832C11.7471 4.42846 12.1625 4.73552 12.5 5.11899C12.8375 4.73552 13.2529 4.42846 13.7185 4.21832C14.1841 4.00817 14.6892 3.89979 15.2 3.90039H20.6C20.8387 3.90039 21.0676 3.99521 21.2364 4.164C21.4052 4.33278 21.5 4.5617 21.5 4.80039V19.2004C21.5 19.4391 21.4052 19.668 21.2364 19.8368C21.0676 20.0056 20.8387 20.1004 20.6 20.1004H13.4ZM19.7 18.3004V5.70039H15.2C14.7226 5.70039 14.2648 5.89004 13.9272 6.2276C13.5896 6.56517 13.4 7.023 13.4 7.50039V18.3004H19.7ZM11.6 18.3004V7.50039C11.6 7.023 11.4104 6.56517 11.0728 6.2276C10.7352 5.89004 10.2774 5.70039 9.8 5.70039H5.3V18.3004H11.6Z" fill="#0A0D14" style="fill:#0A0D14;fill:color(display-p3 0.0392 0.0510 0.0784);fill-opacity:1;"/>
</svg>
