<svg width="25" height="24" viewBox="0 0 25 24" fill="none" xmlns="http://www.w3.org/2000/svg">
<path d="M6.2 3H18.8C19.0387 3 19.2676 3.09482 19.4364 3.2636C19.6052 3.43239 19.7 3.66131 19.7 3.9V21.1287C19.7001 21.2092 19.6786 21.2882 19.6378 21.3575C19.597 21.4269 19.5383 21.484 19.4679 21.523C19.3975 21.5619 19.318 21.5813 19.2375 21.5791C19.1571 21.5769 19.0787 21.5531 19.0106 21.5103L12.5 17.427L5.9894 21.5094C5.92133 21.5522 5.84305 21.5759 5.76269 21.5782C5.68234 21.5805 5.60284 21.5612 5.53247 21.5223C5.4621 21.4834 5.40342 21.4264 5.36254 21.3572C5.32166 21.288 5.30006 21.2091 5.3 21.1287V3.9C5.3 3.66131 5.39482 3.43239 5.56361 3.2636C5.73239 3.09482 5.96131 3 6.2 3ZM17.9 4.8H7.1V18.6888L12.5 15.3039L17.9 18.6888V4.8Z" fill="#0A0D14" style="fill:#0A0D14;fill:color(display-p3 0.0392 0.0510 0.0784);fill-opacity:1;"/>
</svg>
