<svg width="25" height="24" viewBox="0 0 25 24" fill="none" xmlns="http://www.w3.org/2000/svg">
<path d="M19.7 21H7.54999C6.71456 21 5.91335 20.6681 5.32261 20.0774C4.73187 19.4866 4.39999 18.6854 4.39999 17.85V5.7C4.39999 4.98392 4.68446 4.29716 5.19081 3.79081C5.69715 3.28446 6.38391 3 7.09999 3H19.7C19.9387 3 20.1676 3.09482 20.3364 3.2636C20.5052 3.43239 20.6 3.66131 20.6 3.9V20.1C20.6 20.3387 20.5052 20.5676 20.3364 20.7364C20.1676 20.9052 19.9387 21 19.7 21ZM18.8 19.2V16.5H7.54999C7.19195 16.5 6.84857 16.6422 6.5954 16.8954C6.34223 17.1486 6.19999 17.492 6.19999 17.85C6.19999 18.208 6.34223 18.5514 6.5954 18.8046C6.84857 19.0578 7.19195 19.2 7.54999 19.2H18.8Z" fill="#0A0D14" style="fill:#0A0D14;fill:color(display-p3 0.0392 0.0510 0.0784);fill-opacity:1;"/>
</svg>
