<svg width="25" height="24" viewBox="0 0 25 24" fill="none" xmlns="http://www.w3.org/2000/svg">
<path d="M3.5 4.79409C3.50165 4.55773 3.59621 4.33151 3.76326 4.16429C3.93031 3.99707 4.15644 3.90228 4.3928 3.90039H20.6072C21.1004 3.90039 21.5 4.30089 21.5 4.79409V19.2067C21.4984 19.4431 21.4038 19.6693 21.2367 19.8365C21.0697 20.0037 20.8436 20.0985 20.6072 20.1004H4.3928C4.15593 20.1002 3.92885 20.0059 3.76144 19.8383C3.59403 19.6707 3.5 19.4436 3.5 19.2067V4.79409ZM11.6 5.70039H5.3V18.3004H11.6V5.70039ZM13.4 5.70039V18.3004H19.7V5.70039H13.4ZM14.3 7.50039H18.8V9.30039H14.3V7.50039ZM14.3 10.2004H18.8V12.0004H14.3V10.2004Z" fill="#0A0D14" style="fill:#0A0D14;fill:color(display-p3 0.0392 0.0510 0.0784);fill-opacity:1;"/>
</svg>
