<svg width="25" height="24" viewBox="0 0 25 24" fill="none" xmlns="http://www.w3.org/2000/svg">
<path d="M5.30002 3H19.7C19.9387 3 20.1676 3.09482 20.3364 3.2636C20.5052 3.43239 20.6 3.66131 20.6 3.9V21.2484C20.6001 21.3235 20.5814 21.3974 20.5456 21.4634C20.5098 21.5294 20.458 21.5854 20.395 21.6263C20.3321 21.6672 20.2598 21.6917 20.185 21.6975C20.1101 21.7033 20.035 21.6903 19.9664 21.6597L12.5 18.327L5.03362 21.6588C4.96514 21.6894 4.89008 21.7024 4.81529 21.6966C4.7405 21.6908 4.66834 21.6664 4.60538 21.6257C4.54242 21.5849 4.49065 21.529 4.45479 21.4631C4.41892 21.3972 4.4001 21.3234 4.40002 21.2484V3.9C4.40002 3.66131 4.49485 3.43239 4.66363 3.2636C4.83241 3.09482 5.06133 3 5.30002 3ZM12.5 13.35L15.1451 14.7405L14.6402 11.7957L16.7795 9.7095L13.8221 9.2793L12.5 6.6L11.177 9.2793L8.22052 9.7095L10.3598 11.7957L9.85582 14.7405L12.5 13.35Z" fill="#0A0D14" style="fill:#0A0D14;fill:color(display-p3 0.0392 0.0510 0.0784);fill-opacity:1;"/>
</svg>
