<svg width="25" height="24" viewBox="0 0 25 24" fill="none" xmlns="http://www.w3.org/2000/svg">
<path d="M20.6 4.8H8.00002C7.52263 4.8 7.0648 4.98964 6.72723 5.32721C6.38967 5.66477 6.20002 6.12261 6.20002 6.6C6.20002 7.07739 6.38967 7.53523 6.72723 7.87279C7.0648 8.21036 7.52263 8.4 8.00002 8.4H20.6V20.1C20.6 20.3387 20.5052 20.5676 20.3364 20.7364C20.1676 20.9052 19.9387 21 19.7 21H8.00002C7.04525 21 6.12957 20.6207 5.45444 19.9456C4.77931 19.2705 4.40002 18.3548 4.40002 17.4V6.6C4.40002 5.64522 4.77931 4.72955 5.45444 4.05442C6.12957 3.37928 7.04525 3 8.00002 3H19.7C19.9387 3 20.1676 3.09482 20.3364 3.2636C20.5052 3.43239 20.6 3.66131 20.6 3.9V4.8ZM19.7 7.5H8.00002C7.76133 7.5 7.53241 7.40518 7.36363 7.2364C7.19485 7.06761 7.10002 6.83869 7.10002 6.6C7.10002 6.3613 7.19485 6.13239 7.36363 5.9636C7.53241 5.79482 7.76133 5.7 8.00002 5.7H19.7V7.5Z" fill="#0A0D14" style="fill:#0A0D14;fill:color(display-p3 0.0392 0.0510 0.0784);fill-opacity:1;"/>
</svg>
