<svg width="25" height="24" viewBox="0 0 25 24" fill="none" xmlns="http://www.w3.org/2000/svg">
<path d="M20.6 20.1004H13.4V6.60039C13.4 5.88431 13.6845 5.19755 14.1908 4.6912C14.6972 4.18485 15.3839 3.90039 16.1 3.90039H20.6C20.8387 3.90039 21.0676 3.99521 21.2364 4.16399C21.4052 4.33278 21.5 4.5617 21.5 4.80039V19.2004C21.5 19.4391 21.4052 19.668 21.2364 19.8368C21.0676 20.0056 20.8387 20.1004 20.6 20.1004ZM11.6 20.1004H4.4C4.16131 20.1004 3.93239 20.0056 3.7636 19.8368C3.59482 19.668 3.5 19.4391 3.5 19.2004V4.80039C3.5 4.5617 3.59482 4.33278 3.7636 4.16399C3.93239 3.99521 4.16131 3.90039 4.4 3.90039H8.9C9.61608 3.90039 10.3028 4.18485 10.8092 4.6912C11.3155 5.19755 11.6 5.88431 11.6 6.60039V20.1004ZM11.6 20.1004H13.4V21.9004H11.6V20.1004Z" fill="#0A0D14" style="fill:#0A0D14;fill:color(display-p3 0.0392 0.0510 0.0784);fill-opacity:1;"/>
</svg>
