<svg width="25" height="24" viewBox="0 0 25 24" fill="none" xmlns="http://www.w3.org/2000/svg">
<path d="M4.25 11.25V12.75C4.25 12.75 5.75 12.75 5.75 15.75V16.5C5.75 17.7427 6.75736 18.75 8 18.75H17C18.2427 18.75 19.25 17.7427 19.25 16.5V15.75C19.25 12.75 20.75 12.75 20.75 12.75V11.25C20.75 11.25 19.25 11.25 19.25 8.25V7.5C19.25 6.25736 18.2427 5.25 17 5.25H8C6.75736 5.25 5.75 6.25736 5.75 7.5V8.25C5.75 11.25 4.25 11.25 4.25 11.25ZM19.0056 12C18.9834 12.0209 18.9613 12.0423 18.9394 12.0644C18.1838 12.8198 17.75 14.0188 17.75 15.75V16.5C17.75 16.9142 17.4142 17.25 17 17.25H8C7.58579 17.25 7.25 16.9142 7.25 16.5V15.75C7.25 14.0188 6.81618 12.8198 6.06066 12.0644C6.03865 12.0423 6.01654 12.0209 5.99436 12C6.01654 11.9791 6.03865 11.9577 6.06066 11.9356C6.81618 11.1802 7.25 9.98122 7.25 8.25V7.5C7.25 7.08579 7.58579 6.75 8 6.75H17C17.4142 6.75 17.75 7.08579 17.75 7.5V8.25C17.75 9.98122 18.1838 11.1802 18.9394 11.9356C18.9613 11.9577 18.9834 11.9791 19.0056 12ZM9.875 8.25V15.75H13.625C14.8677 15.75 15.875 14.7427 15.875 13.5C15.875 12.7033 15.4609 12.0033 14.8363 11.6035C15.0201 11.2775 15.125 10.901 15.125 10.5C15.125 9.25736 14.1177 8.25 12.875 8.25H9.875ZM11.375 11.25V9.75H12.875C13.2892 9.75 13.625 10.0858 13.625 10.5C13.625 10.9142 13.2892 11.25 12.875 11.25H11.375ZM11.375 12.75H13.625C14.0392 12.75 14.375 13.0858 14.375 13.5C14.375 13.9142 14.0392 14.25 13.625 14.25H11.375V12.75Z" fill="#0A0D14" style="fill:#0A0D14;fill:color(display-p3 0.0392 0.0510 0.0784);fill-opacity:1;"/>
</svg>
