<svg width="25" height="24" viewBox="0 0 25 24" fill="none" xmlns="http://www.w3.org/2000/svg">
<path d="M7.5675 5.2793C6.60462 5.2793 5.89215 6.12204 5.92404 7.03601C5.95464 7.91408 5.91489 9.05129 5.62858 9.97869C5.34142 10.9088 4.85577 11.498 4.0625 11.5737V12.4277C4.85577 12.5034 5.34142 13.0926 5.62858 14.0227C5.91489 14.9501 5.95464 16.0873 5.92404 16.9654C5.89215 17.8792 6.60462 18.7221 7.56764 18.7221H17.4338C18.3966 18.7221 19.109 17.8794 19.0771 16.9654C19.0465 16.0873 19.0863 14.9501 19.3726 14.0227C19.6599 13.0926 20.1442 12.5034 20.9375 12.4277V11.5737C20.1442 11.498 19.6599 10.9088 19.3726 9.97869C19.0863 9.05143 19.0465 7.91408 19.0771 7.03601C19.109 6.12218 18.3966 5.2793 17.4338 5.2793H7.5675ZM15.5031 13.5542C15.5031 14.8127 14.5645 15.5759 13.0067 15.5759H10.3549C10.279 15.5759 10.2063 15.5458 10.1526 15.4921C10.099 15.4385 10.0689 15.3658 10.0689 15.2899V8.7115C10.0689 8.63564 10.099 8.56289 10.1526 8.50925C10.2063 8.45561 10.279 8.42548 10.3549 8.42548H12.9916C14.2905 8.42548 15.1429 9.12908 15.1429 10.2094C15.1429 10.9676 14.5695 11.6464 13.8388 11.7653V11.8049C14.8335 11.914 15.5031 12.6028 15.5031 13.5542ZM12.7175 9.33215H11.2055V11.4679H12.479C13.4635 11.4679 14.0063 11.0714 14.0063 10.3628C14.0063 9.69883 13.5395 9.33215 12.7175 9.33215ZM11.2055 12.3153V14.6689H12.7731C13.7981 14.6689 14.3411 14.2576 14.3411 13.4847C14.3411 12.7116 13.783 12.3152 12.7072 12.3152L11.2055 12.3153Z" fill="#0A0D14" style="fill:#0A0D14;fill:color(display-p3 0.0392 0.0510 0.0784);fill-opacity:1;"/>
</svg>
