<svg width="25" height="24" viewBox="0 0 25 24" fill="none" xmlns="http://www.w3.org/2000/svg">
<path d="M16.55 3C17.8628 3 19.1219 3.52152 20.0502 4.44982C20.9785 5.37813 21.5 6.63718 21.5 7.95V10.2C21.5 10.9992 21.1526 11.7174 20.6 12.2115V16.5C20.6 17.0584 20.4269 17.6031 20.1046 18.059C19.7822 18.515 19.3264 18.8598 18.8 19.0461V20.1C18.8 20.3387 18.7052 20.5676 18.5364 20.7364C18.3676 20.9052 18.1387 21 17.9 21H7.10002C6.86133 21 6.63241 20.9052 6.46363 20.7364C6.29485 20.5676 6.20002 20.3387 6.20002 20.1V19.047C5.67346 18.8607 5.2176 18.5157 4.89524 18.0596C4.57288 17.6034 4.39986 17.0586 4.40002 16.5V6.6C4.40002 5.64522 4.77931 4.72955 5.45444 4.05442C6.12957 3.37928 7.04525 3 8.00002 3H16.55ZM10.25 11.1H6.20002V16.5C6.20005 16.7204 6.28099 16.9332 6.42747 17.0979C6.57395 17.2627 6.7758 17.3679 6.99472 17.3937L7.10002 17.4H17.9C18.1205 17.4 18.3332 17.319 18.498 17.1726C18.6627 17.0261 18.7679 16.8242 18.7937 16.6053L18.8 16.5V12.9H13.3676C13.2594 13.6497 12.8847 14.3353 12.3121 14.8311C11.7396 15.327 11.0075 15.6 10.25 15.6H7.10002V13.8H10.25C10.5856 13.8 10.9092 13.675 11.1576 13.4493C11.406 13.2237 11.5615 12.9136 11.5937 12.5796L11.6 12.45C11.6 12.1144 11.475 11.7908 11.2494 11.5424C11.0237 11.294 10.7137 11.1385 10.3796 11.1063L10.25 11.1ZM16.55 4.8H8.00002C7.54591 4.79986 7.10851 4.97137 6.77553 5.28015C6.44255 5.58893 6.23858 6.01216 6.20452 6.465L6.20002 6.6V9.3H10.25C10.8462 9.29988 11.4302 9.46896 11.9341 9.78759C12.4381 10.1062 12.8412 10.5613 13.0967 11.1H18.8C19.0205 11.1 19.2332 11.019 19.398 10.8726C19.5627 10.7261 19.6679 10.5242 19.6937 10.3053L19.7 10.2V7.95C19.7001 7.14444 19.3915 6.36947 18.8378 5.78441C18.284 5.19936 17.5272 4.84869 16.7228 4.8045L16.55 4.8Z" fill="#0A0D14" style="fill:#0A0D14;fill:color(display-p3 0.0392 0.0510 0.0784);fill-opacity:1;"/>
</svg>
