<svg width="25" height="24" viewBox="0 0 25 24" fill="none" xmlns="http://www.w3.org/2000/svg">
<path d="M10.25 11.1L10.3796 11.1063C10.6916 11.1362 10.9834 11.2737 11.2051 11.4952C11.4268 11.7167 11.5645 12.0085 11.5946 12.3204L11.6 12.45L11.5937 12.5796C11.5638 12.8916 11.4263 13.1834 11.2048 13.4051C10.9833 13.6268 10.6915 13.7645 10.3796 13.7946L10.25 13.8H7.10001V15.6H10.25C11.78 15.6 13.0553 14.5092 13.3406 13.0629L13.3676 12.9009L18.8 12.9C19.4399 12.9 20.0492 12.7659 20.6 12.5256V16.5C20.6 17.0584 20.4269 17.6031 20.1045 18.059C19.7822 18.515 19.3264 18.8598 18.8 19.0461V20.1C18.8 20.3387 18.7052 20.5676 18.5364 20.7364C18.3676 20.9052 18.1387 21 17.9 21H7.10001C6.86131 21 6.6324 20.9052 6.46361 20.7364C6.29483 20.5676 6.20001 20.3387 6.20001 20.1V19.047C5.67344 18.8607 5.21759 18.5157 4.89522 18.0596C4.57286 17.6034 4.39985 17.0586 4.40001 16.5V12.9C4.40001 12.4226 4.58965 11.9648 4.92722 11.6272C5.26478 11.2896 5.72262 11.1 6.20001 11.1H10.25ZM21.5 7.95V8.4L21.4955 8.5584C21.4567 9.21863 21.177 9.84167 20.7093 10.3093C20.2417 10.777 19.6186 11.0567 18.9584 11.0955L18.8 11.1H13.0967C12.8548 10.5901 12.4803 10.1545 12.0125 9.83886C11.5446 9.52317 11.0006 9.33893 10.4372 9.3054L10.25 9.3H6.20001C5.54391 9.3 4.92921 9.4755 4.39911 9.7824L4.40001 6.6C4.40001 5.64522 4.77929 4.72955 5.45442 4.05442C6.12956 3.37928 7.04523 3 8.00001 3H16.55C17.8628 3 19.1219 3.52152 20.0502 4.44982C20.9785 5.37813 21.5 6.63718 21.5 7.95Z" fill="#0A0D14" style="fill:#0A0D14;fill:color(display-p3 0.0392 0.0510 0.0784);fill-opacity:1;"/>
</svg>
