<svg width="25" height="24" viewBox="0 0 25 24" fill="none" xmlns="http://www.w3.org/2000/svg">
<path d="M5.3 17.4004V14.0704C5.3 13.7123 5.15777 13.369 4.90459 13.1158C4.65142 12.8626 4.30804 12.7204 3.95 12.7204H3.5V11.2804H3.95C4.12728 11.2804 4.30283 11.2455 4.46662 11.1776C4.63041 11.1098 4.77924 11.0103 4.90459 10.885C5.02995 10.7596 5.12939 10.6108 5.19724 10.447C5.26508 10.2832 5.3 10.1077 5.3 9.93039V6.60039C5.3 5.88431 5.58446 5.19755 6.09081 4.6912C6.59716 4.18485 7.28392 3.90039 8 3.90039H8.9V5.70039H8C7.7613 5.70039 7.53239 5.79521 7.3636 5.96399C7.19482 6.13278 7.1 6.3617 7.1 6.60039V10.2904C7.10009 10.6693 6.98061 11.0386 6.75857 11.3456C6.53654 11.6527 6.22327 11.8818 5.8634 12.0004C6.22327 12.119 6.53654 12.3481 6.75857 12.6552C6.98061 12.9622 7.10009 13.3315 7.1 13.7104V17.4004C7.1 17.6391 7.19482 17.868 7.3636 18.0368C7.53239 18.2056 7.7613 18.3004 8 18.3004H8.9V20.1004H8C7.28392 20.1004 6.59716 19.8159 6.09081 19.3096C5.58446 18.8032 5.3 18.1165 5.3 17.4004ZM19.7 14.0704V17.4004C19.7 18.1165 19.4155 18.8032 18.9092 19.3096C18.4028 19.8159 17.7161 20.1004 17 20.1004H16.1V18.3004H17C17.2387 18.3004 17.4676 18.2056 17.6364 18.0368C17.8052 17.868 17.9 17.6391 17.9 17.4004V13.7104C17.8999 13.3315 18.0194 12.9622 18.2414 12.6552C18.4635 12.3481 18.7767 12.119 19.1366 12.0004C18.7767 11.8818 18.4635 11.6527 18.2414 11.3456C18.0194 11.0386 17.8999 10.6693 17.9 10.2904V6.60039C17.9 6.3617 17.8052 6.13278 17.6364 5.96399C17.4676 5.79521 17.2387 5.70039 17 5.70039H16.1V3.90039H17C17.7161 3.90039 18.4028 4.18485 18.9092 4.6912C19.4155 5.19755 19.7 5.88431 19.7 6.60039V9.93039C19.7 10.2884 19.8422 10.6318 20.0954 10.885C20.3486 11.1382 20.692 11.2804 21.05 11.2804H21.5V12.7204H21.05C20.692 12.7204 20.3486 12.8626 20.0954 13.1158C19.8422 13.369 19.7 13.7123 19.7 14.0704Z" fill="#0A0D14" style="fill:#0A0D14;fill:color(display-p3 0.0392 0.0510 0.0784);fill-opacity:1;"/>
</svg>
