<svg width="25" height="24" viewBox="0 0 25 24" fill="none" xmlns="http://www.w3.org/2000/svg">
<path d="M10.25 6C11.0785 6 11.75 6.67157 11.75 7.5V12.6203C11.0793 12.103 10.2245 11.7979 9.2483 11.6352L9.0017 13.1148C10.0372 13.2874 10.6981 13.6146 11.1051 14.0556C11.5025 14.486 11.75 15.1252 11.75 16.125C11.75 17.1605 10.9105 18 9.875 18C8.83947 18 8 17.1605 8 16.125V15.862C8.32255 15.9694 8.65725 16.0574 9.0017 16.1148L9.2483 14.6352C8.69112 14.5423 8.1314 14.3358 7.57182 14.0699C6.93618 13.768 6.5 13.1243 6.5 12.375C6.5 11.749 6.65571 11.2564 6.91906 10.8943C7.17831 10.5378 7.58142 10.2527 8.1819 10.1026L8.75 9.96058V7.5C8.75 6.67157 9.42157 6 10.25 6ZM12.5 5.51564C11.9503 4.89282 11.146 4.5 10.25 4.5C8.59314 4.5 7.25 5.84314 7.25 7.5V8.83067C6.61171 9.08733 6.08857 9.48589 5.70595 10.012C5.21929 10.6811 5 11.501 5 12.375C5 13.5489 5.59674 14.5775 6.5 15.1817V16.125C6.5 17.989 8.01104 19.5 9.875 19.5C10.9352 19.5 11.8812 19.0111 12.5 18.2465C13.1187 19.0111 14.0648 19.5 15.125 19.5C16.989 19.5 18.5 17.989 18.5 16.125V15.1817C19.4033 14.5775 20 13.5489 20 12.375C20 11.501 19.7807 10.6811 19.294 10.012C18.9115 9.48589 18.3883 9.08733 17.75 8.83067V7.5C17.75 5.84314 16.4068 4.5 14.75 4.5C13.854 4.5 13.0497 4.89282 12.5 5.51564ZM17 15.862V16.125C17 17.1605 16.1605 18 15.125 18C14.0895 18 13.25 17.1605 13.25 16.125C13.25 15.1252 13.4975 14.486 13.8948 14.0556C14.302 13.6146 14.9629 13.2874 15.9983 13.1148L15.7517 11.6352C14.7755 11.7979 13.9207 12.103 13.25 12.6203V7.5C13.25 6.67157 13.9215 6 14.75 6C15.5785 6 16.25 6.67157 16.25 7.5V9.96058L16.8181 10.1026C17.4186 10.2527 17.8217 10.5378 18.081 10.8943C18.3443 11.2564 18.5 11.749 18.5 12.375C18.5 13.1243 18.0638 13.768 17.4282 14.0699C16.8686 14.3358 16.3089 14.5423 15.7517 14.6352L15.9983 16.1148C16.3428 16.0574 16.6774 15.9694 17 15.862Z" fill="#0A0D14" style="fill:#0A0D14;fill:color(display-p3 0.0392 0.0510 0.0784);fill-opacity:1;"/>
</svg>
