<svg width="25" height="24" viewBox="0 0 25 24" fill="none" xmlns="http://www.w3.org/2000/svg">
<path d="M11.75 4.90135C11.3088 4.64609 10.7964 4.5 10.25 4.5C8.59314 4.5 7.25 5.84314 7.25 7.5V8.83067C6.61171 9.08733 6.08857 9.48589 5.70595 10.012C5.21929 10.6811 5 11.501 5 12.375C5 13.5461 5.59647 14.5767 6.5 15.1815V16.125C6.5 17.989 8.01104 19.5 9.875 19.5C10.5688 19.5 11.2137 19.2907 11.75 18.9317V16.125C11.75 15.1252 11.5025 14.486 11.1051 14.0556C10.6981 13.6146 10.0372 13.2874 9.0017 13.1148L9.2483 11.6352C10.2245 11.7979 11.0793 12.103 11.75 12.6203V4.90135ZM13.25 4.90135V12.6203C13.9207 12.103 14.7755 11.7979 15.7517 11.6352L15.9983 13.1148C14.9629 13.2874 14.302 13.6146 13.8948 14.0556C13.4975 14.486 13.25 15.1252 13.25 16.125V18.9317C13.7863 19.2907 14.4312 19.5 15.125 19.5C16.989 19.5 18.5 17.989 18.5 16.125V15.1815C19.4035 14.5767 20 13.5461 20 12.375C20 11.501 19.7807 10.6811 19.294 10.012C18.9115 9.48589 18.3883 9.08733 17.75 8.83067V7.5C17.75 5.84314 16.4068 4.5 14.75 4.5C14.2036 4.5 13.6912 4.64609 13.25 4.90135Z" fill="#0A0D14" style="fill:#0A0D14;fill:color(display-p3 0.0392 0.0510 0.0784);fill-opacity:1;"/>
</svg>
