<svg width="25" height="24" viewBox="0 0 25 24" fill="none" xmlns="http://www.w3.org/2000/svg">
<path d="M8 5.7001V3.0001C8 2.7614 8.09482 2.53248 8.2636 2.3637C8.43239 2.19492 8.6613 2.1001 8.9 2.1001H16.1C16.3387 2.1001 16.5676 2.19492 16.7364 2.3637C16.9052 2.53248 17 2.7614 17 3.0001V5.7001H20.6C20.8387 5.7001 21.0676 5.79492 21.2364 5.9637C21.4052 6.13248 21.5 6.3614 21.5 6.6001V19.2001C21.5 19.4388 21.4052 19.6677 21.2364 19.8365C21.0676 20.0053 20.8387 20.1001 20.6 20.1001H4.4C4.16131 20.1001 3.93239 20.0053 3.7636 19.8365C3.59482 19.6677 3.5 19.4388 3.5 19.2001V6.6001C3.5 6.3614 3.59482 6.13248 3.7636 5.9637C3.93239 5.79492 4.16131 5.7001 4.4 5.7001H8ZM5.3 15.6001V18.3001H19.7V15.6001H5.3ZM5.3 13.8001H19.7V7.5001H5.3V13.8001ZM9.8 3.9001V5.7001H15.2V3.9001H9.8ZM11.6 11.1001H13.4V12.9001H11.6V11.1001Z" fill="#0A0D14" style="fill:#0A0D14;fill:color(display-p3 0.0392 0.0510 0.0784);fill-opacity:1;"/>
</svg>
