<svg width="25" height="24" viewBox="0 0 25 24" fill="none" xmlns="http://www.w3.org/2000/svg">
<path d="M11.6 3.90039C12.0968 3.90039 12.5 4.30359 12.5 4.80039V6.60039H17C17.4968 6.60039 17.9 7.00359 17.9 7.50039V12.0004H19.7C20.1968 12.0004 20.6 12.4036 20.6 12.9004V19.2004C20.6 19.6972 20.1968 20.1004 19.7 20.1004H13.4C12.9032 20.1004 12.5 19.6972 12.5 19.2004V17.4004H8.00002C7.50322 17.4004 7.10002 16.9972 7.10002 16.5004V12.0004H5.30002C4.80322 12.0004 4.40002 11.5972 4.40002 11.1004V4.80039C4.40002 4.30359 4.80322 3.90039 5.30002 3.90039H11.6ZM16.1 8.40039H8.90002V15.6004H16.1V8.40039Z" fill="#0A0D14" style="fill:#0A0D14;fill:color(display-p3 0.0392 0.0510 0.0784);fill-opacity:1;"/>
</svg>
