<svg width="25" height="24" viewBox="0 0 25 24" fill="none" xmlns="http://www.w3.org/2000/svg">
<path d="M6.13611 3.83594L7.40871 5.10854C6.73914 5.77641 6.20815 6.57001 5.84627 7.44375C5.48439 8.31749 5.29874 9.25413 5.30001 10.1998C5.30001 12.1888 6.10551 13.9888 7.40871 15.2911L6.13701 16.5628C5.29998 15.7282 4.63613 14.7364 4.18359 13.6445C3.73105 12.5525 3.49874 11.3819 3.50001 10.1998C3.4985 9.01772 3.73061 7.84696 4.183 6.75483C4.63539 5.6627 5.29914 4.67074 6.13611 3.83594ZM18.8639 3.83594C19.7009 4.67074 20.3646 5.6627 20.817 6.75483C21.2694 7.84696 21.5015 9.01772 21.5 10.1998C21.5015 11.382 21.2694 12.5527 20.817 13.6448C20.3646 14.737 19.7009 15.7289 18.8639 16.5637L17.5913 15.2911C18.2609 14.6233 18.7919 13.8297 19.1537 12.9559C19.5156 12.0822 19.7013 11.1455 19.7 10.1998C19.7 8.21084 18.8945 6.41084 17.5913 5.10854L18.863 3.83684L18.8639 3.83594ZM8.68131 6.38114L9.95481 7.65464C9.61997 7.98847 9.35442 8.38518 9.1734 8.82197C8.99238 9.25876 8.89947 9.72702 8.90001 10.1998C8.90001 11.1943 9.30321 12.0943 9.95481 12.745L8.68131 14.0185C8.17913 13.5176 7.78091 12.9223 7.50954 12.267C7.23817 11.6117 7.09899 10.9091 7.10001 10.1998C7.10001 8.70854 7.70481 7.35854 8.68131 6.38114ZM16.3187 6.38114C16.8209 6.88208 17.2191 7.47733 17.4905 8.13267C17.7618 8.78801 17.901 9.49053 17.9 10.1998C17.901 10.9091 17.7618 11.6117 17.4905 12.267C17.2191 12.9223 16.8209 13.5176 16.3187 14.0185L15.0452 12.745C15.38 12.4112 15.6456 12.0145 15.8266 11.5777C16.0076 11.1409 16.1005 10.6727 16.1 10.1998C16.1005 9.72702 16.0076 9.25876 15.8266 8.82197C15.6456 8.38518 15.38 7.98847 15.0452 7.65464L16.3187 6.38114ZM12.5 11.9998C12.0226 11.9998 11.5648 11.8102 11.2272 11.4726C10.8896 11.1351 10.7 10.6772 10.7 10.1998C10.7 9.72245 10.8896 9.26461 11.2272 8.92705C11.5648 8.58948 12.0226 8.39984 12.5 8.39984C12.9774 8.39984 13.4352 8.58948 13.7728 8.92705C14.1104 9.26461 14.3 9.72245 14.3 10.1998C14.3 10.6772 14.1104 11.1351 13.7728 11.4726C13.4352 11.8102 12.9774 11.9998 12.5 11.9998ZM11.6 13.7998H13.4V20.9998H11.6V13.7998Z" fill="#0A0D14" style="fill:#0A0D14;fill:color(display-p3 0.0392 0.0510 0.0784);fill-opacity:1;"/>
</svg>
