<svg width="25" height="24" viewBox="0 0 25 24" fill="none" xmlns="http://www.w3.org/2000/svg">
<path d="M15.6104 9.91041L15.4826 9.78261C14.8803 9.20185 14.14 8.78402 13.3316 8.56851C10.7153 7.86831 8.20248 9.35061 7.48878 12.0155C7.45008 12.1595 7.42938 12.3215 7.39518 12.7274C7.25658 14.4104 6.86058 15.6659 5.77518 16.9394C7.80918 17.7386 10.2194 18.302 12.0518 18.302C13.141 18.3007 14.1995 17.9404 15.0634 17.2769C15.9272 16.6135 16.5484 15.6838 16.8308 14.6318C17.0525 13.8064 17.0566 12.9377 16.8427 12.1103C16.6288 11.2829 16.2043 10.525 15.6104 9.91041ZM13.661 6.79461L18.1061 3.33771C18.2791 3.20326 18.4953 3.13658 18.714 3.15017C18.9327 3.16376 19.139 3.25668 19.2941 3.41151L21.9896 6.10611C22.1446 6.26124 22.2377 6.46767 22.2513 6.6866C22.2649 6.90553 22.1981 7.12188 22.0634 7.29501L18.6074 11.7392C18.8511 12.7332 18.8657 13.7695 18.6502 14.77C18.4346 15.7704 17.9946 16.7088 17.3633 17.5143C16.732 18.3197 15.9259 18.9712 15.0059 19.4195C14.0859 19.8678 13.0761 20.1012 12.0527 20.102C8.89998 20.102 4.84998 18.7502 2.59998 17.4002C6.18198 14.7002 5.34228 13.0712 5.74998 11.5502C6.70218 7.99521 10.1078 5.91891 13.6601 6.79461H13.661ZM16.7327 8.48571C16.7912 8.54241 16.8497 8.60091 16.9064 8.66031L17.9279 9.68091L20.1554 6.81711L18.584 5.24571L15.7202 7.47321L16.7327 8.48571Z" fill="#0A0D14" style="fill:#0A0D14;fill:color(display-p3 0.0392 0.0510 0.0784);fill-opacity:1;"/>
</svg>
