<svg width="25" height="24" viewBox="0 0 25 24" fill="none" xmlns="http://www.w3.org/2000/svg">
<path d="M16.5824 15.5549L18.4904 13.6451L15.6275 10.7813L18.809 7.59979L16.901 5.69089L13.7186 8.87239L10.8548 6.00859L8.94497 7.91749L16.5824 15.5549ZM13.7186 6.32719L16.2638 3.78109C16.4325 3.61236 16.6614 3.51758 16.9001 3.51758C17.1387 3.51758 17.3676 3.61236 17.5364 3.78109L20.7188 6.96349C20.8875 7.13226 20.9823 7.36114 20.9823 7.59979C20.9823 7.83843 20.8875 8.06731 20.7188 8.23609L18.1727 10.7813L20.4002 13.0088C20.4838 13.0924 20.5502 13.1916 20.5955 13.3009C20.6408 13.4101 20.6641 13.5273 20.6641 13.6455C20.6641 13.7638 20.6408 13.8809 20.5955 13.9902C20.5502 14.0994 20.4838 14.1987 20.4002 14.2823L13.4 21.2825C13.2312 21.4512 13.0023 21.546 12.7637 21.546C12.525 21.546 12.2961 21.4512 12.1274 21.2825L3.21737 12.3725C3.04864 12.2037 2.95386 11.9748 2.95386 11.7362C2.95386 11.4975 3.04864 11.2687 3.21737 11.0999L10.2176 4.09969C10.3012 4.01601 10.4004 3.94962 10.5097 3.90433C10.6189 3.85904 10.736 3.83573 10.8543 3.83573C10.9726 3.83573 11.0897 3.85904 11.199 3.90433C11.3082 3.94962 11.4075 4.01601 11.4911 4.09969L13.7186 6.32719Z" fill="#0A0D14" style="fill:#0A0D14;fill:color(display-p3 0.0392 0.0510 0.0784);fill-opacity:1;"/>
</svg>
