<svg width="25" height="24" viewBox="0 0 25 24" fill="none" xmlns="http://www.w3.org/2000/svg">
<path d="M19.7 11.1V8.4H14.3V4.8H10.7V8.4H5.3V11.1H19.7ZM20.6 12.9V20.1C20.6 20.3387 20.5052 20.5676 20.3364 20.7364C20.1676 20.9052 19.9387 21 19.7 21H10.7V15.6H8.9V21H5.3C5.06131 21 4.83239 20.9052 4.6636 20.7364C4.49482 20.5676 4.4 20.3387 4.4 20.1V12.9H3.5V7.5C3.5 7.2613 3.59482 7.03239 3.7636 6.8636C3.93239 6.69482 4.16131 6.6 4.4 6.6H8.9V3.9C8.9 3.66131 8.99482 3.43239 9.1636 3.2636C9.33239 3.09482 9.56131 3 9.8 3H15.2C15.4387 3 15.6676 3.09482 15.8364 3.2636C16.0052 3.43239 16.1 3.66131 16.1 3.9V6.6H20.6C20.8387 6.6 21.0676 6.69482 21.2364 6.8636C21.4052 7.03239 21.5 7.2613 21.5 7.5V12.9H20.6Z" fill="#0A0D14" style="fill:#0A0D14;fill:color(display-p3 0.0392 0.0510 0.0784);fill-opacity:1;"/>
</svg>
