<svg width="25" height="24" viewBox="0 0 25 24" fill="none" xmlns="http://www.w3.org/2000/svg">
<path d="M13.6601 6.79461L18.1052 3.33771C18.2782 3.20326 18.4944 3.13658 18.7131 3.15017C18.9318 3.16376 19.1381 3.25668 19.2932 3.41151L21.9887 6.10611C22.1437 6.26124 22.2368 6.46767 22.2504 6.6866C22.264 6.90553 22.1972 7.12188 22.0625 7.29501L18.6065 11.7392C18.8502 12.7332 18.8648 13.7695 18.6493 14.77C18.4337 15.7704 17.9937 16.7088 17.3624 17.5143C16.7311 18.3197 15.925 18.9712 15.005 19.4195C14.085 19.8678 13.0752 20.1012 12.0518 20.102C8.89998 20.102 4.84998 18.7502 2.59998 17.4002C6.18198 14.7002 5.34228 13.0712 5.74998 11.5502C6.70218 7.99521 10.1078 5.91891 13.6601 6.79461ZM16.7318 8.48571C16.7903 8.54241 16.8488 8.60091 16.9055 8.66031L17.927 9.68091L20.1545 6.81711L18.5831 5.24571L15.7193 7.47321L16.7318 8.48571Z" fill="#0A0D14" style="fill:#0A0D14;fill:color(display-p3 0.0392 0.0510 0.0784);fill-opacity:1;"/>
</svg>
