<svg width="25" height="24" viewBox="0 0 25 24" fill="none" xmlns="http://www.w3.org/2000/svg">
<path d="M9.8 5.70039V11.3461H8V5.70039H6.2V13.8004H18.8V5.70039H9.8ZM19.7 15.6004H5.3V17.4004H19.7V15.6004ZM4.4 13.8004V4.80039C4.4 4.5617 4.49482 4.33278 4.6636 4.16399C4.83239 3.99521 5.06131 3.90039 5.3 3.90039H19.7C19.9387 3.90039 20.1676 3.99521 20.3364 4.16399C20.5052 4.33278 20.6 4.5617 20.6 4.80039V13.8004H21.5V18.3004C21.5 18.5391 21.4052 18.768 21.2364 18.9368C21.0676 19.1056 20.8387 19.2004 20.6 19.2004H13.4V21.9004H11.6V19.2004H4.4C4.16131 19.2004 3.93239 19.1056 3.7636 18.9368C3.59482 18.768 3.5 18.5391 3.5 18.3004V13.8004H4.4Z" fill="#0A0D14" style="fill:#0A0D14;fill:color(display-p3 0.0392 0.0510 0.0784);fill-opacity:1;"/>
</svg>
