<svg width="25" height="24" viewBox="0 0 25 24" fill="none" xmlns="http://www.w3.org/2000/svg">
<path d="M16.1 15.6C17.5913 15.6 18.8 16.8087 18.8 18.3C18.8 19.7913 17.5913 21 16.1 21C14.6087 21 13.4 19.7913 13.4 18.3C13.4 16.8087 14.6087 15.6 16.1 15.6ZM7.1 12C9.089 12 10.7 13.611 10.7 15.6C10.7 17.589 9.089 19.2 7.1 19.2C5.111 19.2 3.5 17.589 3.5 15.6C3.5 13.611 5.111 12 7.1 12ZM16.1 17.4C15.6032 17.4 15.2 17.8032 15.2 18.3C15.2 18.7968 15.6032 19.2 16.1 19.2C16.5968 19.2 17 18.7968 17 18.3C17 17.8032 16.5968 17.4 16.1 17.4ZM7.1 13.8C6.1055 13.8 5.3 14.6055 5.3 15.6C5.3 16.5945 6.1055 17.4 7.1 17.4C8.0945 17.4 8.9 16.5945 8.9 15.6C8.9 14.6055 8.0945 13.8 7.1 13.8ZM14.75 3C17.4842 3 19.7 5.2158 19.7 7.95C19.7 10.6842 17.4842 12.9 14.75 12.9C12.0158 12.9 9.8 10.6842 9.8 7.95C9.8 5.2158 12.0158 3 14.75 3ZM14.75 4.8C13.0103 4.8 11.6 6.2103 11.6 7.95C11.6 9.6897 13.0103 11.1 14.75 11.1C16.4897 11.1 17.9 9.6897 17.9 7.95C17.9 6.2103 16.4897 4.8 14.75 4.8Z" fill="#0A0D14" style="fill:#0A0D14;fill:color(display-p3 0.0392 0.0510 0.0784);fill-opacity:1;"/>
</svg>
