<svg width="25" height="24" viewBox="0 0 25 24" fill="none" xmlns="http://www.w3.org/2000/svg">
<path d="M6.26299 15.6004C6.2207 15.3023 6.19964 15.0016 6.19999 14.7004V13.8004H4.39999V12.0004H6.19999V11.1004C6.19999 10.7944 6.22159 10.4947 6.26299 10.2004H4.39999V8.40045H6.80659C7.35827 7.24081 8.24976 6.2765 9.36259 5.63565L8.41759 4.69065L9.69199 3.41895L11.2067 4.93455C12.0603 4.75617 12.9415 4.75617 13.7951 4.93455L15.3098 3.41895L16.5833 4.69245L15.6383 5.63745C16.7505 6.27797 17.6417 7.2416 18.1934 8.40045H20.6V10.2004H18.737C18.7784 10.4947 18.8 10.7944 18.8 11.1004V12.0004H20.6V13.8004H18.8V14.7004C18.8 15.0064 18.7784 15.3061 18.737 15.6004H20.6V17.4004H18.1934C17.6828 18.4783 16.8766 19.3891 15.8688 20.0268C14.8609 20.6646 13.6927 21.0032 12.5 21.0032C11.3073 21.0032 10.1391 20.6646 9.13122 20.0268C8.12335 19.3891 7.31723 18.4783 6.80659 17.4004H4.39999V15.6004H6.26299ZM9.79999 10.2004V12.0004H15.2V10.2004H9.79999ZM9.79999 13.8004V15.6004H15.2V13.8004H9.79999Z" fill="#0A0D14" style="fill:#0A0D14;fill:color(display-p3 0.0392 0.0510 0.0784);fill-opacity:1;"/>
</svg>
