<svg width="25" height="24" viewBox="0 0 25 24" fill="none" xmlns="http://www.w3.org/2000/svg">
<path d="M13.4 19.11C14.4163 18.9022 15.3296 18.3498 15.9856 17.5463C16.6415 16.7427 16.9999 15.7373 17 14.7V12C17.0012 11.3806 16.874 10.7677 16.6265 10.2H8.3735C8.12597 10.7677 7.99879 11.3806 8 12V14.7C8.00013 15.7373 8.35847 16.7427 9.01443 17.5463C9.67039 18.3498 10.5837 18.9022 11.6 19.11V13.8H13.4V19.11ZM6.6824 17.121C6.36304 16.3539 6.19907 15.531 6.2 14.7H3.5V12.9H6.2V12C6.2 11.4213 6.2783 10.8615 6.4241 10.3296L4.4324 9.1794L5.3324 7.6206L7.1504 8.67C7.20778 8.57848 7.2675 8.48845 7.3295 8.4H17.6705C17.7326 8.4882 17.792 8.5791 17.8496 8.67L19.6676 7.6206L20.5676 9.1794L18.5759 10.3296C18.7217 10.8606 18.8 11.4213 18.8 12V12.9H21.5V14.7H18.8C18.8 15.5577 18.629 16.3758 18.3176 17.121L20.5676 18.4206L19.6676 19.9794L17.3942 18.6672C16.8041 19.3965 16.0583 19.9846 15.2115 20.3882C14.3646 20.7919 13.4381 21.0009 12.5 21C11.5619 21.0009 10.6354 20.7919 9.78853 20.3882C8.94167 19.9846 8.19587 19.3965 7.6058 18.6672L5.3324 19.9794L4.4324 18.4206L6.6824 17.1219V17.121ZM8.9 6.6C8.9 5.64522 9.27928 4.72955 9.95442 4.05442C10.6295 3.37928 11.5452 3 12.5 3C13.4548 3 14.3705 3.37928 15.0456 4.05442C15.7207 4.72955 16.1 5.64522 16.1 6.6H8.9Z" fill="#0A0D14" style="fill:#0A0D14;fill:color(display-p3 0.0392 0.0510 0.0784);fill-opacity:1;"/>
</svg>
