<svg width="25" height="24" viewBox="0 0 25 24" fill="none" xmlns="http://www.w3.org/2000/svg">
<path d="M11.2058 4.93357C12.0594 4.7552 12.9406 4.7552 13.7942 4.93357L15.3089 3.41797L16.5824 4.69147L15.6374 5.63647C16.7501 6.27708 17.6416 7.24107 18.1934 8.40037H20.6V10.2004H18.737C18.7784 10.4947 18.8 10.7944 18.8 11.1004V12.0004H20.6V13.8004H18.8V14.7004C18.8 15.0064 18.7784 15.3061 18.737 15.6004H20.6V17.4004H18.1934C17.6828 18.4782 16.8766 19.389 15.8688 20.0268C14.8609 20.6645 13.6927 21.0031 12.5 21.0031C11.3073 21.0031 10.1391 20.6645 9.13122 20.0268C8.12335 19.389 7.31723 18.4782 6.80659 17.4004H4.39999V15.6004H6.26299C6.2207 15.3022 6.19964 15.0015 6.19999 14.7004V13.8004H4.39999V12.0004H6.19999V11.1004C6.19999 10.7944 6.22159 10.4947 6.26299 10.2004H4.39999V8.40037H6.80659C7.35827 7.24073 8.24976 6.27642 9.36259 5.63557L8.41759 4.69057L9.69199 3.41887L11.2067 4.93447L11.2058 4.93357ZM12.5 6.60037C11.3065 6.60037 10.1619 7.07447 9.31801 7.91839C8.4741 8.7623 7.99999 9.90689 7.99999 11.1004V14.7004C7.99999 15.8938 8.4741 17.0384 9.31801 17.8823C10.1619 18.7263 11.3065 19.2004 12.5 19.2004C13.6935 19.2004 14.8381 18.7263 15.682 17.8823C16.5259 17.0384 17 15.8938 17 14.7004V11.1004C17 9.90689 16.5259 8.7623 15.682 7.91839C14.8381 7.07447 13.6935 6.60037 12.5 6.60037ZM9.79999 13.8004H15.2V15.6004H9.79999V13.8004ZM9.79999 10.2004H15.2V12.0004H9.79999V10.2004Z" fill="#0A0D14" style="fill:#0A0D14;fill:color(display-p3 0.0392 0.0510 0.0784);fill-opacity:1;"/>
</svg>
