<svg width="25" height="24" viewBox="0 0 25 24" fill="none" xmlns="http://www.w3.org/2000/svg">
<path d="M20.6 19.2H22.4V21H2.60001V19.2H4.40001V3.9C4.40001 3.66131 4.49483 3.43239 4.66361 3.2636C4.83239 3.09482 5.06131 3 5.30001 3H19.7C19.9387 3 20.1676 3.09482 20.3364 3.2636C20.5052 3.43239 20.6 3.66131 20.6 3.9V19.2ZM18.8 19.2V4.8H6.20001V19.2H18.8ZM8.90001 11.1H11.6V12.9H8.90001V11.1ZM8.90001 7.5H11.6V9.3H8.90001V7.5ZM8.90001 14.7H11.6V16.5H8.90001V14.7ZM13.4 14.7H16.1V16.5H13.4V14.7ZM13.4 11.1H16.1V12.9H13.4V11.1ZM13.4 7.5H16.1V9.3H13.4V7.5Z" fill="#0A0D14" style="fill:#0A0D14;fill:color(display-p3 0.0392 0.0510 0.0784);fill-opacity:1;"/>
</svg>
