<svg width="25" height="24" viewBox="0 0 25 24" fill="none" xmlns="http://www.w3.org/2000/svg">
<path d="M20.6 18.2999H22.4V20.0999H2.59998V18.2999H4.39998V4.7999C4.39998 4.56121 4.4948 4.33229 4.66358 4.16351C4.83236 3.99472 5.06128 3.8999 5.29998 3.8999H14.3C14.5387 3.8999 14.7676 3.99472 14.9364 4.16351C15.1052 4.33229 15.2 4.56121 15.2 4.7999V18.2999H18.8V11.0999H17V9.2999H19.7C19.9387 9.2999 20.1676 9.39472 20.3364 9.56351C20.5052 9.73229 20.6 9.96121 20.6 10.1999V18.2999ZM6.19998 5.6999V18.2999H13.4V5.6999H6.19998ZM7.99998 11.0999H11.6V12.8999H7.99998V11.0999ZM7.99998 7.4999H11.6V9.2999H7.99998V7.4999Z" fill="#0A0D14" style="fill:#0A0D14;fill:color(display-p3 0.0392 0.0510 0.0784);fill-opacity:1;"/>
</svg>
