<svg width="25" height="24" viewBox="0 0 25 24" fill="none" xmlns="http://www.w3.org/2000/svg">
<path d="M12.5 18.3002H14.3V6.60024L20.0546 9.06624C20.2166 9.13569 20.3546 9.25117 20.4516 9.39837C20.5485 9.54556 20.6001 9.71799 20.6 9.89424V18.3002H22.4V20.1002H2.59998V18.3002H4.39998V6.28524C4.39995 6.11111 4.45045 5.94071 4.54534 5.7947C4.64023 5.64869 4.77544 5.53334 4.93458 5.46264L11.8673 2.38104C11.9359 2.35057 12.011 2.33774 12.0858 2.34371C12.1606 2.34969 12.2327 2.37428 12.2956 2.41524C12.3585 2.45621 12.4101 2.51226 12.4458 2.57827C12.4815 2.64429 12.5001 2.71819 12.5 2.79324V18.3002Z" fill="#0A0D14" style="fill:#0A0D14;fill:color(display-p3 0.0392 0.0510 0.0784);fill-opacity:1;"/>
</svg>
