<svg width="25" height="24" viewBox="0 0 25 24" fill="none" xmlns="http://www.w3.org/2000/svg">
<path d="M20.6 19.2H22.4V21H2.60001V19.2H4.40001V3.9C4.40001 3.66131 4.49483 3.43239 4.66361 3.2636C4.83239 3.09482 5.06131 3 5.30001 3H19.7C19.9387 3 20.1676 3.09482 20.3364 3.2636C20.5052 3.43239 20.6 3.66131 20.6 3.9V19.2ZM8.90001 11.1V12.9H11.6V11.1H8.90001ZM8.90001 7.5V9.3H11.6V7.5H8.90001ZM8.90001 14.7V16.5H11.6V14.7H8.90001ZM13.4 14.7V16.5H16.1V14.7H13.4ZM13.4 11.1V12.9H16.1V11.1H13.4ZM13.4 7.5V9.3H16.1V7.5H13.4Z" fill="#0A0D14" style="fill:#0A0D14;fill:color(display-p3 0.0392 0.0510 0.0784);fill-opacity:1;"/>
</svg>
