<svg width="25" height="24" viewBox="0 0 25 24" fill="none" xmlns="http://www.w3.org/2000/svg">
<path d="M4.39998 18.3V6.33002C4.39992 6.14527 4.45672 5.96498 4.56267 5.81363C4.66861 5.66228 4.81857 5.5472 4.99218 5.48402L13.6961 2.31962C13.7641 2.29487 13.837 2.28689 13.9088 2.29634C13.9805 2.30579 14.0489 2.33239 14.1081 2.3739C14.1674 2.41541 14.2158 2.4706 14.2492 2.53479C14.2826 2.59897 14.3 2.67026 14.3 2.74262V7.20032L19.9844 9.09482C20.1637 9.15453 20.3196 9.26916 20.4301 9.42246C20.5406 9.57576 20.6 9.75995 20.6 9.94892V18.3H22.4V20.1H2.59998V18.3H4.39998ZM6.19998 18.3H12.5V4.66952L6.19998 6.96092V18.3ZM18.8 18.3V10.5978L14.3 9.09752V18.3H18.8Z" fill="#0A0D14" style="fill:#0A0D14;fill:color(display-p3 0.0392 0.0510 0.0784);fill-opacity:1;"/>
</svg>
