<svg width="25" height="24" viewBox="0 0 25 24" fill="none" xmlns="http://www.w3.org/2000/svg">
<path d="M17 19.2004H8V20.1004C8 20.3391 7.90518 20.568 7.7364 20.7368C7.56761 20.9056 7.33869 21.0004 7.1 21.0004H5.3C5.06131 21.0004 4.83239 20.9056 4.6636 20.7368C4.49482 20.568 4.4 20.3391 4.4 20.1004V12.0004H3.5V8.40039H4.4V5.70039C4.4 5.223 4.58964 4.76516 4.92721 4.4276C5.26477 4.09003 5.72261 3.90039 6.2 3.90039H18.8C19.2774 3.90039 19.7352 4.09003 20.0728 4.4276C20.4104 4.76516 20.6 5.223 20.6 5.70039V8.40039H21.5V12.0004H20.6V20.1004C20.6 20.3391 20.5052 20.568 20.3364 20.7368C20.1676 20.9056 19.9387 21.0004 19.7 21.0004H17.9C17.6613 21.0004 17.4324 20.9056 17.2636 20.7368C17.0948 20.568 17 20.3391 17 20.1004V19.2004ZM6.2 5.70039V11.1004H18.8V5.70039H6.2ZM18.8 12.9004H6.2V17.4004H18.8V12.9004ZM8.45 16.5004C8.09196 16.5004 7.74858 16.3582 7.49541 16.105C7.24223 15.8518 7.1 15.5084 7.1 15.1504C7.1 14.7923 7.24223 14.449 7.49541 14.1958C7.74858 13.9426 8.09196 13.8004 8.45 13.8004C8.80804 13.8004 9.15142 13.9426 9.40459 14.1958C9.65777 14.449 9.8 14.7923 9.8 15.1504C9.8 15.5084 9.65777 15.8518 9.40459 16.105C9.15142 16.3582 8.80804 16.5004 8.45 16.5004ZM16.55 16.5004C16.192 16.5004 15.8486 16.3582 15.5954 16.105C15.3422 15.8518 15.2 15.5084 15.2 15.1504C15.2 14.7923 15.3422 14.449 15.5954 14.1958C15.8486 13.9426 16.192 13.8004 16.55 13.8004C16.908 13.8004 17.2514 13.9426 17.5046 14.1958C17.7578 14.449 17.9 14.7923 17.9 15.1504C17.9 15.5084 17.7578 15.8518 17.5046 16.105C17.2514 16.3582 16.908 16.5004 16.55 16.5004Z" fill="#0A0D14" style="fill:#0A0D14;fill:color(display-p3 0.0392 0.0510 0.0784);fill-opacity:1;"/>
</svg>
