<svg width="25" height="24" viewBox="0 0 25 24" fill="none" xmlns="http://www.w3.org/2000/svg">
<path d="M17 19.2004H8V20.1004C8 20.3391 7.90518 20.568 7.7364 20.7368C7.56761 20.9056 7.33869 21.0004 7.1 21.0004H6.2C5.96131 21.0004 5.73239 20.9056 5.5636 20.7368C5.39482 20.568 5.3 20.3391 5.3 20.1004V19.2004H4.4V12.0004H3.5V8.40039H4.4V5.70039C4.4 5.223 4.58964 4.76516 4.92721 4.4276C5.26477 4.09003 5.72261 3.90039 6.2 3.90039H18.8C19.2774 3.90039 19.7352 4.09003 20.0728 4.4276C20.4104 4.76516 20.6 5.223 20.6 5.70039V8.40039H21.5V12.0004H20.6V19.2004H19.7V20.1004C19.7 20.3391 19.6052 20.568 19.4364 20.7368C19.2676 20.9056 19.0387 21.0004 18.8 21.0004H17.9C17.6613 21.0004 17.4324 20.9056 17.2636 20.7368C17.0948 20.568 17 20.3391 17 20.1004V19.2004ZM6.2 5.70039V13.8004H18.8V5.70039H6.2ZM6.2 15.6004V17.4004H9.8V15.6004H6.2ZM15.2 15.6004V17.4004H18.8V15.6004H15.2Z" fill="#0A0D14" style="fill:#0A0D14;fill:color(display-p3 0.0392 0.0510 0.0784);fill-opacity:1;"/>
</svg>
