<svg width="25" height="24" viewBox="0 0 25 24" fill="none" xmlns="http://www.w3.org/2000/svg">
<path d="M12.5 3.89961V5.69961H6.2V13.7996H18.8V11.9996H20.6V19.1996H19.7V20.0996C19.7 20.3383 19.6052 20.5672 19.4364 20.736C19.2676 20.9048 19.0387 20.9996 18.8 20.9996H17.9C17.6613 20.9996 17.4324 20.9048 17.2636 20.736C17.0948 20.5672 17 20.3383 17 20.0996V19.1996H8V20.0996C8 20.3383 7.90518 20.5672 7.7364 20.736C7.56761 20.9048 7.33869 20.9996 7.1 20.9996H6.2C5.96131 20.9996 5.73239 20.9048 5.5636 20.736C5.39482 20.5672 5.3 20.3383 5.3 20.0996V19.1996H4.4V11.9996H3.5V8.39961H4.4V5.69961C4.4 5.22222 4.58964 4.76438 4.92721 4.42682C5.26477 4.08925 5.72261 3.89961 6.2 3.89961H12.5ZM9.8 15.5996H6.2V17.3996H9.8V15.5996ZM18.8 15.5996H15.2V17.3996H18.8V15.5996ZM18.35 2.09961C19.4241 2.09961 20.4543 2.5263 21.2138 3.28583C21.9733 4.04535 22.4 5.07548 22.4 6.14961C22.4 7.22374 21.9733 8.25387 21.2138 9.01339C20.4543 9.77291 19.4241 10.1996 18.35 10.1996C17.2759 10.1996 16.2457 9.77291 15.4862 9.01339C14.7267 8.25387 14.3 7.22374 14.3 6.14961C14.3 5.07548 14.7267 4.04535 15.4862 3.28583C16.2457 2.5263 17.2759 2.09961 18.35 2.09961ZM18.35 6.74991C17.9081 6.74991 17.504 6.90921 17.1899 7.17291L17.0774 7.27641L18.35 8.54991L19.6217 7.27551C19.4547 7.10855 19.2565 6.97617 19.0382 6.88598C18.82 6.79579 18.5861 6.74955 18.35 6.74991ZM18.35 4.34961C17.3096 4.34805 16.306 4.73404 15.5348 5.43231L15.3791 5.58081L16.2287 6.42861C16.5069 6.14951 16.8375 5.92815 17.2016 5.77725C17.5656 5.62635 17.9559 5.54889 18.35 5.54931C19.0793 5.54821 19.7839 5.8139 20.3309 6.29631L20.4713 6.42861L21.32 5.57991C20.9304 5.18927 20.4675 4.87948 19.9578 4.66835C19.4481 4.45721 18.9017 4.34889 18.35 4.34961Z" fill="#0A0D14" style="fill:#0A0D14;fill:color(display-p3 0.0392 0.0510 0.0784);fill-opacity:1;"/>
</svg>
