<svg width="25" height="24" viewBox="0 0 25 24" fill="none" xmlns="http://www.w3.org/2000/svg">
<path d="M12.5 3C14.489 3 16.1 4.611 16.1 6.6V14.7H17C17.495 14.7 17.9 14.295 17.9 13.8V8.4C17.9 7.9032 18.3032 7.5 18.8 7.5C19.2968 7.5 19.7 7.9032 19.7 8.4V13.8C19.7 15.294 18.494 16.5 17 16.5H16.1V19.2H17.9V21H7.09999V19.2H8.89999V13.8H7.99999C6.50869 13.8 5.29999 12.5913 5.29999 11.1V9.3C5.29999 8.8032 5.70319 8.4 6.19999 8.4C6.69679 8.4 7.09999 8.8032 7.09999 9.3V11.1C7.09999 11.595 7.50499 12 7.99999 12H8.89999V6.6C8.89999 4.611 10.511 3 12.5 3ZM12.5 4.8C11.5055 4.8 10.7 5.6055 10.7 6.6V19.2H14.3V6.6C14.3 5.6055 13.4945 4.8 12.5 4.8Z" fill="#0A0D14" style="fill:#0A0D14;fill:color(display-p3 0.0392 0.0510 0.0784);fill-opacity:1;"/>
</svg>
