<svg width="25" height="24" viewBox="0 0 25 24" fill="none" xmlns="http://www.w3.org/2000/svg">
<path d="M13.4 7.5007V11.1007H19.7C19.9387 11.1007 20.1676 11.1955 20.3364 11.3643C20.5052 11.5331 20.6 11.762 20.6 12.0007V19.2007H22.4V21.0007H2.59998V19.2007H4.39998V12.0007C4.39998 11.762 4.4948 11.5331 4.66358 11.3643C4.83236 11.1955 5.06128 11.1007 5.29998 11.1007H11.6V7.5007H13.4ZM14.147 1.5625C14.505 2.18263 14.602 2.91959 14.4167 3.61126C14.2314 4.30292 13.7789 4.89265 13.1588 5.2507L11.6 6.1507C11.2419 5.53057 11.1449 4.79361 11.3302 4.10194C11.5156 3.41028 11.9681 2.82055 12.5882 2.4625L14.147 1.5625Z" fill="#0A0D14" style="fill:#0A0D14;fill:color(display-p3 0.0392 0.0510 0.0784);fill-opacity:1;"/>
</svg>
