<svg width="25" height="24" viewBox="0 0 25 24" fill="none" xmlns="http://www.w3.org/2000/svg">
<path d="M15.65 3C16.1143 2.99995 16.5728 3.10253 16.9928 3.30039C17.4128 3.49825 17.7839 3.7865 18.0794 4.14452C18.375 4.50253 18.5878 4.92146 18.7026 5.37132C18.8173 5.82118 18.8312 6.29084 18.7433 6.7467L18.7298 6.8061C19.5128 7.06729 20.1973 7.56137 20.6918 8.22225C21.1863 8.88312 21.4672 9.67926 21.4969 10.5041C21.5265 11.329 21.3035 12.1432 20.8578 12.8379C20.412 13.5326 19.7647 14.0746 19.0025 14.3913L18.0251 20.2476C17.9902 20.4578 17.8818 20.6487 17.7193 20.7865C17.5568 20.9242 17.3507 20.9999 17.1377 21H7.8623C7.64927 20.9999 7.44317 20.9242 7.28068 20.7865C7.11819 20.6487 7.00984 20.4578 6.9749 20.2476L6.0488 14.6946C5.42594 14.6593 4.83452 14.4093 4.3751 13.9873C3.91567 13.5652 3.61657 12.9971 3.52866 12.3794C3.44074 11.7618 3.56943 11.1328 3.89284 10.5993C4.21625 10.0658 4.71443 9.66073 5.3027 9.453L5.3 9.3C5.2999 8.38867 5.53045 7.49213 5.97017 6.6939C6.4099 5.89567 7.04449 5.22171 7.81484 4.73479C8.58519 4.24787 9.46624 3.96384 10.3759 3.90915C11.2856 3.85446 12.1944 4.03089 13.0175 4.422C13.3036 3.98492 13.6941 3.62601 14.1537 3.37774C14.6134 3.12946 15.1276 2.99964 15.65 3ZM11.6 14.7H9.8V19.2H11.6V14.7ZM15.2 14.7H13.4V19.2H15.2V14.7ZM17.45 12.9C17.7827 12.9 18.1112 12.8262 18.4119 12.684C18.7126 12.5418 18.9781 12.3346 19.1892 12.0775C19.4002 11.8204 19.5516 11.5196 19.6325 11.197C19.7134 10.8743 19.7217 10.5377 19.6568 10.2114C19.592 9.88511 19.4556 9.57726 19.2575 9.31003C19.0593 9.04279 18.8044 8.82281 18.5111 8.66593C18.2177 8.50904 17.8933 8.41916 17.561 8.40274C17.2287 8.38633 16.897 8.44379 16.5896 8.571L16.4321 8.6439C16.0168 8.8579 15.5346 8.90204 15.0873 8.76701C14.6401 8.63199 14.2629 8.32836 14.0354 7.9203L13.9724 7.797C13.6848 7.17099 13.2236 6.64065 12.6435 6.26894C12.0635 5.89724 11.3889 5.69978 10.7 5.7C8.7722 5.7 7.1981 7.2156 7.1045 9.0903L7.1 9.2676L7.1027 9.4206C7.10906 9.77401 7.01123 10.1215 6.82142 10.4196C6.6316 10.7178 6.35819 10.9535 6.0353 11.0973L5.9003 11.1504C5.70046 11.2216 5.53214 11.361 5.42499 11.544C5.31783 11.7271 5.27872 11.9421 5.31453 12.1512C5.35035 12.3603 5.4588 12.55 5.62077 12.687C5.78275 12.824 5.98787 12.8994 6.2 12.9H17.45Z" fill="#0A0D14" style="fill:#0A0D14;fill:color(display-p3 0.0392 0.0510 0.0784);fill-opacity:1;"/>
</svg>
