<svg width="25" height="24" viewBox="0 0 25 24" fill="none" xmlns="http://www.w3.org/2000/svg">
<path d="M8.9 6.60156V10.2007H11.6V6.60156H13.4V10.2007H16.1V6.60156H17.9V10.2007L18.8 10.2016C19.4887 10.2015 20.1514 10.4647 20.6524 10.9371C21.1535 11.4096 21.4551 12.0557 21.4955 12.7432L21.5 12.9016V13.8016C21.5 14.7142 21.1607 15.5476 20.6009 16.1821L20.6 20.1016C20.6 20.3403 20.5052 20.5692 20.3364 20.738C20.1676 20.9067 19.9387 21.0016 19.7 21.0016H5.3C5.06131 21.0016 4.83239 20.9067 4.6636 20.738C4.49482 20.5692 4.4 20.3403 4.4 20.1016V16.1776C3.9164 15.6266 3.61137 14.9418 3.5252 14.2138L3.5054 13.9861L3.5 13.8016V12.9016C3.49996 12.2129 3.76309 11.5502 4.23556 11.0491C4.70802 10.5481 5.3541 10.2465 6.0416 10.2061L6.2 10.2016L7.1 10.2007V6.60156H8.9ZM18.8 12.0016H6.2C5.97956 12.0016 5.7668 12.0825 5.60207 12.229C5.43733 12.3755 5.33209 12.5773 5.3063 12.7963L5.3 12.9016V13.7755L5.3027 13.9078C5.32979 14.366 5.53095 14.7967 5.86505 15.1115C6.19914 15.4264 6.64092 15.6017 7.1 15.6016C7.53106 15.6023 7.94806 15.4483 8.27511 15.1675C8.60216 14.8867 8.81752 14.4978 8.882 14.0716L8.8955 13.9339L8.9 13.7755C8.9324 12.6523 10.5443 12.6118 10.6901 13.6549L10.6991 13.7755L10.7027 13.9078C10.7279 14.3649 10.9263 14.7953 11.2576 15.1113C11.5889 15.4273 12.0282 15.6052 12.486 15.6087C12.9438 15.6123 13.3858 15.4412 13.722 15.1304C14.0581 14.8196 14.2632 14.3924 14.2955 13.9357L14.3063 13.6819C14.4179 12.6415 15.9821 12.6415 16.0937 13.6819L16.1045 13.9357C16.1367 14.3899 16.3398 14.815 16.673 15.1255C17.0062 15.4359 17.4446 15.6085 17.9 15.6085C18.3554 15.6085 18.7938 15.4359 19.127 15.1255C19.4602 14.815 19.6633 14.3899 19.6955 13.9357L19.7 13.8016V12.9016C19.7 12.6811 19.619 12.4684 19.4726 12.3036C19.3261 12.1389 19.1242 12.0337 18.9053 12.0079L18.8 12.0016ZM8 2.10156C9.188 2.88546 9.4967 3.98076 9.3041 4.70076C9.21149 5.04663 8.98527 5.34154 8.67522 5.52062C8.36516 5.6997 7.99667 5.74828 7.6508 5.65566C7.30493 5.56305 7.01002 5.33683 6.83094 5.02678C6.65186 4.71672 6.60329 4.34823 6.6959 4.00236C6.965 3.00336 8 3.45156 8 2.10156ZM12.5 2.10156C13.688 2.88546 13.9967 3.98076 13.8041 4.70076C13.7115 5.04663 13.4853 5.34154 13.1752 5.52062C12.8652 5.6997 12.4967 5.74828 12.1508 5.65566C11.8049 5.56305 11.51 5.33683 11.3309 5.02678C11.1519 4.71672 11.1033 4.34823 11.1959 4.00236C11.465 3.00336 12.5 3.45156 12.5 2.10156ZM17 2.10156C18.188 2.88546 18.4967 3.98076 18.3041 4.70076C18.2115 5.04663 17.9853 5.34154 17.6752 5.52062C17.3652 5.6997 16.9967 5.74828 16.6508 5.65566C16.3049 5.56305 16.01 5.33683 15.8309 5.02678C15.6519 4.71672 15.6033 4.34823 15.6959 4.00236C15.965 3.00336 17 3.45156 17 2.10156Z" fill="#0A0D14" style="fill:#0A0D14;fill:color(display-p3 0.0392 0.0510 0.0784);fill-opacity:1;"/>
</svg>
