<svg width="25" height="24" viewBox="0 0 25 24" fill="none" xmlns="http://www.w3.org/2000/svg">
<path d="M10.25 5.25V3.75H8.75V5.25H5.75C5.33579 5.25 5 5.58579 5 6V18C5 18.4142 5.33579 18.75 5.75 18.75H19.25C19.6642 18.75 20 18.4142 20 18V6C20 5.58579 19.6642 5.25 19.25 5.25H16.25V3.75H14.75V5.25H10.25ZM6.5 9H18.5V17.25H6.5V9ZM10.9089 10.4732L12.4999 12.0644L14.0908 10.4732L15.1516 11.5339L13.5606 13.125L15.1515 14.7158L14.0909 15.7766L12.4999 14.1856L10.9088 15.7766L9.84824 14.7158L11.4392 13.125L9.8482 11.5339L10.9089 10.4732Z" fill="#0A0D14" style="fill:#0A0D14;fill:color(display-p3 0.0392 0.0510 0.0784);fill-opacity:1;"/>
</svg>
