<svg width="25" height="24" viewBox="0 0 25 24" fill="none" xmlns="http://www.w3.org/2000/svg">
<path d="M17 3.9001H20.6C20.8387 3.9001 21.0676 3.99492 21.2364 4.1637C21.4052 4.33248 21.5 4.5614 21.5 4.8001V19.2001C21.5 19.4388 21.4052 19.6677 21.2364 19.8365C21.0676 20.0053 20.8387 20.1001 20.6 20.1001H4.4C4.16131 20.1001 3.93239 20.0053 3.7636 19.8365C3.59482 19.6677 3.5 19.4388 3.5 19.2001V4.8001C3.5 4.5614 3.59482 4.33248 3.7636 4.1637C3.93239 3.99492 4.16131 3.9001 4.4 3.9001H8V2.1001H9.8V3.9001H15.2V2.1001H17V3.9001ZM19.7 11.1001H5.3V18.3001H19.7V11.1001ZM15.2 5.7001H9.8V7.5001H8V5.7001H5.3V9.3001H19.7V5.7001H17V7.5001H15.2V5.7001ZM7.1 12.9001H8.9V14.7001H7.1V12.9001ZM11.6 12.9001H13.4V14.7001H11.6V12.9001ZM16.1 12.9001H17.9V14.7001H16.1V12.9001Z" fill="#0A0D14" style="fill:#0A0D14;fill:color(display-p3 0.0392 0.0510 0.0784);fill-opacity:1;"/>
</svg>
