<svg width="25" height="24" viewBox="0 0 25 24" fill="none" xmlns="http://www.w3.org/2000/svg">
<path d="M10.25 5.25V3.75H8.75V5.25H5.75C5.33579 5.25 5 5.58579 5 6V18C5 18.4142 5.33579 18.75 5.75 18.75H19.25C19.6642 18.75 20 18.4142 20 18V6C20 5.58579 19.6642 5.25 19.25 5.25H16.25V3.75H14.75V5.25H10.25ZM6.5 10.5H18.5V17.25H6.5V10.5ZM6.5 6.75H8.75V7.5H10.25V6.75H14.75V7.5H16.25V6.75H18.5V9H6.5V6.75ZM10.909 11.2233L12.5 12.8144L14.0909 11.2233L15.1516 12.2839L13.5606 13.8751L15.1516 15.4659L14.091 16.5266L12.5 14.9357L10.9089 16.5266L9.84832 15.4658L11.4393 13.8751L9.84827 12.2839L10.909 11.2233Z" fill="#0A0D14" style="fill:#0A0D14;fill:color(display-p3 0.0392 0.0510 0.0784);fill-opacity:1;"/>
</svg>
