<svg width="25" height="24" viewBox="0 0 25 24" fill="none" xmlns="http://www.w3.org/2000/svg">
<path d="M10.5452 5.69844L8.7452 7.49844H5.3V18.2984H19.7V7.49844H16.2548L14.4548 5.69844H10.5452ZM9.8 3.89844H15.2L17 5.69844H20.6C20.8387 5.69844 21.0676 5.79326 21.2364 5.96204C21.4052 6.13082 21.5 6.35974 21.5 6.59844V19.1984C21.5 19.4371 21.4052 19.6661 21.2364 19.8348C21.0676 20.0036 20.8387 20.0984 20.6 20.0984H4.4C4.16131 20.0984 3.93239 20.0036 3.7636 19.8348C3.59482 19.6661 3.5 19.4371 3.5 19.1984V6.59844C3.5 6.35974 3.59482 6.13082 3.7636 5.96204C3.93239 5.79326 4.16131 5.69844 4.4 5.69844H8L9.8 3.89844ZM12.5 17.3984C11.1872 17.3984 9.92813 16.8769 8.99982 15.9486C8.07152 15.0203 7.55 13.7613 7.55 12.4484C7.55 11.1356 8.07152 9.87656 8.99982 8.94826C9.92813 8.01995 11.1872 7.49844 12.5 7.49844C13.8128 7.49844 15.0719 8.01995 16.0002 8.94826C16.9285 9.87656 17.45 11.1356 17.45 12.4484C17.45 13.7613 16.9285 15.0203 16.0002 15.9486C15.0719 16.8769 13.8128 17.3984 12.5 17.3984ZM12.5 15.5984C13.3354 15.5984 14.1366 15.2666 14.7274 14.6758C15.3181 14.0851 15.65 13.2839 15.65 12.4484C15.65 11.613 15.3181 10.8118 14.7274 10.2211C14.1366 9.63031 13.3354 9.29844 12.5 9.29844C11.6646 9.29844 10.8634 9.63031 10.2726 10.2211C9.68187 10.8118 9.35 11.613 9.35 12.4484C9.35 13.2839 9.68187 14.0851 10.2726 14.6758C10.8634 15.2666 11.6646 15.5984 12.5 15.5984Z" fill="#0A0D14" style="fill:#0A0D14;fill:color(display-p3 0.0392 0.0510 0.0784);fill-opacity:1;"/>
</svg>
