<svg width="25" height="24" viewBox="0 0 25 24" fill="none" xmlns="http://www.w3.org/2000/svg">
<path d="M3.50002 6.6C3.50002 6.1032 3.90952 5.7 4.39282 5.7H20.6072C21.1004 5.7 21.5 6.1005 21.5 6.6V19.2C21.5 19.6968 21.0905 20.1 20.6072 20.1H4.39282C4.27503 20.0998 4.15845 20.0763 4.04977 20.0309C3.94109 19.9855 3.84244 19.9191 3.75949 19.8354C3.67654 19.7518 3.61091 19.6526 3.56639 19.5436C3.52186 19.4345 3.49931 19.3178 3.50002 19.2V6.6ZM14.3 17.4C15.4935 17.4 16.6381 16.9259 17.482 16.082C18.3259 15.2381 18.8 14.0935 18.8 12.9C18.8 11.7065 18.3259 10.5619 17.482 9.71802C16.6381 8.87411 15.4935 8.4 14.3 8.4C13.1065 8.4 11.9619 8.87411 11.118 9.71802C10.2741 10.5619 9.80002 11.7065 9.80002 12.9C9.80002 14.0935 10.2741 15.2381 11.118 16.082C11.9619 16.9259 13.1065 17.4 14.3 17.4ZM5.30002 7.5V9.3H8.00002V7.5H5.30002ZM5.30002 3H10.7V4.8H5.30002V3Z" fill="#0A0D14" style="fill:#0A0D14;fill:color(display-p3 0.0392 0.0510 0.0784);fill-opacity:1;"/>
</svg>
