<svg width="25" height="24" viewBox="0 0 25 24" fill="none" xmlns="http://www.w3.org/2000/svg">
<path d="M3.5 4.79214C3.50165 4.55578 3.59621 4.32955 3.76326 4.16233C3.93031 3.99511 4.15644 3.90032 4.3928 3.89844H20.6072C21.1004 3.89844 21.5 4.29894 21.5 4.79214V19.2047C21.4984 19.4411 21.4038 19.6673 21.2367 19.8345C21.0697 20.0018 20.8436 20.0966 20.6072 20.0984H4.3928C4.15593 20.0982 3.92885 20.0039 3.76144 19.8364C3.59403 19.6688 3.5 19.4416 3.5 19.2047V4.79214ZM12.5 14.6984C11.7839 14.6984 11.0972 14.414 10.5908 13.9076C10.0845 13.4013 9.8 12.7145 9.8 11.9984C9.8 11.2824 10.0845 10.5956 10.5908 10.0892C11.0972 9.5829 11.7839 9.29844 12.5 9.29844C13.2161 9.29844 13.9028 9.5829 14.4092 10.0892C14.9155 10.5956 15.2 11.2824 15.2 11.9984C15.2 12.7145 14.9155 13.4013 14.4092 13.9076C13.9028 14.414 13.2161 14.6984 12.5 14.6984ZM12.5 16.4984C13.6935 16.4984 14.8381 16.0243 15.682 15.1804C16.5259 14.3365 17 13.1919 17 11.9984C17 10.805 16.5259 9.66037 15.682 8.81646C14.8381 7.97254 13.6935 7.49844 12.5 7.49844C11.3065 7.49844 10.1619 7.97254 9.31802 8.81646C8.47411 9.66037 8 10.805 8 11.9984C8 13.1919 8.47411 14.3365 9.31802 15.1804C10.1619 16.0243 11.3065 16.4984 12.5 16.4984ZM17.9 5.69844V7.49844H19.7V5.69844H17.9Z" fill="#0A0D14" style="fill:#0A0D14;fill:color(display-p3 0.0392 0.0510 0.0784);fill-opacity:1;"/>
</svg>
