<svg width="25" height="24" viewBox="0 0 25 24" fill="none" xmlns="http://www.w3.org/2000/svg">
<path d="M19.3274 20.0994H4.40004C4.16134 20.0994 3.93242 20.0046 3.76364 19.8358C3.59486 19.667 3.50004 19.4381 3.50004 19.1994V6.59942C3.50004 6.36073 3.59486 6.13181 3.76364 5.96303C3.93242 5.79425 4.16134 5.69942 4.40004 5.69942H4.92744L2.95374 3.72663L4.22724 2.45312L22.0463 20.2731L20.7728 21.5457L19.3274 20.0994ZM6.72744 7.49942H5.30004V18.2994H17.5274L15.5654 16.3374C14.6137 17.0907 13.4185 17.468 12.2068 17.3977C10.9951 17.3274 9.85151 16.8144 8.99329 15.9562C8.13507 15.098 7.62206 13.9543 7.55177 12.7427C7.48148 11.531 7.85881 10.3357 8.61203 9.38402L6.72744 7.49942ZM9.89903 10.6719C9.48412 11.2783 9.29422 12.0106 9.36221 12.7422C9.43019 13.4738 9.75177 14.1586 10.2713 14.6782C10.7908 15.1977 11.4757 15.5193 12.2072 15.5873C12.9388 15.6552 13.6712 15.4653 14.2775 15.0504L9.89903 10.6719ZM21.5 17.2059L19.7 15.4059V7.49942H16.2548L14.4548 5.69942H10.5452L10.2689 5.97572L8.99634 4.70312L9.80003 3.89942H15.2L17 5.69942H20.6C20.8387 5.69942 21.0676 5.79425 21.2364 5.96303C21.4052 6.13181 21.5 6.36073 21.5 6.59942V17.2068V17.2059ZM11.8367 7.54443C12.5922 7.44218 13.361 7.51579 14.0833 7.75951C14.8056 8.00323 15.4618 8.41049 16.0008 8.94952C16.5399 9.48855 16.9471 10.1448 17.1908 10.8671C17.4346 11.5894 17.5082 12.3582 17.4059 13.1136L15.3017 11.0094C15.0005 10.4255 14.5248 9.9499 13.9409 9.64862L11.8367 7.54443Z" fill="#0A0D14" style="fill:#0A0D14;fill:color(display-p3 0.0392 0.0510 0.0784);fill-opacity:1;"/>
</svg>
