<svg width="25" height="24" viewBox="0 0 25 24" fill="none" xmlns="http://www.w3.org/2000/svg">
<path d="M10.5452 5.69844L8.7452 7.49844H5.3V18.2984H19.7V7.49844H16.2548L14.4548 5.69844H10.5452ZM9.8 3.89844H15.2L17 5.69844H20.6C20.8387 5.69844 21.0676 5.79326 21.2364 5.96204C21.4052 6.13082 21.5 6.35974 21.5 6.59844V19.1984C21.5 19.4371 21.4052 19.6661 21.2364 19.8348C21.0676 20.0036 20.8387 20.0984 20.6 20.0984H4.4C4.16131 20.0984 3.93239 20.0036 3.7636 19.8348C3.59482 19.6661 3.5 19.4371 3.5 19.1984V6.59844C3.5 6.35974 3.59482 6.13082 3.7636 5.96204C3.93239 5.79326 4.16131 5.69844 4.4 5.69844H8L9.8 3.89844ZM10.376 7.97544C11.4363 7.47076 12.6415 7.35946 13.7763 7.66141C14.911 7.96336 15.9015 8.6589 16.5708 9.62379C17.24 10.5887 17.5445 11.7601 17.4297 12.9287C17.3149 14.0974 16.7885 15.1872 15.9443 16.0034L14.075 12.5384H15.6491L15.65 12.4484C15.6501 11.923 15.5187 11.4059 15.2679 10.9443C15.0171 10.4826 14.6548 10.091 14.214 9.80507C13.7732 9.51918 13.2678 9.3481 12.744 9.3074C12.2202 9.2667 11.6945 9.35767 11.2148 9.57204L10.376 7.97544ZM14.5853 16.9394C13.5276 17.4317 12.33 17.5345 11.2038 17.2298C10.0776 16.925 9.09531 16.2323 8.43014 15.2738C7.76497 14.3154 7.45972 13.1528 7.56825 11.9911C7.67677 10.8295 8.1921 9.7436 9.0233 8.92494L10.925 12.4484H9.35C9.34983 12.9704 9.47937 13.4842 9.72697 13.9437C9.97458 14.4032 10.3325 14.794 10.7685 15.0809C11.2045 15.3678 11.705 15.5419 12.225 15.5874C12.745 15.633 13.2681 15.5486 13.7474 15.3419L14.5853 16.9385V16.9394Z" fill="#0A0D14" style="fill:#0A0D14;fill:color(display-p3 0.0392 0.0510 0.0784);fill-opacity:1;"/>
</svg>
