<svg width="25" height="24" viewBox="0 0 25 24" fill="none" xmlns="http://www.w3.org/2000/svg">
<path d="M19.3274 20.0994H4.40004C4.16134 20.0994 3.93242 20.0046 3.76364 19.8358C3.59486 19.667 3.50004 19.4381 3.50004 19.1994V6.59942C3.50004 6.36073 3.59486 6.13181 3.76364 5.96303C3.93242 5.79425 4.16134 5.69942 4.40004 5.69942H4.92744L2.95374 3.72663L4.22724 2.45312L22.0463 20.2731L20.7728 21.5457L19.3274 20.0994ZM8.50044 9.27243C7.56969 10.2996 7.06961 11.6454 7.10373 13.0312C7.13785 14.4169 7.70356 15.7365 8.68372 16.7166C9.66389 17.6968 10.9834 18.2625 12.3692 18.2966C13.7549 18.3307 15.1007 17.8307 16.1279 16.8999L14.8526 15.6246C14.1645 16.2196 13.2767 16.532 12.3676 16.499C11.4586 16.466 10.5957 16.0902 9.95251 15.447C9.30929 14.8037 8.93341 13.9409 8.90045 13.0318C8.86749 12.1228 9.17989 11.2349 9.77484 10.5468L8.49954 9.27243H8.50044ZM21.5 17.2059L17.8595 13.5654C17.961 12.7499 17.875 11.922 17.6081 11.1447C17.3412 10.3674 16.9004 9.66133 16.3192 9.08022C15.7381 8.4991 15.032 8.05829 14.2548 7.79136C13.4775 7.52444 12.6496 7.43844 11.834 7.53992L8.99544 4.70222L9.80003 3.89942H15.2L17 5.69942H20.6C20.8387 5.69942 21.0676 5.79425 21.2364 5.96303C21.4052 6.13181 21.5 6.36073 21.5 6.59942V17.2068V17.2059ZM13.8572 9.56313C14.302 9.74473 14.706 10.0132 15.0457 10.3529C15.3853 10.6926 15.6538 11.0966 15.8354 11.5413L13.8572 9.56313Z" fill="#0A0D14" style="fill:#0A0D14;fill:color(display-p3 0.0392 0.0510 0.0784);fill-opacity:1;"/>
</svg>
