<svg width="25" height="24" viewBox="0 0 25 24" fill="none" xmlns="http://www.w3.org/2000/svg">
<path d="M9.8 3.89844H15.2L17 5.69844H20.6C20.8387 5.69844 21.0676 5.79326 21.2364 5.96204C21.4052 6.13082 21.5 6.35974 21.5 6.59844V19.1984C21.5 19.4371 21.4052 19.6661 21.2364 19.8348C21.0676 20.0036 20.8387 20.0984 20.6 20.0984H4.4C4.16131 20.0984 3.93239 20.0036 3.7636 19.8348C3.59482 19.6661 3.5 19.4371 3.5 19.1984V6.59844C3.5 6.35974 3.59482 6.13082 3.7636 5.96204C3.93239 5.79326 4.16131 5.69844 4.4 5.69844H8L9.8 3.89844ZM14.9156 17.7296L14.1101 16.1186C13.5612 16.3931 12.9513 16.5227 12.3382 16.4951C11.7252 16.4675 11.1293 16.2837 10.6073 15.9611C10.0853 15.6384 9.65439 15.1877 9.35558 14.6517C9.05677 14.1156 8.89994 13.5121 8.9 12.8984H10.7009L8.7551 9.00774C7.82409 9.90296 7.24479 11.1022 7.12228 12.388C6.99978 13.6738 7.34218 14.9609 8.08739 16.0158C8.83259 17.0707 9.93122 17.8236 11.184 18.1379C12.4368 18.4522 13.7607 18.307 14.9156 17.7287V17.7296ZM10.0844 8.06724L10.8899 9.67824C11.4388 9.40377 12.0487 9.27417 12.6618 9.30175C13.2748 9.32933 13.8707 9.51317 14.3927 9.83581C14.9147 10.1585 15.3456 10.6092 15.6444 11.1452C15.9432 11.6812 16.1001 12.2848 16.1 12.8984H14.2991L16.244 16.7891C17.175 15.8939 17.7543 14.6946 17.8768 13.4089C17.9993 12.1231 17.6569 10.836 16.9117 9.78108C16.1665 8.72615 15.0679 7.97326 13.8151 7.65899C12.5623 7.34471 11.2384 7.48987 10.0835 8.06814L10.0844 8.06724Z" fill="#0A0D14" style="fill:#0A0D14;fill:color(display-p3 0.0392 0.0510 0.0784);fill-opacity:1;"/>
</svg>
