<svg width="25" height="24" viewBox="0 0 25 24" fill="none" xmlns="http://www.w3.org/2000/svg">
<path d="M10.5443 20.7867L14.579 13.8L17.7578 19.3053C16.2274 20.4099 14.3873 21.003 12.5 21C11.8286 21 11.1743 20.9262 10.5443 20.7867ZM8.80096 20.208C7.64464 19.6852 6.61157 18.9244 5.76918 17.9754C4.92679 17.0263 4.29402 15.9102 3.91216 14.7H11.9807L8.80096 20.2071V20.208ZM3.54496 12.9C3.41617 11.6375 3.55679 10.3621 3.95753 9.15802C4.35827 7.95393 5.01001 6.84861 5.86966 5.91511L9.90076 12.9H3.54496ZM7.24306 4.69471C8.77317 3.5903 10.6129 2.99721 12.5 3.00001C13.1714 3.00001 13.8257 3.07381 14.4557 3.21331L10.421 10.2L7.24306 4.69471ZM16.199 3.79201C17.3553 4.31481 18.3884 5.07557 19.2307 6.02466C20.0731 6.97375 20.7059 8.08981 21.0878 9.30001H13.0193L16.199 3.79291V3.79201ZM21.455 11.1C21.5838 12.3625 21.4431 13.6379 21.0424 14.842C20.6417 16.0461 19.9899 17.1514 19.1303 18.0849L15.0992 11.1H21.4568H21.455Z" fill="#0A0D14" style="fill:#0A0D14;fill:color(display-p3 0.0392 0.0510 0.0784);fill-opacity:1;"/>
</svg>
