<svg width="25" height="24" viewBox="0 0 25 24" fill="none" xmlns="http://www.w3.org/2000/svg">
<path d="M10.5722 18.939L12.5 15.6H6.263C7.20757 17.2336 8.75448 18.4322 10.5722 18.939ZM5.5268 13.8H9.3824L6.263 8.3991C5.63001 9.49345 5.29778 10.7358 5.3 12C5.3 12.621 5.3792 13.224 5.5268 13.8ZM7.4555 6.8628L9.3815 10.2L12.5 4.8C10.6127 4.79754 8.80034 5.53864 7.4555 6.8628ZM14.4278 5.061L12.5 8.4H18.737C17.7924 6.76638 16.2455 5.56776 14.4278 5.061ZM19.4732 10.2H15.6176L18.7361 15.6009C19.3694 14.5066 19.702 13.2643 19.7 12C19.7 11.379 19.6208 10.776 19.4732 10.2ZM17.5445 17.1372L15.6185 13.8L12.5 19.2C14.3873 19.2025 16.1997 18.4614 17.5445 17.1372ZM12.5 21C7.5293 21 3.5 16.9707 3.5 12C3.5 7.0293 7.5293 3 12.5 3C17.4707 3 21.5 7.0293 21.5 12C21.5 16.9707 17.4707 21 12.5 21ZM13.5395 10.2H11.4605L10.4219 12L11.4605 13.8H13.5395L14.5781 12L13.5395 10.2Z" fill="#0A0D14" style="fill:#0A0D14;fill:color(display-p3 0.0392 0.0510 0.0784);fill-opacity:1;"/>
</svg>
