<svg width="25" height="24" viewBox="0 0 25 24" fill="none" xmlns="http://www.w3.org/2000/svg">
<path d="M3.5 4.79214C3.50165 4.55578 3.59621 4.32955 3.76326 4.16233C3.93031 3.99511 4.15644 3.90032 4.3928 3.89844H20.6072C21.1004 3.89844 21.5 4.29894 21.5 4.79214V19.2047C21.4984 19.4411 21.4038 19.6673 21.2367 19.8345C21.0697 20.0018 20.8436 20.0966 20.6072 20.0984H4.3928C4.15593 20.0982 3.92885 20.0039 3.76144 19.8364C3.59403 19.6688 3.5 19.4416 3.5 19.2047V4.79214ZM5.3 5.69844V18.2984H19.7V5.69844H5.3ZM12.5 14.6984C13.2161 14.6984 13.9028 14.414 14.4092 13.9076C14.9155 13.4013 15.2 12.7145 15.2 11.9984C15.2 11.2824 14.9155 10.5956 14.4092 10.0892C13.9028 9.5829 13.2161 9.29844 12.5 9.29844C11.7839 9.29844 11.0972 9.5829 10.5908 10.0892C10.0845 10.5956 9.8 11.2824 9.8 11.9984C9.8 12.7145 10.0845 13.4013 10.5908 13.9076C11.0972 14.414 11.7839 14.6984 12.5 14.6984ZM12.5 16.4984C11.3065 16.4984 10.1619 16.0243 9.31802 15.1804C8.47411 14.3365 8 13.1919 8 11.9984C8 10.805 8.47411 9.66037 9.31802 8.81646C10.1619 7.97254 11.3065 7.49844 12.5 7.49844C13.6935 7.49844 14.8381 7.97254 15.682 8.81646C16.5259 9.66037 17 10.805 17 11.9984C17 13.1919 16.5259 14.3365 15.682 15.1804C14.8381 16.0243 13.6935 16.4984 12.5 16.4984ZM17 6.59844H18.8V8.39844H17V6.59844Z" fill="#0A0D14" style="fill:#0A0D14;fill:color(display-p3 0.0392 0.0510 0.0784);fill-opacity:1;"/>
</svg>
