<svg width="25" height="24" viewBox="0 0 25 24" fill="none" xmlns="http://www.w3.org/2000/svg">
<path d="M10.3787 9.99677C9.20711 8.8252 9.20711 6.92571 10.3787 5.75413L12.5 3.63281L14.6213 5.75413C15.7929 6.92571 15.7929 8.8252 14.6213 9.99677C14.2279 10.3902 13.7524 10.6515 13.25 10.7807V11.9982H17C17.4142 11.9982 17.75 12.3339 17.75 12.7482V17.9982H19.25V19.4982H5.75V17.9982H7.25V12.7482C7.25 12.3339 7.58579 11.9982 8 11.9982H11.75V10.7807C11.2476 10.6515 10.7721 10.3902 10.3787 9.99677ZM11.4394 6.81479C10.8536 7.40058 10.8536 8.35033 11.4394 8.93611C12.0251 9.5219 12.9749 9.5219 13.5606 8.93611C14.1465 8.35033 14.1465 7.40058 13.5606 6.81479L12.5 5.75413L11.4394 6.81479Z" fill="#0A0D14" style="fill:#0A0D14;fill:color(display-p3 0.0392 0.0510 0.0784);fill-opacity:1;"/>
</svg>
