<svg width="25" height="24" viewBox="0 0 25 24" fill="none" xmlns="http://www.w3.org/2000/svg">
<path d="M19.5003 4.99949C21.609 7.10819 21.609 10.5273 19.5003 12.636L13.1373 18.9999C11.0277 21.1086 7.60856 21.1086 5.49986 18.9999C3.39116 16.8912 3.39116 13.4721 5.49986 11.3634L11.8629 4.99949C13.9725 2.89079 17.3916 2.89079 19.5003 4.99949ZM14.4099 15.1812L9.31856 10.0899L6.77246 12.6369C5.36666 14.0418 5.36666 16.3215 6.77246 17.7273C8.17826 19.1331 10.458 19.1331 11.8638 17.7273L14.4099 15.1803V15.1812ZM18.2277 6.27209C16.8219 4.86629 14.5422 4.86629 13.1364 6.27209L10.5921 8.81729L15.6834 13.9086L18.2286 11.3634C19.6344 9.95759 19.6344 7.67789 18.2286 6.27209H18.2277Z" fill="#0A0D14" style="fill:#0A0D14;fill:color(display-p3 0.0392 0.0510 0.0784);fill-opacity:1;"/>
</svg>
