<svg width="25" height="24" viewBox="0 0 25 24" fill="none" xmlns="http://www.w3.org/2000/svg">
<path d="M18.8 20.0996H6.2V20.9996C6.2 21.2383 6.10518 21.4673 5.9364 21.636C5.76761 21.8048 5.53869 21.8996 5.3 21.8996H4.4C4.16131 21.8996 3.93239 21.8048 3.7636 21.636C3.59482 21.4673 3.5 21.2383 3.5 20.9996V11.9996L5.6753 8.37354C5.83522 8.10701 6.06145 7.88642 6.33194 7.73328C6.60243 7.58013 6.90796 7.49964 7.2188 7.49964H17.7812C18.092 7.49964 18.3976 7.58013 18.6681 7.73328C18.9386 7.88642 19.1648 8.10701 19.3247 8.37354L21.5 11.9996V20.9996C21.5 21.2383 21.4052 21.4673 21.2364 21.636C21.0676 21.8048 20.8387 21.8996 20.6 21.8996H19.7C19.4613 21.8996 19.2324 21.8048 19.0636 21.636C18.8948 21.4673 18.8 21.2383 18.8 20.9996V20.0996ZM19.7 13.7996H5.3V18.2996H19.7V13.7996ZM5.5988 11.9996H19.4012L17.7812 9.29964H7.2188L5.5988 11.9996ZM6.596 4.29564L7.55 3.33984L8.504 4.29384C8.69284 4.48263 8.82146 4.72317 8.87358 4.98506C8.9257 5.24695 8.89899 5.51841 8.79683 5.76511C8.69466 6.01181 8.52163 6.22268 8.29961 6.37104C8.0776 6.5194 7.81657 6.59858 7.54955 6.59858C7.28253 6.59858 7.0215 6.5194 6.79949 6.37104C6.57747 6.22268 6.40444 6.01181 6.30227 5.76511C6.20011 5.51841 6.1734 5.24695 6.22552 4.98506C6.27764 4.72317 6.40626 4.48263 6.5951 4.29384L6.596 4.29564ZM11.546 4.29564L12.5 3.33984L13.454 4.29384C13.6428 4.48263 13.7715 4.72317 13.8236 4.98506C13.8757 5.24695 13.849 5.51841 13.7468 5.76511C13.6447 6.01181 13.4716 6.22268 13.2496 6.37104C13.0276 6.5194 12.7666 6.59858 12.4995 6.59858C12.2325 6.59858 11.9715 6.5194 11.7495 6.37104C11.5275 6.22268 11.3544 6.01181 11.2523 5.76511C11.1501 5.51841 11.1234 5.24695 11.1755 4.98506C11.2276 4.72317 11.3563 4.48263 11.5451 4.29384L11.546 4.29564ZM16.496 4.29564L17.45 3.33984L18.404 4.29384C18.5928 4.48263 18.7215 4.72317 18.7736 4.98506C18.8257 5.24695 18.799 5.51841 18.6968 5.76511C18.5947 6.01181 18.4216 6.22268 18.1996 6.37104C17.9776 6.5194 17.7166 6.59858 17.4495 6.59858C17.1825 6.59858 16.9215 6.5194 16.6995 6.37104C16.4775 6.22268 16.3044 6.01181 16.2023 5.76511C16.1001 5.51841 16.0734 5.24695 16.1255 4.98506C16.1776 4.72317 16.3063 4.48263 16.4951 4.29384L16.496 4.29564ZM7.55 17.3996C7.19196 17.3996 6.84858 17.2574 6.59541 17.0042C6.34223 16.7511 6.2 16.4077 6.2 16.0496C6.2 15.6916 6.34223 15.3482 6.59541 15.095C6.84858 14.8419 7.19196 14.6996 7.55 14.6996C7.90804 14.6996 8.25142 14.8419 8.50459 15.095C8.75777 15.3482 8.9 15.6916 8.9 16.0496C8.9 16.4077 8.75777 16.7511 8.50459 17.0042C8.25142 17.2574 7.90804 17.3996 7.55 17.3996ZM17.45 17.3996C17.092 17.3996 16.7486 17.2574 16.4954 17.0042C16.2422 16.7511 16.1 16.4077 16.1 16.0496C16.1 15.6916 16.2422 15.3482 16.4954 15.095C16.7486 14.8419 17.092 14.6996 17.45 14.6996C17.808 14.6996 18.1514 14.8419 18.4046 15.095C18.6578 15.3482 18.8 15.6916 18.8 16.0496C18.8 16.4077 18.6578 16.7511 18.4046 17.0042C18.1514 17.2574 17.808 17.3996 17.45 17.3996Z" fill="#0A0D14" style="fill:#0A0D14;fill:color(display-p3 0.0392 0.0510 0.0784);fill-opacity:1;"/>
</svg>
