<svg width="25" height="24" viewBox="0 0 25 24" fill="none" xmlns="http://www.w3.org/2000/svg">
<path d="M18.8 18.4H6.2V19.3C6.2 19.5387 6.10518 19.7676 5.9364 19.9364C5.76761 20.1052 5.53869 20.2 5.3 20.2H4.4C4.16131 20.2 3.93239 20.1052 3.7636 19.9364C3.59482 19.7676 3.5 19.5387 3.5 19.3V10.3L5.732 5.0908C5.87089 4.7668 6.10186 4.49071 6.39625 4.2968C6.69064 4.10289 7.03549 3.99969 7.388 4H17.612C17.9642 4.00004 18.3087 4.10341 18.6027 4.2973C18.8967 4.49119 19.1274 4.76708 19.2662 5.0908L21.5 10.3V19.3C21.5 19.5387 21.4052 19.7676 21.2364 19.9364C21.0676 20.1052 20.8387 20.2 20.6 20.2H19.7C19.4613 20.2 19.2324 20.1052 19.0636 19.9364C18.8948 19.7676 18.8 19.5387 18.8 19.3V18.4ZM19.7 12.1H5.3V16.6H19.7V12.1ZM5.4584 10.3H19.5416L17.6129 5.8H7.388L5.4593 10.3H5.4584ZM7.55 15.7C7.19196 15.7 6.84858 15.5578 6.59541 15.3046C6.34223 15.0514 6.2 14.708 6.2 14.35C6.2 13.992 6.34223 13.6486 6.59541 13.3954C6.84858 13.1422 7.19196 13 7.55 13C7.90804 13 8.25142 13.1422 8.50459 13.3954C8.75777 13.6486 8.9 13.992 8.9 14.35C8.9 14.708 8.75777 15.0514 8.50459 15.3046C8.25142 15.5578 7.90804 15.7 7.55 15.7ZM17.45 15.7C17.092 15.7 16.7486 15.5578 16.4954 15.3046C16.2422 15.0514 16.1 14.708 16.1 14.35C16.1 13.992 16.2422 13.6486 16.4954 13.3954C16.7486 13.1422 17.092 13 17.45 13C17.808 13 18.1514 13.1422 18.4046 13.3954C18.6578 13.6486 18.8 13.992 18.8 14.35C18.8 14.708 18.6578 15.0514 18.4046 15.3046C18.1514 15.5578 17.808 15.7 17.45 15.7Z" fill="#0A0D14" style="fill:#0A0D14;fill:color(display-p3 0.0392 0.0510 0.0784);fill-opacity:1;"/>
</svg>
