<svg width="25" height="24" viewBox="0 0 25 24" fill="none" xmlns="http://www.w3.org/2000/svg">
<path d="M18.8 19.2008H6.2V20.1008C6.2 20.3395 6.10518 20.5684 5.9364 20.7372C5.76761 20.906 5.53869 21.0008 5.3 21.0008H4.4C4.16131 21.0008 3.93239 20.906 3.7636 20.7372C3.59482 20.5684 3.5 20.3395 3.5 20.1008V12.0008L5.7617 5.96898C5.89034 5.62581 6.12067 5.33007 6.4219 5.12132C6.72313 4.91256 7.08091 4.80074 7.4474 4.80078H17.5526C17.9191 4.80074 18.2769 4.91256 18.5781 5.12132C18.8793 5.33007 19.1097 5.62581 19.2383 5.96898L21.5 12.0008V20.1008C21.5 20.3395 21.4052 20.5684 21.2364 20.7372C21.0676 20.906 20.8387 21.0008 20.6 21.0008H19.7C19.4613 21.0008 19.2324 20.906 19.0636 20.7372C18.8948 20.5684 18.8 20.3395 18.8 20.1008V19.2008ZM5.4224 12.0008H19.5776L17.5526 6.60078H7.4474L5.4224 12.0008ZM7.55 16.5008C7.90804 16.5008 8.25142 16.3585 8.50459 16.1054C8.75777 15.8522 8.9 15.5088 8.9 15.1508C8.9 14.7927 8.75777 14.4494 8.50459 14.1962C8.25142 13.943 7.90804 13.8008 7.55 13.8008C7.19196 13.8008 6.84858 13.943 6.59541 14.1962C6.34223 14.4494 6.2 14.7927 6.2 15.1508C6.2 15.5088 6.34223 15.8522 6.59541 16.1054C6.84858 16.3585 7.19196 16.5008 7.55 16.5008ZM17.45 16.5008C17.808 16.5008 18.1514 16.3585 18.4046 16.1054C18.6578 15.8522 18.8 15.5088 18.8 15.1508C18.8 14.7927 18.6578 14.4494 18.4046 14.1962C18.1514 13.943 17.808 13.8008 17.45 13.8008C17.092 13.8008 16.7486 13.943 16.4954 14.1962C16.2422 14.4494 16.1 14.7927 16.1 15.1508C16.1 15.5088 16.2422 15.8522 16.4954 16.1054C16.7486 16.3585 17.092 16.5008 17.45 16.5008Z" fill="#0A0D14" style="fill:#0A0D14;fill:color(display-p3 0.0392 0.0510 0.0784);fill-opacity:1;"/>
</svg>
