<svg width="25" height="24" viewBox="0 0 25 24" fill="none" xmlns="http://www.w3.org/2000/svg">
<path d="M14.4548 3.90039C14.9318 3.90039 15.3899 4.08939 15.7274 4.42779L20.0726 8.77299C20.4101 9.11049 20.6 9.56859 20.6 10.0456V16.5004H22.4V18.3004H15.0866C14.6861 19.8538 13.2776 21.0004 11.6 21.0004C9.9224 21.0004 8.513 19.8538 8.1134 18.3004H4.4C3.9032 18.3004 3.5 17.8972 3.5 17.4004V5.70039C3.5 4.70589 4.3055 3.90039 5.3 3.90039H14.4548ZM11.6 15.6004C10.6055 15.6004 9.8 16.4059 9.8 17.4004C9.8 18.3949 10.6055 19.2004 11.6 19.2004C12.5945 19.2004 13.4 18.3949 13.4 17.4004C13.4 16.4059 12.5945 15.6004 11.6 15.6004ZM14.4548 5.70039H5.3V16.5004H8.1134C8.513 14.9479 9.9224 13.8004 11.6 13.8004C13.2776 13.8004 14.687 14.9479 15.0866 16.5004H18.8V10.0456L14.4548 5.70039ZM14.3 7.50039V12.9004H7.1V7.50039H14.3ZM12.5 9.30039H8.9V11.1004H12.5V9.30039Z" fill="#0A0D14" style="fill:#0A0D14;fill:color(display-p3 0.0392 0.0510 0.0784);fill-opacity:1;"/>
</svg>
