<svg width="25" height="24" viewBox="0 0 25 24" fill="none" xmlns="http://www.w3.org/2000/svg">
<path d="M5.75366 6.00195H19.2537C19.6679 6.00195 20.0037 6.33774 20.0037 6.75195V17.2519C20.0037 17.6662 19.6679 18.0019 19.2537 18.0019H5.75366C5.33945 18.0019 5.00366 17.6662 5.00366 17.2519V6.75195C5.00366 6.33774 5.33945 6.00195 5.75366 6.00195ZM8.37528 7.49976H6.50028V9.37476C7.53581 9.37476 8.37528 8.53529 8.37528 7.49976ZM16.6253 7.49976C16.6253 8.53529 17.4648 9.37476 18.5003 9.37476V7.49976H16.6253ZM6.50028 14.6248V16.4998H8.37528C8.37528 15.4642 7.53581 14.6248 6.50028 14.6248ZM16.6253 16.4998H18.5003V14.6248C17.4648 14.6248 16.6253 15.4642 16.6253 16.4998ZM12.5003 14.9998C14.1571 14.9998 15.5003 13.6566 15.5003 11.9998C15.5003 10.3429 14.1571 8.99976 12.5003 8.99976C10.8434 8.99976 9.50028 10.3429 9.50028 11.9998C9.50028 13.6566 10.8434 14.9998 12.5003 14.9998Z" fill="#0A0D14" style="fill:#0A0D14;fill:color(display-p3 0.0392 0.0510 0.0784);fill-opacity:1;"/>
</svg>
