<svg width="25" height="24" viewBox="0 0 25 24" fill="none" xmlns="http://www.w3.org/2000/svg">
<path d="M12.5003 14.9998C14.1571 14.9998 15.5003 13.6566 15.5003 11.9998C15.5003 10.3429 14.1571 8.99976 12.5003 8.99976C10.8434 8.99976 9.50028 10.3429 9.50028 11.9998C9.50028 13.6566 10.8434 14.9998 12.5003 14.9998ZM19.2537 6.00195H5.75366C5.33945 6.00195 5.00366 6.33774 5.00366 6.75195V17.2519C5.00366 17.6662 5.33945 18.0019 5.75366 18.0019H19.2537C19.6679 18.0019 20.0037 17.6662 20.0037 17.2519V6.75195C20.0037 6.33774 19.6679 6.00195 19.2537 6.00195ZM6.50366 14.7345V9.26504C7.34799 9.01251 8.01377 8.34645 8.26591 7.50195H16.7347C16.9875 8.3487 17.6561 9.01607 18.5037 9.26706V14.7325C17.6547 14.9839 16.9852 15.6531 16.7333 16.5019H8.26723C8.01608 15.6554 7.34946 14.9875 6.50366 14.7345Z" fill="#0A0D14" style="fill:#0A0D14;fill:color(display-p3 0.0392 0.0510 0.0784);fill-opacity:1;"/>
</svg>
