<svg width="25" height="24" viewBox="0 0 25 24" fill="none" xmlns="http://www.w3.org/2000/svg">
<path d="M4.4 3.90039H20.6C20.8387 3.90039 21.0676 3.99521 21.2364 4.16399C21.4052 4.33278 21.5 4.5617 21.5 4.80039V19.2004C21.5 19.4391 21.4052 19.668 21.2364 19.8368C21.0676 20.0056 20.8387 20.1004 20.6 20.1004H15.2C15.2002 19.4978 15.1541 18.896 15.0623 18.3004H19.7V5.70039H5.3V8.53809C4.7044 8.44626 4.10264 8.40022 3.5 8.40039V4.80039C3.5 4.5617 3.59482 4.33278 3.7636 4.16399C3.93239 3.99521 4.16131 3.90039 4.4 3.90039ZM13.4 20.1004H11.6C11.6 17.9521 10.7466 15.8919 9.22756 14.3728C7.70852 12.8538 5.64825 12.0004 3.5 12.0004V10.2004C8.9675 10.2004 13.4 14.6329 13.4 20.1004ZM9.8 20.1004H8C8 19.5094 7.8836 18.9243 7.65746 18.3783C7.43131 17.8323 7.09984 17.3363 6.68198 16.9184C6.26412 16.5005 5.76804 16.1691 5.22208 15.9429C4.67611 15.7168 4.09095 15.6004 3.5 15.6004V13.8004C5.17086 13.8004 6.77329 14.4641 7.95477 15.6456C9.13625 16.8271 9.8 18.4295 9.8 20.1004ZM6.2 20.1004H3.5V17.4004C4.21608 17.4004 4.90284 17.6849 5.40919 18.1912C5.91554 18.6976 6.2 19.3843 6.2 20.1004ZM14.6357 16.5004C14.0639 14.7385 13.083 13.1371 11.7732 11.8272C10.4633 10.5174 8.86191 9.53646 7.1 8.96469V7.50039H17.9V16.5004H14.6357Z" fill="#0A0D14" style="fill:#0A0D14;fill:color(display-p3 0.0392 0.0510 0.0784);fill-opacity:1;"/>
</svg>
