<svg width="25" height="24" viewBox="0 0 25 24" fill="none" xmlns="http://www.w3.org/2000/svg">
<path d="M12.5 3L16.3628 6.8628L17.3177 5.9088L16.2089 4.8H19.7V8.2911L18.5903 7.1814L17.6363 8.1363L21.5 12L17.6372 15.8637L18.5903 16.8168L19.7 15.7089V19.2H16.208L17.3168 18.0903L16.3637 17.1363L12.5 21L8.6363 17.1363L7.6814 18.0903L8.7911 19.2H5.3V15.708L6.4079 16.8168L7.3628 15.8628L3.5 12L7.3637 8.1363L6.4079 7.1814L5.3 8.2911V4.8H8.7911L7.6814 5.907L8.6372 6.8628L12.5 3ZM12.5 13.2717L9.908 15.8628L12.5 18.4548L15.0911 15.8628L12.5 13.2708V13.2717ZM8.6363 9.408L6.0452 12L8.6354 14.5902L11.2274 11.9982L8.6363 9.4089V9.408ZM16.3628 9.408L13.7735 11.9982L16.3637 14.5893L18.9548 12L16.3628 9.4089V9.408ZM12.5 5.5452L9.9098 8.1363L12.5009 10.7265L15.0902 8.1354L12.5 5.5452Z" fill="#0A0D14" style="fill:#0A0D14;fill:color(display-p3 0.0392 0.0510 0.0784);fill-opacity:1;"/>
</svg>
