<svg width="25" height="24" viewBox="0 0 25 24" fill="none" xmlns="http://www.w3.org/2000/svg">
<path d="M12.5 12.954L16.523 16.9779L12.5 21L8.477 16.977L12.5 12.954ZM5.3 15.708L8.7911 19.2H5.3V15.708ZM19.7 15.708V19.2H16.208L19.7 15.708ZM17.477 7.977L21.5 12L17.4779 16.023L13.4549 12L17.477 7.977ZM7.523 7.977L11.546 12L7.5221 16.0221L3.5 12L7.523 7.977ZM12.5 3L16.5221 7.0221L12.5 11.0451L8.477 7.023L12.5 3ZM8.7911 4.8L5.2991 8.2911L5.3 4.8H8.7911ZM19.7 4.8V8.2911L16.208 4.7991L19.7 4.8Z" fill="#0A0D14" style="fill:#0A0D14;fill:color(display-p3 0.0392 0.0510 0.0784);fill-opacity:1;"/>
</svg>
