<svg width="25" height="24" viewBox="0 0 25 24" fill="none" xmlns="http://www.w3.org/2000/svg">
<path d="M14.3 18.3004H15.2V20.1004H3.5V18.3004H4.4V4.80039C4.4 4.5617 4.49482 4.33278 4.6636 4.16399C4.83239 3.99521 5.06131 3.90039 5.3 3.90039H13.4C13.6387 3.90039 13.8676 3.99521 14.0364 4.16399C14.2052 4.33278 14.3 4.5617 14.3 4.80039V12.0004H16.1C16.5774 12.0004 17.0352 12.19 17.3728 12.5276C17.7104 12.8652 17.9 13.323 17.9 13.8004V17.4004C17.9 17.6391 17.9948 17.868 18.1636 18.0368C18.3324 18.2056 18.5613 18.3004 18.8 18.3004C19.0387 18.3004 19.2676 18.2056 19.4364 18.0368C19.6052 17.868 19.7 17.6391 19.7 17.4004V11.1004H17.9C17.6613 11.1004 17.4324 11.0056 17.2636 10.8368C17.0948 10.668 17 10.4391 17 10.2004V6.97299L15.5087 5.48169L16.7813 4.20909L21.2363 8.66409C21.32 8.74756 21.3864 8.84673 21.4316 8.95593C21.4769 9.06513 21.5001 9.18219 21.5 9.30039V17.4004C21.5 18.1165 21.2155 18.8032 20.7092 19.3096C20.2028 19.8159 19.5161 20.1004 18.8 20.1004C18.0839 20.1004 17.3972 19.8159 16.8908 19.3096C16.3845 18.8032 16.1 18.1165 16.1 17.4004V13.8004H14.3V18.3004ZM6.2 18.3004H12.5V5.70039H6.2V18.3004ZM9.8 11.1004H12.5L8.9 16.5004V12.9004H6.2L9.8 7.50039V11.1004Z" fill="#0A0D14" style="fill:#0A0D14;fill:color(display-p3 0.0392 0.0510 0.0784);fill-opacity:1;"/>
</svg>
