<svg width="25" height="24" viewBox="0 0 25 24" fill="none" xmlns="http://www.w3.org/2000/svg">
<path d="M21.5 12.0004H19.7V5.70039H5.3V17.7469L6.8867 16.5004H12.5V18.3004H7.5095L3.5 21.4504V4.80039C3.5 4.5617 3.59482 4.33278 3.7636 4.16399C3.93239 3.99521 4.16131 3.90039 4.4 3.90039H20.6C20.8387 3.90039 21.0676 3.99521 21.2364 4.16399C21.4052 4.33278 21.5 4.5617 21.5 4.80039V12.0004ZM14.4305 18.3643C14.2554 17.7336 14.2554 17.0672 14.4305 16.4365L13.553 15.9298L14.453 14.371L15.3314 14.8777C15.7896 14.4106 16.3665 14.0773 17 13.9138V12.9004H18.8V13.9138C19.4435 14.0794 20.0177 14.4178 20.4686 14.8777L21.347 14.371L22.247 15.9298L21.3695 16.4365C21.5446 17.0672 21.5446 17.7336 21.3695 18.3643L22.247 18.871L21.347 20.4298L20.4686 19.9231C20.0177 20.3821 19.4426 20.7214 18.8 20.887V21.9004H17V20.887C16.3665 20.7235 15.7896 20.3902 15.3314 19.9231L14.453 20.4298L13.553 18.871L14.4305 18.3643ZM17.9 19.2004C18.3774 19.2004 18.8352 19.0107 19.1728 18.6732C19.5104 18.3356 19.7 17.8778 19.7 17.4004C19.7 16.923 19.5104 16.4652 19.1728 16.1276C18.8352 15.79 18.3774 15.6004 17.9 15.6004C17.4226 15.6004 16.9648 15.79 16.6272 16.1276C16.2896 16.4652 16.1 16.923 16.1 17.4004C16.1 17.8778 16.2896 18.3356 16.6272 18.6732C16.9648 19.0107 17.4226 19.2004 17.9 19.2004Z" fill="#0A0D14" style="fill:#0A0D14;fill:color(display-p3 0.0392 0.0510 0.0784);fill-opacity:1;"/>
</svg>
