<svg width="25" height="24" viewBox="0 0 25 24" fill="none" xmlns="http://www.w3.org/2000/svg">
<path d="M10.7 3.90039H14.3C16.2096 3.90039 18.0409 4.65896 19.3912 6.00922C20.7414 7.35948 21.5 9.19083 21.5 11.1004C21.5 13.0099 20.7414 14.8413 19.3912 16.1916C18.0409 17.5418 16.2096 18.3004 14.3 18.3004V21.4504C9.8 19.6504 3.5 16.9504 3.5 11.1004C3.5 9.19083 4.25857 7.35948 5.60883 6.00922C6.95909 4.65896 8.79044 3.90039 10.7 3.90039ZM12.5 16.5004H14.3C15.0091 16.5004 15.7113 16.3607 16.3665 16.0893C17.0216 15.818 17.6169 15.4202 18.1184 14.9188C18.6198 14.4173 19.0176 13.822 19.2889 13.1669C19.5603 12.5117 19.7 11.8095 19.7 11.1004C19.7 10.3913 19.5603 9.68906 19.2889 9.0339C19.0176 8.37874 18.6198 7.78345 18.1184 7.28201C17.6169 6.78058 17.0216 6.38282 16.3665 6.11144C15.7113 5.84007 15.0091 5.70039 14.3 5.70039H10.7C9.26783 5.70039 7.89432 6.26932 6.88162 7.28201C5.86893 8.29471 5.3 9.66822 5.3 11.1004C5.3 14.3494 7.5158 16.4698 12.5 18.7324V16.5004Z" fill="#0A0D14" style="fill:#0A0D14;fill:color(display-p3 0.0392 0.0510 0.0784);fill-opacity:1;"/>
</svg>
