<svg width="25" height="24" viewBox="0 0 25 24" fill="none" xmlns="http://www.w3.org/2000/svg">
<path d="M7.5095 18.3004L3.5 21.4504V4.80039C3.5 4.5617 3.59482 4.33278 3.7636 4.16399C3.93239 3.99521 4.16131 3.90039 4.4 3.90039H20.6C20.8387 3.90039 21.0676 3.99521 21.2364 4.16399C21.4052 4.33278 21.5 4.5617 21.5 4.80039V17.4004C21.5 17.6391 21.4052 17.868 21.2364 18.0368C21.0676 18.2056 20.8387 18.3004 20.6 18.3004H7.5095ZM9.0305 12.0643L8.153 12.571L9.053 14.1298L9.9314 13.6231C10.3823 14.0821 10.9574 14.4214 11.6 14.587V15.6004H13.4V14.587C14.0335 14.4235 14.6104 14.0902 15.0686 13.6231L15.947 14.1298L16.847 12.571L15.9695 12.0643C16.1446 11.4336 16.1446 10.7672 15.9695 10.1365L16.847 9.62979L15.947 8.07099L15.0686 8.57769C14.6104 8.11059 14.0335 7.77732 13.4 7.61379V6.60039H11.6V7.61379C10.9665 7.77732 10.3896 8.11059 9.9314 8.57769L9.053 8.07099L8.153 9.62979L9.0305 10.1365C8.85543 10.7672 8.85543 11.4336 9.0305 12.0643ZM12.5 12.9004C12.0226 12.9004 11.5648 12.7107 11.2272 12.3732C10.8896 12.0356 10.7 11.5778 10.7 11.1004C10.7 10.623 10.8896 10.1652 11.2272 9.8276C11.5648 9.49003 12.0226 9.30039 12.5 9.30039C12.9774 9.30039 13.4352 9.49003 13.7728 9.8276C14.1104 10.1652 14.3 10.623 14.3 11.1004C14.3 11.5778 14.1104 12.0356 13.7728 12.3732C13.4352 12.7107 12.9774 12.9004 12.5 12.9004Z" fill="#0A0D14" style="fill:#0A0D14;fill:color(display-p3 0.0392 0.0510 0.0784);fill-opacity:1;"/>
</svg>
