<svg width="25" height="24" viewBox="0 0 25 24" fill="none" xmlns="http://www.w3.org/2000/svg">
<path d="M6.13611 18.3639C5.29914 17.5291 4.63539 16.5371 4.183 15.445C3.73061 14.3529 3.4985 13.1821 3.50001 12C3.50001 7.0293 7.52931 3 12.5 3C17.4707 3 21.5 7.0293 21.5 12C21.5 16.9707 17.4707 21 12.5 21H3.50001L6.13611 18.3639ZM8.90001 12.9C8.90001 13.8548 9.27929 14.7705 9.95442 15.4456C10.6296 16.1207 11.5452 16.5 12.5 16.5C13.4548 16.5 14.3705 16.1207 15.0456 15.4456C15.7207 14.7705 16.1 13.8548 16.1 12.9H8.90001Z" fill="#0A0D14" style="fill:#0A0D14;fill:color(display-p3 0.0392 0.0510 0.0784);fill-opacity:1;"/>
</svg>
