<svg width="25" height="24" viewBox="0 0 25 24" fill="none" xmlns="http://www.w3.org/2000/svg">
<path d="M8.26191 19.9416L3.50001 21L4.55841 16.2381C3.86139 14.9343 3.49778 13.4784 3.50001 12C3.50001 7.0293 7.52931 3 12.5 3C17.4707 3 21.5 7.0293 21.5 12C21.5 16.9707 17.4707 21 12.5 21C11.0216 21.0022 9.56567 20.6386 8.26191 19.9416ZM8.52291 18.0399L9.11061 18.3549C10.1533 18.9121 11.3178 19.2025 12.5 19.2C13.924 19.2 15.3161 18.7777 16.5001 17.9866C17.6841 17.1954 18.607 16.0709 19.1519 14.7553C19.6969 13.4397 19.8395 11.992 19.5617 10.5953C19.2839 9.19869 18.5981 7.91577 17.5912 6.90883C16.5842 5.90189 15.3013 5.21616 13.9047 4.93835C12.508 4.66053 11.0603 4.80312 9.74469 5.34807C8.42906 5.89302 7.30457 6.81586 6.51343 7.99989C5.72228 9.18393 5.30001 10.576 5.30001 12C5.30001 13.2006 5.59251 14.3562 6.14601 15.3894L6.46011 15.9771L5.87061 18.6294L8.52291 18.0399ZM8.00001 12H9.80001C9.80001 12.7161 10.0845 13.4028 10.5908 13.9092C11.0972 14.4155 11.7839 14.7 12.5 14.7C13.2161 14.7 13.9029 14.4155 14.4092 13.9092C14.9155 13.4028 15.2 12.7161 15.2 12H17C17 13.1935 16.5259 14.3381 15.682 15.182C14.8381 16.0259 13.6935 16.5 12.5 16.5C11.3065 16.5 10.1619 16.0259 9.31803 15.182C8.47412 14.3381 8.00001 13.1935 8.00001 12Z" fill="#0A0D14" style="fill:#0A0D14;fill:color(display-p3 0.0392 0.0510 0.0784);fill-opacity:1;"/>
</svg>
