<svg width="25" height="24" viewBox="0 0 25 24" fill="none" xmlns="http://www.w3.org/2000/svg">
<path d="M7.5095 18.3004L3.5 21.4504V4.80039C3.5 4.5617 3.59482 4.33278 3.7636 4.16399C3.93239 3.99521 4.16131 3.90039 4.4 3.90039H20.6C20.8387 3.90039 21.0676 3.99521 21.2364 4.16399C21.4052 4.33278 21.5 4.5617 21.5 4.80039V17.4004C21.5 17.6391 21.4052 17.868 21.2364 18.0368C21.0676 18.2056 20.8387 18.3004 20.6 18.3004H7.5095ZM5.3 17.7469L6.8867 16.5004H19.7V5.70039H5.3V17.7469ZM13.4 11.1004H16.1L12.5 14.7004L8.9 11.1004H11.6V7.50039H13.4V11.1004Z" fill="#0A0D14" style="fill:#0A0D14;fill:color(display-p3 0.0392 0.0510 0.0784);fill-opacity:1;"/>
</svg>
