<svg width="25" height="24" viewBox="0 0 25 24" fill="none" xmlns="http://www.w3.org/2000/svg">
<path d="M7.5095 18.3004L3.5 21.4504V4.80039C3.5 4.5617 3.59482 4.33278 3.7636 4.16399C3.93239 3.99521 4.16131 3.90039 4.4 3.90039H20.6C20.8387 3.90039 21.0676 3.99521 21.2364 4.16399C21.4052 4.33278 21.5 4.5617 21.5 4.80039V17.4004C21.5 17.6391 21.4052 17.868 21.2364 18.0368C21.0676 18.2056 20.8387 18.3004 20.6 18.3004H7.5095ZM5.3 17.7469L6.8867 16.5004H19.7V5.70039H5.3V17.7469ZM12.5162 14.4304L9.4931 11.4064C9.11334 11.0266 8.89999 10.5116 8.89999 9.97449C8.89999 9.70856 8.95237 9.44524 9.05413 9.19955C9.1559 8.95387 9.30506 8.73063 9.4931 8.54259C9.68114 8.35455 9.90438 8.20539 10.1501 8.10362C10.3957 8.00186 10.6591 7.94948 10.925 7.94948C11.4621 7.94948 11.9771 8.16283 12.3569 8.54259L12.5162 8.70189L12.6755 8.54259C12.8635 8.35455 13.0868 8.20539 13.3325 8.10362C13.5781 8.00186 13.8415 7.94948 14.1074 7.94948C14.3733 7.94948 14.6367 8.00186 14.8823 8.10362C15.128 8.20539 15.3513 8.35455 15.5393 8.54259C15.7273 8.73063 15.8765 8.95387 15.9783 9.19955C16.08 9.44524 16.1324 9.70856 16.1324 9.97449C16.1324 10.2404 16.08 10.5037 15.9783 10.7494C15.8765 10.9951 15.7273 11.2184 15.5393 11.4064L12.5153 14.4295L12.5162 14.4304Z" fill="#0A0D14" style="fill:#0A0D14;fill:color(display-p3 0.0392 0.0510 0.0784);fill-opacity:1;"/>
</svg>
