<svg width="25" height="24" viewBox="0 0 25 24" fill="none" xmlns="http://www.w3.org/2000/svg">
<path d="M12.5 3C17.4707 3 21.5 7.0293 21.5 12C21.5 16.9707 17.4707 21 12.5 21C10.9682 21 9.5255 20.6175 8.2628 19.9425L3.5 21L4.5584 16.239C3.8834 14.9754 3.5 13.5327 3.5 12C3.5 7.0293 7.5293 3 12.5 3ZM12.5 7.5C11.0618 7.5 9.8 8.706 9.8 10.2V11.1H8.9V15.6H16.1V11.1H15.2V10.2C15.2 8.7087 13.9913 7.5 12.5 7.5ZM14.3 12.9V13.8H10.7V12.9H14.3ZM12.5 9.3C12.9284 9.3 13.4 9.741 13.4 10.2V11.1H11.6V10.2C11.6 9.741 12.0383 9.3 12.5 9.3Z" fill="#0A0D14" style="fill:#0A0D14;fill:color(display-p3 0.0392 0.0510 0.0784);fill-opacity:1;"/>
</svg>
