<svg width="25" height="24" viewBox="0 0 25 24" fill="none" xmlns="http://www.w3.org/2000/svg">
<path d="M20.6 3.90039C21.0968 3.90039 21.5 4.30359 21.5 4.80039V17.4004C21.5 17.8972 21.0968 18.3004 20.6 18.3004H7.5095L3.5 21.4504V4.80039C3.5 4.30359 3.9032 3.90039 4.4 3.90039H20.6ZM11.5658 8.49039L11.1635 7.87119C9.5552 8.56869 8.45 9.97989 8.45 11.5549C8.45 12.4504 8.6993 13.003 9.1628 13.4953C9.4544 13.8049 9.9161 14.0254 10.3994 14.0254C11.2688 14.0254 11.9744 13.3198 11.9744 12.4504C11.9744 11.6224 11.3345 10.9555 10.5218 10.8799C10.3778 10.8664 10.2302 10.8691 10.0907 10.8889V10.8061C10.0961 10.4263 10.1735 9.33639 11.3993 8.58669L11.5658 8.49039L11.1635 7.87119L11.5658 8.49039ZM15.6635 7.87119C14.0552 8.56869 12.95 9.97989 12.95 11.5549C12.95 12.4504 13.1993 13.003 13.6628 13.4953C13.9544 13.8049 14.4161 14.0254 14.8994 14.0254C15.7688 14.0254 16.4744 13.3198 16.4744 12.4504C16.4744 11.6224 15.8345 10.9555 15.0218 10.8799C14.8778 10.8664 14.7302 10.8691 14.5907 10.8889C14.5907 10.6072 14.5646 9.30309 16.0658 8.49039L15.6635 7.87119Z" fill="#0A0D14" style="fill:#0A0D14;fill:color(display-p3 0.0392 0.0510 0.0784);fill-opacity:1;"/>
</svg>
