<svg width="25" height="24" viewBox="0 0 25 24" fill="none" xmlns="http://www.w3.org/2000/svg">
<path d="M12.5 3C17.4707 3 21.5 7.0293 21.5 12C21.5 16.9707 17.4707 21 12.5 21C10.9682 21 9.5255 20.6175 8.2628 19.9425L3.5 21L4.5584 16.239C3.8834 14.9754 3.5 13.5327 3.5 12C3.5 7.0293 7.5293 3 12.5 3ZM12.5 4.8C8.5238 4.8 5.3 8.0238 5.3 12C5.3 13.2015 5.5934 14.3562 6.146 15.3894L6.461 15.978L5.8706 18.6294L8.5238 18.0408L9.1115 18.3549C10.1447 18.9075 11.2985 19.2 12.5 19.2C16.4762 19.2 19.7 15.9762 19.7 12C19.7 8.0238 16.4762 4.8 12.5 4.8ZM12.5 7.5C13.9913 7.5 15.2 8.7087 15.2 10.2V11.1H16.1V15.6H8.9V11.1H9.8V10.2C9.8 8.7087 11.0087 7.5 12.5 7.5ZM14.3 12.9H10.7V13.8H14.3V12.9ZM12.5 9.3C12.0032 9.3 11.6 9.705 11.6 10.2V11.1H13.4V10.2C13.4 9.7032 12.9968 9.3 12.5 9.3Z" fill="#0A0D14" style="fill:#0A0D14;fill:color(display-p3 0.0392 0.0510 0.0784);fill-opacity:1;"/>
</svg>
