<svg width="25" height="24" viewBox="0 0 25 24" fill="none" xmlns="http://www.w3.org/2000/svg">
<path d="M20.6 3.90039C21.0968 3.90039 21.5 4.30359 21.5 4.80039V17.4004C21.5 17.8972 21.0968 18.3004 20.6 18.3004H7.5095L3.5 21.4504V4.80039C3.5 4.30359 3.9032 3.90039 4.4 3.90039H20.6ZM19.7 5.70039H5.3V17.7469L6.8867 16.5004H19.7V5.70039ZM17 7.50039V14.7004H15.2V7.50039H17ZM11.6 8.40039V10.1995L13.4 10.2004V12.0004L11.6 11.9995V13.8004H9.8V11.9995L8 12.0004V10.2004L9.8 10.1995V8.40039H11.6Z" fill="#0A0D14" style="fill:#0A0D14;fill:color(display-p3 0.0392 0.0510 0.0784);fill-opacity:1;"/>
</svg>
