<svg width="25" height="24" viewBox="0 0 25 24" fill="none" xmlns="http://www.w3.org/2000/svg">
<path d="M20.6 3.90039C21.0968 3.90039 21.5 4.30359 21.5 4.80039V17.4004C21.5 17.8972 21.0968 18.3004 20.6 18.3004H7.5095L3.5 21.4504V4.80039C3.5 4.30359 3.9032 3.90039 4.4 3.90039H20.6ZM19.7 5.70039H5.3V17.7469L6.8867 16.5004H19.7V5.70039ZM11.1635 7.87119L11.5658 8.49039C10.0646 9.30309 10.0907 10.6072 10.0907 10.888C10.2302 10.87 10.3769 10.8664 10.5227 10.8799C11.3345 10.9555 11.9744 11.6224 11.9744 12.4504C11.9744 13.3198 11.2688 14.0254 10.3994 14.0254C9.9161 14.0254 9.4544 13.8049 9.1628 13.4944C8.6993 13.003 8.45 12.4504 8.45 11.5549C8.45 9.97989 9.5552 8.56869 11.1635 7.87119ZM15.6635 7.87119L16.0658 8.49039C14.5646 9.30309 14.5907 10.6072 14.5907 10.888C14.7302 10.87 14.8769 10.8664 15.0227 10.8799C15.8345 10.9555 16.4744 11.6224 16.4744 12.4504C16.4744 13.3198 15.7688 14.0254 14.8994 14.0254C14.4161 14.0254 13.9544 13.8049 13.6628 13.4944C13.1993 13.003 12.95 12.4504 12.95 11.5549C12.95 9.97989 14.0552 8.56869 15.6635 7.87119Z" fill="#0A0D14" style="fill:#0A0D14;fill:color(display-p3 0.0392 0.0510 0.0784);fill-opacity:1;"/>
</svg>
