<svg width="25" height="24" viewBox="0 0 25 24" fill="none" xmlns="http://www.w3.org/2000/svg">
<path d="M7.5095 18.3004L3.5 21.4504V4.80039C3.5 4.5617 3.59482 4.33278 3.7636 4.16399C3.93239 3.99521 4.16131 3.90039 4.4 3.90039H20.6C20.8387 3.90039 21.0676 3.99521 21.2364 4.16399C21.4052 4.33278 21.5 4.5617 21.5 4.80039V17.4004C21.5 17.6391 21.4052 17.868 21.2364 18.0368C21.0676 18.2056 20.8387 18.3004 20.6 18.3004H7.5095ZM12.5162 14.4304L15.5393 11.4073C15.7273 11.2193 15.8765 10.996 15.9783 10.7503C16.08 10.5046 16.1324 10.2413 16.1324 9.97539C16.1324 9.70946 16.08 9.44614 15.9783 9.20045C15.8765 8.95477 15.7273 8.73153 15.5393 8.54349C15.3513 8.35545 15.128 8.20629 14.8823 8.10452C14.6367 8.00276 14.3733 7.95038 14.1074 7.95038C13.8415 7.95038 13.5781 8.00276 13.3325 8.10452C13.0868 8.20629 12.8635 8.35545 12.6755 8.54349L12.5162 8.70279L12.3569 8.54349C12.1689 8.35545 11.9456 8.20629 11.6999 8.10452C11.4543 8.00276 11.1909 7.95038 10.925 7.95038C10.6591 7.95038 10.3957 8.00276 10.1501 8.10452C9.90438 8.20629 9.68114 8.35545 9.4931 8.54349C9.11334 8.92325 8.89999 9.43832 8.89999 9.97539C8.89999 10.5125 9.11334 11.0275 9.4931 11.4073L12.5162 14.4304Z" fill="#0A0D14" style="fill:#0A0D14;fill:color(display-p3 0.0392 0.0510 0.0784);fill-opacity:1;"/>
</svg>
