<svg width="25" height="24" viewBox="0 0 25 24" fill="none" xmlns="http://www.w3.org/2000/svg">
<path d="M3.50001 12C3.50001 7.0293 7.52931 3 12.5 3C17.4707 3 21.5 7.0293 21.5 12C21.5 16.9707 17.4707 21 12.5 21H3.50001L6.13611 18.3639C5.29914 17.5291 4.63539 16.5371 4.183 15.445C3.73061 14.3529 3.4985 13.1821 3.50001 12ZM7.84521 19.2H12.5C13.924 19.2 15.3161 18.7777 16.5001 17.9866C17.6841 17.1954 18.607 16.0709 19.1519 14.7553C19.6969 13.4397 19.8395 11.992 19.5617 10.5953C19.2838 9.19869 18.5981 7.91577 17.5912 6.90883C16.5842 5.90189 15.3013 5.21616 13.9047 4.93835C12.508 4.66053 11.0603 4.80312 9.74469 5.34807C8.42906 5.89302 7.30457 6.81586 6.51343 7.99989C5.72228 9.18393 5.30001 10.576 5.30001 12C5.30001 13.9368 6.06591 15.7485 7.40871 17.0913L8.68131 18.3639L7.84521 19.2ZM8.90001 12.9H16.1C16.1 13.8548 15.7207 14.7705 15.0456 15.4456C14.3705 16.1207 13.4548 16.5 12.5 16.5C11.5452 16.5 10.6296 16.1207 9.95442 15.4456C9.27929 14.7705 8.90001 13.8548 8.90001 12.9Z" fill="#0A0D14" style="fill:#0A0D14;fill:color(display-p3 0.0392 0.0510 0.0784);fill-opacity:1;"/>
</svg>
