<svg width="25" height="24" viewBox="0 0 25 24" fill="none" xmlns="http://www.w3.org/2000/svg">
<path d="M11.6 19.1996V12.8996H9.79999V10.1996H15.2V12.8996H13.4V19.1996H17.9V20.9996H7.09999V19.1996H11.6ZM10.7 3.20031V2.09961H14.3V3.20031C15.8439 3.55282 17.2506 4.34999 18.3463 5.49331C19.442 6.63662 20.1787 8.07596 20.4653 9.6334C20.7518 11.1909 20.5757 12.7981 19.9588 14.2566C19.3418 15.715 18.311 16.9607 16.9937 17.8397L15.9947 16.3421C17.1196 15.592 17.9734 14.4999 18.4298 13.2272C18.8862 11.9544 18.921 10.5686 18.5291 9.2746C18.1372 7.98056 17.3395 6.84692 16.2536 6.04123C15.1678 5.23554 13.8516 4.80055 12.4995 4.80055C11.1475 4.80055 9.83125 5.23554 8.74544 6.04123C7.65963 6.84692 6.86183 7.98056 6.46995 9.2746C6.07808 10.5686 6.11291 11.9544 6.56931 13.2272C7.02572 14.4999 7.87947 15.592 9.00439 16.3421L8.00629 17.8397C6.68902 16.9607 5.65819 15.715 5.04121 14.2566C4.42423 12.7981 4.24815 11.1909 4.53472 9.6334C4.8213 8.07596 5.55797 6.63662 6.65369 5.49331C7.7494 4.34999 9.15613 3.55282 10.7 3.20031Z" fill="#0A0D14" style="fill:#0A0D14;fill:color(display-p3 0.0392 0.0510 0.0784);fill-opacity:1;"/>
</svg>
