<svg width="25" height="24" viewBox="0 0 25 24" fill="none" xmlns="http://www.w3.org/2000/svg">
<path d="M10.5443 20.7867C6.515 19.8939 3.5 16.2993 3.5 12C3.5 10.3602 3.9383 8.82301 4.7051 7.49821L8.5598 14.1753C8.99287 14.9602 9.65055 15.5979 10.4485 16.0064C11.2464 16.415 12.1482 16.5759 13.0382 16.4685L10.5452 20.7867H10.5443ZM12.5 21L16.3583 14.3175C16.7794 13.6179 17.0013 12.8166 17 12C17.0014 11.0261 16.6855 10.0783 16.1 9.30001H21.0878C21.356 10.1523 21.5 11.0595 21.5 12C21.5 16.9707 17.4707 21 12.5 21ZM14.8148 13.3905C14.573 13.7937 14.23 14.1266 13.8199 14.3565C13.4098 14.5864 12.9468 14.7051 12.4767 14.701C12.0066 14.697 11.5457 14.5701 11.1397 14.3332C10.7337 14.0962 10.3966 13.7573 10.1618 13.35L10.1357 13.305C9.90779 12.892 9.79206 12.4265 9.80003 11.9549C9.80801 11.4832 9.9394 11.0219 10.1811 10.6168C10.4229 10.2118 10.7665 9.87711 11.1778 9.64618C11.5892 9.41525 12.0538 9.29611 12.5255 9.30062C12.9972 9.30513 13.4595 9.43314 13.8663 9.6719C14.2731 9.91066 14.6103 10.2518 14.8442 10.6615C15.0781 11.0711 15.2007 11.5348 15.1996 12.0065C15.1986 12.4782 15.074 12.9414 14.8382 13.35L14.8148 13.3905ZM5.8688 5.91511C6.71096 4.99521 7.73558 4.26089 8.8773 3.75898C10.019 3.25708 11.2528 2.99859 12.5 3.00001C14.0802 2.99936 15.6326 3.41494 17.0012 4.2049C18.3697 4.99487 19.506 6.13136 20.2958 7.50001H12.5C11.6184 7.49989 10.7562 7.75869 10.0203 8.24428C9.2845 8.72988 8.70748 9.42087 8.3609 10.2315L5.8688 5.91511Z" fill="#0A0D14" style="fill:#0A0D14;fill:color(display-p3 0.0392 0.0510 0.0784);fill-opacity:1;"/>
</svg>
