<svg width="25" height="24" viewBox="0 0 25 24" fill="none" xmlns="http://www.w3.org/2000/svg">
<path d="M11.0285 19.0497L12.7655 16.0419C11.998 16.0924 11.2321 15.9232 10.5572 15.5543C9.8824 15.1853 9.3266 14.6317 8.9549 13.9584L6.0146 8.868C5.53907 9.85304 5.29414 10.9335 5.29838 12.0273C5.30263 13.1211 5.55594 14.1996 6.03909 15.1809C6.52225 16.1622 7.22257 17.0206 8.08691 17.6909C8.95125 18.3613 9.95691 18.8259 11.0276 19.0497H11.0285ZM13.031 19.1811C14.1219 19.1008 15.1801 18.773 16.1254 18.2226C17.0707 17.6723 17.8781 16.9137 18.4865 16.0046C19.0948 15.0955 19.488 14.0598 19.6362 12.9761C19.7844 11.8923 19.6837 10.789 19.3418 9.75H15.8678C16.3137 10.4156 16.5512 11.1989 16.55 12C16.5512 12.7351 16.3514 13.4565 15.9722 14.0862L13.031 19.1802V19.1811ZM14.4287 13.1592L14.4485 13.125C14.645 12.7845 14.7489 12.3985 14.7499 12.0054C14.7508 11.6123 14.6487 11.2259 14.4538 10.8845C14.2589 10.5431 13.9779 10.2587 13.6389 10.0597C13.2999 9.86074 12.9147 9.75402 12.5216 9.75023C12.1285 9.74644 11.7413 9.8457 11.3985 10.0381C11.0557 10.2306 10.7693 10.5094 10.5678 10.847C10.3664 11.1845 10.2568 11.569 10.2502 11.962C10.2435 12.3551 10.34 12.743 10.5299 13.0872L10.5515 13.125C10.7471 13.4644 11.028 13.7468 11.3663 13.9443C11.7046 14.1418 12.0886 14.2475 12.4803 14.251C12.872 14.2544 13.2579 14.1555 13.5996 13.964C13.9413 13.7725 14.2271 13.4951 14.4287 13.1592ZM7.1315 7.2012L8.8676 10.2072C9.20215 9.52951 9.71965 8.95896 10.3616 8.56006C11.0035 8.16117 11.7442 7.94985 12.5 7.95H18.4535C17.7936 6.97893 16.906 6.18415 15.8682 5.63507C14.8305 5.08599 13.6741 4.79929 12.5 4.8C11.4863 4.79885 10.4839 5.01231 9.55859 5.42632C8.63331 5.84033 7.80615 6.44552 7.1315 7.2021V7.2012ZM12.5 21C7.5293 21 3.5 16.9707 3.5 12C3.5 7.0293 7.5293 3 12.5 3C17.4707 3 21.5 7.0293 21.5 12C21.5 16.9707 17.4707 21 12.5 21Z" fill="#0A0D14" style="fill:#0A0D14;fill:color(display-p3 0.0392 0.0510 0.0784);fill-opacity:1;"/>
</svg>
