<svg width="25" height="24" viewBox="0 0 25 24" fill="none" xmlns="http://www.w3.org/2000/svg">
<path d="M17.8982 7.49844L19.9772 3.89844H20.6072C21.1004 3.89844 21.5 4.29894 21.5 4.79214V19.2047C21.4984 19.4411 21.4038 19.6673 21.2367 19.8345C21.0697 20.0018 20.8436 20.0966 20.6072 20.0984H4.3928C4.15593 20.0982 3.92885 20.0039 3.76144 19.8364C3.59403 19.6688 3.5 19.4416 3.5 19.2047V4.79214C3.50165 4.55578 3.59621 4.32955 3.76326 4.16233C3.93031 3.99511 4.15644 3.90032 4.3928 3.89844H7.0982L5.0192 7.49844H7.0982L9.1772 3.89844H12.4982L10.4192 7.49844H12.4982L14.5772 3.89844H17.8982L15.8192 7.49844H17.8982Z" fill="#0A0D14" style="fill:#0A0D14;fill:color(display-p3 0.0392 0.0510 0.0784);fill-opacity:1;"/>
</svg>
