<svg width="25" height="24" viewBox="0 0 25 24" fill="none" xmlns="http://www.w3.org/2000/svg">
<path d="M7.99999 4.8V3H17V4.8H19.7063C20.1995 4.8 20.6 5.2005 20.6 5.6937V20.1063C20.5998 20.3433 20.5055 20.5704 20.338 20.738C20.1704 20.9055 19.9432 20.9998 19.7063 21H5.29369C5.05674 20.9998 4.82957 20.9055 4.66202 20.738C4.49447 20.5704 4.40023 20.3433 4.39999 20.1063V5.6937C4.39999 5.2005 4.80049 4.8 5.29369 4.8H7.99999ZM7.99999 6.6H6.19999V19.2H18.8V6.6H17V8.4H7.99999V6.6ZM9.79999 4.8V6.6H15.2V4.8H9.79999Z" fill="#0A0D14" style="fill:#0A0D14;fill:color(display-p3 0.0392 0.0510 0.0784);fill-opacity:1;"/>
</svg>
