<svg width="25" height="24" viewBox="0 0 25 24" fill="none" xmlns="http://www.w3.org/2000/svg">
<path d="M19.7 10.2004H22.4L18.8 14.7004L15.2 10.2004H17.9V8.40039C17.9 7.68431 17.6155 6.99755 17.1092 6.4912C16.6028 5.98485 15.9161 5.70039 15.2 5.70039H11.6V3.90039H15.2C16.3935 3.90039 17.5381 4.3745 18.382 5.21841C19.2259 6.06232 19.7 7.20692 19.7 8.40039V10.2004ZM13.4 9.30039C13.6387 9.30039 13.8676 9.39521 14.0364 9.56399C14.2052 9.73278 14.3 9.9617 14.3 10.2004V19.2004C14.3 19.4391 14.2052 19.668 14.0364 19.8368C13.8676 20.0056 13.6387 20.1004 13.4 20.1004H4.4C4.16131 20.1004 3.93239 20.0056 3.7636 19.8368C3.59482 19.668 3.5 19.4391 3.5 19.2004V10.2004C3.5 9.9617 3.59482 9.73278 3.7636 9.56399C3.93239 9.39521 4.16131 9.30039 4.4 9.30039H13.4Z" fill="#0A0D14" style="fill:#0A0D14;fill:color(display-p3 0.0392 0.0510 0.0784);fill-opacity:1;"/>
</svg>
