<svg width="25" height="24" viewBox="0 0 25 24" fill="none" xmlns="http://www.w3.org/2000/svg">
<path d="M11.2274 4.79956L9.58129 3.15436L10.8548 1.88086L14.6726 5.69956L10.8548 9.51826L9.58129 8.24476L11.2274 6.59956H8.89999C8.18391 6.59956 7.49715 6.88402 6.99081 7.39037C6.48446 7.89672 6.19999 8.58347 6.19999 9.29956V12.8996H4.39999V9.29956C4.39999 8.10608 4.8741 6.96149 5.71801 6.11758C6.56193 5.27367 7.70652 4.79956 8.89999 4.79956H11.2274ZM9.79999 11.0996C9.79999 10.8609 9.89482 10.6319 10.0636 10.4632C10.2324 10.2944 10.4613 10.1996 10.7 10.1996H19.7C19.9387 10.1996 20.1676 10.2944 20.3364 10.4632C20.5052 10.6319 20.6 10.8609 20.6 11.0996V20.0996C20.6 20.3383 20.5052 20.5672 20.3364 20.736C20.1676 20.9047 19.9387 20.9996 19.7 20.9996H10.7C10.4613 20.9996 10.2324 20.9047 10.0636 20.736C9.89482 20.5672 9.79999 20.3383 9.79999 20.0996V11.0996ZM11.6 11.9996V19.1996H18.8V11.9996H11.6Z" fill="#0A0D14" style="fill:#0A0D14;fill:color(display-p3 0.0392 0.0510 0.0784);fill-opacity:1;"/>
</svg>
