<svg width="25" height="24" viewBox="0 0 25 24" fill="none" xmlns="http://www.w3.org/2000/svg">
<path d="M20.6 3.89844C21.0968 3.89844 21.5 4.30164 21.5 4.79844V19.1984C21.5 19.6952 21.0968 20.0984 20.6 20.0984H4.4C3.9032 20.0984 3.5 19.6952 3.5 19.1984V4.79844C3.5 4.30164 3.9032 3.89844 4.4 3.89844H20.6ZM9.8 8.39844C7.8128 8.39844 6.2 10.0112 6.2 11.9984C6.2 13.9856 7.8128 15.5984 9.8 15.5984C10.79 15.5984 11.69 15.1934 12.3452 14.5436L11.0726 13.271C10.7477 13.5968 10.2977 13.7984 9.8 13.7984C8.8055 13.7984 8 12.9929 8 11.9984C8 11.0039 8.8055 10.1984 9.8 10.1984C10.295 10.1984 10.7432 10.3964 11.0735 10.7267L12.3461 9.45414C11.6945 8.80164 10.7945 8.39844 9.8 8.39844ZM16.1 8.39844C14.1128 8.39844 12.5 10.0112 12.5 11.9984C12.5 13.9856 14.1128 15.5984 16.1 15.5984C17.0936 15.5984 17.9936 15.1952 18.6452 14.5436L17.3726 13.271C17.0468 13.5968 16.5968 13.7984 16.1 13.7984C15.1055 13.7984 14.3 12.9929 14.3 11.9984C14.3 11.0039 15.1055 10.1984 16.1 10.1984C16.5977 10.1984 17.0477 10.4 17.3735 10.7267L18.6461 9.45414C17.9945 8.80164 17.0945 8.39844 16.1 8.39844Z" fill="#0A0D14" style="fill:#0A0D14;fill:color(display-p3 0.0392 0.0510 0.0784);fill-opacity:1;"/>
</svg>
