<svg width="25" height="24" viewBox="0 0 25 24" fill="none" xmlns="http://www.w3.org/2000/svg">
<path d="M20.6 3.89844C21.0968 3.89844 21.5 4.30164 21.5 4.79844V19.1984C21.5 19.6952 21.0968 20.0984 20.6 20.0984H4.4C3.9032 20.0984 3.5 19.6952 3.5 19.1984V4.79844C3.5 4.30164 3.9032 3.89844 4.4 3.89844H20.6ZM19.7 5.69844H5.3V18.2984H19.7V5.69844ZM9.8 8.39844C10.7945 8.39844 11.6945 8.80164 12.3461 9.45414L11.0735 10.7267C10.7477 10.4 10.2977 10.1984 9.8 10.1984C8.8055 10.1984 8 11.0039 8 11.9984C8 12.9929 8.8055 13.7984 9.8 13.7984C10.2977 13.7984 10.7477 13.5968 11.0726 13.271L12.3452 14.5436C11.6936 15.1952 10.7936 15.5984 9.8 15.5984C7.8128 15.5984 6.2 13.9856 6.2 11.9984C6.2 10.0112 7.8128 8.39844 9.8 8.39844ZM16.1 8.39844C17.0945 8.39844 17.9945 8.80164 18.6461 9.45414L17.3735 10.7267C17.0477 10.4 16.5977 10.1984 16.1 10.1984C15.1055 10.1984 14.3 11.0039 14.3 11.9984C14.3 12.9929 15.1055 13.7984 16.1 13.7984C16.5968 13.7984 17.0468 13.5968 17.3726 13.271L18.6452 14.5436C17.9936 15.1952 17.0936 15.5984 16.1 15.5984C14.1128 15.5984 12.5 13.9856 12.5 11.9984C12.5 10.0112 14.1128 8.39844 16.1 8.39844Z" fill="#0A0D14" style="fill:#0A0D14;fill:color(display-p3 0.0392 0.0510 0.0784);fill-opacity:1;"/>
</svg>
