<svg width="25" height="24" viewBox="0 0 25 24" fill="none" xmlns="http://www.w3.org/2000/svg">
<path d="M4.86352 3.09001L22.0463 20.2728L20.7728 21.5463L18.9602 19.7328C18.3354 19.9762 17.6706 20.1007 17 20.1H8.00002C6.72493 20.1008 5.49068 19.6504 4.51584 18.8285C3.541 18.0065 2.88845 16.8662 2.67374 15.6093C2.45903 14.3524 2.69601 13.0601 3.34273 11.9612C3.98945 10.8623 5.00417 10.0276 6.20722 9.60511C6.16871 8.82314 6.27645 8.04085 6.52492 7.29841L3.59002 4.36261L4.86352 3.09001ZM8.00002 9.30001C8.00002 9.37291 8.00182 9.44671 8.00542 9.51871L8.06842 10.8579L6.80482 11.3025C6.00428 11.5856 5.3295 12.1425 4.89961 12.8747C4.46972 13.607 4.31237 14.4676 4.45534 15.3046C4.5983 16.1416 5.03239 16.9012 5.68096 17.4493C6.32954 17.9974 7.15089 18.2987 8.00002 18.3H17C17.1674 18.3 17.3321 18.2883 17.4932 18.2667L8.02702 8.80051C8.00902 8.96431 8.00002 9.13081 8.00002 9.30001ZM12.5 3.00001C13.3531 2.99998 14.1972 3.17319 14.9813 3.50914C15.7654 3.84508 16.4731 4.33676 17.0615 4.95437C17.6499 5.57198 18.1068 6.30266 18.4044 7.10209C18.702 7.90153 18.8341 8.75308 18.7928 9.60511C19.5403 9.86841 20.2206 10.2929 20.7857 10.8485C21.3508 11.4042 21.7867 12.0773 22.0626 12.8202C22.3384 13.5631 22.4475 14.3576 22.382 15.1473C22.3165 15.9371 22.0781 16.7028 21.6836 17.3901L20.3399 16.0464C20.6048 15.3913 20.6709 14.6726 20.53 13.9801C20.3892 13.2877 20.0476 12.652 19.5479 12.1523C19.0481 11.6527 18.4124 11.3112 17.7199 11.1705C17.0273 11.0298 16.3087 11.096 15.6536 11.361L14.309 10.0155C15.1019 9.56101 16.0199 9.30001 17 9.30001C17 8.47602 16.7738 7.66786 16.3459 6.96364C15.9181 6.25942 15.3052 5.68619 14.5739 5.30645C13.8426 4.9267 13.0212 4.75503 12.199 4.81014C11.3769 4.86526 10.5857 5.14505 9.91162 5.61901L8.62462 4.33201C9.73088 3.46669 11.0955 2.99765 12.5 3.00001Z" fill="#0A0D14" style="fill:#0A0D14;fill:color(display-p3 0.0392 0.0510 0.0784);fill-opacity:1;"/>
</svg>
