<svg width="25" height="24" viewBox="0 0 25 24" fill="none" xmlns="http://www.w3.org/2000/svg">
<path d="M14.3 17.4019V15.6019H17.45C17.9693 15.6019 18.4806 15.4734 18.9382 15.228C19.3959 14.9825 19.7858 14.6277 20.0732 14.1952C20.3606 13.7626 20.5366 13.2657 20.5855 12.7487C20.6344 12.2316 20.5548 11.7105 20.3536 11.2317C20.1524 10.753 19.836 10.3313 19.4325 10.0044C19.029 9.67749 18.5509 9.45541 18.0408 9.35793C17.5307 9.26045 17.0044 9.29061 16.5087 9.44572C16.0131 9.60082 15.5635 9.87607 15.2 10.2469V10.2019C15.2 8.76978 14.6311 7.39627 13.6184 6.38357C12.6057 5.37087 11.2321 4.80195 9.79998 4.80195C8.36781 4.80195 6.9943 5.37087 5.9816 6.38357C4.96891 7.39627 4.39998 8.76978 4.39998 10.2019V10.2082H2.59998V10.2019C2.59862 8.52179 3.18489 6.89405 4.25727 5.60063C5.32965 4.30721 6.82061 3.42955 8.47194 3.11964C10.1233 2.80974 11.831 3.0871 13.2994 3.9037C14.7677 4.7203 15.9043 6.02472 16.5122 7.59105C17.1893 7.46081 17.8861 7.47347 18.5581 7.62822C19.23 7.78297 19.8622 8.07639 20.4141 8.48968C20.966 8.90297 21.4255 9.42702 21.7632 10.0282C22.1008 10.6294 22.3091 11.2945 22.3747 11.9809C22.4403 12.6673 22.3618 13.3599 22.1442 14.0141C21.9266 14.6684 21.5747 15.27 21.111 15.7804C20.6474 16.2907 20.0822 16.6986 19.4518 16.9779C18.8213 17.2571 18.1395 17.4015 17.45 17.4019H14.3ZM7.09998 19.2019H16.1V21.0019H7.09998V19.2019ZM7.09998 12.0019H14.3V13.8019H7.09998V12.0019ZM3.49998 15.6019H12.5V17.4019H3.49998V15.6019Z" fill="#0A0D14" style="fill:#0A0D14;fill:color(display-p3 0.0392 0.0510 0.0784);fill-opacity:1;"/>
</svg>
