<svg width="25" height="24" viewBox="0 0 25 24" fill="none" xmlns="http://www.w3.org/2000/svg">
<path d="M17 20.0999H7.99999C6.7249 20.1007 5.49065 19.6503 4.51581 18.8284C3.54097 18.0065 2.88841 16.8661 2.67371 15.6092C2.459 14.3523 2.69598 13.06 3.3427 11.9611C3.98942 10.8622 5.00414 10.0275 6.20719 9.60502C6.16644 8.75331 6.299 7.9022 6.59686 7.10323C6.89471 6.30426 7.35165 5.57407 7.94 4.9569C8.52835 4.33972 9.23587 3.8484 10.0197 3.5127C10.8035 3.177 11.6473 3.00391 12.5 3.00391C13.3527 3.00391 14.1965 3.177 14.9803 3.5127C15.7641 3.8484 16.4716 4.33972 17.06 4.9569C17.6483 5.57407 18.1053 6.30426 18.4031 7.10323C18.701 7.9022 18.8335 8.75331 18.7928 9.60502C19.9958 10.0275 21.0106 10.8622 21.6573 11.9611C22.304 13.06 22.541 14.3523 22.3263 15.6092C22.1116 16.8661 21.459 18.0065 20.4842 18.8284C19.5093 19.6503 18.2751 20.1007 17 20.0999ZM17 9.29992C17.0002 8.69962 16.8803 8.10535 16.6474 7.55209C16.4145 6.99883 16.0732 6.49777 15.6437 6.0784C15.2141 5.65904 14.7051 5.32985 14.1464 5.11023C13.5877 4.8906 12.9907 4.78497 12.3906 4.79957C11.7905 4.81416 11.1994 4.94867 10.652 5.19519C10.1047 5.44171 9.61218 5.79525 9.20355 6.23499C8.79492 6.67473 8.47839 7.19179 8.27262 7.75572C8.06685 8.31964 7.97599 8.91904 8.00539 9.51862L8.06839 10.8578L6.80479 11.3024C6.00425 11.5855 5.32947 12.1424 4.89958 12.8747C4.46969 13.6069 4.31234 14.4675 4.45531 15.3045C4.59827 16.1416 5.03236 16.9011 5.68093 17.4492C6.32951 17.9973 7.15086 18.2986 7.99999 18.2999H17C17.6627 18.2997 18.3125 18.1166 18.8778 17.7707C19.443 17.4248 19.9019 16.9296 20.2037 16.3396C20.5056 15.7496 20.6387 15.0878 20.5885 14.427C20.5382 13.7662 20.3066 13.1321 19.919 12.5945C19.5314 12.057 19.003 11.6368 18.3919 11.3804C17.7808 11.1239 17.1108 11.0411 16.4557 11.1411C15.8006 11.2411 15.1858 11.52 14.679 11.947C14.1722 12.3741 13.7932 12.9327 13.5836 13.5614L11.8754 12.9917C12.2343 11.9166 12.9223 10.9815 13.842 10.319C14.7617 9.65644 15.8665 9.29993 17 9.29992Z" fill="#0A0D14" style="fill:#0A0D14;fill:color(display-p3 0.0392 0.0510 0.0784);fill-opacity:1;"/>
</svg>
