<svg width="25" height="24" viewBox="0 0 25 24" fill="none" xmlns="http://www.w3.org/2000/svg">
<path d="M14.3 17.4013V13.8076H3.56659C2.90357 12.1158 2.90476 10.2358 3.56993 8.54486C4.23509 6.85388 5.51503 5.47694 7.153 4.69024C8.79097 3.90354 10.6658 3.76527 12.4015 4.30315C14.1372 4.84104 15.6053 6.0153 16.5113 7.5904C17.1884 7.46017 17.8852 7.47283 18.5571 7.62755C19.229 7.78228 19.8611 8.07566 20.413 8.4889C20.965 8.90215 21.4245 9.42613 21.7621 10.0273C22.0997 10.6284 22.3081 11.2935 22.3737 11.9798C22.4394 12.6662 22.361 13.3587 22.1435 14.013C21.9259 14.6672 21.5741 15.2688 21.1106 15.7792C20.647 16.2896 20.082 16.6976 19.4516 16.9769C18.8212 17.2562 18.1395 17.4008 17.45 17.4013H14.3009H14.3ZM7.09999 19.2013H16.1V21.0013H7.09999V19.2013ZM3.49999 15.6013H12.5V17.4013H3.49999V15.6013Z" fill="#0A0D14" style="fill:#0A0D14;fill:color(display-p3 0.0392 0.0510 0.0784);fill-opacity:1;"/>
</svg>
