<svg width="25" height="24" viewBox="0 0 25 24" fill="none" xmlns="http://www.w3.org/2000/svg">
<path d="M17 7.50009C15.5342 7.49996 14.1032 7.94708 12.8982 8.78172C11.6932 9.61636 10.7715 10.7988 10.2563 12.1711L11.9429 12.8038C12.3884 11.6206 13.2347 10.6312 14.3346 10.0079C15.4344 9.38447 16.7181 9.1666 17.962 9.39218C19.206 9.61776 20.3314 10.2725 21.1423 11.2424C21.9532 12.2123 22.3983 13.4359 22.4 14.7001C22.4 16.1323 21.8311 17.5058 20.8184 18.5185C19.8057 19.5312 18.4322 20.1001 17 20.1001H7.99999C6.7249 20.1009 5.49065 19.6504 4.51581 18.8285C3.54097 18.0066 2.88841 16.8663 2.67371 15.6094C2.459 14.3525 2.69598 13.0602 3.3427 11.9613C3.98942 10.8623 5.00414 10.0277 6.20719 9.60519C6.1301 8.05054 6.63127 6.52239 7.61409 5.31535C8.5969 4.10831 9.99176 3.30784 11.5298 3.06826C13.0678 2.82867 14.64 3.16694 15.9434 4.01785C17.2468 4.86876 18.189 6.17205 18.5885 7.67649C18.0671 7.55911 17.5344 7.49995 17 7.50009Z" fill="#0A0D14" style="fill:#0A0D14;fill:color(display-p3 0.0392 0.0510 0.0784);fill-opacity:1;"/>
</svg>
