<svg width="25" height="24" viewBox="0 0 25 24" fill="none" xmlns="http://www.w3.org/2000/svg">
<path d="M4.86352 3.09001L22.0463 20.2728L20.7728 21.5463L18.9602 19.7328C18.3354 19.9762 17.6706 20.1007 17 20.1H8.00002C6.72493 20.1008 5.49068 19.6504 4.51584 18.8285C3.541 18.0065 2.88845 16.8662 2.67374 15.6093C2.45903 14.3524 2.69601 13.0601 3.34273 11.9612C3.98945 10.8623 5.00417 10.0276 6.20722 9.60511C6.16871 8.82314 6.27645 8.04085 6.52492 7.29841L3.59002 4.36261L4.86352 3.09001ZM17 9.30001C17.9467 9.30059 18.8767 9.54993 19.6967 10.0231C20.5168 10.4962 21.1981 11.1765 21.6724 11.9958C22.1467 12.8151 22.3974 13.7447 22.3994 14.6915C22.4014 15.6382 22.1545 16.5688 21.6836 17.3901L14.309 10.0164C15.101 9.56101 16.019 9.30001 17 9.30001ZM12.5 3.00001C13.8881 3.00012 15.2373 3.45846 16.3382 4.30388C17.4391 5.1493 18.2302 6.3345 18.5885 7.67551C17.6359 7.46165 16.6498 7.44311 15.6898 7.621C14.7298 7.79889 13.8159 8.16952 13.0031 8.71051L8.62462 4.33201C9.73088 3.46669 11.0955 2.99765 12.5 3.00001Z" fill="#0A0D14" style="fill:#0A0D14;fill:color(display-p3 0.0392 0.0510 0.0784);fill-opacity:1;"/>
</svg>
