<svg width="25" height="24" viewBox="0 0 25 24" fill="none" xmlns="http://www.w3.org/2000/svg">
<path d="M10.25 6.60078C8.69847 6.60078 7.2105 7.21712 6.11341 8.31421C5.01632 9.41129 4.39998 10.8993 4.39998 12.4508C4.39998 14.0023 5.01632 15.4903 6.11341 16.5874C7.2105 17.6844 8.69847 18.3008 10.25 18.3008H16.55C17.118 18.3002 17.6796 18.1802 18.1983 17.9485C18.7169 17.7167 19.181 17.3785 19.5604 16.9557C19.9398 16.5329 20.226 16.035 20.4004 15.4944C20.5749 14.9538 20.6336 14.3825 20.5729 13.8177C20.5121 13.2529 20.3332 12.7072 20.0478 12.216C19.7624 11.7249 19.3769 11.2992 18.9163 10.9668C18.4557 10.6343 17.9303 10.4025 17.3742 10.2864C16.8181 10.1702 16.2439 10.1723 15.6887 10.2926C15.2561 9.20335 14.5064 8.26911 13.5367 7.61088C12.567 6.95265 11.422 6.60075 10.25 6.60078ZM16.55 20.1008H10.25C8.91819 20.1005 7.60956 19.7525 6.45352 19.0912C5.29749 18.43 4.3341 17.4784 3.65867 16.3306C2.98323 15.1828 2.61914 13.8786 2.60241 12.5469C2.58568 11.2152 2.9169 9.9022 3.56329 8.7378C4.20968 7.57339 5.14886 6.59791 6.28792 5.90784C7.42698 5.21776 8.72646 4.83701 10.0578 4.80324C11.3892 4.76947 12.7063 5.08385 13.8789 5.71529C15.0515 6.34673 16.0389 7.27335 16.7435 8.40348C18.2804 8.44999 19.7372 9.09973 20.7988 10.2121C21.8603 11.3245 22.4412 12.8101 22.4157 14.3476C22.3903 15.885 21.7606 17.3506 20.6629 18.4272C19.5651 19.5039 18.0876 20.1051 16.55 20.1008Z" fill="#0A0D14" style="fill:#0A0D14;fill:color(display-p3 0.0392 0.0510 0.0784);fill-opacity:1;"/>
</svg>
