<svg width="25" height="24" viewBox="0 0 25 24" fill="none" xmlns="http://www.w3.org/2000/svg">
<path d="M17 20.0999H7.99996C6.72487 20.1007 5.49062 19.6503 4.51578 18.8284C3.54093 18.0065 2.88838 16.8661 2.67368 15.6092C2.45897 14.3523 2.69595 13.06 3.34267 11.9611C3.98939 10.8622 5.00411 10.0275 6.20716 9.60502C6.16641 8.75331 6.29897 7.9022 6.59682 7.10323C6.89468 6.30426 7.35162 5.57407 7.93997 4.9569C8.52832 4.33972 9.23584 3.8484 10.0197 3.5127C10.8035 3.177 11.6473 3.00391 12.5 3.00391C13.3526 3.00391 14.1964 3.177 14.9803 3.5127C15.7641 3.8484 16.4716 4.33972 17.0599 4.9569C17.6483 5.57407 18.1052 6.30426 18.4031 7.10323C18.701 7.9022 18.8335 8.75331 18.7928 9.60502C19.9958 10.0275 21.0105 10.8622 21.6573 11.9611C22.304 13.06 22.541 14.3523 22.3262 15.6092C22.1115 16.8661 21.459 18.0065 20.4841 18.8284C19.5093 19.6503 18.2751 20.1007 17 20.0999Z" fill="#0A0D14" style="fill:#0A0D14;fill:color(display-p3 0.0392 0.0510 0.0784);fill-opacity:1;"/>
</svg>
