<svg width="25" height="24" viewBox="0 0 25 24" fill="none" xmlns="http://www.w3.org/2000/svg">
<path d="M9.79998 20.0874C8.48963 20.0098 7.22128 19.5963 6.11695 18.8867C5.01261 18.1771 4.10944 17.1953 3.4943 16.0357C2.87916 14.8762 2.57275 13.5778 2.60454 12.2655C2.63633 10.9532 3.00525 9.67123 3.67582 8.54278C4.34639 7.41433 5.29604 6.47742 6.43344 5.82214C7.57084 5.16687 8.85771 4.81529 10.1703 4.80122C11.4829 4.78715 12.777 5.11106 13.9282 5.7418C15.0794 6.37254 16.0489 7.28888 16.7435 8.4027C18.2397 8.45049 19.6606 9.07004 20.7139 10.1338C21.7671 11.1976 22.3724 12.6247 22.4053 14.1213C22.4382 15.6179 21.8961 17.0702 20.8905 18.1791C19.885 19.2881 18.4926 19.9695 17 20.0829V20.1H9.79998V20.0874Z" fill="#0A0D14" style="fill:#0A0D14;fill:color(display-p3 0.0392 0.0510 0.0784);fill-opacity:1;"/>
</svg>
