<svg width="25" height="24" viewBox="0 0 25 24" fill="none" xmlns="http://www.w3.org/2000/svg">
<path d="M17 20.0999H7.99996C6.72487 20.1007 5.49062 19.6503 4.51578 18.8284C3.54093 18.0065 2.88838 16.8661 2.67368 15.6092C2.45897 14.3523 2.69595 13.06 3.34267 11.9611C3.98939 10.8622 5.00411 10.0275 6.20716 9.60502C6.16641 8.75331 6.29897 7.9022 6.59682 7.10323C6.89468 6.30426 7.35162 5.57407 7.93997 4.9569C8.52832 4.33972 9.23584 3.8484 10.0197 3.5127C10.8035 3.177 11.6473 3.00391 12.5 3.00391C13.3526 3.00391 14.1964 3.177 14.9803 3.5127C15.7641 3.8484 16.4716 4.33972 17.0599 4.9569C17.6483 5.57407 18.1052 6.30426 18.4031 7.10323C18.701 7.9022 18.8335 8.75331 18.7928 9.60502C19.9958 10.0275 21.0105 10.8622 21.6573 11.9611C22.304 13.06 22.541 14.3523 22.3262 15.6092C22.1115 16.8661 21.459 18.0065 20.4841 18.8284C19.5093 19.6503 18.2751 20.1007 17 20.0999ZM7.99996 18.2999H17C17.4883 18.299 17.9714 18.1988 18.4199 18.0053C18.8683 17.8118 19.2726 17.5291 19.6083 17.1744C19.944 16.8197 20.204 16.4003 20.3725 15.9419C20.541 15.4835 20.6145 14.9957 20.5884 14.508C20.5624 14.0203 20.4374 13.543 20.221 13.1051C20.0047 12.6673 19.7015 12.278 19.33 11.9611C18.9584 11.6441 18.5262 11.4061 18.0598 11.2614C17.5933 11.1168 17.1023 11.0686 16.6166 11.1197C16.919 10.4347 17.0457 9.68503 16.9853 8.93866C16.9248 8.19228 16.679 7.4728 16.2702 6.84542C15.8614 6.21804 15.3025 5.70259 14.6441 5.3458C13.9858 4.989 13.2488 4.80214 12.5 4.80214C11.7511 4.80214 11.0142 4.989 10.3558 5.3458C9.69745 5.70259 9.13855 6.21804 8.72974 6.84542C8.32093 7.4728 8.07515 8.19228 8.01466 8.93866C7.95418 9.68503 8.08091 10.4347 8.38336 11.1197C7.89766 11.0686 7.40664 11.1168 6.94016 11.2614C6.47369 11.4061 6.04152 11.6441 5.66997 11.9611C5.29841 12.278 4.99523 12.6673 4.77888 13.1051C4.56253 13.543 4.43753 14.0203 4.41148 14.508C4.38544 14.9957 4.45891 15.4835 4.6274 15.9419C4.7959 16.4003 5.0559 16.8197 5.39159 17.1744C5.72728 17.5291 6.13164 17.8118 6.58006 18.0053C7.02848 18.1988 7.51158 18.299 7.99996 18.2999Z" fill="#0A0D14" style="fill:#0A0D14;fill:color(display-p3 0.0392 0.0510 0.0784);fill-opacity:1;"/>
</svg>
