<svg width="25" height="24" viewBox="0 0 25 24" fill="none" xmlns="http://www.w3.org/2000/svg">
<path d="M4.4 3.90039H20.6C20.8387 3.90039 21.0676 3.99521 21.2364 4.16399C21.4052 4.33278 21.5 4.5617 21.5 4.80039V19.2004C21.5 19.4391 21.4052 19.668 21.2364 19.8368C21.0676 20.0056 20.8387 20.1004 20.6 20.1004H4.4C4.16131 20.1004 3.93239 20.0056 3.7636 19.8368C3.59482 19.668 3.5 19.4391 3.5 19.2004V4.80039C3.5 4.5617 3.59482 4.33278 3.7636 4.16399C3.93239 3.99521 4.16131 3.90039 4.4 3.90039ZM16.5176 15.1828L19.7 12.0004L16.5176 8.81799L15.245 10.0924L17.1548 12.0004L15.245 13.9093L16.5176 15.1828ZM7.8452 12.0004L9.755 10.0915L8.4824 8.81799L5.3 12.0004L8.4824 15.1828L9.755 13.9084L7.8452 12.0004ZM11.8196 16.5004L15.0956 7.50039H13.1804L9.9044 16.5004H11.8196Z" fill="#0A0D14" style="fill:#0A0D14;fill:color(display-p3 0.0392 0.0510 0.0784);fill-opacity:1;"/>
</svg>
