<svg width="25" height="24" viewBox="0 0 25 24" fill="none" xmlns="http://www.w3.org/2000/svg">
<path d="M12.5 10.3819L10.0727 12.0001L12.5 13.6183L14.9273 12.0001L12.5 10.3819ZM16.55 10.9183L18.9773 9.30013L13.4 5.58223V8.81863L16.55 10.9183ZM19.7 10.9813L18.1727 12.0001L19.7 13.018V10.9831V10.9813ZM16.55 13.0819L13.4 15.1816V18.418L18.9773 14.7001L16.55 13.0819ZM11.6 8.81863V5.58223L6.0227 9.30013L8.45 10.9183L11.6 8.81863ZM6.0227 14.7001L11.6 18.418V15.1816L8.45 13.0819L6.0227 14.7001ZM6.8273 12.0001L5.3 10.9822V13.018L6.8273 12.0001ZM3.5 9.30013C3.49998 9.152 3.53652 9.00615 3.60638 8.87553C3.67625 8.74491 3.77728 8.63355 3.9005 8.55133L12.0005 3.15133C12.1484 3.05266 12.3222 3 12.5 3C12.6778 3 12.8516 3.05266 12.9995 3.15133L21.0995 8.55133C21.2227 8.63355 21.3237 8.74491 21.3936 8.87553C21.4635 9.00615 21.5 9.152 21.5 9.30013V14.7001C21.5 14.8483 21.4635 14.9941 21.3936 15.1247C21.3237 15.2554 21.2227 15.3667 21.0995 15.4489L12.9995 20.8489C12.8516 20.9476 12.6778 21.0003 12.5 21.0003C12.3222 21.0003 12.1484 20.9476 12.0005 20.8489L3.9005 15.4489C3.77728 15.3667 3.67625 15.2554 3.60638 15.1247C3.53652 14.9941 3.49998 14.8483 3.5 14.7001V9.30013Z" fill="#0A0D14" style="fill:#0A0D14;fill:color(display-p3 0.0392 0.0510 0.0784);fill-opacity:1;"/>
</svg>
