<svg width="25" height="24" viewBox="0 0 25 24" fill="none" xmlns="http://www.w3.org/2000/svg">
<path d="M12.5 4.80078C17.9675 4.80078 22.4 7.21818 22.4 10.2008V13.8008C22.4 16.7834 17.9675 19.2008 12.5 19.2008C7.12968 19.2008 2.75838 16.8689 2.60448 13.9601L2.59998 13.8008V10.2008C2.59998 7.21818 7.03248 4.80078 12.5 4.80078ZM12.5 15.6008C9.15198 15.6008 6.19098 14.6945 4.39998 13.3058V13.8008C4.39998 15.4946 7.89468 17.4008 12.5 17.4008C17.009 17.4008 20.4542 15.5738 20.5955 13.907L20.6 13.8008L20.6009 13.3058C18.8099 14.6936 15.8489 15.6008 12.5 15.6008ZM12.5 6.60078C7.89468 6.60078 4.39998 8.50698 4.39998 10.2008C4.39998 11.8946 7.89468 13.8008 12.5 13.8008C17.1053 13.8008 20.6 11.8946 20.6 10.2008C20.6 8.50698 17.1053 6.60078 12.5 6.60078Z" fill="#0A0D14" style="fill:#0A0D14;fill:color(display-p3 0.0392 0.0510 0.0784);fill-opacity:1;"/>
</svg>
