<svg width="25" height="24" viewBox="0 0 25 24" fill="none" xmlns="http://www.w3.org/2000/svg">
<path d="M14.3 3C15.947 2.99921 17.5445 3.5631 18.826 4.59761C20.1075 5.63213 20.9956 7.07473 21.3422 8.68482C21.6888 10.2949 21.4729 11.9752 20.7306 13.4453C19.9882 14.9155 18.7642 16.0868 17.2628 16.7637C16.7829 17.8247 16.0528 18.7535 15.1351 19.4704C14.2174 20.1873 13.1395 20.6709 11.9939 20.8797C10.8483 21.0885 9.66906 21.0164 8.55744 20.6694C7.44582 20.3225 6.43495 19.711 5.61152 18.8876C4.78808 18.0642 4.17667 17.0533 3.8297 15.9417C3.48273 14.8301 3.41057 13.6509 3.61941 12.5052C3.82825 11.3596 4.31184 10.2817 5.02873 9.36402C5.74562 8.44633 6.6744 7.71622 7.73542 7.2363C8.30615 5.9735 9.22905 4.90215 10.3934 4.15075C11.5578 3.39934 12.9142 2.99979 14.3 3ZM11.6 9.3H9.80002V10.2C9.21512 10.1986 8.65265 10.425 8.23184 10.8312C7.81103 11.2374 7.56495 11.7916 7.54575 12.3762C7.52656 12.9607 7.73577 13.5298 8.12902 13.9628C8.52228 14.3957 9.06869 14.6586 9.65242 14.6955L9.80002 14.7H11.6L11.681 14.7072C11.7848 14.726 11.8786 14.7806 11.9462 14.8615C12.0138 14.9425 12.0508 15.0446 12.0508 15.15C12.0508 15.2554 12.0138 15.3575 11.9462 15.4385C11.8786 15.5194 11.7848 15.574 11.681 15.5928L11.6 15.6H8.00002V17.4H9.80002V18.3H11.6V17.4C12.1849 17.4014 12.7474 17.175 13.1682 16.7688C13.589 16.3626 13.8351 15.8084 13.8543 15.2238C13.8735 14.6393 13.6643 14.0702 13.271 13.6372C12.8778 13.2043 12.3313 12.9414 11.7476 12.9045L11.6 12.9H9.80002L9.71902 12.8928C9.61526 12.874 9.5214 12.8194 9.45381 12.7385C9.38622 12.6575 9.34919 12.5554 9.34919 12.45C9.34919 12.3446 9.38622 12.2425 9.45381 12.1615C9.5214 12.0806 9.61526 12.026 9.71902 12.0072L9.80002 12H13.4V10.2H11.6V9.3ZM14.3 4.8C13.5374 4.79911 12.7834 4.96015 12.0877 5.27247C11.392 5.58478 10.7705 6.04126 10.2644 6.6117C11.2817 6.54995 12.3004 6.70485 13.2533 7.06615C14.2062 7.42746 15.0716 7.98694 15.7922 8.7076C16.5127 9.42826 17.0721 10.2937 17.4333 11.2466C17.7945 12.1996 17.9493 13.2184 17.8874 14.2356C18.7057 13.5081 19.2835 12.549 19.5442 11.4855C19.8048 10.422 19.736 9.30442 19.3469 8.28095C18.9578 7.25748 18.2667 6.37648 17.3654 5.75479C16.464 5.13311 15.395 4.80013 14.3 4.8Z" fill="#0A0D14" style="fill:#0A0D14;fill:color(display-p3 0.0392 0.0510 0.0784);fill-opacity:1;"/>
</svg>
