<svg width="25" height="24" viewBox="0 0 25 24" fill="none" xmlns="http://www.w3.org/2000/svg">
<path d="M14.3 3C15.947 2.99921 17.5445 3.5631 18.826 4.59761C20.1075 5.63213 20.9956 7.07473 21.3422 8.68482C21.6888 10.2949 21.4729 11.9752 20.7306 13.4453C19.9882 14.9155 18.7642 16.0868 17.2628 16.7637C16.7829 17.8247 16.0528 18.7535 15.1351 19.4704C14.2174 20.1873 13.1395 20.6709 11.9939 20.8797C10.8483 21.0885 9.66906 21.0164 8.55744 20.6694C7.44582 20.3225 6.43495 19.711 5.61152 18.8876C4.78808 18.0642 4.17667 17.0533 3.8297 15.9417C3.48273 14.8301 3.41057 13.6509 3.61941 12.5052C3.82825 11.3596 4.31184 10.2817 5.02873 9.36402C5.74562 8.44633 6.6744 7.71622 7.73542 7.2363C8.30615 5.9735 9.22905 4.90215 10.3934 4.15075C11.5578 3.39934 12.9142 2.99979 14.3 3ZM10.7 8.4C9.99088 8.4 9.28868 8.53968 8.63353 8.81105C7.97837 9.08243 7.38308 9.48019 6.88164 9.98162C6.3802 10.4831 5.98244 11.0784 5.71107 11.7335C5.43969 12.3887 5.30002 13.0909 5.30002 13.8C5.30002 14.5091 5.43969 15.2113 5.71107 15.8665C5.98244 16.5217 6.3802 17.1169 6.88164 17.6184C7.38308 18.1198 7.97837 18.5176 8.63353 18.789C9.28868 19.0603 9.99088 19.2 10.7 19.2C12.1322 19.2 13.5057 18.6311 14.5184 17.6184C15.5311 16.6057 16.1 15.2322 16.1 13.8C16.1 12.3678 15.5311 10.9943 14.5184 9.98162C13.5057 8.96893 12.1322 8.4 10.7 8.4ZM11.6 9.3V10.2H13.4V12H9.80002C9.68757 11.9998 9.57911 12.0417 9.49601 12.1175C9.41291 12.1932 9.36119 12.2973 9.35103 12.4093C9.34087 12.5213 9.37301 12.6331 9.44111 12.7225C9.50922 12.812 9.60836 12.8728 9.71902 12.8928L9.80002 12.9H11.6C12.1968 12.9 12.769 13.1371 13.191 13.559C13.613 13.981 13.85 14.5533 13.85 15.15C13.85 15.7467 13.613 16.319 13.191 16.741C12.769 17.1629 12.1968 17.4 11.6 17.4V18.3H9.80002V17.4H8.00002V15.6H11.6C11.7125 15.6002 11.8209 15.5583 11.904 15.4825C11.9871 15.4068 12.0388 15.3027 12.049 15.1907C12.0592 15.0787 12.027 14.9669 11.9589 14.8775C11.8908 14.788 11.7917 14.7272 11.681 14.7072L11.6 14.7H9.80002C9.20328 14.7 8.63098 14.4629 8.20903 14.041C7.78707 13.619 7.55002 13.0467 7.55002 12.45C7.55002 11.8533 7.78707 11.281 8.20903 10.859C8.63098 10.4371 9.20328 10.2 9.80002 10.2V9.3H11.6ZM14.3 4.8C13.5374 4.79911 12.7834 4.96015 12.0877 5.27247C11.392 5.58478 10.7705 6.04126 10.2644 6.6117C11.2817 6.54995 12.3004 6.70485 13.2533 7.06615C14.2062 7.42746 15.0716 7.98694 15.7922 8.7076C16.5127 9.42826 17.0721 10.2937 17.4333 11.2466C17.7945 12.1996 17.9493 13.2184 17.8874 14.2356C18.7057 13.5081 19.2835 12.549 19.5442 11.4855C19.8048 10.422 19.736 9.30442 19.3469 8.28095C18.9578 7.25748 18.2667 6.37648 17.3654 5.75479C16.464 5.13311 15.395 4.80013 14.3 4.8Z" fill="#0A0D14" style="fill:#0A0D14;fill:color(display-p3 0.0392 0.0510 0.0784);fill-opacity:1;"/>
</svg>
