<svg width="25" height="24" viewBox="0 0 25 24" fill="none" xmlns="http://www.w3.org/2000/svg">
<path d="M9.8 18.2999H12.5V12.8477L8.9 9.7085L5.3 12.8477V18.2999H8V14.6999H9.8V18.2999ZM20.6 20.0999H4.4C4.16131 20.0999 3.93239 20.0051 3.7636 19.8363C3.59482 19.6675 3.5 19.4386 3.5 19.1999V12.4382C3.49999 12.3096 3.52753 12.1825 3.58078 12.0654C3.63403 11.9484 3.71175 11.8441 3.8087 11.7596L7.1 8.8895V4.7999C7.1 4.56121 7.19482 4.33229 7.3636 4.16351C7.53239 3.99472 7.7613 3.8999 8 3.8999H20.6C20.8387 3.8999 21.0676 3.99472 21.2364 4.16351C21.4052 4.33229 21.5 4.56121 21.5 4.7999V19.1999C21.5 19.4386 21.4052 19.6675 21.2364 19.8363C21.0676 20.0051 20.8387 20.0999 20.6 20.0999ZM16.1 11.0999V12.8999H17.9V11.0999H16.1ZM16.1 14.6999V16.4999H17.9V14.6999H16.1ZM16.1 7.4999V9.2999H17.9V7.4999H16.1ZM12.5 7.4999V9.2999H14.3V7.4999H12.5Z" fill="#0A0D14" style="fill:#0A0D14;fill:color(display-p3 0.0392 0.0510 0.0784);fill-opacity:1;"/>
</svg>
