<svg width="25" height="24" viewBox="0 0 25 24" fill="none" xmlns="http://www.w3.org/2000/svg">
<path d="M20.6 20.0999H4.4C4.16131 20.0999 3.93239 20.0051 3.7636 19.8363C3.59482 19.6675 3.5 19.4386 3.5 19.1999V12.4382C3.49999 12.3096 3.52753 12.1825 3.58078 12.0654C3.63403 11.9484 3.71175 11.8441 3.8087 11.7596L7.1 8.8895V4.7999C7.1 4.56121 7.19482 4.33229 7.3636 4.16351C7.53239 3.99472 7.7613 3.8999 8 3.8999H20.6C20.8387 3.8999 21.0676 3.99472 21.2364 4.16351C21.4052 4.33229 21.5 4.56121 21.5 4.7999V19.1999C21.5 19.4386 21.4052 19.6675 21.2364 19.8363C21.0676 20.0051 20.8387 20.0999 20.6 20.0999ZM9.8 18.2999H12.5V12.8477L8.9 9.7085L5.3 12.8477V18.2999H8V14.6999H9.8V18.2999ZM14.3 18.2999H19.7V5.6999H8.9V7.6142C9.1106 7.6142 9.3221 7.688 9.4913 7.8365L13.9913 11.7596C14.0882 11.8441 14.166 11.9484 14.2192 12.0654C14.2725 12.1825 14.3 12.3096 14.3 12.4382V18.2999ZM16.1 11.0999H17.9V12.8999H16.1V11.0999ZM16.1 14.6999H17.9V16.4999H16.1V14.6999ZM16.1 7.4999H17.9V9.2999H16.1V7.4999ZM12.5 7.4999H14.3V9.2999H12.5V7.4999Z" fill="#0A0D14" style="fill:#0A0D14;fill:color(display-p3 0.0392 0.0510 0.0784);fill-opacity:1;"/>
</svg>
