<svg width="25" height="24" viewBox="0 0 25 24" fill="none" xmlns="http://www.w3.org/2000/svg">
<path d="M10.7 8.40039H14.3V7.05039C14.3 6.42738 14.4848 5.81836 14.8309 5.30035C15.177 4.78233 15.669 4.37859 16.2446 4.14017C16.8202 3.90176 17.4535 3.83937 18.0646 3.96092C18.6756 4.08246 19.2369 4.38247 19.6774 4.82301C20.1179 5.26354 20.418 5.82482 20.5395 6.43586C20.661 7.0469 20.5987 7.68026 20.3602 8.25584C20.1218 8.83143 19.7181 9.32339 19.2001 9.66952C18.6821 10.0156 18.073 10.2004 17.45 10.2004H16.1V13.8004H17.45C18.073 13.8004 18.6821 13.9851 19.2001 14.3313C19.7181 14.6774 20.1218 15.1694 20.3602 15.7449C20.5987 16.3205 20.661 16.9539 20.5395 17.5649C20.418 18.176 20.1179 18.7372 19.6774 19.1778C19.2369 19.6183 18.6756 19.9183 18.0646 20.0399C17.4535 20.1614 16.8202 20.099 16.2446 19.8606C15.669 19.6222 15.177 19.2185 14.8309 18.7004C14.4848 18.1824 14.3 17.5734 14.3 16.9504V15.6004H10.7V16.9504C10.7 17.5734 10.5153 18.1824 10.1692 18.7004C9.82303 19.2185 9.33107 19.6222 8.75548 19.8606C8.17989 20.099 7.54653 20.1614 6.93549 20.0399C6.32445 19.9183 5.76318 19.6183 5.32264 19.1778C4.8821 18.7372 4.5821 18.176 4.46055 17.5649C4.33901 16.9539 4.40139 16.3205 4.63981 15.7449C4.87822 15.1694 5.28196 14.6774 5.79998 14.3313C6.31799 13.9851 6.92701 13.8004 7.55003 13.8004H8.90003V10.2004H7.55003C6.92701 10.2004 6.31799 10.0156 5.79998 9.66952C5.28196 9.32339 4.87822 8.83143 4.63981 8.25584C4.40139 7.68026 4.33901 7.0469 4.46055 6.43586C4.5821 5.82482 4.8821 5.26354 5.32264 4.82301C5.76318 4.38247 6.32445 4.08246 6.93549 3.96092C7.54653 3.83937 8.17989 3.90176 8.75548 4.14017C9.33107 4.37859 9.82303 4.78233 10.1692 5.30035C10.5153 5.81836 10.7 6.42738 10.7 7.05039V8.40039ZM8.90003 8.40039V7.05039C8.90003 6.78339 8.82085 6.52238 8.67251 6.30037C8.52417 6.07837 8.31333 5.90533 8.06665 5.80315C7.81997 5.70098 7.54853 5.67424 7.28665 5.72633C7.02478 5.77842 6.78423 5.907 6.59543 6.0958C6.40663 6.2846 6.27806 6.52515 6.22597 6.78702C6.17388 7.04889 6.20061 7.32033 6.30279 7.56701C6.40497 7.81369 6.578 8.02454 6.80001 8.17288C7.02201 8.32122 7.28302 8.40039 7.55003 8.40039H8.90003ZM8.90003 15.6004H7.55003C7.28302 15.6004 7.02201 15.6796 6.80001 15.8279C6.578 15.9762 6.40497 16.1871 6.30279 16.4338C6.20061 16.6805 6.17388 16.9519 6.22597 17.2138C6.27806 17.4756 6.40663 17.7162 6.59543 17.905C6.78423 18.0938 7.02478 18.2224 7.28665 18.2745C7.54853 18.3265 7.81997 18.2998 8.06665 18.1976C8.31333 18.0955 8.52417 17.9224 8.67251 17.7004C8.82085 17.4784 8.90003 17.2174 8.90003 16.9504V15.6004ZM16.1 8.40039H17.45C17.717 8.40039 17.978 8.32122 18.2 8.17288C18.4221 8.02454 18.5951 7.81369 18.6973 7.56701C18.7994 7.32033 18.8262 7.04889 18.7741 6.78702C18.722 6.52515 18.5934 6.2846 18.4046 6.0958C18.2158 5.907 17.9753 5.77842 17.7134 5.72633C17.4515 5.67424 17.1801 5.70098 16.9334 5.80315C16.6867 5.90533 16.4759 6.07837 16.3275 6.30037C16.1792 6.52238 16.1 6.78339 16.1 7.05039V8.40039ZM16.1 15.6004V16.9504C16.1 17.2174 16.1792 17.4784 16.3275 17.7004C16.4759 17.9224 16.6867 18.0955 16.9334 18.1976C17.1801 18.2998 17.4515 18.3265 17.7134 18.2745C17.9753 18.2224 18.2158 18.0938 18.4046 17.905C18.5934 17.7162 18.722 17.4756 18.7741 17.2138C18.8262 16.9519 18.7994 16.6805 18.6973 16.4338C18.5951 16.1871 18.4221 15.9762 18.2 15.8279C17.978 15.6796 17.717 15.6004 17.45 15.6004H16.1ZM10.7 10.2004V13.8004H14.3V10.2004H10.7Z" fill="#0A0D14" style="fill:#0A0D14;fill:color(display-p3 0.0392 0.0510 0.0784);fill-opacity:1;"/>
</svg>
