<svg width="25" height="24" viewBox="0 0 25 24" fill="none" xmlns="http://www.w3.org/2000/svg">
<path d="M16.397 13.35C17.1465 12.761 17.7523 12.0093 18.1686 11.1517C18.5849 10.2942 18.8008 9.35325 18.8 8.4H20.6C20.6009 9.66938 20.303 10.9212 19.7305 12.0541C19.1579 13.187 18.3267 14.1693 17.3042 14.9214L19.5794 18.8616C19.8181 19.275 19.8828 19.7663 19.7592 20.2274C19.6357 20.6885 19.334 21.0817 18.9206 21.3204L15.7463 15.8232C14.7227 16.271 13.6173 16.5015 12.5 16.5C11.3827 16.5015 10.2773 16.271 9.25369 15.8232L6.07939 21.3204C5.66598 21.0817 5.36432 20.6885 5.24078 20.2274C5.11723 19.7663 5.18191 19.275 5.42059 18.8616L9.97729 10.9686C9.52276 10.5217 9.19498 9.96217 9.0274 9.34715C8.85983 8.73214 8.85848 8.08367 9.02348 7.46796C9.18848 6.85225 9.51392 6.29136 9.96658 5.84256C10.4192 5.39376 10.9829 5.07313 11.6 4.9134V3H13.4V4.9134C14.0171 5.07313 14.5807 5.39376 15.0334 5.84256C15.4861 6.29136 15.8115 6.85225 15.9765 7.46796C16.1415 8.08367 16.1402 8.73214 15.9726 9.34715C15.805 9.96217 15.4772 10.5217 15.0227 10.9686L16.397 13.35ZM14.84 14.2518L13.4648 11.8695C12.8341 12.0446 12.1677 12.0446 11.537 11.8695L10.1618 14.2518C10.8854 14.5407 11.6738 14.7 12.5009 14.7C13.3271 14.7 14.1164 14.5407 14.84 14.2518ZM12.5 10.2C12.9774 10.2 13.4352 10.0104 13.7728 9.67279C14.1104 9.33523 14.3 8.87739 14.3 8.4C14.3 7.92261 14.1104 7.46477 13.7728 7.12721C13.4352 6.78964 12.9774 6.6 12.5 6.6C12.0226 6.6 11.5648 6.78964 11.2272 7.12721C10.8896 7.46477 10.7 7.92261 10.7 8.4C10.7 8.87739 10.8896 9.33523 11.2272 9.67279C11.5648 10.0104 12.0226 10.2 12.5 10.2Z" fill="#0A0D14" style="fill:#0A0D14;fill:color(display-p3 0.0392 0.0510 0.0784);fill-opacity:1;"/>
</svg>
