<svg width="25" height="24" viewBox="0 0 25 24" fill="none" xmlns="http://www.w3.org/2000/svg">
<path d="M16.6625 4.0197L15.3125 5.3697C14.4229 4.99253 13.4663 4.79877 12.5 4.8C8.522 4.8 5.3 8.022 5.3 12C5.3 15.978 8.522 19.2 12.5 19.2C16.478 19.2 19.7 15.978 19.7 12C19.7012 11.0337 19.5075 10.0771 19.1303 9.1875L20.4803 7.8375C21.1521 9.12203 21.502 10.5504 21.5 12C21.5 16.968 17.468 21 12.5 21C7.532 21 3.5 16.968 3.5 12C3.5 7.032 7.532 3 12.5 3C14.0012 3 15.4169 3.369 16.6625 4.0197ZM18.2276 4.9998L19.5002 6.2724L12.5 13.2726L11.2274 12L18.2276 4.9998Z" fill="#0A0D14" style="fill:#0A0D14;fill:color(display-p3 0.0392 0.0510 0.0784);fill-opacity:1;"/>
</svg>
