<svg width="25" height="24" viewBox="0 0 25 24" fill="none" xmlns="http://www.w3.org/2000/svg">
<path d="M16.397 13.35C17.1465 12.761 17.7523 12.0093 18.1686 11.1517C18.5849 10.2942 18.8008 9.35325 18.8 8.4H20.6C20.6009 9.66938 20.303 10.9212 19.7305 12.0541C19.1579 13.187 18.3267 14.1693 17.3042 14.9214L19.5794 18.8616C19.8181 19.275 19.8828 19.7663 19.7592 20.2274C19.6357 20.6885 19.334 21.0817 18.9206 21.3204L15.7463 15.8232C14.7227 16.271 13.6173 16.5015 12.5 16.5C11.3827 16.5015 10.2773 16.271 9.25369 15.8232L6.07939 21.3204C5.66598 21.0817 5.36432 20.6885 5.24078 20.2274C5.11723 19.7663 5.18191 19.275 5.42059 18.8616L9.97729 10.9686C9.52276 10.5217 9.19498 9.96217 9.0274 9.34715C8.85983 8.73214 8.85848 8.08367 9.02348 7.46796C9.18848 6.85225 9.51392 6.29136 9.96658 5.84256C10.4192 5.39376 10.9829 5.07313 11.6 4.9134V3H13.4V4.9134C14.0171 5.07313 14.5807 5.39376 15.0334 5.84256C15.4861 6.29136 15.8115 6.85225 15.9765 7.46796C16.1415 8.08367 16.1402 8.73214 15.9726 9.34715C15.805 9.96217 15.4772 10.5217 15.0227 10.9686L16.397 13.35ZM14.84 14.2518L13.4648 11.8695C12.8341 12.0446 12.1677 12.0446 11.537 11.8695L10.1618 14.2518C10.8854 14.5407 11.6738 14.7 12.5009 14.7C13.3271 14.7 14.1164 14.5407 14.84 14.2518ZM12.5 9.3C12.7387 9.3 12.9676 9.20518 13.1364 9.0364C13.3052 8.86761 13.4 8.63869 13.4 8.4C13.4 8.1613 13.3052 7.93239 13.1364 7.7636C12.9676 7.59482 12.7387 7.5 12.5 7.5C12.2613 7.5 12.0324 7.59482 11.8636 7.7636C11.6948 7.93239 11.6 8.1613 11.6 8.4C11.6 8.63869 11.6948 8.86761 11.8636 9.0364C12.0324 9.20518 12.2613 9.3 12.5 9.3Z" fill="#0A0D14" style="fill:#0A0D14;fill:color(display-p3 0.0392 0.0510 0.0784);fill-opacity:1;"/>
</svg>
