<svg width="25" height="24" viewBox="0 0 25 24" fill="none" xmlns="http://www.w3.org/2000/svg">
<path d="M11.6 4.9134V3H13.4V4.9134C14.0171 5.07313 14.5808 5.39376 15.0334 5.84256C15.4861 6.29136 15.8115 6.85225 15.9765 7.46796C16.1415 8.08367 16.1402 8.73214 15.9726 9.34715C15.805 9.96217 15.4773 10.5217 15.0227 10.9686L20.4794 20.4204L18.9206 21.3204L13.4639 11.8695C12.8333 12.0446 12.1668 12.0446 11.5361 11.8695L6.07943 21.3204L4.52063 20.4204L9.97733 10.9686C9.5228 10.5217 9.19501 9.96217 9.02744 9.34715C8.85987 8.73214 8.85851 8.08367 9.02351 7.46796C9.18851 6.85225 9.51396 6.29136 9.96662 5.84256C10.4193 5.39376 10.9829 5.07313 11.6 4.9134ZM12.5 9.3C12.7387 9.3 12.9676 9.20518 13.1364 9.0364C13.3052 8.86761 13.4 8.63869 13.4 8.4C13.4 8.1613 13.3052 7.93239 13.1364 7.7636C12.9676 7.59482 12.7387 7.5 12.5 7.5C12.2613 7.5 12.0324 7.59482 11.8636 7.7636C11.6949 7.93239 11.6 8.1613 11.6 8.4C11.6 8.63869 11.6949 8.86761 11.8636 9.0364C12.0324 9.20518 12.2613 9.3 12.5 9.3Z" fill="#0A0D14" style="fill:#0A0D14;fill:color(display-p3 0.0392 0.0510 0.0784);fill-opacity:1;"/>
</svg>
