<svg width="24" height="25" viewBox="0 0 24 25" fill="none" xmlns="http://www.w3.org/2000/svg">
<path d="M20.2219 12.5356C20.345 12.6588 20.4087 12.8312 20.3991 13.015C20.3894 13.1989 20.3071 13.379 20.1703 13.5158L11.9159 21.7702C11.7791 21.907 11.599 21.9893 11.4151 21.999C11.2313 22.0087 11.0589 21.9449 10.9357 21.8218L2.5782 13.4642C2.45506 13.3411 2.39131 13.1687 2.40098 12.9848C2.41066 12.801 2.49296 12.6209 2.62979 12.484L10.8841 4.2297C11.021 4.09288 11.2011 4.01057 11.3849 4.0009C11.5687 3.99122 11.7412 4.05497 11.8643 4.17811L20.2219 12.5356ZM10.4198 13.0515L7.16967 9.80138L4.0743 12.8968L7.32444 16.1469L10.4198 13.0515ZM14.5986 17.2303L11.3484 13.9801L8.25306 17.0755L11.5032 20.3257L14.5986 17.2303ZM14.547 8.92436L11.2968 5.67421L8.20147 8.76959L11.4516 12.0197L14.547 8.92436ZM18.7258 13.1031L15.4756 9.85297L12.3802 12.9483L15.6304 16.1985L18.7258 13.1031Z" fill="#525866" style="fill:#525866;fill:color(display-p3 0.3216 0.3451 0.4000);fill-opacity:1;"/>
</svg>
