<svg width="25" height="24" viewBox="0 0 25 24" fill="none" xmlns="http://www.w3.org/2000/svg">
<path d="M12.5 21C7.5293 21 3.5 16.9707 3.5 12C3.5 7.0293 7.5293 3 12.5 3C17.4707 3 21.5 7.0293 21.5 12C21.5 16.9707 17.4707 21 12.5 21ZM12.5 19.2C14.4096 19.2 16.2409 18.4414 17.5912 17.0912C18.9414 15.7409 19.7 13.9096 19.7 12C19.7 10.0904 18.9414 8.25909 17.5912 6.90883C16.2409 5.55857 14.4096 4.8 12.5 4.8C10.5904 4.8 8.75909 5.55857 7.40883 6.90883C6.05857 8.25909 5.3 10.0904 5.3 12C5.3 13.9096 6.05857 15.7409 7.40883 17.0912C8.75909 18.4414 10.5904 19.2 12.5 19.2ZM16.55 7.95L14.3 13.8L8.45 16.05L10.7 10.2L16.55 7.95ZM12.5 12.9C12.7387 12.9 12.9676 12.8052 13.1364 12.6364C13.3052 12.4676 13.4 12.2387 13.4 12C13.4 11.7613 13.3052 11.5324 13.1364 11.3636C12.9676 11.1948 12.7387 11.1 12.5 11.1C12.2613 11.1 12.0324 11.1948 11.8636 11.3636C11.6948 11.5324 11.6 11.7613 11.6 12C11.6 12.2387 11.6948 12.4676 11.8636 12.6364C12.0324 12.8052 12.2613 12.9 12.5 12.9Z" fill="#0A0D14" style="fill:#0A0D14;fill:color(display-p3 0.0392 0.0510 0.0784);fill-opacity:1;"/>
</svg>
