<svg width="24" height="25" viewBox="0 0 24 25" fill="none" xmlns="http://www.w3.org/2000/svg">
<path d="M20.2219 12.9357C20.345 13.0588 20.4087 13.2313 20.3991 13.4151C20.3894 13.5989 20.3071 13.7791 20.1703 13.9159L11.9159 22.1702C11.7791 22.3071 11.599 22.3894 11.4151 22.399C11.2313 22.4087 11.0589 22.345 10.9357 22.2218L2.5782 13.8643C2.45506 13.7412 2.39131 13.5687 2.40098 13.3849C2.41066 13.2011 2.49296 13.0209 2.62979 12.8841L10.8841 4.62976C11.021 4.49293 11.2011 4.41063 11.3849 4.40095C11.5687 4.39128 11.7412 4.45502 11.8643 4.57817L20.2219 12.9357ZM10.4198 13.4516L7.16967 10.2014L4.0743 13.2968L7.32444 16.547L10.4198 13.4516ZM14.5986 17.6303L11.3484 14.3802L8.25306 17.4756L11.5032 20.7257L14.5986 17.6303ZM14.547 9.32441L11.2968 6.07427L8.20147 9.16964L11.4516 12.4198L14.547 9.32441ZM18.7258 13.5032L15.4756 10.253L12.3802 13.3484L15.6304 16.5986L18.7258 13.5032Z" fill="#525866" style="fill:#525866;fill:color(display-p3 0.3216 0.3451 0.4000);fill-opacity:1;"/>
</svg>
