<svg width="24" height="25" viewBox="0 0 24 25" fill="none" xmlns="http://www.w3.org/2000/svg">
<path d="M20.2219 12.3357C20.345 12.4588 20.4087 12.6313 20.3991 12.8151C20.3894 12.9989 20.3071 13.1791 20.1703 13.3159L11.9159 21.5702C11.7791 21.707 11.599 21.7894 11.4151 21.799C11.2313 21.8087 11.0589 21.745 10.9357 21.6218L2.5782 13.2643C2.45506 13.1412 2.39131 12.9687 2.40098 12.7849C2.41066 12.6011 2.49296 12.4209 2.62979 12.2841L10.8841 4.02975C11.021 3.89293 11.2011 3.81062 11.3849 3.80095C11.5687 3.79127 11.7412 3.85502 11.8643 3.97816L20.2219 12.3357ZM10.4198 12.8516L7.16967 9.60143L4.0743 12.6968L7.32444 15.947L10.4198 12.8516ZM14.5986 17.0303L11.3484 13.7802L8.25306 16.8756L11.5032 20.1257L14.5986 17.0303ZM14.547 8.72441L11.2968 5.47426L8.20147 8.56964L11.4516 11.8198L14.547 8.72441ZM18.7258 12.9032L15.4756 9.65302L12.3802 12.7484L15.6304 15.9985L18.7258 12.9032Z" fill="#525866" style="fill:#525866;fill:color(display-p3 0.3216 0.3451 0.4000);fill-opacity:1;"/>
</svg>
