<svg width="24" height="25" viewBox="0 0 24 25" fill="none" xmlns="http://www.w3.org/2000/svg">
<path d="M20.2219 12.7356C20.345 12.8588 20.4087 13.0312 20.3991 13.2151C20.3894 13.3989 20.3071 13.579 20.1703 13.7158L11.9159 21.9702C11.7791 22.107 11.599 22.1893 11.4151 22.199C11.2313 22.2087 11.0589 22.1449 10.9357 22.0218L2.5782 13.6643C2.45506 13.5411 2.39131 13.3687 2.40098 13.1848C2.41066 13.001 2.49296 12.8209 2.62979 12.6841L10.8841 4.42971C11.021 4.29289 11.2011 4.21059 11.3849 4.20091C11.5687 4.19124 11.7412 4.25498 11.8643 4.37812L20.2219 12.7356ZM10.4198 13.2515L7.16967 10.0014L4.0743 13.0968L7.32444 16.3469L10.4198 13.2515ZM14.5986 17.4303L11.3484 14.1802L8.25306 17.2755L11.5032 20.5257L14.5986 17.4303ZM14.547 9.12437L11.2968 5.87422L8.20147 8.9696L11.4516 12.2197L14.547 9.12437ZM18.7258 13.3031L15.4756 10.053L12.3802 13.1484L15.6304 16.3985L18.7258 13.3031Z" fill="#525866" style="fill:#525866;fill:color(display-p3 0.3216 0.3451 0.4000);fill-opacity:1;"/>
</svg>
