<svg width="25" height="24" viewBox="0 0 25 24" fill="none" xmlns="http://www.w3.org/2000/svg">
<path d="M5.29998 15.6004H19.7V5.70039H5.29998V15.6004ZM13.4 17.4004V19.2004H17V21.0004H7.99998V19.2004H11.6V17.4004H4.39278C4.27459 17.3997 4.15771 17.3757 4.04883 17.3297C3.93995 17.2837 3.84121 17.2167 3.75827 17.1325C3.67533 17.0484 3.60982 16.9486 3.5655 16.8391C3.52117 16.7295 3.49891 16.6123 3.49998 16.4941V4.80669C3.49998 4.30629 3.90948 3.90039 4.39278 3.90039H20.6072C21.1004 3.90039 21.5 4.30449 21.5 4.80669V16.4941C21.5 16.9945 21.0905 17.4004 20.6072 17.4004H13.4Z" fill="#0A0D14" style="fill:#0A0D14;fill:color(display-p3 0.0392 0.0510 0.0784);fill-opacity:1;"/>
</svg>
