<svg width="25" height="24" viewBox="0 0 25 24" fill="none" xmlns="http://www.w3.org/2000/svg">
<path d="M11.6 4.9134V3H13.4V4.9134C14.0171 5.07313 14.5808 5.39376 15.0334 5.84256C15.4861 6.29136 15.8115 6.85225 15.9765 7.46796C16.1415 8.08367 16.1402 8.73214 15.9726 9.34715C15.805 9.96217 15.4773 10.5217 15.0227 10.9686L20.4794 20.4204L18.9206 21.3204L13.4639 11.8695C12.8333 12.0446 12.1668 12.0446 11.5361 11.8695L6.07943 21.3204L4.52063 20.4204L9.97733 10.9686C9.5228 10.5217 9.19501 9.96217 9.02744 9.34715C8.85987 8.73214 8.85851 8.08367 9.02351 7.46796C9.18851 6.85225 9.51396 6.29136 9.96662 5.84256C10.4193 5.39376 10.9829 5.07313 11.6 4.9134ZM12.5 10.2C12.9774 10.2 13.4353 10.0104 13.7728 9.67279C14.1104 9.33523 14.3 8.87739 14.3 8.4C14.3 7.92261 14.1104 7.46477 13.7728 7.12721C13.4353 6.78964 12.9774 6.6 12.5 6.6C12.0226 6.6 11.5648 6.78964 11.2272 7.12721C10.8897 7.46477 10.7 7.92261 10.7 8.4C10.7 8.87739 10.8897 9.33523 11.2272 9.67279C11.5648 10.0104 12.0226 10.2 12.5 10.2Z" fill="#0A0D14" style="fill:#0A0D14;fill:color(display-p3 0.0392 0.0510 0.0784);fill-opacity:1;"/>
</svg>
