<svg width="24" height="24" viewBox="0 0 24 24" fill="none" xmlns="http://www.w3.org/2000/svg">
<path d="M20.2219 12.1357C20.345 12.2588 20.4087 12.4313 20.3991 12.6151C20.3894 12.7989 20.3071 12.979 20.1703 13.1159L11.9159 21.3702C11.7791 21.507 11.599 21.5893 11.4151 21.599C11.2313 21.6087 11.0589 21.5449 10.9357 21.4218L2.5782 13.0643C2.45506 12.9411 2.39131 12.7687 2.40098 12.5849C2.41066 12.401 2.49296 12.2209 2.62979 12.0841L10.8841 3.82974C11.021 3.69291 11.2011 3.61061 11.3849 3.60094C11.5687 3.59126 11.7412 3.65501 11.8643 3.77815L20.2219 12.1357ZM10.4198 12.6516L7.16967 9.40142L4.0743 12.4968L7.32444 15.7469L10.4198 12.6516ZM14.5986 16.8303L11.3484 13.5802L8.25306 16.6756L11.5032 19.9257L14.5986 16.8303ZM14.547 8.52439L11.2968 5.27425L8.20147 8.36963L11.4516 11.6198L14.547 8.52439ZM18.7258 12.7032L15.4756 9.45301L12.3802 12.5484L15.6304 15.7985L18.7258 12.7032Z" fill="#525866" style="fill:#525866;fill:color(display-p3 0.3216 0.3451 0.4000);fill-opacity:1;"/>
</svg>
