<svg width="25" height="24" viewBox="0 0 25 24" fill="none" xmlns="http://www.w3.org/2000/svg">
<path d="M20.7218 12.1357C20.845 12.2588 20.9087 12.4313 20.899 12.6151C20.8894 12.7989 20.8071 12.979 20.6702 13.1159L12.4159 21.3702C12.2791 21.507 12.0989 21.5893 11.9151 21.599C11.7313 21.6087 11.5588 21.5449 11.4357 21.4218L3.07817 13.0643C2.95502 12.9411 2.89128 12.7687 2.90095 12.5849C2.91063 12.401 2.99293 12.2209 3.12976 12.0841L11.3841 3.82974C11.5209 3.69291 11.7011 3.61061 11.8849 3.60094C12.0687 3.59126 12.2412 3.65501 12.3643 3.77815L20.7218 12.1357ZM10.9198 12.6516L7.66964 9.40142L4.57427 12.4968L7.82441 15.7469L10.9198 12.6516ZM15.0986 16.8303L11.8484 13.5802L8.75303 16.6756L12.0032 19.9257L15.0986 16.8303ZM15.047 8.52439L11.7968 5.27425L8.70144 8.36963L11.9516 11.6198L15.047 8.52439ZM19.2257 12.7032L15.9756 9.45301L12.8802 12.5484L16.1303 15.7985L19.2257 12.7032Z" fill="#0A0D14" style="fill:#0A0D14;fill:color(display-p3 0.0392 0.0510 0.0784);fill-opacity:1;"/>
</svg>
