<svg width="25" height="24" viewBox="0 0 25 24" fill="none" xmlns="http://www.w3.org/2000/svg">
<path d="M12.5 21C7.5293 21 3.5 16.9707 3.5 12C3.5 7.0293 7.5293 3 12.5 3C17.4707 3 21.5 7.0293 21.5 12C21.5 16.9707 17.4707 21 12.5 21ZM6.4961 15.9825C7.08766 16.8676 7.86812 17.6105 8.78129 18.1577C9.69446 18.7049 10.7176 19.0428 11.7771 19.147C12.8365 19.2513 13.9059 19.1193 14.9082 18.7606C15.9105 18.4019 16.8208 17.8254 17.5736 17.0726C18.3263 16.3198 18.9027 15.4094 19.2613 14.4071C19.62 13.4047 19.7518 12.3353 19.6475 11.2759C19.5431 10.2164 19.2052 9.19332 18.6579 8.2802C18.1106 7.36707 17.3676 6.58668 16.4825 5.9952C16.8706 7.3796 16.883 8.84237 16.5186 10.2332C16.1542 11.624 15.426 12.8927 14.4089 13.9089C13.3928 14.9258 12.1242 15.6539 10.7336 16.0183C9.34296 16.3828 7.88037 16.3704 6.4961 15.9825Z" fill="#0A0D14" style="fill:#0A0D14;fill:color(display-p3 0.0392 0.0510 0.0784);fill-opacity:1;"/>
</svg>
