<svg width="25" height="24" viewBox="0 0 25 24" fill="none" xmlns="http://www.w3.org/2000/svg">
<path d="M3.5 21.0016C3.5 19.092 4.25857 17.2607 5.60883 15.9104C6.95909 14.5601 8.79044 13.8016 10.7 13.8016C12.6096 13.8016 14.4409 14.5601 15.7912 15.9104C17.1414 17.2607 17.9 19.092 17.9 21.0016H3.5ZM10.7 12.9016C7.7165 12.9016 5.3 10.4851 5.3 7.50156C5.3 4.51806 7.7165 2.10156 10.7 2.10156C13.6835 2.10156 16.1 4.51806 16.1 7.50156C16.1 10.4851 13.6835 12.9016 10.7 12.9016ZM19.7 16.5016H23.3V18.3016H19.7V16.5016ZM17 12.0016H23.3V13.8016H17V12.0016ZM18.8 7.50156H23.3V9.30156H18.8V7.50156Z" fill="#0A0D14" style="fill:#0A0D14;fill:color(display-p3 0.0392 0.0510 0.0784);fill-opacity:1;"/>
</svg>
