<svg width="25" height="24" viewBox="0 0 25 24" fill="none" xmlns="http://www.w3.org/2000/svg">
<path d="M19.7 21H7.09999C6.38391 21 5.69715 20.7155 5.19081 20.2092C4.68446 19.7028 4.39999 19.0161 4.39999 18.3V5.7C4.39999 4.98392 4.68446 4.29716 5.19081 3.79081C5.69715 3.28446 6.38391 3 7.09999 3H19.7C19.9387 3 20.1676 3.09482 20.3364 3.2636C20.5052 3.43239 20.6 3.66131 20.6 3.9V20.1C20.6 20.3387 20.5052 20.5676 20.3364 20.7364C20.1676 20.9052 19.9387 21 19.7 21ZM18.8 19.2V17.4H7.09999C6.8613 17.4 6.63238 17.4948 6.4636 17.6636C6.29482 17.8324 6.19999 18.0613 6.19999 18.3C6.19999 18.5387 6.29482 18.7676 6.4636 18.9364C6.63238 19.1052 6.8613 19.2 7.09999 19.2H18.8ZM6.19999 15.753C6.48169 15.654 6.78499 15.6 7.09999 15.6H18.8V4.8H7.09999C6.8613 4.8 6.63238 4.89482 6.4636 5.0636C6.29482 5.23239 6.19999 5.46131 6.19999 5.7V15.753ZM12.5 10.2C12.0226 10.2 11.5648 10.0104 11.2272 9.67279C10.8896 9.33523 10.7 8.87739 10.7 8.4C10.7 7.92261 10.8896 7.46477 11.2272 7.12721C11.5648 6.78964 12.0226 6.6 12.5 6.6C12.9774 6.6 13.4352 6.78964 13.7728 7.12721C14.1104 7.46477 14.3 7.92261 14.3 8.4C14.3 8.87739 14.1104 9.33523 13.7728 9.67279C13.4352 10.0104 12.9774 10.2 12.5 10.2ZM9.79999 13.8C9.79999 13.0839 10.0845 12.3972 10.5908 11.8908C11.0972 11.3845 11.7839 11.1 12.5 11.1C13.2161 11.1 13.9028 11.3845 14.4092 11.8908C14.9155 12.3972 15.2 13.0839 15.2 13.8H9.79999Z" fill="#0A0D14" style="fill:#0A0D14;fill:color(display-p3 0.0392 0.0510 0.0784);fill-opacity:1;"/>
</svg>
