<svg width="25" height="24" viewBox="0 0 25 24" fill="none" xmlns="http://www.w3.org/2000/svg">
<path d="M6.77243 7.17194L12.5 1.44434L18.2276 7.17194C19.3604 8.30475 20.1319 9.74803 20.4444 11.3193C20.7569 12.8905 20.5965 14.5191 19.9834 15.9992C19.3704 17.4793 18.3322 18.7443 17.0001 19.6344C15.6681 20.5244 14.1021 20.9995 12.5 20.9995C10.898 20.9995 9.33196 20.5244 7.99992 19.6344C6.66788 18.7443 5.62969 17.4793 5.01661 15.9992C4.40354 14.5191 4.24313 12.8905 4.55566 11.3193C4.86819 9.74803 5.63963 8.30475 6.77243 7.17194ZM8.04503 8.44454C7.16365 9.32583 6.56348 10.4487 6.32047 11.6712C6.07746 12.8937 6.20253 14.1608 6.67985 15.3122C7.15716 16.4635 7.96528 17.4475 9.00194 18.1394C10.0386 18.8314 11.2572 19.2003 12.5036 19.1995L12.5 3.98954L8.04503 8.44454Z" fill="#0A0D14" style="fill:#0A0D14;fill:color(display-p3 0.0392 0.0510 0.0784);fill-opacity:1;"/>
</svg>
