<svg width="25" height="24" viewBox="0 0 25 24" fill="none" xmlns="http://www.w3.org/2000/svg">
<path d="M12.5 3.98954L8.04503 8.44454C7.16402 9.32563 6.56407 10.4482 6.32103 11.6702C6.078 12.8923 6.2028 14.159 6.67965 15.3101C7.1565 16.4613 7.96399 17.4452 9 18.1374C10.036 18.8296 11.254 19.1991 12.5 19.1991C13.746 19.1991 14.964 18.8296 16.0001 18.1374C17.0361 17.4452 17.8436 16.4613 18.3204 15.3101C18.7973 14.159 18.9221 12.8923 18.679 11.6702C18.436 10.4482 17.836 9.32563 16.955 8.44454L12.5 3.98954ZM12.5 1.44434L18.2276 7.17194C19.3604 8.30475 20.1319 9.74803 20.4444 11.3193C20.7569 12.8905 20.5965 14.5191 19.9834 15.9992C19.3704 17.4793 18.3322 18.7443 17.0001 19.6344C15.6681 20.5244 14.1021 20.9995 12.5 20.9995C10.898 20.9995 9.33196 20.5244 7.99992 19.6344C6.66788 18.7443 5.62969 17.4793 5.01661 15.9992C4.40354 14.5191 4.24313 12.8905 4.55566 11.3193C4.86819 9.74803 5.63963 8.30475 6.77243 7.17194L12.5 1.44434ZM8.00003 12.8995H17C17 14.093 16.5259 15.2376 15.682 16.0815C14.8381 16.9254 13.6935 17.3995 12.5 17.3995C11.3066 17.3995 10.162 16.9254 9.31805 16.0815C8.47413 15.2376 8.00003 14.093 8.00003 12.8995Z" fill="#0A0D14" style="fill:#0A0D14;fill:color(display-p3 0.0392 0.0510 0.0784);fill-opacity:1;"/>
</svg>
