<svg width="25" height="24" viewBox="0 0 25 24" fill="none" xmlns="http://www.w3.org/2000/svg">
<path d="M8.00002 3V21H4.40002V3H8.00002ZM9.80002 3H18.8045C19.7963 3 20.6 3.8082 20.6 4.791V19.209C20.6 20.1981 19.7963 21 18.8045 21H9.80002V3ZM21.5 6.6H23.3V10.2H21.5V6.6ZM21.5 12H23.3V15.6H21.5V12ZM15.2 12C15.6774 12 16.1353 11.8104 16.4728 11.4728C16.8104 11.1352 17 10.6774 17 10.2C17 9.72261 16.8104 9.26477 16.4728 8.92721C16.1353 8.58964 15.6774 8.4 15.2 8.4C14.7226 8.4 14.2648 8.58964 13.9272 8.92721C13.5897 9.26477 13.4 9.72261 13.4 10.2C13.4 10.6774 13.5897 11.1352 13.9272 11.4728C14.2648 11.8104 14.7226 12 15.2 12ZM12.5 15.6H17.9C17.9 14.8839 17.6156 14.1972 17.1092 13.6908C16.6029 13.1845 15.9161 12.9 15.2 12.9C14.4839 12.9 13.7972 13.1845 13.2908 13.6908C12.7845 14.1972 12.5 14.8839 12.5 15.6Z" fill="#0A0D14" style="fill:#0A0D14;fill:color(display-p3 0.0392 0.0510 0.0784);fill-opacity:1;"/>
</svg>
