<svg width="25" height="24" viewBox="0 0 25 24" fill="none" xmlns="http://www.w3.org/2000/svg">
<path d="M12.5 21C7.5293 21 3.5 16.9707 3.5 12C3.5 7.0293 7.5293 3 12.5 3C17.4707 3 21.5 7.0293 21.5 12C21.5 16.9707 17.4707 21 12.5 21ZM12.5 19.2C14.4096 19.2 16.2409 18.4414 17.5912 17.0912C18.9414 15.7409 19.7 13.9096 19.7 12C19.7 10.0904 18.9414 8.25909 17.5912 6.90883C16.2409 5.55857 14.4096 4.8 12.5 4.8C10.5904 4.8 8.75909 5.55857 7.40883 6.90883C6.05857 8.25909 5.3 10.0904 5.3 12C5.3 13.9096 6.05857 15.7409 7.40883 17.0912C8.75909 18.4414 10.5904 19.2 12.5 19.2ZM8 14.988C9.93955 14.8486 11.7635 14.0135 13.1363 12.6363C14.5135 11.2635 15.3486 9.43955 15.488 7.5C16.153 7.94305 16.7114 8.52816 17.1229 9.21314C17.5344 9.89812 17.7888 10.6659 17.8676 11.4611C17.9465 12.2562 17.8479 13.059 17.5789 13.8115C17.31 14.5639 16.8774 15.2473 16.3124 15.8124C15.7473 16.3774 15.0639 16.81 14.3115 17.0789C13.559 17.3479 12.7562 17.4465 11.9611 17.3676C11.1659 17.2888 10.3981 17.0344 9.71314 16.6229C9.02816 16.2114 8.44305 15.653 8 14.988Z" fill="#0A0D14" style="fill:#0A0D14;fill:color(display-p3 0.0392 0.0510 0.0784);fill-opacity:1;"/>
</svg>
