<svg width="25" height="24" viewBox="0 0 25 24" fill="none" xmlns="http://www.w3.org/2000/svg">
<path d="M6.77243 7.17194L12.5 1.44434L18.2276 7.17194C19.3604 8.30475 20.1319 9.74803 20.4444 11.3193C20.7569 12.8905 20.5965 14.5191 19.9834 15.9992C19.3704 17.4793 18.3322 18.7443 17.0001 19.6344C15.6681 20.5244 14.1021 20.9995 12.5 20.9995C10.898 20.9995 9.33196 20.5244 7.99992 19.6344C6.66788 18.7443 5.62969 17.4793 5.01661 15.9992C4.40354 14.5191 4.24313 12.8905 4.55566 11.3193C4.86819 9.74803 5.63963 8.30475 6.77243 7.17194ZM12.5 3.99044L8.04503 8.44454C7.45916 9.02894 6.99455 9.72337 6.67793 10.4879C6.3613 11.2524 6.19889 12.072 6.20003 12.8995H18.8C18.8012 12.072 18.6388 11.2524 18.3221 10.4879C18.0055 9.72337 17.5409 9.02894 16.955 8.44454L12.5 3.98954V3.99044Z" fill="#0A0D14" style="fill:#0A0D14;fill:color(display-p3 0.0392 0.0510 0.0784);fill-opacity:1;"/>
</svg>
