<svg width="25" height="24" viewBox="0 0 25 24" fill="none" xmlns="http://www.w3.org/2000/svg">
<path d="M4.40002 3H18.8045C19.7963 3 20.6 3.8082 20.6 4.791V19.209C20.6 20.1981 19.7963 21 18.8045 21H4.40002V3ZM8.00002 4.8H6.20002V19.2H8.00002V4.8ZM9.80002 19.2H18.8V4.8H9.80002V19.2ZM11.6 15.6C11.6 14.8839 11.8845 14.1972 12.3908 13.6908C12.8972 13.1845 13.5839 12.9 14.3 12.9C15.0161 12.9 15.7029 13.1845 16.2092 13.6908C16.7156 14.1972 17 14.8839 17 15.6H11.6ZM14.3 12C13.8226 12 13.3648 11.8104 13.0272 11.4728C12.6897 11.1352 12.5 10.6774 12.5 10.2C12.5 9.72261 12.6897 9.26477 13.0272 8.92721C13.3648 8.58964 13.8226 8.4 14.3 8.4C14.7774 8.4 15.2353 8.58964 15.5728 8.92721C15.9104 9.26477 16.1 9.72261 16.1 10.2C16.1 10.6774 15.9104 11.1352 15.5728 11.4728C15.2353 11.8104 14.7774 12 14.3 12ZM21.5 6.6H23.3V10.2H21.5V6.6ZM21.5 12H23.3V15.6H21.5V12Z" fill="#0A0D14" style="fill:#0A0D14;fill:color(display-p3 0.0392 0.0510 0.0784);fill-opacity:1;"/>
</svg>
