<svg width="25" height="24" viewBox="0 0 25 24" fill="none" xmlns="http://www.w3.org/2000/svg">
<path d="M12.5 3C17.468 3 21.5 7.032 21.5 12C21.5 16.968 17.468 21 12.5 21C7.532 21 3.5 16.968 3.5 12C3.5 7.032 7.532 3 12.5 3ZM12.5 4.8C8.522 4.8 5.3 8.022 5.3 12C5.3 15.978 8.522 19.2 12.5 19.2C16.478 19.2 19.7 15.978 19.7 12C19.7 8.022 16.478 4.8 12.5 4.8ZM12.5 7.5C14.138 7.5 15.5717 8.3757 16.3592 9.6852L14.8166 10.6113C14.5738 10.2065 14.2292 9.87245 13.8171 9.6424C13.4049 9.41235 12.9397 9.29437 12.4677 9.30021C11.9957 9.30605 11.5336 9.43551 11.1272 9.67568C10.7209 9.91585 10.3846 10.2583 10.152 10.669C9.91929 11.0797 9.79833 11.5442 9.80115 12.0161C9.80398 12.4881 9.93048 12.9511 10.1681 13.359C10.4056 13.7668 10.746 14.1053 11.1551 14.3406C11.5643 14.5759 12.028 14.6998 12.5 14.7C12.9663 14.7003 13.4248 14.5797 13.8306 14.3501C14.2365 14.1204 14.5759 13.7895 14.8157 13.3896L16.3592 14.3148C15.8534 15.1596 15.0845 15.8151 14.1703 16.1808C13.2562 16.5466 12.2473 16.6023 11.2984 16.3396C10.3495 16.0768 9.51303 15.51 8.91722 14.7261C8.32142 13.9423 7.99921 12.9846 8 12C8 9.516 10.016 7.5 12.5 7.5Z" fill="#0A0D14" style="fill:#0A0D14;fill:color(display-p3 0.0392 0.0510 0.0784);fill-opacity:1;"/>
</svg>
