<svg width="25" height="24" viewBox="0 0 25 24" fill="none" xmlns="http://www.w3.org/2000/svg">
<path d="M12.5 3C17.468 3 21.5 7.032 21.5 12C21.5 16.968 17.468 21 12.5 21C7.532 21 3.5 16.968 3.5 12C3.5 7.032 7.532 3 12.5 3ZM12.5 7.5C10.016 7.5 8 9.516 8 12C8 14.484 10.016 16.5 12.5 16.5C14.138 16.5 15.5717 15.6243 16.3592 14.3148L14.8157 13.3896C14.5728 13.7943 14.2281 14.1282 13.8159 14.3581C13.4037 14.588 12.9384 14.7058 12.4665 14.6998C11.9945 14.6938 11.5324 14.5642 11.1262 14.3239C10.72 14.0836 10.3838 13.7411 10.1513 13.3304C9.9187 12.9197 9.79787 12.4552 9.8008 11.9832C9.80373 11.5113 9.93032 11.0483 10.168 10.6405C10.4056 10.2328 10.746 9.8944 11.1552 9.65919C11.5643 9.42398 12.028 9.30013 12.5 9.3C13.4837 9.3 14.345 9.8256 14.8166 10.6113L16.3592 9.6843C15.9594 9.01791 15.3937 8.46646 14.7174 8.08366C14.0411 7.70086 13.2771 7.49978 12.5 7.5Z" fill="#0A0D14" style="fill:#0A0D14;fill:color(display-p3 0.0392 0.0510 0.0784);fill-opacity:1;"/>
</svg>
