<svg width="25" height="24" viewBox="0 0 25 24" fill="none" xmlns="http://www.w3.org/2000/svg">
<path d="M12.5 21C7.532 21 3.5 16.968 3.5 12C3.5 7.032 7.532 3 12.5 3C17.468 3 21.5 7.032 21.5 12C21.5 16.968 17.468 21 12.5 21ZM12.5 16.5C14.984 16.5 17 14.484 17 12C17 9.516 14.984 7.5 12.5 7.5C10.862 7.5 9.4283 8.3757 8.6408 9.6852L10.1843 10.6104C10.6568 9.8247 11.5163 9.3 12.5 9.3C13.9922 9.3 15.2 10.5078 15.2 12C15.2 13.4922 13.9922 14.7 12.5 14.7C11.5163 14.7 10.655 14.1744 10.1834 13.3887L8.6408 14.3157C9.4283 15.6234 10.862 16.5 12.5 16.5Z" fill="#0A0D14" style="fill:#0A0D14;fill:color(display-p3 0.0392 0.0510 0.0784);fill-opacity:1;"/>
</svg>
