<svg width="25" height="24" viewBox="0 0 25 24" fill="none" xmlns="http://www.w3.org/2000/svg">
<path d="M10.178 5.16066C9.00758 5.55387 7.95796 6.24147 7.12996 7.15738C6.30196 8.07329 5.7234 9.18674 5.44988 10.3908C5.17636 11.5948 5.21706 12.8489 5.56808 14.0327C5.91909 15.2164 6.56862 16.29 7.45427 17.1503C8.33991 18.0106 9.43191 18.6287 10.6254 18.9452C11.8188 19.2617 13.0736 19.266 14.2692 18.9576C15.4647 18.6493 16.5609 18.0386 17.4524 17.1844C18.3439 16.3301 19.0007 15.261 19.3598 14.0797C16.2998 15.3937 12.8366 15.8617 8.96929 15.4882C8.32939 11.7748 8.73169 8.33316 10.178 5.16066ZM12.3812 4.78806C11.7828 5.85832 11.3168 6.99738 10.9934 8.18016C12.3859 8.20791 13.7134 8.7744 14.6969 9.76056C15.6272 10.6882 16.1858 11.9242 16.2674 13.2355C17.4644 12.9286 18.5975 12.4975 19.6694 11.9458C19.6646 10.9961 19.4719 10.0568 19.1023 9.18208C18.7327 8.3073 18.1936 7.51435 17.5161 6.84895C16.8385 6.18355 16.036 5.65886 15.1547 5.30514C14.2734 4.95143 13.3308 4.77569 12.3812 4.78806ZM6.10549 18.352C2.59099 14.8375 2.59099 9.13866 6.10549 5.62416C9.61999 2.10966 15.3188 2.10966 18.8333 5.62416C22.3478 9.13866 22.3478 14.8375 18.8333 18.352C15.3188 21.8665 9.61999 21.8665 6.10549 18.352ZM10.6235 9.98826C10.4502 11.2498 10.4273 12.5274 10.5551 13.7944C11.8664 13.8521 13.1803 13.7858 14.4791 13.5964C14.482 13.1205 14.3902 12.6489 14.2091 12.2088C14.028 11.7688 13.7612 11.3692 13.4243 11.0332C13.0599 10.668 12.6211 10.3857 12.1378 10.2054C11.6545 10.0251 11.138 9.95104 10.6235 9.98826Z" fill="#0A0D14" style="fill:#0A0D14;fill:color(display-p3 0.0392 0.0510 0.0784);fill-opacity:1;"/>
</svg>
