<svg width="25" height="24" viewBox="0 0 25 24" fill="none" xmlns="http://www.w3.org/2000/svg">
<path d="M12.5 21C7.5293 21 3.5 16.9707 3.5 12C3.5 7.0293 7.5293 3 12.5 3C17.4707 3 21.5 7.0293 21.5 12C21.5 16.9707 17.4707 21 12.5 21ZM9.1961 12.2736C9.1601 13.0386 9.2294 13.8009 9.3023 14.5632C9.3068 14.6172 9.3266 14.6298 9.3743 14.6352C9.7397 14.6838 10.106 14.727 10.4741 14.7495C11.3417 14.8044 12.2093 14.8746 13.0805 14.826C13.5755 14.799 14.0705 14.7828 14.5637 14.7405C15.2657 14.6793 15.9677 14.601 16.6607 14.4597C17.5229 14.2851 18.377 14.0772 19.1807 13.6992C19.5461 13.5282 19.8917 13.3257 20.1833 13.0368C20.3975 12.8253 20.5505 12.5805 20.5523 12.2628C20.5537 11.9803 20.5402 11.6979 20.5118 11.4168C20.4493 10.7474 20.3039 10.0884 20.0789 9.4548C19.5533 7.9986 18.7199 6.7647 17.5355 5.7918C16.5343 4.9585 15.3444 4.38286 14.0696 4.1151C13.6196 4.0206 13.1642 3.9855 12.707 3.9531C12.1913 3.9162 11.7494 4.0611 11.3678 4.4157C10.9223 4.827 10.6145 5.3373 10.358 5.8854C9.7577 7.1697 9.4823 8.544 9.3086 9.9426C9.20484 10.715 9.1672 11.4948 9.1961 12.2736ZM12.4091 7.7466C13.2722 7.7736 14.0021 8.0382 14.6537 8.517C15.4428 9.08109 15.9929 9.9194 16.1963 10.8678C16.2575 11.1414 16.2836 11.4186 16.289 11.6976C16.2935 11.8857 16.19 12.0234 16.0532 12.1386C15.7769 12.3708 15.4502 12.4995 15.1082 12.5958C14.4422 12.7821 13.7618 12.8892 13.0697 12.9252C12.6197 12.9486 12.1697 12.9567 11.7197 12.9342C11.5469 12.9252 11.3732 12.9126 11.2004 12.9054C11.1464 12.9036 11.1284 12.8874 11.1248 12.8325C11.1041 12.4419 11.0735 12.0513 11.0798 11.6607C11.0942 10.7373 11.1644 9.8202 11.4371 8.9301C11.5271 8.634 11.6378 8.3451 11.8151 8.0877C11.9708 7.8627 12.1553 7.6944 12.4091 7.7457V7.7466Z" fill="#0A0D14" style="fill:#0A0D14;fill:color(display-p3 0.0392 0.0510 0.0784);fill-opacity:1;"/>
</svg>
