<svg width="25" height="24" viewBox="0 0 25 24" fill="none" xmlns="http://www.w3.org/2000/svg">
<path d="M3.5 4.80039C3.5 4.5617 3.59482 4.33278 3.7636 4.16399C3.93239 3.99521 4.16131 3.90039 4.4 3.90039H20.6C20.8387 3.90039 21.0676 3.99521 21.2364 4.16399C21.4052 4.33278 21.5 4.5617 21.5 4.80039V9.75039C20.9033 9.75039 20.331 9.98744 19.909 10.4094C19.4871 10.8314 19.25 11.4037 19.25 12.0004C19.25 12.5971 19.4871 13.1694 19.909 13.5914C20.331 14.0133 20.9033 14.2504 21.5 14.2504V19.2004C21.5 19.4391 21.4052 19.668 21.2364 19.8368C21.0676 20.0056 20.8387 20.1004 20.6 20.1004H4.4C4.16131 20.1004 3.93239 20.0056 3.7636 19.8368C3.59482 19.668 3.5 19.4391 3.5 19.2004V4.80039ZM8.9765 18.3004C9.06926 18.0367 9.2416 17.8083 9.46971 17.6467C9.69782 17.4852 9.97046 17.3984 10.25 17.3984C10.5295 17.3984 10.8022 17.4852 11.0303 17.6467C11.2584 17.8083 11.4307 18.0367 11.5235 18.3004H19.7V15.6292C19.0239 15.2941 18.4549 14.7768 18.057 14.1357C17.6592 13.4945 17.4484 12.755 17.4484 12.0004C17.4484 11.2458 17.6592 10.5063 18.057 9.8651C18.4549 9.22394 19.0239 8.70666 19.7 8.37159V5.70039H11.5235C11.4307 5.96409 11.2584 6.19248 11.0303 6.35405C10.8022 6.51562 10.5295 6.6024 10.25 6.6024C9.97046 6.6024 9.69782 6.51562 9.46971 6.35405C9.2416 6.19248 9.06926 5.96409 8.9765 5.70039H5.3V18.3004H8.9765ZM10.25 11.1004C9.89196 11.1004 9.54858 10.9582 9.29541 10.705C9.04223 10.4518 8.9 10.1084 8.9 9.75039C8.9 9.39235 9.04223 9.04897 9.29541 8.7958C9.54858 8.54262 9.89196 8.40039 10.25 8.40039C10.608 8.40039 10.9514 8.54262 11.2046 8.7958C11.4578 9.04897 11.6 9.39235 11.6 9.75039C11.6 10.1084 11.4578 10.4518 11.2046 10.705C10.9514 10.9582 10.608 11.1004 10.25 11.1004ZM10.25 15.6004C9.89196 15.6004 9.54858 15.4582 9.29541 15.205C9.04223 14.9518 8.9 14.6084 8.9 14.2504C8.9 13.8923 9.04223 13.549 9.29541 13.2958C9.54858 13.0426 9.89196 12.9004 10.25 12.9004C10.608 12.9004 10.9514 13.0426 11.2046 13.2958C11.4578 13.549 11.6 13.8923 11.6 14.2504C11.6 14.6084 11.4578 14.9518 11.2046 15.205C10.9514 15.4582 10.608 15.6004 10.25 15.6004Z" fill="#0A0D14" style="fill:#0A0D14;fill:color(display-p3 0.0392 0.0510 0.0784);fill-opacity:1;"/>
</svg>
