<svg width="25" height="24" viewBox="0 0 25 24" fill="none" xmlns="http://www.w3.org/2000/svg">
<path d="M10.7 20.1004H4.4C4.16131 20.1004 3.93239 20.0056 3.7636 19.8368C3.59482 19.668 3.5 19.4391 3.5 19.2004V4.80039C3.5 4.5617 3.59482 4.33278 3.7636 4.16399C3.93239 3.99521 4.16131 3.90039 4.4 3.90039H10.7C10.7 4.37778 10.8896 4.83562 11.2272 5.17318C11.5648 5.51075 12.0226 5.70039 12.5 5.70039C12.9774 5.70039 13.4352 5.51075 13.7728 5.17318C14.1104 4.83562 14.3 4.37778 14.3 3.90039H20.6C20.8387 3.90039 21.0676 3.99521 21.2364 4.16399C21.4052 4.33278 21.5 4.5617 21.5 4.80039V19.2004C21.5 19.4391 21.4052 19.668 21.2364 19.8368C21.0676 20.0056 20.8387 20.1004 20.6 20.1004H14.3C14.3 19.623 14.1104 19.1652 13.7728 18.8276C13.4352 18.49 12.9774 18.3004 12.5 18.3004C12.0226 18.3004 11.5648 18.49 11.2272 18.8276C10.8896 19.1652 10.7 19.623 10.7 20.1004ZM9.3815 18.3004C9.69739 17.7529 10.1519 17.2982 10.6994 16.9823C11.2469 16.6663 11.8679 16.5001 12.5 16.5004C13.832 16.5004 14.9957 17.224 15.6185 18.3004H19.7V5.70039H15.6185C15.3026 6.2479 14.8481 6.70253 14.3006 7.01853C13.7531 7.33452 13.1321 7.50072 12.5 7.50039C11.8679 7.50072 11.2469 7.33452 10.6994 7.01853C10.1519 6.70253 9.69739 6.2479 9.3815 5.70039H5.3V18.3004H9.3815ZM7.1 8.40039H8.9V15.6004H7.1V8.40039ZM16.1 8.40039H17.9V15.6004H16.1V8.40039Z" fill="#0A0D14" style="fill:#0A0D14;fill:color(display-p3 0.0392 0.0510 0.0784);fill-opacity:1;"/>
</svg>
