<svg width="25" height="24" viewBox="0 0 25 24" fill="none" xmlns="http://www.w3.org/2000/svg">
<path d="M11.6 20.1004C11.6 19.7423 11.4578 19.399 11.2046 19.1458C10.9514 18.8926 10.608 18.7504 10.25 18.7504C9.89196 18.7504 9.54858 18.8926 9.29541 19.1458C9.04223 19.399 8.9 19.7423 8.9 20.1004H4.4C4.16131 20.1004 3.93239 20.0056 3.7636 19.8368C3.59482 19.668 3.5 19.4391 3.5 19.2004V4.80039C3.5 4.5617 3.59482 4.33278 3.7636 4.16399C3.93239 3.99521 4.16131 3.90039 4.4 3.90039H8.9C8.9 4.25843 9.04223 4.60181 9.29541 4.85498C9.54858 5.10816 9.89196 5.25039 10.25 5.25039C10.608 5.25039 10.9514 5.10816 11.2046 4.85498C11.4578 4.60181 11.6 4.25843 11.6 3.90039H20.6C20.8387 3.90039 21.0676 3.99521 21.2364 4.16399C21.4052 4.33278 21.5 4.5617 21.5 4.80039V9.75039C20.9033 9.75039 20.331 9.98744 19.909 10.4094C19.4871 10.8314 19.25 11.4037 19.25 12.0004C19.25 12.5971 19.4871 13.1694 19.909 13.5914C20.331 14.0133 20.9033 14.2504 21.5 14.2504V19.2004C21.5 19.4391 21.4052 19.668 21.2364 19.8368C21.0676 20.0056 20.8387 20.1004 20.6 20.1004H11.6ZM10.25 10.6504C10.608 10.6504 10.9514 10.5082 11.2046 10.255C11.4578 10.0018 11.6 9.65843 11.6 9.30039C11.6 8.94235 11.4578 8.59897 11.2046 8.3458C10.9514 8.09262 10.608 7.95039 10.25 7.95039C9.89196 7.95039 9.54858 8.09262 9.29541 8.3458C9.04223 8.59897 8.9 8.94235 8.9 9.30039C8.9 9.65843 9.04223 10.0018 9.29541 10.255C9.54858 10.5082 9.89196 10.6504 10.25 10.6504ZM10.25 16.0504C10.608 16.0504 10.9514 15.9082 11.2046 15.655C11.4578 15.4018 11.6 15.0584 11.6 14.7004C11.6 14.3423 11.4578 13.999 11.2046 13.7458C10.9514 13.4926 10.608 13.3504 10.25 13.3504C9.89196 13.3504 9.54858 13.4926 9.29541 13.7458C9.04223 13.999 8.9 14.3423 8.9 14.7004C8.9 15.0584 9.04223 15.4018 9.29541 15.655C9.54858 15.9082 9.89196 16.0504 10.25 16.0504Z" fill="#0A0D14" style="fill:#0A0D14;fill:color(display-p3 0.0392 0.0510 0.0784);fill-opacity:1;"/>
</svg>
