<svg width="25" height="24" viewBox="0 0 25 24" fill="none" xmlns="http://www.w3.org/2000/svg">
<path d="M10.7 20.1004H4.4C4.16131 20.1004 3.93239 20.0056 3.7636 19.8368C3.59482 19.668 3.5 19.4391 3.5 19.2004V4.80039C3.5 4.5617 3.59482 4.33278 3.7636 4.16399C3.93239 3.99521 4.16131 3.90039 4.4 3.90039H10.7C10.7 4.37778 10.8896 4.83562 11.2272 5.17318C11.5648 5.51075 12.0226 5.70039 12.5 5.70039C12.9774 5.70039 13.4352 5.51075 13.7728 5.17318C14.1104 4.83562 14.3 4.37778 14.3 3.90039H20.6C20.8387 3.90039 21.0676 3.99521 21.2364 4.16399C21.4052 4.33278 21.5 4.5617 21.5 4.80039V19.2004C21.5 19.4391 21.4052 19.668 21.2364 19.8368C21.0676 20.0056 20.8387 20.1004 20.6 20.1004H14.3C14.3 19.623 14.1104 19.1652 13.7728 18.8276C13.4352 18.49 12.9774 18.3004 12.5 18.3004C12.0226 18.3004 11.5648 18.49 11.2272 18.8276C10.8896 19.1652 10.7 19.623 10.7 20.1004ZM7.1 8.40039V15.6004H8.9V8.40039H7.1ZM16.1 8.40039V15.6004H17.9V8.40039H16.1Z" fill="#0A0D14" style="fill:#0A0D14;fill:color(display-p3 0.0392 0.0510 0.0784);fill-opacity:1;"/>
</svg>
