<svg width="25" height="24" viewBox="0 0 25 24" fill="none" xmlns="http://www.w3.org/2000/svg">
<path d="M20.6 13.8V20.1C20.6 20.3387 20.5052 20.5676 20.3364 20.7364C20.1676 20.9052 19.9387 21 19.7 21H5.30002C5.06133 21 4.83241 20.9052 4.66363 20.7364C4.49485 20.5676 4.40002 20.3387 4.40002 20.1V13.8C4.87741 13.8 5.33525 13.6104 5.67282 13.2728C6.01038 12.9352 6.20002 12.4774 6.20002 12C6.20002 11.5226 6.01038 11.0648 5.67282 10.7272C5.33525 10.3896 4.87741 10.2 4.40002 10.2V3.9C4.40002 3.66131 4.49485 3.43239 4.66363 3.2636C4.83241 3.09482 5.06133 3 5.30002 3H19.7C19.9387 3 20.1676 3.09482 20.3364 3.2636C20.5052 3.43239 20.6 3.66131 20.6 3.9V10.2C20.1226 10.2 19.6648 10.3896 19.3272 10.7272C18.9897 11.0648 18.8 11.5226 18.8 12C18.8 12.4774 18.9897 12.9352 19.3272 13.2728C19.6648 13.6104 20.1226 13.8 20.6 13.8ZM9.80002 6.6V8.4H15.2V6.6H9.80002ZM9.80002 15.6V17.4H15.2V15.6H9.80002Z" fill="#0A0D14" style="fill:#0A0D14;fill:color(display-p3 0.0392 0.0510 0.0784);fill-opacity:1;"/>
</svg>
