<svg width="25" height="24" viewBox="0 0 25 24" fill="none" xmlns="http://www.w3.org/2000/svg">
<path d="M3.5 9.75039V4.80039C3.5 4.5617 3.59482 4.33278 3.7636 4.16399C3.93239 3.99521 4.16131 3.90039 4.4 3.90039H20.6C20.8387 3.90039 21.0676 3.99521 21.2364 4.16399C21.4052 4.33278 21.5 4.5617 21.5 4.80039V9.75039C20.9033 9.75039 20.331 9.98744 19.909 10.4094C19.4871 10.8314 19.25 11.4037 19.25 12.0004C19.25 12.5971 19.4871 13.1694 19.909 13.5914C20.331 14.0133 20.9033 14.2504 21.5 14.2504V19.2004C21.5 19.4391 21.4052 19.668 21.2364 19.8368C21.0676 20.0056 20.8387 20.1004 20.6 20.1004H4.4C4.16131 20.1004 3.93239 20.0056 3.7636 19.8368C3.59482 19.668 3.5 19.4391 3.5 19.2004V14.2504C4.09674 14.2504 4.66903 14.0133 5.09099 13.5914C5.51295 13.1694 5.75 12.5971 5.75 12.0004C5.75 11.4037 5.51295 10.8314 5.09099 10.4094C4.66903 9.98744 4.09674 9.75039 3.5 9.75039ZM14.3 5.70039H5.3V8.37159C5.97609 8.70666 6.54513 9.22394 6.94295 9.8651C7.34078 10.5063 7.55158 11.2458 7.55158 12.0004C7.55158 12.755 7.34078 13.4945 6.94295 14.1357C6.54513 14.7768 5.97609 15.2941 5.3 15.6292V18.3004H14.3V5.70039ZM16.1 5.70039V18.3004H19.7V15.6292C19.0239 15.2941 18.4549 14.7768 18.057 14.1357C17.6592 13.4945 17.4484 12.755 17.4484 12.0004C17.4484 11.2458 17.6592 10.5063 18.057 9.8651C18.4549 9.22394 19.0239 8.70666 19.7 8.37159V5.70039H16.1Z" fill="#0A0D14" style="fill:#0A0D14;fill:color(display-p3 0.0392 0.0510 0.0784);fill-opacity:1;"/>
</svg>
