<svg width="25" height="24" viewBox="0 0 25 24" fill="none" xmlns="http://www.w3.org/2000/svg">
<path d="M14.3 19.2H10.7V21H8.9V19.2H6.2C5.96131 19.2 5.73239 19.1052 5.5636 18.9364C5.39482 18.7676 5.3 18.5387 5.3 18.3V15.6H3.5V13.8H5.3V10.2H3.5V8.4H5.3V5.7C5.3 5.46131 5.39482 5.23239 5.5636 5.0636C5.73239 4.89482 5.96131 4.8 6.2 4.8H8.9V3H10.7V4.8H14.3V3H16.1V4.8H18.8C19.0387 4.8 19.2676 4.89482 19.4364 5.0636C19.6052 5.23239 19.7 5.46131 19.7 5.7V8.4H21.5V10.2H19.7V13.8H21.5V15.6H19.7V18.3C19.7 18.5387 19.6052 18.7676 19.4364 18.9364C19.2676 19.1052 19.0387 19.2 18.8 19.2H16.1V21H14.3V19.2ZM8 7.5V11.1H11.6V7.5H8Z" fill="#0A0D14" style="fill:#0A0D14;fill:color(display-p3 0.0392 0.0510 0.0784);fill-opacity:1;"/>
</svg>
