<svg width="25" height="24" viewBox="0 0 25 24" fill="none" xmlns="http://www.w3.org/2000/svg">
<path d="M12.5 3C17.468 3 21.5 7.032 21.5 12C21.5 16.968 17.468 21 12.5 21C7.532 21 3.5 16.968 3.5 12C3.5 7.032 7.532 3 12.5 3ZM12.5 6.6C10.0151 6.6 8 9.0174 8 12C8 14.9826 10.0151 17.4 12.5 17.4C14.9849 17.4 17 14.9826 17 12C17 9.0174 14.9849 6.6 12.5 6.6ZM14.5925 9.7248C14.9723 10.3458 15.2 11.1378 15.2 12C15.2 13.989 13.9913 15.6 12.5 15.6C12.1598 15.6 11.834 15.5163 11.5343 15.3633L11.3867 15.2805L14.5925 9.7248ZM12.5 8.4C12.8402 8.4 13.166 8.4837 13.4657 8.6367L13.6133 8.7195L10.4075 14.2752C10.0277 13.6542 9.8 12.8622 9.8 12C9.8 10.011 11.0087 8.4 12.5 8.4Z" fill="#0A0D14" style="fill:#0A0D14;fill:color(display-p3 0.0392 0.0510 0.0784);fill-opacity:1;"/>
</svg>
