<svg width="25" height="24" viewBox="0 0 25 24" fill="none" xmlns="http://www.w3.org/2000/svg">
<path d="M12.5 3C17.468 3 21.5 7.032 21.5 12C21.5 16.968 17.468 21 12.5 21C7.532 21 3.5 16.968 3.5 12C3.5 7.032 7.532 3 12.5 3ZM12.5 4.8C8.5265 4.8 5.3 8.0265 5.3 12C5.3 15.9735 8.5265 19.2 12.5 19.2C16.4735 19.2 19.7 15.9735 19.7 12C19.7 8.0265 16.4735 4.8 12.5 4.8ZM12.5 6.6C14.9849 6.6 17 9.0174 17 12C17 14.9826 14.9849 17.4 12.5 17.4C10.5407 17.4 8.8739 15.897 8.2565 13.8L10.1618 13.8009C10.628 14.8764 11.501 15.6 12.5 15.6C13.9913 15.6 15.2 13.989 15.2 12C15.2 10.011 13.9913 8.4 12.5 8.4C11.501 8.4 10.628 9.1245 10.1609 10.2H11.6L9.35 12.9L7.1 10.2H8.2556C8.8739 8.103 10.5407 6.6 12.5 6.6Z" fill="#0A0D14" style="fill:#0A0D14;fill:color(display-p3 0.0392 0.0510 0.0784);fill-opacity:1;"/>
</svg>
