<svg width="25" height="24" viewBox="0 0 25 24" fill="none" xmlns="http://www.w3.org/2000/svg">
<path d="M12.5 3C17.468 3 21.5 7.032 21.5 12C21.5 16.968 17.468 21 12.5 21C7.532 21 3.5 16.968 3.5 12C3.5 7.032 7.532 3 12.5 3ZM12.5 6.6C10.6055 6.6 8.9846 8.004 8.3213 9.993L8.2556 10.2H7.1L9.35 12.9L11.6 10.2H10.1609C10.628 9.1245 11.501 8.4 12.5 8.4C13.9913 8.4 15.2 10.011 15.2 12C15.2 13.989 13.9913 15.6 12.5 15.6C11.5568 15.6 10.7261 14.9547 10.2428 13.9773L10.1618 13.8H8.2565C8.873 15.897 10.5407 17.4 12.5 17.4C14.9849 17.4 17 14.9826 17 12C17 9.0174 14.9849 6.6 12.5 6.6Z" fill="#0A0D14" style="fill:#0A0D14;fill:color(display-p3 0.0392 0.0510 0.0784);fill-opacity:1;"/>
</svg>
