<svg width="25" height="24" viewBox="0 0 25 24" fill="none" xmlns="http://www.w3.org/2000/svg">
<path d="M12.5 3C17.4707 3 21.5 7.0293 21.5 12C21.5 16.9707 17.4707 21 12.5 21C7.5293 21 3.5 16.9707 3.5 12C3.5 7.0293 7.5293 3 12.5 3ZM14.3 10.2H10.7C10.4796 10.2 10.2668 10.281 10.1021 10.4274C9.93733 10.5739 9.83209 10.7758 9.8063 10.9947L9.8 11.1V14.7H11.15V18.3H13.85V14.7H15.2V11.1C15.2 10.8796 15.119 10.6668 14.9726 10.5021C14.8261 10.3373 14.6242 10.2321 14.4053 10.2063L14.3 10.2ZM12.5 5.7C12.0226 5.7 11.5648 5.88964 11.2272 6.22721C10.8896 6.56477 10.7 7.02261 10.7 7.5C10.7 7.97739 10.8896 8.43523 11.2272 8.77279C11.5648 9.11036 12.0226 9.3 12.5 9.3C12.9774 9.3 13.4352 9.11036 13.7728 8.77279C14.1104 8.43523 14.3 7.97739 14.3 7.5C14.3 7.02261 14.1104 6.56477 13.7728 6.22721C13.4352 5.88964 12.9774 5.7 12.5 5.7Z" fill="#0A0D14" style="fill:#0A0D14;fill:color(display-p3 0.0392 0.0510 0.0784);fill-opacity:1;"/>
</svg>
