<svg width="25" height="24" viewBox="0 0 25 24" fill="none" xmlns="http://www.w3.org/2000/svg">
<path d="M12.5 3C17.4707 3 21.5 7.0293 21.5 12C21.5 14.16 20.7386 16.1436 19.4696 17.6952L19.5002 17.7276L18.2276 19.0002L18.1952 18.9696C16.5893 20.2856 14.5763 21.0033 12.5 21C7.5293 21 3.5 16.9707 3.5 12C3.5 7.0293 7.5293 3 12.5 3ZM5.3 12C5.29998 13.3472 5.67795 14.6674 6.39095 15.8105C7.10394 16.9536 8.12335 17.8738 9.33328 18.4663C10.5432 19.0589 11.8951 19.3 13.2353 19.1625C14.5755 19.0249 15.8502 18.514 16.9145 17.688L14.777 15.5496C14.6202 15.5833 14.4603 15.6002 14.3 15.6H13.4V17.4H11.6V15.6H9.35V13.8H14.3C14.4125 13.8002 14.5209 13.7583 14.604 13.6825C14.6871 13.6068 14.7388 13.5027 14.749 13.3907C14.7591 13.2787 14.727 13.1669 14.6589 13.0775C14.5908 12.988 14.4917 12.9272 14.381 12.9072L14.3 12.9H10.7C10.305 12.9 9.91705 12.796 9.57502 12.5985C9.23298 12.4011 8.94896 12.117 8.75149 11.775C8.55401 11.4329 8.45005 11.0449 8.45006 10.65C8.45006 10.255 8.55402 9.86704 8.7515 9.525L6.8111 7.5846C5.82901 8.84665 5.29711 10.4009 5.3 12ZM12.5 4.8C10.8368 4.8 9.305 5.3643 8.0855 6.312L10.223 8.4495C10.3798 8.41612 10.5397 8.39953 10.7 8.4H11.6V6.6H13.4V8.4H15.65V10.2H10.7C10.5875 10.1998 10.4791 10.2417 10.396 10.3175C10.3129 10.3932 10.2612 10.4973 10.251 10.6093C10.2409 10.7213 10.273 10.8331 10.3411 10.9225C10.4092 11.012 10.5083 11.0728 10.619 11.0928L10.7 11.1H14.3C14.695 11.1 15.0829 11.204 15.425 11.4015C15.767 11.5989 16.051 11.883 16.2485 12.225C16.446 12.5671 16.5499 12.9551 16.5499 13.35C16.5499 13.745 16.446 14.133 16.2485 14.475L18.1889 16.4145C19.015 15.3501 19.5258 14.0754 19.6634 12.7351C19.8009 11.3948 19.5597 10.0428 18.967 8.83288C18.3744 7.62292 17.4541 6.60352 16.3109 5.89059C15.1676 5.17766 13.8473 4.79981 12.5 4.8Z" fill="#0A0D14" style="fill:#0A0D14;fill:color(display-p3 0.0392 0.0510 0.0784);fill-opacity:1;"/>
</svg>
