<svg width="25" height="24" viewBox="0 0 25 24" fill="none" xmlns="http://www.w3.org/2000/svg">
<path d="M12.5 3C17.4707 3 21.5 7.0293 21.5 12C21.5 16.9707 17.4707 21 12.5 21C7.5293 21 3.5 16.9707 3.5 12C3.5 7.0293 7.5293 3 12.5 3ZM9.8 8.4C7.8128 8.4 6.2 10.0128 6.2 12C6.20045 12.695 6.40201 13.375 6.78036 13.958C7.15872 14.541 7.6977 15.002 8.33226 15.2855C8.96683 15.5689 9.66987 15.6627 10.3565 15.5555C11.0432 15.4482 11.6842 15.1445 12.2021 14.6811L12.3452 14.5452L11.0726 13.2726C10.8255 13.5198 10.5117 13.6896 10.1697 13.7615C9.82764 13.8333 9.47207 13.804 9.14638 13.6772C8.8207 13.5503 8.539 13.3314 8.33566 13.0471C8.13232 12.7628 8.01614 12.4255 8.00131 12.0763C7.98648 11.7271 8.07363 11.3811 8.25214 11.0806C8.43064 10.7801 8.69276 10.5381 9.00652 10.3841C9.32027 10.2301 9.67207 10.1708 10.019 10.2133C10.3659 10.2559 10.6929 10.3986 10.9601 10.6239L11.0735 10.7283L12.3461 9.4557C12.0122 9.12064 11.6154 8.85488 11.1784 8.6737C10.7415 8.49253 10.273 8.39951 9.8 8.4ZM16.1 8.4C14.1128 8.4 12.5 10.0128 12.5 12C12.5004 12.695 12.702 13.375 13.0804 13.958C13.4587 14.541 13.9977 15.002 14.6323 15.2855C15.2668 15.5689 15.9699 15.6627 16.6565 15.5555C17.3432 15.4482 17.9842 15.1445 18.5021 14.6811L18.6452 14.5452L17.3726 13.2726C17.1255 13.5198 16.8117 13.6896 16.4697 13.7615C16.1276 13.8333 15.7721 13.804 15.4464 13.6772C15.1207 13.5503 14.839 13.3314 14.6357 13.0471C14.4323 12.7628 14.3161 12.4255 14.3013 12.0763C14.2865 11.7271 14.3736 11.3811 14.5521 11.0806C14.7306 10.7801 14.9928 10.5381 15.3065 10.3841C15.6203 10.2301 15.9721 10.1708 16.319 10.2133C16.6659 10.2559 16.9929 10.3986 17.2601 10.6239L17.3735 10.7283L18.6461 9.4557C18.3122 9.12064 17.9154 8.85488 17.4784 8.6737C17.0415 8.49253 16.573 8.39951 16.1 8.4Z" fill="#0A0D14" style="fill:#0A0D14;fill:color(display-p3 0.0392 0.0510 0.0784);fill-opacity:1;"/>
</svg>
