<svg width="25" height="24" viewBox="0 0 25 24" fill="none" xmlns="http://www.w3.org/2000/svg">
<path d="M5.5304 6.30481L8.7524 9.52411C8.56091 9.85528 8.45702 10.2298 8.45055 10.6123C8.44408 10.9948 8.53523 11.3726 8.7154 11.7101C8.89557 12.0475 9.15881 12.3335 9.48024 12.5409C9.80167 12.7483 10.1707 12.8704 10.5524 12.8955L10.7 12.9H14.3L14.381 12.9072C14.4848 12.926 14.5786 12.9806 14.6462 13.0615C14.7138 13.1425 14.7508 13.2446 14.7508 13.35C14.7508 13.4555 14.7138 13.5575 14.6462 13.6385C14.5786 13.7194 14.4848 13.774 14.381 13.7928L14.3 13.8H9.35V15.6H11.6V17.4H13.4V15.6H14.3C14.4089 15.6 14.516 15.5919 14.6213 15.5775L14.777 15.5496L18.1952 18.9696C16.5893 20.2856 14.5763 21.0033 12.5 21C7.5293 21 3.5 16.9707 3.5 12C3.5 9.84001 4.2614 7.85641 5.5304 6.30481ZM12.5 3.00001C17.4707 3.00001 21.5 7.02931 21.5 12C21.5 14.16 20.7386 16.1436 19.4696 17.6952L16.2485 14.4759C16.4398 14.1448 16.5435 13.7703 16.5499 13.388C16.5562 13.0056 16.465 12.6279 16.2849 12.2906C16.1047 11.9533 15.8416 11.6674 15.5203 11.46C15.199 11.2527 14.8301 11.1306 14.4485 11.1054L14.3 11.1H10.7L10.619 11.0928C10.5152 11.074 10.4214 11.0194 10.3538 10.9385C10.2862 10.8575 10.2492 10.7555 10.2492 10.65C10.2492 10.5446 10.2862 10.4425 10.3538 10.3615C10.4214 10.2806 10.5152 10.226 10.619 10.2072L10.7 10.2H15.65V8.40001H13.4V6.60001H11.6V8.40001H10.7C10.5911 8.40001 10.484 8.40811 10.3796 8.42251L10.2239 8.45041L6.8048 5.03041C8.41073 3.7144 10.4237 2.99675 12.5 3.00001Z" fill="#0A0D14" style="fill:#0A0D14;fill:color(display-p3 0.0392 0.0510 0.0784);fill-opacity:1;"/>
</svg>
