<svg width="25" height="24" viewBox="0 0 25 24" fill="none" xmlns="http://www.w3.org/2000/svg">
<path d="M12.5 3C17.468 3 21.5 7.032 21.5 12C21.5 16.968 17.468 21 12.5 21C7.532 21 3.5 16.968 3.5 12C3.5 7.032 7.532 3 12.5 3ZM12.5 4.8C8.5265 4.8 5.3 8.0265 5.3 12C5.3 15.9735 8.5265 19.2 12.5 19.2C16.4735 19.2 19.7 15.9735 19.7 12C19.7 8.0265 16.4735 4.8 12.5 4.8ZM12.5 6.6C14.9849 6.6 17 9.0174 17 12C17 14.9826 14.9849 17.4 12.5 17.4C10.0151 17.4 8 14.9826 8 12C8 9.0174 10.0151 6.6 12.5 6.6ZM14.5925 9.7248L11.3867 15.2805C11.726 15.4857 12.1031 15.6 12.5 15.6C13.9913 15.6 15.2 13.989 15.2 12C15.2 11.1369 14.9723 10.3449 14.5925 9.7248ZM12.5 8.4C11.0087 8.4 9.8 10.011 9.8 12C9.8 12.8631 10.0277 13.6551 10.4075 14.2752L13.6133 8.7195C13.2786 8.51266 12.8934 8.4021 12.5 8.4Z" fill="#0A0D14" style="fill:#0A0D14;fill:color(display-p3 0.0392 0.0510 0.0784);fill-opacity:1;"/>
</svg>
