<svg width="25" height="24" viewBox="0 0 25 24" fill="none" xmlns="http://www.w3.org/2000/svg">
<path d="M12.5 3C17.4707 3 21.5 7.0293 21.5 12C21.5 16.9707 17.4707 21 12.5 21C7.5293 21 3.5 16.9707 3.5 12C3.5 7.0293 7.5293 3 12.5 3ZM12.5 4.8C10.5904 4.8 8.75909 5.55857 7.40883 6.90883C6.05857 8.25909 5.3 10.0904 5.3 12C5.3 13.9096 6.05857 15.7409 7.40883 17.0912C8.75909 18.4414 10.5904 19.2 12.5 19.2C14.4096 19.2 16.2409 18.4414 17.5912 17.0912C18.9414 15.7409 19.7 13.9096 19.7 12C19.7 10.0904 18.9414 8.25909 17.5912 6.90883C16.2409 5.55857 14.4096 4.8 12.5 4.8ZM9.8 8.4C10.7945 8.4 11.6945 8.8032 12.3461 9.4557L11.0735 10.7283C10.8219 10.4764 10.5012 10.3048 10.1521 10.2352C9.8029 10.1656 9.44094 10.2011 9.11195 10.3372C8.78296 10.4733 8.50173 10.7039 8.30381 10.9998C8.1059 11.2958 8.00019 11.6438 8.00007 11.9998C7.99994 12.3558 8.1054 12.7039 8.3031 13C8.50081 13.2961 8.78188 13.5269 9.11077 13.6632C9.43966 13.7996 9.8016 13.8353 10.1508 13.7659C10.5 13.6966 10.8208 13.5252 11.0726 13.2735L12.3452 14.5452C11.8416 15.0481 11.2002 15.3904 10.5021 15.529C9.80404 15.6676 9.08054 15.5962 8.423 15.3239C7.76546 15.0516 7.20336 14.5905 6.80771 13.9989C6.41205 13.4073 6.20058 12.7117 6.2 12C6.2 10.0128 7.8128 8.4 9.8 8.4ZM16.1 8.4C17.0945 8.4 17.9945 8.8032 18.6461 9.4557L17.3735 10.7283C17.1219 10.4764 16.8012 10.3048 16.4521 10.2352C16.1029 10.1656 15.7409 10.2011 15.4119 10.3372C15.083 10.4733 14.8017 10.7039 14.6038 10.9998C14.4059 11.2958 14.3002 11.6438 14.3001 11.9998C14.2999 12.3558 14.4054 12.7039 14.6031 13C14.8008 13.2961 15.0819 13.5269 15.4108 13.6632C15.7397 13.7996 16.1016 13.8353 16.4508 13.7659C16.8 13.6966 17.1208 13.5252 17.3726 13.2735L18.6452 14.5452C18.1416 15.0481 17.5002 15.3904 16.8021 15.529C16.104 15.6676 15.3805 15.5962 14.723 15.3239C14.0655 15.0516 13.5034 14.5905 13.1077 13.9989C12.7121 13.4073 12.5006 12.7117 12.5 12C12.5 10.0128 14.1128 8.4 16.1 8.4Z" fill="#0A0D14" style="fill:#0A0D14;fill:color(display-p3 0.0392 0.0510 0.0784);fill-opacity:1;"/>
</svg>
