<svg width="25" height="24" viewBox="0 0 25 24" fill="none" xmlns="http://www.w3.org/2000/svg">
<path d="M12.5 3C17.4707 3 21.5 7.0293 21.5 12C21.5 16.9707 17.4707 21 12.5 21C7.5293 21 3.5 16.9707 3.5 12C3.5 7.0293 7.5293 3 12.5 3ZM12.5 4.8C10.5904 4.8 8.75909 5.55857 7.40883 6.90883C6.05857 8.25909 5.3 10.0904 5.3 12C5.3 13.9096 6.05857 15.7409 7.40883 17.0912C8.75909 18.4414 10.5904 19.2 12.5 19.2C14.4096 19.2 16.2409 18.4414 17.5912 17.0912C18.9414 15.7409 19.7 13.9096 19.7 12C19.7 10.0904 18.9414 8.25909 17.5912 6.90883C16.2409 5.55857 14.4096 4.8 12.5 4.8ZM14.3 10.2C14.5387 10.2 14.7676 10.2948 14.9364 10.4636C15.1052 10.6324 15.2 10.8613 15.2 11.1V14.7H13.85V18.3H11.15V14.7H9.8V11.1C9.8 10.8613 9.89482 10.6324 10.0636 10.4636C10.2324 10.2948 10.4613 10.2 10.7 10.2H14.3ZM12.5 5.7C12.9774 5.7 13.4352 5.88964 13.7728 6.22721C14.1104 6.56477 14.3 7.02261 14.3 7.5C14.3 7.97739 14.1104 8.43523 13.7728 8.77279C13.4352 9.11036 12.9774 9.3 12.5 9.3C12.0226 9.3 11.5648 9.11036 11.2272 8.77279C10.8896 8.43523 10.7 7.97739 10.7 7.5C10.7 7.02261 10.8896 6.56477 11.2272 6.22721C11.5648 5.88964 12.0226 5.7 12.5 5.7Z" fill="#0A0D14" style="fill:#0A0D14;fill:color(display-p3 0.0392 0.0510 0.0784);fill-opacity:1;"/>
</svg>
