<svg width="25" height="24" viewBox="0 0 25 24" fill="none" xmlns="http://www.w3.org/2000/svg">
<path d="M12.5 3C14.042 2.99994 15.5519 3.44002 16.8524 4.26854C18.1529 5.09706 19.1899 6.27958 19.8415 7.67713C20.4932 9.07468 20.7323 10.6292 20.5309 12.158C20.3295 13.6868 19.6959 15.1263 18.7046 16.3074C19.8341 17.0544 20.5343 18.0084 20.5955 19.0515L20.6 19.2L12.5 21L4.39997 19.2L4.40447 19.0515C4.46477 18.0075 5.16587 17.0535 6.29447 16.3065C5.06822 14.849 4.39713 13.0047 4.39997 11.1C4.39997 8.95175 5.25336 6.89148 6.77241 5.37243C8.29145 3.85339 10.3517 3 12.5 3ZM12.5 4.8C10.8291 4.8 9.22668 5.46375 8.0452 6.64523C6.86372 7.82671 6.19997 9.42914 6.19997 11.1C6.19997 12.5103 6.66257 13.845 7.50047 14.9349L7.67327 15.15L8.97197 16.6953L7.20617 17.8644L7.08287 17.9517L12.5 19.1559L17.9162 17.9517L17.8721 17.9193L17.7119 17.8086L16.028 16.6953L17.3267 15.1491C18.2809 14.016 18.8029 12.5814 18.8 11.1C18.8 9.42914 18.1362 7.82671 16.9547 6.64523C15.7733 5.46375 14.1708 4.8 12.5 4.8ZM12.5 12.9C13.742 12.9 14.75 13.5048 14.75 14.25C14.75 14.9952 13.742 15.6 12.5 15.6C11.258 15.6 10.25 14.9952 10.25 14.25C10.25 13.5048 11.258 12.9 12.5 12.9ZM9.79997 8.4C10.7945 8.4 11.6 9.0048 11.6 9.75C11.6 10.4952 10.7945 11.1 9.79997 11.1C8.80547 11.1 7.99997 10.4952 7.99997 9.75C7.99997 9.0048 8.80547 8.4 9.79997 8.4ZM15.2 8.4C16.1945 8.4 17 9.0048 17 9.75C17 10.4952 16.1945 11.1 15.2 11.1C14.2055 11.1 13.4 10.4952 13.4 9.75C13.4 9.0048 14.2055 8.4 15.2 8.4Z" fill="#0A0D14" style="fill:#0A0D14;fill:color(display-p3 0.0392 0.0510 0.0784);fill-opacity:1;"/>
</svg>
