<svg width="25" height="24" viewBox="0 0 25 24" fill="none" xmlns="http://www.w3.org/2000/svg">
<path d="M12.5 3C14.042 2.99994 15.5519 3.44002 16.8524 4.26854C18.1529 5.09706 19.1899 6.27958 19.8415 7.67713C20.4932 9.07468 20.7323 10.6292 20.5309 12.158C20.3295 13.6868 19.6959 15.1263 18.7046 16.3074C19.8341 17.0544 20.5343 18.0084 20.5955 19.0515L20.6 19.2L12.5 21L4.39997 19.2L4.40447 19.0515C4.46477 18.0075 5.16587 17.0535 6.29447 16.3065C5.06822 14.849 4.39713 13.0047 4.39997 11.1C4.39997 8.95175 5.25336 6.89148 6.77241 5.37243C8.29145 3.85339 10.3517 3 12.5 3ZM12.5 12.9C11.258 12.9 10.25 13.5048 10.25 14.25C10.25 14.9952 11.258 15.6 12.5 15.6C13.742 15.6 14.75 14.9952 14.75 14.25C14.75 13.5048 13.742 12.9 12.5 12.9ZM9.79997 8.4C8.80547 8.4 7.99997 9.0048 7.99997 9.75C7.99997 10.4952 8.80547 11.1 9.79997 11.1C10.7945 11.1 11.6 10.4952 11.6 9.75C11.6 9.0048 10.7945 8.4 9.79997 8.4ZM15.2 8.4C14.2055 8.4 13.4 9.0048 13.4 9.75C13.4 10.4952 14.2055 11.1 15.2 11.1C16.1945 11.1 17 10.4952 17 9.75C17 9.0048 16.1945 8.4 15.2 8.4Z" fill="#0A0D14" style="fill:#0A0D14;fill:color(display-p3 0.0392 0.0510 0.0784);fill-opacity:1;"/>
</svg>
