<svg width="25" height="24" viewBox="0 0 25 24" fill="none" xmlns="http://www.w3.org/2000/svg">
<path d="M13.25 17.9536C15.964 17.6152 18.1152 15.464 18.4536 12.75H16.25V11.25H18.4536C18.1152 8.53596 15.964 6.38486 13.25 6.04642V8.25H11.75V6.04642C9.03596 6.38486 6.88486 8.53596 6.54642 11.25H8.75V12.75H6.54642C6.88486 15.464 9.03596 17.6152 11.75 17.9536V15.75H13.25V17.9536ZM12.5 19.5C8.35786 19.5 5 16.1421 5 12C5 7.85786 8.35786 4.5 12.5 4.5C16.6421 4.5 20 7.85786 20 12C20 16.1421 16.6421 19.5 12.5 19.5ZM12.5 13.5C11.6715 13.5 11 12.8285 11 12C11 11.1715 11.6715 10.5 12.5 10.5C13.3285 10.5 14 11.1715 14 12C14 12.8285 13.3285 13.5 12.5 13.5Z" fill="#0A0D14" style="fill:#0A0D14;fill:color(display-p3 0.0392 0.0510 0.0784);fill-opacity:1;"/>
</svg>
