<svg width="25" height="24" viewBox="0 0 25 24" fill="none" xmlns="http://www.w3.org/2000/svg">
<path d="M11.75 6.80317C9.45073 7.13205 7.63205 8.95073 7.30317 11.25H8.75V12.75H7.30317C7.63205 15.0493 9.45073 16.868 11.75 17.1968V15.75H13.25V17.1968C15.5493 16.868 17.368 15.0493 17.6968 12.75H16.25V11.25H17.6968C17.368 8.95073 15.5493 7.13205 13.25 6.80317V8.25H11.75V6.80317ZM5.7912 11.25C6.13706 8.12128 8.62128 5.63706 11.75 5.2912V3.75H13.25V5.2912C16.3787 5.63706 18.8629 8.12128 19.2088 11.25H20.75V12.75H19.2088C18.8629 15.8787 16.3787 18.3629 13.25 18.7088V20.25H11.75V18.7088C8.62128 18.3629 6.13706 15.8787 5.7912 12.75H4.25V11.25H5.7912ZM14.75 12C14.75 13.2427 13.7427 14.25 12.5 14.25C11.2573 14.25 10.25 13.2427 10.25 12C10.25 10.7573 11.2573 9.75 12.5 9.75C13.7427 9.75 14.75 10.7573 14.75 12Z" fill="#0A0D14" style="fill:#0A0D14;fill:color(display-p3 0.0392 0.0510 0.0784);fill-opacity:1;"/>
</svg>
