<svg width="25" height="24" viewBox="0 0 25 24" fill="none" xmlns="http://www.w3.org/2000/svg">
<path d="M18.4536 12.75C18.1152 15.464 15.964 17.6152 13.25 17.9536V15.75H11.75V17.9536C9.03596 17.6152 6.88486 15.464 6.54642 12.75H8.75V11.25H6.54642C6.88486 8.53596 9.03596 6.38486 11.75 6.04642V8.25H13.25V6.04642C15.964 6.38486 18.1152 8.53596 18.4536 11.25H16.25V12.75H18.4536ZM5 12C5 16.1421 8.35786 19.5 12.5 19.5C16.6421 19.5 20 16.1421 20 12C20 7.85786 16.6421 4.5 12.5 4.5C8.35786 4.5 5 7.85786 5 12ZM12.5 14.25C13.7427 14.25 14.75 13.2427 14.75 12C14.75 10.7573 13.7427 9.75 12.5 9.75C11.2573 9.75 10.25 10.7573 10.25 12C10.25 13.2427 11.2573 14.25 12.5 14.25Z" fill="#0A0D14" style="fill:#0A0D14;fill:color(display-p3 0.0392 0.0510 0.0784);fill-opacity:1;"/>
</svg>
