<svg width="25" height="24" viewBox="0 0 25 24" fill="none" xmlns="http://www.w3.org/2000/svg">
<path d="M16.1 12.9004V5.70039H7.1V12.9004C7.1 13.3778 7.28964 13.8356 7.62721 14.1732C7.96477 14.5107 8.42261 14.7004 8.9 14.7004H14.3C14.7774 14.7004 15.2352 14.5107 15.5728 14.1732C15.9104 13.8356 16.1 13.3778 16.1 12.9004ZM6.2 3.90039H19.7C20.1774 3.90039 20.6352 4.09003 20.9728 4.4276C21.3104 4.76516 21.5 5.223 21.5 5.70039V8.40039C21.5 8.87778 21.3104 9.33562 20.9728 9.67318C20.6352 10.0107 20.1774 10.2004 19.7 10.2004H17.9V12.9004C17.9 13.8552 17.5207 14.7708 16.8456 15.446C16.1705 16.1211 15.2548 16.5004 14.3 16.5004H8.9C7.94522 16.5004 7.02955 16.1211 6.35442 15.446C5.67928 14.7708 5.3 13.8552 5.3 12.9004V4.80039C5.3 4.5617 5.39482 4.33278 5.5636 4.16399C5.73239 3.99521 5.96131 3.90039 6.2 3.90039ZM17.9 5.70039V8.40039H19.7V5.70039H17.9ZM3.5 18.3004H19.7V20.1004H3.5V18.3004Z" fill="#0A0D14" style="fill:#0A0D14;fill:color(display-p3 0.0392 0.0510 0.0784);fill-opacity:1;"/>
</svg>
