<svg width="25" height="24" viewBox="0 0 25 24" fill="none" xmlns="http://www.w3.org/2000/svg">
<path d="M17 15.6H18.8V4.8H9.80002V6.6H17V15.6ZM17 17.4V20.1C17 20.5968 16.595 21 16.0937 21H5.30632C5.18764 21.0007 5.06998 20.978 4.96011 20.9331C4.85025 20.8882 4.75033 20.822 4.66612 20.7384C4.5819 20.6547 4.51504 20.5553 4.46937 20.4457C4.42371 20.3362 4.40014 20.2187 4.40002 20.1L4.40272 7.5C4.40272 7.0032 4.80772 6.6 5.30902 6.6H8.00002V3.9C8.00002 3.66131 8.09485 3.43239 8.26363 3.2636C8.43241 3.09482 8.66133 3 8.90002 3H19.7C19.9387 3 20.1676 3.09482 20.3364 3.2636C20.5052 3.43239 20.6 3.66131 20.6 3.9V16.5C20.6 16.7387 20.5052 16.9676 20.3364 17.1364C20.1676 17.3052 19.9387 17.4 19.7 17.4H17ZM8.00002 15.6V17.4H9.80002V18.3H11.6V17.4H12.05C12.6468 17.4 13.2191 17.1629 13.641 16.741C14.063 16.319 14.3 15.7467 14.3 15.15C14.3 14.5533 14.063 13.981 13.641 13.559C13.2191 13.1371 12.6468 12.9 12.05 12.9H9.35002C9.23068 12.9 9.11622 12.8526 9.03183 12.7682C8.94743 12.6838 8.90002 12.5693 8.90002 12.45C8.90002 12.3307 8.94743 12.2162 9.03183 12.1318C9.11622 12.0474 9.23068 12 9.35002 12H13.4V10.2H11.6V9.3H9.80002V10.2H9.35002C8.75329 10.2 8.18099 10.4371 7.75903 10.859C7.33708 11.281 7.10002 11.8533 7.10002 12.45C7.10002 13.0467 7.33708 13.619 7.75903 14.041C8.18099 14.4629 8.75329 14.7 9.35002 14.7H12.05C12.1694 14.7 12.2838 14.7474 12.3682 14.8318C12.4526 14.9162 12.5 15.0307 12.5 15.15C12.5 15.2693 12.4526 15.3838 12.3682 15.4682C12.2838 15.5526 12.1694 15.6 12.05 15.6H8.00002Z" fill="#0A0D14" style="fill:#0A0D14;fill:color(display-p3 0.0392 0.0510 0.0784);fill-opacity:1;"/>
</svg>
