<svg width="25" height="24" viewBox="0 0 25 24" fill="none" xmlns="http://www.w3.org/2000/svg">
<path d="M21.5 16.5018C21.4996 17.7326 21.0789 18.9264 20.3075 19.8855C19.5362 20.8446 18.4604 21.5115 17.2583 21.7758L16.6841 20.0532C17.2099 19.9666 17.71 19.7644 18.1482 19.4613C18.5865 19.1581 18.952 18.7615 19.2185 18.3H17C16.5226 18.3 16.0648 18.1104 15.7272 17.7728C15.3896 17.4352 15.2 16.9774 15.2 16.5V12.9C15.2 12.4226 15.3896 11.9648 15.7272 11.6272C16.0648 11.2896 16.5226 11.1 17 11.1H19.6442C19.4246 9.36021 18.5776 7.76035 17.2623 6.60061C15.9469 5.44087 14.2536 4.80097 12.5 4.80097C10.7464 4.80097 9.05306 5.44087 7.73772 6.60061C6.42237 7.76035 5.57543 9.36021 5.3558 11.1H8C8.47739 11.1 8.93523 11.2896 9.27279 11.6272C9.61036 11.9648 9.8 12.4226 9.8 12.9V16.5C9.8 16.9774 9.61036 17.4352 9.27279 17.7728C8.93523 18.1104 8.47739 18.3 8 18.3H5.3C4.82261 18.3 4.36477 18.1104 4.02721 17.7728C3.68964 17.4352 3.5 16.9774 3.5 16.5V12C3.5 7.0293 7.5293 3 12.5 3C17.4707 3 21.5 7.0293 21.5 12V16.5018ZM19.7 16.5V12.9H17V16.5H19.7ZM5.3 12.9V16.5H8V12.9H5.3Z" fill="#0A0D14" style="fill:#0A0D14;fill:color(display-p3 0.0392 0.0510 0.0784);fill-opacity:1;"/>
</svg>
