<svg width="25" height="24" viewBox="0 0 25 24" fill="none" xmlns="http://www.w3.org/2000/svg">
<path d="M19.6442 8.40011H20.6C21.0774 8.40011 21.5352 8.58975 21.8728 8.92731C22.2104 9.26488 22.4 9.72272 22.4 10.2001V13.8001C22.4 14.2775 22.2104 14.7353 21.8728 15.0729C21.5352 15.4105 21.0774 15.6001 20.6 15.6001H19.6442C19.4248 17.3401 18.5779 18.9402 17.2626 20.1001C15.9472 21.26 14.2538 21.9001 12.5 21.9001V20.1001C13.9322 20.1001 15.3057 19.5312 16.3184 18.5185C17.3311 17.5058 17.9 16.1323 17.9 14.7001V9.30011C17.9 7.86794 17.3311 6.49443 16.3184 5.48173C15.3057 4.46903 13.9322 3.90011 12.5 3.90011C11.0678 3.90011 9.69433 4.46903 8.68163 5.48173C7.66893 6.49443 7.10001 7.86794 7.10001 9.30011V15.6001H4.40001C3.92262 15.6001 3.46478 15.4105 3.12721 15.0729C2.78965 14.7353 2.60001 14.2775 2.60001 13.8001V10.2001C2.60001 9.72272 2.78965 9.26488 3.12721 8.92731C3.46478 8.58975 3.92262 8.40011 4.40001 8.40011H5.35581C5.57543 6.66031 6.42238 5.06045 7.73772 3.90071C9.05307 2.74098 10.7464 2.10107 12.5 2.10107C14.2536 2.10107 15.9469 2.74098 17.2623 3.90071C18.5776 5.06045 19.4246 6.66031 19.6442 8.40011ZM4.40001 10.2001V13.8001H5.30001V10.2001H4.40001ZM19.7 10.2001V13.8001H20.6V10.2001H19.7ZM8.68401 15.4066L9.63801 13.8802C10.4958 14.4175 11.4878 14.7017 12.5 14.7001C13.5122 14.7017 14.5042 14.4175 15.362 13.8802L16.316 15.4066C15.1723 16.1231 13.8496 16.5022 12.5 16.5001C11.1504 16.5022 9.82767 16.1231 8.68401 15.4066Z" fill="#0A0D14" style="fill:#0A0D14;fill:color(display-p3 0.0392 0.0510 0.0784);fill-opacity:1;"/>
</svg>
