<svg width="25" height="24" viewBox="0 0 25 24" fill="none" xmlns="http://www.w3.org/2000/svg">
<path d="M12.5 3C17.4707 3 21.5 7.0293 21.5 12C21.5 16.9707 17.4707 21 12.5 21C7.5293 21 3.5 16.9707 3.5 12C3.5 7.0293 7.5293 3 12.5 3ZM12.5 4.8C8.5238 4.8 5.3 8.0238 5.3 12C5.3 15.9762 8.5238 19.2 12.5 19.2C16.4762 19.2 19.7 15.9762 19.7 12C19.7 8.0238 16.4762 4.8 12.5 4.8ZM15.9497 7.8033C16.163 7.6539 16.4528 7.6791 16.6364 7.8636C16.82 8.0472 16.8434 8.337 16.6931 8.5476C14.7311 11.289 13.6511 12.7578 13.4549 12.9549C12.9275 13.4814 12.0725 13.4814 11.5451 12.9549C11.0186 12.4275 11.0186 11.5725 11.5451 11.0451C11.8817 10.7094 13.3496 9.6285 15.9497 7.8033ZM17.45 11.1C17.9468 11.1 18.35 11.5032 18.35 12C18.35 12.4968 17.9468 12.9 17.45 12.9C16.9532 12.9 16.55 12.4968 16.55 12C16.55 11.5032 16.9532 11.1 17.45 11.1ZM7.55 11.1C8.0468 11.1 8.45 11.5032 8.45 12C8.45 12.4968 8.0468 12.9 7.55 12.9C7.0532 12.9 6.65 12.4968 6.65 12C6.65 11.5032 7.0532 11.1 7.55 11.1ZM9.6362 7.8636C9.9872 8.2146 9.9872 8.7843 9.6362 9.1362C9.2852 9.4872 8.7146 9.4872 8.3636 9.1362C8.0126 8.7852 8.0126 8.2146 8.3636 7.8636C8.7146 7.5126 9.2843 7.5126 9.6362 7.8636ZM12.5 6.15C12.9968 6.15 13.4 6.5532 13.4 7.05C13.4 7.5468 12.9968 7.95 12.5 7.95C12.0032 7.95 11.6 7.5468 11.6 7.05C11.6 6.5532 12.0032 6.15 12.5 6.15Z" fill="#0A0D14" style="fill:#0A0D14;fill:color(display-p3 0.0392 0.0510 0.0784);fill-opacity:1;"/>
</svg>
