<svg width="25" height="24" viewBox="0 0 25 24" fill="none" xmlns="http://www.w3.org/2000/svg">
<path d="M12.5 3C17.4707 3 21.5 7.0293 21.5 12C21.5 16.9707 17.4707 21 12.5 21C7.5293 21 3.5 16.9707 3.5 12C3.5 7.0293 7.5293 3 12.5 3ZM16.6364 7.8636C16.4528 7.6791 16.163 7.6539 15.9497 7.8033C13.3487 9.6285 11.8817 10.7103 11.5451 11.0451C11.0186 11.5725 11.0186 12.4275 11.5451 12.9549C12.0725 13.4814 12.9275 13.4814 13.4549 12.9549C13.652 12.7569 14.7311 11.289 16.6931 8.5476C16.8443 8.337 16.82 8.0472 16.6364 7.8636ZM17.45 11.1C16.9532 11.1 16.55 11.5032 16.55 12C16.55 12.4968 16.9532 12.9 17.45 12.9C17.9468 12.9 18.35 12.4968 18.35 12C18.35 11.5032 17.9468 11.1 17.45 11.1ZM7.55 11.1C7.0532 11.1 6.65 11.5032 6.65 12C6.65 12.4968 7.0532 12.9 7.55 12.9C8.0468 12.9 8.45 12.4968 8.45 12C8.45 11.5032 8.0468 11.1 7.55 11.1ZM9.6362 7.8636C9.2852 7.5126 8.7146 7.5126 8.3636 7.8636C8.0126 8.2146 8.0126 8.7843 8.3636 9.1362C8.7146 9.4872 9.2843 9.4872 9.6362 9.1362C9.9872 8.7852 9.9872 8.2146 9.6362 7.8636ZM12.5 6.15C12.0032 6.15 11.6 6.5532 11.6 7.05C11.6 7.5468 12.0032 7.95 12.5 7.95C12.9968 7.95 13.4 7.5468 13.4 7.05C13.4 6.5532 12.9968 6.15 12.5 6.15Z" fill="#0A0D14" style="fill:#0A0D14;fill:color(display-p3 0.0392 0.0510 0.0784);fill-opacity:1;"/>
</svg>
