<svg width="25" height="24" viewBox="0 0 25 24" fill="none" xmlns="http://www.w3.org/2000/svg">
<path d="M12.5 3C17.4707 3 21.5 7.0293 21.5 12C21.5 16.9707 17.4707 21 12.5 21C7.5293 21 3.5 16.9707 3.5 12C3.5 7.0293 7.5293 3 12.5 3ZM12.5 4.8C8.5238 4.8 5.3 8.0238 5.3 12C5.3 15.9762 8.5238 19.2 12.5 19.2C16.4762 19.2 19.7 15.9762 19.7 12C19.7 8.0238 16.4762 4.8 12.5 4.8ZM12.5 5.7C13.4162 5.7 14.2865 5.8953 15.0722 6.2472L13.6655 7.653C13.2938 7.554 12.9032 7.5 12.5 7.5C10.0151 7.5 8 9.5151 8 12C8 13.242 8.504 14.367 9.3176 15.1824L8.045 16.455L7.9046 16.3101C6.848 15.1833 6.2 13.6668 6.2 12C6.2 8.5206 9.0206 5.7 12.5 5.7ZM18.2528 9.4287C18.6038 10.2135 18.8 11.0847 18.8 12C18.8 13.7397 18.0944 15.3147 16.955 16.455L15.6824 15.1824C16.496 14.367 17 13.242 17 12C17 11.5968 16.9469 11.2062 16.847 10.8345L18.2528 9.4287ZM16.3178 6.9087L17.5913 8.1813L14.2397 11.5347C14.2793 11.6832 14.3 11.8389 14.3 12C14.3 12.9945 13.4945 13.8 12.5 13.8C11.5055 13.8 10.7 12.9945 10.7 12C10.7 11.0055 11.5055 10.2 12.5 10.2C12.6611 10.2 12.8168 10.2207 12.9653 10.2603L16.3187 6.9087H16.3178Z" fill="#0A0D14" style="fill:#0A0D14;fill:color(display-p3 0.0392 0.0510 0.0784);fill-opacity:1;"/>
</svg>
