<svg width="25" height="24" viewBox="0 0 25 24" fill="none" xmlns="http://www.w3.org/2000/svg">
<path d="M12.5 3C17.4707 3 21.5 7.0293 21.5 12C21.5 16.9707 17.4707 21 12.5 21C7.5293 21 3.5 16.9707 3.5 12C3.5 7.0293 7.5293 3 12.5 3ZM12.5 5.7C9.0206 5.7 6.2 8.5206 6.2 12C6.2 13.6668 6.848 15.1833 7.9046 16.3101L8.045 16.4541L9.3176 15.1824C8.504 14.367 8 13.242 8 12C8 9.5151 10.0151 7.5 12.5 7.5C12.9032 7.5 13.2938 7.5531 13.6655 7.653L15.0722 6.2472C14.2865 5.8962 13.4162 5.7 12.5 5.7ZM18.2528 9.4287L16.8479 10.8345C16.9469 11.2062 17 11.5968 17 12C17 13.242 16.496 14.367 15.6824 15.1824L16.955 16.455C18.0944 15.3147 18.8 13.7397 18.8 12C18.8 11.0838 18.6047 10.2135 18.2528 9.4287ZM16.3178 6.9087L12.9653 10.2603C12.8168 10.2207 12.6611 10.2 12.5 10.2C11.5055 10.2 10.7 11.0055 10.7 12C10.7 12.9945 11.5055 13.8 12.5 13.8C13.4945 13.8 14.3 12.9945 14.3 12C14.3 11.8389 14.2793 11.6832 14.2397 11.5347L17.5913 8.1813L16.3187 6.9087H16.3178Z" fill="#0A0D14" style="fill:#0A0D14;fill:color(display-p3 0.0392 0.0510 0.0784);fill-opacity:1;"/>
</svg>
