<svg width="25" height="24" viewBox="0 0 25 24" fill="none" xmlns="http://www.w3.org/2000/svg">
<path d="M6.20002 12.4504C6.20002 12.7321 6.61492 13.2226 7.57702 13.7041C8.82262 14.3269 10.5893 14.7004 12.5 14.7004C14.4107 14.7004 16.1774 14.3269 17.423 13.7041C18.3851 13.2226 18.8 12.7321 18.8 12.4504V10.4965C17.315 11.4145 15.0443 12.0004 12.5 12.0004C9.95572 12.0004 7.68502 11.4136 6.20002 10.4965V12.4504ZM18.8 14.9965C17.315 15.9145 15.0443 16.5004 12.5 16.5004C9.95572 16.5004 7.68502 15.9136 6.20002 14.9965V16.9504C6.20002 17.2321 6.61492 17.7226 7.57702 18.2041C8.82262 18.8269 10.5893 19.2004 12.5 19.2004C14.4107 19.2004 16.1774 18.8269 17.423 18.2041C18.3851 17.7226 18.8 17.2321 18.8 16.9504V14.9965ZM4.40002 16.9504V7.95039C4.40002 5.71389 8.02702 3.90039 12.5 3.90039C16.973 3.90039 20.6 5.71389 20.6 7.95039V16.9504C20.6 19.1869 16.973 21.0004 12.5 21.0004C8.02702 21.0004 4.40002 19.1869 4.40002 16.9504ZM12.5 10.2004C14.4107 10.2004 16.1774 9.82689 17.423 9.20409C18.3851 8.72259 18.8 8.23209 18.8 7.95039C18.8 7.66869 18.3851 7.17819 17.423 6.69669C16.1774 6.07389 14.4107 5.70039 12.5 5.70039C10.5893 5.70039 8.82262 6.07389 7.57702 6.69669C6.61492 7.17819 6.20002 7.66869 6.20002 7.95039C6.20002 8.23209 6.61492 8.72259 7.57702 9.20409C8.82262 9.82689 10.5893 10.2004 12.5 10.2004Z" fill="#0A0D14" style="fill:#0A0D14;fill:color(display-p3 0.0392 0.0510 0.0784);fill-opacity:1;"/>
</svg>
