<svg width="25" height="24" viewBox="0 0 25 24" fill="none" xmlns="http://www.w3.org/2000/svg">
<path d="M20.6 9.75039V12.4504C20.6 14.6869 16.973 16.5004 12.5 16.5004C8.02702 16.5004 4.40002 14.6869 4.40002 12.4504V9.75039C4.40002 11.9869 8.02702 13.8004 12.5 13.8004C16.973 13.8004 20.6 11.9869 20.6 9.75039ZM4.40002 14.2504C4.40002 16.4869 8.02702 18.3004 12.5 18.3004C16.973 18.3004 20.6 16.4869 20.6 14.2504V16.9504C20.6 19.1869 16.973 21.0004 12.5 21.0004C8.02702 21.0004 4.40002 19.1869 4.40002 16.9504V14.2504ZM12.5 12.0004C8.02702 12.0004 4.40002 10.1869 4.40002 7.95039C4.40002 5.71389 8.02702 3.90039 12.5 3.90039C16.973 3.90039 20.6 5.71389 20.6 7.95039C20.6 10.1869 16.973 12.0004 12.5 12.0004Z" fill="#0A0D14" style="fill:#0A0D14;fill:color(display-p3 0.0392 0.0510 0.0784);fill-opacity:1;"/>
</svg>
