<svg width="25" height="24" viewBox="0 0 25 24" fill="none" xmlns="http://www.w3.org/2000/svg">
<path d="M11.6 7.50039V4.80039C11.6 4.5617 11.6948 4.33278 11.8636 4.16399C12.0324 3.99521 12.2613 3.90039 12.5 3.90039H20.6C20.8387 3.90039 21.0676 3.99521 21.2364 4.16399C21.4052 4.33278 21.5 4.5617 21.5 4.80039V19.2004C21.5 19.4391 21.4052 19.668 21.2364 19.8368C21.0676 20.0056 20.8387 20.1004 20.6 20.1004H4.4C4.16131 20.1004 3.93239 20.0056 3.7636 19.8368C3.59482 19.668 3.5 19.4391 3.5 19.2004V8.40039C3.5 8.1617 3.59482 7.93278 3.7636 7.76399C3.93239 7.59521 4.16131 7.50039 4.4 7.50039H11.6ZM6.2 15.6004V17.4004H10.7V15.6004H6.2ZM14.3 15.6004V17.4004H18.8V15.6004H14.3ZM14.3 12.9004V14.7004H18.8V12.9004H14.3ZM14.3 10.2004V12.0004H18.8V10.2004H14.3ZM6.2 12.9004V14.7004H10.7V12.9004H6.2Z" fill="#0A0D14" style="fill:#0A0D14;fill:color(display-p3 0.0392 0.0510 0.0784);fill-opacity:1;"/>
</svg>
