<svg width="25" height="24" viewBox="0 0 25 24" fill="none" xmlns="http://www.w3.org/2000/svg">
<path d="M12.5 3.90039C12.9968 3.90039 13.4 4.30359 13.4 4.80039V12.0004C14.1515 11.4352 15.0866 11.1004 16.1 11.1004C18.5849 11.1004 20.6 13.1155 20.6 15.6004C20.6 18.0853 18.5849 20.1004 16.1 20.1004C15.1712 20.1004 14.309 19.8187 13.5917 19.3372L13.4 19.2004C13.4 19.6972 12.9968 20.1004 12.5 20.1004H7.10001C6.60321 20.1004 6.20001 19.6972 6.20001 19.2004V4.80039C6.20001 4.30359 6.60321 3.90039 7.10001 3.90039H12.5ZM11.6 5.70039H8.00001V18.3004H11.6V5.70039ZM18.8 14.7004H13.4V16.5004H18.8V14.7004Z" fill="#0A0D14" style="fill:#0A0D14;fill:color(display-p3 0.0392 0.0510 0.0784);fill-opacity:1;"/>
</svg>
