<svg width="25" height="24" viewBox="0 0 25 24" fill="none" xmlns="http://www.w3.org/2000/svg">
<path d="M5.3 8.4H19.7V20.1C19.7 20.3387 19.6052 20.5676 19.4364 20.7364C19.2676 20.9052 19.0387 21 18.8 21H6.2C5.96131 21 5.73239 20.9052 5.5636 20.7364C5.39482 20.5676 5.3 20.3387 5.3 20.1V8.4ZM7.1 10.2V19.2H17.9V10.2H7.1ZM9.8 12H11.6V17.4H9.8V12ZM13.4 12H15.2V17.4H13.4V12ZM8 5.7V3.9C8 3.66131 8.09482 3.43239 8.2636 3.2636C8.43239 3.09482 8.6613 3 8.9 3H16.1C16.3387 3 16.5676 3.09482 16.7364 3.2636C16.9052 3.43239 17 3.66131 17 3.9V5.7H21.5V7.5H3.5V5.7H8ZM9.8 4.8V5.7H15.2V4.8H9.8Z" fill="#0A0D14" style="fill:#0A0D14;fill:color(display-p3 0.0392 0.0510 0.0784);fill-opacity:1;"/>
</svg>
