<svg width="25" height="24" viewBox="0 0 25 24" fill="none" xmlns="http://www.w3.org/2000/svg">
<path d="M19.7 7.5V19.2C19.7 19.6774 19.5104 20.1352 19.1728 20.4728C18.8352 20.8104 18.3774 21 17.9 21H7.1C6.62261 21 6.16477 20.8104 5.82721 20.4728C5.48964 20.1352 5.3 19.6774 5.3 19.2V7.5H3.5V5.7H21.5V7.5H19.7ZM7.1 7.5V19.2H17.9V7.5H7.1ZM11.6 9.3H13.4V11.1H11.6V9.3ZM11.6 12H13.4V13.8H11.6V12ZM11.6 14.7H13.4V16.5H11.6V14.7ZM8 3H17V4.8H8V3Z" fill="#0A0D14" style="fill:#0A0D14;fill:color(display-p3 0.0392 0.0510 0.0784);fill-opacity:1;"/>
</svg>
