<svg width="25" height="24" viewBox="0 0 25 24" fill="none" xmlns="http://www.w3.org/2000/svg">
<path d="M7.58155 3.89844H20.6C20.8387 3.89844 21.0677 3.99326 21.2364 4.16204C21.4052 4.33082 21.5 4.55974 21.5 4.79844V19.1984C21.5 19.4371 21.4052 19.6661 21.2364 19.8348C21.0677 20.0036 20.8387 20.0984 20.6 20.0984H7.58155C7.43341 20.0985 7.28757 20.0619 7.15694 19.9921C7.02632 19.9222 6.91496 19.8212 6.83275 19.6979L2.03305 12.4979C1.93437 12.35 1.88171 12.1762 1.88171 11.9984C1.88171 11.8206 1.93437 11.6468 2.03305 11.4989L6.83275 4.29894C6.91496 4.17571 7.02632 4.07469 7.15694 4.00482C7.28757 3.93496 7.43341 3.89842 7.58155 3.89844ZM8.06305 5.69844L3.86365 11.9984L8.06305 18.2984H19.7V5.69844H8.06305ZM13.4 10.7258L15.9452 8.17974L17.2187 9.45324L14.6726 11.9984L17.2187 14.5436L15.9452 15.8171L13.4 13.271L10.8548 15.8171L9.58135 14.5436L12.1274 11.9984L9.58135 9.45324L10.8548 8.17974L13.4 10.7258Z" fill="#0A0D14" style="fill:#0A0D14;fill:color(display-p3 0.0392 0.0510 0.0784);fill-opacity:1;"/>
</svg>
