<svg width="25" height="24" viewBox="0 0 25 24" fill="none" xmlns="http://www.w3.org/2000/svg">
<path d="M19.7 5.69922C20.1968 5.69922 20.6 6.10242 20.6 6.59922V11.9992C20.6 12.496 20.1968 12.8992 19.7 12.8992C20.2652 13.6507 20.6 14.5858 20.6 15.5992C20.6 18.0841 18.5849 20.0992 16.1 20.0992C13.6151 20.0992 11.6 18.0841 11.6 15.5992C11.6 14.5858 11.9348 13.6507 12.5 12.8992H5.30002C4.80322 12.8992 4.40002 12.496 4.40002 11.9992V6.59922C4.40002 6.10242 4.80322 5.69922 5.30002 5.69922H19.7ZM13.4 14.6992V16.4992H18.8V14.6992H13.4ZM18.8 7.49922H6.20002V11.0992H18.8V7.49922Z" fill="#0A0D14" style="fill:#0A0D14;fill:color(display-p3 0.0392 0.0510 0.0784);fill-opacity:1;"/>
</svg>
