<svg width="25" height="24" viewBox="0 0 25 24" fill="none" xmlns="http://www.w3.org/2000/svg">
<path d="M18.8 3C19.0387 3 19.2676 3.09482 19.4364 3.2636C19.6052 3.43239 19.7 3.66131 19.7 3.9V20.1C19.7 20.3387 19.6052 20.5676 19.4364 20.7364C19.2676 20.9052 19.0387 21 18.8 21H6.19999C5.96129 21 5.73237 20.9052 5.56359 20.7364C5.39481 20.5676 5.29999 20.3387 5.29999 20.1V3.9C5.29999 3.66131 5.39481 3.43239 5.56359 3.2636C5.73237 3.09482 5.96129 3 6.19999 3H18.8ZM12.5 7.5C11.873 7.50068 11.2532 7.63236 10.6801 7.88658C10.107 8.14081 9.59338 8.51198 9.17212 8.9763C8.75086 9.44062 8.43127 9.98784 8.23383 10.5829C8.0364 11.1779 7.96548 11.8076 8.02563 12.4317C8.08577 13.0557 8.27565 13.6603 8.58309 14.2067C8.89053 14.7531 9.30874 15.2292 9.81093 15.6045C10.3131 15.9798 10.8882 16.2461 11.4993 16.3862C12.1103 16.5263 12.744 16.5372 13.3595 16.4181L12.5 14.7C11.7839 14.7 11.0971 14.4155 10.5908 13.9092C10.0845 13.4028 9.79999 12.7161 9.79999 12C9.79999 11.2839 10.0845 10.5972 10.5908 10.0908C11.0971 9.58446 11.7839 9.3 12.5 9.3C13.9382 9.3 15.2 10.506 15.2 12H12.95L14.8652 15.8286C15.6983 15.314 16.3408 14.5418 16.6953 13.629C17.0498 12.7162 17.0968 11.7126 16.8293 10.7707C16.5618 9.82871 15.9944 8.99971 15.213 8.40945C14.4317 7.81919 13.4792 7.49989 12.5 7.5Z" fill="#0A0D14" style="fill:#0A0D14;fill:color(display-p3 0.0392 0.0510 0.0784);fill-opacity:1;"/>
</svg>
