<svg width="25" height="24" viewBox="0 0 25 24" fill="none" xmlns="http://www.w3.org/2000/svg">
<path d="M18.8 3C19.0387 3 19.2676 3.09482 19.4364 3.2636C19.6052 3.43239 19.7 3.66131 19.7 3.9V20.1C19.7 20.3387 19.6052 20.5676 19.4364 20.7364C19.2676 20.9052 19.0387 21 18.8 21H6.19999C5.96129 21 5.73237 20.9052 5.56359 20.7364C5.39481 20.5676 5.29999 20.3387 5.29999 20.1V3.9C5.29999 3.66131 5.39481 3.43239 5.56359 3.2636C5.73237 3.09482 5.96129 3 6.19999 3H18.8ZM17.9 4.8H7.09999V19.2H17.9V4.8ZM12.5 7.5C13.4792 7.49989 14.4317 7.81919 15.213 8.40945C15.9944 8.99971 16.5618 9.82871 16.8293 10.7707C17.0968 11.7126 17.0498 12.7162 16.6953 13.629C16.3408 14.5418 15.6983 15.314 14.8652 15.8286L12.95 12H15.2C15.2 11.466 15.0416 10.944 14.745 10.5C14.4483 10.0559 14.0266 9.70988 13.5332 9.50552C13.0399 9.30117 12.497 9.2477 11.9732 9.35188C11.4495 9.45606 10.9684 9.71321 10.5908 10.0908C10.2132 10.4684 9.95605 10.9495 9.85187 11.4733C9.74769 11.997 9.80116 12.5399 10.0055 13.0332C10.2099 13.5266 10.5559 13.9483 10.9999 14.245C11.444 14.5416 11.966 14.7 12.5 14.7L13.3595 16.4181C12.744 16.5372 12.1103 16.5263 11.4993 16.3862C10.8882 16.2461 10.3131 15.9798 9.81093 15.6045C9.30874 15.2292 8.89053 14.7531 8.58309 14.2067C8.27565 13.6603 8.08577 13.0557 8.02563 12.4317C7.96548 11.8076 8.0364 11.1779 8.23383 10.5829C8.43127 9.98784 8.75086 9.44062 9.17212 8.9763C9.59338 8.51198 10.107 8.14081 10.6801 7.88658C11.2532 7.63236 11.873 7.50068 12.5 7.5Z" fill="#0A0D14" style="fill:#0A0D14;fill:color(display-p3 0.0392 0.0510 0.0784);fill-opacity:1;"/>
</svg>
