<svg width="25" height="24" viewBox="0 0 25 24" fill="none" xmlns="http://www.w3.org/2000/svg">
<path d="M18.8 6.6H11.6C11.3613 6.6 11.1324 6.69482 10.9636 6.8636C10.7948 7.03239 10.7 7.2613 10.7 7.5V19.2H5.29999C5.0613 19.2 4.83238 19.1052 4.6636 18.9364C4.49482 18.7676 4.39999 18.5387 4.39999 18.3V3.9C4.39999 3.66131 4.49482 3.43239 4.6636 3.2636C4.83238 3.09482 5.0613 3 5.29999 3H17.9C18.1387 3 18.3676 3.09482 18.5364 3.2636C18.7052 3.43239 18.8 3.66131 18.8 3.9V6.6ZM13.4 8.4H20.6C20.8387 8.4 21.0676 8.49482 21.2364 8.6636C21.4052 8.83239 21.5 9.06131 21.5 9.3V20.1C21.5 20.3387 21.4052 20.5676 21.2364 20.7364C21.0676 20.9052 20.8387 21 20.6 21H13.4C13.1613 21 12.9324 20.9052 12.7636 20.7364C12.5948 20.5676 12.5 20.3387 12.5 20.1V9.3C12.5 9.06131 12.5948 8.83239 12.7636 8.6636C12.9324 8.49482 13.1613 8.4 13.4 8.4Z" fill="#0A0D14" style="fill:#0A0D14;fill:color(display-p3 0.0392 0.0510 0.0784);fill-opacity:1;"/>
</svg>
