<svg width="25" height="24" viewBox="0 0 25 24" fill="none" xmlns="http://www.w3.org/2000/svg">
<path d="M12.5 3C7.5293 3 3.5 7.0293 3.5 12C3.5 16.9707 7.5293 21 12.5 21C17.4707 21 21.5 16.9707 21.5 12C21.5 7.0293 17.4707 3 12.5 3ZM16.541 11.136L16.5356 11.1486C16.1576 11.9568 15.1712 13.5426 15.1712 13.5426L15.1667 13.5318L14.8787 14.034H16.2674L13.6142 17.5611L14.2172 15.1617H13.1237L13.5035 13.575C13.1966 13.6488 12.833 13.7505 12.4028 13.8891C12.4028 13.8891 11.8214 14.2293 10.727 13.233C10.727 13.233 9.989 12.5832 10.4174 12.4212C10.5992 12.3519 11.3003 12.2637 11.852 12.1899C12.599 12.0891 13.0571 12.0351 13.0571 12.0351C13.0571 12.0351 10.7576 12.0693 10.2122 11.9838C9.6668 11.8983 8.9747 10.9875 8.8271 10.1874C8.8271 10.1874 8.5994 9.7482 9.3176 9.9561C10.0358 10.164 13.0085 10.7661 13.0085 10.7661C13.0085 10.7661 9.143 9.5808 8.8847 9.291C8.6273 9.003 8.1278 7.7124 8.1926 6.9204C8.1926 6.9204 8.2205 6.7224 8.4239 6.7764C8.4239 6.7764 11.2823 8.0814 13.2362 8.7969C15.191 9.5124 16.8902 9.876 16.6706 10.8021C16.6526 10.8804 16.6058 10.9965 16.541 11.1351V11.136Z" fill="#0A0D14" style="fill:#0A0D14;fill:color(display-p3 0.0392 0.0510 0.0784);fill-opacity:1;"/>
</svg>
