<svg width="25" height="24" viewBox="0 0 25 24" fill="none" xmlns="http://www.w3.org/2000/svg">
<path d="M12.5 4.36276L4.86349 11.9993L12.5 19.6358L20.1365 11.9993L12.5 4.36276ZM13.1363 2.45296L22.0463 11.363C22.215 11.5317 22.3098 11.7606 22.3098 11.9993C22.3098 12.2379 22.215 12.4668 22.0463 12.6356L13.1363 21.5456C12.9675 21.7143 12.7386 21.8091 12.5 21.8091C12.2613 21.8091 12.0325 21.7143 11.8637 21.5456L2.95369 12.6356C2.78497 12.4668 2.69019 12.2379 2.69019 11.9993C2.69019 11.7606 2.78497 11.5317 2.95369 11.363L11.8637 2.45296C12.0325 2.28424 12.2613 2.18945 12.5 2.18945C12.7386 2.18945 12.9675 2.28424 13.1363 2.45296ZM13.4 10.1993V7.94926L16.55 11.0993L13.4 14.2493V11.9993H10.7V14.6993H8.89999V11.0993C8.89999 10.8606 8.99481 10.6316 9.1636 10.4629C9.33238 10.2941 9.5613 10.1993 9.79999 10.1993H13.4Z" fill="#0A0D14" style="fill:#0A0D14;fill:color(display-p3 0.0392 0.0510 0.0784);fill-opacity:1;"/>
</svg>
