<svg width="25" height="24" viewBox="0 0 25 24" fill="none" xmlns="http://www.w3.org/2000/svg">
<path d="M15.2 5.32567V12.0019C15.1997 12.575 15.0171 13.1331 14.6785 13.5955C14.34 14.0579 13.8631 14.4006 13.3168 14.5739C12.7706 14.7473 12.1834 14.7424 11.6401 14.5599C11.0969 14.3774 10.6258 14.0267 10.2951 13.5587C9.9643 13.0907 9.79105 12.5296 9.80036 11.9566C9.80967 11.3836 10.0011 10.8284 10.3468 10.3714C10.6926 9.91437 11.1748 9.57923 11.7237 9.41446C12.2726 9.24969 12.8597 9.26385 13.4 9.45487V3.04688C17.9477 3.49777 21.5 7.33537 21.5 12.0019C21.5 16.9726 17.4707 21.0019 12.5 21.0019C7.5293 21.0019 3.5 16.9726 3.5 12.0019C3.5 7.33537 7.0523 3.49777 11.6 3.04688V4.85767C9.78444 5.08869 8.12497 6.00236 6.95887 7.41297C5.79277 8.82359 5.20755 10.6253 5.32216 12.4519C5.43677 14.2785 6.2426 15.9929 7.57587 17.2467C8.90914 18.5005 10.6698 19.1996 12.5 19.2019C14.1716 19.2028 15.7915 18.6221 17.0817 17.5593C18.372 16.4965 19.2522 15.0179 19.5715 13.377C19.8907 11.7362 19.6291 10.0354 18.8315 8.56637C18.0339 7.09733 16.75 5.9516 15.2 5.32567Z" fill="#0A0D14" style="fill:#0A0D14;fill:color(display-p3 0.0392 0.0510 0.0784);fill-opacity:1;"/>
</svg>
