<svg width="25" height="24" viewBox="0 0 25 24" fill="none" xmlns="http://www.w3.org/2000/svg">
<path d="M13.4 9.453C12.8597 9.26197 12.2726 9.24782 11.7237 9.41258C11.1748 9.57735 10.6926 9.9125 10.3468 10.3695C10.0011 10.8265 9.80967 11.3817 9.80036 11.9547C9.79105 12.5277 9.9643 13.0888 10.2951 13.5569C10.6258 14.0249 11.0969 14.3755 11.6401 14.558C12.1834 14.7405 12.7706 14.7454 13.3168 14.5721C13.8631 14.3987 14.34 14.056 14.6785 13.5936C15.0171 13.1312 15.1997 12.5731 15.2 12V3.4122C18.8513 4.5588 21.5 7.9698 21.5 12C21.5 16.9707 17.4707 21 12.5 21C7.5293 21 3.5 16.9707 3.5 12C3.5 7.0293 7.5293 3 12.5 3C12.8033 3 13.1039 3.0153 13.4 3.045V9.453Z" fill="#0A0D14" style="fill:#0A0D14;fill:color(display-p3 0.0392 0.0510 0.0784);fill-opacity:1;"/>
</svg>
