<svg width="25" height="24" viewBox="0 0 25 24" fill="none" xmlns="http://www.w3.org/2000/svg">
<path d="M14.3 21.45L11.78 18.3H7.09998C6.86128 18.3 6.63236 18.2052 6.46358 18.0364C6.2948 17.8676 6.19998 17.6387 6.19998 17.4V7.5927C6.19998 7.35401 6.2948 7.12509 6.46358 6.9563C6.63236 6.78752 6.86128 6.6927 7.09998 6.6927H21.5C21.7387 6.6927 21.9676 6.78752 22.1364 6.9563C22.3052 7.12509 22.4 7.35401 22.4 7.5927V17.4C22.4 17.6387 22.3052 17.8676 22.1364 18.0364C21.9676 18.2052 21.7387 18.3 21.5 18.3H16.82L14.3 21.45ZM15.9551 16.5H20.6V8.4927H7.99998V16.5H12.6449L14.3 18.5682L15.9551 16.5ZM3.49998 3H18.8V4.8H4.39998V14.7H2.59998V3.9C2.59998 3.66131 2.6948 3.43239 2.86358 3.2636C3.03236 3.09482 3.26128 3 3.49998 3Z" fill="#0A0D14" style="fill:#0A0D14;fill:color(display-p3 0.0392 0.0510 0.0784);fill-opacity:1;"/>
</svg>
