<svg width="25" height="24" viewBox="0 0 25 24" fill="none" xmlns="http://www.w3.org/2000/svg">
<path d="M10.7684 11.1C11.3084 11.1 11.7458 11.505 11.7359 12C11.7359 12.495 11.3093 12.9 10.7684 12.9C10.2374 12.9 9.80002 12.495 9.80002 12C9.80002 11.505 10.2275 11.1 10.7684 11.1ZM14.2316 11.1C14.7725 11.1 15.2 11.505 15.2 12C15.2 12.495 14.7725 12.9 14.2316 12.9C13.7006 12.9 13.2641 12.495 13.2641 12C13.2641 11.505 13.6907 11.1 14.2316 11.1ZM18.7019 3C19.7486 3 20.6 3.8694 20.6 4.9467V21.9L18.6101 20.1045L17.4896 19.0461L16.3043 17.9211L16.7957 19.6698H6.29812C5.25142 19.6698 4.40002 18.8004 4.40002 17.7231V4.9467C4.40002 3.8694 5.25142 3 6.29812 3H18.701H18.7019ZM15.1289 15.3417C17.1746 15.276 17.9621 13.9053 17.9621 13.9053C17.9621 10.8624 16.6283 8.3955 16.6283 8.3955C15.2963 7.3758 14.0273 7.4037 14.0273 7.4037L13.8977 7.5549C15.4718 8.0463 16.2026 8.7555 16.2026 8.7555C15.3432 8.27129 14.396 7.9629 13.4162 7.8483C12.7947 7.7781 12.167 7.78415 11.5469 7.8663C11.4911 7.8663 11.4443 7.8762 11.3894 7.8852C11.0654 7.914 10.2779 8.0364 9.28792 8.481C8.94592 8.6412 8.74162 8.7555 8.74162 8.7555C8.74162 8.7555 9.51022 8.0085 11.1761 7.5171L11.0834 7.4037C11.0834 7.4037 9.81532 7.3758 8.48242 8.3964C8.48242 8.3964 7.14952 10.8624 7.14952 13.9053C7.14952 13.9053 7.92712 15.2751 9.97283 15.3417C9.97283 15.3417 10.3148 14.9169 10.5938 14.5578C9.41752 14.1978 8.97382 13.4418 8.97382 13.4418C8.97382 13.4418 9.06563 13.5084 9.23212 13.6029C9.24113 13.6119 9.25012 13.6218 9.26902 13.6308C9.29692 13.6506 9.32482 13.6596 9.35273 13.6785C9.58402 13.8108 9.81532 13.9143 10.0277 13.9998C10.4075 14.151 10.8611 14.3022 11.3894 14.4066C12.1808 14.5617 12.9945 14.5648 13.787 14.4156C14.2487 14.3332 14.699 14.197 15.1289 14.0097C15.4529 13.8864 15.8138 13.7064 16.1936 13.4517C16.1936 13.4517 15.731 14.2266 14.5178 14.5767C14.7959 14.9358 15.1298 15.3417 15.1298 15.3417H15.1289Z" fill="#0A0D14" style="fill:#0A0D14;fill:color(display-p3 0.0392 0.0510 0.0784);fill-opacity:1;"/>
</svg>
