<svg width="25" height="24" viewBox="0 0 25 24" fill="none" xmlns="http://www.w3.org/2000/svg">
<path d="M14.2226 14.322C14.0783 14.3572 13.9331 14.3884 13.787 14.4156C12.9945 14.5648 12.1808 14.5617 11.3894 14.4066C11.2508 14.3796 11.0546 14.3319 10.8017 14.2644L9.97283 15.3417C7.92712 15.276 7.14952 13.9053 7.14952 13.9053C7.14952 10.8624 8.48242 8.3955 8.48242 8.3955C9.81532 7.3758 11.0834 7.4037 11.0834 7.4037L11.4461 7.8762C11.4796 7.87151 11.5132 7.86851 11.5469 7.8672C12.2383 7.77555 12.939 7.77858 13.6295 7.8762L14.0273 7.4037C14.0273 7.4037 15.2963 7.3758 16.6283 8.3964C16.6283 8.3964 17.9621 10.8624 17.9621 13.9053C17.9621 13.9053 17.1746 15.2751 15.1289 15.3417L14.2226 14.3211V14.322ZM10.7684 11.1C10.2275 11.1 9.80002 11.505 9.80002 12C9.80002 12.495 10.2365 12.9 10.7684 12.9C11.3084 12.9 11.7359 12.495 11.7359 12C11.7449 11.505 11.3093 11.1 10.7684 11.1ZM14.2316 11.1C13.6916 11.1 13.2641 11.505 13.2641 12C13.2641 12.495 13.7006 12.9 14.2316 12.9C14.7725 12.9 15.2 12.495 15.2 12C15.2 11.505 14.7725 11.1 14.2316 11.1ZM20.6 21.9L16.109 17.4H18.8V4.8H6.20002V17.4H16.1027L16.6157 19.2H6.20002C5.72263 19.2 5.2648 19.0104 4.92723 18.6728C4.58967 18.3352 4.40002 17.8774 4.40002 17.4V4.8C4.40002 4.32261 4.58967 3.86477 4.92723 3.52721C5.2648 3.18964 5.72263 3 6.20002 3H18.8C19.2774 3 19.7353 3.18964 20.0728 3.52721C20.4104 3.86477 20.6 4.32261 20.6 4.8V21.9Z" fill="#0A0D14" style="fill:#0A0D14;fill:color(display-p3 0.0392 0.0510 0.0784);fill-opacity:1;"/>
</svg>
