<svg width="25" height="24" viewBox="0 0 25 24" fill="none" xmlns="http://www.w3.org/2000/svg">
<path d="M4.22724 2.45312L20.7728 18.9996L19.5002 20.2722L16.1279 16.8999L12.5 20.5359L4.86804 12.8931C3.03204 10.8375 3.04284 7.71542 4.89864 5.67242L2.95374 3.72663L4.22724 2.45312ZM6.18204 11.6601L12.5 17.988L14.8553 15.6273L6.17484 6.94683C5.01024 8.29413 5.00484 10.3083 6.18204 11.6601ZM19.9187 5.48072C21.9545 7.52192 22.0247 10.7727 20.1311 12.8931L18.6596 14.3655L17.387 13.0929L18.818 11.6601C20.0546 10.2417 19.9871 8.09792 18.6443 6.75242C17.2943 5.40062 15.1163 5.34573 13.7033 6.61473L12.5018 7.69292L11.2994 6.61562C10.9844 6.33302 10.6325 6.11612 10.2599 5.96492L8.23494 3.93993C9.73614 3.75453 11.3012 4.20002 12.5009 5.27552C14.615 3.37742 17.882 3.44042 19.9187 5.48072Z" fill="#0A0D14" style="fill:#0A0D14;fill:color(display-p3 0.0392 0.0510 0.0784);fill-opacity:1;"/>
</svg>
