<svg width="25" height="24" viewBox="0 0 25 24" fill="none" xmlns="http://www.w3.org/2000/svg">
<path d="M12.5 3C17.4707 3 21.5 7.0293 21.5 12C21.5 16.9707 17.4707 21 12.5 21C10.223 21 8.14399 20.154 6.55909 18.7608L3.04999 19.2L4.33159 15.7827C3.79699 14.6325 3.49999 13.3509 3.49999 12C3.49999 7.0293 7.52929 3 12.5 3ZM8.89999 7.5V16.5H12.2597L12.4964 16.4964C15.5339 16.4037 17.2997 14.5065 17.2997 11.9739V11.9496L17.297 11.7561C17.207 9.2604 15.389 7.5 12.311 7.5H8.89999ZM12.3479 9.7122C13.8131 9.7122 14.786 10.5474 14.786 11.9883V12.0135L14.7815 12.1782C14.7104 13.5282 13.7573 14.2887 12.3479 14.2887H11.3507V9.7122H12.3479Z" fill="#0A0D14" style="fill:#0A0D14;fill:color(display-p3 0.0392 0.0510 0.0784);fill-opacity:1;"/>
</svg>
