<svg width="25" height="24" viewBox="0 0 25 24" fill="none" xmlns="http://www.w3.org/2000/svg">
<path d="M12.455 3C17.4257 3 21.455 7.0293 21.455 12C21.455 16.9707 17.4257 21 12.455 21C10.3796 21 8.41222 20.2944 6.83092 19.0272L2.58472 19.5582L4.13272 15.4308C3.68632 14.3526 3.45502 13.1916 3.45502 12C3.45502 7.0293 7.48432 3 12.455 3ZM12.455 4.8C8.47882 4.8 5.25502 8.0238 5.25502 12C5.25502 13.0602 5.48362 14.0862 5.91922 15.0258L6.07762 15.3678L5.31532 17.4018L7.39882 17.1417L7.70302 17.409C9.00802 18.5574 10.6802 19.2 12.455 19.2C16.4312 19.2 19.655 15.9762 19.655 12C19.655 8.0238 16.4312 4.8 12.455 4.8ZM8.90002 7.5H12.311C15.389 7.5 17.207 9.2604 17.297 11.7561L17.2997 11.9496V11.9739C17.2997 14.5065 15.5339 16.4037 12.4964 16.4964L12.2597 16.5H8.90002V7.5H12.311H8.90002ZM12.3479 9.7122H11.3507V14.2887H12.3479C13.7573 14.2887 14.7104 13.5282 14.7815 12.1782L14.786 12.0135V11.9883C14.786 10.5483 13.814 9.7113 12.3479 9.7113V9.7122Z" fill="#0A0D14" style="fill:#0A0D14;fill:color(display-p3 0.0392 0.0510 0.0784);fill-opacity:1;"/>
</svg>
