<svg width="25" height="24" viewBox="0 0 25 24" fill="none" xmlns="http://www.w3.org/2000/svg">
<path d="M6.19995 11.0992H18.8V12.8992H6.19995V11.0992ZM12.5 8.39922C12.1419 8.39922 11.7985 8.25699 11.5454 8.00381C11.2922 7.75064 11.15 7.40726 11.15 7.04922C11.15 6.69118 11.2922 6.3478 11.5454 6.09462C11.7985 5.84145 12.1419 5.69922 12.5 5.69922C12.858 5.69922 13.2014 5.84145 13.4545 6.09462C13.7077 6.3478 13.85 6.69118 13.85 7.04922C13.85 7.40726 13.7077 7.75064 13.4545 8.00381C13.2014 8.25699 12.858 8.39922 12.5 8.39922ZM12.5 18.2992C12.1419 18.2992 11.7985 18.157 11.5454 17.9038C11.2922 17.6506 11.15 17.3073 11.15 16.9492C11.15 16.5912 11.2922 16.2478 11.5454 15.9946C11.7985 15.7415 12.1419 15.5992 12.5 15.5992C12.858 15.5992 13.2014 15.7415 13.4545 15.9946C13.7077 16.2478 13.85 16.5912 13.85 16.9492C13.85 17.3073 13.7077 17.6506 13.4545 17.9038C13.2014 18.157 12.858 18.2992 12.5 18.2992Z" fill="#0A0D14" style="fill:#0A0D14;fill:color(display-p3 0.0392 0.0510 0.0784);fill-opacity:1;"/>
</svg>
