<svg width="25" height="24" viewBox="0 0 25 24" fill="none" xmlns="http://www.w3.org/2000/svg">
<path d="M11.6 3.04485V5.76285C8.5472 6.20115 6.2 8.82735 6.2 11.9998C6.2 15.4792 9.0206 18.2998 12.5 18.2998C13.9148 18.2998 15.2216 17.8336 16.2728 17.0452L18.1961 18.9685C16.6445 20.2375 14.66 20.9998 12.5 20.9998C7.5293 20.9998 3.5 16.9705 3.5 11.9998C3.5 7.33335 7.0523 3.49575 11.6 3.04485ZM21.455 12.8998C21.275 14.7097 20.5604 16.3621 19.4687 17.695L17.5454 15.7726C18.1637 14.9482 18.5831 13.9672 18.7361 12.8998H21.4559H21.455ZM13.4018 3.04485C17.6534 3.46695 21.0338 6.84825 21.4568 11.0998H18.737C18.3428 8.34135 16.1603 6.15885 13.4018 5.76375V3.04395V3.04485Z" fill="#0A0D14" style="fill:#0A0D14;fill:color(display-p3 0.0392 0.0510 0.0784);fill-opacity:1;"/>
</svg>
