<svg width="25" height="24" viewBox="0 0 25 24" fill="none" xmlns="http://www.w3.org/2000/svg">
<path d="M11.6 3.04485V4.85565C8.0486 5.29844 5.3 8.32785 5.3 11.9998C5.3 15.976 8.5238 19.1998 12.5 19.1998C14.1641 19.1998 15.695 18.6355 16.9154 17.6878L18.1961 18.9685C16.6445 20.2375 14.66 20.9998 12.5 20.9998C7.5293 20.9998 3.5 16.9705 3.5 11.9998C3.5 7.33335 7.0523 3.49575 11.6 3.04485ZM21.455 12.8998C21.275 14.7097 20.5604 16.3621 19.4687 17.695L18.188 16.4152C18.962 15.4189 19.4804 14.2147 19.6442 12.8998H21.4559H21.455ZM13.4018 3.04485C17.6534 3.46695 21.0338 6.84825 21.4568 11.0998H19.6451C19.2392 7.84365 16.658 5.26244 13.4018 4.85565V3.04395V3.04485Z" fill="#0A0D14" style="fill:#0A0D14;fill:color(display-p3 0.0392 0.0510 0.0784);fill-opacity:1;"/>
</svg>
