<svg width="25" height="24" viewBox="0 0 25 24" fill="none" xmlns="http://www.w3.org/2000/svg">
<path d="M12.5 21C7.5293 21 3.5 16.9707 3.5 12C3.5 7.0293 7.5293 3 12.5 3C17.4707 3 21.5 7.0293 21.5 12C21.5 16.9707 17.4707 21 12.5 21ZM12.5 19.2C14.4096 19.2 16.2409 18.4414 17.5912 17.0912C18.9414 15.7409 19.7 13.9096 19.7 12C19.7 10.0904 18.9414 8.25909 17.5912 6.90883C16.2409 5.55857 14.4096 4.8 12.5 4.8C10.5904 4.8 8.75909 5.55857 7.40883 6.90883C6.05857 8.25909 5.3 10.0904 5.3 12C5.3 13.9096 6.05857 15.7409 7.40883 17.0912C8.75909 18.4414 10.5904 19.2 12.5 19.2ZM11.6 12.7128C11.1262 12.506 10.7381 12.1424 10.5009 11.6832C10.2637 11.2239 10.1918 10.697 10.2975 10.1909C10.4031 9.68493 10.6797 9.23072 11.0808 8.90467C11.4819 8.57863 11.9831 8.40064 12.5 8.40064C13.0169 8.40064 13.5181 8.57863 13.9192 8.90467C14.3203 9.23072 14.5969 9.68493 14.7025 10.1909C14.8081 10.697 14.7363 11.2239 14.4991 11.6832C14.2619 12.1424 13.8738 12.506 13.4 12.7128V15.6H11.6V12.7128Z" fill="#0A0D14" style="fill:#0A0D14;fill:color(display-p3 0.0392 0.0510 0.0784);fill-opacity:1;"/>
</svg>
