<svg width="25" height="24" viewBox="0 0 25 24" fill="none" xmlns="http://www.w3.org/2000/svg">
<path d="M5.29999 3.89844H19.7C19.9387 3.89844 20.1676 3.99326 20.3364 4.16204C20.5052 4.33082 20.6 4.55974 20.6 4.79844V19.1984C20.6 19.4371 20.5052 19.6661 20.3364 19.8348C20.1676 20.0036 19.9387 20.0984 19.7 20.0984H5.29999C5.0613 20.0984 4.83238 20.0036 4.6636 19.8348C4.49482 19.6661 4.39999 19.4371 4.39999 19.1984V4.79844C4.39999 4.55974 4.49482 4.33082 4.6636 4.16204C4.83238 3.99326 5.0613 3.89844 5.29999 3.89844ZM6.19999 5.69844V18.2984H18.8V5.69844H6.19999ZM11.6 12.7112C11.1262 12.5045 10.7381 12.1409 10.5009 11.6816C10.2637 11.2223 10.1918 10.6954 10.2975 10.1894C10.4031 9.68337 10.6797 9.22915 11.0808 8.90311C11.4819 8.57706 11.9831 8.39908 12.5 8.39908C13.0169 8.39908 13.5181 8.57706 13.9192 8.90311C14.3203 9.22915 14.5969 9.68337 14.7025 10.1894C14.8081 10.6954 14.7363 11.2223 14.4991 11.6816C14.2619 12.1409 13.8738 12.5045 13.4 12.7112V15.5984H11.6V12.7112Z" fill="#0A0D14" style="fill:#0A0D14;fill:color(display-p3 0.0392 0.0510 0.0784);fill-opacity:1;"/>
</svg>
