<svg width="25" height="24" viewBox="0 0 25 24" fill="none" xmlns="http://www.w3.org/2000/svg">
<path d="M12.5 21C7.5293 21 3.5 16.9707 3.5 12C3.5 7.0293 7.5293 3 12.5 3C17.4707 3 21.5 7.0293 21.5 12C21.5 16.9707 17.4707 21 12.5 21ZM11.6 12.7128V15.6H13.4V12.7128C13.8738 12.506 14.2619 12.1424 14.4991 11.6832C14.7363 11.2239 14.8081 10.697 14.7025 10.1909C14.5969 9.68493 14.3203 9.23072 13.9192 8.90467C13.5181 8.57863 13.0169 8.40064 12.5 8.40064C11.9831 8.40064 11.4819 8.57863 11.0808 8.90467C10.6797 9.23072 10.4031 9.68493 10.2975 10.1909C10.1918 10.697 10.2637 11.2239 10.5009 11.6832C10.7381 12.1424 11.1262 12.506 11.6 12.7128Z" fill="#0A0D14" style="fill:#0A0D14;fill:color(display-p3 0.0392 0.0510 0.0784);fill-opacity:1;"/>
</svg>
