<svg width="25" height="24" viewBox="0 0 25 24" fill="none" xmlns="http://www.w3.org/2000/svg">
<path d="M17 3V4.8H19.7C20.1968 4.8 20.6 5.2032 20.6 5.7V20.1C20.6 20.5968 20.1968 21 19.7 21H5.30002C4.80322 21 4.40002 20.5968 4.40002 20.1V5.7C4.40002 5.2032 4.80322 4.8 5.30002 4.8H8.00002V3H17ZM8.00002 6.6H6.20002V19.2H18.8V6.6H17V8.4H8.00002V6.6ZM13.4 11.1V12.9H15.2V14.7H13.3991L13.4 16.5H11.6L11.5991 14.7H9.80002V12.9H11.6V11.1H13.4ZM15.2 4.8H9.80002V6.6H15.2V4.8Z" fill="#0A0D14" style="fill:#0A0D14;fill:color(display-p3 0.0392 0.0510 0.0784);fill-opacity:1;"/>
</svg>
