<svg width="25" height="24" viewBox="0 0 25 24" fill="none" xmlns="http://www.w3.org/2000/svg">
<path d="M19.1753 7.21149C20.1023 8.19609 20.6 9.30039 20.6 11.0905C20.6 14.2405 18.3887 17.0638 15.173 18.4597L14.3693 17.2195C17.3708 15.5959 17.9576 13.489 18.1916 12.1606C17.7083 12.4108 17.0756 12.4981 16.4555 12.4405C14.8319 12.2902 13.5521 10.9573 13.5521 9.30039C13.5521 8.46496 13.884 7.66374 14.4747 7.073C15.0655 6.48226 15.8667 6.15039 16.7021 6.15039C17.6678 6.15039 18.5912 6.59139 19.1753 7.21149ZM10.1753 7.21149C11.1023 8.19609 11.6 9.30039 11.6 11.0905C11.6 14.2405 9.38871 17.0638 6.17301 18.4597L5.36931 17.2195C8.37081 15.5959 8.95761 13.489 9.19161 12.1606C8.70831 12.4108 8.07561 12.4981 7.45551 12.4405C5.83191 12.2902 4.55301 10.9573 4.55301 9.30039C4.55301 8.46496 4.88488 7.66374 5.47562 7.073C6.06636 6.48226 6.86758 6.15039 7.70301 6.15039C8.66871 6.15039 9.59211 6.59139 10.1762 7.21149H10.1753Z" fill="#0A0D14" style="fill:#0A0D14;fill:color(display-p3 0.0392 0.0510 0.0784);fill-opacity:1;"/>
</svg>
