<svg width="25" height="24" viewBox="0 0 25 24" fill="none" xmlns="http://www.w3.org/2000/svg">
<path d="M5.82469 16.7892C4.89769 15.8046 4.39999 14.7003 4.39999 12.9102C4.39999 9.76022 6.61129 6.93692 9.82699 5.54102L10.6307 6.78122C7.62919 8.40482 7.04239 10.5117 6.80839 11.8401C7.29169 11.5899 7.92439 11.5026 8.54449 11.5602C10.1681 11.7105 11.4479 13.0434 11.4479 14.7003C11.4479 15.5357 11.116 16.337 10.5253 16.9277C9.93454 17.5184 9.13333 17.8503 8.29789 17.8503C7.33219 17.8503 6.40879 17.4093 5.82469 16.7892ZM14.8247 16.7892C13.8977 15.8046 13.4 14.7003 13.4 12.9102C13.4 9.76022 15.6113 6.93692 18.827 5.54102L19.6307 6.78122C16.6292 8.40482 16.0424 10.5117 15.8084 11.8401C16.2917 11.5899 16.9244 11.5026 17.5445 11.5602C19.1681 11.7105 20.4479 13.0434 20.4479 14.7003C20.4479 15.5357 20.116 16.337 19.5253 16.9277C18.9345 17.5184 18.1333 17.8503 17.2979 17.8503C16.3322 17.8503 15.4088 17.4093 14.8247 16.7892Z" fill="#0A0D14" style="fill:#0A0D14;fill:color(display-p3 0.0392 0.0510 0.0784);fill-opacity:1;"/>
</svg>
