<svg width="25" height="24" viewBox="0 0 25 24" fill="none" xmlns="http://www.w3.org/2000/svg">
<path d="M16.3826 18.4246H20.0411C20.1145 18.4245 20.1871 18.4388 20.2549 18.4668C20.3227 18.4948 20.3844 18.5359 20.4363 18.5877C20.4882 18.6395 20.5294 18.7011 20.5575 18.7688C20.5856 18.8366 20.6 18.9092 20.6 18.9826V19.5415C20.6001 19.6148 20.5858 19.6875 20.5578 19.7553C20.5298 19.8231 20.4887 19.8847 20.4369 19.9366C20.3851 19.9885 20.3235 20.0297 20.2558 20.0578C20.188 20.0859 20.1154 20.1004 20.042 20.1004H4.95803C4.81003 20.1004 4.6681 20.0416 4.56346 19.937C4.45881 19.8323 4.40003 19.6904 4.40003 19.5424V18.9835C4.39991 18.9101 4.41425 18.8375 4.44224 18.7697C4.47023 18.7019 4.51131 18.6403 4.56314 18.5883C4.61497 18.5364 4.67652 18.4952 4.74428 18.4672C4.81204 18.4391 4.88467 18.4246 4.95803 18.4246H8.33663L7.47263 15.631H9.44363C9.56114 15.6307 9.67574 15.6675 9.77109 15.7362C9.86643 15.8049 9.93767 15.9019 9.97463 16.0135L10.7774 18.4246H13.94L15.0425 14.7931H6.35483C6.20683 14.7931 6.06491 14.7343 5.96026 14.6297C5.85561 14.525 5.79683 14.3831 5.79683 14.2351V7.81089C5.79683 7.6629 5.85561 7.52097 5.96026 7.41633C6.06491 7.31168 6.20683 7.25289 6.35483 7.25289H18.6452C18.7932 7.25289 18.9351 7.31168 19.0398 7.41633C19.1444 7.52097 19.2032 7.6629 19.2032 7.81089V14.2351C19.2032 14.3831 19.1444 14.525 19.0398 14.6297C18.9351 14.7343 18.7932 14.7931 18.6452 14.7931H17.4851L16.3826 18.4246ZM5.23793 3.90039H19.7621C19.9101 3.90039 20.052 3.95918 20.1567 4.06383C20.2613 4.16847 20.3201 4.3104 20.3201 4.45839V5.01729C20.3202 5.09064 20.3059 5.1633 20.2779 5.2311C20.2499 5.29891 20.2088 5.36053 20.157 5.41244C20.1052 5.46435 20.0436 5.50553 19.9759 5.53363C19.9081 5.56173 19.8355 5.57619 19.7621 5.57619H5.23793C5.08993 5.57619 4.948 5.5174 4.84336 5.41276C4.73871 5.30811 4.67993 5.16618 4.67993 5.01819V4.45839C4.67993 4.31056 4.73859 4.16876 4.84304 4.06414C4.94749 3.95952 5.08919 3.90063 5.23703 3.90039H5.23793ZM8.17103 8.92779C8.15263 8.92767 8.13439 8.93119 8.11736 8.93815C8.10034 8.94511 8.08485 8.95536 8.0718 8.96833C8.05875 8.9813 8.0484 8.99671 8.04133 9.0137C8.03426 9.03068 8.03062 9.0489 8.03063 9.06729V12.6988C8.03063 12.7762 8.09363 12.8383 8.17103 12.8383H16.829C16.9064 12.8383 16.9694 12.7753 16.9694 12.6988V9.06639C16.9694 9.048 16.9658 9.02978 16.9587 9.0128C16.9517 8.99581 16.9413 8.9804 16.9282 8.96743C16.9152 8.95446 16.8997 8.94421 16.8827 8.93725C16.8657 8.93029 16.8474 8.92677 16.829 8.92689H8.17103V8.92779Z" fill="#0A0D14" style="fill:#0A0D14;fill:color(display-p3 0.0392 0.0510 0.0784);fill-opacity:1;"/>
</svg>
