<svg width="25" height="24" viewBox="0 0 25 24" fill="none" xmlns="http://www.w3.org/2000/svg">
<path d="M2.59998 14.2481C2.59942 13.254 2.85236 12.2762 3.33487 11.4071C3.81739 10.5379 4.51355 9.80618 5.35758 9.28098C5.58034 7.54406 6.42839 5.94783 7.74304 4.79102C9.05769 3.63421 10.7488 2.99609 12.5 2.99609C14.2511 2.99609 15.9423 3.63421 17.2569 4.79102C18.5716 5.94783 19.4196 7.54406 19.6424 9.28098C20.6893 9.9323 21.5036 10.8977 21.9691 12.0395C22.4347 13.1812 22.5275 14.4408 22.2345 15.6384C21.9415 16.8361 21.2775 17.9105 20.3375 18.7084C19.3974 19.5062 18.2293 19.9866 17 20.081L7.99998 20.0981C4.97958 19.8515 2.59998 17.3279 2.59998 14.2481ZM16.8632 18.2864C17.7144 18.2209 18.5232 17.8881 19.174 17.3356C19.8248 16.783 20.2844 16.0389 20.487 15.2095C20.6896 14.3801 20.625 13.5079 20.3023 12.7175C19.9796 11.9271 19.4153 11.2589 18.6902 10.8083L17.9639 10.3556L17.8559 9.50778C17.6876 8.2061 17.0512 7.01022 16.0654 6.14366C15.0796 5.27709 13.812 4.79915 12.4995 4.79915C11.187 4.79915 9.91943 5.27709 8.93366 6.14366C7.94789 7.01022 7.31141 8.2061 7.14318 9.50778L7.03518 10.3556L6.31068 10.8083C5.58554 11.2588 5.02132 11.927 4.69859 12.7173C4.37586 13.5077 4.31114 14.3798 4.51365 15.2091C4.71617 16.0384 5.17557 16.7826 5.82625 17.3352C6.47693 17.8879 7.2856 18.2208 8.13678 18.2864L8.29248 18.2981H16.7075L16.8632 18.2864ZM13.4 11.9981H16.1L12.5 16.4981L8.89998 11.9981H11.6V8.39808H13.4V11.9981Z" fill="#0A0D14" style="fill:#0A0D14;fill:color(display-p3 0.0392 0.0510 0.0784);fill-opacity:1;"/>
</svg>
