<svg width="25" height="24" viewBox="0 0 25 24" fill="none" xmlns="http://www.w3.org/2000/svg">
<path d="M7.99998 20.081C6.77062 19.9866 5.60252 19.5062 4.66247 18.7084C3.72241 17.9105 3.05847 16.8361 2.76545 15.6384C2.47242 14.4408 2.5653 13.1812 3.03081 12.0395C3.49633 10.8977 4.31067 9.9323 5.35758 9.28098C5.58034 7.54406 6.4284 5.94783 7.74304 4.79102C9.05769 3.63421 10.7488 2.99609 12.5 2.99609C14.2511 2.99609 15.9423 3.63421 17.2569 4.79102C18.5716 5.94783 19.4196 7.54406 19.6424 9.28098C20.6893 9.9323 21.5036 10.8977 21.9691 12.0395C22.4347 13.1812 22.5275 14.4408 22.2345 15.6384C21.9415 16.8361 21.2775 17.9105 20.3375 18.7084C19.3974 19.5062 18.2293 19.9866 17 20.081V20.0981H7.99998V20.081ZM13.4 11.9981V8.39808H11.6V11.9981H8.89998L12.5 16.4981L16.1 11.9981H13.4Z" fill="#0A0D14" style="fill:#0A0D14;fill:color(display-p3 0.0392 0.0510 0.0784);fill-opacity:1;"/>
</svg>
