<svg width="25" height="24" viewBox="0 0 25 24" fill="none" xmlns="http://www.w3.org/2000/svg">
<path d="M19.7 3C20.1968 3 20.6 3.4032 20.6 3.9V7.2813L18.8 9.0813V4.8H6.20002V19.2H18.8V16.7178L20.6 14.9178V20.1C20.6 20.5968 20.1968 21 19.7 21H5.30002C4.80322 21 4.40002 20.5968 4.40002 20.1V3.9C4.40002 3.4032 4.80322 3 5.30002 3H19.7ZM21.3002 9.1272L22.5728 10.3998L15.5726 17.4L14.2982 17.3982L14.3 16.1274L21.3002 9.1272ZM13.4 12V13.8H8.90002V12H13.4ZM16.1 8.4V10.2H8.90002V8.4H16.1Z" fill="#0A0D14" style="fill:#0A0D14;fill:color(display-p3 0.0392 0.0510 0.0784);fill-opacity:1;"/>
</svg>
