<svg width="25" height="24" viewBox="0 0 25 24" fill="none" xmlns="http://www.w3.org/2000/svg">
<path d="M19.7 3C20.1968 3 20.6 3.4032 20.6 3.9V7.2813L12.5009 15.3813L12.4955 19.1955L16.3169 19.2009L20.6 14.9178V20.1C20.6 20.5968 20.1968 21 19.7 21H5.30002C4.80322 21 4.40002 20.5968 4.40002 20.1V3.9C4.40002 3.4032 4.80322 3 5.30002 3H19.7ZM21.3002 9.1272L22.5728 10.3998L15.5726 17.4L14.2982 17.3982L14.3 16.1274L21.3002 9.1272ZM12.5 12H8.00002V13.8H12.5V12ZM15.2 8.4H8.00002V10.2H15.2V8.4Z" fill="#0A0D14" style="fill:#0A0D14;fill:color(display-p3 0.0392 0.0510 0.0784);fill-opacity:1;"/>
</svg>
