<svg width="25" height="24" viewBox="0 0 25 24" fill="none" xmlns="http://www.w3.org/2000/svg">
<path d="M11.6 11.1V6.4452L9.9548 8.0913L8.6813 6.8187L12.5 3L16.3187 6.8187L15.0452 8.0913L13.4 6.4452V11.1H18.0548L16.4087 9.4548L17.6813 8.1813L21.5 12L17.6813 15.8187L16.4087 14.5452L18.0548 12.9H13.4V17.5548L15.0452 15.9087L16.3187 17.1813L12.5 21L8.6813 17.1813L9.9548 15.9087L11.6 17.5548V12.9H6.9452L8.5913 14.5452L7.3187 15.8187L3.5 12L7.3187 8.1813L8.5913 9.4548L6.9452 11.1H11.6Z" fill="#0A0D14" style="fill:#0A0D14;fill:color(display-p3 0.0392 0.0510 0.0784);fill-opacity:1;"/>
</svg>
