<svg width="25" height="24" viewBox="0 0 25 24" fill="none" xmlns="http://www.w3.org/2000/svg">
<path d="M12.5 21L8.9 17.4H16.1L12.5 21ZM12.5 3L16.1 6.6H8.9L12.5 3ZM12.5 13.8C12.0226 13.8 11.5648 13.6104 11.2272 13.2728C10.8896 12.9352 10.7 12.4774 10.7 12C10.7 11.5226 10.8896 11.0648 11.2272 10.7272C11.5648 10.3896 12.0226 10.2 12.5 10.2C12.9774 10.2 13.4352 10.3896 13.7728 10.7272C14.1104 11.0648 14.3 11.5226 14.3 12C14.3 12.4774 14.1104 12.9352 13.7728 13.2728C13.4352 13.6104 12.9774 13.8 12.5 13.8ZM3.5 12L7.1 8.4V15.6L3.5 12ZM21.5 12L17.9 15.6V8.4L21.5 12Z" fill="#0A0D14" style="fill:#0A0D14;fill:color(display-p3 0.0392 0.0510 0.0784);fill-opacity:1;"/>
</svg>
