<svg width="25" height="24" viewBox="0 0 25 24" fill="none" xmlns="http://www.w3.org/2000/svg">
<path d="M9.875 8.25C10.4963 8.25 11 7.74632 11 7.125C11 6.50368 10.4963 6 9.875 6C9.25368 6 8.75 6.50368 8.75 7.125C8.75 7.74632 9.25368 8.25 9.875 8.25ZM9.875 13.125C10.4963 13.125 11 12.6213 11 12C11 11.3787 10.4963 10.875 9.875 10.875C9.25368 10.875 8.75 11.3787 8.75 12C8.75 12.6213 9.25368 13.125 9.875 13.125ZM11 16.875C11 17.4963 10.4963 18 9.875 18C9.25368 18 8.75 17.4963 8.75 16.875C8.75 16.2537 9.25368 15.75 9.875 15.75C10.4963 15.75 11 16.2537 11 16.875ZM15.125 8.25C15.7463 8.25 16.25 7.74632 16.25 7.125C16.25 6.50368 15.7463 6 15.125 6C14.5037 6 14 6.50368 14 7.125C14 7.74632 14.5037 8.25 15.125 8.25ZM16.25 12C16.25 12.6213 15.7463 13.125 15.125 13.125C14.5037 13.125 14 12.6213 14 12C14 11.3787 14.5037 10.875 15.125 10.875C15.7463 10.875 16.25 11.3787 16.25 12ZM15.125 18C15.7463 18 16.25 17.4963 16.25 16.875C16.25 16.2537 15.7463 15.75 15.125 15.75C14.5037 15.75 14 16.2537 14 16.875C14 17.4963 14.5037 18 15.125 18Z" fill="#0A0D14" style="fill:#0A0D14;fill:color(display-p3 0.0392 0.0510 0.0784);fill-opacity:1;"/>
</svg>
