<svg width="25" height="24" viewBox="0 0 25 24" fill="none" xmlns="http://www.w3.org/2000/svg">
<path d="M16.1 12.9L22.3676 16.5558L19.6919 17.3208L21.6044 20.6337L20.0456 21.5337L18.1331 18.2217L16.1324 20.1567L16.1 12.9ZM14.3 6.6H16.1V8.4H20.6C20.8387 8.4 21.0676 8.49482 21.2364 8.6636C21.4052 8.83239 21.5 9.0613 21.5 9.3V12.9H19.7V10.2H10.7V19.2H14.3V21H9.8C9.56131 21 9.33239 20.9052 9.1636 20.7364C8.99482 20.5676 8.9 20.3387 8.9 20.1V15.6H7.1V13.8H8.9V9.3C8.9 9.0613 8.99482 8.83239 9.1636 8.6636C9.33239 8.49482 9.56131 8.4 9.8 8.4H14.3V6.6ZM5.3 13.8V15.6H3.5V13.8H5.3ZM5.3 10.2V12H3.5V10.2H5.3ZM5.3 6.6V8.4H3.5V6.6H5.3ZM5.3 3V4.8H3.5V3H5.3ZM8.9 3V4.8H7.1V3H8.9ZM12.5 3V4.8H10.7V3H12.5ZM16.1 3V4.8H14.3V3H16.1Z" fill="#0A0D14" style="fill:#0A0D14;fill:color(display-p3 0.0392 0.0510 0.0784);fill-opacity:1;"/>
</svg>
