<svg width="25" height="24" viewBox="0 0 25 24" fill="none" xmlns="http://www.w3.org/2000/svg">
<path d="M14.3 6.6H16.1V8.4H20.6C20.8387 8.4 21.0676 8.49482 21.2364 8.6636C21.4052 8.83239 21.5 9.06131 21.5 9.3V16.05L16.1 12.9L16.1324 20.1558L18.1331 18.2208L19.7369 21H9.8C9.56131 21 9.33239 20.9052 9.1636 20.7364C8.99482 20.5676 8.9 20.3387 8.9 20.1V15.6H7.1V13.8H8.9V9.3C8.9 9.06131 8.99482 8.83239 9.1636 8.6636C9.33239 8.49482 9.56131 8.4 9.8 8.4H14.3V6.6ZM21.5 16.8042V20.1C21.5001 20.1938 21.4855 20.287 21.4568 20.3763L19.6928 17.3217L21.5 16.8042ZM5.3 13.8V15.6H3.5V13.8H5.3ZM5.3 10.2V12H3.5V10.2H5.3ZM5.3 6.6V8.4H3.5V6.6H5.3ZM5.3 3V4.8H3.5V3H5.3ZM8.9 3V4.8H7.1V3H8.9ZM12.5 3V4.8H10.7V3H12.5ZM16.1 3V4.8H14.3V3H16.1Z" fill="#0A0D14" style="fill:#0A0D14;fill:color(display-p3 0.0392 0.0510 0.0784);fill-opacity:1;"/>
</svg>
