<svg width="25" height="24" viewBox="0 0 25 24" fill="none" xmlns="http://www.w3.org/2000/svg">
<path d="M19.6901 11.6148C19.6163 10.1981 19.1236 8.83524 18.2744 7.6989C18.0157 7.97757 17.7391 8.23912 17.4464 8.4819C16.5472 9.22876 15.5424 9.83837 14.4647 10.2909C14.615 10.6059 14.7527 10.911 14.8742 11.199V11.2017C14.9085 11.2822 14.9415 11.3632 14.9732 11.4447C16.3358 11.2917 17.7722 11.3475 19.1645 11.5356C19.3499 11.5608 19.5245 11.5878 19.6901 11.6148ZM11.2436 4.9098C12.1207 6.14566 12.9295 7.42857 13.6664 8.7528C14.7671 8.319 15.677 7.7718 16.4096 7.1625C16.6639 6.95292 16.9033 6.72587 17.126 6.483C15.8309 5.39374 14.1923 4.7976 12.5 4.8C12.0788 4.79971 11.6584 4.83615 11.2436 4.9089V4.9098ZM5.5277 10.1973C6.1408 10.1818 6.75318 10.1449 7.3637 10.0866C8.83938 9.95461 10.3024 9.70725 11.7395 9.3468C10.9885 8.04199 10.1776 6.77254 9.3095 5.5425C8.38225 6.00186 7.56463 6.65527 6.91212 7.45841C6.25961 8.26155 5.78746 9.19563 5.5277 10.1973ZM6.9047 16.5315C7.2539 16.0212 7.7129 15.447 8.3222 14.8224C9.6308 13.4814 11.1752 12.4374 12.9626 11.8614L13.0184 11.8452C12.8699 11.5176 12.7304 11.2251 12.59 10.9497C10.9376 11.4312 9.197 11.7318 7.4627 11.8875C6.6167 11.964 5.858 11.9973 5.3 12.0027C5.29841 13.652 5.86546 15.2515 6.9056 16.5315H6.9047ZM15.2045 18.6735C14.8574 16.9232 14.3662 15.2047 13.7357 13.5354C11.9339 14.1897 10.4984 15.1464 9.3887 16.2876C8.94086 16.7397 8.54343 17.2392 8.2034 17.7771C9.44433 18.703 10.9517 19.2022 12.5 19.2C13.4269 19.2013 14.3453 19.0231 15.2045 18.6753V18.6735ZM16.8902 17.706C18.2953 16.6258 19.2526 15.0651 19.5785 13.323C19.2725 13.2465 18.8846 13.17 18.458 13.1106C17.5095 12.974 16.5471 12.964 15.596 13.0809C16.1316 14.5918 16.5639 16.1374 16.8902 17.7069V17.706ZM12.5 21C7.5293 21 3.5 16.9707 3.5 12C3.5 7.0293 7.5293 3 12.5 3C17.4707 3 21.5 7.0293 21.5 12C21.5 16.9707 17.4707 21 12.5 21Z" fill="#0A0D14" style="fill:#0A0D14;fill:color(display-p3 0.0392 0.0510 0.0784);fill-opacity:1;"/>
</svg>
