<svg width="25" height="24" viewBox="0 0 25 24" fill="none" xmlns="http://www.w3.org/2000/svg">
<path d="M11.6 17.4V20.1H9.80003V17.4C8.48968 17.3996 7.2043 17.0416 6.08239 16.3646C4.96048 15.6876 4.04459 14.7173 3.43342 13.5582C2.82226 12.3991 2.53899 11.0952 2.61415 9.78702C2.68931 8.47883 3.12005 7.21596 3.85994 6.13449C4.59983 5.05303 5.62082 4.19398 6.81288 3.64993C8.00495 3.10588 9.32288 2.89746 10.6247 3.04712C11.9264 3.19678 13.1627 3.69886 14.2002 4.49923C15.2377 5.29961 16.0371 6.36795 16.5122 7.5891C17.1893 7.45887 17.8862 7.47153 18.5581 7.62628C19.23 7.78103 19.8622 8.07445 20.4142 8.48774C20.9661 8.90103 21.4256 9.42507 21.7632 10.0263C22.1008 10.6275 22.3091 11.2926 22.3747 11.979C22.4403 12.6654 22.3618 13.3579 22.1442 14.0122C21.9266 14.6665 21.5747 15.2681 21.1111 15.7784C20.6474 16.2888 20.0823 16.6967 19.4518 16.9759C18.8214 17.2552 18.1395 17.3996 17.45 17.4H11.6ZM13.4 19.2H15.2V21.9H13.4V19.2Z" fill="#0A0D14" style="fill:#0A0D14;fill:color(display-p3 0.0392 0.0510 0.0784);fill-opacity:1;"/>
</svg>
