<svg width="25" height="24" viewBox="0 0 25 24" fill="none" xmlns="http://www.w3.org/2000/svg">
<path d="M17 17.4011V15.6011H17.45C17.9693 15.601 18.4806 15.4726 18.9383 15.2271C19.3959 14.9817 19.7858 14.6269 20.0732 14.1943C20.3606 13.7618 20.5366 13.2649 20.5855 12.7478C20.6345 12.2308 20.5548 11.7097 20.3536 11.2309C20.1524 10.7521 19.836 10.3305 19.4325 10.0036C19.029 9.67666 18.5509 9.45458 18.0408 9.3571C17.5307 9.25963 17.0044 9.28979 16.5088 9.44489C16.0131 9.6 15.5635 9.87524 15.2 10.2461V10.2011C15.1996 9.21121 14.9272 8.24044 14.4124 7.39491C13.8976 6.54938 13.1603 5.86161 12.2811 5.40679C11.4019 4.95196 10.4145 4.74757 9.42697 4.81595C8.43942 4.88433 7.48967 5.22286 6.68152 5.79453C5.87336 6.3662 5.23789 7.14902 4.84456 8.05743C4.45124 8.96584 4.31518 9.9649 4.45127 10.9454C4.58735 11.9259 4.99035 12.8502 5.6162 13.6171C6.24206 14.3841 7.0667 14.9643 8 15.2942V17.1743C6.80634 16.8654 5.71199 16.2552 4.82183 15.4021C3.93166 14.5489 3.27549 13.4815 2.91619 12.302C2.55689 11.1226 2.5065 9.87061 2.76984 8.66609C3.03319 7.46156 3.60145 6.34485 4.42018 5.42294C5.2389 4.50103 6.28066 3.80481 7.44564 3.401C8.61061 2.99719 9.85977 2.89931 11.0734 3.11675C12.2871 3.33419 13.4246 3.85965 14.3769 4.64279C15.3292 5.42593 16.0645 6.44051 16.5122 7.58932C17.189 7.45982 17.8855 7.47306 18.5569 7.62821C19.2283 7.78336 19.8599 8.07699 20.4114 8.49031C20.9628 8.90364 21.4218 9.42754 21.7591 10.0285C22.0963 10.6294 22.3044 11.2942 22.37 11.9802C22.4355 12.6661 22.3572 13.3583 22.1398 14.0122C21.9225 14.6662 21.571 15.2675 21.1079 15.7778C20.6448 16.2881 20.0802 16.6961 19.4503 16.9756C18.8204 17.2551 18.1391 17.4001 17.45 17.4011L17 17.402V17.4011ZM9.8 15.6011H11.6V19.2011H9.8V15.6011ZM13.4 18.3011H15.2V21.9011H13.4V18.3011Z" fill="#0A0D14" style="fill:#0A0D14;fill:color(display-p3 0.0392 0.0510 0.0784);fill-opacity:1;"/>
</svg>
