<svg width="25" height="24" viewBox="0 0 25 24" fill="none" xmlns="http://www.w3.org/2000/svg">
<path d="M9.48144 16.7345L12.5342 18.6803L15.587 16.7354L17.261 17.8019L12.5342 20.8133L7.80744 17.8019L9.48144 16.7354V16.7345ZM8.69214 9.28249L10.8458 7.88479L8.66334 6.46819L6.45204 7.83349L8.69304 9.28249H8.69214ZM10.3481 10.3535L12.5 11.7476L14.651 10.3553L12.5 8.95759L10.3481 10.3544V10.3535ZM14.156 12.8195L16.3376 14.2307L18.5426 12.8789L16.3061 11.4281L14.156 12.8186V12.8195ZM12.5 6.81109L16.3133 4.33789L21.914 7.79749L17.9612 10.3562L21.9149 12.9212L16.3115 16.3583L12.5 13.8905L8.68854 16.3565L3.08154 12.9212L7.03794 10.3553L3.08514 7.79749L8.68674 4.33879L12.5 6.81199V6.81109ZM14.1533 7.88389L16.307 9.28249L18.5471 7.83349L16.3367 6.46819L14.1533 7.88479V7.88389ZM10.844 12.8195L8.69304 11.4281L6.45564 12.8798L8.66154 14.2316L10.844 12.8195Z" fill="#0A0D14" style="fill:#0A0D14;fill:color(display-p3 0.0392 0.0510 0.0784);fill-opacity:1;"/>
</svg>
