<svg width="25" height="24" viewBox="0 0 25 24" fill="none" xmlns="http://www.w3.org/2000/svg">
<path d="M15.2 3L19.4363 7.2363C19.6051 7.40504 19.6999 7.63392 19.7 7.8726V20.1C19.7 20.3387 19.6052 20.5676 19.4364 20.7364C19.2676 20.9052 19.0387 21 18.8 21H6.19999C5.96129 21 5.73237 20.9052 5.56359 20.7364C5.39481 20.5676 5.29999 20.3387 5.29999 20.1V3.9C5.29999 3.66131 5.39481 3.43239 5.56359 3.2636C5.73237 3.09482 5.96129 3 6.19999 3H15.2ZM14.4539 4.8H7.09999V19.2H17.9V8.2461L14.4539 4.8ZM13.4 15.6H11.6V10.2H10.7V8.4H13.4V15.6Z" fill="#0A0D14" style="fill:#0A0D14;fill:color(display-p3 0.0392 0.0510 0.0784);fill-opacity:1;"/>
</svg>
