<svg width="25" height="24" viewBox="0 0 25 24" fill="none" xmlns="http://www.w3.org/2000/svg">
<path d="M15.2 3L19.4363 7.2363C19.6051 7.40504 19.6999 7.63392 19.7 7.8726V20.1C19.7 20.3387 19.6052 20.5676 19.4364 20.7364C19.2676 20.9052 19.0387 21 18.8 21H6.19999C5.96129 21 5.73237 20.9052 5.56359 20.7364C5.39481 20.5676 5.29999 20.3387 5.29999 20.1V3.9C5.29999 3.66131 5.39481 3.43239 5.56359 3.2636C5.73237 3.09482 5.96129 3 6.19999 3H15.2ZM14.4539 4.8H7.09999V19.2H17.9V8.2461L14.4539 4.8ZM12.5 7.95C13.0459 7.95 13.579 8.11547 14.0289 8.42458C14.4788 8.73369 14.8245 9.17194 15.0203 9.6815C15.2161 10.1911 15.2529 10.748 15.1257 11.2789C14.9986 11.8098 14.7135 12.2896 14.3081 12.6552L14.3009 12.648L14.3063 12.657L13.0355 13.8H15.2V15.6H9.79999V14.2923L13.103 11.3187C13.2143 11.2182 13.2987 11.0916 13.3486 10.9502C13.3986 10.8088 13.4124 10.6572 13.3888 10.5091C13.3652 10.3611 13.3051 10.2212 13.2137 10.1023C13.1224 9.98344 13.0028 9.88923 12.8658 9.82829C12.7288 9.76734 12.5788 9.74158 12.4293 9.75335C12.2799 9.76512 12.1357 9.81405 12.01 9.89568C11.8842 9.97731 11.7808 10.0891 11.7092 10.2208C11.6376 10.3525 11.6001 10.5001 11.6 10.65H9.79999C9.79999 9.93392 10.0845 9.24716 10.5908 8.74081C11.0971 8.23446 11.7839 7.95 12.5 7.95Z" fill="#0A0D14" style="fill:#0A0D14;fill:color(display-p3 0.0392 0.0510 0.0784);fill-opacity:1;"/>
</svg>
