<svg width="25" height="24" viewBox="0 0 25 24" fill="none" xmlns="http://www.w3.org/2000/svg">
<path d="M15.2 3L19.4363 7.2363C19.6051 7.40504 19.6999 7.63392 19.7 7.8726V20.1C19.7 20.3387 19.6052 20.5676 19.4364 20.7364C19.2676 20.9052 19.0387 21 18.8 21H6.19999C5.96129 21 5.73237 20.9052 5.56359 20.7364C5.39481 20.5676 5.29999 20.3387 5.29999 20.1V3.9C5.29999 3.66131 5.39481 3.43239 5.56359 3.2636C5.73237 3.09482 5.96129 3 6.19999 3H15.2ZM12.5 7.95C11.8113 7.94996 11.1486 8.21309 10.6476 8.68555C10.1465 9.15802 9.84489 9.8041 9.80449 10.4916L9.79999 10.65H11.6C11.5999 10.5044 11.6352 10.361 11.7028 10.2321C11.7703 10.1031 11.8682 9.99248 11.9879 9.90964C12.1076 9.8268 12.2456 9.77424 12.3901 9.75646C12.5346 9.73869 12.6812 9.75622 12.8174 9.80757C12.9536 9.85891 13.0754 9.94253 13.1722 10.0513C13.269 10.16 13.338 10.2906 13.3732 10.4318C13.4085 10.5731 13.4089 10.7207 13.3745 10.8622C13.3402 11.0037 13.272 11.1347 13.1759 11.244L13.1021 11.3187L9.79999 14.2923V15.6H15.2V13.8H13.0355L14.3063 12.657L14.3009 12.648L14.3081 12.6552C14.7135 12.2896 14.9986 11.8098 15.1257 11.2789C15.2529 10.748 15.2161 10.1911 15.0203 9.6815C14.8245 9.17194 14.4788 8.73369 14.0289 8.42458C13.579 8.11547 13.0459 7.95 12.5 7.95Z" fill="#0A0D14" style="fill:#0A0D14;fill:color(display-p3 0.0392 0.0510 0.0784);fill-opacity:1;"/>
</svg>
