<svg width="25" height="24" viewBox="0 0 25 24" fill="none" xmlns="http://www.w3.org/2000/svg">
<path d="M5.29998 14.4701C4.19929 13.7037 3.37193 12.606 2.93831 11.3368C2.50469 10.0676 2.48744 8.69311 2.88908 7.41343C3.29072 6.13374 4.09029 5.01563 5.1714 4.22184C6.25251 3.42805 7.55874 3 8.89998 3C10.2412 3 11.5474 3.42805 12.6286 4.22184C13.7097 5.01563 14.5092 6.13374 14.9109 7.41343C15.3125 8.69311 15.2953 10.0676 14.8616 11.3368C14.428 12.606 13.6007 13.7037 12.5 14.4701V20.0996C12.5 20.3383 12.4052 20.5672 12.2364 20.736C12.0676 20.9048 11.8387 20.9996 11.6 20.9996H6.19998C5.96128 20.9996 5.73236 20.9048 5.56358 20.736C5.3948 20.5672 5.29998 20.3383 5.29998 20.0996V14.4701ZM8.89998 13.7996C10.0934 13.7996 11.238 13.3255 12.082 12.4816C12.9259 11.6377 13.4 10.4931 13.4 9.29961C13.4 8.10613 12.9259 6.96154 12.082 6.11763C11.238 5.27371 10.0934 4.79961 8.89998 4.79961C7.7065 4.79961 6.56191 5.27371 5.71799 6.11763C4.87408 6.96154 4.39998 8.10613 4.39998 9.29961C4.39998 10.4931 4.87408 11.6377 5.71799 12.4816C6.56191 13.3255 7.7065 13.7996 8.89998 13.7996ZM7.99998 17.3996V19.1996H9.79998V17.3996H7.99998ZM8.89998 11.9996C8.18389 11.9996 7.49714 11.7151 6.99079 11.2088C6.48444 10.7024 6.19998 10.0157 6.19998 9.29961C6.19998 8.58352 6.48444 7.89677 6.99079 7.39042C7.49714 6.88407 8.18389 6.59961 8.89998 6.59961C9.61606 6.59961 10.3028 6.88407 10.8092 7.39042C11.3155 7.89677 11.6 8.58352 11.6 9.29961C11.6 10.0157 11.3155 10.7024 10.8092 11.2088C10.3028 11.7151 9.61606 11.9996 8.89998 11.9996ZM14.3 16.4996V15.3368C15.1504 14.5779 15.8306 13.6476 16.2959 12.6071C16.7613 11.5666 17.0012 10.4394 17 9.29961C17.0028 7.30663 16.268 5.38311 14.9372 3.89961H20.6C20.8387 3.89961 21.0676 3.99443 21.2364 4.16321C21.4052 4.33199 21.5 4.56091 21.5 4.79961V15.5996C21.5 15.8383 21.4052 16.0672 21.2364 16.236C21.0676 16.4048 20.8387 16.4996 20.6 16.4996H14.3ZM17.9 7.49961V9.29961H19.7V7.49961H17.9Z" fill="#0A0D14" style="fill:#0A0D14;fill:color(display-p3 0.0392 0.0510 0.0784);fill-opacity:1;"/>
</svg>
