<svg width="25" height="24" viewBox="0 0 25 24" fill="none" xmlns="http://www.w3.org/2000/svg">
<path d="M12.1472 3.90176H20.6C20.8387 3.90176 21.0676 3.99658 21.2364 4.16536C21.4052 4.33414 21.5 4.56306 21.5 4.80176V15.6018C21.5 15.8405 21.4052 16.0694 21.2364 16.2382C21.0676 16.4069 20.8387 16.5018 20.6 16.5018H14.3V14.7018H19.7V5.70176H14.0705C14.8076 6.75736 15.202 8.01426 15.2 9.30176C15.2007 10.3175 14.9554 11.3183 14.4853 12.2187C14.0151 13.1191 13.3339 13.8923 12.5 14.4723V20.1018C12.5 20.3405 12.4052 20.5694 12.2364 20.7382C12.0676 20.9069 11.8387 21.0018 11.6 21.0018H6.19999C5.96129 21.0018 5.73238 20.9069 5.56359 20.7382C5.39481 20.5694 5.29999 20.3405 5.29999 20.1018V14.4723C4.57906 14.0351 3.95321 13.4578 3.4595 12.7743C2.9658 12.0909 2.61429 11.3153 2.42581 10.4936C2.23733 9.67183 2.2157 8.8206 2.36222 7.99033C2.50873 7.16007 2.8204 6.36765 3.27877 5.66004C3.73713 4.95243 4.33287 4.34402 5.03067 3.87086C5.72847 3.3977 6.51415 3.06941 7.34114 2.90544C8.16814 2.74148 9.01964 2.74518 9.84518 2.91631C10.6707 3.08745 11.4535 3.42255 12.1472 3.90176ZM7.09999 13.4274V19.2018H10.7V13.4274C11.6478 13.0138 12.4242 12.2865 12.8988 11.3678C13.3734 10.4491 13.5172 9.39494 13.306 8.38267C13.0948 7.3704 12.5414 6.46174 11.739 5.80948C10.9366 5.15722 9.93406 4.80116 8.89999 4.80116C7.86592 4.80116 6.86338 5.15722 6.06097 5.80948C5.25856 6.46174 4.70522 7.3704 4.49399 8.38267C4.28276 9.39494 4.42654 10.4491 4.90114 11.3678C5.37574 12.2865 6.15221 13.0138 7.09999 13.4274ZM8.89999 12.0018C8.1839 12.0018 7.49715 11.7173 6.9908 11.2109C6.48445 10.7046 6.19999 10.0178 6.19999 9.30176C6.19999 8.58567 6.48445 7.89892 6.9908 7.39257C7.49715 6.88622 8.1839 6.60176 8.89999 6.60176C9.61607 6.60176 10.3028 6.88622 10.8092 7.39257C11.3155 7.89892 11.6 8.58567 11.6 9.30176C11.6 10.0178 11.3155 10.7046 10.8092 11.2109C10.3028 11.7173 9.61607 12.0018 8.89999 12.0018ZM8.89999 10.2018C9.13868 10.2018 9.3676 10.1069 9.53639 9.93815C9.70517 9.76937 9.79999 9.54045 9.79999 9.30176C9.79999 9.06306 9.70517 8.83414 9.53639 8.66536C9.3676 8.49658 9.13868 8.40176 8.89999 8.40176C8.66129 8.40176 8.43238 8.49658 8.26359 8.66536C8.09481 8.83414 7.99999 9.06306 7.99999 9.30176C7.99999 9.54045 8.09481 9.76937 8.26359 9.93815C8.43238 10.1069 8.66129 10.2018 8.89999 10.2018ZM17 7.50176H18.8V9.30176H17V7.50176ZM7.99999 16.5018H9.79999V18.3018H7.99999V16.5018Z" fill="#0A0D14" style="fill:#0A0D14;fill:color(display-p3 0.0392 0.0510 0.0784);fill-opacity:1;"/>
</svg>
