<svg width="25" height="24" viewBox="0 0 25 24" fill="none" xmlns="http://www.w3.org/2000/svg">
<path d="M16.1 2.09961C16.5971 2.09961 17 2.50255 17 2.99961V3.89961H21.5V9.29961H19.6829L22.1544 16.09C22.313 16.4958 22.4 16.9376 22.4 17.3996C22.4 19.3878 20.7882 20.9996 18.8 20.9996C17.1225 20.9996 15.7131 19.8523 15.3134 18.2996H11.4866C11.0869 19.8523 9.67746 20.9996 8 20.9996C6.24995 20.9996 4.79157 19.7509 4.46727 18.0958C3.89237 17.7953 3.5 17.1933 3.5 16.4996V7.49961C3.5 7.00255 3.90294 6.59961 4.4 6.59961H10.7C11.1971 6.59961 11.6 7.00255 11.6 7.49961V11.9996C11.6 12.4967 12.0029 12.8996 12.5 12.8996H14.3C14.7971 12.8996 15.2 12.4967 15.2 11.9996V3.89961H12.5V2.09961H16.1ZM18.8 15.5996C17.8059 15.5996 17 16.4055 17 17.3996C17 18.3937 17.8059 19.1996 18.8 19.1996C19.7941 19.1996 20.6 18.3937 20.6 17.3996C20.6 17.1833 20.5618 16.9759 20.4919 16.7838L20.4772 16.7448C20.2153 16.0745 19.5631 15.5996 18.8 15.5996ZM8 15.5996C7.00589 15.5996 6.2 16.4055 6.2 17.3996C6.2 18.3937 7.00589 19.1996 8 19.1996C8.99411 19.1996 9.8 18.3937 9.8 17.3996C9.8 16.4055 8.99411 15.5996 8 15.5996ZM9.8 8.39961H5.3V10.1996H9.8V8.39961ZM19.7 5.69961H17V7.49961H19.7V5.69961Z" fill="#0A0D14" style="fill:#0A0D14;fill:color(display-p3 0.0392 0.0510 0.0784);fill-opacity:1;"/>
</svg>
