<svg width="25" height="24" viewBox="0 0 25 24" fill="none" xmlns="http://www.w3.org/2000/svg">
<path d="M16.1 2.09961C16.5971 2.09961 17 2.50255 17 2.99961V3.89961H21.5V9.29961H19.6832L22.1544 16.0891C22.313 16.495 22.4 16.9367 22.4 17.3987C22.4 19.3869 20.7882 20.9987 18.8 20.9987C17.1229 20.9987 15.7136 19.8519 15.3136 18.2996H11.4866C11.0869 19.8523 9.67746 20.9996 8 20.9996C6.24995 20.9996 4.79157 19.7509 4.46727 18.0958C3.89237 17.7953 3.5 17.1933 3.5 16.4996V7.49961C3.5 7.00255 3.90294 6.59961 4.4 6.59961H10.7C11.1971 6.59961 11.6 7.00255 11.6 7.49961V11.9996C11.6 12.4967 12.0029 12.8996 12.5 12.8996H14.3C14.7971 12.8996 15.2 12.4967 15.2 11.9996V3.89961H12.5V2.09961H16.1ZM8 15.5996C7.00589 15.5996 6.2 16.4055 6.2 17.3996C6.2 18.3937 7.00589 19.1996 8 19.1996C8.99411 19.1996 9.8 18.3937 9.8 17.3996C9.8 16.4055 8.99411 15.5996 8 15.5996ZM18.8 15.5987C17.8059 15.5987 17 16.4046 17 17.3987C17 18.3928 17.8059 19.1987 18.8 19.1987C19.7941 19.1987 20.6 18.3928 20.6 17.3987C20.6 17.1824 20.5618 16.975 20.4919 16.7829L20.4772 16.7439C20.2153 16.0736 19.5631 15.5987 18.8 15.5987ZM17.7677 9.29961H17V11.9996C17 13.4908 15.7912 14.6996 14.3 14.6996H12.5C11.0088 14.6996 9.8 13.4908 9.8 11.9996H5.3V15.0184C5.95965 14.271 6.92478 13.7996 8 13.7996C9.67745 13.7996 11.0869 14.9469 11.4866 16.4996H15.3132C15.7125 14.9465 17.1222 13.7987 18.8 13.7987C19.0131 13.7987 19.2219 13.8172 19.4249 13.8528L17.7677 9.29961ZM9.8 8.39961H5.3V10.1996H9.8V8.39961ZM19.7 5.69961H17V7.49961H19.7V5.69961Z" fill="#0A0D14" style="fill:#0A0D14;fill:color(display-p3 0.0392 0.0510 0.0784);fill-opacity:1;"/>
</svg>
