<svg width="25" height="24" viewBox="0 0 25 24" fill="none" xmlns="http://www.w3.org/2000/svg">
<path d="M15.65 7.44301C16.608 7.99581 17.4035 8.79117 17.9565 9.74908C18.5095 10.707 18.8004 11.7936 18.8 12.8997V20.0997H15.047C14.8611 20.6267 14.5162 21.083 14.0601 21.4058C13.6039 21.7286 13.0588 21.9019 12.5 21.9019C11.9412 21.9019 11.3961 21.7286 10.94 21.4058C10.4838 21.083 10.139 20.6267 9.95301 20.0997H6.20001V12.8997C6.19961 11.7936 6.49053 10.707 7.04351 9.74908C7.59648 8.79117 8.392 7.99581 9.35001 7.44301C9.20213 7.1774 9.08872 6.89401 9.01251 6.59971H6.20001V4.79971H9.01341C9.21361 4.0273 9.66463 3.34322 10.2957 2.85488C10.9267 2.36653 11.7021 2.10156 12.5 2.10156C13.298 2.10156 14.0733 2.36653 14.7043 2.85488C15.3354 3.34322 15.7864 4.0273 15.9866 4.79971H18.8V6.59971H15.9866C15.9101 6.89671 15.7958 7.18021 15.6509 7.44301H15.65ZM12.5 13.7997C12.2613 13.7997 12.0324 13.8945 11.8636 14.0633C11.6948 14.2321 11.6 14.461 11.6 14.6997V19.1997C11.6 19.4384 11.6948 19.6673 11.8636 19.8361C12.0324 20.0049 12.2613 20.0997 12.5 20.0997C12.7387 20.0997 12.9676 20.0049 13.1364 19.8361C13.3052 19.6673 13.4 19.4384 13.4 19.1997V14.6997C13.4 14.461 13.3052 14.2321 13.1364 14.0633C12.9676 13.8945 12.7387 13.7997 12.5 13.7997ZM12.5 7.49971C12.9774 7.49971 13.4352 7.31007 13.7728 6.9725C14.1104 6.63494 14.3 6.1771 14.3 5.69971C14.3 5.22232 14.1104 4.76449 13.7728 4.42692C13.4352 4.08935 12.9774 3.89971 12.5 3.89971C12.0226 3.89971 11.5648 4.08935 11.2272 4.42692C10.8897 4.76449 10.7 5.22232 10.7 5.69971C10.7 6.1771 10.8897 6.63494 11.2272 6.9725C11.5648 7.31007 12.0226 7.49971 12.5 7.49971Z" fill="#0A0D14" style="fill:#0A0D14;fill:color(display-p3 0.0392 0.0510 0.0784);fill-opacity:1;"/>
</svg>
