<svg width="25" height="24" viewBox="0 0 25 24" fill="none" xmlns="http://www.w3.org/2000/svg">
<path d="M11.8943 2.65234C12.0453 2.5149 12.2386 2.4329 12.4424 2.41982C12.6462 2.40673 12.8483 2.46334 13.0157 2.58034L13.1057 2.65234L22.4 11.1015H19.7V19.2015C19.7 19.422 19.619 19.6347 19.4726 19.7995C19.3261 19.9642 19.1242 20.0694 18.9053 20.0952L18.8 20.1015H12.95L15.2 16.5015L12.05 13.8015L15.65 11.1015L13.4 9.30154L13.85 6.60154L11.15 9.30154L13.4 11.1015L8.90001 13.8015L12.275 16.9515L9.35001 20.1015H6.20001C5.97957 20.1015 5.7668 20.0206 5.60207 19.8741C5.43734 19.7276 5.3321 19.5258 5.30631 19.3068L5.30001 19.2015V11.1015H2.60001L11.8943 2.65234Z" fill="#0A0D14" style="fill:#0A0D14;fill:color(display-p3 0.0392 0.0510 0.0784);fill-opacity:1;"/>
</svg>
