<svg width="25" height="24" viewBox="0 0 25 24" fill="none" xmlns="http://www.w3.org/2000/svg">
<path d="M12.5 21C7.5293 21 3.5 16.9707 3.5 12C3.5 7.0293 7.5293 3 12.5 3C17.4707 3 21.5 7.0293 21.5 12C21.5 16.9707 17.4707 21 12.5 21ZM18.2195 15.5568V15.4623C18.2195 14.6325 18.2195 14.2536 17.6327 13.9179C17.4441 13.811 17.2504 13.7134 17.0522 13.6254C16.7219 13.4751 16.5032 13.377 16.208 12.945C16.1728 12.8937 16.138 12.8421 16.1036 12.7902C15.7931 12.3177 15.569 11.9775 14.7158 12.1125C13.0373 12.3789 12.9131 12.6741 12.8393 13.1727L12.8276 13.2546C12.7187 13.9836 12.6989 14.2284 13.0031 14.5479C14.1416 15.7422 14.8238 16.6035 15.0308 17.1075C15.1316 17.3532 15.3908 18.0975 15.2126 18.8337C16.305 18.3986 17.2774 17.7082 18.0485 16.8204C18.1475 16.4838 18.2195 16.0644 18.2195 15.5568ZM12.5 4.6497C10.4147 4.6497 8.531 5.5191 7.1936 6.9141C7.3529 7.0248 7.4915 7.1805 7.5869 7.3947C7.7705 7.806 7.7705 8.2299 7.7705 8.6052C7.7705 8.9004 7.7705 9.1812 7.865 9.3837C7.9946 9.6609 8.5544 9.7797 9.0485 9.8823C9.2258 9.9201 9.4076 9.9579 9.5732 10.0038C10.0286 10.1298 10.3814 10.5393 10.6631 10.8678C10.7801 11.0037 10.9538 11.2044 11.0411 11.2548C11.0861 11.2224 11.231 11.0649 11.3021 10.8066C11.3579 10.6086 11.3417 10.434 11.2616 10.3386C10.7576 9.7446 10.7855 8.6016 10.9412 8.1795C11.186 7.5144 11.951 7.5639 12.5108 7.5999C12.7196 7.6134 12.9158 7.6269 13.0634 7.608C13.6232 7.5378 13.796 6.6855 13.9175 6.519C14.1803 6.159 14.9849 5.6163 15.4835 5.2815C14.5443 4.86389 13.5278 4.64863 12.5 4.6497Z" fill="#0A0D14" style="fill:#0A0D14;fill:color(display-p3 0.0392 0.0510 0.0784);fill-opacity:1;"/>
</svg>
