<svg width="25" height="24" viewBox="0 0 25 24" fill="none" xmlns="http://www.w3.org/2000/svg">
<path d="M20.2796 8.9274C20.1266 8.2875 19.8827 7.6242 19.583 7.1085C18.8891 5.9124 18.2654 5.0952 16.7237 4.1205C15.182 3.1458 13.4684 3 12.653 3C10.4795 3 8.86309 3.774 7.68049 4.6983C4.70959 7.023 4.39999 11.1 4.39999 11.1C4.39999 11.1 5.49889 9.2595 7.58599 7.9266C8.84869 7.1211 10.6469 6.6 12.1112 6.6C15.9965 6.6 16.1 10.2 16.1 10.2H9.79999C9.79999 8.4 10.7 7.5 10.7 7.5C10.7 7.5 6.19999 9.3 6.19999 13.8396C6.19999 14.2779 6.19729 15.0744 6.42319 15.8943C6.63199 16.653 7.05319 17.4288 7.44199 18.012C8.54089 19.6608 10.1825 20.3646 10.9664 20.6256C11.8628 20.9244 12.7925 21 13.6754 21C16.1234 21 18.0647 20.2026 18.8 19.8525V16.0977C18.1178 16.5063 16.3889 17.4 14.3 17.4C9.79999 17.4 9.79999 13.8 9.79999 13.8H20.6V11.559C20.6 11.559 20.5649 10.1253 20.2796 8.9274Z" fill="#0A0D14" style="fill:#0A0D14;fill:color(display-p3 0.0392 0.0510 0.0784);fill-opacity:1;"/>
</svg>
