<svg width="25" height="24" viewBox="0 0 25 24" fill="none" xmlns="http://www.w3.org/2000/svg">
<path d="M13.8628 19.3765C13.783 19.3788 13.7037 19.38 13.625 19.38C12.8199 19.38 11.8448 18.9143 11.0604 18.0612C10.2835 17.2162 9.72504 16.0223 9.72504 14.625C9.72504 13.5611 10.1138 12.701 10.6258 12.0707C10.6685 13.9347 12.3941 16.275 15.875 16.275C17.1334 16.275 17.9129 15.9357 18.3345 15.7522C18.4908 15.6841 18.598 15.6375 18.6621 15.6375C18.8 15.6375 18.875 15.7125 18.875 15.8625C18.875 16.0024 18.799 16.1034 18.5556 16.4267L18.5005 16.5C17.3917 17.9761 15.7509 19.0299 13.8628 19.3765ZM11.5262 19.4374C7.84412 18.9599 5 15.8121 5 12C5 11.0402 5.5554 10.2534 6.42312 9.68941C7.29381 9.12347 8.44006 8.8125 9.5 8.8125C11.2073 8.8125 12.226 9.38633 12.8213 10.0477C12.8589 10.0895 12.8949 10.1318 12.9294 10.1744C12.7915 10.1421 12.6477 10.125 12.5 10.125H12.497C12.1706 10.1255 11.8639 10.2094 11.5967 10.3565C11.5378 10.3838 11.4789 10.4132 11.4202 10.4444C11.0424 10.6457 10.6469 10.9402 10.2871 11.3203C9.56584 12.0822 8.97504 13.2025 8.97504 14.625C8.97504 16.2277 9.61651 17.5988 10.5083 18.5688C10.8187 18.9064 11.1634 19.1993 11.5262 19.4374ZM13.8886 13.1967C14.0883 12.9863 14.375 12.6842 14.375 12C14.375 11.3545 14.1219 10.3717 13.3787 9.54601C12.624 8.70742 11.3927 8.0625 9.5 8.0625C8.30994 8.0625 7.01869 8.40778 6.01438 9.06059C5.80452 9.19699 5.6055 9.34816 5.42195 9.51367C6.44767 6.59355 9.22935 4.5 12.5 4.5C16.6421 4.5 20 7.5 20 10.875C20 12.975 18.35 14.5125 16.25 14.5125C14.75 14.5125 13.7 14.025 13.7 13.5C13.7 13.3955 13.7819 13.3092 13.8886 13.1967Z" fill="#0A0D14" style="fill:#0A0D14;fill:color(display-p3 0.0392 0.0510 0.0784);fill-opacity:1;"/>
</svg>
