<svg width="25" height="24" viewBox="0 0 25 24" fill="none" xmlns="http://www.w3.org/2000/svg">
<path d="M8.71178 16.6532C8.22519 15.5813 8 14.4008 8 13.5C8 12.3779 8.44248 11.1803 9.2023 10.2576C9.6828 9.67414 10.308 9.18107 11.0509 8.89408C10.6904 8.8411 10.2986 8.8125 9.875 8.8125C7.99288 8.8125 6.5 10.2091 6.5 12C6.5 13.8771 7.36201 15.5529 8.71178 16.6532ZM12.5 18C13.1962 18 13.8648 17.8816 14.4866 17.6635C11.9638 17.2454 10.2507 15.7034 9.52161 13.9411C9.59315 14.7103 9.84368 15.6631 10.2935 16.4591C10.8325 17.4127 11.5648 18 12.5 18ZM15.875 12C15.875 12.3555 15.8269 12.6838 15.7341 12.9862C15.8883 13.0027 16.0606 13.0125 16.25 13.0125C17.5824 13.0125 18.5 12.0871 18.5 10.875C18.5 8.52761 16.028 6 12.5 6C10.9854 6 9.60187 6.5612 8.54602 7.48702C8.97126 7.37289 9.41763 7.3125 9.875 7.3125C11.6803 7.3125 13.1723 7.76352 14.2303 8.59884C15.3034 9.44593 15.875 10.6483 15.875 12ZM12.5 10.125C11.4645 10.125 10.625 10.9645 10.625 12C10.625 13.875 12.35 16.275 15.875 16.275C16.2064 16.275 16.5045 16.2515 16.7718 16.2134C17.0034 16.1805 17.2118 16.1366 17.3983 16.0878C17.5426 16.05 17.6737 16.0092 17.7924 15.9682C17.8955 15.9325 17.9892 15.8967 18.0739 15.8625C18.1726 15.8227 18.2592 15.7849 18.3345 15.7522C18.4908 15.6841 18.598 15.6375 18.6621 15.6375C18.8 15.6375 18.875 15.7125 18.875 15.8625C18.875 15.9795 18.8218 16.0693 18.6621 16.2847C18.6309 16.3268 18.5956 16.3738 18.5557 16.4267L18.5005 16.5C18.3717 16.6716 18.2356 16.8374 18.0928 16.9972C17.8996 17.2133 17.694 17.4181 17.4773 17.6105C16.1531 18.7861 14.41 19.5 12.5 19.5C8.35786 19.5 5 16.1421 5 12C5 7.85786 8.35786 4.5 12.5 4.5C16.6421 4.5 20 7.5 20 10.875C20 12.975 18.35 14.5125 16.25 14.5125C14.75 14.5125 13.7 14.025 13.7 13.5C13.7 13.3955 13.7819 13.3092 13.8886 13.1967C14.0883 12.9863 14.375 12.6842 14.375 12C14.375 10.9645 13.5355 10.125 12.5 10.125Z" fill="#0A0D14" style="fill:#0A0D14;fill:color(display-p3 0.0392 0.0510 0.0784);fill-opacity:1;"/>
</svg>
