<svg width="25" height="24" viewBox="0 0 25 24" fill="none" xmlns="http://www.w3.org/2000/svg">
<path d="M8.90629 13.8009C8.90215 13.8755 8.90005 13.9503 8.89999 14.025C8.89999 16.1688 10.4777 18.3 13.4 18.3C15.5357 18.3 17.4752 17.7105 18.8 16.9023V19.9173C17.1899 20.6076 15.3017 21 13.4 21C8.44819 21 6.19999 17.877 6.19999 14.025C6.19999 11.1171 8.03689 8.625 10.6487 7.5774C9.38509 8.9967 8.89999 10.5069 8.89999 11.0964L17.9 11.1C17.9 8.0346 15.6068 5.7 12.5 5.7C7.99999 5.7 5.29909 9.2892 4.39999 11.0991C4.66099 6.8133 8.00899 3 12.5 3C17.18 3 20.6 6.627 20.6 11.1V13.8H8.89999L8.90629 13.8009Z" fill="#0A0D14" style="fill:#0A0D14;fill:color(display-p3 0.0392 0.0510 0.0784);fill-opacity:1;"/>
</svg>
