<svg width="25" height="24" viewBox="0 0 25 24" fill="none" xmlns="http://www.w3.org/2000/svg">
<path d="M13.1156 4.8261C11.6445 4.69991 10.1701 5.02907 8.89232 5.76896C7.61453 6.50886 6.59513 7.62371 5.97225 8.96244C5.34937 10.3012 5.15314 11.799 5.41016 13.253C5.66717 14.707 6.365 16.0469 7.40908 17.0909C8.45315 18.135 9.79297 18.8328 11.247 19.0898C12.701 19.3469 14.1988 19.1506 15.5376 18.5278C16.8763 17.9049 17.9911 16.8855 18.731 15.6077C19.4709 14.3299 19.8001 12.8555 19.6739 11.3844C19.6108 10.6282 19.4276 9.88693 19.1312 9.1884L20.4812 7.8366C21.1534 9.12125 21.503 10.5501 21.5 12C21.5 16.9707 17.4707 21 12.5 21C7.5293 21 3.5 16.9707 3.5 12C3.5 7.0293 7.5293 3 12.5 3C13.9497 2.99872 15.3781 3.34826 16.6634 4.0188L15.3125 5.3688C14.614 5.07247 13.8727 4.88928 13.1165 4.8261H13.1156ZM20.1365 3.09L21.41 4.3635L13.1372 12.6363L11.8664 12.639L11.8646 11.3637L20.1365 3.09Z" fill="#0A0D14" style="fill:#0A0D14;fill:color(display-p3 0.0392 0.0510 0.0784);fill-opacity:1;"/>
</svg>
