<svg width="25" height="24" viewBox="0 0 25 24" fill="none" xmlns="http://www.w3.org/2000/svg">
<path d="M16.7813 3.89984L14.9813 5.69984H6.19999V18.2998H18.8V9.51854L20.6 7.71854V19.1998C20.6 19.4385 20.5052 19.6675 20.3364 19.8362C20.1676 20.005 19.9387 20.0998 19.7 20.0998H5.29999C5.0613 20.0998 4.83238 20.005 4.6636 19.8362C4.49482 19.6675 4.39999 19.4385 4.39999 19.1998V4.79984C4.39999 4.56115 4.49482 4.33223 4.6636 4.16345C4.83238 3.99466 5.0613 3.89984 5.29999 3.89984H16.7813ZM20.1365 3.08984L21.41 4.36424L13.1372 12.637L11.8664 12.6397L11.8646 11.3644L20.1365 3.08984Z" fill="#0A0D14" style="fill:#0A0D14;fill:color(display-p3 0.0392 0.0510 0.0784);fill-opacity:1;"/>
</svg>
