<svg width="25" height="24" viewBox="0 0 25 24" fill="none" xmlns="http://www.w3.org/2000/svg">
<path d="M12.8744 4.46207L19.2338 14.0012C19.2789 14.0689 19.3048 14.1477 19.3087 14.229C19.3126 14.3103 19.2944 14.3911 19.2559 14.4629C19.2175 14.5346 19.1604 14.5946 19.0905 14.6365C19.0207 14.6783 18.9408 14.7004 18.8594 14.7005H6.14065C6.05925 14.7004 5.97939 14.6783 5.90957 14.6365C5.83975 14.5946 5.78258 14.5346 5.74416 14.4629C5.70574 14.3911 5.68751 14.3103 5.6914 14.229C5.69528 14.1477 5.72115 14.0689 5.76625 14.0012L12.1256 4.46207C12.1667 4.40044 12.2224 4.34991 12.2877 4.31496C12.353 4.28001 12.426 4.26172 12.5 4.26172C12.5741 4.26172 12.6471 4.28001 12.7124 4.31496C12.7777 4.34991 12.8334 4.40044 12.8744 4.46207ZM6.20005 16.5005H18.8C19.0387 16.5005 19.2677 16.5953 19.4364 16.7641C19.6052 16.9329 19.7 17.1618 19.7 17.4005C19.7 17.6392 19.6052 17.8681 19.4364 18.0369C19.2677 18.2056 19.0387 18.3005 18.8 18.3005H6.20005C5.96135 18.3005 5.73244 18.2056 5.56365 18.0369C5.39487 17.8681 5.30005 17.6392 5.30005 17.4005C5.30005 17.1618 5.39487 16.9329 5.56365 16.7641C5.73244 16.5953 5.96135 16.5005 6.20005 16.5005Z" fill="#0A0D14" style="fill:#0A0D14;fill:color(display-p3 0.0392 0.0510 0.0784);fill-opacity:1;"/>
</svg>
