<svg width="25" height="24" viewBox="0 0 25 24" fill="none" xmlns="http://www.w3.org/2000/svg">
<path d="M19.9268 10.9482C19.5831 10.9 19.232 10.875 18.875 10.875C16.4303 10.875 14.2591 12.0453 12.8909 13.8532C12.7626 13.8665 12.6322 13.8734 12.5 13.8734C11.5391 13.8734 10.6641 13.5129 10.0002 12.9186L8.99982 14.0363C9.81403 14.7651 10.8586 15.244 12.0099 15.3507C11.6017 16.2762 11.375 17.2997 11.375 18.375C11.375 18.732 11.4 19.0831 11.4482 19.4268C7.80402 18.9154 5 15.7852 5 12C5 7.85786 8.35786 4.5 12.5 4.5C16.2852 4.5 19.4154 7.30402 19.9268 10.9482ZM19.903 12.4627C19.5691 12.4051 19.2255 12.375 18.875 12.375C16.8242 12.375 15.0134 13.4032 13.9301 14.9756C13.2646 15.9417 12.875 17.1117 12.875 18.375C12.875 18.7255 12.9051 19.0691 12.9627 19.403L19.903 12.4627ZM9.875 11.625C10.4963 11.625 11 11.1213 11 10.5C11 9.87868 10.4963 9.375 9.875 9.375C9.25368 9.375 8.75 9.87868 8.75 10.5C8.75 11.1213 9.25368 11.625 9.875 11.625ZM15.125 11.625C15.7463 11.625 16.25 11.1213 16.25 10.5C16.25 9.87868 15.7463 9.375 15.125 9.375C14.5037 9.375 14 9.87868 14 10.5C14 11.1213 14.5037 11.625 15.125 11.625Z" fill="#0A0D14" style="fill:#0A0D14;fill:color(display-p3 0.0392 0.0510 0.0784);fill-opacity:1;"/>
</svg>
