<svg width="25" height="24" viewBox="0 0 25 24" fill="none" xmlns="http://www.w3.org/2000/svg">
<path d="M11.3899 17.8975C11.4466 16.9961 11.6625 16.1379 12.0097 15.3507C10.8584 15.2439 9.81398 14.765 8.99982 14.0363L10.0002 12.9186C10.6641 13.5129 11.5391 13.8734 12.5 13.8734C12.6322 13.8734 12.7626 13.8665 12.8908 13.8532C14.1702 12.1627 16.1496 11.0312 18.3975 10.8899C17.8769 8.10658 15.4345 6 12.5 6C9.18629 6 6.5 8.68629 6.5 12C6.5 14.9345 8.60658 17.3769 11.3899 17.8975ZM17.7675 12.477C15.3418 12.9297 13.4297 14.8418 12.977 17.2675L17.7675 12.477ZM20 12C20 12.1258 19.9969 12.2508 19.9908 12.375L12.875 19.4908C12.7508 19.4969 12.6258 19.5 12.5 19.5C8.35786 19.5 5 16.1421 5 12C5 7.85786 8.35786 4.5 12.5 4.5C16.6421 4.5 20 7.85786 20 12ZM11 10.5C11 11.1213 10.4963 11.625 9.875 11.625C9.25368 11.625 8.75 11.1213 8.75 10.5C8.75 9.87868 9.25368 9.375 9.875 9.375C10.4963 9.375 11 9.87868 11 10.5ZM16.25 10.5C16.25 11.1213 15.7463 11.625 15.125 11.625C14.5037 11.625 14 11.1213 14 10.5C14 9.87868 14.5037 9.375 15.125 9.375C15.7463 9.375 16.25 9.87868 16.25 10.5Z" fill="#0A0D14" style="fill:#0A0D14;fill:color(display-p3 0.0392 0.0510 0.0784);fill-opacity:1;"/>
</svg>
