<svg width="25" height="24" viewBox="0 0 25 24" fill="none" xmlns="http://www.w3.org/2000/svg">
<path d="M12.5 3C17.4707 3 21.5 7.0293 21.5 12C21.5 12.6543 21.4307 13.2915 21.2975 13.9062L19.6937 12.3015C19.7597 10.7218 19.3039 9.16424 18.3967 7.86933C17.4894 6.57443 16.1811 5.61417 14.6738 5.1368C13.1665 4.65943 11.544 4.69149 10.0567 5.22803C8.5694 5.76457 7.30008 6.77576 6.44468 8.10549C5.58928 9.43522 5.19537 11.0096 5.32376 12.5854C5.45214 14.1613 6.09569 15.6511 7.15504 16.8249C8.2144 17.9986 9.63066 18.791 11.1852 19.0797C12.7397 19.3685 14.346 19.1375 15.7562 18.4224C16.0997 18.9668 16.583 19.4091 17.1557 19.7031C15.7519 20.5537 14.1414 21.0023 12.5 21C7.5293 21 3.5 16.9707 3.5 12C3.5 7.0293 7.5293 3 12.5 3ZM18.8 13.9548L20.0726 15.2274C20.3203 15.475 20.4904 15.7896 20.562 16.1325C20.6336 16.4754 20.6036 16.8317 20.4757 17.1578C20.3478 17.4839 20.1275 17.7655 19.8418 17.9683C19.5562 18.171 19.2176 18.286 18.8676 18.2992C18.5175 18.3123 18.1713 18.223 17.8712 18.0423C17.5712 17.8615 17.3304 17.5971 17.1784 17.2816C17.0264 16.966 16.9697 16.6129 17.0154 16.2656C17.0611 15.9183 17.2071 15.5919 17.4356 15.3264L17.5274 15.2274L18.8 13.9548ZM12.5 14.7C13.8194 14.7 15.0065 15.2679 15.83 16.1733L14.9795 16.9473C14.2685 16.6638 13.4162 16.5 12.5 16.5C11.5838 16.5 10.7315 16.6647 10.0205 16.9464L9.17 16.1724C9.59139 15.708 10.1054 15.337 10.679 15.0834C11.2525 14.8298 11.8729 14.6992 12.5 14.7ZM9.35 10.2C9.70804 10.2 10.0514 10.3422 10.3046 10.5954C10.5578 10.8486 10.7 11.192 10.7 11.55C10.7 11.908 10.5578 12.2514 10.3046 12.5046C10.0514 12.7578 9.70804 12.9 9.35 12.9C8.99196 12.9 8.64858 12.7578 8.39541 12.5046C8.14223 12.2514 8 11.908 8 11.55C8 11.192 8.14223 10.8486 8.39541 10.5954C8.64858 10.3422 8.99196 10.2 9.35 10.2ZM15.65 10.2C16.008 10.2 16.3514 10.3422 16.6046 10.5954C16.8578 10.8486 17 11.192 17 11.55C17 11.908 16.8578 12.2514 16.6046 12.5046C16.3514 12.7578 16.008 12.9 15.65 12.9C15.292 12.9 14.9486 12.7578 14.6954 12.5046C14.4422 12.2514 14.3 11.908 14.3 11.55C14.3 11.192 14.4422 10.8486 14.6954 10.5954C14.9486 10.3422 15.292 10.2 15.65 10.2Z" fill="#0A0D14" style="fill:#0A0D14;fill:color(display-p3 0.0392 0.0510 0.0784);fill-opacity:1;"/>
</svg>
