<svg width="25" height="24" viewBox="0 0 25 24" fill="none" xmlns="http://www.w3.org/2000/svg">
<path d="M12.5 3C17.4707 3 21.5 7.0293 21.5 12C21.5 16.9707 17.4707 21 12.5 21C7.5293 21 3.5 16.9707 3.5 12C3.5 7.0293 7.5293 3 12.5 3ZM12.5 4.8C10.5904 4.8 8.75909 5.55857 7.40883 6.90883C6.05857 8.25909 5.3 10.0904 5.3 12C5.3 13.9096 6.05857 15.7409 7.40883 17.0912C8.75909 18.4414 10.5904 19.2 12.5 19.2C14.4096 19.2 16.2409 18.4414 17.5912 17.0912C18.9414 15.7409 19.7 13.9096 19.7 12C19.7 10.0904 18.9414 8.25909 17.5912 6.90883C16.2409 5.55857 14.4096 4.8 12.5 4.8ZM12.5 11.1C14.3 11.1 15.8003 11.3997 17 12C17 13.1935 16.5259 14.3381 15.682 15.182C14.8381 16.0259 13.6935 16.5 12.5 16.5C11.3065 16.5 10.1619 16.0259 9.31802 15.182C8.47411 14.3381 8 13.1935 8 12C9.1997 11.3997 10.7 11.1 12.5 11.1ZM9.35 7.5C9.86869 7.49989 10.3715 7.679 10.7733 8.00701C11.1751 8.33502 11.4513 8.79179 11.555 9.3H7.145C7.24874 8.79179 7.52488 8.33502 7.92669 8.00701C8.32851 7.679 8.83131 7.49989 9.35 7.5ZM15.65 7.5C16.1687 7.49989 16.6715 7.679 17.0733 8.00701C17.4751 8.33502 17.7513 8.79179 17.855 9.3H13.445C13.5487 8.79179 13.8249 8.33502 14.2267 8.00701C14.6285 7.679 15.1313 7.49989 15.65 7.5Z" fill="#0A0D14" style="fill:#0A0D14;fill:color(display-p3 0.0392 0.0510 0.0784);fill-opacity:1;"/>
</svg>
