<svg width="25" height="24" viewBox="0 0 25 24" fill="none" xmlns="http://www.w3.org/2000/svg">
<path d="M12.5 3C17.4707 3 21.5 7.0293 21.5 12C21.5 16.9707 17.4707 21 12.5 21C7.5293 21 3.5 16.9707 3.5 12C3.5 7.0293 7.5293 3 12.5 3ZM12.5 11.1C10.7 11.1 9.1997 11.3997 8 12C8 13.1935 8.47411 14.3381 9.31802 15.182C10.1619 16.0259 11.3065 16.5 12.5 16.5C13.6935 16.5 14.8381 16.0259 15.682 15.182C16.5259 14.3381 17 13.1935 17 12C15.8003 11.3997 14.3 11.1 12.5 11.1ZM9.35 7.5C8.3132 7.5 7.4402 8.202 7.1792 9.156L7.145 9.3H11.555C11.4513 8.79179 11.1751 8.33502 10.7733 8.00701C10.3715 7.679 9.86869 7.49989 9.35 7.5ZM15.65 7.5C14.6132 7.5 13.7402 8.202 13.4792 9.156L13.445 9.3H17.855C17.7513 8.79179 17.4751 8.33502 17.0733 8.00701C16.6715 7.679 16.1687 7.49989 15.65 7.5Z" fill="#0A0D14" style="fill:#0A0D14;fill:color(display-p3 0.0392 0.0510 0.0784);fill-opacity:1;"/>
</svg>
