<svg width="25" height="24" viewBox="0 0 25 24" fill="none" xmlns="http://www.w3.org/2000/svg">
<path d="M12.5 21C7.5293 21 3.5 16.9707 3.5 12C3.5 7.0293 7.5293 3 12.5 3C17.4707 3 21.5 7.0293 21.5 12C21.5 16.9707 17.4707 21 12.5 21ZM8 16.5H9.8C9.8 15.7839 10.0845 15.0972 10.5908 14.5908C11.0972 14.0845 11.7839 13.8 12.5 13.8C13.2161 13.8 13.9028 14.0845 14.4092 14.5908C14.9155 15.0972 15.2 15.7839 15.2 16.5H17C17 15.3065 16.5259 14.1619 15.682 13.318C14.8381 12.4741 13.6935 12 12.5 12C11.3065 12 10.1619 12.4741 9.31802 13.318C8.47411 14.1619 8 15.3065 8 16.5ZM8.9 11.1C9.25804 11.1 9.60142 10.9578 9.85459 10.7046C10.1078 10.4514 10.25 10.108 10.25 9.75C10.25 9.39196 10.1078 9.04858 9.85459 8.79541C9.60142 8.54223 9.25804 8.4 8.9 8.4C8.54196 8.4 8.19858 8.54223 7.94541 8.79541C7.69223 9.04858 7.55 9.39196 7.55 9.75C7.55 10.108 7.69223 10.4514 7.94541 10.7046C8.19858 10.9578 8.54196 11.1 8.9 11.1ZM16.1 11.1C16.458 11.1 16.8014 10.9578 17.0546 10.7046C17.3078 10.4514 17.45 10.108 17.45 9.75C17.45 9.39196 17.3078 9.04858 17.0546 8.79541C16.8014 8.54223 16.458 8.4 16.1 8.4C15.742 8.4 15.3986 8.54223 15.1454 8.79541C14.8922 9.04858 14.75 9.39196 14.75 9.75C14.75 10.108 14.8922 10.4514 15.1454 10.7046C15.3986 10.9578 15.742 11.1 16.1 11.1Z" fill="#0A0D14" style="fill:#0A0D14;fill:color(display-p3 0.0392 0.0510 0.0784);fill-opacity:1;"/>
</svg>
