<svg width="25" height="24" viewBox="0 0 25 24" fill="none" xmlns="http://www.w3.org/2000/svg">
<path d="M12.5 21C7.5293 21 3.5 16.9707 3.5 12C3.5 7.0293 7.5293 3 12.5 3C17.4707 3 21.5 7.0293 21.5 12C21.5 16.9707 17.4707 21 12.5 21ZM12.5 19.2C14.4096 19.2 16.2409 18.4414 17.5912 17.0912C18.9414 15.7409 19.7 13.9096 19.7 12C19.7 10.0904 18.9414 8.25909 17.5912 6.90883C16.2409 5.55857 14.4096 4.8 12.5 4.8C10.5904 4.8 8.75909 5.55857 7.40883 6.90883C6.05857 8.25909 5.3 10.0904 5.3 12C5.3 13.9096 6.05857 15.7409 7.40883 17.0912C8.75909 18.4414 10.5904 19.2 12.5 19.2ZM8.9 12.9H16.1C16.1 13.8548 15.7207 14.7705 15.0456 15.4456C14.3705 16.1207 13.4548 16.5 12.5 16.5C11.5452 16.5 10.6295 16.1207 9.95442 15.4456C9.27928 14.7705 8.9 13.8548 8.9 12.9ZM8.9 11.1C8.54196 11.1 8.19858 10.9578 7.94541 10.7046C7.69223 10.4514 7.55 10.108 7.55 9.75C7.55 9.39196 7.69223 9.04858 7.94541 8.79541C8.19858 8.54223 8.54196 8.4 8.9 8.4C9.25804 8.4 9.60142 8.54223 9.85459 8.79541C10.1078 9.04858 10.25 9.39196 10.25 9.75C10.25 10.108 10.1078 10.4514 9.85459 10.7046C9.60142 10.9578 9.25804 11.1 8.9 11.1ZM16.1 11.1C15.742 11.1 15.3986 10.9578 15.1454 10.7046C14.8922 10.4514 14.75 10.108 14.75 9.75C14.75 9.39196 14.8922 9.04858 15.1454 8.79541C15.3986 8.54223 15.742 8.4 16.1 8.4C16.458 8.4 16.8014 8.54223 17.0546 8.79541C17.3078 9.04858 17.45 9.39196 17.45 9.75C17.45 10.108 17.3078 10.4514 17.0546 10.7046C16.8014 10.9578 16.458 11.1 16.1 11.1Z" fill="#0A0D14" style="fill:#0A0D14;fill:color(display-p3 0.0392 0.0510 0.0784);fill-opacity:1;"/>
</svg>
