<svg width="25" height="24" viewBox="0 0 25 24" fill="none" xmlns="http://www.w3.org/2000/svg">
<path d="M12.5 3C17.4707 3 21.5 7.0293 21.5 12C21.5022 13.4053 21.1738 14.7914 20.5415 16.0464C20.4755 15.7902 20.3531 15.5519 20.1833 15.3489L20.0726 15.2274L18.8 13.9548L17.5274 15.2274L17.4221 15.3417C17.1941 15.6128 17.0511 15.9451 17.011 16.297C16.971 16.649 17.0357 17.0049 17.197 17.3203C17.3584 17.6356 17.6091 17.8964 17.918 18.0698C18.2268 18.2433 18.58 18.3218 18.9332 18.2955C18.0957 19.1529 17.0951 19.834 15.9902 20.2985C14.8853 20.763 13.6986 21.0015 12.5 21C7.5293 21 3.5 16.9707 3.5 12C3.5 7.0293 7.5293 3 12.5 3ZM12.5 14.7C11.258 14.7 10.133 15.204 9.3194 16.0167L9.17 16.1733L10.0205 16.9473C10.7315 16.6638 11.5838 16.5 12.5 16.5C13.3145 16.5 14.0786 16.6296 14.7374 16.8564L14.9795 16.9464L15.83 16.1724C15.4086 15.708 14.8946 15.337 14.321 15.0834C13.7475 14.8298 13.1271 14.6992 12.5 14.7ZM9.35 10.2C8.99196 10.2 8.64858 10.3422 8.39541 10.5954C8.14223 10.8486 8 11.192 8 11.55C8 11.908 8.14223 12.2514 8.39541 12.5046C8.64858 12.7578 8.99196 12.9 9.35 12.9C9.70804 12.9 10.0514 12.7578 10.3046 12.5046C10.5578 12.2514 10.7 11.908 10.7 11.55C10.7 11.192 10.5578 10.8486 10.3046 10.5954C10.0514 10.3422 9.70804 10.2 9.35 10.2ZM15.65 10.2C15.292 10.2 14.9486 10.3422 14.6954 10.5954C14.4422 10.8486 14.3 11.192 14.3 11.55C14.3 11.908 14.4422 12.2514 14.6954 12.5046C14.9486 12.7578 15.292 12.9 15.65 12.9C16.008 12.9 16.3514 12.7578 16.6046 12.5046C16.8578 12.2514 17 11.908 17 11.55C17 11.192 16.8578 10.8486 16.6046 10.5954C16.3514 10.3422 16.008 10.2 15.65 10.2Z" fill="#0A0D14" style="fill:#0A0D14;fill:color(display-p3 0.0392 0.0510 0.0784);fill-opacity:1;"/>
</svg>
