<svg width="25" height="24" viewBox="0 0 25 24" fill="none" xmlns="http://www.w3.org/2000/svg">
<path d="M18.2276 11.0816C19.6334 12.4865 19.6334 14.7662 18.2276 16.172L13.1363 21.2633C12.7853 21.6143 12.2147 21.6143 11.8637 21.2633L6.7724 16.172C5.3666 14.7662 5.3666 12.4865 6.7724 11.0807C8.1782 9.67491 10.4579 9.67491 11.8637 11.0807L12.4991 11.717L13.1363 11.0807C14.5421 9.67491 16.8218 9.67491 18.2276 11.0807V11.0816ZM8.045 12.3524C7.343 13.0553 7.343 14.1956 8.045 14.8985L12.5 19.3535L16.955 14.8985C17.657 14.1956 17.657 13.0553 16.955 12.3524C16.2521 11.6504 15.1118 11.6504 14.408 12.3542L12.4982 14.2604L10.5902 12.3524C9.8882 11.6504 8.7479 11.6504 8.045 12.3524ZM12.5 2.09961C14.489 2.09961 16.1 3.71061 16.1 5.69961C16.1 7.68861 14.489 9.29961 12.5 9.29961C10.511 9.29961 8.9 7.68861 8.9 5.69961C8.9 3.71061 10.511 2.09961 12.5 2.09961ZM12.5 3.89961C11.5055 3.89961 10.7 4.70511 10.7 5.69961C10.7 6.69411 11.5055 7.49961 12.5 7.49961C13.4945 7.49961 14.3 6.69411 14.3 5.69961C14.3 4.70511 13.4945 3.89961 12.5 3.89961Z" fill="#0A0D14" style="fill:#0A0D14;fill:color(display-p3 0.0392 0.0510 0.0784);fill-opacity:1;"/>
</svg>
