<svg width="25" height="24" viewBox="0 0 25 24" fill="none" xmlns="http://www.w3.org/2000/svg">
<path d="M12.5 18.3004C12.858 18.3004 13.2014 18.4426 13.4545 18.6958C13.7077 18.949 13.85 19.2923 13.85 19.6504C13.85 20.0084 13.7077 20.3518 13.4545 20.605C13.2014 20.8582 12.858 21.0004 12.5 21.0004C12.1419 21.0004 11.7985 20.8582 11.5454 20.605C11.2922 20.3518 11.15 20.0084 11.15 19.6504C11.15 19.2923 11.2922 18.949 11.5454 18.6958C11.7985 18.4426 12.1419 18.3004 12.5 18.3004ZM7.54995 18.3004C7.90799 18.3004 8.25137 18.4426 8.50455 18.6958C8.75772 18.949 8.89995 19.2923 8.89995 19.6504C8.89995 20.0084 8.75772 20.3518 8.50455 20.605C8.25137 20.8582 7.90799 21.0004 7.54995 21.0004C7.19191 21.0004 6.84853 20.8582 6.59536 20.605C6.34218 20.3518 6.19995 20.0084 6.19995 19.6504C6.19995 19.2923 6.34218 18.949 6.59536 18.6958C6.84853 18.4426 7.19191 18.3004 7.54995 18.3004ZM17.45 18.3004C17.808 18.3004 18.1514 18.4426 18.4045 18.6958C18.6577 18.949 18.8 19.2923 18.8 19.6504C18.8 20.0084 18.6577 20.3518 18.4045 20.605C18.1514 20.8582 17.808 21.0004 17.45 21.0004C17.0919 21.0004 16.7485 20.8582 16.4954 20.605C16.2422 20.3518 16.1 20.0084 16.1 19.6504C16.1 19.2923 16.2422 18.949 16.4954 18.6958C16.7485 18.4426 17.0919 18.3004 17.45 18.3004ZM17.9 3.90039V5.70039H8.89995V9.30039H17V11.1004H8.89995V14.7004H17.9V16.5004H7.09995V3.90039H17.9Z" fill="#0A0D14" style="fill:#0A0D14;fill:color(display-p3 0.0392 0.0510 0.0784);fill-opacity:1;"/>
</svg>
