<svg width="25" height="24" viewBox="0 0 25 24" fill="none" xmlns="http://www.w3.org/2000/svg">
<path d="M12.5 18.3C12.858 18.3 13.2014 18.4422 13.4545 18.6954C13.7077 18.9486 13.85 19.292 13.85 19.65C13.85 20.008 13.7077 20.3514 13.4545 20.6046C13.2014 20.8578 12.858 21 12.5 21C12.1419 21 11.7985 20.8578 11.5454 20.6046C11.2922 20.3514 11.15 20.008 11.15 19.65C11.15 19.292 11.2922 18.9486 11.5454 18.6954C11.7985 18.4422 12.1419 18.3 12.5 18.3ZM7.54995 18.3C7.90799 18.3 8.25137 18.4422 8.50455 18.6954C8.75772 18.9486 8.89995 19.292 8.89995 19.65C8.89995 20.008 8.75772 20.3514 8.50455 20.6046C8.25137 20.8578 7.90799 21 7.54995 21C7.19191 21 6.84853 20.8578 6.59536 20.6046C6.34218 20.3514 6.19995 20.008 6.19995 19.65C6.19995 19.292 6.34218 18.9486 6.59536 18.6954C6.84853 18.4422 7.19191 18.3 7.54995 18.3ZM17.45 18.3C17.808 18.3 18.1514 18.4422 18.4045 18.6954C18.6577 18.9486 18.8 19.292 18.8 19.65C18.8 20.008 18.6577 20.3514 18.4045 20.6046C18.1514 20.8578 17.808 21 17.45 21C17.0919 21 16.7485 20.8578 16.4954 20.6046C16.2422 20.3514 16.1 20.008 16.1 19.65C16.1 19.292 16.2422 18.9486 16.4954 18.6954C16.7485 18.4422 17.0919 18.3 17.45 18.3ZM13.4 3V4.8H18.8V6.6H17.0288C16.3344 8.69026 15.226 10.6192 13.7699 12.2718C15.1574 13.5117 16.7911 14.4447 18.5642 15.0096L18.0818 16.7466C16.0124 16.0978 14.1081 15.0084 12.5 13.5534C10.8915 15.0078 8.9873 16.0968 6.91815 16.7457L6.43575 15.0096C8.2086 14.4443 9.84227 13.5114 11.2301 12.2718C10.2033 11.1094 9.34807 9.80626 8.69025 8.4018H10.7063C11.208 9.32684 11.8095 10.1942 12.5 10.9884C13.625 9.69156 14.5117 8.20585 15.119 6.6H6.19995V4.8H11.6V3H13.4Z" fill="#0A0D14" style="fill:#0A0D14;fill:color(display-p3 0.0392 0.0510 0.0784);fill-opacity:1;"/>
</svg>
