<svg width="25" height="24" viewBox="0 0 25 24" fill="none" xmlns="http://www.w3.org/2000/svg">
<path d="M14.3 10.2008H16.1V10.8821C16.7099 10.4746 17.419 10.2404 18.1516 10.2044C18.8843 10.1685 19.6129 10.3322 20.2597 10.6781C20.9066 11.024 21.4473 11.539 21.8243 12.1682C22.2012 12.7975 22.4002 13.5173 22.4 14.2508V19.2008H20.6V14.2508C20.6 12.9638 19.5425 12.0008 18.35 12.0008C17.1575 12.0008 16.1 12.9638 16.1 14.2508V19.2008H14.3V10.2008ZM12.5 4.80078V6.60078H5.3V11.1008H12.5V12.9008H5.3V17.4008H12.5V19.2008H3.5V4.80078H12.5Z" fill="#0A0D14" style="fill:#0A0D14;fill:color(display-p3 0.0392 0.0510 0.0784);fill-opacity:1;"/>
</svg>
