<svg width="25" height="24" viewBox="0 0 25 24" fill="none" xmlns="http://www.w3.org/2000/svg">
<path d="M7.253 17.3983C7.43894 16.8713 7.78377 16.415 8.23994 16.0922C8.69611 15.7694 9.24118 15.5961 9.8 15.5961C10.3588 15.5961 10.9039 15.7694 11.3601 16.0922C11.8162 16.415 12.1611 16.8713 12.347 17.3983H21.5V19.1983H12.347C12.1611 19.7253 11.8162 20.1816 11.3601 20.5044C10.9039 20.8272 10.3588 21.0005 9.8 21.0005C9.24118 21.0005 8.69611 20.8272 8.23994 20.5044C7.78377 20.1816 7.43894 19.7253 7.253 19.1983H3.5V17.3983H7.253ZM12.653 11.0983C12.8389 10.5713 13.1838 10.115 13.6399 9.79221C14.0961 9.46943 14.6412 9.29609 15.2 9.29609C15.7588 9.29609 16.3039 9.46943 16.7601 9.79221C17.2162 10.115 17.5611 10.5713 17.747 11.0983H21.5V12.8983H17.747C17.5611 13.4253 17.2162 13.8816 16.7601 14.2044C16.3039 14.5272 15.7588 14.7005 15.2 14.7005C14.6412 14.7005 14.0961 14.5272 13.6399 14.2044C13.1838 13.8816 12.8389 13.4253 12.653 12.8983H3.5V11.0983H12.653ZM7.253 4.7983C7.43894 4.27132 7.78377 3.81499 8.23994 3.49221C8.69611 3.16943 9.24118 2.99609 9.8 2.99609C10.3588 2.99609 10.9039 3.16943 11.3601 3.49221C11.8162 3.81499 12.1611 4.27132 12.347 4.7983H21.5V6.5983H12.347C12.1611 7.12528 11.8162 7.58161 11.3601 7.90439C10.9039 8.22717 10.3588 8.40051 9.8 8.40051C9.24118 8.40051 8.69611 8.22717 8.23994 7.90439C7.78377 7.58161 7.43894 7.12528 7.253 6.5983H3.5V4.7983H7.253Z" fill="#0A0D14" style="fill:#0A0D14;fill:color(display-p3 0.0392 0.0510 0.0784);fill-opacity:1;"/>
</svg>
