<svg width="25" height="24" viewBox="0 0 25 24" fill="none" xmlns="http://www.w3.org/2000/svg">
<path d="M7.253 17.3983C7.43894 16.8713 7.78377 16.415 8.23994 16.0922C8.69611 15.7694 9.24118 15.5961 9.8 15.5961C10.3588 15.5961 10.9039 15.7694 11.3601 16.0922C11.8162 16.415 12.1611 16.8713 12.347 17.3983H21.5V19.1983H12.347C12.1611 19.7253 11.8162 20.1816 11.3601 20.5044C10.9039 20.8272 10.3588 21.0005 9.8 21.0005C9.24118 21.0005 8.69611 20.8272 8.23994 20.5044C7.78377 20.1816 7.43894 19.7253 7.253 19.1983H3.5V17.3983H7.253ZM12.653 11.0983C12.8389 10.5713 13.1838 10.115 13.6399 9.79221C14.0961 9.46943 14.6412 9.29609 15.2 9.29609C15.7588 9.29609 16.3039 9.46943 16.7601 9.79221C17.2162 10.115 17.5611 10.5713 17.747 11.0983H21.5V12.8983H17.747C17.5611 13.4253 17.2162 13.8816 16.7601 14.2044C16.3039 14.5272 15.7588 14.7005 15.2 14.7005C14.6412 14.7005 14.0961 14.5272 13.6399 14.2044C13.1838 13.8816 12.8389 13.4253 12.653 12.8983H3.5V11.0983H12.653ZM7.253 4.7983C7.43894 4.27132 7.78377 3.81499 8.23994 3.49221C8.69611 3.16943 9.24118 2.99609 9.8 2.99609C10.3588 2.99609 10.9039 3.16943 11.3601 3.49221C11.8162 3.81499 12.1611 4.27132 12.347 4.7983H21.5V6.5983H12.347C12.1611 7.12528 11.8162 7.58161 11.3601 7.90439C10.9039 8.22717 10.3588 8.40051 9.8 8.40051C9.24118 8.40051 8.69611 8.22717 8.23994 7.90439C7.78377 7.58161 7.43894 7.12528 7.253 6.5983H3.5V4.7983H7.253ZM9.8 6.5983C10.0387 6.5983 10.2676 6.50348 10.4364 6.3347C10.6052 6.16591 10.7 5.93699 10.7 5.6983C10.7 5.4596 10.6052 5.23069 10.4364 5.0619C10.2676 4.89312 10.0387 4.7983 9.8 4.7983C9.56131 4.7983 9.33239 4.89312 9.1636 5.0619C8.99482 5.23069 8.9 5.4596 8.9 5.6983C8.9 5.93699 8.99482 6.16591 9.1636 6.3347C9.33239 6.50348 9.56131 6.5983 9.8 6.5983ZM15.2 12.8983C15.4387 12.8983 15.6676 12.8035 15.8364 12.6347C16.0052 12.4659 16.1 12.237 16.1 11.9983C16.1 11.7596 16.0052 11.5307 15.8364 11.3619C15.6676 11.1931 15.4387 11.0983 15.2 11.0983C14.9613 11.0983 14.7324 11.1931 14.5636 11.3619C14.3948 11.5307 14.3 11.7596 14.3 11.9983C14.3 12.237 14.3948 12.4659 14.5636 12.6347C14.7324 12.8035 14.9613 12.8983 15.2 12.8983ZM9.8 19.1983C10.0387 19.1983 10.2676 19.1035 10.4364 18.9347C10.6052 18.7659 10.7 18.537 10.7 18.2983C10.7 18.0596 10.6052 17.8307 10.4364 17.6619C10.2676 17.4931 10.0387 17.3983 9.8 17.3983C9.56131 17.3983 9.33239 17.4931 9.1636 17.6619C8.99482 17.8307 8.9 18.0596 8.9 18.2983C8.9 18.537 8.99482 18.7659 9.1636 18.9347C9.33239 19.1035 9.56131 19.1983 9.8 19.1983Z" fill="#0A0D14" style="fill:#0A0D14;fill:color(display-p3 0.0392 0.0510 0.0784);fill-opacity:1;"/>
</svg>
