<svg width="25" height="24" viewBox="0 0 25 24" fill="none" xmlns="http://www.w3.org/2000/svg">
<path d="M9.42746 9.17222L4.97246 13.6272L9.64706 18.3018H10.7001V18.3H11.7549L15.1551 14.8998L9.42746 9.17222ZM10.7001 7.89962L16.4277 13.6272L18.9729 11.0811L13.2453 5.35352L10.7001 7.89962ZM14.3001 18.3H20.6001V20.1H12.5001L8.90186 20.1018L3.06356 14.2635C2.89483 14.0947 2.80005 13.8659 2.80005 13.6272C2.80005 13.3886 2.89483 13.1597 3.06356 12.9909L12.6081 3.44462C12.6916 3.36094 12.7909 3.29456 12.9002 3.24927C13.0094 3.20398 13.1265 3.18066 13.2448 3.18066C13.3631 3.18066 13.4802 3.20398 13.5895 3.24927C13.6987 3.29456 13.798 3.36094 13.8816 3.44462L20.8818 10.4448C21.0505 10.6136 21.1453 10.8425 21.1453 11.0811C21.1453 11.3198 21.0505 11.5486 20.8818 11.7174L14.3001 18.3Z" fill="#0A0D14" style="fill:#0A0D14;fill:color(display-p3 0.0392 0.0510 0.0784);fill-opacity:1;"/>
</svg>
