<svg width="25" height="24" viewBox="0 0 25 24" fill="none" xmlns="http://www.w3.org/2000/svg">
<path d="M9.46698 8.17782C9.27258 8.35872 8.97558 8.37312 8.79828 8.37312H6.89928C6.35028 8.37312 6.02268 8.37312 5.80128 8.40282C5.68068 8.41812 5.53308 8.47842 5.45838 8.50812C5.42868 8.52252 5.42868 8.50812 5.44308 8.49372L9.77748 4.04772C9.79278 4.03242 9.80718 4.03242 9.79278 4.06302C9.74485 4.17322 9.70982 4.28858 9.68838 4.40682C9.65868 4.63092 9.65868 4.96032 9.65868 5.51382V7.50462C9.65868 7.68462 9.64338 7.98432 9.46608 8.17782H9.46698ZM13.6808 20.9434C13.1768 20.614 12.9095 20.1802 12.8051 19.9111C12.6984 19.6496 12.6431 19.37 12.6422 19.0876C12.6429 18.4892 12.8807 17.9154 13.3037 17.492C13.7266 17.0686 14.3 16.83 14.8985 16.8286C15.2693 16.8286 15.5663 17.1274 15.5663 17.5018C15.567 17.6208 15.5356 17.7378 15.4754 17.8404C15.4152 17.943 15.3285 18.0276 15.2243 18.085C15.1455 18.1281 15.0605 18.1585 14.9723 18.175C14.8985 18.1903 14.6159 18.22 14.4836 18.3397C14.4034 18.4023 14.3379 18.4815 14.2916 18.572C14.2453 18.6625 14.2193 18.762 14.2154 18.8635C14.2144 19.0819 14.2998 19.2919 14.453 19.4476C14.7203 19.7167 15.0767 19.8661 15.4628 19.8661C15.7035 19.8652 15.9417 19.8168 16.1637 19.7238C16.3857 19.6308 16.5872 19.4949 16.7567 19.324C16.9262 19.1531 17.0604 18.9505 17.1515 18.7277C17.2427 18.5049 17.289 18.2663 17.288 18.0256C17.288 17.113 16.6796 16.3039 15.8777 15.9457C15.7589 15.8854 15.5663 15.8404 15.3881 15.7954C15.2406 15.765 15.092 15.7401 14.9426 15.7207C14.3189 15.6451 12.761 15.1519 12.6566 13.7605C12.6566 13.7605 12.1976 15.8557 11.276 16.4245C11.1878 16.4695 11.069 16.5145 10.9349 16.5442C10.8017 16.5739 10.6541 16.5892 10.6082 16.5892C9.10968 16.6792 7.52118 16.1995 6.42318 15.0628C6.42318 15.0628 5.68068 14.449 5.29548 12.7282C5.20638 12.3088 5.02818 11.56 4.92468 10.8562C4.87968 10.6033 4.86438 10.408 4.84998 10.228C4.84998 9.49542 5.29548 9.00132 5.85888 8.92752H8.88738C9.40578 8.92752 9.70368 8.79252 9.89628 8.61252C10.1483 8.37312 10.2086 8.02842 10.2086 7.62432V4.46712C10.2806 3.91362 10.7729 3.44922 11.4992 3.44922H11.8556C12.0041 3.44922 12.1823 3.46452 12.3452 3.47892C12.464 3.49422 12.5675 3.52392 12.7457 3.56892C13.6511 3.79392 13.8437 4.72092 13.8437 4.72092L16.4123 5.17092C17.2286 5.32032 19.2473 5.45532 19.6325 7.50552C20.5379 12.3835 19.9889 17.113 19.9448 17.113C19.3058 21.7219 15.5069 21.4969 15.5069 21.4969C14.855 21.5101 14.2156 21.3164 13.6808 20.9434ZM16.0406 11.6653C16.0109 11.7409 15.9812 11.83 15.9956 11.875C16.0118 11.92 16.0415 11.9344 16.0712 11.9497C16.2494 12.0397 16.5455 12.0847 16.9766 12.1297C17.4068 12.1747 17.7038 12.2044 17.8964 12.1747C17.9261 12.1747 17.9567 12.1594 17.9864 12.1144C18.0161 12.0694 18.0008 11.9794 18.0008 11.9047C17.9558 11.5006 17.585 11.2018 17.0954 11.1415C16.6049 11.0965 16.19 11.2918 16.0406 11.6653Z" fill="#0A0D14" style="fill:#0A0D14;fill:color(display-p3 0.0392 0.0510 0.0784);fill-opacity:1;"/>
</svg>
