<svg width="25" height="24" viewBox="0 0 25 24" fill="none" xmlns="http://www.w3.org/2000/svg">
<path d="M11.15 8.84922C11.15 9.08791 11.0552 9.31683 10.8864 9.48561C10.7176 9.6544 10.4887 9.74922 10.25 9.74922H7.10088C6.79848 9.74922 6.64998 9.98412 6.64998 10.228C6.64998 11.416 6.87858 12.3628 7.24758 13.1017C7.44198 13.4914 7.60668 13.7047 7.71828 13.8127C8.37978 14.4967 9.41568 14.8567 10.5011 14.7928C10.5866 14.7874 10.6802 14.7352 10.7999 14.6056C10.8744 14.5258 10.9391 14.4372 10.9925 14.3419C11.1768 13.9203 11.5156 13.5853 11.9392 13.4057C12.3629 13.2261 12.8392 13.2155 13.2704 13.3762C13.8941 13.6084 14.4197 13.7668 14.9021 13.8802C15.0785 13.9216 15.2396 13.9549 15.4295 13.99C15.3602 13.9774 15.7913 14.0566 15.8957 14.0782C16.2017 14.1412 16.4339 14.2096 16.6904 14.3392C17.3175 14.6535 17.8641 15.1077 18.2879 15.6667C18.3284 15.1348 18.3572 14.5255 18.3662 13.8433C18.3954 11.8298 18.2269 9.81823 17.8631 7.83762C17.7965 7.47942 17.6507 7.33182 17.2664 7.19142C17.0942 7.13107 16.9176 7.08443 16.7381 7.05192C16.6058 7.02672 16.1531 6.95292 16.1144 6.94572C15.4123 6.82367 14.7103 6.70097 14.0084 6.57762L13.5332 6.49482C13.2259 6.44088 12.9379 6.30799 12.6974 6.10919C12.457 5.91039 12.2723 5.6525 12.1616 5.36082C12.1515 5.33438 12.1413 5.30798 12.131 5.28162C11.9213 5.25759 11.7102 5.24677 11.4992 5.24922C11.2553 5.24922 11.15 5.36082 11.15 5.66592V8.84922ZM16.757 19.3243C17.0738 19.0039 17.261 18.5782 17.2853 18.13C17.3339 17.1976 16.5437 15.898 15.2 15.7594C14.6447 15.7027 13.7726 15.484 12.6422 15.0628C12.6422 15.0628 12.0122 16.5055 10.6082 16.5892C9.10968 16.6792 7.52118 16.1995 6.42318 15.0628C6.42318 15.0628 4.84998 13.5868 4.84998 10.228C4.84998 9.49542 5.11098 8.94822 5.43318 8.51442C6.29718 7.35162 7.68768 6.01242 9.15288 4.64082C9.79998 4.03422 10.4309 3.44922 11.4992 3.44922C13.3352 3.44922 13.5872 4.04682 13.8437 4.72182L16.4123 5.17092C17.2286 5.32032 19.2473 5.45532 19.6325 7.50552C20.5379 12.3835 20.0447 16.3885 19.9448 17.113C19.3058 21.7219 15.65 21.4969 15.5069 21.4969C13.6538 21.4969 12.6467 20.2612 12.6422 19.0876C12.6409 18.7301 12.725 18.3775 12.8875 18.0591C13.0499 17.7407 13.2861 17.4657 13.5764 17.257C13.9775 16.9719 14.4586 16.8213 14.9507 16.8268C15.2252 16.8268 15.569 17.113 15.569 17.5045C15.569 17.8375 15.3395 18.022 15.2252 18.085C15.0245 18.1966 14.2154 18.2416 14.2154 18.8635C14.2154 19.1488 14.5304 19.8661 15.4628 19.8661C15.992 19.8661 16.4474 19.6357 16.7561 19.3243H16.757ZM15.1406 10.7653C15.29 10.3918 15.7049 10.1965 16.1954 10.2415C16.685 10.3018 17.0558 10.6015 17.1008 11.0047C17.1008 11.0794 17.1161 11.1694 17.0855 11.2144C17.0567 11.2594 17.0261 11.2747 16.9955 11.2747C16.8038 11.3044 16.5068 11.2747 16.0766 11.2297C15.6446 11.1847 15.3494 11.1397 15.1712 11.0497C15.1415 11.0344 15.1118 11.02 15.0965 10.975C15.0812 10.93 15.1109 10.84 15.1415 10.7653H15.1406Z" fill="#0A0D14" style="fill:#0A0D14;fill:color(display-p3 0.0392 0.0510 0.0784);fill-opacity:1;"/>
</svg>
