<svg width="25" height="24" viewBox="0 0 25 24" fill="none" xmlns="http://www.w3.org/2000/svg">
<path d="M19.1376 14.7921C19.7215 13.4045 19.856 11.8689 19.5219 10.401C19.1879 8.9331 18.4022 7.60681 17.2754 6.60858C16.1485 5.61035 14.7372 4.99039 13.2397 4.83586C11.7423 4.68132 10.234 4.99999 8.92706 5.74705L8.03426 4.18375C9.40013 3.40311 10.9468 2.99428 12.52 2.99807C14.0933 3.00186 15.638 3.41813 17.0001 4.20535C21.0411 6.53815 22.5891 11.5332 20.7054 15.6984L21.9132 16.395L18.1647 18.3876L18.0162 14.145L19.1376 14.7921ZM5.86256 9.20665C5.27859 10.5942 5.14416 12.1298 5.47818 13.5977C5.81221 15.0656 6.59787 16.3919 7.72473 17.3901C8.85158 18.3884 10.2629 19.0083 11.7604 19.1628C13.2579 19.3174 14.7661 18.9987 16.0731 18.2517L16.9659 19.815C15.6 20.5956 14.0533 21.0044 12.4801 21.0006C10.9069 20.9968 9.36215 20.5806 8.00006 19.7934C3.95906 17.4606 2.41106 12.4656 4.29476 8.30035L3.08606 7.60465L6.83456 5.61205L6.98306 9.85465L5.86166 9.20755L5.86256 9.20665ZM9.35006 13.7994H14.3001C14.4194 13.7994 14.5339 13.7519 14.6183 13.6676C14.7026 13.5832 14.7501 13.4687 14.7501 13.3494C14.7501 13.23 14.7026 13.1155 14.6183 13.0312C14.5339 12.9468 14.4194 12.8994 14.3001 12.8994H10.7001C10.1033 12.8994 9.53103 12.6623 9.10907 12.2403C8.68711 11.8184 8.45006 11.2461 8.45006 10.6494C8.45006 10.0526 8.68711 9.48032 9.10907 9.05836C9.53103 8.63641 10.1033 8.39935 10.7001 8.39935H11.6001V7.49935H13.4001V8.39935H15.6501V10.1994H10.7001C10.5807 10.1994 10.4663 10.2468 10.3819 10.3312C10.2975 10.4155 10.2501 10.53 10.2501 10.6494C10.2501 10.7687 10.2975 10.8832 10.3819 10.9676C10.4663 11.0519 10.5807 11.0994 10.7001 11.0994H14.3001C14.8968 11.0994 15.4691 11.3364 15.891 11.7584C16.313 12.1803 16.5501 12.7526 16.5501 13.3494C16.5501 13.9461 16.313 14.5184 15.891 14.9403C15.4691 15.3623 14.8968 15.5994 14.3001 15.5994H13.4001V16.4994H11.6001V15.5994H9.35006V13.7994Z" fill="#0A0D14" style="fill:#0A0D14;fill:color(display-p3 0.0392 0.0510 0.0784);fill-opacity:1;"/>
</svg>
