<svg width="25" height="24" viewBox="0 0 25 24" fill="none" xmlns="http://www.w3.org/2000/svg">
<path d="M19.1376 14.7921C19.7215 13.4045 19.856 11.8689 19.5219 10.401C19.1879 8.9331 18.4022 7.60681 17.2754 6.60858C16.1485 5.61035 14.7372 4.99039 13.2397 4.83586C11.7423 4.68132 10.234 4.99999 8.92706 5.74705L8.03426 4.18375C9.40013 3.40311 10.9468 2.99428 12.52 2.99807C14.0933 3.00186 15.638 3.41813 17.0001 4.20535C21.0411 6.53815 22.5891 11.5332 20.7054 15.6984L21.9132 16.395L18.1647 18.3876L18.0162 14.145L19.1376 14.7921ZM5.86256 9.20665C5.27859 10.5942 5.14416 12.1298 5.47818 13.5977C5.81221 15.0656 6.59787 16.3919 7.72473 17.3901C8.85158 18.3884 10.2629 19.0083 11.7604 19.1628C13.2579 19.3174 14.7661 18.9987 16.0731 18.2517L16.9659 19.815C15.6 20.5956 14.0533 21.0044 12.4801 21.0006C10.9069 20.9968 9.36215 20.5806 8.00006 19.7934C3.95906 17.4606 2.41106 12.4656 4.29476 8.30035L3.08606 7.60465L6.83456 5.61205L6.98306 9.85465L5.86166 9.20755L5.86256 9.20665ZM13.4001 13.3818H16.1001V15.1818H13.4001V16.9818H11.6001V15.1818H8.90006V13.3818H11.6001V12.4818H8.90006V10.6818H11.2275L9.31766 8.77195L10.5921 7.49935L12.5001 9.40825L14.409 7.49935L15.6825 8.77195L13.7727 10.6818H16.1001V12.4818H13.4001V13.3818Z" fill="#0A0D14" style="fill:#0A0D14;fill:color(display-p3 0.0392 0.0510 0.0784);fill-opacity:1;"/>
</svg>
