<svg width="25" height="24" viewBox="0 0 25 24" fill="none" xmlns="http://www.w3.org/2000/svg">
<path d="M6.5357 5.25901C8.17973 3.80045 10.3022 2.99655 12.5 3.00001C17.4707 3.00001 21.5 7.02931 21.5 12C21.5029 13.8395 20.9395 15.6353 19.8863 17.1435L17.45 12H19.7C19.7 10.5684 19.2733 9.16934 18.4743 7.98147C17.6753 6.79359 16.5404 5.87086 15.2144 5.33115C13.8885 4.79144 12.4317 4.65925 11.0303 4.95148C9.62887 5.2437 8.34635 5.94706 7.3466 6.97171L6.5366 5.25991L6.5357 5.25901ZM18.4643 18.741C16.8203 20.1996 14.6978 21.0035 12.5 21C7.5293 21 3.5 16.9707 3.5 12C3.5 10.0875 4.0967 8.31451 5.1137 6.85651L7.55 12H5.3C5.29997 13.4316 5.72671 14.8307 6.52569 16.0186C7.32467 17.2064 8.45963 18.1292 9.78558 18.6689C11.1115 19.2086 12.5683 19.3408 13.9697 19.0485C15.3711 18.7563 16.6536 18.053 17.6534 17.0283L18.4634 18.7401L18.4643 18.741ZM13.7726 14.5452L11.2274 12L8.6813 14.5452L7.4087 13.2726L11.2274 9.45481L13.7726 12L16.3187 9.45481L17.5913 10.7274L13.7726 14.5452Z" fill="#0A0D14" style="fill:#0A0D14;fill:color(display-p3 0.0392 0.0510 0.0784);fill-opacity:1;"/>
</svg>
