<svg width="25" height="24" viewBox="0 0 25 24" fill="none" xmlns="http://www.w3.org/2000/svg">
<path d="M10.7 6.59844V8.39844H6.19999V18.2984H16.1V13.7984H17.9V19.1984C17.9 19.4371 17.8052 19.6661 17.6364 19.8348C17.4676 20.0036 17.2387 20.0984 17 20.0984H5.29999C5.0613 20.0984 4.83238 20.0036 4.6636 19.8348C4.49482 19.6661 4.39999 19.4371 4.39999 19.1984V7.49844C4.39999 7.25974 4.49482 7.03082 4.6636 6.86204C4.83238 6.69326 5.0613 6.59844 5.29999 6.59844H10.7ZM20.6 3.89844V11.0984H18.8V6.97014L11.7863 13.9847L10.5137 12.7121L17.5265 5.69844H13.4V3.89844H20.6Z" fill="#0A0D14" style="fill:#0A0D14;fill:color(display-p3 0.0392 0.0510 0.0784);fill-opacity:1;"/>
</svg>
