<svg width="25" height="24" viewBox="0 0 25 24" fill="none" xmlns="http://www.w3.org/2000/svg">
<path d="M2.76288 11.9984C3.60888 7.39044 7.64718 3.89844 12.5 3.89844C17.3528 3.89844 21.3902 7.39044 22.2371 11.9984C21.3911 16.6064 17.3528 20.0984 12.5 20.0984C7.64718 20.0984 3.60978 16.6064 2.76288 11.9984ZM12.5 16.4984C13.6935 16.4984 14.838 16.0243 15.682 15.1804C16.5259 14.3365 17 13.1919 17 11.9984C17 10.805 16.5259 9.66037 15.682 8.81646C14.838 7.97254 13.6935 7.49844 12.5 7.49844C11.3065 7.49844 10.1619 7.97254 9.318 8.81646C8.47408 9.66037 7.99998 10.805 7.99998 11.9984C7.99998 13.1919 8.47408 14.3365 9.318 15.1804C10.1619 16.0243 11.3065 16.4984 12.5 16.4984ZM12.5 14.6984C11.7839 14.6984 11.0971 14.414 10.5908 13.9076C10.0844 13.4013 9.79998 12.7145 9.79998 11.9984C9.79998 11.2824 10.0844 10.5956 10.5908 10.0892C11.0971 9.5829 11.7839 9.29844 12.5 9.29844C13.2161 9.29844 13.9028 9.5829 14.4092 10.0892C14.9155 10.5956 15.2 11.2824 15.2 11.9984C15.2 12.7145 14.9155 13.4013 14.4092 13.9076C13.9028 14.414 13.2161 14.6984 12.5 14.6984Z" fill="#0A0D14" style="fill:#0A0D14;fill:color(display-p3 0.0392 0.0510 0.0784);fill-opacity:1;"/>
</svg>
