<svg width="25" height="24" viewBox="0 0 25 24" fill="none" xmlns="http://www.w3.org/2000/svg">
<path d="M10.1078 18.1032L8.36992 17.637L9.07822 14.9919C8.01799 14.6009 7.03263 14.0311 6.16492 13.3071L4.22722 15.2457L2.95372 13.9722L4.89232 12.0345C3.79799 10.7239 3.0627 9.15162 2.75842 7.47154L4.52962 7.14844C5.21272 10.9302 8.52112 13.7994 12.5 13.7994C16.478 13.7994 19.7873 10.9302 20.4704 7.14844L22.2416 7.47064C21.9378 9.15095 21.2028 10.7236 20.1086 12.0345L22.0463 13.9722L20.7728 15.2457L18.8351 13.3071C17.9674 14.0311 16.9821 14.6009 15.9218 14.9919L16.6301 17.6379L14.8922 18.1032L14.183 15.4572C13.0691 15.6481 11.9309 15.6481 10.817 15.4572L10.1078 18.1032Z" fill="#0A0D14" style="fill:#0A0D14;fill:color(display-p3 0.0392 0.0510 0.0784);fill-opacity:1;"/>
</svg>
