<svg width="25" height="24" viewBox="0 0 25 24" fill="none" xmlns="http://www.w3.org/2000/svg">
<path d="M5.76798 6.54002L2.95368 3.72663L4.22718 2.45312L22.0463 20.2731L20.7728 21.5457L17.7938 18.5667C16.2109 19.5707 14.3744 20.1024 12.5 20.0994C7.64718 20.0994 3.60978 16.6074 2.76288 11.9994C3.14991 9.90307 4.20434 7.98803 5.76888 6.54002H5.76798ZM14.9813 15.7542L13.6637 14.4366C13.1597 14.6777 12.5934 14.7566 12.0427 14.6623C11.4921 14.5681 10.9842 14.3053 10.5892 13.9102C10.1941 13.5152 9.93135 13.0073 9.83707 12.4567C9.7428 11.906 9.82165 11.3397 10.0628 10.8357L8.74518 9.51812C8.17252 10.3835 7.91652 11.4201 8.02053 12.4526C8.12453 13.485 8.58214 14.4498 9.31589 15.1835C10.0496 15.9173 11.0144 16.3749 12.0468 16.4789C13.0793 16.5829 14.1159 16.3269 14.9813 15.7542ZM8.87658 4.58343C9.99888 4.14243 11.222 3.89942 12.5 3.89942C17.3528 3.89942 21.3902 7.39143 22.2371 11.9994C21.9613 13.4986 21.3415 14.9132 20.4263 16.1322L16.9523 12.6582C17.0555 11.9631 16.9944 11.2534 16.774 10.5861C16.5536 9.91881 16.18 9.3124 15.683 8.81547C15.1861 8.31854 14.5797 7.9449 13.9124 7.72449C13.2451 7.50408 12.5354 7.44303 11.8403 7.54622L8.87658 4.58433V4.58343Z" fill="#0A0D14" style="fill:#0A0D14;fill:color(display-p3 0.0392 0.0510 0.0784);fill-opacity:1;"/>
</svg>
