<svg width="25" height="24" viewBox="0 0 25 24" fill="none" xmlns="http://www.w3.org/2000/svg">
<path d="M12.5 3.89844C17.3528 3.89844 21.3902 7.39044 22.2371 11.9984C21.3911 16.6064 17.3528 20.0984 12.5 20.0984C7.64718 20.0984 3.60978 16.6064 2.76288 11.9984C3.60888 7.39044 7.64718 3.89844 12.5 3.89844ZM12.5 18.2984C14.3355 18.298 16.1165 17.6746 17.5515 16.5301C18.9866 15.3856 19.9906 13.7879 20.3993 11.9984C19.9891 10.2104 18.9844 8.61444 17.5495 7.47146C16.1147 6.32848 14.3345 5.70611 12.5 5.70611C10.6655 5.70611 8.8853 6.32848 7.45042 7.47146C6.01553 8.61444 5.01087 10.2104 4.60068 11.9984C5.00937 13.7879 6.01339 15.3856 7.44841 16.5301C8.88343 17.6746 10.6645 18.298 12.5 18.2984ZM12.5 16.0484C11.4259 16.0484 10.3957 15.6217 9.6362 14.8622C8.87667 14.1027 8.44998 13.0726 8.44998 11.9984C8.44998 10.9243 8.87667 9.89418 9.6362 9.13466C10.3957 8.37513 11.4259 7.94844 12.5 7.94844C13.5741 7.94844 14.6042 8.37513 15.3638 9.13466C16.1233 9.89418 16.55 10.9243 16.55 11.9984C16.55 13.0726 16.1233 14.1027 15.3638 14.8622C14.6042 15.6217 13.5741 16.0484 12.5 16.0484ZM12.5 14.2484C13.0967 14.2484 13.669 14.0114 14.091 13.5894C14.5129 13.1675 14.75 12.5952 14.75 11.9984C14.75 11.4017 14.5129 10.8294 14.091 10.4074C13.669 9.98549 13.0967 9.74844 12.5 9.74844C11.9032 9.74844 11.3309 9.98549 10.909 10.4074C10.487 10.8294 10.25 11.4017 10.25 11.9984C10.25 12.5952 10.487 13.1675 10.909 13.5894C11.3309 14.0114 11.9032 14.2484 12.5 14.2484Z" fill="#0A0D14" style="fill:#0A0D14;fill:color(display-p3 0.0392 0.0510 0.0784);fill-opacity:1;"/>
</svg>
