<svg width="25" height="24" viewBox="0 0 25 24" fill="none" xmlns="http://www.w3.org/2000/svg">
<path d="M12.5 3C17.4707 3 21.5 7.0293 21.5 12C21.5 16.9707 17.4707 21 12.5 21C7.5293 21 3.5 16.9707 3.5 12C3.5 7.0293 7.5293 3 12.5 3ZM12.5 7.5C12.0383 7.5 11.5937 7.5693 11.1743 7.698C11.5063 7.84759 11.7971 8.07554 12.0216 8.36226C12.2461 8.64898 12.3976 8.98591 12.4632 9.34411C12.5288 9.70231 12.5065 10.0711 12.3981 10.4187C12.2898 10.7664 12.0987 11.0826 11.8412 11.3401C11.5838 11.5977 11.2677 11.7889 10.92 11.8973C10.5724 12.0057 10.2036 12.0282 9.8454 11.9627C9.48718 11.8972 9.15021 11.7458 8.86342 11.5214C8.57663 11.2969 8.3486 11.0063 8.1989 10.6743C7.91981 11.5796 7.93355 12.5499 8.23818 13.447C8.54281 14.344 9.12278 15.1221 9.89545 15.6702C10.6681 16.2184 11.5941 16.5087 12.5414 16.4998C13.4887 16.4909 14.4091 16.1833 15.1714 15.6207C15.9336 15.0582 16.4989 14.2694 16.7866 13.3668C17.0744 12.4642 17.0699 11.4938 16.7738 10.5938C16.4778 9.6939 15.9053 8.91036 15.1379 8.35484C14.3705 7.79933 13.4474 7.50017 12.5 7.5Z" fill="#0A0D14" style="fill:#0A0D14;fill:color(display-p3 0.0392 0.0510 0.0784);fill-opacity:1;"/>
</svg>
