<svg width="25" height="24" viewBox="0 0 25 24" fill="none" xmlns="http://www.w3.org/2000/svg">
<path d="M17.7938 18.5667C16.2109 19.5707 14.3744 20.1024 12.5 20.0994C7.64718 20.0994 3.60978 16.6074 2.76288 11.9994C3.14991 9.90307 4.20434 7.98803 5.76888 6.54002L2.95278 3.72663L4.22628 2.45312L22.0454 20.2731L20.7719 21.5457L17.7929 18.5667H17.7938ZM7.04148 7.81442C5.81838 8.92646 4.96636 10.3873 4.60068 11.9994C4.88174 13.2292 5.44602 14.3765 6.24858 15.3498C7.05115 16.3231 8.06984 17.0956 9.22358 17.6058C10.3773 18.116 11.6342 18.3499 12.8943 18.2887C14.1543 18.2276 15.3827 17.8732 16.4816 17.2536L14.6564 15.4284C13.8794 15.9179 12.9592 16.1287 12.0466 16.0264C11.134 15.9241 10.2833 15.5147 9.63399 14.8654C8.98467 14.2161 8.57528 13.3654 8.47298 12.4528C8.37068 11.5402 8.58154 10.62 9.07098 9.84303L7.04148 7.81442ZM13.3226 14.0946L10.4048 11.1768C10.2446 11.5845 10.2069 12.03 10.2963 12.4587C10.3857 12.8875 10.5983 13.2808 10.908 13.5905C11.2177 13.9002 11.611 14.1128 12.0398 14.2022C12.4685 14.2916 12.914 14.2539 13.3217 14.0937L13.3226 14.0946ZM20.4263 16.1322L19.1384 14.8452C19.74 13.9878 20.1683 13.0211 20.3993 11.9994C20.1547 10.9282 19.6948 9.91786 19.0476 9.02987C18.4004 8.14188 17.5794 7.39478 16.6345 6.83397C15.6895 6.27316 14.6404 5.91036 13.5509 5.76761C12.4614 5.62487 11.3543 5.70517 10.2968 6.00362L8.87658 4.58343C9.99888 4.14243 11.222 3.89942 12.5 3.89942C17.3528 3.89942 21.3902 7.39143 22.2371 11.9994C21.9613 13.4986 21.3415 14.9132 20.4263 16.1322ZM12.2507 7.95662C12.8235 7.92122 13.3974 8.00798 13.9342 8.21116C14.471 8.41434 14.9584 8.72928 15.3643 9.13513C15.7701 9.54098 16.0851 10.0284 16.2882 10.5652C16.4914 11.102 16.5782 11.6759 16.5428 12.2487L12.2498 7.95662H12.2507Z" fill="#0A0D14" style="fill:#0A0D14;fill:color(display-p3 0.0392 0.0510 0.0784);fill-opacity:1;"/>
</svg>
