<svg width="25" height="24" viewBox="0 0 25 24" fill="none" xmlns="http://www.w3.org/2000/svg">
<path d="M12.5 3C17.4707 3 21.5 7.0293 21.5 12C21.5 16.9707 17.4707 21 12.5 21C7.5293 21 3.5 16.9707 3.5 12C3.5 7.0293 7.5293 3 12.5 3ZM12.5 4.8C10.5904 4.8 8.75909 5.55857 7.40883 6.90883C6.05857 8.25909 5.3 10.0904 5.3 12C5.3 13.9096 6.05857 15.7409 7.40883 17.0912C8.75909 18.4414 10.5904 19.2 12.5 19.2C14.4096 19.2 16.2409 18.4414 17.5912 17.0912C18.9414 15.7409 19.7 13.9096 19.7 12C19.7 10.0904 18.9414 8.25909 17.5912 6.90883C16.2409 5.55857 14.4096 4.8 12.5 4.8ZM12.5 7.5C13.4473 7.50036 14.3704 7.79968 15.1376 8.35531C15.9049 8.91094 16.4773 9.69454 16.7732 10.5945C17.069 11.4944 17.0734 12.4648 16.7855 13.3673C16.4977 14.2698 15.9324 15.0585 15.1701 15.621C14.4078 16.1834 13.4875 16.491 12.5402 16.4998C11.5929 16.5086 10.667 16.2183 9.89437 15.6701C9.12175 15.1219 8.54184 14.3439 8.23724 13.4469C7.93265 12.5499 7.91892 11.5796 8.198 10.6743C8.40853 11.1447 8.77425 11.5286 9.23395 11.7616C9.69365 11.9947 10.2195 12.0628 10.7234 11.9545C11.2273 11.8462 11.6787 11.5682 12.0021 11.1669C12.3255 10.7656 12.5013 10.2654 12.5 9.75C12.5001 9.31662 12.3751 8.89243 12.1399 8.52841C11.9047 8.16439 11.5694 7.87603 11.1743 7.698C11.5937 7.5693 12.0383 7.5 12.5 7.5Z" fill="#0A0D14" style="fill:#0A0D14;fill:color(display-p3 0.0392 0.0510 0.0784);fill-opacity:1;"/>
</svg>
