<svg width="25" height="24" viewBox="0 0 25 24" fill="none" xmlns="http://www.w3.org/2000/svg">
<path d="M10.817 15.4584L10.1078 18.1044L8.36992 17.6382L9.07822 14.9931C8.01799 14.6021 7.03263 14.0322 6.16492 13.3083L4.22722 15.2469L2.95372 13.9734L4.89232 12.0357C3.79799 10.7251 3.0627 9.15281 2.75842 7.47272L3.56842 7.32422C6.16872 9.19908 9.2943 10.2057 12.5 10.2006C15.8336 10.2006 18.9179 9.13412 21.4316 7.32422L22.2416 7.47182C21.9378 9.15213 21.2028 10.7248 20.1086 12.0357L22.0463 13.9734L20.7728 15.2469L18.8351 13.3083C17.9674 14.0322 16.9821 14.6021 15.9218 14.9931L16.6301 17.6391L14.8922 18.1044L14.183 15.4584C13.0691 15.6493 11.9309 15.6493 10.817 15.4584Z" fill="#0A0D14" style="fill:#0A0D14;fill:color(display-p3 0.0392 0.0510 0.0784);fill-opacity:1;"/>
</svg>
