<svg width="25" height="24" viewBox="0 0 25 24" fill="none" xmlns="http://www.w3.org/2000/svg">
<path d="M14.3 18.3004H18.8V5.70039H6.20002V18.3004H12.5V13.8004H10.7V12.0004H12.5V10.5118C12.5 9.30849 12.626 8.87199 12.86 8.43189C13.0905 7.99646 13.4468 7.64051 13.8824 7.41039C14.2262 7.22589 14.6537 7.11519 15.4007 7.06749C15.6968 7.04859 16.0802 7.07199 16.5509 7.13949V8.84949H16.1C15.2747 8.84949 14.9336 8.88819 14.7302 8.99709C14.6089 9.05951 14.51 9.15832 14.4476 9.27969C14.3396 9.48309 14.3 9.68469 14.3 10.5109V12.0004H16.55L16.1 13.8004H14.3V18.3004ZM5.30002 3.90039H19.7C19.9387 3.90039 20.1676 3.99521 20.3364 4.16399C20.5052 4.33278 20.6 4.5617 20.6 4.80039V19.2004C20.6 19.4391 20.5052 19.668 20.3364 19.8368C20.1676 20.0056 19.9387 20.1004 19.7 20.1004H5.30002C5.06133 20.1004 4.83241 20.0056 4.66363 19.8368C4.49485 19.668 4.40002 19.4391 4.40002 19.2004V4.80039C4.40002 4.5617 4.49485 4.33278 4.66363 4.16399C4.83241 3.99521 5.06133 3.90039 5.30002 3.90039Z" fill="#0A0D14" style="fill:#0A0D14;fill:color(display-p3 0.0392 0.0510 0.0784);fill-opacity:1;"/>
</svg>
