<svg width="25" height="24" viewBox="0 0 25 24" fill="none" xmlns="http://www.w3.org/2000/svg">
<path d="M13.4 19.1442C15.2156 18.9132 16.875 17.9995 18.0411 16.5889C19.2072 15.1783 19.7924 13.3766 19.6778 11.55C19.5632 9.72337 18.7574 8.00894 17.4241 6.75514C16.0909 5.50134 14.3302 4.80227 12.5 4.8C10.6676 4.79864 8.90355 5.496 7.56741 6.75001C6.23126 8.00402 5.42352 9.72029 5.30877 11.5491C5.19402 13.378 5.7809 15.1818 6.94983 16.5929C8.11876 18.0041 9.78176 18.9165 11.6 19.1442V13.8H9.8V12H11.6V10.5114C11.6 9.3081 11.726 8.8716 11.96 8.4315C12.1905 7.99607 12.5468 7.64012 12.9824 7.41C13.3262 7.2255 13.7537 7.1148 14.5007 7.0671C14.7968 7.0482 15.1802 7.0716 15.6509 7.1391V8.8491H15.2C14.3747 8.8491 14.0336 8.8878 13.8302 8.9967C13.7088 9.05912 13.61 9.15793 13.5476 9.2793C13.4396 9.4827 13.4 9.6843 13.4 10.5105V12H15.65L15.2 13.8H13.4V19.1442ZM12.5 21C7.5293 21 3.5 16.9707 3.5 12C3.5 7.0293 7.5293 3 12.5 3C17.4707 3 21.5 7.0293 21.5 12C21.5 16.9707 17.4707 21 12.5 21Z" fill="#0A0D14" style="fill:#0A0D14;fill:color(display-p3 0.0392 0.0510 0.0784);fill-opacity:1;"/>
</svg>
