<svg width="25" height="24" viewBox="0 0 25 24" fill="none" xmlns="http://www.w3.org/2000/svg">
<path d="M13.4 9.3H17.45L17 11.1H13.4V19.2H11.6V11.1H8V9.3H11.6V7.6152C11.6 6.0105 11.7674 5.4282 12.0806 4.8414C12.3875 4.26163 12.8616 3.78751 13.4414 3.4806C14.0282 3.1674 14.6105 3 16.2152 3C16.685 3 17.0972 3.045 17.45 3.135V4.8H16.2152C15.0236 4.8 14.6609 4.8702 14.291 5.0682C14.0174 5.214 13.814 5.4174 13.6682 5.691C13.4702 6.0609 13.4 6.4236 13.4 7.6152V9.3Z" fill="#0A0D14" style="fill:#0A0D14;fill:color(display-p3 0.0392 0.0510 0.0784);fill-opacity:1;"/>
</svg>
