<svg width="25" height="24" viewBox="0 0 25 24" fill="none" xmlns="http://www.w3.org/2000/svg">
<path d="M12.5 11.9984H18.8V13.7984H12.5V20.0984H10.7V8.39844C10.7 7.44366 11.0793 6.52798 11.7544 5.85285C12.4295 5.17772 13.3452 4.79844 14.3 4.79844H20.6V6.59844H14.3C13.8226 6.59844 13.3647 6.78808 13.0272 7.12565C12.6896 7.46321 12.5 7.92105 12.5 8.39844V11.9984ZM5.74998 10.1984C5.33631 10.1984 4.9267 10.117 4.54452 9.95866C4.16235 9.80036 3.81509 9.56833 3.52259 9.27582C3.23008 8.98332 2.99806 8.63607 2.83976 8.25389C2.68145 7.87172 2.59998 7.4621 2.59998 7.04844C2.59998 6.63477 2.68145 6.22516 2.83976 5.84298C2.99806 5.46081 3.23008 5.11356 3.52259 4.82105C3.81509 4.52855 4.16235 4.29652 4.54452 4.13822C4.9267 3.97991 5.33631 3.89844 5.74998 3.89844C6.58541 3.89844 7.38662 4.23031 7.97736 4.82105C8.5681 5.41179 8.89998 6.21301 8.89998 7.04844C8.89998 7.88387 8.5681 8.68508 7.97736 9.27582C7.38662 9.86656 6.58541 10.1984 5.74998 10.1984ZM5.74998 8.39844C6.10802 8.39844 6.4514 8.25621 6.70457 8.00303C6.95774 7.74986 7.09998 7.40648 7.09998 7.04844C7.09998 6.6904 6.95774 6.34702 6.70457 6.09384C6.4514 5.84067 6.10802 5.69844 5.74998 5.69844C5.39193 5.69844 5.04856 5.84067 4.79538 6.09384C4.54221 6.34702 4.39998 6.6904 4.39998 7.04844C4.39998 7.40648 4.54221 7.74986 4.79538 8.00303C5.04856 8.25621 5.39193 8.39844 5.74998 8.39844Z" fill="#0A0D14" style="fill:#0A0D14;fill:color(display-p3 0.0392 0.0510 0.0784);fill-opacity:1;"/>
</svg>
