<svg width="25" height="24" viewBox="0 0 25 24" fill="none" xmlns="http://www.w3.org/2000/svg">
<path d="M14.75 9V6H7.25V18H17.75V9H14.75ZM5.75 5.24385C5.75 4.83304 6.08562 4.5 6.49888 4.5H15.5L19.2498 8.25L19.25 18.7444C19.25 19.1617 18.9163 19.5 18.5049 19.5H6.49505C6.08357 19.5 5.75 19.1585 5.75 18.7561V5.24385ZM11.75 10.125C11.75 10.7463 11.2463 11.25 10.625 11.25C10.0037 11.25 9.5 10.7463 9.5 10.125C9.5 9.50368 10.0037 9 10.625 9C11.2463 9 11.75 9.50368 11.75 10.125ZM16.625 15.75L13.625 10.5L9.5 15.75H16.625Z" fill="#0A0D14" style="fill:#0A0D14;fill:color(display-p3 0.0392 0.0510 0.0784);fill-opacity:1;"/>
</svg>
