<svg width="25" height="24" viewBox="0 0 25 24" fill="none" xmlns="http://www.w3.org/2000/svg">
<path d="M15.2 4.8H6.19999V19.2H18.8V8.4H15.2V4.8ZM4.39999 3.8928C4.39999 3.3996 4.80229 3 5.29909 3H16.1L20.6 7.5V20.0937C20.6008 20.2119 20.5784 20.3291 20.5339 20.4386C20.4894 20.5481 20.4238 20.6478 20.3409 20.7319C20.2579 20.8161 20.1591 20.8831 20.0502 20.9291C19.9414 20.9751 19.8245 20.9992 19.7063 21H5.29369C5.05733 20.9984 4.83111 20.9038 4.66389 20.7367C4.49667 20.5697 4.40188 20.3436 4.39999 20.1072V3.8928ZM13.8761 14.2014C13.1213 14.6424 12.2318 14.7939 11.3736 14.6275C10.5154 14.4612 9.74695 13.9883 9.2116 13.2972C8.67625 12.6061 8.41052 11.7439 8.46397 10.8713C8.51742 9.99875 8.88639 9.1754 9.50209 8.5548C10.1217 7.93531 10.946 7.56305 11.8204 7.50779C12.6948 7.45252 13.5594 7.71805 14.252 8.25461C14.9447 8.79116 15.4179 9.56191 15.583 10.4224C15.748 11.2829 15.5936 12.174 15.1487 12.9288L17.1377 14.9178L15.8651 16.1913L13.8761 14.2023V14.2014ZM13.3199 12.3726C13.4918 12.2066 13.6289 12.0079 13.7233 11.7883C13.8176 11.5687 13.8673 11.3325 13.8693 11.0935C13.8714 10.8545 13.8259 10.6175 13.7354 10.3963C13.6449 10.1751 13.5112 9.9741 13.3422 9.80509C13.1732 9.63608 12.9722 9.50243 12.751 9.41192C12.5298 9.32141 12.2928 9.27587 12.0538 9.27795C11.8148 9.28003 11.5786 9.32968 11.359 9.42402C11.1394 9.51835 10.9407 9.65548 10.7747 9.8274C10.4468 10.1669 10.2654 10.6216 10.2695 11.0935C10.2736 11.5655 10.4629 12.0169 10.7966 12.3507C11.1304 12.6844 11.5818 12.8737 12.0538 12.8778C12.5257 12.8819 12.9804 12.7005 13.3199 12.3726Z" fill="#0A0D14" style="fill:#0A0D14;fill:color(display-p3 0.0392 0.0510 0.0784);fill-opacity:1;"/>
</svg>
