<svg width="25" height="24" viewBox="0 0 25 24" fill="none" xmlns="http://www.w3.org/2000/svg">
<path d="M16.1 3L20.6 7.5V20.0937C20.6009 20.2119 20.5784 20.3291 20.5339 20.4386C20.4895 20.5481 20.4239 20.6478 20.3409 20.7319C20.2579 20.8161 20.1591 20.8831 20.0503 20.9291C19.9414 20.9751 19.8245 20.9992 19.7063 21H5.29372C5.05736 20.9984 4.83114 20.9038 4.66392 20.7367C4.4967 20.5697 4.40191 20.3436 4.40002 20.1072V3.8928C4.40002 3.3996 4.80232 3 5.29912 3H16.1ZM10.0997 14.4003H8.90002V17.4H16.1V16.2003L10.0997 16.1994V14.3994V14.4003ZM12.5 14.0997C12.3818 14.0997 12.2648 14.123 12.1556 14.1682C12.0464 14.2134 11.9472 14.2797 11.8636 14.3633C11.7801 14.4469 11.7138 14.5461 11.6685 14.6553C11.6233 14.7645 11.6 14.8815 11.6 14.9997C11.6 15.1179 11.6233 15.2349 11.6685 15.3441C11.7138 15.4533 11.7801 15.5525 11.8636 15.6361C11.9472 15.7197 12.0464 15.786 12.1556 15.8312C12.2648 15.8764 12.3818 15.8997 12.5 15.8997C12.7387 15.8997 12.9676 15.8049 13.1364 15.6361C13.3052 15.4673 13.4 15.2384 13.4 14.9997C13.4 14.761 13.3052 14.5321 13.1364 14.3633C12.9676 14.1945 12.7387 14.0997 12.5 14.0997ZM12.5 9.3C11.9033 9.3 11.331 9.53705 10.909 9.95901C10.4871 10.381 10.25 10.9533 10.25 11.55C10.25 12.1467 10.4871 12.719 10.909 13.141C11.331 13.5629 11.9033 13.8 12.5 13.8C13.0968 13.8 13.6691 13.5629 14.091 13.141C14.513 12.719 14.75 12.1467 14.75 11.55C14.75 10.9533 14.513 10.381 14.091 9.95901C13.6691 9.53705 13.0968 9.3 12.5 9.3ZM12.5 10.4997C12.7786 10.4997 13.0457 10.6104 13.2427 10.8073C13.4397 11.0043 13.5503 11.2714 13.5503 11.55C13.5503 11.8286 13.4397 12.0957 13.2427 12.2927C13.0457 12.4896 12.7786 12.6003 12.5 12.6003C12.2215 12.6003 11.9543 12.4896 11.7574 12.2927C11.5604 12.0957 11.4497 11.8286 11.4497 11.55C11.4497 11.2714 11.5604 11.0043 11.7574 10.8073C11.9543 10.6104 12.2215 10.4997 12.5 10.4997ZM13.1003 6.6H11.8997V7.7997H8.90002V9.0003H16.1V7.7997H13.0994V6.6H13.1003Z" fill="#0A0D14" style="fill:#0A0D14;fill:color(display-p3 0.0392 0.0510 0.0784);fill-opacity:1;"/>
</svg>
