<svg width="25" height="24" viewBox="0 0 25 24" fill="none" xmlns="http://www.w3.org/2000/svg">
<path d="M15.1973 3L20.6 8.4L20.6009 12.234C20.0734 11.7963 19.4603 11.4735 18.8009 11.2863L18.8 9.3H14.3V4.8H6.19999V19.2H10.754C10.857 19.8487 11.1086 20.4648 11.4893 21H5.29369C5.07492 21 4.86375 20.9197 4.7002 20.7744C4.53664 20.6291 4.43207 20.4289 4.40629 20.2116L4.39999 20.1072V3.8928C4.39999 3.4446 4.74829 3.0585 5.19649 3.0063L5.30179 3H15.1973ZM17.45 12.9C18.2854 12.9 19.0866 13.2319 19.6774 13.8226C20.2681 14.4134 20.6 15.2146 20.6 16.05L20.5991 16.1427C21.1621 16.3013 21.6508 16.6543 21.9784 17.1389C22.306 17.6235 22.4513 18.2085 22.3886 18.7901C22.326 19.3717 22.0593 19.9123 21.636 20.316C21.2127 20.7197 20.6601 20.9604 20.0762 20.9955L19.925 21H14.975L14.8238 20.9955C14.24 20.9601 13.6876 20.7191 13.2646 20.3153C12.8415 19.9114 12.5752 19.3708 12.5127 18.7893C12.4503 18.2078 12.5958 17.6229 12.9234 17.1385C13.2511 16.654 13.7397 16.3012 14.3027 16.1427L14.3 16.05C14.3 15.2146 14.6319 14.4134 15.2226 13.8226C15.8133 13.2319 16.6146 12.9 17.45 12.9ZM17.45 14.7C17.1364 14.6999 16.8326 14.809 16.5907 15.0086C16.3488 15.2081 16.1839 15.4856 16.1243 15.7935L16.1063 15.9195L16.1 16.05V17.508L14.8004 17.8734C14.6506 17.9134 14.5192 18.0037 14.4282 18.1291C14.3371 18.2546 14.292 18.4076 14.3005 18.5623C14.3089 18.7171 14.3704 18.8643 14.4745 18.9791C14.5787 19.0939 14.7192 19.1694 14.8724 19.1928L14.9705 19.2H19.9295C20.0927 19.1988 20.2499 19.1384 20.372 19.0302C20.4942 18.922 20.573 18.7732 20.5938 18.6113C20.6147 18.4495 20.5762 18.2855 20.4855 18.1499C20.3948 18.0142 20.258 17.916 20.1005 17.8734L19.1888 17.6187L18.8 17.508V16.05L18.7937 15.9204C18.7615 15.5864 18.606 15.2763 18.3576 15.0507C18.1091 14.825 17.7856 14.7 17.45 14.7Z" fill="#0A0D14" style="fill:#0A0D14;fill:color(display-p3 0.0392 0.0510 0.0784);fill-opacity:1;"/>
</svg>
