<svg width="25" height="24" viewBox="0 0 25 24" fill="none" xmlns="http://www.w3.org/2000/svg">
<path d="M4.39999 8.4L9.80269 3H19.6982C20.195 3 20.6 3.4095 20.6 3.8928V20.1072C20.5997 20.3441 20.5055 20.5712 20.3379 20.7386C20.1703 20.906 19.9432 21 19.7063 21H5.29369C5.1755 20.9992 5.05862 20.9751 4.94975 20.9291C4.84087 20.8831 4.74212 20.8161 4.65913 20.7319C4.57614 20.6478 4.51054 20.5481 4.46608 20.4386C4.42161 20.3291 4.39916 20.2119 4.39999 20.0937V8.4ZM10.7 4.8V9.3H6.19999V19.2H18.8V4.8H10.7Z" fill="#0A0D14" style="fill:#0A0D14;fill:color(display-p3 0.0392 0.0510 0.0784);fill-opacity:1;"/>
</svg>
