<svg width="25" height="24" viewBox="0 0 25 24" fill="none" xmlns="http://www.w3.org/2000/svg">
<path d="M9.43553 12.7308C9.32141 12.2506 9.32141 11.7503 9.43553 11.2701L8.54273 10.7544L9.44272 9.1956L10.3355 9.7113C10.6939 9.37189 11.127 9.12155 11.6 8.9805V7.95H13.4V8.9805C13.8788 9.1227 14.3108 9.3765 14.6645 9.7113L15.5573 9.1956L16.4573 10.7544L15.5645 11.2701C15.6785 11.75 15.6785 12.25 15.5645 12.7299L16.4573 13.2456L15.5573 14.8044L14.6645 14.2887C14.3062 14.6281 13.873 14.8785 13.4 15.0195V16.05H11.6V15.0195C11.127 14.8785 10.6939 14.6281 10.3355 14.2887L9.44272 14.8044L8.54273 13.2456L9.43553 12.7308ZM12.5 13.35C12.8581 13.35 13.2014 13.2078 13.4546 12.9546C13.7078 12.7014 13.85 12.358 13.85 12C13.85 11.642 13.7078 11.2986 13.4546 11.0454C13.2014 10.7922 12.8581 10.65 12.5 10.65C12.142 10.65 11.7986 10.7922 11.5454 11.0454C11.2923 11.2986 11.15 11.642 11.15 12C11.15 12.358 11.2923 12.7014 11.5454 12.9546C11.7986 13.2078 12.142 13.35 12.5 13.35ZM15.2 4.8H6.20002V19.2H18.8V8.4H15.2V4.8ZM4.40002 3.8928C4.40002 3.3996 4.80232 3 5.29912 3H16.1L20.6 7.5V20.0937C20.6009 20.2119 20.5784 20.3291 20.5339 20.4386C20.4895 20.5481 20.4239 20.6478 20.3409 20.7319C20.2579 20.8161 20.1591 20.8831 20.0503 20.9291C19.9414 20.9751 19.8245 20.9992 19.7063 21H5.29372C5.05736 20.9984 4.83114 20.9038 4.66392 20.7367C4.4967 20.5697 4.40191 20.3436 4.40002 20.1072V3.8928Z" fill="#0A0D14" style="fill:#0A0D14;fill:color(display-p3 0.0392 0.0510 0.0784);fill-opacity:1;"/>
</svg>
