<svg width="25" height="24" viewBox="0 0 25 24" fill="none" xmlns="http://www.w3.org/2000/svg">
<path d="M20.6 7.5V20.0937C20.6009 20.2119 20.5784 20.3291 20.5339 20.4386C20.4895 20.5481 20.4239 20.6478 20.3409 20.7319C20.2579 20.8161 20.1591 20.8831 20.0503 20.9291C19.9414 20.9751 19.8245 20.9992 19.7063 21H5.29372C5.05686 21 4.82968 20.906 4.6621 20.7386C4.49453 20.5712 4.40026 20.3441 4.40002 20.1072V3.8928C4.40002 3.4095 4.80232 3 5.29822 3H16.0973L20.6 7.5ZM8.90002 8.4V13.44C8.90002 14.205 9.30142 14.9187 9.96833 15.3426L12.5 16.95L15.0317 15.3426C15.356 15.1415 15.624 14.8615 15.8108 14.5288C15.9976 14.1961 16.0971 13.8215 16.1 13.44V8.4H8.90002ZM10.7 10.2H14.3V13.44C14.3 13.5822 14.219 13.7262 14.066 13.8234L12.5 14.817L10.934 13.8225C10.781 13.7253 10.7 13.5813 10.7 13.4391V10.2Z" fill="#0A0D14" style="fill:#0A0D14;fill:color(display-p3 0.0392 0.0510 0.0784);fill-opacity:1;"/>
</svg>
