<svg width="25" height="24" viewBox="0 0 25 24" fill="none" xmlns="http://www.w3.org/2000/svg">
<path d="M4.27308 3.78998L15.5861 2.17448C15.6499 2.16532 15.715 2.17 15.7769 2.18818C15.8388 2.20637 15.896 2.23765 15.9447 2.2799C15.9935 2.32215 16.0326 2.37438 16.0594 2.43306C16.0861 2.49173 16.1 2.55548 16.1 2.61998V21.3814C16.1 21.4458 16.0861 21.5095 16.0594 21.5681C16.0327 21.6267 15.9937 21.6788 15.945 21.7211C15.8964 21.7633 15.8393 21.7946 15.7775 21.8129C15.7157 21.8311 15.6508 21.8359 15.587 21.8269L4.27218 20.2114C4.05764 20.1808 3.86133 20.0739 3.7193 19.9102C3.57728 19.7465 3.49909 19.5371 3.49908 19.3204V4.68098C3.49909 4.46427 3.57728 4.25484 3.7193 4.09116C3.86133 3.92748 4.05764 3.82054 4.27218 3.78998H4.27308ZM5.29998 5.46218V18.5392L14.3 19.8253V4.17608L5.29998 5.46218ZM17 18.3007H19.7V5.70068H17V3.90068H20.6C20.8387 3.90068 21.0676 3.9955 21.2364 4.16429C21.4052 4.33307 21.5 4.56199 21.5 4.80068V19.2007C21.5 19.4394 21.4052 19.6683 21.2364 19.8371C21.0676 20.0059 20.8387 20.1007 20.6 20.1007H17V18.3007ZM10.88 12.0007L13.4 15.6007H11.24L9.79998 13.5433L8.35998 15.6007H6.19998L8.71999 12.0007L6.19998 8.40068H8.35998L9.79998 10.4581L11.24 8.40068H13.4L10.88 12.0007Z" fill="#0A0D14" style="fill:#0A0D14;fill:color(display-p3 0.0392 0.0510 0.0784);fill-opacity:1;"/>
</svg>
