<svg width="25" height="24" viewBox="0 0 25 24" fill="none" xmlns="http://www.w3.org/2000/svg">
<path d="M15.2 4.8H6.19999V19.2H18.8V8.4H15.2V4.8ZM4.39999 3.8928C4.39999 3.3996 4.80229 3 5.29909 3H16.1L20.6 7.5V20.0937C20.6008 20.2119 20.5784 20.3291 20.5339 20.4386C20.4894 20.5481 20.4238 20.6478 20.3409 20.7319C20.2579 20.8161 20.1591 20.8831 20.0502 20.9291C19.9414 20.9751 19.8245 20.9992 19.7063 21H5.29369C5.05733 20.9984 4.83111 20.9038 4.66389 20.7367C4.49667 20.5697 4.40188 20.3436 4.39999 20.1072V3.8928ZM11.6 14.7H13.4V16.5H11.6V14.7ZM11.6 7.5H13.4V12.9H11.6V7.5Z" fill="#0A0D14" style="fill:#0A0D14;fill:color(display-p3 0.0392 0.0510 0.0784);fill-opacity:1;"/>
</svg>
