<svg width="25" height="24" viewBox="0 0 25 24" fill="none" xmlns="http://www.w3.org/2000/svg">
<path d="M9.8 3.0027V3H19.6982C20.195 3 20.6 3.4095 20.6 3.8928V20.1072C20.5998 20.3441 20.5055 20.5712 20.3379 20.7386C20.1704 20.906 19.9432 21 19.7063 21H5.2937C5.17551 20.9992 5.05864 20.9751 4.94976 20.9291C4.84088 20.8831 4.74213 20.8161 4.65914 20.7319C4.57616 20.6478 4.51056 20.5481 4.46609 20.4386C4.42163 20.3291 4.39917 20.2119 4.4 20.0937V8.4L9.8 3.0027ZM6.947 8.4H9.8V5.547L6.947 8.4ZM11.6 4.8V9.3C11.6 9.53869 11.5052 9.76761 11.3364 9.9364C11.1676 10.1052 10.9387 10.2 10.7 10.2H6.2V19.2H18.8V4.8H11.6Z" fill="#0A0D14" style="fill:#0A0D14;fill:color(display-p3 0.0392 0.0510 0.0784);fill-opacity:1;"/>
</svg>
