<svg width="25" height="24" viewBox="0 0 25 24" fill="none" xmlns="http://www.w3.org/2000/svg">
<path d="M19.7 3C20.4161 3 21.1028 3.28446 21.6092 3.79081C22.1155 4.29716 22.4 4.98392 22.4 5.7V7.5H20.6V18.3C20.6 19.0161 20.3155 19.7028 19.8092 20.2092C19.3028 20.7155 18.6161 21 17.9 21H5.30001C4.58392 21 3.89717 20.7155 3.39082 20.2092C2.88447 19.7028 2.60001 19.0161 2.60001 18.3V16.5H17V18.3C17 18.5204 17.081 18.7332 17.2275 18.8979C17.3739 19.0627 17.5758 19.1679 17.7947 19.1937L17.9 19.2C18.1204 19.2 18.3332 19.119 18.4979 18.9726C18.6627 18.8261 18.7679 18.6242 18.7937 18.4053L18.8 18.3V4.8H7.10001C6.87957 4.80003 6.6668 4.88096 6.50207 5.02744C6.33734 5.17393 6.2321 5.37577 6.20631 5.5947L6.20001 5.7V14.7H4.40001V5.7C4.40001 4.98392 4.68447 4.29716 5.19082 3.79081C5.69717 3.28446 6.38392 3 7.10001 3H19.7Z" fill="#0A0D14" style="fill:#0A0D14;fill:color(display-p3 0.0392 0.0510 0.0784);fill-opacity:1;"/>
</svg>
