<svg width="25" height="24" viewBox="0 0 25 24" fill="none" xmlns="http://www.w3.org/2000/svg">
<path d="M16.1 3L20.6 7.5V20.1072C20.5998 20.3441 20.5055 20.5712 20.3379 20.7386C20.1704 20.906 19.9432 21 19.7063 21H5.29372C5.05736 20.9984 4.83114 20.9038 4.66392 20.7367C4.4967 20.5697 4.40191 20.3436 4.40002 20.1072V3.8928C4.40002 3.3996 4.80052 3 5.29372 3H16.1ZM11.6 12.045C11.1451 11.9521 10.6726 12.0023 10.2473 12.1886C9.82201 12.3749 9.46477 12.6881 9.22455 13.0855C8.98434 13.4828 8.87293 13.9447 8.9056 14.4079C8.93827 14.871 9.11342 15.3127 9.40704 15.6724C9.70065 16.0321 10.0983 16.2921 10.5456 16.4168C10.9928 16.5416 11.4677 16.5249 11.905 16.3691C12.3424 16.2133 12.7209 15.926 12.9885 15.5466C13.2562 15.1672 13.3999 14.7143 13.4 14.25V10.2H16.1V8.4H11.6V12.045Z" fill="#0A0D14" style="fill:#0A0D14;fill:color(display-p3 0.0392 0.0510 0.0784);fill-opacity:1;"/>
</svg>
