<svg width="25" height="24" viewBox="0 0 25 24" fill="none" xmlns="http://www.w3.org/2000/svg">
<path d="M16.1 3L20.6 7.5V20.1072C20.5998 20.3441 20.5055 20.5712 20.3379 20.7386C20.1704 20.906 19.9432 21 19.7063 21H5.29372C5.05736 20.9984 4.83114 20.9038 4.66392 20.7367C4.4967 20.5697 4.40191 20.3436 4.40002 20.1072V3.8928C4.40002 3.3996 4.80052 3 5.29372 3H16.1ZM12.5 11.55C13.0968 11.55 13.6691 11.3129 14.091 10.891C14.513 10.469 14.75 9.89674 14.75 9.3C14.75 8.70326 14.513 8.13097 14.091 7.70901C13.6691 7.28705 13.0968 7.05 12.5 7.05C11.9033 7.05 11.331 7.28705 10.909 7.70901C10.4871 8.13097 10.25 8.70326 10.25 9.3C10.25 9.89674 10.4871 10.469 10.909 10.891C11.331 11.3129 11.9033 11.55 12.5 11.55ZM8.47432 16.5H16.5257C16.4166 15.5086 15.9455 14.5922 15.2027 13.9267C14.4598 13.2611 13.4974 12.893 12.5 12.893C11.5026 12.893 10.5403 13.2611 9.7974 13.9267C9.05454 14.5922 8.58342 15.5086 8.47432 16.5Z" fill="#0A0D14" style="fill:#0A0D14;fill:color(display-p3 0.0392 0.0510 0.0784);fill-opacity:1;"/>
</svg>
