<svg width="25" height="24" viewBox="0 0 25 24" fill="none" xmlns="http://www.w3.org/2000/svg">
<path d="M15.1973 3L20.6 8.4L20.6009 12.234C19.7155 11.4991 18.6006 11.0979 17.45 11.1L17.2511 11.1036C16.1751 11.147 15.1426 11.5399 14.3099 12.2228C13.4773 12.9057 12.8899 13.8414 12.6368 14.8881L12.6224 14.9547L12.5954 14.9727C12.1209 15.2907 11.7149 15.7006 11.4014 16.1781C11.0879 16.6556 10.8733 17.1912 10.7703 17.753C10.6673 18.3149 10.6779 18.8917 10.8016 19.4494C10.9252 20.0071 11.1594 20.5343 11.4902 21H5.29369C5.07492 21 4.86375 20.9197 4.7002 20.7744C4.53664 20.6291 4.43207 20.4289 4.40629 20.2116L4.39999 20.1072V3.8928C4.39999 3.4446 4.74829 3.0585 5.19649 3.0063L5.30179 3H15.1973ZM17.45 12.9C18.2854 12.9 19.0866 13.2319 19.6774 13.8226C20.2681 14.4134 20.6 15.2146 20.6 16.05L20.5991 16.1427C21.1621 16.3013 21.6508 16.6543 21.9784 17.1389C22.306 17.6235 22.4513 18.2085 22.3886 18.7901C22.326 19.3717 22.0593 19.9123 21.636 20.316C21.2127 20.7197 20.6601 20.9604 20.0762 20.9955L19.925 21H14.975L14.8238 20.9955C14.24 20.9601 13.6876 20.7191 13.2646 20.3153C12.8415 19.9114 12.5752 19.3708 12.5127 18.7893C12.4503 18.2078 12.5958 17.6229 12.9234 17.1385C13.2511 16.654 13.7397 16.3012 14.3027 16.1427L14.3 16.05C14.3 15.2146 14.6319 14.4134 15.2226 13.8226C15.8133 13.2319 16.6146 12.9 17.45 12.9Z" fill="#0A0D14" style="fill:#0A0D14;fill:color(display-p3 0.0392 0.0510 0.0784);fill-opacity:1;"/>
</svg>
