<svg width="25" height="24" viewBox="0 0 25 24" fill="none" xmlns="http://www.w3.org/2000/svg">
<path d="M15.2 4.8H6.20002V19.2H18.8V8.4H15.2V4.8ZM4.40002 3.8928C4.40002 3.3996 4.80232 3 5.29912 3H16.1L20.6 7.5V20.0937C20.6009 20.2119 20.5784 20.3291 20.5339 20.4386C20.4895 20.5481 20.4239 20.6478 20.3409 20.7319C20.2579 20.8161 20.1591 20.8831 20.0503 20.9291C19.9414 20.9751 19.8245 20.9992 19.7063 21H5.29372C5.05736 20.9984 4.83114 20.9038 4.66392 20.7367C4.4967 20.5697 4.40191 20.3436 4.40002 20.1072V3.8928ZM15.2 11.1H16.1V15.6H8.90002V11.1H9.80002V10.2C9.80002 9.48392 10.0845 8.79716 10.5908 8.29081C11.0972 7.78446 11.7839 7.5 12.5 7.5C13.2161 7.5 13.9029 7.78446 14.4092 8.29081C14.9156 8.79716 15.2 9.48392 15.2 10.2V11.1ZM13.4 11.1V10.2C13.4 9.96131 13.3052 9.73239 13.1364 9.5636C12.9676 9.39482 12.7387 9.3 12.5 9.3C12.2613 9.3 12.0324 9.39482 11.8636 9.5636C11.6948 9.73239 11.6 9.96131 11.6 10.2V11.1H13.4Z" fill="#0A0D14" style="fill:#0A0D14;fill:color(display-p3 0.0392 0.0510 0.0784);fill-opacity:1;"/>
</svg>
