<svg width="25" height="24" viewBox="0 0 25 24" fill="none" xmlns="http://www.w3.org/2000/svg">
<path d="M12.5 15.6H8.90002V8.4H12.5C13.4548 8.4 14.3705 8.77928 15.0456 9.45442C15.7207 10.1295 16.1 11.0452 16.1 12C16.1 12.9548 15.7207 13.8705 15.0456 14.5456C14.3705 15.2207 13.4548 15.6 12.5 15.6ZM10.7 10.2V13.8H12.5C12.9774 13.8 13.4353 13.6104 13.7728 13.2728C14.1104 12.9352 14.3 12.4774 14.3 12C14.3 11.5226 14.1104 11.0648 13.7728 10.7272C13.4353 10.3896 12.9774 10.2 12.5 10.2H10.7ZM15.2 4.8H6.20002V19.2H18.8V8.4H15.2V4.8ZM4.40002 3.8928C4.40002 3.3996 4.80232 3 5.29912 3H16.1L20.6 7.5V20.0937C20.6009 20.2119 20.5784 20.3291 20.5339 20.4386C20.4895 20.5481 20.4239 20.6478 20.3409 20.7319C20.2579 20.8161 20.1591 20.8831 20.0503 20.9291C19.9414 20.9751 19.8245 20.9992 19.7063 21H5.29372C5.05736 20.9984 4.83114 20.9038 4.66392 20.7367C4.4967 20.5697 4.40191 20.3436 4.40002 20.1072V3.8928Z" fill="#0A0D14" style="fill:#0A0D14;fill:color(display-p3 0.0392 0.0510 0.0784);fill-opacity:1;"/>
</svg>
