<svg width="25" height="24" viewBox="0 0 25 24" fill="none" xmlns="http://www.w3.org/2000/svg">
<path d="M7.25 6H14.75V9H17.75V18H7.25V6ZM6.49888 4.5C6.08562 4.5 5.75 4.83304 5.75 5.24385V18.7561C5.75 19.1585 6.08357 19.5 6.49505 19.5H18.5049C18.9163 19.5 19.25 19.1617 19.25 18.7444L19.2498 8.25L15.5 4.5H6.49888ZM11.3749 8.625C11.3749 9.80812 11.0332 11.203 10.4562 12.4901C9.87715 13.7818 9.09607 14.8877 8.28143 15.5393L9.16598 16.7491C11.3616 15.2853 13.7925 14.2816 16.1439 14.6175L16.4872 13.1635C14.4826 12.4953 12.8749 10.4925 12.8749 8.625H11.3749ZM11.8249 13.1037C12.0255 12.6564 12.2032 12.1922 12.3528 11.7214C12.7065 12.2648 13.1415 12.7636 13.6326 13.1965C12.8962 13.3283 12.1749 13.5447 11.4764 13.8207C11.5999 13.5857 11.7163 13.3461 11.8249 13.1037Z" fill="#0A0D14" style="fill:#0A0D14;fill:color(display-p3 0.0392 0.0510 0.0784);fill-opacity:1;"/>
</svg>
