<svg width="25" height="24" viewBox="0 0 25 24" fill="none" xmlns="http://www.w3.org/2000/svg">
<path d="M16.1 3L20.6 7.5V20.0937C20.6 20.5941 20.1995 21 19.7063 21H5.29372C4.80052 21 4.40002 20.5905 4.40002 20.1072V3.8928C4.40002 3.3996 4.80232 3 5.29912 3H16.1ZM15.2 4.8H6.20002V19.2H18.8V8.4H15.2V4.8ZM13.4 10.2V14.7H12.5V10.2H13.4ZM11.6 10.2V11.1H9.80002C9.30322 11.1 8.90002 11.5032 8.90002 12V12.9C8.90002 13.3968 9.30322 13.8 9.80002 13.8H10.7V12.9H9.80002V12H11.6V13.8C11.6 14.2968 11.1968 14.7 10.7 14.7H9.80002C8.80552 14.7 8.00002 13.8945 8.00002 12.9V12C8.00002 11.0055 8.80552 10.2 9.80002 10.2H11.6ZM17 10.2V11.1H15.2V12H17V12.9H15.2V14.7H14.3V10.2H17Z" fill="#0A0D14" style="fill:#0A0D14;fill:color(display-p3 0.0392 0.0510 0.0784);fill-opacity:1;"/>
</svg>
