<svg width="25" height="24" viewBox="0 0 25 24" fill="none" xmlns="http://www.w3.org/2000/svg">
<path d="M15.2 4.8H6.19999V19.2H18.8V8.4H15.2V4.8ZM4.39999 3.8928C4.39999 3.3996 4.80229 3 5.29909 3H16.1L20.6 7.5V20.0937C20.6008 20.2119 20.5784 20.3291 20.5339 20.4386C20.4894 20.5481 20.4238 20.6478 20.3409 20.7319C20.2579 20.8161 20.1591 20.8831 20.0502 20.9291C19.9414 20.9751 19.8245 20.9992 19.7063 21H5.29369C5.05733 20.9984 4.83111 20.9038 4.66389 20.7367C4.49667 20.5697 4.40188 20.3436 4.39999 20.1072V3.8928ZM12.5 8.4V12H16.1C16.1 12.712 15.8889 13.408 15.4933 14.0001C15.0977 14.5921 14.5355 15.0535 13.8777 15.326C13.2198 15.5984 12.496 15.6697 11.7977 15.5308C11.0993 15.3919 10.4579 15.0491 9.95441 14.5456C9.45094 14.0421 9.10807 13.4007 8.96917 12.7023C8.83026 12.004 8.90155 11.2802 9.17403 10.6223C9.4465 9.96453 9.90793 9.40228 10.4999 9.00671C11.092 8.61114 11.788 8.4 12.5 8.4Z" fill="#0A0D14" style="fill:#0A0D14;fill:color(display-p3 0.0392 0.0510 0.0784);fill-opacity:1;"/>
</svg>
