<svg width="25" height="24" viewBox="0 0 25 24" fill="none" xmlns="http://www.w3.org/2000/svg">
<path d="M7.99999 6.6V3.9C7.99999 3.66131 8.09482 3.43239 8.2636 3.2636C8.43238 3.09482 8.6613 3 8.89999 3H19.7C19.9387 3 20.1676 3.09482 20.3364 3.2636C20.5052 3.43239 20.6 3.66131 20.6 3.9V16.5C20.6 16.7387 20.5052 16.9676 20.3364 17.1364C20.1676 17.3052 19.9387 17.4 19.7 17.4H17V20.1C17 20.5968 16.595 21 16.0937 21H5.30629C5.18761 21.0007 5.06995 20.978 4.96008 20.9331C4.85022 20.8882 4.7503 20.822 4.66609 20.7384C4.58187 20.6547 4.51501 20.5553 4.46934 20.4457C4.42368 20.3362 4.40011 20.2187 4.39999 20.1L4.40269 7.5C4.40269 7.0032 4.80769 6.6 5.30809 6.6H7.99999ZM6.20179 8.4L6.19999 19.2H15.2V8.4H6.20179ZM9.79999 6.6H17V15.6H18.8V4.8H9.79999V6.6ZM7.99999 11.1H13.4V12.9H7.99999V11.1ZM7.99999 14.7H13.4V16.5H7.99999V14.7Z" fill="#0A0D14" style="fill:#0A0D14;fill:color(display-p3 0.0392 0.0510 0.0784);fill-opacity:1;"/>
</svg>
