<svg width="25" height="24" viewBox="0 0 25 24" fill="none" xmlns="http://www.w3.org/2000/svg">
<path d="M16.1 3L20.6 7.5V20.1072C20.5998 20.3441 20.5055 20.5712 20.3379 20.7386C20.1704 20.906 19.9432 21 19.7063 21H5.29372C5.05736 20.9984 4.83114 20.9038 4.66392 20.7367C4.4967 20.5697 4.40191 20.3436 4.40002 20.1072V3.8928C4.40002 3.3996 4.80052 3 5.29372 3H16.1ZM11.6 14.7V16.5H13.4V14.7H11.6ZM13.4 13.2195C14.1233 13.0015 14.7443 12.531 15.1498 11.8936C15.5553 11.2562 15.7183 10.4943 15.6093 9.74682C15.5002 8.99929 15.1263 8.31579 14.5556 7.82081C13.985 7.32583 13.2555 7.05228 12.5 7.05C11.7718 7.04994 11.066 7.30214 10.5027 7.76369C9.93945 8.22525 9.55343 8.86767 9.41033 9.5817L11.1761 9.9354C11.2262 9.68469 11.3465 9.45336 11.523 9.26833C11.6994 9.08331 11.9248 8.95219 12.1728 8.89023C12.4209 8.82828 12.6814 8.83804 12.9241 8.91837C13.1668 8.99871 13.3818 9.14631 13.5439 9.34402C13.706 9.54173 13.8086 9.7814 13.8398 10.0352C13.8711 10.2889 13.8296 10.5463 13.7202 10.7774C13.6109 11.0085 13.4381 11.2038 13.2221 11.3406C13.0061 11.4774 12.7557 11.55 12.5 11.55C12.2613 11.55 12.0324 11.6448 11.8636 11.8136C11.6948 11.9824 11.6 12.2113 11.6 12.45V13.8H13.4V13.2195Z" fill="#0A0D14" style="fill:#0A0D14;fill:color(display-p3 0.0392 0.0510 0.0784);fill-opacity:1;"/>
</svg>
