<svg width="25" height="24" viewBox="0 0 25 24" fill="none" xmlns="http://www.w3.org/2000/svg">
<path d="M16.1 3L20.6 7.5V20.1072C20.5998 20.3441 20.5055 20.5712 20.3379 20.7386C20.1704 20.906 19.9432 21 19.7063 21H5.29372C5.05736 20.9984 4.83114 20.9038 4.66392 20.7367C4.4967 20.5697 4.40191 20.3436 4.40002 20.1072V3.8928C4.40002 3.3996 4.80052 3 5.29372 3H16.1ZM12.5 15.6C13.4548 15.6 14.3705 15.2207 15.0456 14.5456C15.7207 13.8705 16.1 12.9548 16.1 12C16.1 11.0452 15.7207 10.1295 15.0456 9.45442C14.3705 8.77928 13.4548 8.4 12.5 8.4H8.90002V15.6H12.5ZM10.7 10.2H12.5C12.9774 10.2 13.4353 10.3896 13.7728 10.7272C14.1104 11.0648 14.3 11.5226 14.3 12C14.3 12.4774 14.1104 12.9352 13.7728 13.2728C13.4353 13.6104 12.9774 13.8 12.5 13.8H10.7V10.2Z" fill="#0A0D14" style="fill:#0A0D14;fill:color(display-p3 0.0392 0.0510 0.0784);fill-opacity:1;"/>
</svg>
