<svg width="25" height="24" viewBox="0 0 25 24" fill="none" xmlns="http://www.w3.org/2000/svg">
<path d="M14.3 9.3V4.8H6.20002V19.2H11.6504C11.9456 19.5753 12.302 19.9065 12.7124 20.1765L13.9634 21H5.29372C5.05686 21 4.82968 20.906 4.6621 20.7386C4.49453 20.5712 4.40026 20.3441 4.40002 20.1072V3.8928C4.40002 3.4095 4.80412 3 5.30182 3H15.1973L20.6 8.4V9.3H14.3ZM12.5 11.1H20.6V16.4541C20.6 17.3451 20.1491 18.1785 19.3976 18.6726L16.55 20.5482L13.7024 18.6726C13.334 18.4315 13.0312 18.1026 12.8214 17.7155C12.6115 17.3285 12.5011 16.8953 12.5 16.455V11.1ZM14.3 16.4541C14.3 16.7385 14.4458 17.0067 14.6924 17.1696L16.55 18.3936L18.4076 17.1696C18.5273 17.0923 18.6258 16.9864 18.6943 16.8614C18.7628 16.7365 18.7991 16.5966 18.8 16.4541V12.9H14.3V16.4541Z" fill="#0A0D14" style="fill:#0A0D14;fill:color(display-p3 0.0392 0.0510 0.0784);fill-opacity:1;"/>
</svg>
