<svg width="25" height="24" viewBox="0 0 25 24" fill="none" xmlns="http://www.w3.org/2000/svg">
<path d="M17 16.5V18.3C17 18.5387 17.0948 18.7676 17.2636 18.9364C17.4324 19.1052 17.6613 19.2 17.9 19.2C18.1387 19.2 18.3676 19.1052 18.5364 18.9364C18.7052 18.7676 18.8 18.5387 18.8 18.3V4.8H6.20001V14.7H4.40001V3.9C4.40001 3.66131 4.49483 3.43239 4.66361 3.2636C4.83239 3.09482 5.06131 3 5.30001 3H19.7C19.9387 3 20.1676 3.09482 20.3364 3.2636C20.5052 3.43239 20.6 3.66131 20.6 3.9V18.3C20.6 19.0161 20.3155 19.7028 19.8092 20.2092C19.3028 20.7155 18.6161 21 17.9 21H5.30001C4.58392 21 3.89717 20.7155 3.39082 20.2092C2.88447 19.7028 2.60001 19.0161 2.60001 18.3V16.5H17Z" fill="#0A0D14" style="fill:#0A0D14;fill:color(display-p3 0.0392 0.0510 0.0784);fill-opacity:1;"/>
</svg>
