<svg width="25" height="24" viewBox="0 0 25 24" fill="none" xmlns="http://www.w3.org/2000/svg">
<path d="M19.25 8.25L15.5 4.5H6.49505C6.08371 4.5 5.75 4.83304 5.75 5.24385V18.7561C5.75 19.1585 6.08357 19.5 6.49505 19.5H18.5049C18.9163 19.5 19.25 19.167 19.25 18.7561V8.25ZM11.75 10.125C11.75 10.7463 11.2463 11.25 10.625 11.25C10.0037 11.25 9.5 10.7463 9.5 10.125C9.5 9.50368 10.0037 9 10.625 9C11.2463 9 11.75 9.50368 11.75 10.125ZM16.625 15.75H9.5L13.625 10.5L16.625 15.75Z" fill="#0A0D14" style="fill:#0A0D14;fill:color(display-p3 0.0392 0.0510 0.0784);fill-opacity:1;"/>
</svg>
