<svg width="25" height="24" viewBox="0 0 25 24" fill="none" xmlns="http://www.w3.org/2000/svg">
<path d="M11.6 14.7H13.4V16.5H11.6V14.7ZM13.4 13.2195V13.8H11.6V12.45C11.6 12.2113 11.6948 11.9824 11.8636 11.8136C12.0324 11.6448 12.2613 11.55 12.5 11.55C12.7557 11.55 13.0061 11.4774 13.2221 11.3406C13.4381 11.2038 13.6109 11.0085 13.7202 10.7774C13.8296 10.5463 13.8711 10.2889 13.8398 10.0352C13.8086 9.7814 13.706 9.54173 13.5439 9.34402C13.3818 9.14631 13.1668 8.99871 12.9241 8.91837C12.6814 8.83804 12.4209 8.82828 12.1728 8.89023C11.9248 8.95219 11.6994 9.08331 11.523 9.26833C11.3465 9.45336 11.2262 9.68469 11.1761 9.9354L9.41033 9.5817C9.51979 9.03458 9.77258 8.52633 10.1429 8.10893C10.5131 7.69152 10.9876 7.37992 11.5178 7.20599C12.0479 7.03205 12.6148 7.00202 13.1603 7.11895C13.7059 7.23589 14.2107 7.4956 14.623 7.87154C15.0353 8.24748 15.3404 8.72617 15.507 9.25866C15.6737 9.79115 15.696 10.3583 15.5716 10.9023C15.4472 11.4462 15.1806 11.9473 14.7991 12.3545C14.4176 12.7616 13.9347 13.0601 13.4 13.2195ZM15.2 4.8H6.20002V19.2H18.8V8.4H15.2V4.8ZM4.40002 3.8928C4.40002 3.3996 4.80232 3 5.29912 3H16.1L20.6 7.5V20.0937C20.6009 20.2119 20.5784 20.3291 20.5339 20.4386C20.4895 20.5481 20.4239 20.6478 20.3409 20.7319C20.2579 20.8161 20.1591 20.8831 20.0503 20.9291C19.9414 20.9751 19.8245 20.9992 19.7063 21H5.29372C5.05736 20.9984 4.83114 20.9038 4.66392 20.7367C4.4967 20.5697 4.40191 20.3436 4.40002 20.1072V3.8928Z" fill="#0A0D14" style="fill:#0A0D14;fill:color(display-p3 0.0392 0.0510 0.0784);fill-opacity:1;"/>
</svg>
