<svg width="25" height="24" viewBox="0 0 25 24" fill="none" xmlns="http://www.w3.org/2000/svg">
<path d="M16.1 3L20.6 7.5V20.1072C20.5998 20.3441 20.5055 20.5712 20.3379 20.7386C20.1704 20.906 19.9432 21 19.7063 21H5.29372C5.05736 20.9984 4.83114 20.9038 4.66392 20.7367C4.4967 20.5697 4.40191 20.3436 4.40002 20.1072V3.8928C4.40002 3.3996 4.80052 3 5.29372 3H16.1ZM9.43552 12.7308L8.54272 13.2456L9.44272 14.8044L10.3355 14.2887C10.6892 14.6235 11.1212 14.8773 11.6 15.0195V16.05H13.4V15.0195C13.873 14.8785 14.3062 14.6281 14.6645 14.2887L15.5573 14.8044L16.4573 13.2456L15.5645 12.7299C15.6785 12.25 15.6785 11.75 15.5645 11.2701L16.4573 10.7544L15.5573 9.1956L14.6645 9.7113C14.3062 9.37189 13.873 9.12155 13.4 8.9805V7.95H11.6V8.9805C11.127 9.12155 10.6939 9.37189 10.3355 9.7113L9.44272 9.1956L8.54272 10.7544L9.43552 11.2701C9.32141 11.7503 9.32141 12.2506 9.43552 12.7308ZM12.5 13.35C12.142 13.35 11.7986 13.2078 11.5454 12.9546C11.2923 12.7014 11.15 12.358 11.15 12C11.15 11.642 11.2923 11.2986 11.5454 11.0454C11.7986 10.7922 12.142 10.65 12.5 10.65C12.8581 10.65 13.2014 10.7922 13.4546 11.0454C13.7078 11.2986 13.85 11.642 13.85 12C13.85 12.358 13.7078 12.7014 13.4546 12.9546C13.2014 13.2078 12.8581 13.35 12.5 13.35Z" fill="#0A0D14" style="fill:#0A0D14;fill:color(display-p3 0.0392 0.0510 0.0784);fill-opacity:1;"/>
</svg>
