<svg width="25" height="24" viewBox="0 0 25 24" fill="none" xmlns="http://www.w3.org/2000/svg">
<path d="M11.861 19.2C12.0545 19.8498 12.3497 20.4564 12.7295 21H5.29372C5.05736 20.9984 4.83114 20.9038 4.66392 20.7367C4.4967 20.5697 4.40191 20.3436 4.40002 20.1072V3.8928C4.40002 3.3996 4.80232 3 5.29912 3H16.1L20.6 7.5V11.7066C20.0308 11.436 19.4239 11.2531 18.8 11.1639V8.4H15.2V4.8H6.20002V19.2H11.861ZM17.9 21.9C16.7065 21.9 15.562 21.4259 14.718 20.582C13.8741 19.7381 13.4 18.5935 13.4 17.4C13.4 16.2065 13.8741 15.0619 14.718 14.218C15.562 13.3741 16.7065 12.9 17.9 12.9C19.0935 12.9 20.2381 13.3741 21.082 14.218C21.9259 15.0619 22.4 16.2065 22.4 17.4C22.4 18.5935 21.9259 19.7381 21.082 20.582C20.2381 21.4259 19.0935 21.9 17.9 21.9ZM16.7363 19.8372C17.2403 20.0783 17.8066 20.1572 18.3573 20.0629C18.9079 19.9686 19.4158 19.7059 19.8108 19.3108C20.2059 18.9158 20.4687 18.4079 20.5629 17.8573C20.6572 17.3066 20.5783 16.7403 20.3372 16.2363L16.7363 19.8363V19.8372ZM15.4628 18.5637L19.0637 14.9637C18.5598 14.7226 17.9934 14.6437 17.4428 14.738C16.8921 14.8323 16.3842 15.095 15.9892 15.4901C15.5942 15.8851 15.3314 16.393 15.2371 16.9436C15.1428 17.4943 15.2217 18.0606 15.4628 18.5646V18.5637Z" fill="#0A0D14" style="fill:#0A0D14;fill:color(display-p3 0.0392 0.0510 0.0784);fill-opacity:1;"/>
</svg>
