<svg width="25" height="24" viewBox="0 0 25 24" fill="none" xmlns="http://www.w3.org/2000/svg">
<path d="M16.1 8.4V10.2H13.4V14.25C13.3999 14.7143 13.2562 15.1672 12.9885 15.5466C12.7209 15.926 12.3424 16.2133 11.905 16.3691C11.4677 16.5249 10.9928 16.5416 10.5456 16.4168C10.0983 16.2921 9.70065 16.0321 9.40704 15.6724C9.11343 15.3127 8.93827 14.871 8.9056 14.4079C8.87293 13.9447 8.98434 13.4828 9.22455 13.0855C9.46477 12.6881 9.82202 12.3749 10.2473 12.1886C10.6726 12.0023 11.1451 11.9521 11.6 12.045V8.4H15.2V4.8H6.20002V19.2H18.8V8.4H16.1ZM4.40002 3.8928C4.40002 3.3996 4.80232 3 5.29912 3H16.1L20.6 7.5V20.0937C20.6009 20.2119 20.5784 20.3291 20.5339 20.4386C20.4895 20.5481 20.4239 20.6478 20.3409 20.7319C20.2579 20.8161 20.1591 20.8831 20.0503 20.9291C19.9414 20.9751 19.8245 20.9992 19.7063 21H5.29372C5.05736 20.9984 4.83114 20.9038 4.66392 20.7367C4.4967 20.5697 4.40191 20.3436 4.40002 20.1072V3.8928Z" fill="#0A0D14" style="fill:#0A0D14;fill:color(display-p3 0.0392 0.0510 0.0784);fill-opacity:1;"/>
</svg>
