<svg width="25" height="24" viewBox="0 0 25 24" fill="none" xmlns="http://www.w3.org/2000/svg">
<path d="M20.6 10.2H11.6V16.8438C11.6 18.2505 12.2993 19.5645 13.4666 20.3466L14.4413 21H5.29372C5.05686 21 4.82968 20.906 4.6621 20.7386C4.49453 20.5712 4.40026 20.3441 4.40002 20.1072V3.8928C4.40002 3.4095 4.80232 3 5.29822 3H16.0973L20.6 7.5V10.2ZM13.4 12H20.6V16.8438C20.6 17.6511 20.1986 18.4044 19.5317 18.8508L17 20.5491L14.4683 18.8526C14.1391 18.6313 13.8695 18.3324 13.6832 17.9822C13.4969 17.632 13.3996 17.2414 13.4 16.8447V12Z" fill="#0A0D14" style="fill:#0A0D14;fill:color(display-p3 0.0392 0.0510 0.0784);fill-opacity:1;"/>
</svg>
