<svg width="25" height="24" viewBox="0 0 25 24" fill="none" xmlns="http://www.w3.org/2000/svg">
<path d="M17 12.75C17.8196 12.75 18.5881 12.9691 19.2499 13.3519L19.2498 8.25L15.5 4.5H6.49888C6.08562 4.5 5.75 4.83304 5.75 5.24385V18.7561C5.75 19.1585 6.08357 19.5 6.49505 19.5H13.102C12.7192 18.8381 12.5 18.0697 12.5 17.25C12.5 14.7647 14.5147 12.75 17 12.75ZM19.6517 18.8409L18.0607 17.2499L19.6517 15.6589L18.5911 14.5983L17.0001 16.1893L15.4091 14.5983L14.3484 15.6589L15.9394 17.2499L14.3484 18.8409L15.4091 19.9016L17.0001 18.3106L18.5911 19.9016L19.6517 18.8409Z" fill="#0A0D14" style="fill:#0A0D14;fill:color(display-p3 0.0392 0.0510 0.0784);fill-opacity:1;"/>
</svg>
