<svg width="25" height="24" viewBox="0 0 25 24" fill="none" xmlns="http://www.w3.org/2000/svg">
<path d="M14.3 8.4V4.8H6.20002V19.2H18.8V9.3H16.1V13.458C16.1 14.2176 15.6986 14.9277 15.0317 15.3489L12.5 16.9482L9.96833 15.348C9.30142 14.9277 8.90002 14.2176 8.90002 13.458V8.4H14.3ZM20.6 8.4V20.0937C20.6009 20.2119 20.5784 20.3291 20.5339 20.4386C20.4895 20.5481 20.4239 20.6478 20.3409 20.7319C20.2579 20.8161 20.1591 20.8831 20.0503 20.9291C19.9414 20.9751 19.8245 20.9992 19.7063 21H5.29372C5.05686 21 4.82968 20.906 4.6621 20.7386C4.49453 20.5712 4.40026 20.3441 4.40002 20.1072V3.8928C4.40002 3.4095 4.80412 3 5.30182 3H15.1973L20.6 8.4ZM10.7 13.458C10.7 13.593 10.7783 13.7316 10.9295 13.827L12.5 14.8188L14.0705 13.827C14.2217 13.7316 14.3 13.593 14.3 13.458V10.2H10.7V13.458Z" fill="#0A0D14" style="fill:#0A0D14;fill:color(display-p3 0.0392 0.0510 0.0784);fill-opacity:1;"/>
</svg>
