<svg width="25" height="24" viewBox="0 0 25 24" fill="none" xmlns="http://www.w3.org/2000/svg">
<path d="M20.6 14.9187V20.1072C20.5998 20.3441 20.5055 20.5712 20.338 20.7386C20.1704 20.906 19.9432 21 19.7063 21H5.29375C5.17556 20.9992 5.05869 20.9751 4.94981 20.9291C4.84093 20.8831 4.74218 20.8161 4.65919 20.7319C4.5762 20.6478 4.5106 20.5481 4.46614 20.4386C4.42167 20.3291 4.39922 20.2119 4.40005 20.0937V9.3H9.80005C10.0387 9.3 10.2677 9.20518 10.4364 9.0364C10.6052 8.86761 10.7 8.63869 10.7 8.4V3H19.7018C20.1977 3 20.6 3.4095 20.6 3.8928V7.2813L12.5009 15.3813L12.4955 19.1955L16.3169 19.2009L20.6 14.9187ZM21.3002 9.1272L22.5728 10.3998L15.5726 17.4L14.2982 17.3982L14.3 16.1274L21.3002 9.1272ZM4.40005 7.5L8.90005 3.0027V7.5H4.40005Z" fill="#0A0D14" style="fill:#0A0D14;fill:color(display-p3 0.0392 0.0510 0.0784);fill-opacity:1;"/>
</svg>
