<svg width="25" height="24" viewBox="0 0 25 24" fill="none" xmlns="http://www.w3.org/2000/svg">
<path d="M20.6 9.3V20.0937C20.6009 20.2119 20.5784 20.3291 20.5339 20.4386C20.4895 20.5481 20.4239 20.6478 20.3409 20.7319C20.2579 20.8161 20.1591 20.8831 20.0503 20.9291C19.9414 20.9751 19.8245 20.9992 19.7063 21H5.29372C5.05686 21 4.82968 20.906 4.6621 20.7386C4.49453 20.5712 4.40026 20.3441 4.40002 20.1072V3.8928C4.40002 3.4095 4.80232 3 5.29822 3H14.3V8.4C14.3 8.63869 14.3948 8.86761 14.5636 9.0364C14.7324 9.20518 14.9613 9.3 15.2 9.3H20.6ZM20.6 7.5H16.1V3.0027L20.6 7.5ZM8.90002 7.5V9.3H11.6V7.5H8.90002ZM8.90002 11.1V12.9H16.1V11.1H8.90002ZM8.90002 14.7V16.5H16.1V14.7H8.90002Z" fill="#0A0D14" style="fill:#0A0D14;fill:color(display-p3 0.0392 0.0510 0.0784);fill-opacity:1;"/>
</svg>
