<svg width="25" height="24" viewBox="0 0 25 24" fill="none" xmlns="http://www.w3.org/2000/svg">
<path d="M17 3.90068H20.6C20.8387 3.90068 21.0676 3.9955 21.2364 4.16429C21.4052 4.33307 21.5 4.56199 21.5 4.80068V19.2007C21.5 19.4394 21.4052 19.6683 21.2364 19.8371C21.0676 20.0059 20.8387 20.1007 20.6 20.1007H17V3.90068ZM4.27312 3.78998L15.5861 2.17448C15.65 2.16532 15.715 2.17 15.7769 2.18818C15.8388 2.20637 15.896 2.23765 15.9448 2.2799C15.9935 2.32215 16.0326 2.37438 16.0594 2.43306C16.0862 2.49173 16.1 2.55548 16.1 2.61998V21.3814C16.1 21.4458 16.0862 21.5095 16.0594 21.5681C16.0327 21.6267 15.9937 21.6788 15.9451 21.7211C15.8964 21.7633 15.8393 21.7946 15.7775 21.8129C15.7158 21.8311 15.6508 21.8359 15.587 21.8269L4.27222 20.2114C4.05767 20.1808 3.86136 20.0739 3.71933 19.9102C3.57731 19.7465 3.49912 19.5371 3.49911 19.3204V4.68098C3.49912 4.46427 3.57731 4.25484 3.71933 4.09116C3.86136 3.92748 4.05767 3.82054 4.27222 3.78998H4.27312ZM11.6 8.40068V12.8908L9.80001 11.1007L8.00902 12.9007L8.00002 8.40068H6.20002V15.6007H8.00002L9.80001 13.8007L11.6 15.6007H13.4V8.40068H11.6Z" fill="#0A0D14" style="fill:#0A0D14;fill:color(display-p3 0.0392 0.0510 0.0784);fill-opacity:1;"/>
</svg>
