<svg width="25" height="24" viewBox="0 0 25 24" fill="none" xmlns="http://www.w3.org/2000/svg">
<path d="M16.1 3L20.6 7.5V20.1072C20.5998 20.3441 20.5055 20.5712 20.3379 20.7386C20.1703 20.906 19.9432 21 19.7063 21H5.29369C5.05733 20.9984 4.83111 20.9038 4.66389 20.7367C4.49667 20.5697 4.40188 20.3436 4.39999 20.1072V3.8928C4.39999 3.3996 4.80049 3 5.29369 3H16.1ZM12.5 8.4C11.788 8.4 11.092 8.61114 10.4999 9.00671C9.90792 9.40228 9.4465 9.96453 9.17403 10.6223C8.90155 11.2802 8.83026 12.004 8.96917 12.7023C9.10807 13.4007 9.45094 14.0421 9.95441 14.5456C10.4579 15.0491 11.0993 15.3919 11.7977 15.5308C12.496 15.6697 13.2198 15.5984 13.8777 15.326C14.5355 15.0535 15.0977 14.5921 15.4933 14.0001C15.8889 13.408 16.1 12.712 16.1 12H12.5V8.4Z" fill="#0A0D14" style="fill:#0A0D14;fill:color(display-p3 0.0392 0.0510 0.0784);fill-opacity:1;"/>
</svg>
