<svg width="25" height="24" viewBox="0 0 25 24" fill="none" xmlns="http://www.w3.org/2000/svg">
<path d="M14.75 6V9H17.75V18H7.25V6H14.75ZM6.49888 4.5C6.08562 4.5 5.75 4.83304 5.75 5.24385V18.7561C5.75 19.1585 6.08357 19.5 6.49505 19.5H18.5049C18.9163 19.5 19.25 19.1617 19.25 18.7444L19.2498 8.25L15.5 4.5H6.49888ZM14.7506 11.7502L11.0914 9.31076C11.0421 9.2779 10.9842 9.26038 10.925 9.26038C10.7593 9.26038 10.625 9.39469 10.625 9.56038V14.4393C10.625 14.4986 10.6425 14.5564 10.6754 14.6057C10.7673 14.7436 10.9536 14.7809 11.0914 14.6889L14.7506 12.2494C14.7835 12.2275 14.8118 12.1992 14.8338 12.1663C14.9257 12.0284 14.8884 11.8421 14.7506 11.7502Z" fill="#0A0D14" style="fill:#0A0D14;fill:color(display-p3 0.0392 0.0510 0.0784);fill-opacity:1;"/>
</svg>
