<svg width="25" height="24" viewBox="0 0 25 24" fill="none" xmlns="http://www.w3.org/2000/svg">
<path d="M16.1 3L20.6 7.5V20.1072C20.5998 20.3441 20.5055 20.5712 20.3379 20.7386C20.1703 20.906 19.9432 21 19.7063 21H5.29369C5.05733 20.9984 4.83111 20.9038 4.66389 20.7367C4.49667 20.5697 4.40188 20.3436 4.39999 20.1072V3.8928C4.39999 3.3996 4.80049 3 5.29369 3H16.1ZM13.8761 14.2014L15.8651 16.1904L17.1386 14.9187L15.1496 12.9297C15.5929 12.1747 15.7459 11.284 15.5802 10.4243C15.4144 9.56465 14.9412 8.79476 14.249 8.25864C13.5569 7.72252 12.6931 7.45688 11.8193 7.51138C10.9454 7.56589 10.1214 7.93682 9.50119 8.5548C8.88112 9.17435 8.5084 9.99886 8.45293 10.8736C8.39747 11.7484 8.66307 12.6134 9.19993 13.3063C9.73678 13.9992 10.508 14.4725 11.3689 14.6373C12.2298 14.802 13.1213 14.6471 13.8761 14.2014ZM13.3199 12.3726C13.1539 12.5445 12.9552 12.6816 12.7356 12.776C12.516 12.8703 12.2798 12.92 12.0408 12.9221C11.8018 12.9241 11.5648 12.8786 11.3436 12.7881C11.1224 12.6976 10.9214 12.5639 10.7524 12.3949C10.5834 12.2259 10.4497 12.0249 10.3592 11.8037C10.2687 11.5825 10.2232 11.3455 10.2252 11.1065C10.2273 10.8675 10.277 10.6313 10.3713 10.4117C10.4656 10.1921 10.6028 9.99344 10.7747 9.8274C11.1142 9.49952 11.5689 9.31809 12.0408 9.32219C12.5128 9.32629 12.9642 9.51559 13.298 9.84933C13.6317 10.1831 13.821 10.6345 13.8251 11.1065C13.8292 11.5784 13.6478 12.0331 13.3199 12.3726Z" fill="#0A0D14" style="fill:#0A0D14;fill:color(display-p3 0.0392 0.0510 0.0784);fill-opacity:1;"/>
</svg>
