<svg width="25" height="24" viewBox="0 0 25 24" fill="none" xmlns="http://www.w3.org/2000/svg">
<path d="M8.00002 6.6V3.9C8.00002 3.66131 8.09485 3.43239 8.26363 3.2636C8.43241 3.09482 8.66133 3 8.90002 3H19.7C19.9387 3 20.1676 3.09482 20.3364 3.2636C20.5052 3.43239 20.6 3.66131 20.6 3.9V16.5C20.6 16.7387 20.5052 16.9676 20.3364 17.1364C20.1676 17.3052 19.9387 17.4 19.7 17.4H17V20.1C17 20.5968 16.595 21 16.0937 21H5.30632C5.18764 21.0007 5.06998 20.978 4.96011 20.9331C4.85025 20.8882 4.75033 20.822 4.66612 20.7384C4.5819 20.6547 4.51504 20.5553 4.46937 20.4457C4.42371 20.3362 4.40014 20.2187 4.40002 20.1L4.40272 7.5C4.40272 7.0032 4.80772 6.6 5.30902 6.6H8.00002ZM9.80002 6.6H17V15.6H18.8V4.8H9.80002V6.6Z" fill="#0A0D14" style="fill:#0A0D14;fill:color(display-p3 0.0392 0.0510 0.0784);fill-opacity:1;"/>
</svg>
