<svg width="25" height="24" viewBox="0 0 25 24" fill="none" xmlns="http://www.w3.org/2000/svg">
<path d="M20.6 3.90039C21.0968 3.90039 21.5 4.30359 21.5 4.80039V19.2004C21.5 19.6972 21.0968 20.1004 20.6 20.1004H4.4C3.9032 20.1004 3.5 19.6972 3.5 19.2004V4.80039C3.5 4.30359 3.9032 3.90039 4.4 3.90039H20.6ZM19.7 5.70039H12.0815C11.4605 7.47969 11.15 9.87999 11.15 12.9004H13.85C13.7465 13.7284 13.715 14.5906 13.7537 15.4897C14.8571 15.2998 16.1873 14.7904 17.378 13.9507L18.3995 15.4492C16.9217 16.4347 15.4268 17.0503 13.9211 17.2879C13.9679 17.6209 14.0228 17.9584 14.0867 18.3004H19.7V5.70039ZM7.5995 13.9516L6.6005 15.4492C8.5418 16.7434 10.5128 17.4004 12.5 17.4004V15.6004C10.8872 15.6004 9.2582 15.0577 7.5995 13.9516ZM17 7.50039C17.4968 7.50039 17.9 7.90359 17.9 8.40039V9.30039C17.9 9.79719 17.4968 10.2004 17 10.2004C16.5032 10.2004 16.1 9.79719 16.1 9.30039V8.40039C16.1 7.90359 16.5032 7.50039 17 7.50039ZM8 7.50039C7.5032 7.50039 7.1 7.90719 7.1 8.40039V9.30039C7.1 9.79719 7.5032 10.2004 8 10.2004C8.4968 10.2004 8.9 9.79539 8.9 9.30039V8.40039C8.9 7.90359 8.4968 7.50039 8 7.50039Z" fill="#0A0D14" style="fill:#0A0D14;fill:color(display-p3 0.0392 0.0510 0.0784);fill-opacity:1;"/>
</svg>
