<svg width="25" height="24" viewBox="0 0 25 24" fill="none" xmlns="http://www.w3.org/2000/svg">
<path d="M17.9297 16.1562L21.7817 20.0091L20.5091 21.2826L16.6571 17.4297C15.2223 18.5787 13.4382 19.2033 11.6 19.2C10.091 19.2007 8.61185 18.7797 7.32934 17.9846C6.04682 17.1895 5.01198 16.0519 4.3415 14.7H9.8L8.6264 16.6557C9.54083 17.1458 10.5625 17.4015 11.6 17.4C13.2384 17.4026 14.8129 16.7647 15.9875 15.6225L16.1225 15.4875C17.2647 14.3129 17.9026 12.7384 17.9 11.1C17.9 10.4745 17.8091 9.8706 17.639 9.3H19.4993C19.6307 9.8787 19.7 10.4817 19.7 11.1C19.7031 12.9379 19.0786 14.7217 17.9297 16.1562ZM18.8585 7.5H13.4L14.5736 5.5443C13.6592 5.05418 12.6375 4.79845 11.6 4.8C8.1188 4.8 5.3 7.6188 5.3 11.1C5.3 11.7255 5.3909 12.3294 5.561 12.9H3.7007C3.567 12.3093 3.49969 11.7056 3.5 11.1C3.5 6.6243 7.1243 3 11.6 3C13.109 2.99933 14.5881 3.42029 15.8707 4.2154C17.1532 5.01051 18.188 6.14815 18.8585 7.5Z" fill="#0A0D14" style="fill:#0A0D14;fill:color(display-p3 0.0392 0.0510 0.0784);fill-opacity:1;"/>
</svg>
