<svg width="25" height="24" viewBox="0 0 25 24" fill="none" xmlns="http://www.w3.org/2000/svg">
<path d="M17.9279 16.1553L21.7826 20.0091L20.5091 21.2826L16.6553 17.4279C15.2214 18.5774 13.4378 19.2026 11.6 19.2C7.1288 19.2 3.5 15.5712 3.5 11.1C3.5 6.6288 7.1288 3 11.6 3C16.0712 3 19.7 6.6288 19.7 11.1C19.7026 12.9378 19.0774 14.7214 17.9279 16.1553ZM16.6931 9.3C16.3208 8.24686 15.631 7.33511 14.7188 6.69036C13.8067 6.04561 12.717 5.6996 11.6 5.7C8.6165 5.7 6.2 8.1165 6.2 11.1H8C8.00019 10.476 8.16253 9.86276 8.4711 9.3204C8.77967 8.77804 9.22389 8.32518 9.7602 8.0062C10.2965 7.68723 10.9065 7.5131 11.5304 7.50088C12.1543 7.48866 12.7706 7.63877 13.319 7.9365L12.5 9.3H16.6931ZM17 11.1H15.2C15.1998 11.724 15.0375 12.3372 14.7289 12.8796C14.4203 13.422 13.9761 13.8748 13.4398 14.1938C12.9035 14.5128 12.2935 14.6869 11.6696 14.6991C11.0457 14.7113 10.4294 14.5612 9.881 14.2635L10.7 12.9H6.5069C6.87924 13.9531 7.56901 14.8649 8.48117 15.5096C9.39332 16.1544 10.483 16.5004 11.6 16.5C14.5835 16.5 17 14.0835 17 11.1Z" fill="#0A0D14" style="fill:#0A0D14;fill:color(display-p3 0.0392 0.0510 0.0784);fill-opacity:1;"/>
</svg>
