<svg width="25" height="24" viewBox="0 0 25 24" fill="none" xmlns="http://www.w3.org/2000/svg">
<path d="M20.6 3.90039C21.0968 3.90039 21.5 4.30359 21.5 4.80039V19.2004C21.5 19.6972 21.0968 20.1004 20.6 20.1004H4.4C3.9032 20.1004 3.5 19.6972 3.5 19.2004V4.80039C3.5 4.30359 3.9032 3.90039 4.4 3.90039H20.6ZM11.132 5.69949L5.3 5.70039V18.3004H13.1714C13.1156 17.9908 13.067 17.6848 13.0247 17.3824C12.7574 17.3941 12.5828 17.4004 12.5 17.4004C10.5128 17.4004 8.5418 16.7434 6.6005 15.4492L7.5995 13.9516C9.2582 15.0577 10.8872 15.6004 12.5 15.6004C12.6197 15.6004 12.7385 15.5977 12.8582 15.5914C12.8366 15.1441 12.8366 14.3224 12.8645 13.8004H10.25V12.9004C10.25 9.95289 10.538 7.55439 11.132 5.69949ZM13.04 5.69949C12.4415 7.12419 12.1004 9.66939 12.059 12.0004H14.8697L14.7437 13.012C14.6528 13.7365 14.6204 14.4925 14.6465 15.28C15.5582 15.01 16.4744 14.569 17.4005 13.9516L18.3995 15.4492C17.2115 16.2412 16.0127 16.7947 14.8058 17.1052C14.8571 17.4949 14.9228 17.8936 15.0029 18.2995L19.7 18.3004V5.70039L13.04 5.69949ZM8 7.50039C8.4968 7.50039 8.9 7.90359 8.9 8.40039V9.30039C8.9 9.79719 8.4968 10.2004 8 10.2004C7.5032 10.2004 7.1 9.79719 7.1 9.30039V8.40039C7.1 7.90359 7.5032 7.50039 8 7.50039ZM17 7.50039C17.4968 7.50039 17.9 7.90359 17.9 8.40039V9.30039C17.9 9.79719 17.4968 10.2004 17 10.2004C16.5032 10.2004 16.1 9.79719 16.1 9.30039V8.40039C16.1 7.90359 16.5032 7.50039 17 7.50039Z" fill="#0A0D14" style="fill:#0A0D14;fill:color(display-p3 0.0392 0.0510 0.0784);fill-opacity:1;"/>
</svg>
