<svg width="25" height="24" viewBox="0 0 25 24" fill="none" xmlns="http://www.w3.org/2000/svg">
<path d="M12.5 2.09962C14.6483 2.09962 16.7085 2.95301 18.2276 4.47205C19.7466 5.9911 20.6 8.05136 20.6 10.1996V13.7996C20.6004 15.1031 20.2862 16.3875 19.6841 17.5436C19.082 18.6997 18.2098 19.6934 17.1416 20.4403C16.0733 21.1873 14.8406 21.6654 13.548 21.8341C12.2555 22.0027 10.9414 21.8569 9.7172 21.4091C9.8324 21.2498 9.9431 21.0878 10.0493 20.9213L10.2023 20.6693C11.075 19.2132 11.5556 17.5559 11.5973 15.8588L11.6 15.5996V9.29962H13.4V15.5996C13.4019 17.1445 13.0969 18.6744 12.5027 20.1005C13.1978 20.1002 13.888 19.9852 14.5457 19.7603C14.9435 18.5354 15.1694 17.2331 15.1973 15.8813L15.2 15.5996V12.8987H17V15.5996C17 16.5788 16.9082 17.5373 16.7318 18.4661C17.3569 17.9009 17.8618 17.2157 18.2165 16.4512C18.5712 15.6868 18.7684 14.8588 18.7964 14.0165L18.8 13.7996V10.1996C18.8 9.0304 18.4746 7.88424 17.8603 6.88942C17.2459 5.8946 16.3669 5.09037 15.3215 4.56673C14.2761 4.04309 13.1056 3.82071 11.9409 3.92446C10.7763 4.02822 9.66358 4.45402 8.7272 5.15422L7.4447 3.87082C8.87883 2.72177 10.6623 2.09689 12.5 2.09962ZM8 10.1996C8 9.00614 8.47411 7.86155 9.31802 7.01764C10.1619 6.17372 11.3065 5.69962 12.5 5.69962C13.6935 5.69962 14.8381 6.17372 15.682 7.01764C16.5259 7.86155 17 9.00614 17 10.1996V11.0996H15.2V10.1996C15.2007 9.4968 14.9273 8.82142 14.4379 8.31698C13.9485 7.81254 13.2817 7.5188 12.5792 7.49818C11.8767 7.47755 11.1939 7.73167 10.6757 8.20653C10.1576 8.6814 9.84506 9.33957 9.8045 10.0412L9.8 10.1996V15.5996C9.8 17.0099 9.44 18.3356 8.8064 19.4903L8.7848 19.5263C8.5778 19.8989 8.3429 20.2535 8.081 20.5874C7.68523 20.3293 7.31272 20.0372 6.9677 19.7144L6.6896 19.4444C5.21857 17.934 4.39681 15.908 4.4 13.7996V10.1996C4.4 8.28712 5.0624 6.52942 6.1712 5.14432L7.4546 6.42682C6.6827 7.45572 6.24596 8.69715 6.2036 9.98272L6.2 10.1996V13.7996C6.2 15.3071 6.7292 16.6904 7.613 17.7749C7.84539 17.147 7.97486 16.4857 7.9964 15.8165L8 15.5996V10.1996Z" fill="#0A0D14" style="fill:#0A0D14;fill:color(display-p3 0.0392 0.0510 0.0784);fill-opacity:1;"/>
</svg>
