<svg width="25" height="24" viewBox="0 0 25 24" fill="none" xmlns="http://www.w3.org/2000/svg">
<path d="M12.5 2.09961C14.6483 2.09961 16.7085 2.953 18.2276 4.47204C19.7466 5.99109 20.6 8.05136 20.6 10.1996V13.7996C20.6009 15.0969 20.2899 16.3754 19.6931 17.5273C19.0963 18.6792 18.2313 19.6707 17.171 20.4182C17.5976 19.0484 17.846 17.6003 17.8928 16.1009L17.9 15.5996V13.7987H16.1V15.5996L16.0973 15.8831C16.0616 17.8458 15.6232 19.7802 14.8094 21.5666C13.7668 21.8746 12.6731 21.9707 11.5928 21.8492C12.7072 20.0895 13.3292 18.0631 13.3937 15.9812L13.4 15.5996V9.29961H11.6V15.5996L11.5964 15.8588C11.5475 17.8566 10.8925 19.7922 9.7181 21.4091C8.8594 21.0949 8.06026 20.6372 7.3547 20.0555C8.29506 18.8664 8.83391 17.4096 8.8937 15.8948L8.9 15.5996V10.1996L8.9045 10.0196C8.92926 9.50977 9.06274 9.01113 9.296 8.55711L9.3986 8.37081L8.0981 7.07031C7.49983 7.90943 7.15554 8.90293 7.1063 9.93231L7.1 10.1996V15.5996L7.0964 15.8021C7.05833 16.8621 6.70727 17.8871 6.0875 18.7478C4.99099 17.3316 4.39725 15.5907 4.4 13.7996V10.1996C4.4 8.05136 5.25339 5.99109 6.77244 4.47204C8.29148 2.953 10.3517 2.09961 12.5 2.09961ZM12.5 4.79961C11.4236 4.79961 10.421 5.11461 9.5786 5.65731L9.3716 5.79771L10.6712 7.09821C11.1606 6.80869 11.7119 6.63993 12.2795 6.60591L12.5 6.59961L12.68 6.60411C13.5705 6.64862 14.4129 7.02203 15.0439 7.65202C15.6748 8.28201 16.0496 9.12375 16.0955 10.0142L16.1 10.1996V11.9996H17.9V10.1996C17.9 8.76744 17.3311 7.39393 16.3184 6.38123C15.3057 5.36854 13.9322 4.79961 12.5 4.79961Z" fill="#0A0D14" style="fill:#0A0D14;fill:color(display-p3 0.0392 0.0510 0.0784);fill-opacity:1;"/>
</svg>
