<svg width="25" height="24" viewBox="0 0 25 24" fill="none" xmlns="http://www.w3.org/2000/svg">
<path d="M17 12.9V13.8C17 16.293 16.4024 18.7005 15.2765 20.8614L15.0722 21.2394L13.4999 20.3628C14.5439 18.4908 15.1289 16.3938 15.1937 14.2104L15.2 13.8V12.9H17ZM11.6 10.2H13.4V13.8L13.3955 14.1411C13.3275 16.605 12.4795 18.9838 10.9736 20.9352L10.7657 21.1962L9.3707 20.0586C10.7445 18.3809 11.5262 16.2967 11.5946 14.1294L11.6 13.8V10.2ZM12.5 6.60001C13.6935 6.60001 14.8381 7.07411 15.682 7.91803C16.5259 8.76194 17 9.90653 17 11.1H15.2C15.2 10.3839 14.9155 9.69717 14.4092 9.19082C13.9028 8.68447 13.2161 8.40001 12.5 8.40001C11.7839 8.40001 11.0972 8.68447 10.5908 9.19082C10.0845 9.69717 9.8 10.3839 9.8 11.1V13.8C9.8 15.8115 9.062 17.7096 7.7561 19.1793L7.5653 19.3863L6.2621 18.1443C7.31506 17.0427 7.93092 15.5953 7.9946 14.0727L8 13.8V11.1C8 9.90653 8.47411 8.76194 9.31802 7.91803C10.1619 7.07411 11.3065 6.60001 12.5 6.60001ZM12.5 3.00001C14.6483 3.00001 16.7085 3.8534 18.2276 5.37244C19.7466 6.89149 20.6 8.95176 20.6 11.1V13.8C20.6 15.3282 20.4182 16.833 20.0627 18.291L19.9376 18.7761L18.2006 18.3027C18.5534 17.0094 18.7523 15.6729 18.7928 14.3112L18.8 13.8V11.1C18.8 9.93079 18.4746 8.78463 17.8603 7.78981C17.2459 6.79499 16.3669 5.99076 15.3215 5.46712C14.2761 4.94348 13.1056 4.7211 11.9409 4.82485C10.7763 4.92861 9.66358 5.35441 8.7272 6.05461L7.4447 4.77121C8.87883 3.62216 10.6623 2.99728 12.5 3.00001ZM6.1712 6.04471L7.4546 7.32721C6.6827 8.35611 6.24596 9.59754 6.2036 10.8831L6.2 11.1L6.2036 12.9C6.2036 13.908 5.966 14.8827 5.5178 15.7593L5.3774 16.0203L3.8141 15.1275C4.1561 14.529 4.3559 13.8612 4.3955 13.1628L4.4036 12.9V11.1C4.39826 9.26251 5.02203 7.47853 6.1712 6.04471Z" fill="#0A0D14" style="fill:#0A0D14;fill:color(display-p3 0.0392 0.0510 0.0784);fill-opacity:1;"/>
</svg>
