<svg width="25" height="24" viewBox="0 0 25 24" fill="none" xmlns="http://www.w3.org/2000/svg">
<path d="M12.5 21.9008C11.1475 21.9007 9.82614 21.4942 8.70735 20.7341C7.58856 19.974 6.72393 18.8954 6.22555 17.638C5.72717 16.3806 5.61803 15.0024 5.91229 13.6823C6.20655 12.3621 6.89063 11.1608 7.87584 10.2341C9.08364 9.09738 12.05 7.05078 11.6 2.55078C17 6.15078 19.7 9.75078 14.3 15.1508C15.2 15.1508 16.55 15.1508 18.8 12.9278C19.043 13.6235 19.25 14.3714 19.25 15.1508C19.25 16.941 18.5389 18.6579 17.273 19.9238C16.0071 21.1896 14.2902 21.9008 12.5 21.9008Z" fill="#0A0D14" style="fill:#0A0D14;fill:color(display-p3 0.0392 0.0510 0.0784);fill-opacity:1;"/>
</svg>
