<svg width="25" height="24" viewBox="0 0 25 24" fill="none" xmlns="http://www.w3.org/2000/svg">
<path d="M12.5 3C17.4707 3 21.5 7.0293 21.5 12C21.5 16.9707 17.4707 21 12.5 21C7.5293 21 3.5 16.9707 3.5 12C3.5 10.6824 3.7826 9.4314 4.292 8.3046C4.7114 7.4595 5.4017 6.618 5.957 6.33C5.3693 7.4847 5.0813 8.616 5.021 9.3747C5.4296 8.0247 6.2045 6.8934 7.289 6.0951C9.1484 4.728 11.6522 4.6668 12.6494 5.5371C10.799 6.1734 8.783 8.7303 9.2267 11.7255C9.2987 12.2205 9.4472 12.7011 9.6668 13.1493C9.3212 12.2403 9.2906 10.9596 9.8486 10.1271C10.4714 9.2001 11.3588 9.0039 11.834 9.1047C11.6468 9.0651 11.2328 9.8571 11.1716 9.9966C11.0159 10.3512 10.9385 10.7346 10.9457 11.1216C10.9591 11.9301 11.2924 12.7004 11.8727 13.2636C13.6025 14.9475 16.3934 14.2851 17.6435 12.3618C18.5012 11.0379 18.6056 8.7906 17.504 7.005C17.2291 6.5702 16.9014 6.17116 16.5284 5.817C14.8634 4.2276 12.4964 3.504 10.2446 3.8325C9.2492 3.9918 8.4023 4.2789 7.703 4.6929C8.6795 3.7182 10.619 3 12.5 3ZM7.8875 8.1345C5.8598 8.8374 4.7366 10.9875 5.5664 13.9485C5.98152 15.423 6.85583 16.7267 8.06237 17.6704C9.26892 18.6141 10.7449 19.1487 12.2759 19.1964L12.5 19.2C14.3323 19.2001 16.0958 18.5016 17.431 17.2467C18.7663 15.9919 19.5729 14.2752 19.6865 12.4464L19.6946 12.2556C19.5776 12.5697 19.4399 12.8622 19.2779 13.1376L19.1519 13.3419C17.2583 16.257 13.139 17.0094 10.6199 14.5551C10.2772 14.2226 9.98548 13.8414 9.7541 13.4238L9.6587 13.2429C8.0963 12.8946 7.3331 12.0495 7.37 10.7076C7.3943 9.8157 7.577 8.9436 7.8875 8.1336V8.1345Z" fill="#0A0D14" style="fill:#0A0D14;fill:color(display-p3 0.0392 0.0510 0.0784);fill-opacity:1;"/>
</svg>
