<svg width="25" height="24" viewBox="0 0 25 24" fill="none" xmlns="http://www.w3.org/2000/svg">
<path d="M12.5 21.9008C14.2902 21.9008 16.0071 21.1896 17.273 19.9238C18.5389 18.6579 19.25 16.941 19.25 15.1508C19.25 14.3714 19.043 13.6235 18.8 12.9278C17.2997 14.4101 16.1603 15.1508 15.38 15.1508C18.9755 8.85078 17 6.15078 11.6 2.55078C12.05 7.05078 9.08364 9.09738 7.87584 10.2341C6.89063 11.1608 6.20655 12.3621 5.91229 13.6823C5.61803 15.0024 5.72717 16.3806 6.22555 17.638C6.72393 18.8954 7.58856 19.974 8.70735 20.7341C9.82614 21.4942 11.1475 21.9007 12.5 21.9008ZM13.139 5.91228C16.0559 8.38728 16.0703 10.3106 13.8167 14.2589C13.1318 15.4586 13.9985 16.9508 15.38 16.9508C15.9992 16.9508 16.6256 16.7708 17.2871 16.4153C17.0911 17.156 16.7257 17.841 16.2199 18.4165C15.714 18.992 15.0815 19.4422 14.3721 19.7317C13.6627 20.0211 12.8958 20.142 12.1317 20.0847C11.3677 20.0274 10.6273 19.7935 9.96906 19.4014C9.31077 19.0093 8.75248 18.4698 8.33815 17.8253C7.92382 17.1808 7.66476 16.4489 7.58137 15.6873C7.49798 14.9256 7.59254 14.155 7.8576 13.4361C8.12265 12.7172 8.55098 12.0697 9.10884 11.5445C9.22224 11.4383 9.79734 10.928 9.82254 10.9055C10.2041 10.5635 10.5182 10.2602 10.8287 9.92808C11.9357 8.74188 12.7313 7.42608 13.1381 5.91228H13.139Z" fill="#0A0D14" style="fill:#0A0D14;fill:color(display-p3 0.0392 0.0510 0.0784);fill-opacity:1;"/>
</svg>
