<svg width="25" height="24" viewBox="0 0 25 24" fill="none" xmlns="http://www.w3.org/2000/svg">
<path d="M16.1 2.09961C16.5968 2.09961 17 2.50281 17 2.99961V5.69961H20.6C21.0968 5.69961 21.5 6.10281 21.5 6.59961V19.1996C21.5 19.6964 21.0968 20.0996 20.6 20.0996H4.4C3.9032 20.0996 3.5 19.6964 3.5 19.1996V6.59961C3.5 6.10281 3.9032 5.69961 4.4 5.69961H8V2.99961C8 2.50281 8.4032 2.09961 8.9 2.09961H16.1ZM13.4 9.29961H11.6V11.9996H8.9V13.7996H11.5991L11.6 16.4996H13.4L13.3991 13.7996H16.1V11.9996H13.4V9.29961ZM15.2 3.89961H9.8V5.69961H15.2V3.89961Z" fill="#0A0D14" style="fill:#0A0D14;fill:color(display-p3 0.0392 0.0510 0.0784);fill-opacity:1;"/>
</svg>
