<svg width="25" height="24" viewBox="0 0 25 24" fill="none" xmlns="http://www.w3.org/2000/svg">
<path d="M4.39999 3.8999H12.8438C13.0109 3.89999 13.1747 3.9466 13.3168 4.0345C13.4589 4.1224 13.5737 4.24813 13.6484 4.3976L14.3 5.6999H19.7C19.9387 5.6999 20.1676 5.79472 20.3364 5.96351C20.5052 6.13229 20.6 6.36121 20.6 6.5999V16.4999C20.6 16.7386 20.5052 16.9675 20.3364 17.1363C20.1676 17.3051 19.9387 17.3999 19.7 17.3999H13.9562C13.7891 17.3998 13.6253 17.3532 13.4832 17.2653C13.3411 17.1774 13.2263 17.0517 13.1516 16.9022L12.5 15.5999H6.19999V20.9999H4.39999V3.8999Z" fill="#0A0D14" style="fill:#0A0D14;fill:color(display-p3 0.0392 0.0510 0.0784);fill-opacity:1;"/>
</svg>
