<svg width="25" height="24" viewBox="0 0 25 24" fill="none" xmlns="http://www.w3.org/2000/svg">
<path d="M5.3 16.4999V20.9999H3.5V3.8999H20.7242C20.8031 3.89977 20.8806 3.92037 20.949 3.95965C21.0174 3.99892 21.0743 4.05549 21.114 4.12368C21.1536 4.19187 21.1746 4.26928 21.175 4.34816C21.1753 4.42704 21.1548 4.50461 21.1157 4.5731L17.9 10.1999L21.1157 15.8267C21.1548 15.8952 21.1753 15.9728 21.175 16.0516C21.1746 16.1305 21.1536 16.2079 21.114 16.2761C21.0743 16.3443 21.0174 16.4009 20.949 16.4402C20.8806 16.4794 20.8031 16.5 20.7242 16.4999H5.3ZM5.3 5.6999V14.6999H18.3986L15.8264 10.1999L18.3986 5.6999H5.3Z" fill="#0A0D14" style="fill:#0A0D14;fill:color(display-p3 0.0392 0.0510 0.0784);fill-opacity:1;"/>
</svg>
