<svg width="25" height="24" viewBox="0 0 25 24" fill="none" xmlns="http://www.w3.org/2000/svg">
<path d="M16.0999 3V4.8H15.1999V7.7187C15.1999 8.7609 15.4258 9.7896 15.8623 10.7355L19.7161 19.0839C20.0284 19.7616 19.7323 20.5635 19.0555 20.8749C18.8782 20.9577 18.6856 21 18.4903 21H6.50955C5.76435 21 5.15955 20.3952 5.15955 19.65C5.15955 19.4547 5.20185 19.2612 5.28375 19.0839L9.13755 10.7355C9.57405 9.7905 9.79995 8.7609 9.79995 7.7187V4.8H8.89995V3H16.0999ZM13.7491 10.2009H11.2507C11.1571 10.5276 11.0437 10.8498 10.9141 11.1648L10.7719 11.4897L7.21245 19.2H17.7865L14.2279 11.4897C14.0353 11.0721 13.8751 10.641 13.7491 10.2009ZM11.5999 7.7187C11.5999 7.9464 11.5909 8.1741 11.5738 8.4009H13.426C13.417 8.292 13.4116 8.1831 13.4071 8.0733L13.3999 7.7187V4.8H11.5999V7.7187Z" fill="#0A0D14" style="fill:#0A0D14;fill:color(display-p3 0.0392 0.0510 0.0784);fill-opacity:1;"/>
</svg>
