<svg width="25" height="24" viewBox="0 0 25 24" fill="none" xmlns="http://www.w3.org/2000/svg">
<path d="M7.99998 15.75C10.0711 15.75 11.75 14.0711 11.75 12C11.75 9.92924 10.0711 8.25 7.99998 8.25C5.92887 8.25 4.25 9.92924 4.25 12C4.25 14.0711 5.92887 15.75 7.99998 15.75ZM10.25 12C10.25 13.2427 9.24267 14.25 7.99998 14.25C6.7573 14.25 5.75 13.2427 5.75 12C5.75 10.7576 6.75739 9.75 7.99998 9.75C9.24257 9.75 10.25 10.7576 10.25 12ZM17 15.75C19.0711 15.75 20.75 14.0711 20.75 12C20.75 9.92924 19.0711 8.25 17 8.25C14.9289 8.25 13.25 9.92924 13.25 12C13.25 14.0711 14.9289 15.75 17 15.75ZM19.25 12C19.25 13.2427 18.2427 14.25 17 14.25C15.7573 14.25 14.75 13.2427 14.75 12C14.75 10.7576 15.7574 9.75 17 9.75C18.2426 9.75 19.25 10.7576 19.25 12Z" fill="#0A0D14" style="fill:#0A0D14;fill:color(display-p3 0.0392 0.0510 0.0784);fill-opacity:1;"/>
</svg>
