<svg width="25" height="24" viewBox="0 0 25 24" fill="none" xmlns="http://www.w3.org/2000/svg">
<path d="M11.1302 11.6689L7.07121 5.30409L8.80911 4.83789L15.065 10.6159L19.8008 9.34689C20.1467 9.25428 20.5152 9.30285 20.8252 9.48193C21.1353 9.66101 21.3615 9.95592 21.4541 10.3018C21.5467 10.6477 21.4981 11.0162 21.3191 11.3262C21.14 11.6363 20.8451 11.8625 20.4992 11.9551L7.02441 15.5641L6.32601 12.9559L6.54291 12.8974L8.76321 15.0979L6.39981 15.7315C6.20601 15.7835 6.0004 15.7692 5.81565 15.6909C5.6309 15.6126 5.4776 15.4749 5.38011 15.2995L3.01941 11.0461L4.32351 10.6969L6.54291 12.8974L11.1302 11.668V11.6689ZM5.30001 18.3001H19.7V20.1001H5.30001V18.3001Z" fill="#0A0D14" style="fill:#0A0D14;fill:color(display-p3 0.0392 0.0510 0.0784);fill-opacity:1;"/>
</svg>
