<svg width="25" height="24" viewBox="0 0 25 24" fill="none" xmlns="http://www.w3.org/2000/svg">
<path d="M10.9286 10.6239L10.5956 3.08008L12.3353 3.54628L14.8643 11.6778L19.5992 12.9468C19.7705 12.9926 19.931 13.0718 20.0717 13.1797C20.2124 13.2876 20.3304 13.4221 20.4191 13.5757C20.5078 13.7292 20.5653 13.8987 20.5885 14.0744C20.6117 14.2502 20.6 14.4288 20.5541 14.6001C20.5083 14.7713 20.4291 14.9319 20.3212 15.0726C20.2133 15.2132 20.0788 15.3313 19.9253 15.4199C19.7717 15.5086 19.6022 15.5662 19.4265 15.5893C19.2507 15.6125 19.0721 15.6008 18.9008 15.555L5.42604 11.9442L6.12444 9.33598L6.34224 9.39448L7.16484 12.4095L4.80054 11.7768C4.6068 11.7246 4.43603 11.6093 4.31537 11.449C4.1947 11.2887 4.13105 11.0927 4.13453 10.8921L4.21554 6.02938L5.51964 6.37858L6.34224 9.39448L10.9286 10.6239ZM5.30004 18.3009H19.7V20.1009H5.30004V18.3009Z" fill="#0A0D14" style="fill:#0A0D14;fill:color(display-p3 0.0392 0.0510 0.0784);fill-opacity:1;"/>
</svg>
