<svg width="25" height="24" viewBox="0 0 25 24" fill="none" xmlns="http://www.w3.org/2000/svg">
<path d="M16.1 16.9263C17.089 17.8135 18.3714 18.3034 19.7 18.3015H21.5V20.1015H19.7C18.4361 20.1036 17.1941 19.7714 16.1 19.1385C15.006 19.7715 13.7639 20.1037 12.5 20.1015C11.2361 20.1036 9.99409 19.7714 8.90001 19.1385C7.80597 19.7715 6.56395 20.1037 5.30001 20.1015H3.50001V18.3015H5.30001C6.68331 18.3015 7.94601 17.7813 8.90001 16.9263C9.88904 17.8135 11.1714 18.3034 12.5 18.3015C13.8833 18.3015 15.146 17.7813 16.1 16.9263ZM13.0157 2.58034L13.1057 2.65234L22.4 11.1015H19.7V16.5015C19.0869 16.5023 18.4782 16.3985 17.9 16.1946V9.44284L12.5 4.53334L7.10001 9.44194L7.10091 16.1937C6.60768 16.3682 6.09165 16.4697 5.56911 16.4952L5.30001 16.5015V11.1015H2.60001L11.8943 2.65234C12.0453 2.5149 12.2386 2.4329 12.4424 2.41982C12.6462 2.40673 12.8483 2.46334 13.0157 2.58034Z" fill="#0A0D14" style="fill:#0A0D14;fill:color(display-p3 0.0392 0.0510 0.0784);fill-opacity:1;"/>
</svg>
