<svg width="25" height="24" viewBox="0 0 25 24" fill="none" xmlns="http://www.w3.org/2000/svg">
<path d="M16.1 16.9265C17.089 17.8137 18.3714 18.3035 19.7 18.3017H21.5V20.1017H19.7C18.4361 20.1038 17.1941 19.7715 16.1 19.1387C15.006 19.7717 13.7639 20.1039 12.5 20.1017C11.2361 20.1038 9.99409 19.7715 8.90001 19.1387C7.80597 19.7717 6.56395 20.1039 5.30001 20.1017H3.50001V18.3017H5.30001C6.68331 18.3017 7.94601 17.7815 8.90001 16.9265C9.88904 17.8137 11.1714 18.3035 12.5 18.3017C13.8833 18.3017 15.146 17.7815 16.1 16.9265ZM13.0157 2.58051L13.1057 2.65251L22.4 11.1017H19.7V16.5017C19.0013 16.5023 18.3121 16.3399 17.6872 16.0274C17.0622 15.7149 16.5188 15.261 16.1 14.7017C15.6813 15.2611 15.1379 15.7151 14.5129 16.0276C13.888 16.3401 13.1987 16.5024 12.5 16.5017C11.8013 16.5023 11.1121 16.3399 10.4872 16.0274C9.86223 15.7149 9.31878 15.261 8.90001 14.7017C8.48133 15.2611 7.9379 15.7151 7.31294 16.0276C6.68798 16.3401 5.99873 16.5024 5.30001 16.5017L5.29911 11.1017H2.60001L11.8943 2.65251C12.0312 2.5279 12.2031 2.44852 12.3867 2.42516C12.5703 2.40181 12.7566 2.43563 12.9203 2.52201L13.0157 2.58051Z" fill="#0A0D14" style="fill:#0A0D14;fill:color(display-p3 0.0392 0.0510 0.0784);fill-opacity:1;"/>
</svg>
