<svg width="25" height="24" viewBox="0 0 25 24" fill="none" xmlns="http://www.w3.org/2000/svg">
<path d="M7.1 20.5508C5.3603 20.5508 3.95 19.1406 3.95 17.4009C3.95 15.6611 5.3603 14.2508 7.1 14.2508C8.5265 14.2508 9.7316 15.1995 10.1195 16.5008H15.2V14.7008H17V9.51865L14.9813 7.50085H9.8V9.30085H4.4V3.90085H9.8V5.70085H14.9813L17.9 2.78125L21.7187 6.60085L18.8 9.51775V14.7008H20.6V20.1009H15.2V18.3008H10.1195C9.7325 19.6023 8.5265 20.5508 7.1 20.5508ZM7.1 16.0508C6.3548 16.0508 5.75 16.6557 5.75 17.4009C5.75 18.1461 6.3548 18.7508 7.1 18.7508C7.8452 18.7508 8.45 18.1461 8.45 17.4009C8.45 16.6557 7.8452 16.0508 7.1 16.0508ZM18.8 16.5008H17V18.3008H18.8V16.5008ZM17.9 5.32825L16.6274 6.60085L17.9 7.87345L19.1726 6.60085L17.9 5.32825ZM8 5.70085H6.2V7.50085H8V5.70085Z" fill="#0A0D14" style="fill:#0A0D14;fill:color(display-p3 0.0392 0.0510 0.0784);fill-opacity:1;"/>
</svg>
