<svg width="25" height="24" viewBox="0 0 25 24" fill="none" xmlns="http://www.w3.org/2000/svg">
<path d="M7.1 3.90156V2.10156H8.9V3.90156H20.6072C21.1004 3.90156 21.5 4.30206 21.5 4.79526V19.2079C21.4984 19.4442 21.4038 19.6704 21.2367 19.8377C21.0697 20.0049 20.8436 20.0997 20.6072 20.1016H4.3928C4.15593 20.1013 3.92885 20.0071 3.76144 19.8395C3.59403 19.6719 3.5 19.4447 3.5 19.2079V4.79526C3.50165 4.5589 3.59621 4.33268 3.76326 4.16546C3.93031 3.99824 4.15644 3.90345 4.3928 3.90156H7.1ZM9.8 14.7016C10.5161 14.7016 11.2028 14.4171 11.7092 13.9108C12.2155 13.4044 12.5 12.7176 12.5 12.0016C12.5 11.2855 12.2155 10.5987 11.7092 10.0924C11.2028 9.58603 10.5161 9.30156 9.8 9.30156C9.08392 9.30156 8.39716 9.58603 7.89081 10.0924C7.38446 10.5987 7.1 11.2855 7.1 12.0016C7.1 12.7176 7.38446 13.4044 7.89081 13.9108C8.39716 14.4171 9.08392 14.7016 9.8 14.7016ZM14.3 9.30156V11.1016H17.9V9.30156H14.3ZM14.3 12.9016V14.7016H17.9V12.9016H14.3Z" fill="#0A0D14" style="fill:#0A0D14;fill:color(display-p3 0.0392 0.0510 0.0784);fill-opacity:1;"/>
</svg>
