<svg width="25" height="24" viewBox="0 0 25 24" fill="none" xmlns="http://www.w3.org/2000/svg">
<path d="M17 10.2016H19.7V6.60156H5.3V10.2016H15.2V8.40156H17V10.2016ZM7.1 3.90156V2.10156H8.9V3.90156H20.6072C21.1004 3.90156 21.5 4.30206 21.5 4.79526V19.2079C21.4984 19.4442 21.4038 19.6704 21.2367 19.8377C21.0697 20.0049 20.8436 20.0997 20.6072 20.1016H4.3928C4.15593 20.1013 3.92885 20.0071 3.76144 19.8395C3.59403 19.6719 3.5 19.4447 3.5 19.2079V4.79526C3.50165 4.5589 3.59621 4.33268 3.76326 4.16546C3.93031 3.99824 4.15644 3.90345 4.3928 3.90156H7.1ZM8 18.3016C8.71608 18.3016 9.40284 18.0171 9.90919 17.5108C10.4155 17.0044 10.7 16.3176 10.7 15.6016C10.7 14.8855 10.4155 14.1987 9.90919 13.6924C9.40284 13.186 8.71608 12.9016 8 12.9016C7.28392 12.9016 6.59716 13.186 6.09081 13.6924C5.58446 14.1987 5.3 14.8855 5.3 15.6016C5.3 16.3176 5.58446 17.0044 6.09081 17.5108C6.59716 18.0171 7.28392 18.3016 8 18.3016Z" fill="#0A0D14" style="fill:#0A0D14;fill:color(display-p3 0.0392 0.0510 0.0784);fill-opacity:1;"/>
</svg>
