<svg width="25" height="24" viewBox="0 0 25 24" fill="none" xmlns="http://www.w3.org/2000/svg">
<path d="M17 10.2016V8.40156H15.2V10.2016H6.2V6.60156H18.8V10.2016H17ZM7.1 3.90156V2.10156H8.9V3.90156H20.6072C21.1004 3.90156 21.5 4.30206 21.5 4.79526V19.2079C21.4984 19.4442 21.4038 19.6704 21.2367 19.8377C21.0697 20.0049 20.8436 20.0997 20.6072 20.1016H4.3928C4.15593 20.1013 3.92885 20.0071 3.76144 19.8395C3.59403 19.6719 3.5 19.4447 3.5 19.2079V4.79526C3.50165 4.5589 3.59621 4.33268 3.76326 4.16546C3.93031 3.99824 4.15644 3.90345 4.3928 3.90156H7.1ZM5.3 5.70156V18.3016H19.7V5.70156H5.3ZM8.9 17.4016C8.18392 17.4016 7.49716 17.1171 6.99081 16.6108C6.48446 16.1044 6.2 15.4176 6.2 14.7016C6.2 13.9855 6.48446 13.2987 6.99081 12.7924C7.49716 12.286 8.18392 12.0016 8.9 12.0016C9.61608 12.0016 10.3028 12.286 10.8092 12.7924C11.3155 13.2987 11.6 13.9855 11.6 14.7016C11.6 15.4176 11.3155 16.1044 10.8092 16.6108C10.3028 17.1171 9.61608 17.4016 8.9 17.4016Z" fill="#0A0D14" style="fill:#0A0D14;fill:color(display-p3 0.0392 0.0510 0.0784);fill-opacity:1;"/>
</svg>
