<svg width="25" height="24" viewBox="0 0 25 24" fill="none" xmlns="http://www.w3.org/2000/svg">
<path d="M12.5 19.2C14.4096 19.2 16.2409 18.4414 17.5912 17.0912C18.9414 15.7409 19.7 13.9096 19.7 12C19.7 10.0904 18.9414 8.25909 17.5912 6.90883C16.2409 5.55857 14.4096 4.8 12.5 4.8C10.5904 4.8 8.75909 5.55857 7.40883 6.90883C6.05857 8.25909 5.3 10.0904 5.3 12C5.3 13.9096 6.05857 15.7409 7.40883 17.0912C8.75909 18.4414 10.5904 19.2 12.5 19.2ZM12.5 21C7.5293 21 3.5 16.9707 3.5 12C3.5 7.0293 7.5293 3 12.5 3C17.4707 3 21.5 7.0293 21.5 12C21.5 16.9707 17.4707 21 12.5 21ZM12.5 15.6C13.4548 15.6 14.3705 15.2207 15.0456 14.5456C15.7207 13.8705 16.1 12.9548 16.1 12C16.1 11.0452 15.7207 10.1295 15.0456 9.45442C14.3705 8.77928 13.4548 8.4 12.5 8.4C11.5452 8.4 10.6295 8.77928 9.95442 9.45442C9.27928 10.1295 8.9 11.0452 8.9 12C8.9 12.9548 9.27928 13.8705 9.95442 14.5456C10.6295 15.2207 11.5452 15.6 12.5 15.6ZM12.5 17.4C11.0678 17.4 9.69432 16.8311 8.68162 15.8184C7.66893 14.8057 7.1 13.4322 7.1 12C7.1 10.5678 7.66893 9.19432 8.68162 8.18162C9.69432 7.16893 11.0678 6.6 12.5 6.6C13.9322 6.6 15.3057 7.16893 16.3184 8.18162C17.3311 9.19432 17.9 10.5678 17.9 12C17.9 13.4322 17.3311 14.8057 16.3184 15.8184C15.3057 16.8311 13.9322 17.4 12.5 17.4ZM12.5 13.8C12.0226 13.8 11.5648 13.6104 11.2272 13.2728C10.8896 12.9352 10.7 12.4774 10.7 12C10.7 11.5226 10.8896 11.0648 11.2272 10.7272C11.5648 10.3896 12.0226 10.2 12.5 10.2C12.9774 10.2 13.4352 10.3896 13.7728 10.7272C14.1104 11.0648 14.3 11.5226 14.3 12C14.3 12.4774 14.1104 12.9352 13.7728 13.2728C13.4352 13.6104 12.9774 13.8 12.5 13.8Z" fill="#0A0D14" style="fill:#0A0D14;fill:color(display-p3 0.0392 0.0510 0.0784);fill-opacity:1;"/>
</svg>
