<svg width="25" height="24" viewBox="0 0 25 24" fill="none" xmlns="http://www.w3.org/2000/svg">
<path d="M12.5 19.2C14.4096 19.2 16.2409 18.4414 17.5912 17.0912C18.9414 15.7409 19.7 13.9096 19.7 12C19.7 10.0904 18.9414 8.25909 17.5912 6.90883C16.2409 5.55857 14.4096 4.8 12.5 4.8C10.5904 4.8 8.75909 5.55857 7.40883 6.90883C6.05857 8.25909 5.3 10.0904 5.3 12C5.3 13.9096 6.05857 15.7409 7.40883 17.0912C8.75909 18.4414 10.5904 19.2 12.5 19.2ZM12.5 21C7.5293 21 3.5 16.9707 3.5 12C3.5 7.0293 7.5293 3 12.5 3C17.4707 3 21.5 7.0293 21.5 12C21.5 16.9707 17.4707 21 12.5 21ZM12.5 13.8C12.0226 13.8 11.5648 13.6104 11.2272 13.2728C10.8896 12.9352 10.7 12.4774 10.7 12C10.7 11.5226 10.8896 11.0648 11.2272 10.7272C11.5648 10.3896 12.0226 10.2 12.5 10.2C12.9774 10.2 13.4352 10.3896 13.7728 10.7272C14.1104 11.0648 14.3 11.5226 14.3 12C14.3 12.4774 14.1104 12.9352 13.7728 13.2728C13.4352 13.6104 12.9774 13.8 12.5 13.8Z" fill="#0A0D14" style="fill:#0A0D14;fill:color(display-p3 0.0392 0.0510 0.0784);fill-opacity:1;"/>
</svg>
