<svg width="25" height="24" viewBox="0 0 25 24" fill="none" xmlns="http://www.w3.org/2000/svg">
<path d="M12.5 3C17.468 3 21.5 7.032 21.5 12C21.5 16.968 17.468 21 12.5 21C7.532 21 3.5 16.968 3.5 12C3.5 7.032 7.532 3 12.5 3ZM12.5 19.2C16.4843 19.2 19.7 15.9843 19.7 12C19.7 8.0157 16.4843 4.8 12.5 4.8C11.5541 4.79882 10.6174 4.98424 9.74328 5.34565C8.8692 5.70707 8.07501 6.23737 7.40619 6.90619C6.73737 7.57501 6.20707 8.3692 5.84565 9.24328C5.48424 10.1174 5.29882 11.0541 5.3 12C5.3 15.9843 8.5157 19.2 12.5 19.2ZM12.5 17.4C9.512 17.4 7.1 14.988 7.1 12C7.1 9.012 9.512 6.6 12.5 6.6C15.488 6.6 17.9 9.012 17.9 12C17.9 14.988 15.488 17.4 12.5 17.4ZM12.5 10.2C11.51 10.2 10.7 11.01 10.7 12C10.7 12.99 11.51 13.8 12.5 13.8C13.49 13.8 14.3 12.99 14.3 12C14.3 11.01 13.49 10.2 12.5 10.2Z" fill="#0A0D14" style="fill:#0A0D14;fill:color(display-p3 0.0392 0.0510 0.0784);fill-opacity:1;"/>
</svg>
