<svg width="25" height="24" viewBox="0 0 25 24" fill="none" xmlns="http://www.w3.org/2000/svg">
<path d="M13.4 2.09961L13.4009 4.85541C14.9869 5.05592 16.4611 5.7783 17.5914 6.90877C18.7217 8.03925 19.4439 9.51359 19.6442 11.0996H22.4V12.8996L19.6442 12.9005C19.4437 14.4864 18.7215 15.9605 17.5912 17.0908C16.4609 18.2211 14.9867 18.9433 13.4009 19.1438L13.4 21.8996H11.6V19.1438C10.014 18.9435 8.53961 18.2214 7.40914 17.091C6.27866 15.9607 5.55629 14.4865 5.35578 12.9005L2.59998 12.8996V11.0996H5.35578C5.5561 9.51345 6.2784 8.03901 7.40889 6.90852C8.53938 5.77803 10.0138 5.05574 11.6 4.85541V2.09961H13.4ZM12.5 6.59961C11.0678 6.59961 9.6943 7.16854 8.6816 8.18123C7.6689 9.19393 7.09998 10.5674 7.09998 11.9996C7.09998 13.4318 7.6689 14.8053 8.6816 15.818C9.6943 16.8307 11.0678 17.3996 12.5 17.3996C13.9321 17.3996 15.3057 16.8307 16.3184 15.818C17.331 14.8053 17.9 13.4318 17.9 11.9996C17.9 10.5674 17.331 9.19393 16.3184 8.18123C15.3057 7.16854 13.9321 6.59961 12.5 6.59961ZM12.5 10.1996C12.9774 10.1996 13.4352 10.3893 13.7728 10.7268C14.1103 11.0644 14.3 11.5222 14.3 11.9996C14.3 12.477 14.1103 12.9348 13.7728 13.2724C13.4352 13.61 12.9774 13.7996 12.5 13.7996C12.0226 13.7996 11.5647 13.61 11.2272 13.2724C10.8896 12.9348 10.7 12.477 10.7 11.9996C10.7 11.5222 10.8896 11.0644 11.2272 10.7268C11.5647 10.3893 12.0226 10.1996 12.5 10.1996Z" fill="#0A0D14" style="fill:#0A0D14;fill:color(display-p3 0.0392 0.0510 0.0784);fill-opacity:1;"/>
</svg>
