<svg width="25" height="24" viewBox="0 0 25 24" fill="none" xmlns="http://www.w3.org/2000/svg">
<path d="M3.12565 12.907C2.42054 11.132 2.44946 9.14952 3.20603 7.39578C3.96259 5.64205 5.38485 4.26068 7.1599 3.55558C8.93495 2.85048 10.9174 2.87939 12.6711 3.63596C14.4249 4.39253 15.8062 5.81478 16.5113 7.58983C17.2657 7.44407 18.0436 7.47589 18.7835 7.68278C19.5234 7.88967 20.205 8.26595 20.7743 8.78183C21.3436 9.29771 21.785 9.93903 22.0636 10.655C22.3422 11.371 22.4503 12.142 22.3793 12.907H3.12565ZM5.30005 18.3007H20.6V20.1007H5.30005V18.3007ZM3.50005 14.7007H22.4V16.5007H3.50005V14.7007Z" fill="#0A0D14" style="fill:#0A0D14;fill:color(display-p3 0.0392 0.0510 0.0784);fill-opacity:1;"/>
</svg>
