<svg width="25" height="24" viewBox="0 0 25 24" fill="none" xmlns="http://www.w3.org/2000/svg">
<path d="M3.12565 12.907C2.42054 11.132 2.44946 9.14952 3.20603 7.39578C3.96259 5.64205 5.38485 4.26068 7.1599 3.55558C8.93495 2.85048 10.9174 2.87939 12.6711 3.63596C14.4249 4.39253 15.8062 5.81478 16.5113 7.58983C17.2657 7.44407 18.0436 7.47589 18.7835 7.68278C19.5234 7.88967 20.205 8.26595 20.7743 8.78183C21.3436 9.29771 21.785 9.93903 22.0636 10.655C22.3422 11.371 22.4503 12.142 22.3793 12.907H20.5676C20.6643 12.249 20.5502 11.5773 20.2417 10.9881C19.9333 10.3989 19.4462 9.92247 18.8503 9.62704C18.2545 9.33161 17.5804 9.23236 16.9247 9.34349C16.269 9.45463 15.6653 9.77046 15.2 10.2457V10.2007C15.1998 9.37226 15.009 8.55494 14.6423 7.81204C14.2756 7.06913 13.7429 6.42056 13.0854 5.91652C12.4279 5.41247 11.6632 5.06647 10.8506 4.9053C10.038 4.74412 9.19912 4.77209 8.39902 4.98704C7.59891 5.20199 6.85899 5.59815 6.23653 6.14487C5.61406 6.69159 5.12573 7.3742 4.80934 8.13988C4.49295 8.90556 4.35698 9.73377 4.41195 10.5604C4.46692 11.3871 4.71136 12.19 5.12635 12.907H3.12565ZM5.30005 18.3007H20.6V20.1007H5.30005V18.3007ZM3.50005 14.7007H22.4V16.5007H3.50005V14.7007Z" fill="#0A0D14" style="fill:#0A0D14;fill:color(display-p3 0.0392 0.0510 0.0784);fill-opacity:1;"/>
</svg>
