<svg width="25" height="24" viewBox="0 0 25 24" fill="none" xmlns="http://www.w3.org/2000/svg">
<path d="M12.8726 5.70039H20.6C20.8387 5.70039 21.0676 5.79521 21.2364 5.96399C21.4052 6.13278 21.5 6.3617 21.5 6.60039V19.2004C21.5 19.4391 21.4052 19.668 21.2364 19.8368C21.0676 20.0056 20.8387 20.1004 20.6 20.1004H4.4C4.16131 20.1004 3.93239 20.0056 3.7636 19.8368C3.59482 19.668 3.5 19.4391 3.5 19.2004V4.80039C3.5 4.5617 3.59482 4.33278 3.7636 4.16399C3.93239 3.99521 4.16131 3.90039 4.4 3.90039H11.0726L12.8726 5.70039ZM15.2 12.9004V12.0004C15.2 11.2843 14.9155 10.5976 14.4092 10.0912C13.9028 9.58485 13.2161 9.30039 12.5 9.30039C11.7839 9.30039 11.0972 9.58485 10.5908 10.0912C10.0845 10.5976 9.8 11.2843 9.8 12.0004V12.9004H8.9V16.5004H16.1V12.9004H15.2ZM13.4 12.9004H11.6V12.0004C11.6 11.7617 11.6948 11.5328 11.8636 11.364C12.0324 11.1952 12.2613 11.1004 12.5 11.1004C12.7387 11.1004 12.9676 11.1952 13.1364 11.364C13.3052 11.5328 13.4 11.7617 13.4 12.0004V12.9004Z" fill="#0A0D14" style="fill:#0A0D14;fill:color(display-p3 0.0392 0.0510 0.0784);fill-opacity:1;"/>
</svg>
