<svg width="25" height="24" viewBox="0 0 25 24" fill="none" xmlns="http://www.w3.org/2000/svg">
<path d="M12.8726 5.70039H20.6C20.8387 5.70039 21.0676 5.79521 21.2364 5.96399C21.4052 6.13278 21.5 6.3617 21.5 6.60039V19.2004C21.5 19.4391 21.4052 19.668 21.2364 19.8368C21.0676 20.0056 20.8387 20.1004 20.6 20.1004H4.4C4.16131 20.1004 3.93239 20.0056 3.7636 19.8368C3.59482 19.668 3.5 19.4391 3.5 19.2004V4.80039C3.5 4.5617 3.59482 4.33278 3.7636 4.16399C3.93239 3.99521 4.16131 3.90039 4.4 3.90039H11.0726L12.8726 5.70039ZM11.6 15.6004V17.4004H13.4V15.6004H11.6ZM9.4103 10.9321L11.1761 11.2858C11.2262 11.0351 11.3465 10.8038 11.5229 10.6187C11.6994 10.4337 11.9247 10.3026 12.1728 10.2406C12.4208 10.1787 12.6814 10.1884 12.9241 10.2688C13.1668 10.3491 13.3817 10.4967 13.5438 10.6944C13.706 10.8921 13.8086 11.1318 13.8398 11.3855C13.871 11.6393 13.8295 11.8967 13.7202 12.1278C13.6108 12.3589 13.4381 12.5542 13.2221 12.691C13.0061 12.8278 12.7557 12.9004 12.5 12.9004H11.6V14.7004H12.5C13.0965 14.7002 13.6807 14.5307 14.1846 14.2115C14.6885 13.8923 15.0914 13.4366 15.3465 12.8974C15.6016 12.3582 15.6983 11.7576 15.6254 11.1656C15.5526 10.5736 15.3131 10.0144 14.9349 9.55316C14.5567 9.09189 14.0553 8.74749 13.489 8.56002C12.9228 8.37254 12.3149 8.3497 11.7362 8.49415C11.1575 8.6386 10.6316 8.94441 10.2199 9.37599C9.80813 9.80758 9.52738 10.3472 9.4103 10.9321Z" fill="#0A0D14" style="fill:#0A0D14;fill:color(display-p3 0.0392 0.0510 0.0784);fill-opacity:1;"/>
</svg>
