<svg width="25" height="24" viewBox="0 0 25 24" fill="none" xmlns="http://www.w3.org/2000/svg">
<path d="M13.7726 5.70039H19.7C19.9387 5.70039 20.1676 5.79521 20.3364 5.96399C20.5052 6.13278 20.6 6.3617 20.6 6.60039V7.50039H4.39999V4.80039C4.39999 4.5617 4.49481 4.33278 4.66359 4.16399C4.83237 3.99521 5.06129 3.90039 5.29999 3.90039H11.9726L13.7726 5.70039ZM4.47829 9.30039H20.5217C20.6462 9.30033 20.7694 9.32612 20.8834 9.37611C20.9975 9.4261 21.0999 9.49922 21.1842 9.59083C21.2686 9.68244 21.333 9.79055 21.3734 9.90833C21.4138 10.0261 21.4293 10.151 21.419 10.2751L20.6684 19.2751C20.6497 19.5 20.5471 19.7096 20.3811 19.8625C20.2151 20.0154 19.9977 20.1003 19.772 20.1004H5.22799C5.00231 20.1003 4.78491 20.0154 4.61889 19.8625C4.45286 19.7096 4.35032 19.5 4.33159 19.2751L3.58099 10.2751C3.57065 10.151 3.58618 10.0261 3.62659 9.90833C3.66699 9.79055 3.7314 9.68244 3.81574 9.59083C3.90007 9.49922 4.0025 9.4261 4.11655 9.37611C4.23059 9.32612 4.35377 9.30033 4.47829 9.30039Z" fill="#0A0D14" style="fill:#0A0D14;fill:color(display-p3 0.0392 0.0510 0.0784);fill-opacity:1;"/>
</svg>
