<svg width="25" height="24" viewBox="0 0 25 24" fill="none" xmlns="http://www.w3.org/2000/svg">
<path d="M12.8726 5.70039H20.6C20.8387 5.70039 21.0676 5.79521 21.2364 5.96399C21.4052 6.13278 21.5 6.3617 21.5 6.60039V19.2004C21.5 19.4391 21.4052 19.668 21.2364 19.8368C21.0676 20.0056 20.8387 20.1004 20.6 20.1004H4.4C4.16131 20.1004 3.93239 20.0056 3.7636 19.8368C3.59482 19.668 3.5 19.4391 3.5 19.2004V4.80039C3.5 4.5617 3.59482 4.33278 3.7636 4.16399C3.93239 3.99521 4.16131 3.90039 4.4 3.90039H11.0726L12.8726 5.70039ZM11.6 12.9454C11.1451 12.8525 10.6726 12.9027 10.2473 13.089C9.82199 13.2752 9.46474 13.5885 9.22453 13.9859C8.98432 14.3832 8.87291 14.8451 8.90558 15.3083C8.93825 15.7714 9.1134 16.2131 9.40701 16.5728C9.70062 16.9325 10.0983 17.1925 10.5455 17.3172C10.9928 17.442 11.4676 17.4253 11.905 17.2695C12.3424 17.1137 12.7209 16.8264 12.9885 16.447C13.2562 16.0676 13.3999 15.6147 13.4 15.1504V11.1004H16.1V9.30039H11.6V12.9454Z" fill="#0A0D14" style="fill:#0A0D14;fill:color(display-p3 0.0392 0.0510 0.0784);fill-opacity:1;"/>
</svg>
