<svg width="25" height="24" viewBox="0 0 25 24" fill="none" xmlns="http://www.w3.org/2000/svg">
<path d="M7.1 7.50039V4.80039C7.1 4.5617 7.19482 4.33278 7.3636 4.16399C7.53239 3.99521 7.7613 3.90039 8 3.90039H13.7726L15.5726 5.70039H20.6C20.8387 5.70039 21.0676 5.79521 21.2364 5.96399C21.4052 6.13278 21.5 6.3617 21.5 6.60039V15.6004C21.5 15.8391 21.4052 16.068 21.2364 16.2368C21.0676 16.4056 20.8387 16.5004 20.6 16.5004H17.9V19.2004C17.9 19.4391 17.8052 19.668 17.6364 19.8368C17.4676 20.0056 17.2387 20.1004 17 20.1004H4.4C4.16131 20.1004 3.93239 20.0056 3.7636 19.8368C3.59482 19.668 3.5 19.4391 3.5 19.2004V8.40039C3.5 8.1617 3.59482 7.93278 3.7636 7.76399C3.93239 7.59521 4.16131 7.50039 4.4 7.50039H7.1ZM7.1 9.30039H5.3V18.3004H16.1V16.5004H7.1V9.30039Z" fill="#0A0D14" style="fill:#0A0D14;fill:color(display-p3 0.0392 0.0510 0.0784);fill-opacity:1;"/>
</svg>
