<svg width="25" height="24" viewBox="0 0 25 24" fill="none" xmlns="http://www.w3.org/2000/svg">
<path d="M11.0726 3.90039L12.8726 5.70039H20.6C20.8387 5.70039 21.0676 5.79521 21.2364 5.96399C21.4052 6.13278 21.5 6.3617 21.5 6.60039V19.2004C21.5 19.4391 21.4052 19.668 21.2364 19.8368C21.0676 20.0056 20.8387 20.1004 20.6 20.1004H4.4C4.16131 20.1004 3.93239 20.0056 3.7636 19.8368C3.59482 19.668 3.5 19.4391 3.5 19.2004V4.80039C3.5 4.5617 3.59482 4.33278 3.7636 4.16399C3.93239 3.99521 4.16131 3.90039 4.4 3.90039H11.0726ZM12.5 9.30039C12.1038 9.30041 11.7186 9.43116 11.4043 9.67238C11.0899 9.91359 10.864 10.2518 10.7614 10.6345C10.6589 11.0172 10.6855 11.4231 10.8371 11.7892C10.9887 12.1552 11.2569 12.4611 11.6 12.6592V16.5004H13.4L13.4009 12.6592C13.7441 12.461 14.0123 12.1551 14.1639 11.789C14.3155 11.4228 14.342 11.0169 14.2394 10.6341C14.1367 10.2513 13.9106 9.91311 13.5961 9.67197C13.2816 9.43082 12.8963 9.30021 12.5 9.30039Z" fill="#0A0D14" style="fill:#0A0D14;fill:color(display-p3 0.0392 0.0510 0.0784);fill-opacity:1;"/>
</svg>
