<svg width="25" height="24" viewBox="0 0 25 24" fill="none" xmlns="http://www.w3.org/2000/svg">
<path d="M12.8726 5.70039H20.6C20.8387 5.70039 21.0676 5.79521 21.2364 5.96399C21.4052 6.13278 21.5 6.3617 21.5 6.60039V19.2004C21.5 19.4391 21.4052 19.668 21.2364 19.8368C21.0676 20.0056 20.8387 20.1004 20.6 20.1004H4.4C4.16131 20.1004 3.93239 20.0056 3.7636 19.8368C3.59482 19.668 3.5 19.4391 3.5 19.2004V4.80039C3.5 4.5617 3.59482 4.33278 3.7636 4.16399C3.93239 3.99521 4.16131 3.90039 4.4 3.90039H11.0726L12.8726 5.70039ZM5.3 5.70039V18.3004H19.7V7.50039H12.1274L10.3274 5.70039H5.3ZM9.4319 13.6285C9.31786 13.1486 9.31786 12.6486 9.4319 12.1687L8.54 11.6539L9.44 10.0951L10.3319 10.6108C10.69 10.2715 11.1228 10.0211 11.5955 9.87999V8.85039H13.3955V9.87999C13.8743 10.0231 14.3045 10.276 14.6582 10.6108L15.551 10.0951L16.451 11.653L15.5591 12.1687C15.6731 12.6486 15.6731 13.1486 15.5591 13.6285L16.451 14.1433L15.551 15.7012L14.6591 15.1864C14.3009 15.5254 13.8681 15.7754 13.3955 15.9163V16.9468H11.5955V15.9154C11.1229 15.7745 10.6901 15.5245 10.3319 15.1855L9.44 15.7003L8.54 14.1433L9.4319 13.6276V13.6285ZM12.4955 14.2477C12.6768 14.2543 12.8576 14.2243 13.0271 14.1595C13.1965 14.0947 13.3512 13.9964 13.4818 13.8705C13.6124 13.7445 13.7163 13.5936 13.7873 13.4266C13.8582 13.2596 13.8948 13.08 13.8948 12.8986C13.8948 12.7172 13.8582 12.5376 13.7873 12.3706C13.7163 12.2036 13.6124 12.0527 13.4818 11.9267C13.3512 11.8008 13.1965 11.7025 13.0271 11.6377C12.8576 11.5729 12.6768 11.5429 12.4955 11.5495C12.1462 11.5623 11.8155 11.71 11.5729 11.9616C11.3303 12.2132 11.1948 12.5491 11.1948 12.8986C11.1948 13.2481 11.3303 13.584 11.5729 13.8356C11.8155 14.0872 12.1462 14.2349 12.4955 14.2477Z" fill="#0A0D14" style="fill:#0A0D14;fill:color(display-p3 0.0392 0.0510 0.0784);fill-opacity:1;"/>
</svg>
