<svg width="25" height="24" viewBox="0 0 25 24" fill="none" xmlns="http://www.w3.org/2000/svg">
<path d="M6.5 6.75V17.25H18.5V8.25H12.1894L10.6893 6.75H6.5ZM12.8106 6.75H19.25C19.6642 6.75 20 7.08579 20 7.5V18C20 18.4142 19.6642 18.75 19.25 18.75H5.75C5.33579 18.75 5 18.4142 5 18V6C5 5.58579 5.33579 5.25 5.75 5.25H11.3106L12.8106 6.75ZM11 10.875C11 11.4963 10.4963 12 9.875 12C9.25368 12 8.75 11.4963 8.75 10.875C8.75 10.2537 9.25368 9.75 9.875 9.75C10.4963 9.75 11 10.2537 11 10.875ZM17 15.75L14 11.25L8.75 15.75H17Z" fill="#0A0D14" style="fill:#0A0D14;fill:color(display-p3 0.0392 0.0510 0.0784);fill-opacity:1;"/>
</svg>
