<svg width="25" height="24" viewBox="0 0 25 24" fill="none" xmlns="http://www.w3.org/2000/svg">
<path d="M4.4 20.1004C4.16131 20.1004 3.93239 20.0056 3.7636 19.8368C3.59482 19.668 3.5 19.4391 3.5 19.2004V4.80039C3.5 4.5617 3.59482 4.33278 3.7636 4.16399C3.93239 3.99521 4.16131 3.90039 4.4 3.90039H11.0726L12.8726 5.70039H19.7C19.9387 5.70039 20.1676 5.79521 20.3364 5.96399C20.5052 6.13278 20.6 6.3617 20.6 6.60039V9.30039H18.8V7.50039H12.1274L10.3274 5.70039H5.3V16.4986L6.65 11.1004H21.95L19.871 19.4191C19.8222 19.6137 19.7099 19.7865 19.5517 19.9099C19.3935 20.0333 19.1986 20.1004 18.998 20.1004H4.4ZM19.6442 12.9004H8.0558L6.7058 18.3004H18.2942L19.6442 12.9004Z" fill="#0A0D14" style="fill:#0A0D14;fill:color(display-p3 0.0392 0.0510 0.0784);fill-opacity:1;"/>
</svg>
