<svg width="25" height="24" viewBox="0 0 25 24" fill="none" xmlns="http://www.w3.org/2000/svg">
<path d="M21.5 13.0138C20.4972 12.2929 19.2776 11.9376 18.0445 12.0071C16.8114 12.0765 15.6394 12.5665 14.7239 13.3954C13.8084 14.2243 13.2046 15.342 13.0133 16.5621C12.822 17.7823 13.0548 19.0311 13.6727 20.1004H4.4C4.16131 20.1004 3.93239 20.0056 3.7636 19.8368C3.59482 19.668 3.5 19.4391 3.5 19.2004V4.80039C3.5 4.5617 3.59482 4.33278 3.7636 4.16399C3.93239 3.99521 4.16131 3.90039 4.4 3.90039H11.0726L12.8726 5.70039H20.6C20.8387 5.70039 21.0676 5.79521 21.2364 5.96399C21.4052 6.13278 21.5 6.3617 21.5 6.60039V13.0138ZM19.7 16.5004H22.4V18.3004H19.7V21.4504L15.2 17.4004L19.7 13.3504V16.5004Z" fill="#0A0D14" style="fill:#0A0D14;fill:color(display-p3 0.0392 0.0510 0.0784);fill-opacity:1;"/>
</svg>
