<svg width="25" height="24" viewBox="0 0 25 24" fill="none" xmlns="http://www.w3.org/2000/svg">
<path d="M21.5 9.30039H19.7V7.50039H12.1274L10.3274 5.70039H5.3V18.3004H12.0023C12.3328 19.0227 12.8497 19.644 13.4999 20.1004H4.4C4.16131 20.1004 3.93239 20.0056 3.7636 19.8368C3.59482 19.668 3.5 19.4391 3.5 19.2004V4.80039C3.5 4.5617 3.59482 4.33278 3.7636 4.16399C3.93239 3.99521 4.16131 3.90039 4.4 3.90039H11.0726L12.8726 5.70039H20.6C20.8387 5.70039 21.0676 5.79521 21.2364 5.96399C21.4052 6.13278 21.5 6.3617 21.5 6.60039V9.30039ZM13.4 11.1004H21.5V16.4545C21.5 17.3455 21.0491 18.1789 20.2976 18.673L17.45 20.5486L14.6024 18.673C14.234 18.4319 13.9312 18.103 13.7213 17.7159C13.5115 17.3289 13.401 16.8957 13.4 16.4554V11.1004ZM15.2 16.4545C15.2 16.7389 15.3458 17.0071 15.5924 17.17L17.45 18.394L19.3076 17.17C19.4272 17.0926 19.5257 16.9867 19.5942 16.8618C19.6627 16.7369 19.6991 16.5969 19.7 16.4545V12.9004H15.2V16.4545Z" fill="#0A0D14" style="fill:#0A0D14;fill:color(display-p3 0.0392 0.0510 0.0784);fill-opacity:1;"/>
</svg>
