<svg width="25" height="24" viewBox="0 0 25 24" fill="none" xmlns="http://www.w3.org/2000/svg">
<path d="M12.8726 5.70039H20.6C20.8387 5.70039 21.0676 5.79521 21.2364 5.96399C21.4052 6.13278 21.5 6.3617 21.5 6.60039V19.2004C21.5 19.4391 21.4052 19.668 21.2364 19.8368C21.0676 20.0056 20.8387 20.1004 20.6 20.1004H4.4C4.16131 20.1004 3.93239 20.0056 3.7636 19.8368C3.59482 19.668 3.5 19.4391 3.5 19.2004V4.80039C3.5 4.5617 3.59482 4.33278 3.7636 4.16399C3.93239 3.99521 4.16131 3.90039 4.4 3.90039H11.0726L12.8726 5.70039ZM12.5 12.9004C13.0967 12.9004 13.669 12.6633 14.091 12.2414C14.5129 11.8194 14.75 11.2471 14.75 10.6504C14.75 10.0537 14.5129 9.48136 14.091 9.0594C13.669 8.63744 13.0967 8.40039 12.5 8.40039C11.9033 8.40039 11.331 8.63744 10.909 9.0594C10.4871 9.48136 10.25 10.0537 10.25 10.6504C10.25 11.2471 10.4871 11.8194 10.909 12.2414C11.331 12.6633 11.9033 12.9004 12.5 12.9004ZM8.9 17.4004H16.1C16.1 16.4456 15.7207 15.5299 15.0456 14.8548C14.3705 14.1797 13.4548 13.8004 12.5 13.8004C11.5452 13.8004 10.6295 14.1797 9.95442 14.8548C9.27928 15.5299 8.9 16.4456 8.9 17.4004Z" fill="#0A0D14" style="fill:#0A0D14;fill:color(display-p3 0.0392 0.0510 0.0784);fill-opacity:1;"/>
</svg>
