<svg width="25" height="24" viewBox="0 0 25 24" fill="none" xmlns="http://www.w3.org/2000/svg">
<path d="M12.8726 5.70039H20.6C20.8387 5.70039 21.0676 5.79521 21.2364 5.96399C21.4052 6.13278 21.5 6.3617 21.5 6.60039V19.2004C21.5 19.4391 21.4052 19.668 21.2364 19.8368C21.0676 20.0056 20.8387 20.1004 20.6 20.1004H4.4C4.16131 20.1004 3.93239 20.0056 3.7636 19.8368C3.59482 19.668 3.5 19.4391 3.5 19.2004V4.80039C3.5 4.5617 3.59482 4.33278 3.7636 4.16399C3.93239 3.99521 4.16131 3.90039 4.4 3.90039H11.0726L12.8726 5.70039ZM9.4319 13.6285L8.54 14.1433L9.44 15.7012L10.3319 15.1864C10.6856 15.5203 11.1167 15.7741 11.5964 15.9163V16.9468H13.3955V15.9154C13.8681 15.7745 14.3009 15.5245 14.6591 15.1855L15.551 15.7003L16.451 14.1433L15.5591 13.6276C15.6731 13.1477 15.6731 12.6477 15.5591 12.1678L16.4501 11.6521L15.551 10.0951L14.6582 10.6099C14.3001 10.2706 13.8673 10.0202 13.3946 9.87909V8.85039H11.5955V9.87999C11.1228 10.0211 10.69 10.2715 10.3319 10.6108L9.44 10.0951L8.54 11.6539L9.4319 12.1687C9.31786 12.6486 9.31786 13.1486 9.4319 13.6285ZM12.4955 14.2477C12.3142 14.2543 12.1334 14.2243 11.9639 14.1595C11.7945 14.0947 11.6398 13.9964 11.5092 13.8705C11.3786 13.7445 11.2747 13.5936 11.2037 13.4266C11.1328 13.2596 11.0962 13.08 11.0962 12.8986C11.0962 12.7172 11.1328 12.5376 11.2037 12.3706C11.2747 12.2036 11.3786 12.0527 11.5092 11.9267C11.6398 11.8008 11.7945 11.7025 11.9639 11.6377C12.1334 11.5729 12.3142 11.5429 12.4955 11.5495C12.8448 11.5623 13.1755 11.71 13.4181 11.9616C13.6607 12.2132 13.7962 12.5491 13.7962 12.8986C13.7962 13.2481 13.6607 13.584 13.4181 13.8356C13.1755 14.0872 12.8448 14.2349 12.4955 14.2477Z" fill="#0A0D14" style="fill:#0A0D14;fill:color(display-p3 0.0392 0.0510 0.0784);fill-opacity:1;"/>
</svg>
