<svg width="25" height="24" viewBox="0 0 25 24" fill="none" xmlns="http://www.w3.org/2000/svg">
<path d="M21.5 10.2004H12.5V16.8442C12.5 18.1123 13.0688 19.3048 14.0345 20.1004H4.4C4.16131 20.1004 3.93239 20.0056 3.7636 19.8368C3.59482 19.668 3.5 19.4391 3.5 19.2004V4.80039C3.5 4.5617 3.59482 4.33278 3.7636 4.16399C3.93239 3.99521 4.16131 3.90039 4.4 3.90039H11.0726L12.8726 5.70039H20.6C20.8387 5.70039 21.0676 5.79521 21.2364 5.96399C21.4052 6.13278 21.5 6.3617 21.5 6.60039V10.2004ZM14.3 12.0004H21.5V16.8442C21.5 17.6515 21.0986 18.4048 20.4317 18.8512L17.9 20.5495L15.3683 18.853C15.0391 18.6317 14.7695 18.3328 14.5832 17.9826C14.3968 17.6324 14.2996 17.2417 14.3 16.8451V12.0004Z" fill="#0A0D14" style="fill:#0A0D14;fill:color(display-p3 0.0392 0.0510 0.0784);fill-opacity:1;"/>
</svg>
