<svg width="25" height="24" viewBox="0 0 25 24" fill="none" xmlns="http://www.w3.org/2000/svg">
<path d="M12.8726 5.70039H20.6C20.8387 5.70039 21.0676 5.79521 21.2364 5.96399C21.4052 6.13278 21.5 6.3617 21.5 6.60039V19.2004C21.5 19.4391 21.4052 19.668 21.2364 19.8368C21.0676 20.0056 20.8387 20.1004 20.6 20.1004H4.4C4.16131 20.1004 3.93239 20.0056 3.7636 19.8368C3.59482 19.668 3.5 19.4391 3.5 19.2004V4.80039C3.5 4.5617 3.59482 4.33278 3.7636 4.16399C3.93239 3.99521 4.16131 3.90039 4.4 3.90039H11.0726L12.8726 5.70039ZM5.3 5.70039V18.3004H19.7V7.50039H12.1274L10.3274 5.70039H5.3ZM11.6 15.6004H13.4V17.4004H11.6V15.6004ZM9.4103 10.9321C9.52723 10.3469 9.80794 9.80695 10.2198 9.37507C10.6316 8.94319 11.1576 8.63713 11.7365 8.49251C12.3155 8.3479 12.9236 8.37067 13.4902 8.55818C14.0567 8.74568 14.5583 9.09022 14.9367 9.55169C15.3151 10.0132 15.5546 10.5726 15.6275 11.1649C15.7003 11.7572 15.6034 12.358 15.3482 12.8974C15.0929 13.4368 14.6897 13.8926 14.1855 14.2118C13.6812 14.531 13.0968 14.7004 12.5 14.7004H11.6V12.9004H12.5C12.7557 12.9004 13.0061 12.8278 13.2221 12.691C13.4381 12.5542 13.6108 12.3589 13.7202 12.1278C13.8295 11.8967 13.871 11.6393 13.8398 11.3855C13.8086 11.1318 13.706 10.8921 13.5438 10.6944C13.3817 10.4967 13.1668 10.3491 12.9241 10.2688C12.6814 10.1884 12.4208 10.1787 12.1728 10.2406C11.9247 10.3026 11.6994 10.4337 11.5229 10.6187C11.3465 10.8038 11.2262 11.0351 11.1761 11.2858L9.4103 10.9321Z" fill="#0A0D14" style="fill:#0A0D14;fill:color(display-p3 0.0392 0.0510 0.0784);fill-opacity:1;"/>
</svg>
