<svg width="25" height="24" viewBox="0 0 25 24" fill="none" xmlns="http://www.w3.org/2000/svg">
<path d="M21.5 11.3299C20.9503 10.9461 20.3425 10.6529 19.7 10.4614V7.50039H12.1274L10.3274 5.70039H5.3V18.3004H11.861C12.0545 18.9502 12.3497 19.5568 12.7295 20.1004H4.4C4.16131 20.1004 3.93239 20.0056 3.7636 19.8368C3.59482 19.668 3.5 19.4391 3.5 19.2004V4.80039C3.5 4.5617 3.59482 4.33278 3.7636 4.16399C3.93239 3.99521 4.16131 3.90039 4.4 3.90039H11.0726L12.8726 5.70039H20.6C20.8387 5.70039 21.0676 5.79521 21.2364 5.96399C21.4052 6.13278 21.5 6.3617 21.5 6.60039V11.3299ZM17.9 21.0004C16.7065 21.0004 15.5619 20.5263 14.718 19.6824C13.8741 18.8385 13.4 17.6939 13.4 16.5004C13.4 15.3069 13.8741 14.1623 14.718 13.3184C15.5619 12.4745 16.7065 12.0004 17.9 12.0004C19.0935 12.0004 20.2381 12.4745 21.082 13.3184C21.9259 14.1623 22.4 15.3069 22.4 16.5004C22.4 17.6939 21.9259 18.8385 21.082 19.6824C20.2381 20.5263 19.0935 21.0004 17.9 21.0004ZM16.7363 18.9376C17.2403 19.1787 17.8066 19.2576 18.3573 19.1633C18.9079 19.069 19.4158 18.8062 19.8108 18.4112C20.2059 18.0162 20.4686 17.5083 20.5629 16.9577C20.6572 16.407 20.5783 15.8406 20.3372 15.3367L16.7363 18.9367V18.9376ZM15.4628 17.6641L19.0637 14.0641C18.5597 13.823 17.9934 13.7441 17.4427 13.8384C16.8921 13.9327 16.3842 14.1954 15.9892 14.5905C15.5941 14.9855 15.3314 15.4934 15.2371 16.044C15.1428 16.5947 15.2217 17.161 15.4628 17.665V17.6641Z" fill="#0A0D14" style="fill:#0A0D14;fill:color(display-p3 0.0392 0.0510 0.0784);fill-opacity:1;"/>
</svg>
