<svg width="25" height="24" viewBox="0 0 25 24" fill="none" xmlns="http://www.w3.org/2000/svg">
<path d="M12.8726 5.70039H20.6C20.8387 5.70039 21.0676 5.79521 21.2364 5.96399C21.4052 6.13278 21.5 6.3617 21.5 6.60039V19.2004C21.5 19.4391 21.4052 19.668 21.2364 19.8368C21.0676 20.0056 20.8387 20.1004 20.6 20.1004H4.4C4.16131 20.1004 3.93239 20.0056 3.7636 19.8368C3.59482 19.668 3.5 19.4391 3.5 19.2004V4.80039C3.5 4.5617 3.59482 4.33278 3.7636 4.16399C3.93239 3.99521 4.16131 3.90039 4.4 3.90039H11.0726L12.8726 5.70039ZM12.5 9.30039C11.788 9.30039 11.092 9.51153 10.4999 9.9071C9.90793 10.3027 9.44651 10.8649 9.17403 11.5227C8.90156 12.1805 8.83027 12.9044 8.96917 13.6027C9.10808 14.301 9.45095 14.9425 9.95442 15.446C10.4579 15.9494 11.0993 16.2923 11.7977 16.4312C12.496 16.5701 13.2198 16.4988 13.8777 16.2264C14.5355 15.9539 15.0977 15.4925 15.4933 14.9004C15.8889 14.3084 16.1 13.6124 16.1 12.9004H12.5V9.30039Z" fill="#0A0D14" style="fill:#0A0D14;fill:color(display-p3 0.0392 0.0510 0.0784);fill-opacity:1;"/>
</svg>
