<svg width="25" height="24" viewBox="0 0 25 24" fill="none" xmlns="http://www.w3.org/2000/svg">
<path d="M6.5 17.25V6.75H10.6893L12.1894 8.25H18.5V17.25H6.5ZM19.25 6.75H12.8106L11.3106 5.25H5.75C5.33579 5.25 5 5.58579 5 6V18C5 18.4142 5.33579 18.75 5.75 18.75H19.25C19.6642 18.75 20 18.4142 20 18V7.5C20 7.08579 19.6642 6.75 19.25 6.75ZM14.7506 12.5002L11.0914 10.0608C11.0421 10.0279 10.9842 10.0104 10.925 10.0104C10.7593 10.0104 10.625 10.1447 10.625 10.3104V15.1893C10.625 15.2485 10.6425 15.3064 10.6754 15.3557C10.7673 15.4936 10.9536 15.5308 11.0914 15.4389L14.7506 12.9994C14.7835 12.9775 14.8118 12.9492 14.8338 12.9163C14.9257 12.7784 14.8884 12.5921 14.7506 12.5002Z" fill="#0A0D14" style="fill:#0A0D14;fill:color(display-p3 0.0392 0.0510 0.0784);fill-opacity:1;"/>
</svg>
