<svg width="25" height="24" viewBox="0 0 25 24" fill="none" xmlns="http://www.w3.org/2000/svg">
<path d="M12.8726 5.70039H20.6C20.8387 5.70039 21.0676 5.79521 21.2364 5.96399C21.4052 6.13278 21.5 6.3617 21.5 6.60039V19.2004C21.5 19.4391 21.4052 19.668 21.2364 19.8368C21.0676 20.0056 20.8387 20.1004 20.6 20.1004H4.4C4.16131 20.1004 3.93239 20.0056 3.7636 19.8368C3.59482 19.668 3.5 19.4391 3.5 19.2004V4.80039C3.5 4.5617 3.59482 4.33278 3.7636 4.16399C3.93239 3.99521 4.16131 3.90039 4.4 3.90039H11.0726L12.8726 5.70039ZM8.9 9.30039V13.714C8.9 14.5168 9.3014 15.2656 9.9683 15.7111L12.5 17.3986L15.0317 15.7111C15.3604 15.4918 15.6299 15.1948 15.8162 14.8465C16.0026 14.4981 16.1 14.1091 16.1 13.714V9.30039H8.9ZM10.7 13.714V11.1004H14.3V13.714C14.3 13.8128 14.2756 13.9101 14.229 13.9973C14.1824 14.0844 14.1149 14.1587 14.0327 14.2135L12.5 15.235L10.9673 14.2135C10.8851 14.1587 10.8176 14.0844 10.771 13.9973C10.7244 13.9101 10.7 13.8128 10.7 13.714Z" fill="#0A0D14" style="fill:#0A0D14;fill:color(display-p3 0.0392 0.0510 0.0784);fill-opacity:1;"/>
</svg>
