<svg width="25" height="24" viewBox="0 0 25 24" fill="none" xmlns="http://www.w3.org/2000/svg">
<path d="M11.8214 14.7008H5.97859L4.17859 19.2008H2.23999L7.99999 4.80078H9.79999L15.56 19.2008H13.6214L11.8214 14.7008ZM11.1014 12.9008L8.89999 7.39728L6.69859 12.9008H11.1014ZM20.6 12.4823V12.0008H22.4V19.2008H20.6V18.7193C20.0527 19.0349 19.432 19.201 18.8002 19.2008C18.1684 19.2006 17.5478 19.0341 17.0007 18.7181C16.4536 18.402 15.9993 17.9476 15.6835 17.4004C15.3677 16.8532 15.2014 16.2326 15.2014 15.6008C15.2014 14.969 15.3677 14.3483 15.6835 13.8011C15.9993 13.2539 16.4536 12.7995 17.0007 12.4835C17.5478 12.1675 18.1684 12.001 18.8002 12.0008C19.432 12.0006 20.0527 12.1666 20.6 12.4823ZM18.8 17.4008C19.2774 17.4008 19.7352 17.2111 20.0728 16.8736C20.4103 16.536 20.6 16.0782 20.6 15.6008C20.6 15.1234 20.4103 14.6656 20.0728 14.328C19.7352 13.9904 19.2774 13.8008 18.8 13.8008C18.3226 13.8008 17.8648 13.9904 17.5272 14.328C17.1896 14.6656 17 15.1234 17 15.6008C17 16.0782 17.1896 16.536 17.5272 16.8736C17.8648 17.2111 18.3226 17.4008 18.8 17.4008Z" fill="#0A0D14" style="fill:#0A0D14;fill:color(display-p3 0.0392 0.0510 0.0784);fill-opacity:1;"/>
</svg>
