<svg width="25" height="24" viewBox="0 0 25 24" fill="none" xmlns="http://www.w3.org/2000/svg">
<path d="M12.5 3C17.4707 3 21.5 7.0293 21.5 12C21.5 16.9707 17.4707 21 12.5 21C7.5293 21 3.5 16.9707 3.5 12C3.5 7.0293 7.5293 3 12.5 3ZM14.003 15.6H10.997L9.755 17.3073L10.2536 18.8427C10.9787 19.0802 11.737 19.2008 12.5 19.2C13.2839 19.2 14.039 19.074 14.7464 18.8427L15.2441 17.3073L14.0021 15.6H14.003ZM6.4646 10.9848L5.3018 11.8281L5.3 12C5.3 13.557 5.7941 14.9979 6.6338 16.176H8.3528L9.5435 14.538L8.6183 11.685L6.4646 10.9848ZM18.5354 10.9848L16.3817 11.685L15.4565 14.538L16.6463 16.176H18.3653C19.2354 14.9576 19.7022 13.4972 19.7 12L19.6973 11.8281L18.5354 10.9848ZM14.561 5.0997L13.4 5.9457V8.211L15.8246 9.9723L17.8397 9.318L18.3383 7.7853C17.4092 6.49908 16.0818 5.55514 14.5619 5.0997H14.561ZM10.4372 5.0997C8.91714 5.55538 7.58979 6.49965 6.6608 7.7862L7.1594 9.318L9.1745 9.9723L11.6 8.211V5.9457L10.4381 5.0997H10.4372Z" fill="#0A0D14" style="fill:#0A0D14;fill:color(display-p3 0.0392 0.0510 0.0784);fill-opacity:1;"/>
</svg>
