<svg width="25" height="24" viewBox="0 0 25 24" fill="none" xmlns="http://www.w3.org/2000/svg">
<path d="M5.29998 17.4002H10.25V18.5252C10.25 19.1816 9.98922 19.8112 9.52507 20.2753C9.06091 20.7395 8.43139 21.0002 7.77498 21.0002C7.11856 21.0002 6.48904 20.7395 6.02489 20.2753C5.56073 19.8112 5.29998 19.1816 5.29998 18.5252V17.4002ZM8.95218 13.8002L8.99268 13.6814C9.68298 11.786 9.79998 11.4332 9.79998 11.1002C9.79998 10.4252 9.61728 9.62152 9.32478 9.05452C9.10698 8.63152 8.95398 8.50822 8.89998 8.50822C7.74798 8.50822 6.64998 9.73582 6.64998 11.1002C6.64998 11.9633 6.71748 12.6959 6.85428 13.5824L6.88848 13.8002H8.95218ZM8.89998 6.70822C10.7 6.70822 11.6 9.30022 11.6 11.1002C11.6 12.0002 11.15 12.9002 10.7 14.2502L10.25 15.6002H5.29998C5.29998 14.7002 4.84998 13.3502 4.84998 11.1002C4.84998 8.85022 6.64818 6.70822 8.89998 6.70822ZM19.7486 13.8884L19.5533 14.9963C19.4393 15.6428 19.0732 16.2176 18.5354 16.5941C17.9977 16.9707 17.3324 17.1182 16.6859 17.0042C16.0394 16.8902 15.4646 16.5241 15.0881 15.9864C14.7115 15.4486 14.564 14.7833 14.678 14.1368L14.8742 13.0298L19.7486 13.8884ZM18.8036 10.067C18.9521 9.61702 19.0745 9.26152 19.0763 9.25702C19.2581 8.66482 19.4012 8.08432 19.5128 7.44982C19.7495 6.10702 18.881 4.70752 17.747 4.50682C17.6939 4.49782 17.522 4.59232 17.234 4.97032C16.847 5.47882 16.5284 6.23932 16.4105 6.90262C16.3583 7.19962 16.3664 7.26712 16.6535 8.93932C16.694 9.16972 16.7273 9.37672 16.7579 9.58462L16.7759 9.70882L18.8045 10.067H18.8036ZM18.0602 2.73472C20.2778 3.12532 21.6764 5.54632 21.2858 7.76212C20.8952 9.97882 20.2175 11.2298 20.0618 12.1163L15.1865 11.2568L14.9777 9.84922C14.7689 8.44162 14.4827 7.47682 14.6384 6.59122C14.9507 4.81822 16.2872 2.42242 18.0602 2.73472Z" fill="#0A0D14" style="fill:#0A0D14;fill:color(display-p3 0.0392 0.0510 0.0784);fill-opacity:1;"/>
</svg>
