<svg width="25" height="24" viewBox="0 0 25 24" fill="none" xmlns="http://www.w3.org/2000/svg">
<path d="M5 12C5 7.85786 8.35786 4.5 12.5 4.5C14.9535 4.5 17.1318 5.67806 18.5001 7.49938L18.5 5.625H20V10.125H16.3741C16.5337 10.4008 16.625 10.721 16.625 11.0625V12.9375C16.625 13.973 15.7855 14.8125 14.75 14.8125C13.7145 14.8125 12.875 13.973 12.875 12.9375V11.0625C12.875 10.027 13.7145 9.1875 14.75 9.1875C15.0167 9.1875 15.2704 9.24317 15.5 9.34352V8.625L17.4616 8.62518C16.3816 7.0405 14.5624 6 12.5 6C9.18629 6 6.5 8.68629 6.5 12C6.5 15.3137 9.18629 18 12.5 18C15.8137 18 18.5 15.3137 18.5 12H20C20 16.1421 16.6421 19.5 12.5 19.5C8.35786 19.5 5 16.1421 5 12ZM14.75 10.3125C14.3358 10.3125 14 10.6483 14 11.0625V12.9375C14 13.3517 14.3358 13.6875 14.75 13.6875C15.1642 13.6875 15.5 13.3517 15.5 12.9375V11.0625C15.5 10.6483 15.1642 10.3125 14.75 10.3125ZM10.5311 12.5625C10.79 12.5625 10.9999 12.7724 10.9999 13.0312C10.9999 13.2901 10.79 13.5 10.5311 13.5H8.5625V14.625H10.5311C11.4113 14.625 12.1248 13.9115 12.1248 13.0312C12.1248 12.6379 11.9824 12.2779 11.7463 12C11.9824 11.7221 12.1248 11.3621 12.1248 10.9688C12.1248 10.0886 11.4113 9.375 10.5311 9.375H8.5625V10.5H10.5311C10.79 10.5 10.9999 10.7098 10.9999 10.9688C10.9999 11.2277 10.79 11.4375 10.5311 11.4375H9.125V12.5625H10.5311Z" fill="#0A0D14" style="fill:#0A0D14;fill:color(display-p3 0.0392 0.0510 0.0784);fill-opacity:1;"/>
</svg>
