<svg width="25" height="24" viewBox="0 0 25 24" fill="none" xmlns="http://www.w3.org/2000/svg">
<path d="M12.5 4.5C8.35786 4.5 5 7.85786 5 12C5 16.1421 8.35786 19.5 12.5 19.5C16.6421 19.5 20 16.1421 20 12H18.5C18.5 15.3137 15.8137 18 12.5 18C9.18629 18 6.5 15.3137 6.5 12C6.5 8.68629 9.18629 6 12.5 6C14.5624 6 16.3816 7.0405 17.4616 8.62518L15.5 8.625V9.375H12.5V12.5625H14.6562C14.9151 12.5625 15.125 12.7724 15.125 13.0312C15.125 13.2901 14.9151 13.5 14.6562 13.5H12.5V14.625H14.6562C15.5365 14.625 16.25 13.9115 16.25 13.0312C16.25 12.1511 15.5365 11.4375 14.6562 11.4375H13.625V10.5H16.0625V10.125H20V5.625H18.5L18.5001 7.49938C17.1318 5.67806 14.9535 4.5 12.5 4.5ZM9.875 9.375H11V14.625H9.875V9.375Z" fill="#0A0D14" style="fill:#0A0D14;fill:color(display-p3 0.0392 0.0510 0.0784);fill-opacity:1;"/>
</svg>
