<svg width="25" height="24" viewBox="0 0 25 24" fill="none" xmlns="http://www.w3.org/2000/svg">
<path d="M5 12C5 7.85786 8.35786 4.5 12.5 4.5C14.7619 4.5 16.79 5.50132 18.1651 7.08486L20 5.25V9.75H15.5L17.1013 8.14907C16.0007 6.83537 14.3479 6 12.5 6C9.18629 6 6.5 8.68629 6.5 12C6.5 15.3137 9.18629 18 12.5 18C15.8137 18 18.5 15.3137 18.5 12H20C20 16.1421 16.6421 19.5 12.5 19.5C8.35786 19.5 5 16.1421 5 12ZM14.375 10.5V9.375H10.625V12.5625H12.9688C13.2276 12.5625 13.4375 12.7724 13.4375 13.0312C13.4375 13.2901 13.2276 13.5 12.9688 13.5H10.625V14.625H12.9688C13.849 14.625 14.5625 13.9115 14.5625 13.0312C14.5625 12.1511 13.849 11.4375 12.9688 11.4375H11.75V10.5H14.375Z" fill="#0A0D14" style="fill:#0A0D14;fill:color(display-p3 0.0392 0.0510 0.0784);fill-opacity:1;"/>
</svg>
