<svg width="25" height="24" viewBox="0 0 25 24" fill="none" xmlns="http://www.w3.org/2000/svg">
<path d="M5.66541 14.2707L8.72721 11.2089L11.2724 13.755L14.1137 10.9137L12.5 9.3H17V13.8L15.3863 12.1863L11.2724 16.3002L8.72721 13.755L6.49971 15.9816C7.51078 17.5034 9.06257 18.5839 10.8406 19.0041C12.6187 19.4244 14.49 19.1529 16.0754 18.2448C17.6607 17.3367 18.8416 15.8599 19.3786 14.1136C19.9157 12.3672 19.7688 10.4821 18.9676 8.84004C18.1665 7.19802 16.7711 5.92197 15.0641 5.27047C13.3572 4.61897 11.4664 4.64076 9.77497 5.33142C8.08351 6.02208 6.71787 7.32995 5.95479 8.99C5.1917 10.6501 5.08826 12.5381 5.66541 14.2716V14.2707ZM4.28121 15.6729L4.27221 15.6639L4.27581 15.6603C3.76274 14.5083 3.49839 13.2611 3.50001 12C3.50001 7.0293 7.52931 3 12.5 3C17.4707 3 21.5 7.0293 21.5 12C21.5 16.9707 17.4707 21 12.5 21C8.83701 21 5.68701 18.813 4.28121 15.6729Z" fill="#0A0D14" style="fill:#0A0D14;fill:color(display-p3 0.0392 0.0510 0.0784);fill-opacity:1;"/>
</svg>
