<svg width="25" height="24" viewBox="0 0 25 24" fill="none" xmlns="http://www.w3.org/2000/svg">
<path d="M8.9 2.10156V3.90156H16.1V2.10156H17.9V3.90156H20.6072C21.1004 3.90156 21.5 4.30206 21.5 4.79526V19.2079C21.4984 19.4442 21.4038 19.6704 21.2367 19.8377C21.0697 20.0049 20.8436 20.0997 20.6072 20.1016H4.3928C4.15593 20.1013 3.92885 20.0071 3.76144 19.8395C3.59403 19.6719 3.5 19.4447 3.5 19.2079V4.79526C3.50165 4.5589 3.59621 4.33268 3.76326 4.16546C3.93031 3.99824 4.15644 3.90345 4.3928 3.90156H7.1V2.10156H8.9ZM12.5 8.40156L8.9 12.0016H11.6V15.6016H13.4V12.0016H16.1L12.5 8.40156Z" fill="#0A0D14" style="fill:#0A0D14;fill:color(display-p3 0.0392 0.0510 0.0784);fill-opacity:1;"/>
</svg>
