<svg width="25" height="24" viewBox="0 0 25 24" fill="none" xmlns="http://www.w3.org/2000/svg">
<path d="M17.3681 18.3016C16.6697 16.1425 15.3188 14.8051 13.5287 13.2598C15.2804 11.8594 17.4573 11.0981 19.7 11.1016V3.90156H20.6072C21.1004 3.90156 21.5 4.30206 21.5 4.79526V19.2079C21.4984 19.4442 21.4038 19.6704 21.2367 19.8377C21.0697 20.0049 20.8436 20.0997 20.6072 20.1016H4.3928C4.15593 20.1013 3.92885 20.0071 3.76144 19.8395C3.59403 19.6719 3.5 19.4447 3.5 19.2079V4.79526C3.50165 4.5589 3.59621 4.33268 3.76326 4.16546C3.93031 3.99824 4.15644 3.90345 4.3928 3.90156H7.1V2.10156H8.9V5.70156H5.3V12.0016C9.998 12.0016 13.9958 14.2174 15.4817 18.3016H17.3681ZM17.9 2.10156V5.70156H10.7V3.90156H16.1V2.10156H17.9ZM16.55 10.2016C16.192 10.2016 15.8486 10.0593 15.5954 9.80616C15.3422 9.55298 15.2 9.2096 15.2 8.85156C15.2 8.49352 15.3422 8.15014 15.5954 7.89697C15.8486 7.64379 16.192 7.50156 16.55 7.50156C16.908 7.50156 17.2514 7.64379 17.5046 7.89697C17.7578 8.15014 17.9 8.49352 17.9 8.85156C17.9 9.2096 17.7578 9.55298 17.5046 9.80616C17.2514 10.0593 16.908 10.2016 16.55 10.2016Z" fill="#0A0D14" style="fill:#0A0D14;fill:color(display-p3 0.0392 0.0510 0.0784);fill-opacity:1;"/>
</svg>
