<svg width="25" height="24" viewBox="0 0 25 24" fill="none" xmlns="http://www.w3.org/2000/svg">
<path d="M17 4.7998C18.4321 4.7998 19.8057 5.36873 20.8184 6.38143C21.831 7.39412 22.4 8.76764 22.4 10.1998V13.7998C22.4 15.232 21.831 16.6055 20.8184 17.6182C19.8057 18.6309 18.4321 19.1998 17 19.1998H7.99998C6.56781 19.1998 5.1943 18.6309 4.1816 17.6182C3.1689 16.6055 2.59998 15.232 2.59998 13.7998V10.1998C2.59998 8.76764 3.1689 7.39412 4.1816 6.38143C5.1943 5.36873 6.56781 4.7998 7.99998 4.7998H17ZM10.7 9.2998H8.89998V11.0998H7.09998V12.8998H8.89908L8.89998 14.6998H10.7L10.6991 12.8998H12.5V11.0998H10.7V9.2998ZM17.9 12.8998H16.1V14.6998H17.9V12.8998ZM16.1 9.2998H14.3V11.0998H16.1V9.2998Z" fill="#0A0D14" style="fill:#0A0D14;fill:color(display-p3 0.0392 0.0510 0.0784);fill-opacity:1;"/>
</svg>
