<svg width="25" height="24" viewBox="0 0 25 24" fill="none" xmlns="http://www.w3.org/2000/svg">
<path d="M17 4.7998C18.4321 4.7998 19.8057 5.36873 20.8184 6.38143C21.831 7.39412 22.4 8.76764 22.4 10.1998V13.7998C22.4 15.232 21.831 16.6055 20.8184 17.6182C19.8057 18.6309 18.4321 19.1998 17 19.1998H7.99998C6.56781 19.1998 5.1943 18.6309 4.1816 17.6182C3.1689 16.6055 2.59998 15.232 2.59998 13.7998V10.1998C2.59998 8.76764 3.1689 7.39412 4.1816 6.38143C5.1943 5.36873 6.56781 4.7998 7.99998 4.7998H17ZM17 6.5998H7.99998C7.07636 6.5998 6.18807 6.9548 5.51885 7.59136C4.84962 8.22792 4.45066 9.09734 4.40448 10.0198L4.39998 10.1998V13.7998C4.39997 14.7234 4.75497 15.6117 5.39153 16.2809C6.02809 16.9502 6.89751 17.3491 7.81998 17.3953L7.99998 17.3998H17C17.9236 17.3998 18.8119 17.0448 19.4811 16.4083C20.1503 15.7717 20.5493 14.9023 20.5955 13.9798L20.6 13.7998V10.1998C20.6 9.27619 20.245 8.3879 19.6084 7.71867C18.9719 7.04945 18.1024 6.65049 17.18 6.6043L17 6.5998ZM10.7 9.2998V11.0998H12.5V12.8998H10.6991L10.7 14.6998H8.89998L8.89908 12.8998H7.09998V11.0998H8.89998V9.2998H10.7ZM17.9 12.8998V14.6998H16.1V12.8998H17.9ZM16.1 9.2998V11.0998H14.3V9.2998H16.1Z" fill="#0A0D14" style="fill:#0A0D14;fill:color(display-p3 0.0392 0.0510 0.0784);fill-opacity:1;"/>
</svg>
