<svg width="25" height="24" viewBox="0 0 25 24" fill="none" xmlns="http://www.w3.org/2000/svg">
<path d="M12.5 3C13.834 2.99865 15.1516 3.29446 16.357 3.86595C17.5624 4.43744 18.6254 5.27026 19.4687 6.3039L13.7726 12L19.4687 17.6961C18.6254 18.7298 17.5624 19.5626 16.357 20.1341C15.1516 20.7056 13.834 21.0014 12.5 21C7.5293 21 3.5 16.9707 3.5 12C3.5 7.0293 7.5293 3 12.5 3ZM12.5 4.8C11.3641 4.80021 10.2444 5.06914 9.23238 5.58484C8.22033 6.10054 7.34465 6.84837 6.67689 7.76722C6.00913 8.68607 5.56823 9.74987 5.39023 10.8717C5.21224 11.9935 5.30218 13.1416 5.65272 14.222C6.00326 15.3024 6.60444 16.2846 7.40716 17.0882C8.20987 17.8919 9.19133 18.4942 10.2713 18.846C11.3514 19.1978 12.4993 19.2891 13.6213 19.1124C14.7434 18.9357 15.8077 18.496 16.7273 17.8293L16.9145 17.688L11.2265 12L16.9145 6.3111L16.7273 6.1707C15.5742 5.33246 14.1973 4.85711 12.7727 4.8054L12.5 4.8ZM12.5 5.7C12.858 5.7 13.2014 5.84224 13.4546 6.09541C13.7078 6.34858 13.85 6.69196 13.85 7.05C13.85 7.40805 13.7078 7.75143 13.4546 8.0046C13.2014 8.25777 12.858 8.4 12.5 8.4C12.142 8.4 11.7986 8.25777 11.5454 8.0046C11.2922 7.75143 11.15 7.40805 11.15 7.05C11.15 6.69196 11.2922 6.34858 11.5454 6.09541C11.7986 5.84224 12.142 5.7 12.5 5.7Z" fill="#0A0D14" style="fill:#0A0D14;fill:color(display-p3 0.0392 0.0510 0.0784);fill-opacity:1;"/>
</svg>
