<svg width="25" height="24" viewBox="0 0 25 24" fill="none" xmlns="http://www.w3.org/2000/svg">
<path d="M12.2759 20.9973C7.57699 20.8821 3.77089 17.166 3.51349 12.5031L3.50269 12.2214L12.2759 20.9973ZM12.5 3C13.9473 2.99896 15.3734 3.34739 16.6572 4.01568C17.941 4.68397 19.0444 5.65235 19.8737 6.8385L18.3995 7.8717C17.6505 6.80216 16.6249 5.95631 15.4324 5.42464C14.2398 4.89298 12.9252 4.69548 11.629 4.85328C10.3329 5.01108 9.10404 5.51824 8.07389 6.32051C7.04374 7.12279 6.25104 8.19 5.78059 9.408L15.092 18.7194C16.1603 18.306 17.1148 17.6442 17.8767 16.7888C18.6385 15.9334 19.1858 14.9089 19.4732 13.8H15.65V12H21.5C21.5 16.2534 18.5489 19.8174 14.5835 20.757L3.74209 9.9174C4.68259 5.952 8.24659 3 12.5 3Z" fill="#0A0D14" style="fill:#0A0D14;fill:color(display-p3 0.0392 0.0510 0.0784);fill-opacity:1;"/>
</svg>
