<svg width="25" height="24" viewBox="0 0 25 24" fill="none" xmlns="http://www.w3.org/2000/svg">
<path d="M12.5 3C7.55 3 3.5 7.05 3.5 12C3.5 16.95 7.55 21 12.5 21C17.45 21 21.5 16.95 21.5 12C21.5 7.05 17.45 3 12.5 3ZM7.4861 17.0139C6.1361 15.6639 5.4287 13.8639 5.4287 12.1287L12.4361 19.0713C10.6361 19.0074 8.8361 18.3639 7.4861 17.0139ZM14.0426 18.8787L5.6213 10.4574C6.3287 7.3074 9.1574 4.9287 12.5 4.9287C14.8787 4.9287 16.9361 6.0861 18.2213 7.8213L17.2574 8.6574C16.163 7.1787 14.4287 6.213 12.5 6.213C9.9926 6.213 7.8713 7.8204 7.0361 10.0704L14.4287 17.463C16.2926 16.8204 17.7074 15.213 18.1574 13.2852H15.0713V12H19.5713C19.5713 15.3426 17.1926 18.1713 14.0426 18.8787Z" fill="#0A0D14" style="fill:#0A0D14;fill:color(display-p3 0.0392 0.0510 0.0784);fill-opacity:1;"/>
</svg>
