<svg width="25" height="24" viewBox="0 0 25 24" fill="none" xmlns="http://www.w3.org/2000/svg">
<path d="M13.4 7.56096C15.0957 7.79084 16.6407 8.65607 17.7228 9.98168C18.8049 11.3073 19.3432 12.9944 19.2289 14.7017C19.1145 16.4091 18.3561 18.0093 17.107 19.1788C15.8578 20.3483 14.2112 20.9998 12.5 21.0016C10.7867 21.0032 9.13693 20.3533 7.88509 19.1836C6.63324 18.0139 5.87303 16.412 5.75856 14.7025C5.6441 12.9931 6.18394 11.3041 7.26866 9.97795C8.35338 8.6518 9.90179 7.78775 11.6 7.56096V2.10156H13.4V7.56096ZM12.5 19.2016C13.8128 19.2016 15.0719 18.68 16.0002 17.7517C16.9285 16.8234 17.45 15.5644 17.45 14.2516C17.45 12.9387 16.9285 11.6797 16.0002 10.7514C15.0719 9.82308 13.8128 9.30156 12.5 9.30156C11.1872 9.30156 9.92811 9.82308 8.99981 10.7514C8.0715 11.6797 7.54999 12.9387 7.54999 14.2516C7.54999 15.5644 8.0715 16.8234 8.99981 17.7517C9.92811 18.68 11.1872 19.2016 12.5 19.2016Z" fill="#0A0D14" style="fill:#0A0D14;fill:color(display-p3 0.0392 0.0510 0.0784);fill-opacity:1;"/>
</svg>
