<svg width="25" height="24" viewBox="0 0 25 24" fill="none" xmlns="http://www.w3.org/2000/svg">
<path d="M12.5 3C14.6483 3 16.7085 3.85339 18.2276 5.37243C19.7466 6.89148 20.6 8.95175 20.6 11.1V17.85C20.6003 18.5231 20.385 19.1787 19.9856 19.7205C19.5862 20.2624 19.0237 20.6621 18.3806 20.8609C17.7375 21.0598 17.0476 21.0474 16.4121 20.8256C15.7765 20.6038 15.2287 20.1842 14.849 19.6284C14.6139 20.0448 14.2724 20.3913 13.8594 20.6324C13.4465 20.8734 12.9769 21.0005 12.4987 21.0005C12.0205 21.0005 11.5509 20.8734 11.1379 20.6324C10.7249 20.3913 10.3834 20.0448 10.1483 19.6284C9.77664 20.171 9.24446 20.5836 8.62641 20.8084C8.00836 21.0332 7.33545 21.0589 6.70204 20.882C6.06863 20.705 5.50649 20.3342 5.09446 19.8216C4.68243 19.309 4.44118 18.6803 4.40452 18.0237L4.40002 17.8491V11.1C4.40002 8.95175 5.25341 6.89148 6.77246 5.37243C8.2915 3.85339 10.3518 3 12.5 3ZM16.1 12.9H14.3C14.3021 13.3671 14.1226 13.8167 13.7993 14.1538C13.476 14.491 13.0343 14.6893 12.5676 14.7068C12.1008 14.7243 11.6455 14.5597 11.2979 14.2478C10.9502 13.9358 10.7375 13.5009 10.7045 13.035L10.7 12.9H8.90002L8.90452 13.08C8.95069 14.0025 9.34965 14.8719 10.0189 15.5085C10.6881 16.1451 11.5764 16.5001 12.5 16.5001C13.4237 16.5001 14.3119 16.1451 14.9812 15.5085C15.6504 14.8719 16.0494 14.0025 16.0955 13.08L16.1 12.9ZM12.5 7.5C12.0226 7.5 11.5648 7.68964 11.2272 8.02721C10.8897 8.36477 10.7 8.82261 10.7 9.3C10.7 9.77739 10.8897 10.2352 11.2272 10.5728C11.5648 10.9104 12.0226 11.1 12.5 11.1C12.9774 11.1 13.4353 10.9104 13.7728 10.5728C14.1104 10.2352 14.3 9.77739 14.3 9.3C14.3 8.82261 14.1104 8.36477 13.7728 8.02721C13.4353 7.68964 12.9774 7.5 12.5 7.5Z" fill="#0A0D14" style="fill:#0A0D14;fill:color(display-p3 0.0392 0.0510 0.0784);fill-opacity:1;"/>
</svg>
