<svg width="25" height="24" viewBox="0 0 25 24" fill="none" xmlns="http://www.w3.org/2000/svg">
<path d="M12.5 3C14.6483 3 16.7085 3.85339 18.2276 5.37243C19.7466 6.89148 20.6 8.95175 20.6 11.1V17.85C20.6003 18.5231 20.385 19.1787 19.9856 19.7205C19.5862 20.2624 19.0237 20.6621 18.3806 20.8609C17.7375 21.0598 17.0476 21.0474 16.4121 20.8256C15.7765 20.6038 15.2287 20.1842 14.849 19.6284C14.6139 20.0448 14.2724 20.3913 13.8594 20.6324C13.4465 20.8734 12.9769 21.0005 12.4987 21.0005C12.0205 21.0005 11.5509 20.8734 11.1379 20.6324C10.7249 20.3913 10.3834 20.0448 10.1483 19.6284C9.77664 20.171 9.24446 20.5836 8.62641 20.8084C8.00836 21.0332 7.33545 21.0589 6.70204 20.882C6.06863 20.705 5.50649 20.3342 5.09446 19.8216C4.68243 19.309 4.44118 18.6803 4.40452 18.0237L4.40002 17.8491V11.1C4.40002 8.95175 5.25341 6.89148 6.77246 5.37243C8.2915 3.85339 10.3518 3 12.5 3ZM12.5 12C11.5055 12 10.7 13.008 10.7 14.25C10.7 15.492 11.5055 16.5 12.5 16.5C13.4945 16.5 14.3 15.492 14.3 14.25C14.3 13.008 13.4945 12 12.5 12ZM10.25 8.4C9.89198 8.4 9.5486 8.54223 9.29543 8.79541C9.04226 9.04858 8.90002 9.39196 8.90002 9.75C8.90002 10.108 9.04226 10.4514 9.29543 10.7046C9.5486 10.9578 9.89198 11.1 10.25 11.1C10.6081 11.1 10.9514 10.9578 11.2046 10.7046C11.4578 10.4514 11.6 10.108 11.6 9.75C11.6 9.39196 11.4578 9.04858 11.2046 8.79541C10.9514 8.54223 10.6081 8.4 10.25 8.4ZM14.75 8.4C14.392 8.4 14.0486 8.54223 13.7954 8.79541C13.5423 9.04858 13.4 9.39196 13.4 9.75C13.4 10.108 13.5423 10.4514 13.7954 10.7046C14.0486 10.9578 14.392 11.1 14.75 11.1C15.1081 11.1 15.4514 10.9578 15.7046 10.7046C15.9578 10.4514 16.1 10.108 16.1 9.75C16.1 9.39196 15.9578 9.04858 15.7046 8.79541C15.4514 8.54223 15.1081 8.4 14.75 8.4Z" fill="#0A0D14" style="fill:#0A0D14;fill:color(display-p3 0.0392 0.0510 0.0784);fill-opacity:1;"/>
</svg>
