<svg width="25" height="24" viewBox="0 0 25 24" fill="none" xmlns="http://www.w3.org/2000/svg">
<path d="M12.5 3C14.6483 3 16.7085 3.85339 18.2276 5.37243C19.7466 6.89148 20.6 8.95175 20.6 11.1V17.85C20.6003 18.5231 20.385 19.1787 19.9856 19.7205C19.5862 20.2624 19.0237 20.6621 18.3806 20.8609C17.7375 21.0598 17.0476 21.0474 16.4121 20.8256C15.7765 20.6038 15.2287 20.1842 14.849 19.6284C14.6139 20.0448 14.2724 20.3913 13.8594 20.6324C13.4465 20.8734 12.9769 21.0005 12.4987 21.0005C12.0205 21.0005 11.5509 20.8734 11.1379 20.6324C10.7249 20.3913 10.3834 20.0448 10.1483 19.6284C9.77664 20.171 9.24446 20.5836 8.62641 20.8084C8.00836 21.0332 7.33545 21.0589 6.70204 20.882C6.06863 20.705 5.50649 20.3342 5.09446 19.8216C4.68243 19.309 4.44118 18.6803 4.40452 18.0237L4.40002 17.8491V11.1C4.40002 8.95175 5.25341 6.89148 6.77246 5.37243C8.2915 3.85339 10.3518 3 12.5 3ZM12.5 4.8C10.8665 4.79997 9.29691 5.4344 8.12222 6.56947C6.94753 7.70453 6.25963 9.25148 6.20362 10.884L6.20002 11.1V17.8014L6.20182 17.9256C6.21733 18.1954 6.31346 18.4543 6.47777 18.6689C6.64207 18.8835 6.86699 19.0438 7.12342 19.1291C7.37985 19.2144 7.65598 19.2208 7.91608 19.1474C8.17618 19.0741 8.40827 18.9243 8.58232 18.7176L8.66152 18.6132C8.83386 18.3605 9.06774 18.1559 9.3411 18.0187C9.61446 17.8815 9.91827 17.8162 10.2239 17.829C10.5295 17.8418 10.8268 17.9322 11.0877 18.0918C11.3486 18.2514 11.5646 18.4748 11.7152 18.741C11.7933 18.8799 11.9069 18.9955 12.0443 19.0761C12.1817 19.1567 12.3381 19.1993 12.4974 19.1995C12.6568 19.1998 12.8133 19.1577 12.951 19.0777C13.0887 18.9976 13.2027 18.8823 13.2812 18.7437C13.4253 18.488 13.6297 18.2713 13.8767 18.1127C14.1237 17.954 14.4057 17.8582 14.6982 17.8335C14.9907 17.8089 15.2848 17.8561 15.5549 17.9711C15.8249 18.0862 16.0627 18.2655 16.2476 18.4935L16.3349 18.6105C16.4912 18.8399 16.7143 19.0156 16.974 19.1137C17.2337 19.2117 17.5173 19.2273 17.7862 19.1583C18.0551 19.0894 18.2962 18.9392 18.4766 18.7283C18.6571 18.5173 18.7681 18.2559 18.7946 17.9796L18.8 17.85V11.1C18.8 9.42914 18.1363 7.82671 16.9548 6.64523C15.7733 5.46375 14.1709 4.8 12.5 4.8ZM12.5 12C13.4945 12 14.3 13.008 14.3 14.25C14.3 15.492 13.4945 16.5 12.5 16.5C11.5055 16.5 10.7 15.492 10.7 14.25C10.7 13.008 11.5055 12 12.5 12ZM10.25 8.4C10.6081 8.4 10.9514 8.54223 11.2046 8.79541C11.4578 9.04858 11.6 9.39196 11.6 9.75C11.6 10.108 11.4578 10.4514 11.2046 10.7046C10.9514 10.9578 10.6081 11.1 10.25 11.1C9.89198 11.1 9.5486 10.9578 9.29543 10.7046C9.04226 10.4514 8.90002 10.108 8.90002 9.75C8.90002 9.39196 9.04226 9.04858 9.29543 8.79541C9.5486 8.54223 9.89198 8.4 10.25 8.4ZM14.75 8.4C15.1081 8.4 15.4514 8.54223 15.7046 8.79541C15.9578 9.04858 16.1 9.39196 16.1 9.75C16.1 10.108 15.9578 10.4514 15.7046 10.7046C15.4514 10.9578 15.1081 11.1 14.75 11.1C14.392 11.1 14.0486 10.9578 13.7954 10.7046C13.5423 10.4514 13.4 10.108 13.4 9.75C13.4 9.39196 13.5423 9.04858 13.7954 8.79541C14.0486 8.54223 14.392 8.4 14.75 8.4Z" fill="#0A0D14" style="fill:#0A0D14;fill:color(display-p3 0.0392 0.0510 0.0784);fill-opacity:1;"/>
</svg>
