<svg width="25" height="24" viewBox="0 0 25 24" fill="none" xmlns="http://www.w3.org/2000/svg">
<path d="M12.5 3C15.65 3 17.9 5.7 18.8 8.4C21.5 9.3 22.4 11.757 22.4 13.8L19.9025 14.5137C19.7145 14.5675 19.5492 14.6809 19.4315 14.837C19.3138 14.993 19.2501 15.1831 19.25 15.3786V16.725C19.25 17.1427 19.084 17.5433 18.7887 17.8387C18.4933 18.1341 18.0927 18.3 17.675 18.3H17.1386C16.8412 18.3 16.5485 18.3736 16.2865 18.5143C16.0245 18.655 15.8015 18.8584 15.6374 19.1064C14.8022 20.37 13.7564 21 12.5 21C11.2436 21 10.1978 20.3691 9.36258 19.1064C9.19843 18.8584 8.97541 18.655 8.71345 18.5143C8.45149 18.3736 8.15874 18.3 7.86138 18.3H7.32498C6.90726 18.3 6.50665 18.1341 6.21128 17.8387C5.91591 17.5433 5.74998 17.1427 5.74998 16.725V15.3786C5.74989 15.1831 5.68617 14.993 5.56845 14.837C5.45073 14.6809 5.28541 14.5675 5.09748 14.5137L2.59998 13.8C2.59998 11.7606 3.49998 9.3 6.19998 8.4C7.09998 5.7 9.34998 3 12.5 3ZM12.5 12C11.7548 12 11.15 13.008 11.15 14.25C11.15 15.492 11.7548 16.5 12.5 16.5C13.2452 16.5 13.85 15.492 13.85 14.25C13.85 13.008 13.2452 12 12.5 12ZM10.25 8.4C9.89193 8.4 9.54856 8.54223 9.29538 8.79541C9.04221 9.04858 8.89998 9.39196 8.89998 9.75C8.89998 10.108 9.04221 10.4514 9.29538 10.7046C9.54856 10.9578 9.89193 11.1 10.25 11.1C10.608 11.1 10.9514 10.9578 11.2046 10.7046C11.4577 10.4514 11.6 10.108 11.6 9.75C11.6 9.39196 11.4577 9.04858 11.2046 8.79541C10.9514 8.54223 10.608 8.4 10.25 8.4ZM14.75 8.4C14.3919 8.4 14.0486 8.54223 13.7954 8.79541C13.5422 9.04858 13.4 9.39196 13.4 9.75C13.4 10.108 13.5422 10.4514 13.7954 10.7046C14.0486 10.9578 14.3919 11.1 14.75 11.1C15.108 11.1 15.4514 10.9578 15.7046 10.7046C15.9577 10.4514 16.1 10.108 16.1 9.75C16.1 9.39196 15.9577 9.04858 15.7046 8.79541C15.4514 8.54223 15.108 8.4 14.75 8.4Z" fill="#0A0D14" style="fill:#0A0D14;fill:color(display-p3 0.0392 0.0510 0.0784);fill-opacity:1;"/>
</svg>
