<svg width="25" height="24" viewBox="0 0 25 24" fill="none" xmlns="http://www.w3.org/2000/svg">
<path d="M15.2 3.00001C15.832 2.99993 16.453 3.16626 17.0004 3.48228C17.5477 3.7983 18.0023 4.25287 18.3182 4.80027C18.6342 5.34767 18.8005 5.96862 18.8004 6.60068C18.8003 7.23273 18.6338 7.85362 18.3176 8.40091L22.4 8.40001V10.2H20.6V19.2C20.6 19.4387 20.5052 19.6676 20.3364 19.8364C20.1676 20.0052 19.9387 20.1 19.7 20.1H5.29998C5.06128 20.1 4.83236 20.0052 4.66358 19.8364C4.4948 19.6676 4.39998 19.4387 4.39998 19.2V10.2H2.59998V8.40001L6.68238 8.40091C6.23585 7.6277 6.09259 6.71616 6.28042 5.84326C6.46825 4.97037 6.97375 4.19842 7.69878 3.6773C8.4238 3.15619 9.31661 2.9231 10.2038 3.0233C11.0911 3.12349 11.9094 3.54982 12.5 4.21951C12.8371 3.83555 13.2524 3.5281 13.7181 3.31778C14.1838 3.10745 14.689 2.99911 15.2 3.00001ZM11.6 10.2H6.19998V18.3H11.6V10.2ZM18.8 10.2H13.4V18.3H18.8V10.2ZM9.79998 4.80001C9.33289 4.79792 8.88328 4.97747 8.54614 5.30075C8.20899 5.62402 8.01071 6.06569 7.99319 6.53245C7.97566 6.99921 8.14026 7.45451 8.45222 7.80215C8.76417 8.1498 9.19905 8.36256 9.66498 8.39551L9.79998 8.40001H11.6V6.60001C11.6 6.16986 11.446 5.75393 11.1658 5.42754C10.8856 5.10115 10.4979 4.88587 10.0727 4.82071L9.93408 4.80451L9.79998 4.80001ZM15.2 4.80001C14.7459 4.79986 14.3085 4.97137 13.9755 5.28015C13.6425 5.58893 13.4385 6.01217 13.4045 6.46501L13.4 6.60001V8.40001H15.2C15.6541 8.40015 16.0915 8.22864 16.4245 7.91986C16.7575 7.61108 16.9614 7.18785 16.9955 6.73501L17 6.60001C17 6.12262 16.8103 5.66478 16.4728 5.32721C16.1352 4.98965 15.6774 4.80001 15.2 4.80001Z" fill="#0A0D14" style="fill:#0A0D14;fill:color(display-p3 0.0392 0.0510 0.0784);fill-opacity:1;"/>
</svg>
