<svg width="25" height="24" viewBox="0 0 25 24" fill="none" xmlns="http://www.w3.org/2000/svg">
<path d="M14.75 2.99917C15.2816 2.99899 15.8046 3.13334 16.2702 3.38971C16.7359 3.64608 17.1291 4.01613 17.4133 4.46539C17.6974 4.91466 17.8633 5.42853 17.8953 5.95914C17.9274 6.48976 17.8247 7.01986 17.5967 7.50007L20.6 7.49917C20.8387 7.49917 21.0676 7.594 21.2364 7.76278C21.4052 7.93156 21.5 8.16048 21.5 8.39917V11.9992C21.5 12.2379 21.4052 12.4668 21.2364 12.6356C21.0676 12.8044 20.8387 12.8992 20.6 12.8992H19.7V20.0992C19.7 20.3379 19.6052 20.5668 19.4364 20.7356C19.2676 20.9044 19.0387 20.9992 18.8 20.9992H6.2C5.96131 20.9992 5.73239 20.9044 5.5636 20.7356C5.39482 20.5668 5.3 20.3379 5.3 20.0992V12.8992H4.4C4.16131 12.8992 3.93239 12.8044 3.7636 12.6356C3.59482 12.4668 3.5 12.2379 3.5 11.9992V8.39917C3.5 8.16048 3.59482 7.93156 3.7636 7.76278C3.93239 7.594 4.16131 7.49917 4.4 7.49917L7.4033 7.50007C7.08268 6.82658 7.01146 6.06116 7.20233 5.34007C7.3932 4.61899 7.83376 3.98903 8.44559 3.56235C9.05742 3.13567 9.80081 2.93995 10.5434 3.01003C11.286 3.08012 11.9797 3.41146 12.5009 3.94507C12.7934 3.64495 13.1432 3.40658 13.5296 3.24411C13.9159 3.08163 14.3309 2.99834 14.75 2.99917ZM17.9 12.8992H7.1V19.1992H17.9V12.8992ZM19.7 9.29917H5.3V11.0992H19.7V9.29917ZM10.25 4.79917C9.9033 4.79935 9.56996 4.93289 9.31905 5.17214C9.06814 5.41139 8.91889 5.738 8.90223 6.0843C8.88557 6.43059 9.00277 6.77002 9.22956 7.03226C9.45634 7.29449 9.77532 7.45942 10.1204 7.49287L10.25 7.49917H11.6V6.14917C11.6 5.81358 11.475 5.49002 11.2493 5.2416C11.0237 4.99317 10.7136 4.83769 10.3796 4.80547L10.25 4.79917ZM14.75 4.79917L14.6204 4.80547C14.3084 4.83536 14.0166 4.97285 13.7949 5.19437C13.5732 5.41589 13.4355 5.70763 13.4054 6.01957L13.4 6.14917V7.49917H14.75L14.8796 7.49287C15.2135 7.4605 15.5234 7.30495 15.7489 7.05654C15.9744 6.80813 16.0993 6.48466 16.0993 6.14917C16.0993 5.81368 15.9744 5.49021 15.7489 5.2418C15.5234 4.9934 15.2135 4.83785 14.8796 4.80547L14.75 4.79917Z" fill="#0A0D14" style="fill:#0A0D14;fill:color(display-p3 0.0392 0.0510 0.0784);fill-opacity:1;"/>
</svg>
