<svg width="25" height="24" viewBox="0 0 25 24" fill="none" xmlns="http://www.w3.org/2000/svg">
<path d="M15.2 5.7H17C17.4773 5.7 17.9352 5.88964 18.2727 6.22721C18.6103 6.56477 18.8 7.02261 18.8 7.5V14.853C19.4007 15.0653 19.907 15.4832 20.2295 16.0327C20.5519 16.5823 20.6697 17.2281 20.562 17.8561C20.4543 18.4841 20.128 19.0538 19.6409 19.4645C19.1538 19.8752 18.5371 20.1004 17.9 20.1004C17.2628 20.1004 16.6462 19.8752 16.159 19.4645C15.6719 19.0538 15.3456 18.4841 15.2379 17.8561C15.1302 17.2281 15.248 16.5823 15.5704 16.0327C15.8929 15.4832 16.3992 15.0653 17 14.853V7.5H15.2V10.2L11.15 6.6L15.2 3V5.7ZM6.19995 9.147C5.59921 8.93468 5.09287 8.51682 4.77043 7.96727C4.44799 7.41773 4.33022 6.77188 4.43792 6.14389C4.54563 5.5159 4.87189 4.94621 5.35902 4.53551C5.84615 4.12482 6.4628 3.89956 7.09995 3.89956C7.73711 3.89956 8.35375 4.12482 8.84089 4.53551C9.32802 4.94621 9.65428 5.5159 9.76198 6.14389C9.86969 6.77188 9.75192 7.41773 9.42948 7.96727C9.10704 8.51682 8.6007 8.93468 7.99995 9.147V14.853C8.6007 15.0653 9.10704 15.4832 9.42948 16.0327C9.75192 16.5823 9.86969 17.2281 9.76198 17.8561C9.65428 18.4841 9.32802 19.0538 8.84089 19.4645C8.35375 19.8752 7.73711 20.1004 7.09995 20.1004C6.4628 20.1004 5.84615 19.8752 5.35902 19.4645C4.87189 19.0538 4.54563 18.4841 4.43792 17.8561C4.33022 17.2281 4.44799 16.5823 4.77043 16.0327C5.09287 15.4832 5.59921 15.0653 6.19995 14.853V9.147ZM7.09995 7.5C7.33865 7.5 7.56757 7.40518 7.73635 7.2364C7.90513 7.06761 7.99995 6.83869 7.99995 6.6C7.99995 6.3613 7.90513 6.13239 7.73635 5.9636C7.56757 5.79482 7.33865 5.7 7.09995 5.7C6.86126 5.7 6.63234 5.79482 6.46356 5.9636C6.29477 6.13239 6.19995 6.3613 6.19995 6.6C6.19995 6.83869 6.29477 7.06761 6.46356 7.2364C6.63234 7.40518 6.86126 7.5 7.09995 7.5ZM7.09995 18.3C7.33865 18.3 7.56757 18.2052 7.73635 18.0364C7.90513 17.8676 7.99995 17.6387 7.99995 17.4C7.99995 17.1613 7.90513 16.9324 7.73635 16.7636C7.56757 16.5948 7.33865 16.5 7.09995 16.5C6.86126 16.5 6.63234 16.5948 6.46356 16.7636C6.29477 16.9324 6.19995 17.1613 6.19995 17.4C6.19995 17.6387 6.29477 17.8676 6.46356 18.0364C6.63234 18.2052 6.86126 18.3 7.09995 18.3ZM17.9 18.3C18.1386 18.3 18.3676 18.2052 18.5364 18.0364C18.7051 17.8676 18.8 17.6387 18.8 17.4C18.8 17.1613 18.7051 16.9324 18.5364 16.7636C18.3676 16.5948 18.1386 16.5 17.9 16.5C17.6613 16.5 17.4323 16.5948 17.2636 16.7636C17.0948 16.9324 17 17.1613 17 17.4C17 17.6387 17.0948 17.8676 17.2636 18.0364C17.4323 18.2052 17.6613 18.3 17.9 18.3Z" fill="#0A0D14" style="fill:#0A0D14;fill:color(display-p3 0.0392 0.0510 0.0784);fill-opacity:1;"/>
</svg>
