<svg width="25" height="24" viewBox="0 0 25 24" fill="none" xmlns="http://www.w3.org/2000/svg">
<path d="M17.9 8.39961H19.7C19.9387 8.39961 20.1676 8.49443 20.3364 8.66321C20.5052 8.832 20.6 9.06091 20.6 9.29961V20.0996C20.6 20.3383 20.5052 20.5672 20.3364 20.736C20.1676 20.9048 19.9387 20.9996 19.7 20.9996H5.30002C5.06133 20.9996 4.83241 20.9048 4.66363 20.736C4.49485 20.5672 4.40002 20.3383 4.40002 20.0996V9.29961C4.40002 9.06091 4.49485 8.832 4.66363 8.66321C4.83241 8.49443 5.06133 8.39961 5.30002 8.39961H7.10002V7.49961C7.10002 6.06744 7.66895 4.69393 8.68165 3.68123C9.69434 2.66854 11.0679 2.09961 12.5 2.09961C13.9322 2.09961 15.3057 2.66854 16.3184 3.68123C17.3311 4.69393 17.9 6.06744 17.9 7.49961V8.39961ZM16.1 8.39961V7.49961C16.1 6.54483 15.7207 5.62916 15.0456 4.95402C14.3705 4.27889 13.4548 3.89961 12.5 3.89961C11.5452 3.89961 10.6296 4.27889 9.95444 4.95402C9.27931 5.62916 8.90002 6.54483 8.90002 7.49961V8.39961H16.1ZM8.00002 11.0996V12.8996H9.80002V11.0996H8.00002ZM8.00002 13.7996V15.5996H9.80002V13.7996H8.00002ZM8.00002 16.4996V18.2996H9.80002V16.4996H8.00002Z" fill="#0A0D14" style="fill:#0A0D14;fill:color(display-p3 0.0392 0.0510 0.0784);fill-opacity:1;"/>
</svg>
