<svg width="25" height="24" viewBox="0 0 25 24" fill="none" xmlns="http://www.w3.org/2000/svg">
<path d="M8 6.75C7.58579 6.75 7.25 7.08579 7.25 7.5C7.25 7.91421 7.58579 8.25 8 8.25C8.41421 8.25 8.75 7.91421 8.75 7.5C8.75 7.08579 8.41421 6.75 8 6.75ZM5.75 7.5C5.75 6.25736 6.75736 5.25 8 5.25C9.24264 5.25 10.25 6.25736 10.25 7.5C10.25 8.47967 9.62389 9.3131 8.75 9.62197V14.378C9.62389 14.6869 10.25 15.5203 10.25 16.5C10.25 17.7427 9.24264 18.75 8 18.75C6.75736 18.75 5.75 17.7427 5.75 16.5C5.75 15.5203 6.37611 14.6869 7.25 14.378V9.62197C6.37611 9.3131 5.75 8.47967 5.75 7.5ZM14.9697 5.46967C15.2626 5.17678 15.7374 5.17678 16.0303 5.46967L17 6.43934L17.9697 5.46967C18.2626 5.17678 18.7374 5.17678 19.0303 5.46967C19.3232 5.76257 19.3232 6.23743 19.0303 6.53033L18.0606 7.5L19.0303 8.46967C19.3232 8.76257 19.3232 9.23744 19.0303 9.53033C18.7374 9.82322 18.2626 9.82322 17.9697 9.53033L17 8.56066L16.0303 9.53033C15.7374 9.82322 15.2626 9.82322 14.9697 9.53033C14.6768 9.23744 14.6768 8.76257 14.9697 8.46967L15.9394 7.5L14.9697 6.53033C14.6768 6.23743 14.6768 5.76257 14.9697 5.46967ZM17 10.5C17.4142 10.5 17.75 10.8358 17.75 11.25V14.378C18.6239 14.6869 19.25 15.5203 19.25 16.5C19.25 17.7427 18.2427 18.75 17 18.75C15.7573 18.75 14.75 17.7427 14.75 16.5C14.75 15.5203 15.3761 14.6869 16.25 14.378V11.25C16.25 10.8358 16.5858 10.5 17 10.5ZM8 15.75C7.58579 15.75 7.25 16.0858 7.25 16.5C7.25 16.9142 7.58579 17.25 8 17.25C8.41421 17.25 8.75 16.9142 8.75 16.5C8.75 16.0858 8.41421 15.75 8 15.75ZM17 15.75C16.5858 15.75 16.25 16.0858 16.25 16.5C16.25 16.9142 16.5858 17.25 17 17.25C17.4142 17.25 17.75 16.9142 17.75 16.5C17.75 16.0858 17.4142 15.75 17 15.75Z" fill="#0A0D14" style="fill:#0A0D14;fill:color(display-p3 0.0392 0.0510 0.0784);fill-opacity:1;"/>
</svg>
