<svg width="25" height="24" viewBox="0 0 25 24" fill="none" xmlns="http://www.w3.org/2000/svg">
<path d="M8.09449 9.11114C8.25061 9.68249 8.59021 10.1867 9.06101 10.5461C9.53181 10.9055 10.1077 11.1002 10.7 11.1001H14.3C15.3602 11.1002 16.3864 11.4746 17.1976 12.1572C18.0088 12.8398 18.553 13.7869 18.7343 14.8315C19.3451 15.0308 19.8649 15.4413 20.2003 15.9894C20.5357 16.5374 20.6647 17.1871 20.5642 17.8217C20.4637 18.4563 20.1403 19.0343 19.652 19.4519C19.1637 19.8695 18.5425 20.0993 17.9 20.1001C17.2714 20.1006 16.6623 19.8818 16.1777 19.4813C15.6932 19.0808 15.3636 18.5238 15.2458 17.9063C15.1279 17.2888 15.2292 16.6496 15.5322 16.0988C15.8352 15.548 16.3209 15.1202 16.9055 14.8891C16.7494 14.3178 16.4098 13.8136 15.939 13.4542C15.4682 13.0948 14.8923 12.9001 14.3 12.9001H10.7C9.7261 12.9016 8.77825 12.5856 7.99999 12.0001V14.8531C8.60074 15.0655 9.10708 15.4833 9.42952 16.0329C9.75196 16.5824 9.86973 17.2283 9.76202 17.8562C9.65432 18.4842 9.32806 19.0539 8.84093 19.4646C8.3538 19.8753 7.73715 20.1006 7.09999 20.1006C6.46284 20.1006 5.84619 19.8753 5.35906 19.4646C4.87193 19.0539 4.54567 18.4842 4.43796 17.8562C4.33026 17.2283 4.44803 16.5824 4.77047 16.0329C5.09291 15.4833 5.59925 15.0655 6.19999 14.8531V9.14714C5.60327 8.93646 5.09947 8.52293 4.77651 7.97873C4.45355 7.43452 4.33193 6.79419 4.43288 6.16947C4.53382 5.54476 4.85092 4.97532 5.32885 4.56052C5.80677 4.14573 6.41517 3.91192 7.04788 3.8999C7.68058 3.88788 8.29743 4.0984 8.79076 4.49474C9.2841 4.89108 9.62261 5.44806 9.74721 6.06849C9.87182 6.68892 9.77461 7.33341 9.47256 7.88949C9.17051 8.44557 8.68278 8.87794 8.09449 9.11114ZM7.09999 7.50014C7.33869 7.50014 7.56761 7.40532 7.73639 7.23653C7.90517 7.06775 7.99999 6.83883 7.99999 6.60014C7.99999 6.36144 7.90517 6.13252 7.73639 5.96374C7.56761 5.79496 7.33869 5.70014 7.09999 5.70014C6.8613 5.70014 6.63238 5.79496 6.4636 5.96374C6.29482 6.13252 6.19999 6.36144 6.19999 6.60014C6.19999 6.83883 6.29482 7.06775 6.4636 7.23653C6.63238 7.40532 6.8613 7.50014 7.09999 7.50014ZM7.09999 18.3001C7.33869 18.3001 7.56761 18.2053 7.73639 18.0365C7.90517 17.8678 7.99999 17.6388 7.99999 17.4001C7.99999 17.1614 7.90517 16.9325 7.73639 16.7637C7.56761 16.595 7.33869 16.5001 7.09999 16.5001C6.8613 16.5001 6.63238 16.595 6.4636 16.7637C6.29482 16.9325 6.19999 17.1614 6.19999 17.4001C6.19999 17.6388 6.29482 17.8678 6.4636 18.0365C6.63238 18.2053 6.8613 18.3001 7.09999 18.3001ZM17.9 18.3001C18.1387 18.3001 18.3676 18.2053 18.5364 18.0365C18.7052 17.8678 18.8 17.6388 18.8 17.4001C18.8 17.1614 18.7052 16.9325 18.5364 16.7637C18.3676 16.595 18.1387 16.5001 17.9 16.5001C17.6613 16.5001 17.4324 16.595 17.2636 16.7637C17.0948 16.9325 17 17.1614 17 17.4001C17 17.6388 17.0948 17.8678 17.2636 18.0365C17.4324 18.2053 17.6613 18.3001 17.9 18.3001Z" fill="#0A0D14" style="fill:#0A0D14;fill:color(display-p3 0.0392 0.0510 0.0784);fill-opacity:1;"/>
</svg>
