<svg width="25" height="24" viewBox="0 0 25 24" fill="none" xmlns="http://www.w3.org/2000/svg">
<path d="M13.4 20.1V22.35L10.7 20.55L8.00002 22.35V20.1H7.55002C6.71459 20.1 5.91338 19.7681 5.32264 19.1774C4.7319 18.5866 4.40002 17.7854 4.40002 16.95V5.7C4.40002 4.98392 4.68449 4.29716 5.19084 3.79081C5.69718 3.28446 6.38394 3 7.10002 3H19.7C19.9387 3 20.1676 3.09482 20.3364 3.2636C20.5052 3.43239 20.6 3.66131 20.6 3.9V19.2C20.6 19.4387 20.5052 19.6676 20.3364 19.8364C20.1676 20.0052 19.9387 20.1 19.7 20.1H13.4ZM13.4 18.3H18.8V15.6H7.55002C7.19198 15.6 6.8486 15.7422 6.59543 15.9954C6.34226 16.2486 6.20002 16.592 6.20002 16.95C6.20002 17.308 6.34226 17.6514 6.59543 17.9046C6.8486 18.1578 7.19198 18.3 7.55002 18.3H8.00002V16.5H13.4V18.3ZM18.8 13.8V4.8H7.10002V13.8315C7.24909 13.8104 7.39947 13.7998 7.55002 13.8H18.8ZM8.00002 5.7H9.80002V7.5H8.00002V5.7ZM8.00002 8.4H9.80002V10.2H8.00002V8.4ZM8.00002 11.1H9.80002V12.9H8.00002V11.1Z" fill="#0A0D14" style="fill:#0A0D14;fill:color(display-p3 0.0392 0.0510 0.0784);fill-opacity:1;"/>
</svg>
