<svg width="25" height="24" viewBox="0 0 25 24" fill="none" xmlns="http://www.w3.org/2000/svg">
<path d="M15.9866 12.8995C15.7864 13.6719 15.3354 14.356 14.7044 14.8444C14.0733 15.3327 13.298 15.5977 12.5 15.5977C11.7021 15.5977 10.9267 15.3327 10.2957 14.8444C9.66464 14.356 9.21362 13.6719 9.01342 12.8995H4.40002V11.0995H9.01342C9.21362 10.3271 9.66464 9.64303 10.2957 9.15468C10.9267 8.66634 11.7021 8.40137 12.5 8.40137C13.298 8.40137 14.0733 8.66634 14.7044 9.15468C15.3354 9.64303 15.7864 10.3271 15.9866 11.0995H20.6V12.8995H15.9866ZM12.5 13.7995C12.9774 13.7995 13.4353 13.6099 13.7728 13.2723C14.1104 12.9347 14.3 12.4769 14.3 11.9995C14.3 11.5221 14.1104 11.0643 13.7728 10.7267C13.4353 10.3892 12.9774 10.1995 12.5 10.1995C12.0226 10.1995 11.5648 10.3892 11.2272 10.7267C10.8897 11.0643 10.7 11.5221 10.7 11.9995C10.7 12.4769 10.8897 12.9347 11.2272 13.2723C11.5648 13.6099 12.0226 13.7995 12.5 13.7995Z" fill="#0A0D14" style="fill:#0A0D14;fill:color(display-p3 0.0392 0.0510 0.0784);fill-opacity:1;"/>
</svg>
