<svg width="25" height="24" viewBox="0 0 25 24" fill="none" xmlns="http://www.w3.org/2000/svg">
<path d="M8.09449 14.8885C8.68278 15.1217 9.17051 15.5541 9.47256 16.1102C9.77461 16.6662 9.87182 17.3107 9.74721 17.9312C9.62261 18.5516 9.2841 19.1086 8.79076 19.5049C8.29743 19.9013 7.68058 20.1118 7.04788 20.0998C6.41517 20.0877 5.80677 19.8539 5.32885 19.4391C4.85092 19.0243 4.53382 18.4549 4.43288 17.8302C4.33193 17.2055 4.45355 16.5651 4.77651 16.0209C5.09947 15.4767 5.60327 15.0632 6.19999 14.8525V9.14652C5.59925 8.9342 5.09291 8.51634 4.77047 7.96679C4.44803 7.41725 4.33026 6.7714 4.43796 6.14341C4.54567 5.51542 4.87193 4.94573 5.35906 4.53503C5.84619 4.12434 6.46284 3.89908 7.09999 3.89908C7.73715 3.89908 8.3538 4.12434 8.84093 4.53503C9.32806 4.94573 9.65432 5.51542 9.76202 6.14341C9.86973 6.7714 9.75196 7.41725 9.42952 7.96679C9.10708 8.51634 8.60074 8.9342 7.99999 9.14652V11.9995C8.75239 11.4343 9.68659 11.0995 10.7 11.0995H14.3C14.8923 11.0995 15.4682 10.9049 15.939 10.5455C16.4098 10.1861 16.7494 9.68187 16.9055 9.11052C16.3144 8.87643 15.8247 8.44131 15.5229 7.88174C15.221 7.32218 15.1262 6.67405 15.2551 6.05147C15.3841 5.42888 15.7286 4.87176 16.2279 4.47817C16.7273 4.08458 17.3494 3.87976 17.9849 3.89978C18.6204 3.91979 19.2285 4.16336 19.702 4.58759C20.1756 5.01182 20.4843 5.58952 20.5739 6.21899C20.6634 6.84845 20.528 7.48933 20.1915 8.02879C19.855 8.56824 19.339 8.9717 18.7343 9.16812C18.553 10.2127 18.0088 11.1598 17.1976 11.8425C16.3864 12.5251 15.3602 12.8994 14.3 12.8995H10.7C10.1077 12.8995 9.53181 13.0942 9.06101 13.4536C8.59021 13.813 8.25061 14.3172 8.09449 14.8885Z" fill="#0A0D14" style="fill:#0A0D14;fill:color(display-p3 0.0392 0.0510 0.0784);fill-opacity:1;"/>
</svg>
