<svg width="25" height="24" viewBox="0 0 25 24" fill="none" xmlns="http://www.w3.org/2000/svg">
<path d="M12.5 3C7.5275 3 3.5 7.0275 3.5 12C3.49898 13.8893 4.09293 15.731 5.1976 17.2638C6.30226 18.7966 7.86153 19.9426 9.6542 20.5392C10.1042 20.6175 10.2725 20.3475 10.2725 20.1108C10.2725 19.8975 10.2608 19.1892 10.2608 18.435C8 18.8517 7.415 17.8842 7.235 17.3775C7.1333 17.1183 6.695 16.32 6.3125 16.1058C5.9975 15.9375 5.5475 15.5208 6.3008 15.51C7.01 15.4983 7.5158 16.1625 7.685 16.4325C8.495 17.7933 9.7892 17.4108 10.3058 17.175C10.385 16.59 10.6208 16.1967 10.88 15.9717C8.8775 15.7467 6.785 14.97 6.785 11.5275C6.785 10.5483 7.1333 9.7392 7.7075 9.1083C7.6175 8.8833 7.3025 7.9608 7.7975 6.7233C7.7975 6.7233 8.5508 6.4875 10.2725 7.6467C11.0052 7.44335 11.7622 7.34101 12.5225 7.3425C13.2875 7.3425 14.0525 7.4433 14.7725 7.6458C16.4933 6.4758 17.2475 6.7242 17.2475 6.7242C17.7425 7.9617 17.4275 8.8842 17.3375 9.1092C17.9108 9.7392 18.26 10.5375 18.26 11.5275C18.26 14.9817 16.1567 15.7467 14.1542 15.9717C14.48 16.2525 14.7617 16.7925 14.7617 17.6367C14.7617 18.84 14.75 19.8075 14.75 20.1117C14.75 20.3475 14.9192 20.6283 15.3692 20.5383C17.1557 19.9351 18.7081 18.7869 19.8079 17.2552C20.9077 15.7236 21.4995 13.8856 21.5 12C21.5 7.0275 17.4725 3 12.5 3Z" fill="#0A0D14" style="fill:#0A0D14;fill:color(display-p3 0.0392 0.0510 0.0784);fill-opacity:1;"/>
</svg>
