<svg width="25" height="24" viewBox="0 0 25 24" fill="none" xmlns="http://www.w3.org/2000/svg">
<path d="M6.99471 17.987C6.72471 17.807 6.49251 17.5775 6.22071 17.2526C6.07963 17.0799 5.93982 16.9062 5.80131 16.7315C5.38461 16.214 5.12181 15.9755 4.85001 15.8774C4.62528 15.7967 4.4418 15.63 4.33994 15.4141C4.23808 15.1981 4.22618 14.9505 4.30686 14.7258C4.38754 14.5011 4.55418 14.3176 4.77014 14.2157C4.9861 14.1139 5.23368 14.102 5.45841 14.1827C6.13521 14.4257 6.59331 14.8442 7.21071 15.6119C7.12611 15.5066 7.51671 15.9962 7.60041 16.097C7.77141 16.3013 7.89741 16.4255 7.99641 16.4912C8.18001 16.6145 8.52471 16.6676 9.03141 16.6172C9.05211 16.2734 9.11601 15.9395 9.21321 15.6317C6.54201 14.9783 5.03001 13.2557 5.03001 9.87526C5.03001 8.75926 5.36301 7.75486 5.98221 6.91246C5.78601 6.10786 5.81571 5.13496 6.25401 4.03966C6.30375 3.91577 6.38043 3.80449 6.4785 3.71389C6.57657 3.62329 6.69356 3.55565 6.82101 3.51586C6.89391 3.49426 6.93531 3.48436 7.00821 3.47356C7.73091 3.36286 8.75151 3.62656 10.0817 4.45996C10.8744 4.27464 11.6859 4.18162 12.5 4.18276C13.3208 4.18276 14.1362 4.27636 14.9156 4.45996C16.2449 3.62026 17.2673 3.35656 17.9954 3.47356C18.0719 3.48526 18.1367 3.50056 18.1916 3.51856C18.3166 3.55976 18.4309 3.62785 18.5267 3.71804C18.6225 3.80823 18.6974 3.91832 18.746 4.04056C19.1843 5.13496 19.214 6.10786 19.0178 6.91156C19.6397 7.75396 19.97 8.75206 19.97 9.87526C19.97 13.2566 18.4634 14.9738 15.7922 15.6281C15.9047 16.0016 15.9632 16.4192 15.9632 16.8701C15.9633 17.6849 15.9597 18.4997 15.9524 19.3145C16.1545 19.3586 16.3353 19.4709 16.4643 19.6327C16.5932 19.7944 16.6626 19.9957 16.6605 20.2025C16.6585 20.4094 16.5853 20.6092 16.4532 20.7684C16.3211 20.9277 16.1382 21.0365 15.9353 21.0767C14.9102 21.2819 14.1506 20.5979 14.1506 19.7042L14.1524 19.3028L14.1569 18.6683C14.1614 18.0311 14.1632 17.4641 14.1632 16.8701C14.1632 16.2428 13.9985 15.8333 13.7807 15.6461C13.1858 15.1331 13.4873 14.1566 14.2667 14.0693C16.937 13.7696 18.17 12.7355 18.17 9.87526C18.17 9.01576 17.8892 8.30566 17.3483 7.71166C17.2343 7.58678 17.1579 7.43233 17.1276 7.26599C17.0974 7.09966 17.1146 6.92817 17.1773 6.77116C17.3267 6.39856 17.3906 5.90986 17.2637 5.31856L17.2547 5.32126C16.8128 5.44636 16.2557 5.71726 15.5825 6.17536C15.474 6.24903 15.3506 6.29808 15.2211 6.31907C15.0916 6.34006 14.9591 6.33248 14.8328 6.29686C14.0731 6.08652 13.2883 5.98085 12.5 5.98276C11.699 5.98276 10.9052 6.08986 10.1672 6.29776C10.0414 6.3331 9.90942 6.34061 9.78042 6.31978C9.65142 6.29896 9.5285 6.25029 9.42021 6.17716C8.74341 5.72086 8.18361 5.45086 7.73901 5.32486C7.60941 5.91256 7.67331 6.39946 7.82181 6.77116C7.88463 6.92809 7.902 7.09953 7.87192 7.26586C7.84183 7.43219 7.76552 7.58669 7.65171 7.71166C7.11441 8.30026 6.83001 9.02386 6.83001 9.87526C6.83001 12.7301 8.06391 13.7705 10.7198 14.0693C11.4983 14.1566 11.8007 15.1286 11.2094 15.6425C11.0366 15.7937 10.8233 16.3013 10.8233 16.8701V19.7051C10.8233 20.5925 10.0718 21.2576 9.05931 21.0803C8.8539 21.0442 8.66739 20.9379 8.53165 20.7796C8.39592 20.6212 8.31938 20.4207 8.31513 20.2122C8.31088 20.0037 8.37918 19.8001 8.50835 19.6364C8.63751 19.4727 8.81954 19.3589 9.02331 19.3145V18.4235C8.20431 18.4784 7.52751 18.3443 6.99471 17.987Z" fill="#0A0D14" style="fill:#0A0D14;fill:color(display-p3 0.0392 0.0510 0.0784);fill-opacity:1;"/>
</svg>
