<svg width="25" height="24" viewBox="0 0 25 24" fill="none" xmlns="http://www.w3.org/2000/svg">
<path d="M6.98121 3.67573L8.90001 10.2007H16.1L18.0188 3.67573C18.0404 3.60171 18.0851 3.53656 18.1465 3.48989C18.2079 3.44322 18.2826 3.41748 18.3597 3.41648C18.4368 3.41547 18.5122 3.43924 18.5748 3.48429C18.6374 3.52934 18.6838 3.5933 18.7073 3.66673L21.8528 13.4983C21.8811 13.5868 21.8814 13.6819 21.8535 13.7705C21.8256 13.8592 21.771 13.937 21.6971 13.9933L12.5 21.0007L3.30201 13.9933C3.22829 13.9369 3.17384 13.859 3.14612 13.7704C3.11841 13.6818 3.11879 13.5867 3.14721 13.4983L6.29271 3.66673C6.31611 3.59327 6.36248 3.52926 6.425 3.48413C6.48751 3.439 6.56286 3.41513 6.63995 3.41604C6.71705 3.41695 6.79182 3.44258 6.85325 3.48917C6.91468 3.53576 6.95954 3.60084 6.98121 3.67483V3.67573Z" fill="#0A0D14" style="fill:#0A0D14;fill:color(display-p3 0.0392 0.0510 0.0784);fill-opacity:1;"/>
</svg>
