<svg width="25" height="24" viewBox="0 0 25 24" fill="none" xmlns="http://www.w3.org/2000/svg">
<path d="M6.81204 7.78197L5.17404 13.1046L12.5 18.6972L19.826 13.1046L18.188 7.78197L16.6787 11.0994H8.32044L6.81294 7.78197H6.81204ZM15.5213 9.29937L18.1205 3.58077C18.1507 3.51411 18.2004 3.45821 18.2632 3.42054C18.3259 3.38286 18.3986 3.36519 18.4716 3.36988C18.5446 3.37457 18.6145 3.4014 18.6719 3.4468C18.7293 3.49219 18.7715 3.554 18.7928 3.62397L21.8231 13.4745C21.8501 13.5623 21.8496 13.6563 21.8216 13.7438C21.7936 13.8314 21.7395 13.9082 21.6665 13.9641L12.5 20.9616L3.33444 13.9641C3.26147 13.9082 3.20735 13.8314 3.17935 13.7438C3.15135 13.6563 3.15083 13.5623 3.17784 13.4745L6.20814 3.62397C6.22951 3.554 6.2717 3.49219 6.32909 3.4468C6.38647 3.4014 6.45633 3.37457 6.52935 3.36988C6.60237 3.36519 6.67508 3.38286 6.7378 3.42054C6.80053 3.45821 6.85028 3.51411 6.88044 3.58077L9.47964 9.29937H15.5204H15.5213Z" fill="#0A0D14" style="fill:#0A0D14;fill:color(display-p3 0.0392 0.0510 0.0784);fill-opacity:1;"/>
</svg>
