<svg width="25" height="24" viewBox="0 0 25 24" fill="none" xmlns="http://www.w3.org/2000/svg">
<path d="M13.4 20.1004H17.9V21.9004H7.10005V20.1004H11.6V19.1554C10.1731 19.0121 8.80099 18.5299 7.59807 17.7491C6.39515 16.9682 5.39621 15.9112 4.68445 14.6662L6.24775 13.7734C6.79745 14.7339 7.56118 15.5548 8.47962 16.1722C9.39805 16.7897 10.4465 17.1871 11.5434 17.3337C12.6404 17.4802 13.7563 17.3719 14.8047 17.0172C15.853 16.6624 16.8054 16.0708 17.5879 15.2882C18.3705 14.5057 18.9621 13.5533 19.3169 12.505C19.6716 11.4567 19.7799 10.3407 19.6334 9.24373C19.4868 8.14678 19.0894 7.09837 18.4719 6.17993C17.8545 5.2615 17.0336 4.49777 16.073 3.94807L16.9658 2.38477C18.3438 3.17186 19.489 4.30942 20.2853 5.68204C21.0816 7.05465 21.5007 8.61348 21.5 10.2004C21.5 14.8669 17.9478 18.7045 13.4 19.1554V20.1004ZM12.5 16.5004C11.6727 16.5004 10.8535 16.3374 10.0891 16.0208C9.32479 15.7042 8.63029 15.2401 8.04528 14.6551C7.46027 14.0701 6.99621 13.3756 6.67961 12.6113C6.363 11.8469 6.20005 11.0277 6.20005 10.2004C6.20005 9.37304 6.363 8.55381 6.67961 7.78946C6.99621 7.02511 7.46027 6.3306 8.04528 5.74559C8.63029 5.16058 9.32479 4.69653 10.0891 4.37992C10.8535 4.06332 11.6727 3.90037 12.5 3.90037C14.1709 3.90037 15.7733 4.56411 16.9548 5.74559C18.1363 6.92707 18.8 8.5295 18.8 10.2004C18.8 11.8712 18.1363 13.4737 16.9548 14.6551C15.7733 15.8366 14.1709 16.5004 12.5 16.5004ZM12.5 14.7004C13.6935 14.7004 14.8381 14.2263 15.682 13.3823C16.5259 12.5384 17 11.3938 17 10.2004C17 9.00689 16.5259 7.8623 15.682 7.01839C14.8381 6.17447 13.6935 5.70037 12.5 5.70037C11.3066 5.70037 10.162 6.17447 9.31807 7.01839C8.47415 7.8623 8.00005 9.00689 8.00005 10.2004C8.00005 11.3938 8.47415 12.5384 9.31807 13.3823C10.162 14.2263 11.3066 14.7004 12.5 14.7004Z" fill="#0A0D14" style="fill:#0A0D14;fill:color(display-p3 0.0392 0.0510 0.0784);fill-opacity:1;"/>
</svg>
