<svg width="25" height="24" viewBox="0 0 25 24" fill="none" xmlns="http://www.w3.org/2000/svg">
<path d="M3.54498 12.8999H8.47428C8.62829 15.7501 9.53678 18.5082 11.1068 20.8919C9.14022 20.583 7.33146 19.6311 5.9633 18.1851C4.59514 16.7392 3.74471 14.8805 3.54498 12.8999ZM3.54498 11.0999C3.74471 9.11928 4.59514 7.26067 5.9633 5.81467C7.33146 4.36867 9.14022 3.41681 11.1068 3.10791C9.53678 5.49166 8.62829 8.24974 8.47428 11.0999H3.54498ZM21.455 11.0999H16.5257C16.3717 8.24974 15.4632 5.49166 13.8932 3.10791C15.8597 3.41681 17.6685 4.36867 19.0367 5.81467C20.4048 7.26067 21.2553 9.11928 21.455 11.0999ZM21.455 12.8999C21.2553 14.8805 20.4048 16.7392 19.0367 18.1851C17.6685 19.6311 15.8597 20.583 13.8932 20.8919C15.4632 18.5082 16.3717 15.7501 16.5257 12.8999H21.4559H21.455ZM10.277 12.8999H14.723C14.5748 15.3294 13.8098 17.6811 12.5 19.7327C11.1902 17.6811 10.4251 15.3294 10.277 12.8999ZM10.277 11.0999C10.4251 8.67037 11.1902 6.31872 12.5 4.26711C13.8098 6.31872 14.5748 8.67037 14.723 11.0999H10.277Z" fill="#0A0D14" style="fill:#0A0D14;fill:color(display-p3 0.0392 0.0510 0.0784);fill-opacity:1;"/>
</svg>
