<svg width="25" height="24" viewBox="0 0 25 24" fill="none" xmlns="http://www.w3.org/2000/svg">
<path d="M4.94813 2.83203L14.1128 11.9994L4.94903 21.1668C4.78607 21.0983 4.64701 20.9832 4.54933 20.8358C4.45164 20.6885 4.3997 20.5156 4.40003 20.3388V3.66003C4.40009 3.48347 4.4521 3.31083 4.54955 3.1636C4.64701 3.01638 4.78562 2.90107 4.94813 2.83203ZM14.7491 12.6357L16.8209 14.7075L6.97763 20.4072L14.7491 12.6357ZM17.6282 9.75753L20.1545 11.2209C20.2909 11.3 20.4041 11.4136 20.4828 11.5502C20.5615 11.6869 20.6029 11.8418 20.6029 11.9994C20.6029 12.1571 20.5615 12.312 20.4828 12.4486C20.4041 12.5853 20.2909 12.6988 20.1545 12.7779L17.6273 14.2413L15.3854 11.9994L17.6282 9.75753ZM6.97763 3.59163L16.8218 9.29043L14.7491 11.3631L6.97763 3.59163Z" fill="#0A0D14" style="fill:#0A0D14;fill:color(display-p3 0.0392 0.0510 0.0784);fill-opacity:1;"/>
</svg>
