<svg width="25" height="24" viewBox="0 0 25 24" fill="none" xmlns="http://www.w3.org/2000/svg">
<path d="M4.4576 7.959C5.20641 6.46792 6.35514 5.21446 7.77539 4.33872C9.19564 3.46298 10.8315 2.99947 12.5 3C14.9255 3 16.9631 3.891 18.521 5.3445L15.9407 7.9257C15.0074 7.0338 13.8212 6.5793 12.5 6.5793C10.1555 6.5793 8.171 8.1633 7.4645 10.29C7.2845 10.83 7.1819 11.406 7.1819 12C7.1819 12.594 7.2845 13.17 7.4645 13.71C8.1719 15.8376 10.1555 17.4207 12.5 17.4207C13.7105 17.4207 14.741 17.1012 15.5474 16.5612C16.0149 16.2534 16.4151 15.854 16.7239 15.3871C17.0326 14.9203 17.2435 14.3957 17.3438 13.845H12.5V10.3638H20.9762C21.0824 10.9524 21.14 11.5662 21.14 12.2043C21.14 14.9457 20.159 17.2533 18.4562 18.8193C16.9676 20.1945 14.93 21 12.5 21C11.318 21.0005 10.1474 20.768 9.05529 20.3159C7.96315 19.8638 6.97081 19.2008 6.13498 18.365C5.29916 17.5292 4.63625 16.5369 4.18412 15.4447C3.732 14.3526 3.49953 13.182 3.5 12C3.5 10.5474 3.8474 9.174 4.4576 7.959Z" fill="#0A0D14" style="fill:#0A0D14;fill:color(display-p3 0.0392 0.0510 0.0784);fill-opacity:1;"/>
</svg>
