<svg width="25" height="24" viewBox="0 0 25 24" fill="none" xmlns="http://www.w3.org/2000/svg">
<path d="M5.30002 2.75977C5.4584 2.75989 5.61393 2.8018 5.75092 2.88127L20.1545 11.2207C20.2909 11.2998 20.4041 11.4133 20.4828 11.55C20.5615 11.6866 20.6029 11.8415 20.6029 11.9992C20.6029 12.1568 20.5615 12.3117 20.4828 12.4484C20.4041 12.585 20.2909 12.6986 20.1545 12.7777L5.75092 21.1171C5.61415 21.1962 5.45894 21.238 5.3009 21.2382C5.14287 21.2383 4.98758 21.1969 4.85065 21.1179C4.71372 21.039 4.59999 20.9255 4.52088 20.7887C4.44178 20.6518 4.4001 20.4966 4.40002 20.3386V3.65977C4.40002 3.42107 4.49485 3.19215 4.66363 3.02337C4.83241 2.85459 5.06133 2.75977 5.30002 2.75977ZM12.7628 13.2718L8.71462 17.32L13.8437 14.3509L12.7637 13.2709L12.7628 13.2718ZM6.20002 6.70537V17.2894L11.492 11.9974L6.20002 6.70537ZM15.4556 10.5772L14.0354 11.9992L15.4556 13.4185L17.9072 11.9992L15.4547 10.5781L15.4556 10.5772ZM8.71462 6.67477L12.7646 10.7248L13.8437 9.64476L8.71462 6.67477Z" fill="#0A0D14" style="fill:#0A0D14;fill:color(display-p3 0.0392 0.0510 0.0784);fill-opacity:1;"/>
</svg>
