<svg width="25" height="24" viewBox="0 0 25 24" fill="none" xmlns="http://www.w3.org/2000/svg">
<path d="M12.5 11.1004H20.1797C20.2193 11.4469 20.24 11.8024 20.24 12.166C20.24 14.6266 19.358 16.6984 17.8298 18.106C16.4933 19.3399 14.6636 20.0635 12.482 20.0635C11.4206 20.064 10.3695 19.8553 9.38883 19.4493C8.40812 19.0434 7.51702 18.4482 6.76645 17.6977C6.01589 16.9472 5.42057 16.0562 5.01453 15.0755C4.60848 14.0949 4.39967 13.0438 4.40003 11.9824C4.39955 10.9209 4.60828 9.86975 5.01427 8.88898C5.42026 7.90822 6.01556 7.01708 6.76613 6.2665C7.51671 5.51592 8.40785 4.92062 9.38862 4.51463C10.3694 4.10864 11.4205 3.89992 12.482 3.90039C14.66 3.90039 16.4897 4.70139 17.8892 6.00549L16.5734 7.32039C15.5312 6.31329 14.1227 5.70039 12.5 5.70039C11.6727 5.70039 10.8535 5.86335 10.0891 6.17995C9.32477 6.49655 8.63026 6.96061 8.04525 7.54562C7.46024 8.13063 6.99619 8.82513 6.67958 9.58949C6.36298 10.3538 6.20003 11.1731 6.20003 12.0004C6.20003 12.8277 6.36298 13.6469 6.67958 14.4113C6.99619 15.1756 7.46024 15.8702 8.04525 16.4552C8.63026 17.0402 9.32477 17.5042 10.0891 17.8208C10.8535 18.1374 11.6727 18.3004 12.5 18.3004C15.6734 18.3004 18.0296 15.9532 18.4193 12.9004H12.5V11.1004Z" fill="#0A0D14" style="fill:#0A0D14;fill:color(display-p3 0.0392 0.0510 0.0784);fill-opacity:1;"/>
</svg>
