<svg width="25" height="24" viewBox="0 0 25 24" fill="none" xmlns="http://www.w3.org/2000/svg">
<path d="M19.7 6.5999H22.4V8.3999H21.5V18.2999H22.4V20.0999H2.59998V18.2999H3.49998V8.3999H2.59998V6.5999H5.29998V4.7999C5.29998 4.56121 5.3948 4.33229 5.56358 4.16351C5.73236 3.99472 5.96128 3.8999 6.19998 3.8999H18.8C19.0387 3.8999 19.2676 3.99472 19.4364 4.16351C19.6052 4.33229 19.7 4.56121 19.7 4.7999V6.5999ZM19.7 8.3999H5.29998V18.2999H7.99998V11.9999H9.79998V18.2999H11.6V11.9999H13.4V18.2999H15.2V11.9999H17V18.2999H19.7V8.3999ZM7.09998 5.6999V6.5999H17.9V5.6999H7.09998Z" fill="#0A0D14" style="fill:#0A0D14;fill:color(display-p3 0.0392 0.0510 0.0784);fill-opacity:1;"/>
</svg>
