<svg width="25" height="24" viewBox="0 0 25 24" fill="none" xmlns="http://www.w3.org/2000/svg">
<path d="M12.5 15.6L15.2 21H9.8L12.5 15.6ZM10.1357 15.8295C9.30263 15.3149 8.66013 14.5427 8.30566 13.63C7.9512 12.7172 7.90412 11.7137 8.17156 10.7718C8.43901 9.82989 9.00638 9.00089 9.78761 8.41059C10.5688 7.8203 11.5213 7.50093 12.5005 7.50093C13.4796 7.50093 14.4321 7.8203 15.2133 8.41059C15.9945 9.00089 16.5619 9.82989 16.8293 10.7718C17.0968 11.7137 17.0497 12.7172 16.6952 13.63C16.3408 14.5427 15.6983 15.3149 14.8652 15.8295L13.6448 13.3896C13.9309 13.1538 14.1372 12.8354 14.2355 12.4779C14.3339 12.1205 14.3194 11.7413 14.1941 11.3924C14.0689 11.0434 13.8389 10.7417 13.5357 10.5284C13.2325 10.315 12.8708 10.2006 12.5 10.2006C12.1293 10.2006 11.7675 10.315 11.4643 10.5284C11.1611 10.7417 10.9311 11.0434 10.8059 11.3924C10.6806 11.7413 10.6661 12.1205 10.7645 12.4779C10.8628 12.8354 11.0691 13.1538 11.3552 13.3896L10.1357 15.8286V15.8295ZM8.1188 19.8633C6.71813 19.083 5.5514 17.9427 4.73934 16.5602C3.92729 15.1777 3.49942 13.6033 3.5 12C3.5 7.0293 7.5293 3 12.5 3C17.4707 3 21.5 7.0293 21.5 12C21.5006 13.6033 21.0727 15.1777 20.2607 16.5602C19.4486 17.9427 18.2819 19.083 16.8812 19.8633L15.6725 17.4441C16.8687 16.7468 17.802 15.6749 18.3279 14.3941C18.8538 13.1132 18.9431 11.6948 18.582 10.3581C18.2208 9.02138 17.4294 7.84088 16.33 6.99911C15.2307 6.15734 13.8846 5.70119 12.5 5.70119C11.1154 5.70119 9.76933 6.15734 8.66996 6.99911C7.5706 7.84088 6.77917 9.02138 6.41805 10.3581C6.05692 11.6948 6.14621 13.1132 6.67212 14.3941C7.19803 15.6749 8.13125 16.7468 9.3275 17.4441L8.1188 19.8633Z" fill="#0A0D14" style="fill:#0A0D14;fill:color(display-p3 0.0392 0.0510 0.0784);fill-opacity:1;"/>
</svg>
