<svg width="25" height="24" viewBox="0 0 25 24" fill="none" xmlns="http://www.w3.org/2000/svg">
<path d="M8.1188 19.8633C6.71813 19.083 5.5514 17.9427 4.73934 16.5602C3.92729 15.1777 3.49942 13.6033 3.5 12C3.5 7.0293 7.5293 3 12.5 3C17.4707 3 21.5 7.0293 21.5 12C21.5006 13.6033 21.0727 15.1777 20.2607 16.5602C19.4486 17.9427 18.2819 19.083 16.8812 19.8633L16.0748 18.2514C17.4527 17.4632 18.5314 16.2416 19.1433 14.7769C19.7551 13.3121 19.8657 11.6862 19.4579 10.1521C19.0501 8.61795 18.1467 7.2616 16.8883 6.294C15.6299 5.32639 14.087 4.80179 12.4996 4.80179C10.9121 4.80179 9.36923 5.32639 8.11081 6.294C6.85239 7.2616 5.94902 8.61795 5.5412 10.1521C5.13339 11.6862 5.24401 13.3121 5.85584 14.7769C6.46767 16.2416 7.54643 17.4632 8.9243 18.2514L8.1188 19.8633ZM9.7316 16.6377C8.71671 16.0318 7.92863 15.1097 7.48828 14.0128C7.04794 12.9159 6.97965 11.7049 7.29389 10.5654C7.60813 9.42597 8.28754 8.4211 9.22789 7.70499C10.1682 6.98887 11.3176 6.60106 12.4996 6.60106C13.6815 6.60106 14.8309 6.98887 15.7712 7.70499C16.7116 8.4211 17.391 9.42597 17.7052 10.5654C18.0195 11.7049 17.9512 12.9159 17.5108 14.0128C17.0705 15.1097 16.2824 16.0318 15.2675 16.6377L14.4593 15.0204C15.1107 14.5978 15.608 13.9759 15.8771 13.2475C16.1461 12.5191 16.1724 11.7232 15.952 10.9786C15.7316 10.234 15.2764 9.58068 14.6543 9.11601C14.0322 8.65134 13.2765 8.40028 12.5 8.40028C11.7235 8.40028 10.9678 8.65134 10.3457 9.11601C9.72358 9.58068 9.26838 10.234 9.04801 10.9786C8.82765 11.7232 8.85393 12.5191 9.12295 13.2475C9.39196 13.9759 9.88928 14.5978 10.5407 15.0204L9.7316 16.6377ZM12.5 15.6L15.2 21H9.8L12.5 15.6Z" fill="#0A0D14" style="fill:#0A0D14;fill:color(display-p3 0.0392 0.0510 0.0784);fill-opacity:1;"/>
</svg>
