<svg width="25" height="24" viewBox="0 0 25 24" fill="none" xmlns="http://www.w3.org/2000/svg">
<path d="M6.5 11.5L3.5 9.75L12.5 4.5L21.5 9.75V16.125H20V10.625L18.5 11.5V16.5085L18.333 16.7148C16.9593 18.4124 14.8563 19.5 12.5 19.5C10.1436 19.5 8.04072 18.4124 6.66697 16.7148L6.5 16.5085V11.5ZM8 12.375V15.9688C9.10041 17.2155 10.7083 18 12.5 18C14.2917 18 15.8996 17.2155 17 15.9688V12.375L12.5 15L8 12.375ZM6.47695 9.75L12.5 13.2634L18.523 9.75L12.5 6.23656L6.47695 9.75Z" fill="#0A0D14" style="fill:#0A0D14;fill:color(display-p3 0.0392 0.0510 0.0784);fill-opacity:1;"/>
</svg>
