<svg width="25" height="24" viewBox="0 0 25 24" fill="none" xmlns="http://www.w3.org/2000/svg">
<path d="M3.5 21.0016C3.5 19.092 4.25857 17.2607 5.60883 15.9104C6.95909 14.5601 8.79044 13.8016 10.7 13.8016C12.6096 13.8016 14.4409 14.5601 15.7912 15.9104C17.1414 17.2607 17.9 19.092 17.9 21.0016H16.1C16.1 19.5694 15.5311 18.1959 14.5184 17.1832C13.5057 16.1705 12.1322 15.6016 10.7 15.6016C9.26783 15.6016 7.89432 16.1705 6.88162 17.1832C5.86893 18.1959 5.3 19.5694 5.3 21.0016H3.5ZM10.7 12.9016C7.7165 12.9016 5.3 10.4851 5.3 7.50156C5.3 4.51806 7.7165 2.10156 10.7 2.10156C13.6835 2.10156 16.1 4.51806 16.1 7.50156C16.1 10.4851 13.6835 12.9016 10.7 12.9016ZM10.7 11.1016C12.689 11.1016 14.3 9.49056 14.3 7.50156C14.3 5.51256 12.689 3.90156 10.7 3.90156C8.711 3.90156 7.1 5.51256 7.1 7.50156C7.1 9.49056 8.711 11.1016 10.7 11.1016ZM18.1556 14.4343C19.4204 15.0039 20.4938 15.9267 21.2467 17.0917C21.9997 18.2567 22.4001 19.6144 22.4 21.0016H20.6C20.6002 19.9611 20.2999 18.9428 19.7352 18.069C19.1705 17.1952 18.3654 16.5031 17.4167 16.0759L18.1547 14.4343H18.1556ZM17.5364 4.27326C18.4432 4.64703 19.2185 5.28175 19.7639 6.09687C20.3094 6.91199 20.6004 7.87078 20.6 8.85156C20.6004 10.0867 20.1389 11.2773 19.3063 12.1895C18.4736 13.1017 17.33 13.6697 16.1 13.7818V11.9701C16.7668 11.8746 17.3855 11.5678 17.8652 11.0948C18.3448 10.6218 18.6602 10.0075 18.765 9.342C18.8699 8.67655 18.7586 7.99503 18.4475 7.39748C18.1365 6.79993 17.6421 6.31783 17.0369 6.02196L17.5364 4.27326Z" fill="#0A0D14" style="fill:#0A0D14;fill:color(display-p3 0.0392 0.0510 0.0784);fill-opacity:1;"/>
</svg>
