<svg width="25" height="24" viewBox="0 0 25 24" fill="none" xmlns="http://www.w3.org/2000/svg">
<path d="M10.7 18.9732V15.96C10.7 14.8053 11.5955 13.8972 12.9203 13.3788C12.0659 13.061 11.1615 12.8989 10.25 12.9C8.549 12.9 6.9776 13.4553 5.7077 14.394C6.10146 15.5076 6.76258 16.5075 7.63303 17.3059C8.50347 18.1043 9.55662 18.6769 10.7 18.9732ZM18.692 15.6774C18.3365 15.1977 17.153 14.7 15.65 14.7C13.8446 14.7 12.5 15.4173 12.5 15.96V19.2C13.7491 19.2007 14.9768 18.8763 16.0625 18.2586C17.1481 17.641 18.0543 16.7514 18.692 15.6774ZM10.295 11.55C10.8321 11.55 11.3471 11.3367 11.7269 10.9569C12.1067 10.5771 12.32 10.0621 12.32 9.525C12.32 8.98794 12.1067 8.47287 11.7269 8.09311C11.3471 7.71335 10.8321 7.5 10.295 7.5C9.75794 7.5 9.24287 7.71335 8.86311 8.09311C8.48335 8.47287 8.27 8.98794 8.27 9.525C8.27 10.0621 8.48335 10.5771 8.86311 10.9569C9.24287 11.3367 9.75794 11.55 10.295 11.55ZM15.65 12.45C16.1274 12.45 16.5852 12.2604 16.9228 11.9228C17.2604 11.5852 17.45 11.1274 17.45 10.65C17.45 10.1726 17.2604 9.71477 16.9228 9.37721C16.5852 9.03964 16.1274 8.85 15.65 8.85C15.1726 8.85 14.7148 9.03964 14.3772 9.37721C14.0396 9.71477 13.85 10.1726 13.85 10.65C13.85 11.1274 14.0396 11.5852 14.3772 11.9228C14.7148 12.2604 15.1726 12.45 15.65 12.45ZM12.5 21C7.5293 21 3.5 16.9707 3.5 12C3.5 7.0293 7.5293 3 12.5 3C17.4707 3 21.5 7.0293 21.5 12C21.5 16.9707 17.4707 21 12.5 21Z" fill="#0A0D14" style="fill:#0A0D14;fill:color(display-p3 0.0392 0.0510 0.0784);fill-opacity:1;"/>
</svg>
