<svg width="25" height="24" viewBox="0 0 25 24" fill="none" xmlns="http://www.w3.org/2000/svg">
<path d="M10.295 11.55C9.75794 11.55 9.24287 11.3367 8.86311 10.9569C8.48335 10.5771 8.27 10.0621 8.27 9.525C8.27 8.98794 8.48335 8.47287 8.86311 8.09311C9.24287 7.71335 9.75794 7.5 10.295 7.5C10.8321 7.5 11.3471 7.71335 11.7269 8.09311C12.1067 8.47287 12.32 8.98794 12.32 9.525C12.32 10.0621 12.1067 10.5771 11.7269 10.9569C11.3471 11.3367 10.8321 11.55 10.295 11.55ZM10.7 18.9732V15.96C10.7 15.5208 10.8296 15.1167 11.0636 14.7558C10.2614 14.6417 9.44421 14.6961 8.66425 14.9157C7.8843 15.1353 7.15872 15.5152 6.5339 16.0311C7.51766 17.4869 8.99912 18.5334 10.7 18.9741V18.9732ZM5.7077 14.394C7.02214 13.4213 8.61477 12.8974 10.25 12.9C11.1887 12.9 12.0887 13.0692 12.9203 13.3788C13.7105 13.0701 14.6528 12.9 15.65 12.9C17.144 12.9 18.5165 13.2816 19.4354 13.9404C19.7392 12.8513 19.7822 11.7059 19.561 10.5971C19.3397 9.48826 18.8604 8.44712 18.1619 7.55799C17.4634 6.66886 16.5653 5.95674 15.5404 5.47931C14.5154 5.00187 13.3924 4.77253 12.2624 4.80987C11.1323 4.84721 10.0269 5.15018 9.0357 5.69424C8.0445 6.23829 7.19538 7.00815 6.55709 7.94145C5.91879 8.87475 5.50928 9.94525 5.36172 11.0663C5.21415 12.1873 5.33268 13.3273 5.7077 14.394ZM18.6911 15.6774C18.3374 15.1977 17.1539 14.7 15.65 14.7C13.8446 14.7 12.5 15.4173 12.5 15.96V19.2C13.7491 19.2007 14.9768 18.8763 16.0625 18.2586C17.1481 17.641 18.0543 16.7514 18.692 15.6774H18.6911ZM12.5 21C7.5293 21 3.5 16.9707 3.5 12C3.5 7.0293 7.5293 3 12.5 3C17.4707 3 21.5 7.0293 21.5 12C21.5 16.9707 17.4707 21 12.5 21ZM15.65 12.45C15.1726 12.45 14.7148 12.2604 14.3772 11.9228C14.0396 11.5852 13.85 11.1274 13.85 10.65C13.85 10.1726 14.0396 9.71477 14.3772 9.37721C14.7148 9.03964 15.1726 8.85 15.65 8.85C16.1274 8.85 16.5852 9.03964 16.9228 9.37721C17.2604 9.71477 17.45 10.1726 17.45 10.65C17.45 11.1274 17.2604 11.5852 16.9228 11.9228C16.5852 12.2604 16.1274 12.45 15.65 12.45Z" fill="#0A0D14" style="fill:#0A0D14;fill:color(display-p3 0.0392 0.0510 0.0784);fill-opacity:1;"/>
</svg>
