<svg width="25" height="24" viewBox="0 0 25 24" fill="none" xmlns="http://www.w3.org/2000/svg">
<path d="M3.5 21.0016C3.5 19.092 4.25857 17.2607 5.60883 15.9104C6.95909 14.5601 8.79044 13.8016 10.7 13.8016C12.6096 13.8016 14.4409 14.5601 15.7912 15.9104C17.1414 17.2607 17.9 19.092 17.9 21.0016H3.5ZM10.7 12.9016C7.7165 12.9016 5.3 10.4851 5.3 7.50156C5.3 4.51806 7.7165 2.10156 10.7 2.10156C13.6835 2.10156 16.1 4.51806 16.1 7.50156C16.1 10.4851 13.6835 12.9016 10.7 12.9016ZM17.3267 14.9113C18.7034 15.2651 19.9333 16.0442 20.8415 17.1377C21.7496 18.2312 22.2897 19.5833 22.3847 21.0016H19.7C19.7 18.6526 18.8 16.5142 17.3267 14.9113ZM15.506 12.8629C16.2602 12.1883 16.8633 11.362 17.2759 10.438C17.6885 9.5141 17.9011 8.51342 17.9 7.50156C17.9019 6.27168 17.5873 5.062 16.9865 3.98886C18.0059 4.19369 18.9229 4.7452 19.5816 5.54964C20.2404 6.35408 20.6002 7.36182 20.6 8.40156C20.6002 9.04278 20.4634 9.67664 20.1987 10.2607C19.934 10.8447 19.5475 11.3654 19.0651 11.7879C18.5827 12.2103 18.0156 12.5248 17.4018 12.7102C16.788 12.8956 16.1416 12.9476 15.506 12.8629Z" fill="#0A0D14" style="fill:#0A0D14;fill:color(display-p3 0.0392 0.0510 0.0784);fill-opacity:1;"/>
</svg>
