<svg width="25" height="24" viewBox="0 0 25 24" fill="none" xmlns="http://www.w3.org/2000/svg">
<path d="M13.4 8.4V15.6C13.4 16.3161 13.1155 17.0028 12.6092 17.5092C12.1029 18.0155 11.4161 18.3 10.7 18.3H8.74701C8.5347 18.9007 8.11683 19.4071 7.56729 19.7295C7.01774 20.052 6.37189 20.1697 5.7439 20.062C5.11591 19.9543 4.54622 19.6281 4.13553 19.1409C3.72483 18.6538 3.49957 18.0372 3.49957 17.4C3.49957 16.7628 3.72483 16.1462 4.13553 15.6591C4.54622 15.1719 5.11591 14.8457 5.7439 14.738C6.37189 14.6303 7.01774 14.748 7.56729 15.0705C8.11683 15.3929 8.5347 15.8993 8.74701 16.5H10.7C10.9387 16.5 11.1676 16.4052 11.3364 16.2364C11.5052 16.0676 11.6 15.8387 11.6 15.6V8.4C11.6 7.68392 11.8845 6.99716 12.3908 6.49081C12.8972 5.98446 13.5839 5.7 14.3 5.7H17V3L21.5 6.6L17 10.2V7.5H14.3C14.0613 7.5 13.8324 7.59482 13.6636 7.7636C13.4948 7.93239 13.4 8.1613 13.4 8.4ZM6.20001 18.3C6.43871 18.3 6.66762 18.2052 6.83641 18.0364C7.00519 17.8676 7.10001 17.6387 7.10001 17.4C7.10001 17.1613 7.00519 16.9324 6.83641 16.7636C6.66762 16.5948 6.43871 16.5 6.20001 16.5C5.96132 16.5 5.7324 16.5948 5.56362 16.7636C5.39483 16.9324 5.30001 17.1613 5.30001 17.4C5.30001 17.6387 5.39483 17.8676 5.56362 18.0364C5.7324 18.2052 5.96132 18.3 6.20001 18.3Z" fill="#0A0D14" style="fill:#0A0D14;fill:color(display-p3 0.0392 0.0510 0.0784);fill-opacity:1;"/>
</svg>
