<svg width="25" height="24" viewBox="0 0 25 24" fill="none" xmlns="http://www.w3.org/2000/svg">
<path d="M5.3 4.80078V11.1008H11.6V4.80078H13.4V19.2008H11.6V12.9008H5.3V19.2008H3.5V4.80078H5.3ZM18.35 8.40078C20.2139 8.40078 21.725 9.91188 21.725 11.7758C21.725 12.5471 21.4658 13.259 21.0302 13.8278L20.897 13.9898L17.9306 17.4008H21.5V19.2008H15.2V17.8004L19.538 12.809C19.7792 12.5327 19.925 12.1709 19.925 11.7758C19.925 10.9064 19.2194 10.2008 18.35 10.2008C17.5238 10.2008 16.8461 10.8371 16.7804 11.6462L16.775 11.7758H14.975C14.975 9.91188 16.4861 8.40078 18.35 8.40078Z" fill="#0A0D14" style="fill:#0A0D14;fill:color(display-p3 0.0392 0.0510 0.0784);fill-opacity:1;"/>
</svg>
