<svg width="25" height="24" viewBox="0 0 25 24" fill="none" xmlns="http://www.w3.org/2000/svg">
<path d="M21.5 8.40078L21.4982 10.2008L19.2437 12.7955C20.6747 13.187 21.725 14.4965 21.725 16.0508C21.725 17.9147 20.2139 19.4258 18.35 19.4258C16.7066 19.4258 15.3377 18.2513 15.0362 16.6961L16.8038 16.3523C16.9442 17.0777 17.5832 17.6258 18.35 17.6258C19.2194 17.6258 19.925 16.9202 19.925 16.0508C19.925 15.1814 19.2194 14.4758 18.35 14.4758C18.0926 14.4758 17.8496 14.5379 17.6354 14.6468L16.4591 13.2545L19.115 10.2008H15.2V8.40078H21.5ZM5.3 4.80078V11.1008H11.6V4.80078H13.4V19.2008H11.6V12.9008H5.3V19.2008H3.5V4.80078H5.3Z" fill="#0A0D14" style="fill:#0A0D14;fill:color(display-p3 0.0392 0.0510 0.0784);fill-opacity:1;"/>
</svg>
