<svg width="25" height="24" viewBox="0 0 25 24" fill="none" xmlns="http://www.w3.org/2000/svg">
<path d="M21.5 8.40078V10.2008H17.6093L17.1917 12.5732C17.4887 12.4931 17.8019 12.4508 18.125 12.4508C20.114 12.4508 21.725 14.0618 21.725 16.0508C21.725 18.0398 20.114 19.6508 18.125 19.6508C16.4807 19.6508 15.0947 18.5492 14.6636 17.0435L16.3943 16.5476C16.6103 17.3 17.3033 17.8508 18.125 17.8508C19.1195 17.8508 19.925 17.0453 19.925 16.0508C19.925 15.0563 19.1195 14.2508 18.125 14.2508C17.558 14.2508 17.0513 14.5136 16.721 14.924L15.092 14.1104L16.1 8.40078H21.5ZM5.3 4.80078V11.1008H11.6V4.80078H13.4V19.2008H11.6V12.9008H5.3V19.2008H3.5V4.80078H5.3Z" fill="#0A0D14" style="fill:#0A0D14;fill:color(display-p3 0.0392 0.0510 0.0784);fill-opacity:1;"/>
</svg>
