<svg width="25" height="24" viewBox="0 0 25 24" fill="none" xmlns="http://www.w3.org/2000/svg">
<path d="M20.6873 8.40078L18.3491 12.4508C20.3381 12.4508 21.95 14.0618 21.95 16.0508C21.95 18.0398 20.339 19.6508 18.35 19.6508C16.361 19.6508 14.75 18.0398 14.75 16.0508C14.75 15.3884 14.9291 14.7674 15.2414 14.2337L18.6092 8.40078H20.6873ZM5.3 4.80078V11.1008H11.6V4.80078H13.4V19.2008H11.6V12.9008H5.3V19.2008H3.5V4.80078H5.3ZM18.35 14.2508C17.3555 14.2508 16.55 15.0563 16.55 16.0508C16.55 17.0453 17.3555 17.8508 18.35 17.8508C19.3445 17.8508 20.15 17.0453 20.15 16.0508C20.15 15.0563 19.3445 14.2508 18.35 14.2508Z" fill="#0A0D14" style="fill:#0A0D14;fill:color(display-p3 0.0392 0.0510 0.0784);fill-opacity:1;"/>
</svg>
