<svg width="25" height="24" viewBox="0 0 25 24" fill="none" xmlns="http://www.w3.org/2000/svg">
<path d="M18.7955 17.2165C18.7679 16.6762 18.6188 16.1491 18.3594 15.6744C18.1 15.1997 17.737 14.7895 17.2972 14.4744C16.8575 14.1593 16.3524 13.9473 15.8195 13.8543C15.2866 13.7612 14.7395 13.7895 14.219 13.9369C14.0297 13.0694 13.5266 12.3024 12.8062 11.7833C12.0858 11.2642 11.1991 11.0295 10.3162 11.1244C9.43336 11.2192 8.61669 11.637 8.02307 12.2973C7.42944 12.9576 7.10072 13.814 7.10004 14.7019C7.10004 15.6739 7.48524 16.555 8.10984 17.2021C6.90668 16.9111 5.79886 16.3148 4.89336 15.4708C3.98785 14.6268 3.31524 13.5636 2.94046 12.3838C2.56569 11.204 2.5014 9.94757 2.75382 8.73572C3.00624 7.52387 3.56683 6.39757 4.38147 5.46555C5.19611 4.53353 6.23729 3.82729 7.40447 3.415C8.57165 3.00271 9.82542 2.89831 11.0447 3.11187C12.264 3.32543 13.4077 3.84974 14.3652 4.63418C15.3228 5.41862 16.062 6.43669 16.5113 7.59011C17.7684 7.33973 19.0735 7.58671 20.1522 8.27908C21.2308 8.97144 21.9988 10.0552 22.2947 11.3023C22.5905 12.5495 22.391 13.8627 21.7382 14.9658C21.0854 16.0688 20.0302 16.8757 18.7946 17.2165H18.7955ZM10.7 16.5019C10.2227 16.5019 9.76482 16.3123 9.42725 15.9747C9.08968 15.6371 8.90004 15.1793 8.90004 14.7019C8.90004 14.2245 9.08968 13.7667 9.42725 13.4291C9.76482 13.0915 10.2227 12.9019 10.7 12.9019C11.1774 12.9019 11.6353 13.0915 11.9728 13.4291C12.3104 13.7667 12.5 14.2245 12.5 14.7019C12.5 15.1793 12.3104 15.6371 11.9728 15.9747C11.6353 16.3123 11.1774 16.5019 10.7 16.5019ZM15.2 19.2019C14.7227 19.2019 14.2648 19.0123 13.9273 18.6747C13.5897 18.3371 13.4 17.8793 13.4 17.4019C13.4 16.9245 13.5897 16.4667 13.9273 16.1291C14.2648 15.7915 14.7227 15.6019 15.2 15.6019C15.6774 15.6019 16.1353 15.7915 16.4728 16.1291C16.8104 16.4667 17 16.9245 17 17.4019C17 17.8793 16.8104 18.3371 16.4728 18.6747C16.1353 19.0123 15.6774 19.2019 15.2 19.2019ZM10.7 21.9019C10.2227 21.9019 9.76482 21.7123 9.42725 21.3747C9.08968 21.0371 8.90004 20.5793 8.90004 20.1019C8.90004 19.6245 9.08968 19.1667 9.42725 18.8291C9.76482 18.4915 10.2227 18.3019 10.7 18.3019C11.1774 18.3019 11.6353 18.4915 11.9728 18.8291C12.3104 19.1667 12.5 19.6245 12.5 20.1019C12.5 20.5793 12.3104 21.0371 11.9728 21.3747C11.6353 21.7123 11.1774 21.9019 10.7 21.9019Z" fill="#0A0D14" style="fill:#0A0D14;fill:color(display-p3 0.0392 0.0510 0.0784);fill-opacity:1;"/>
</svg>
