<svg width="25" height="24" viewBox="0 0 25 24" fill="none" xmlns="http://www.w3.org/2000/svg">
<path d="M7.10006 16.8762C5.55289 16.248 4.27207 15.1017 3.47671 13.6334C2.68134 12.1651 2.42085 10.4661 2.73979 8.82701C3.05872 7.18789 3.93727 5.71052 5.22514 4.64761C6.51302 3.58469 8.1302 3.00228 9.80006 3C11.2509 2.99992 12.668 3.43798 13.8656 4.25683C15.0633 5.07568 15.9858 6.23714 16.5123 7.5891C17.768 7.34086 19.0712 7.58876 20.1481 8.28075C21.225 8.97274 21.992 10.055 22.288 11.3004C22.584 12.5458 22.3861 13.8574 21.7357 14.96C21.0854 16.0625 20.0332 16.8703 18.8001 17.2137V15.2967C19.216 15.0993 19.5837 14.8132 19.8771 14.4584C20.1705 14.1036 20.3826 13.6888 20.4984 13.2431C20.6142 12.7975 20.6309 12.3319 20.5474 11.8792C20.4638 11.4264 20.282 10.9975 20.0148 10.6225C19.7476 10.2476 19.4014 9.93581 19.0006 9.70912C18.5999 9.48242 18.1543 9.34633 17.6953 9.31042C17.2363 9.27452 16.775 9.33967 16.3439 9.5013C15.9128 9.66292 15.5223 9.91709 15.2001 10.2459V10.2C15.1999 9.25213 14.9503 8.321 14.4763 7.50019C14.0022 6.67937 13.3205 5.99779 12.4996 5.52394C11.6786 5.05009 10.7474 4.80068 9.79958 4.80076C8.85171 4.80085 7.92057 5.05043 7.09973 5.52442C6.27888 5.99841 5.59727 6.68011 5.12338 7.50101C4.64949 8.32191 4.40002 9.25309 4.40006 10.201C4.40009 11.1488 4.64962 12.08 5.12357 12.9008C5.59751 13.7217 6.27918 14.4034 7.10006 14.8773V16.8762ZM10.7001 16.5C10.2227 16.5 9.76483 16.3104 9.42726 15.9728C9.0897 15.6352 8.90006 15.1774 8.90006 14.7C8.90006 14.2226 9.0897 13.7648 9.42726 13.4272C9.76483 13.0896 10.2227 12.9 10.7001 12.9C11.1774 12.9 11.6353 13.0896 11.9728 13.4272C12.3104 13.7648 12.5001 14.2226 12.5001 14.7C12.5001 15.1774 12.3104 15.6352 11.9728 15.9728C11.6353 16.3104 11.1774 16.5 10.7001 16.5ZM15.2001 19.2C14.7227 19.2 14.2648 19.0104 13.9273 18.6728C13.5897 18.3352 13.4001 17.8774 13.4001 17.4C13.4001 16.9226 13.5897 16.4648 13.9273 16.1272C14.2648 15.7896 14.7227 15.6 15.2001 15.6C15.6774 15.6 16.1353 15.7896 16.4728 16.1272C16.8104 16.4648 17.0001 16.9226 17.0001 17.4C17.0001 17.8774 16.8104 18.3352 16.4728 18.6728C16.1353 19.0104 15.6774 19.2 15.2001 19.2ZM10.7001 21.9C10.2227 21.9 9.76483 21.7104 9.42726 21.3728C9.0897 21.0352 8.90006 20.5774 8.90006 20.1C8.90006 19.6226 9.0897 19.1648 9.42726 18.8272C9.76483 18.4896 10.2227 18.3 10.7001 18.3C11.1774 18.3 11.6353 18.4896 11.9728 18.8272C12.3104 19.1648 12.5001 19.6226 12.5001 20.1C12.5001 20.5774 12.3104 21.0352 11.9728 21.3728C11.6353 21.7104 11.1774 21.9 10.7001 21.9Z" fill="#0A0D14" style="fill:#0A0D14;fill:color(display-p3 0.0392 0.0510 0.0784);fill-opacity:1;"/>
</svg>
