<svg width="25" height="24" viewBox="0 0 25 24" fill="none" xmlns="http://www.w3.org/2000/svg">
<path d="M19.7 3C19.9387 3 20.1676 3.09482 20.3364 3.2636C20.5052 3.43239 20.6 3.66131 20.6 3.9V8.4C20.6 8.63869 20.5052 8.86761 20.3364 9.0364C20.1676 9.20518 19.9387 9.3 19.7 9.3H15.2V21C15.2 21.2387 15.1052 21.4676 14.9364 21.6364C14.7676 21.8052 14.5387 21.9 14.3 21.9H10.7C10.4613 21.9 10.2324 21.8052 10.0636 21.6364C9.89483 21.4676 9.80001 21.2387 9.80001 21V9.3H4.85001C4.61132 9.3 4.3824 9.20518 4.21362 9.0364C4.04483 8.86761 3.95001 8.63869 3.95001 8.4V6.2562C3.9501 6.0891 3.99671 5.92533 4.08461 5.78323C4.17251 5.64112 4.29824 5.52629 4.44771 5.4516L9.35001 3H19.7ZM15.2 4.8H9.77481L5.75001 6.8124V7.5H11.6V20.1H13.4V7.5H15.2V4.8ZM18.8 4.8H17V7.5H18.8V4.8Z" fill="#0A0D14" style="fill:#0A0D14;fill:color(display-p3 0.0392 0.0510 0.0784);fill-opacity:1;"/>
</svg>
