<svg width="25" height="24" viewBox="0 0 25 24" fill="none" xmlns="http://www.w3.org/2000/svg">
<path d="M17 8.4V3H19.7C19.9387 3 20.1676 3.09482 20.3364 3.2636C20.5052 3.43239 20.6 3.66131 20.6 3.9V7.5C20.6 7.73869 20.5052 7.96761 20.3364 8.1364C20.1676 8.30518 19.9387 8.4 19.7 8.4H17ZM15.2 21C15.2 21.2387 15.1052 21.4676 14.9364 21.6364C14.7676 21.8052 14.5387 21.9 14.3 21.9H10.7C10.4613 21.9 10.2324 21.8052 10.0636 21.6364C9.89483 21.4676 9.80001 21.2387 9.80001 21V8.4H3.95001V6.6666C3.95012 6.50943 3.99139 6.35503 4.06971 6.21876C4.14803 6.0825 4.26066 5.96911 4.39641 5.8899L9.35001 3H15.2V21Z" fill="#0A0D14" style="fill:#0A0D14;fill:color(display-p3 0.0392 0.0510 0.0784);fill-opacity:1;"/>
</svg>
