<svg width="25" height="24" viewBox="0 0 25 24" fill="none" xmlns="http://www.w3.org/2000/svg">
<path d="M12.5 3C14.1709 3 15.7733 3.66375 16.9548 4.84523C18.1363 6.02671 18.8 7.62914 18.8 9.3H19.7666C19.9933 9.30001 20.2117 9.38556 20.378 9.53957C20.5444 9.69357 20.6465 9.90468 20.6639 10.1307L21.4253 20.0307C21.4437 20.2687 21.3668 20.5042 21.2115 20.6855C21.0562 20.8667 20.8353 20.9789 20.5973 20.9973L20.528 21H4.47202C4.23333 21 4.00441 20.9052 3.83563 20.7364C3.66684 20.5676 3.57202 20.3387 3.57202 20.1L3.57472 20.0307L4.33612 10.1307C4.35358 9.90468 4.45568 9.69357 4.62204 9.53957C4.78839 9.38556 5.00673 9.30001 5.23342 9.3H6.20002C6.20002 7.62914 6.86377 6.02671 8.04525 4.84523C9.22673 3.66375 10.8292 3 12.5 3ZM18.9323 11.1H6.06682L5.44312 19.2H19.556L18.9323 11.1ZM14.3 12.9V14.7H10.7V12.9H14.3ZM12.5 4.8C11.3404 4.80007 10.2256 5.24779 9.38802 6.04979C8.55047 6.8518 8.05485 7.94618 8.00452 9.1047L8.00002 9.3H17C17 8.14038 16.5522 7.02555 15.7502 6.188C14.9482 5.35045 13.8538 4.85483 12.6953 4.8045L12.5 4.8Z" fill="#0A0D14" style="fill:#0A0D14;fill:color(display-p3 0.0392 0.0510 0.0784);fill-opacity:1;"/>
</svg>
