<svg width="25" height="24" viewBox="0 0 25 24" fill="none" xmlns="http://www.w3.org/2000/svg">
<path d="M6.20001 9.30067C6.4387 9.30067 6.66762 9.39549 6.8364 9.56427C7.00518 9.73306 7.10001 9.96197 7.10001 10.2007C8.51403 10.1986 9.88729 10.6743 10.997 11.5507H12.95C14.1488 11.5507 15.227 12.0718 15.9677 12.8998L18.8 12.9007C19.6507 12.9004 20.4841 13.1414 21.2035 13.5955C21.9229 14.0497 22.4988 14.6984 22.8644 15.4666C20.7359 18.2755 17.2898 20.1007 13.4 20.1007C10.889 20.1007 8.76501 19.558 7.04601 18.6085C6.98305 18.7822 6.86802 18.9323 6.71662 19.0383C6.56522 19.1443 6.38481 19.201 6.20001 19.2007H3.50001C3.26131 19.2007 3.03239 19.1058 2.86361 18.9371C2.69483 18.7683 2.60001 18.5394 2.60001 18.3007V10.2007C2.60001 9.96197 2.69483 9.73306 2.86361 9.56427C3.03239 9.39549 3.26131 9.30067 3.50001 9.30067H6.20001ZM7.10091 12.0007L7.10001 16.5196L7.14051 16.5493C8.75601 17.6833 10.8602 18.3007 13.4 18.3007C16.1036 18.3007 18.6191 17.2603 20.4515 15.4837L20.5712 15.364L20.4632 15.274C20.0382 14.9411 19.5231 14.7436 18.9845 14.707L18.8 14.7007L16.8992 14.6998C16.9649 14.9896 17 15.2911 17 15.6007V16.5007H8.90001V14.7007L15.011 14.6998L14.9804 14.6296C14.8079 14.2692 14.5426 13.9612 14.2117 13.7372C13.8808 13.5132 13.4963 13.3814 13.0976 13.3552L12.95 13.3507H10.313C9.89479 12.9229 9.39525 12.5831 8.84378 12.3513C8.2923 12.1195 7.70003 12.0002 7.10181 12.0007H7.10091ZM5.30001 11.1007H4.40001V17.4007H5.30001V11.1007ZM13.9814 4.41817L14.3 4.73767L14.6186 4.41907C14.8272 4.20866 15.0754 4.04154 15.3488 3.92729C15.6221 3.81304 15.9154 3.75392 16.2117 3.75331C16.508 3.7527 16.8015 3.81063 17.0754 3.92376C17.3492 4.03689 17.598 4.20299 17.8075 4.41254C18.017 4.62209 18.1831 4.87095 18.2961 5.14484C18.4092 5.41873 18.467 5.71225 18.4663 6.00855C18.4656 6.30485 18.4064 6.5981 18.2921 6.87146C18.1778 7.14481 18.0106 7.3929 17.8001 7.60147L14.3 11.1007L10.799 7.59967C10.5886 7.39104 10.4215 7.14291 10.3072 6.86952C10.193 6.59613 10.1339 6.30286 10.1332 6.00656C10.1326 5.71026 10.1906 5.41675 10.3037 5.1429C10.4168 4.86904 10.5829 4.62023 10.7925 4.41074C11.002 4.20125 11.2509 4.03521 11.5248 3.92216C11.7987 3.80911 12.0922 3.75127 12.3885 3.75196C12.6848 3.75265 12.978 3.81186 13.2514 3.92618C13.5248 4.04051 13.7728 4.20771 13.9814 4.41817ZM12.0734 5.69167C11.9988 5.76585 11.9526 5.86382 11.9427 5.96855C11.9328 6.07328 11.96 6.17817 12.0194 6.26497L12.0716 6.32707L14.3 8.55367L16.5284 6.32707C16.603 6.25261 16.649 6.15436 16.6585 6.04943C16.6681 5.9445 16.6405 5.83955 16.5806 5.75287L16.5284 5.68987C16.4538 5.61546 16.3555 5.56957 16.2506 5.5602C16.1457 5.55082 16.0408 5.57856 15.9542 5.63857L15.8912 5.69077L14.2991 7.28197L12.7088 5.68897L12.6476 5.63857C12.5609 5.57867 12.456 5.55109 12.351 5.56063C12.2461 5.57017 12.1479 5.61622 12.0734 5.69077V5.69167Z" fill="#0A0D14" style="fill:#0A0D14;fill:color(display-p3 0.0392 0.0510 0.0784);fill-opacity:1;"/>
</svg>
