<svg width="25" height="24" viewBox="0 0 25 24" fill="none" xmlns="http://www.w3.org/2000/svg">
<path d="M10.097 11.5507H12.05C13.1241 11.5507 14.1543 11.9774 14.9138 12.7369C15.6733 13.4964 16.1 14.5265 16.1 15.6007H9.79911L9.80001 16.5007H17V15.6007C16.9972 14.643 16.7205 13.7062 16.2026 12.9007H18.8C19.6507 12.9004 20.4841 13.1414 21.2035 13.5955C21.9229 14.0497 22.4988 14.6984 22.8644 15.4666C20.7359 18.2755 17.2898 20.1007 13.4 20.1007C10.9151 20.1007 8.81001 19.5697 7.10001 18.6382V10.2646C8.19496 10.4214 9.22893 10.8651 10.097 11.5507ZM5.30001 9.30067C5.52045 9.3007 5.73321 9.38163 5.89794 9.52811C6.06267 9.6746 6.16791 9.87644 6.19371 10.0954L6.20001 10.2007V18.3007C6.20001 18.5394 6.10518 18.7683 5.9364 18.9371C5.76762 19.1058 5.5387 19.2007 5.30001 19.2007H3.50001C3.26131 19.2007 3.03239 19.1058 2.86361 18.9371C2.69483 18.7683 2.60001 18.5394 2.60001 18.3007V10.2007C2.60001 9.96197 2.69483 9.73306 2.86361 9.56427C3.03239 9.39549 3.26131 9.30067 3.50001 9.30067H5.30001ZM13.9814 4.41817L14.3 4.73767L14.6186 4.41907C14.8272 4.20866 15.0754 4.04154 15.3488 3.92729C15.6221 3.81304 15.9154 3.75392 16.2117 3.75331C16.508 3.7527 16.8015 3.81063 17.0754 3.92376C17.3492 4.03689 17.598 4.20299 17.8075 4.41254C18.017 4.62209 18.1831 4.87095 18.2961 5.14484C18.4092 5.41873 18.467 5.71225 18.4663 6.00855C18.4656 6.30485 18.4064 6.5981 18.2921 6.87146C18.1778 7.14481 18.0106 7.3929 17.8001 7.60147L14.3 11.1007L10.799 7.59967C10.5886 7.39104 10.4215 7.14291 10.3072 6.86952C10.193 6.59613 10.1339 6.30286 10.1332 6.00656C10.1326 5.71026 10.1906 5.41675 10.3037 5.1429C10.4168 4.86904 10.5829 4.62023 10.7925 4.41074C11.002 4.20125 11.2509 4.03521 11.5248 3.92216C11.7987 3.80911 12.0922 3.75127 12.3885 3.75196C12.6848 3.75265 12.978 3.81186 13.2514 3.92618C13.5248 4.04051 13.7728 4.20771 13.9814 4.41817Z" fill="#0A0D14" style="fill:#0A0D14;fill:color(display-p3 0.0392 0.0510 0.0784);fill-opacity:1;"/>
</svg>
