<svg width="25" height="24" viewBox="0 0 25 24" fill="none" xmlns="http://www.w3.org/2000/svg">
<path d="M17 3V4.8L13.4 4.7991V6.6H16.1V8.4C18.089 8.4 19.7 10.011 19.7 12V19.2C19.7 20.1945 18.8945 21 17.9 21H7.10003C6.10553 21 5.30003 20.1945 5.30003 19.2V12C5.30003 10.011 6.91103 8.4 8.90003 8.4V6.6H11.6V4.7991L8.45003 4.8C7.88303 4.8 7.21703 5.241 6.47003 6.24L5.03003 5.16C6.08303 3.756 7.21703 3 8.45003 3H17ZM16.1 10.2H8.90003C7.90553 10.2 7.10003 11.0055 7.10003 12V19.2H17.9V12C17.9 11.0055 17.0945 10.2 16.1 10.2ZM13.4 12V13.8H15.2V15.6H13.3991L13.4 17.4H11.6L11.5991 15.6H9.80003V13.8H11.6V12H13.4Z" fill="#0A0D14" style="fill:#0A0D14;fill:color(display-p3 0.0392 0.0510 0.0784);fill-opacity:1;"/>
</svg>
