<svg width="25" height="24" viewBox="0 0 25 24" fill="none" xmlns="http://www.w3.org/2000/svg">
<path d="M6.20001 9.3C6.4387 9.3 6.66762 9.39482 6.8364 9.5636C7.00518 9.73239 7.10001 9.96131 7.10001 10.2C8.51403 10.1979 9.88729 10.6736 10.997 11.55H12.95C14.1497 11.55 15.227 12.072 15.9686 12.9H18.8C19.6507 12.8998 20.4841 13.1407 21.2035 13.5948C21.9229 14.049 22.4988 14.6978 22.8644 15.4659C20.7359 18.2748 17.2898 20.1 13.4 20.1C10.889 20.1 8.76501 19.5573 7.04601 18.6078C6.98305 18.7816 6.86802 18.9317 6.71662 19.0376C6.56522 19.1436 6.38481 19.2003 6.20001 19.2H3.50001C3.26131 19.2 3.03239 19.1052 2.86361 18.9364C2.69483 18.7676 2.60001 18.5387 2.60001 18.3V10.2C2.60001 9.96131 2.69483 9.73239 2.86361 9.5636C3.03239 9.39482 3.26131 9.3 3.50001 9.3H6.20001ZM7.10091 12L7.10001 16.5198L7.14051 16.5486C8.75601 17.6826 10.8602 18.3 13.4 18.3C16.1036 18.3 18.6191 17.2596 20.4515 15.483L20.5712 15.3633L20.4632 15.2733C20.0382 14.9405 19.5231 14.7429 18.9845 14.7063L18.8 14.7H16.9001C16.9649 14.9898 17 15.2904 17 15.6V16.5H8.90001V14.7L15.011 14.6991L14.9804 14.6289C14.8079 14.2685 14.5426 13.9605 14.2117 13.7365C13.8808 13.5125 13.4963 13.3807 13.0976 13.3545L12.95 13.35H10.313C9.89479 12.9223 9.39525 12.5825 8.84378 12.3506C8.2923 12.1188 7.70003 11.9996 7.10181 12H7.10091ZM5.30001 11.1H4.40001V17.4H5.30001V11.1ZM17.9 5.7C18.6161 5.7 19.3028 5.98446 19.8092 6.49081C20.3155 6.99716 20.6 7.68392 20.6 8.4C20.6 9.11608 20.3155 9.80284 19.8092 10.3092C19.3028 10.8155 18.6161 11.1 17.9 11.1C17.1839 11.1 16.4972 10.8155 15.9908 10.3092C15.4845 9.80284 15.2 9.11608 15.2 8.4C15.2 7.68392 15.4845 6.99716 15.9908 6.49081C16.4972 5.98446 17.1839 5.7 17.9 5.7ZM17.9 7.5C17.6613 7.5 17.4324 7.59482 17.2636 7.7636C17.0948 7.93239 17 8.16131 17 8.4C17 8.6387 17.0948 8.86761 17.2636 9.0364C17.4324 9.20518 17.6613 9.3 17.9 9.3C18.1387 9.3 18.3676 9.20518 18.5364 9.0364C18.7052 8.86761 18.8 8.6387 18.8 8.4C18.8 8.16131 18.7052 7.93239 18.5364 7.7636C18.3676 7.59482 18.1387 7.5 17.9 7.5ZM11.6 3C12.3161 3 13.0028 3.28446 13.5092 3.79081C14.0155 4.29716 14.3 4.98392 14.3 5.7C14.3 6.41608 14.0155 7.10284 13.5092 7.60919C13.0028 8.11554 12.3161 8.4 11.6 8.4C10.8839 8.4 10.1972 8.11554 9.69082 7.60919C9.18447 7.10284 8.90001 6.41608 8.90001 5.7C8.90001 4.98392 9.18447 4.29716 9.69082 3.79081C10.1972 3.28446 10.8839 3 11.6 3ZM11.6 4.8C11.3613 4.8 11.1324 4.89482 10.9636 5.0636C10.7948 5.23239 10.7 5.46131 10.7 5.7C10.7 5.93869 10.7948 6.16761 10.9636 6.3364C11.1324 6.50518 11.3613 6.6 11.6 6.6C11.8387 6.6 12.0676 6.50518 12.2364 6.3364C12.4052 6.16761 12.5 5.93869 12.5 5.7C12.5 5.46131 12.4052 5.23239 12.2364 5.0636C12.0676 4.89482 11.8387 4.8 11.6 4.8Z" fill="#0A0D14" style="fill:#0A0D14;fill:color(display-p3 0.0392 0.0510 0.0784);fill-opacity:1;"/>
</svg>
