<svg width="25" height="24" viewBox="0 0 25 24" fill="none" xmlns="http://www.w3.org/2000/svg">
<path d="M10.097 11.55H12.05C13.1241 11.55 14.1543 11.9767 14.9138 12.7362C15.6733 13.4957 16.1 14.5259 16.1 15.6H9.79911L9.80001 16.5H17V15.6C16.9972 14.6424 16.7205 13.7055 16.2026 12.9H18.8C19.6507 12.8998 20.4841 13.1407 21.2035 13.5948C21.9229 14.049 22.4988 14.6978 22.8644 15.4659C20.7359 18.2748 17.2898 20.1 13.4 20.1C10.9151 20.1 8.81001 19.569 7.10001 18.6375V10.2639C8.19496 10.4207 9.22893 10.8645 10.097 11.55ZM6.20001 18.3C6.20001 18.5387 6.10518 18.7676 5.9364 18.9364C5.76762 19.1052 5.5387 19.2 5.30001 19.2H3.50001C3.26131 19.2 3.03239 19.1052 2.86361 18.9364C2.69483 18.7676 2.60001 18.5387 2.60001 18.3V10.2C2.60001 9.96131 2.69483 9.73239 2.86361 9.5636C3.03239 9.39482 3.26131 9.3 3.50001 9.3H5.30001C5.5387 9.3 5.76762 9.39482 5.9364 9.5636C6.10518 9.73239 6.20001 9.96131 6.20001 10.2V18.3ZM17.9 5.7C18.6161 5.7 19.3028 5.98446 19.8092 6.49081C20.3155 6.99716 20.6 7.68392 20.6 8.4C20.6 9.11608 20.3155 9.80284 19.8092 10.3092C19.3028 10.8155 18.6161 11.1 17.9 11.1C17.1839 11.1 16.4972 10.8155 15.9908 10.3092C15.4845 9.80284 15.2 9.11608 15.2 8.4C15.2 7.68392 15.4845 6.99716 15.9908 6.49081C16.4972 5.98446 17.1839 5.7 17.9 5.7ZM11.6 3C12.3161 3 13.0028 3.28446 13.5092 3.79081C14.0155 4.29716 14.3 4.98392 14.3 5.7C14.3 6.41608 14.0155 7.10284 13.5092 7.60919C13.0028 8.11554 12.3161 8.4 11.6 8.4C10.8839 8.4 10.1972 8.11554 9.69082 7.60919C9.18447 7.10284 8.90001 6.41608 8.90001 5.7C8.90001 4.98392 9.18447 4.29716 9.69082 3.79081C10.1972 3.28446 10.8839 3 11.6 3Z" fill="#0A0D14" style="fill:#0A0D14;fill:color(display-p3 0.0392 0.0510 0.0784);fill-opacity:1;"/>
</svg>
