<svg width="25" height="24" viewBox="0 0 25 24" fill="none" xmlns="http://www.w3.org/2000/svg">
<path d="M14.255 3H19.7C19.9387 3 20.1676 3.09482 20.3364 3.2636C20.5052 3.43239 20.6 3.66131 20.6 3.9V20.1C20.6 20.3387 20.5052 20.5676 20.3364 20.7364C20.1676 20.9052 19.9387 21 19.7 21H5.30002C5.06133 21 4.83241 20.9052 4.66363 20.7364C4.49485 20.5676 4.40002 20.3387 4.40002 20.1V12.855C4.69612 12.8847 4.99672 12.9 5.30002 12.9C10.2707 12.9 14.3 8.8707 14.3 3.9C14.3 3.5967 14.2847 3.2961 14.255 3ZM15.2 15.6V17.4H17V15.6H15.2ZM12.4442 3C12.5816 4.08912 12.468 5.19523 12.1123 6.23375C11.7566 7.27227 11.1682 8.21571 10.392 8.99194C9.61574 9.76816 8.6723 10.3566 7.63378 10.7123C6.59525 11.068 5.48915 11.1815 4.40002 11.0442V3.9C4.40002 3.66131 4.49485 3.43239 4.66363 3.2636C4.83241 3.09482 5.06133 3 5.30002 3H12.4442Z" fill="#0A0D14" style="fill:#0A0D14;fill:color(display-p3 0.0392 0.0510 0.0784);fill-opacity:1;"/>
</svg>
