<svg width="25" height="24" viewBox="0 0 25 24" fill="none" xmlns="http://www.w3.org/2000/svg">
<path d="M7.625 4.5C7.24676 4.5 6.92771 4.78165 6.88079 5.15698L5.75579 14.157C5.75193 14.1878 5.75 14.2189 5.75 14.25V18.75C5.75 19.1642 6.08579 19.5 6.5 19.5H18.5C18.9142 19.5 19.25 19.1642 19.25 18.75V14.25C19.25 14.2189 19.248 14.1878 19.2442 14.157L18.1192 5.15698C18.0723 4.78165 17.7532 4.5 17.375 4.5H7.625ZM7.25 15H17.75V18H7.25V15ZM14.75 15.75H16.25V17.25H14.75V15.75ZM13.25 15.75H11.75V17.25H13.25V15.75Z" fill="#0A0D14" style="fill:#0A0D14;fill:color(display-p3 0.0392 0.0510 0.0784);fill-opacity:1;"/>
</svg>
