<svg width="25" height="24" viewBox="0 0 25 24" fill="none" xmlns="http://www.w3.org/2000/svg">
<path d="M6.88079 5.15698C6.92771 4.78165 7.24676 4.5 7.625 4.5H17.375C17.7532 4.5 18.0723 4.78165 18.1192 5.15698L19.2442 14.157C19.248 14.1878 19.25 14.2189 19.25 14.25V18.75C19.25 19.1642 18.9142 19.5 18.5 19.5H6.5C6.08579 19.5 5.75 19.1642 5.75 18.75V14.25C5.75 14.2189 5.75193 14.1878 5.75579 14.157L6.88079 5.15698ZM8.28709 6L7.34959 13.5H17.6504L16.7129 6H8.28709ZM17.75 15H7.25V18H17.75V15ZM14.75 15.75H16.25V17.25H14.75V15.75ZM13.25 15.75H11.75V17.25H13.25V15.75Z" fill="#0A0D14" style="fill:#0A0D14;fill:color(display-p3 0.0392 0.0510 0.0784);fill-opacity:1;"/>
</svg>
