<svg width="25" height="24" viewBox="0 0 25 24" fill="none" xmlns="http://www.w3.org/2000/svg">
<path d="M6.20002 11.0442C7.78618 10.8439 9.26062 10.1216 10.3911 8.99109C11.5216 7.8606 12.2439 6.38615 12.4442 4.8H6.20002V11.0442ZM6.20002 12.8559V19.2H18.8V4.8H14.255C14.0469 6.86549 13.1314 8.7956 11.6635 10.2635C10.1956 11.7314 8.26551 12.6469 6.20002 12.855V12.8559ZM5.30002 3H19.7C19.9387 3 20.1676 3.09482 20.3364 3.2636C20.5052 3.43239 20.6 3.66131 20.6 3.9V20.1C20.6 20.3387 20.5052 20.5676 20.3364 20.7364C20.1676 20.9052 19.9387 21 19.7 21H5.30002C5.06133 21 4.83241 20.9052 4.66363 20.7364C4.49485 20.5676 4.40002 20.3387 4.40002 20.1V3.9C4.40002 3.66131 4.49485 3.43239 4.66363 3.2636C4.83241 3.09482 5.06133 3 5.30002 3ZM15.2 15.6H17V17.4H15.2V15.6Z" fill="#0A0D14" style="fill:#0A0D14;fill:color(display-p3 0.0392 0.0510 0.0784);fill-opacity:1;"/>
</svg>
