<svg width="25" height="24" viewBox="0 0 25 24" fill="none" xmlns="http://www.w3.org/2000/svg">
<path d="M7.17468 12.9016C7.04458 12.1275 7.08477 11.3345 7.29246 10.5776C7.50016 9.82065 7.87035 9.11812 8.37727 8.51889C8.88418 7.91966 9.51563 7.43814 10.2276 7.10785C10.9396 6.77757 11.7151 6.60648 12.5 6.60648C13.2849 6.60648 14.0603 6.77757 14.7723 7.10785C15.4843 7.43814 16.1158 7.91966 16.6227 8.51889C17.1296 9.11812 17.4998 9.82065 17.7075 10.5776C17.9152 11.3345 17.9554 12.1275 17.8253 12.9016H15.9866C16.1233 12.3697 16.1366 11.8137 16.0254 11.276C15.9141 10.7382 15.6814 10.2331 15.3449 9.79912C15.0084 9.36518 14.5771 9.01396 14.084 8.77235C13.5909 8.53073 13.0491 8.40511 12.5 8.40511C11.9509 8.40511 11.409 8.53073 10.9159 8.77235C10.4228 9.01396 9.99153 9.36518 9.65505 9.79912C9.31857 10.2331 9.08581 10.7382 8.97459 11.276C8.86337 11.8137 8.87664 12.3697 9.01338 12.9016H7.17468ZM3.49998 14.7016H12.5V16.5016H3.49998V14.7016ZM14.3 14.7016H21.5V16.5016H14.3V14.7016ZM16.1 18.3016H19.7V20.1016H16.1V18.3016ZM5.29998 18.3016H14.3V20.1016H5.29998V18.3016ZM11.6 2.10156H13.4V4.80156H11.6V2.10156ZM4.86348 5.63766L6.13608 4.36506L8.04498 6.27396L6.77238 7.54656L4.86348 5.63856V5.63766ZM18.863 4.36506L20.1356 5.63766L18.2267 7.54656L16.9541 6.27396L18.863 4.36506ZM22.4 11.1016V12.9016H19.7V11.1016H22.4ZM5.29998 11.1016V12.9016H2.59998V11.1016H5.29998Z" fill="#0A0D14" style="fill:#0A0D14;fill:color(display-p3 0.0392 0.0510 0.0784);fill-opacity:1;"/>
</svg>
