<svg width="25" height="24" viewBox="0 0 25 24" fill="none" xmlns="http://www.w3.org/2000/svg">
<path d="M12.5 18.3C12.858 18.3 13.2014 18.4422 13.4546 18.6954C13.7078 18.9486 13.85 19.292 13.85 19.65C13.85 20.008 13.7078 20.3514 13.4546 20.6046C13.2014 20.8578 12.858 21 12.5 21C12.142 21 11.7986 20.8578 11.5454 20.6046C11.2922 20.3514 11.15 20.008 11.15 19.65C11.15 19.292 11.2922 18.9486 11.5454 18.6954C11.7986 18.4422 12.142 18.3 12.5 18.3ZM19.25 18.3C19.608 18.3 19.9514 18.4422 20.2046 18.6954C20.4578 18.9486 20.6 19.292 20.6 19.65C20.6 20.008 20.4578 20.3514 20.2046 20.6046C19.9514 20.8578 19.608 21 19.25 21C18.892 21 18.5486 20.8578 18.2954 20.6046C18.0422 20.3514 17.9 20.008 17.9 19.65C17.9 19.292 18.0422 18.9486 18.2954 18.6954C18.5486 18.4422 18.892 18.3 19.25 18.3ZM5.75 18.3C6.10804 18.3 6.45142 18.4422 6.70459 18.6954C6.95777 18.9486 7.1 19.292 7.1 19.65C7.1 20.008 6.95777 20.3514 6.70459 20.6046C6.45142 20.8578 6.10804 21 5.75 21C5.39196 21 5.04858 20.8578 4.79541 20.6046C4.54223 20.3514 4.4 20.008 4.4 19.65C4.4 19.292 4.54223 18.9486 4.79541 18.6954C5.04858 18.4422 5.39196 18.3 5.75 18.3ZM17 7.5C18.1935 7.5 19.3381 7.97411 20.182 8.81802C21.0259 9.66193 21.5 10.8065 21.5 12C21.5 13.1935 21.0259 14.3381 20.182 15.182C19.3381 16.0259 18.1935 16.5 17 16.5C15.3404 16.5 13.841 15.564 12.5 13.6902C11.159 15.564 9.6596 16.5 8 16.5C6.80653 16.5 5.66193 16.0259 4.81802 15.182C3.97411 14.3381 3.5 13.1935 3.5 12C3.5 10.8065 3.97411 9.66193 4.81802 8.81802C5.66193 7.97411 6.80653 7.5 8 7.5C9.6596 7.5 11.159 8.436 12.5 10.3098C13.841 8.436 15.3404 7.5 17 7.5ZM8 9.3C7.28392 9.3 6.59716 9.58446 6.09081 10.0908C5.58446 10.5972 5.3 11.2839 5.3 12C5.3 12.7161 5.58446 13.4028 6.09081 13.9092C6.59716 14.4155 7.28392 14.7 8 14.7C9.1286 14.7 10.259 13.9125 11.3831 12.1314L11.4632 11.9991L11.3822 11.8686C10.3049 10.1622 9.2222 9.3666 8.1413 9.3036L8 9.3ZM17 9.3C15.8714 9.3 14.741 10.0875 13.6169 11.8686L13.5359 12L13.6169 12.1314C14.6951 13.8378 15.7769 14.6334 16.8587 14.6964L17 14.7C17.7161 14.7 18.4028 14.4155 18.9092 13.9092C19.4155 13.4028 19.7 12.7161 19.7 12C19.7 11.2839 19.4155 10.5972 18.9092 10.0908C18.4028 9.58446 17.7161 9.3 17 9.3ZM12.5 3C12.6773 3 12.8528 3.03492 13.0166 3.10276C13.1804 3.17061 13.3292 3.27005 13.4546 3.39541C13.58 3.52076 13.6794 3.66959 13.7472 3.83338C13.8151 3.99717 13.85 4.17272 13.85 4.35C13.85 4.52728 13.8151 4.70283 13.7472 4.86662C13.6794 5.03041 13.58 5.17924 13.4546 5.30459C13.3292 5.42995 13.1804 5.52939 13.0166 5.59724C12.8528 5.66508 12.6773 5.7 12.5 5.7C12.142 5.7 11.7986 5.55777 11.5454 5.30459C11.2922 5.05142 11.15 4.70804 11.15 4.35C11.15 3.99196 11.2922 3.64858 11.5454 3.39541C11.7986 3.14223 12.142 3 12.5 3ZM5.75 3C5.92728 3 6.10283 3.03492 6.26662 3.10276C6.43041 3.17061 6.57924 3.27005 6.70459 3.39541C6.82995 3.52076 6.92939 3.66959 6.99724 3.83338C7.06508 3.99717 7.1 4.17272 7.1 4.35C7.1 4.52728 7.06508 4.70283 6.99724 4.86662C6.92939 5.03041 6.82995 5.17924 6.70459 5.30459C6.57924 5.42995 6.43041 5.52939 6.26662 5.59724C6.10283 5.66508 5.92728 5.7 5.75 5.7C5.39196 5.7 5.04858 5.55777 4.79541 5.30459C4.54223 5.05142 4.4 4.70804 4.4 4.35C4.4 3.99196 4.54223 3.64858 4.79541 3.39541C5.04858 3.14223 5.39196 3 5.75 3ZM19.25 3C19.4273 3 19.6028 3.03492 19.7666 3.10276C19.9304 3.17061 20.0792 3.27005 20.2046 3.39541C20.33 3.52076 20.4294 3.66959 20.4972 3.83338C20.5651 3.99717 20.6 4.17272 20.6 4.35C20.6 4.52728 20.5651 4.70283 20.4972 4.86662C20.4294 5.03041 20.33 5.17924 20.2046 5.30459C20.0792 5.42995 19.9304 5.52939 19.7666 5.59724C19.6028 5.66508 19.4273 5.7 19.25 5.7C18.892 5.7 18.5486 5.55777 18.2954 5.30459C18.0422 5.05142 17.9 4.70804 17.9 4.35C17.9 3.99196 18.0422 3.64858 18.2954 3.39541C18.5486 3.14223 18.892 3 19.25 3Z" fill="#0A0D14" style="fill:#0A0D14;fill:color(display-p3 0.0392 0.0510 0.0784);fill-opacity:1;"/>
</svg>
