<svg width="25" height="24" viewBox="0 0 25 24" fill="none" xmlns="http://www.w3.org/2000/svg">
<path d="M4.4 3.89844H20.6C20.8387 3.89844 21.0676 3.99326 21.2364 4.16204C21.4052 4.33082 21.5 4.55974 21.5 4.79844V19.1984C21.5 19.4371 21.4052 19.6661 21.2364 19.8348C21.0676 20.0036 20.8387 20.0984 20.6 20.0984H4.4C4.16131 20.0984 3.93239 20.0036 3.7636 19.8348C3.59482 19.6661 3.5 19.4371 3.5 19.1984V4.79844C3.5 4.55974 3.59482 4.33082 3.7636 4.16204C3.93239 3.99326 4.16131 3.89844 4.4 3.89844ZM8.45 11.3234V9.29844H7.1V14.6984H8.45V12.6734H10.25V14.6984H11.6V9.29844H10.25V11.3234H8.45ZM14.75 10.6484H16.1C16.2193 10.6484 16.3338 10.6958 16.4182 10.7802C16.5026 10.8646 16.55 10.9791 16.55 11.0984V12.8984C16.55 13.0178 16.5026 13.1322 16.4182 13.2166C16.3338 13.301 16.2193 13.3484 16.1 13.3484H14.75V10.6484ZM13.4 9.29844V14.6984H16.1C16.5774 14.6984 17.0352 14.5088 17.3728 14.1712C17.7104 13.8337 17.9 13.3758 17.9 12.8984V11.0984C17.9 10.621 17.7104 10.1632 17.3728 9.82565C17.0352 9.48808 16.5774 9.29844 16.1 9.29844H13.4Z" fill="#0A0D14" style="fill:#0A0D14;fill:color(display-p3 0.0392 0.0510 0.0784);fill-opacity:1;"/>
</svg>
