<svg width="25" height="24" viewBox="0 0 25 24" fill="none" xmlns="http://www.w3.org/2000/svg">
<path d="M19.7 3C20.1968 3 20.6 3.4032 20.6 3.9V20.1C20.6 20.5968 20.1968 21 19.7 21H7.10002C6.60322 21 6.20002 20.5968 6.20002 20.1V18.3H4.40002V16.5H6.20002V14.7H4.40002V12.9H6.20002V11.1H4.40002V9.3H6.20002V7.5H4.40002V5.7H6.20002V3.9C6.20002 3.4032 6.60322 3 7.10002 3H19.7ZM18.8 4.8H8.00002V19.2H18.8V4.8ZM14.3 8.4V11.1H17V12.9H14.2991L14.3 15.6H12.5L12.4991 12.9H9.80002V11.1H12.5V8.4H14.3Z" fill="#0A0D14" style="fill:#0A0D14;fill:color(display-p3 0.0392 0.0510 0.0784);fill-opacity:1;"/>
</svg>
