<svg width="25" height="24" viewBox="0 0 25 24" fill="none" xmlns="http://www.w3.org/2000/svg">
<path d="M18.8 13.8004V16.5004H21.5V18.3004H18.7991L18.8 21.0004H17L16.9991 18.3004H14.3V16.5004H17V13.8004H18.8ZM19.9187 5.48167C21.9545 7.52287 22.0247 10.7737 20.1311 12.8932L18.8531 11.617C20.051 10.2454 19.988 8.09437 18.6443 6.75337C17.2916 5.40427 15.1163 5.34667 13.7033 6.61567L12.5018 7.69387L11.2994 6.61657C9.88189 5.34577 7.70749 5.40157 6.35479 6.75517C5.01379 8.09617 4.94629 10.2427 6.18199 11.6611L13.7708 19.2625L12.5 20.5369L4.86799 12.8941C2.97439 10.7737 3.04549 7.51747 5.08039 5.48167C7.11889 3.44407 10.3796 3.37567 12.5 5.27647C14.6141 3.37837 17.8811 3.44137 19.9178 5.48167H19.9187Z" fill="#0A0D14" style="fill:#0A0D14;fill:color(display-p3 0.0392 0.0510 0.0784);fill-opacity:1;"/>
</svg>
