<svg width="25" height="24" viewBox="0 0 25 24" fill="none" xmlns="http://www.w3.org/2000/svg">
<path d="M18.8 13.8004V16.5004H21.5V18.3004H18.8V21.0004H17V18.3004H14.3V16.5004H17V13.8004H18.8ZM19.9187 5.48167C21.8627 7.43107 22.0148 10.483 20.375 12.6007C19.6334 12.2164 18.791 12.0004 17.9 12.0004C14.9174 12.0004 12.5 14.4178 12.5 17.4004C12.5 18.3085 12.7241 19.1644 13.1201 19.915L12.4991 20.5369L4.86891 12.8941C2.97531 10.7737 3.04641 7.51747 5.08131 5.48167C7.11981 3.44407 10.3805 3.37567 12.5009 5.27647C14.615 3.37837 17.882 3.44137 19.9187 5.48167Z" fill="#0A0D14" style="fill:#0A0D14;fill:color(display-p3 0.0392 0.0510 0.0784);fill-opacity:1;"/>
</svg>
