<svg width="25" height="24" viewBox="0 0 25 24" fill="none" xmlns="http://www.w3.org/2000/svg">
<path d="M16.55 3.90039C19.2842 3.90039 21.5 6.15039 21.5 9.30039C21.5 15.6004 14.75 19.2004 12.5 20.5504C10.25 19.2004 3.5 15.6004 3.5 9.30039C3.5 6.15039 5.75 3.90039 8.45 3.90039C10.124 3.90039 11.6 4.80039 12.5 5.70039C13.4 4.80039 14.876 3.90039 16.55 3.90039ZM13.3406 17.944C14.1335 17.4436 14.849 16.9459 15.5186 16.4131C18.2015 14.2801 19.7 11.9491 19.7 9.30039C19.7 7.17639 18.3167 5.70039 16.55 5.70039C15.5816 5.70039 14.534 6.21339 13.7726 6.97299L12.5 8.24559L11.2274 6.97299C10.466 6.21339 9.4184 5.70039 8.45 5.70039C6.704 5.70039 5.3 7.19079 5.3 9.30039C5.3 11.95 6.7994 14.2801 9.4805 16.4131C10.151 16.9459 10.8665 17.4436 11.6594 17.9431C11.9285 18.1132 12.1949 18.2761 12.5 18.4579C12.8051 18.2761 13.0715 18.1132 13.3406 17.944Z" fill="#0A0D14" style="fill:#0A0D14;fill:color(display-p3 0.0392 0.0510 0.0784);fill-opacity:1;"/>
</svg>
