<svg width="25" height="24" viewBox="0 0 25 24" fill="none" xmlns="http://www.w3.org/2000/svg">
<path d="M16.55 3.90039C19.2842 3.90039 21.5 6.15039 21.5 9.30039C21.5 15.6004 14.75 19.2004 12.5 20.5504C10.7198 19.4821 6.1244 17.0071 4.2812 12.9004H8.5094L9.35 11.5L12.05 16L13.9094 12.9004H17V11.1004H12.8906L12.05 12.5008L9.35 8.00079L7.4906 11.1004H3.689C3.5666 10.5271 3.5 9.92679 3.5 9.30039C3.5 6.15039 5.75 3.90039 8.45 3.90039C10.124 3.90039 11.6 4.80039 12.5 5.70039C13.4 4.80039 14.876 3.90039 16.55 3.90039Z" fill="#0A0D14" style="fill:#0A0D14;fill:color(display-p3 0.0392 0.0510 0.0784);fill-opacity:1;"/>
</svg>
