<svg width="25" height="24" viewBox="0 0 25 24" fill="none" xmlns="http://www.w3.org/2000/svg">
<path d="M17.3267 11.1409C18.5903 9.88717 20.6387 9.88717 21.9023 11.1409C23.1659 12.3955 23.1659 14.4295 21.9023 15.6832L17 20.5504L12.0977 15.6832C10.8341 14.4295 10.8341 12.3955 12.0977 11.1409C13.3613 9.88717 15.4097 9.88717 16.6733 11.1409L17 11.4649L17.3267 11.1409ZM19.0187 5.48167C19.8647 6.33037 20.3714 7.38787 20.5388 8.48587C19.3391 8.26267 18.0737 8.47687 17 9.12757C15.065 7.95487 12.5054 8.20057 10.8296 9.86377C8.91168 11.7673 8.85858 14.8273 10.6694 16.7947L10.8296 16.9612L13.0085 19.1248L11.6 20.5369L3.96798 12.8941C2.07528 10.7737 2.14638 7.51747 4.18128 5.48167C6.21978 3.44407 9.48048 3.37567 11.6009 5.27647C13.715 3.37837 16.982 3.44137 19.0187 5.48167Z" fill="#0A0D14" style="fill:#0A0D14;fill:color(display-p3 0.0392 0.0510 0.0784);fill-opacity:1;"/>
</svg>
