<svg width="25" height="24" viewBox="0 0 25 24" fill="none" xmlns="http://www.w3.org/2000/svg">
<path d="M16.55 3.90039C19.2842 3.90039 21.5 6.15039 21.5 9.30039C21.5 15.6004 14.75 19.2004 12.5 20.5504C10.7207 19.483 6.12528 17.0071 4.28208 12.9013L2.59998 12.9004V11.1004H3.68898C3.56658 10.528 3.49998 9.92859 3.49998 9.30039C3.49998 6.15039 5.74998 3.90039 8.44998 3.90039C10.124 3.90039 11.6 4.80039 12.5 5.70039C13.4 4.80039 14.876 3.90039 16.55 3.90039ZM16.55 5.70039C15.5816 5.70039 14.534 6.21339 13.7726 6.97299L12.5 8.24559L11.2274 6.97299C10.466 6.21339 9.41838 5.70039 8.44998 5.70039C6.70398 5.70039 5.29998 7.19079 5.29998 9.30039C5.29998 9.91689 5.38098 10.5172 5.54028 11.1004H7.49058L9.34998 8.00079L12.05 12.5008L12.8906 11.1004H17V12.9004H13.9094L12.05 16L9.34998 11.5L8.50938 12.9004H6.29718C7.00818 14.137 8.08368 15.3016 9.48048 16.4131C10.151 16.9459 10.8665 17.4436 11.6594 17.9431C11.9285 18.1132 12.1949 18.2761 12.5 18.4579C12.8051 18.2761 13.0715 18.1132 13.3406 17.944C14.1335 17.4436 14.849 16.9459 15.5186 16.4131C18.2015 14.2801 19.7 11.9491 19.7 9.30039C19.7 7.17639 18.3167 5.70039 16.55 5.70039Z" fill="#0A0D14" style="fill:#0A0D14;fill:color(display-p3 0.0392 0.0510 0.0784);fill-opacity:1;"/>
</svg>
