<svg width="25" height="24" viewBox="0 0 25 24" fill="none" xmlns="http://www.w3.org/2000/svg">
<path d="M19.0187 5.48167C20.3345 6.80107 20.8295 8.62537 20.5037 10.3237C21.0149 10.4677 21.4991 10.7404 21.9023 11.1409C23.1659 12.3955 23.1659 14.4295 21.9023 15.6832L17 20.5504L14.2802 17.8504L11.6 20.5369L3.96798 12.8941C2.07528 10.7737 2.14638 7.51747 4.18128 5.48167C6.21978 3.44407 9.48048 3.37567 11.6009 5.27647C13.715 3.37837 16.982 3.44137 19.0187 5.48167ZM13.3658 12.4189C12.8114 12.9688 12.8114 13.8562 13.3658 14.4061L17 18.0142L20.6342 14.4061C21.1886 13.8562 21.1886 12.9688 20.6342 12.4189C20.0726 11.8609 19.1564 11.8609 18.593 12.4207L16.9982 13.9993L15.7319 12.7429L15.4052 12.4189C14.8436 11.8609 13.9274 11.8609 13.3658 12.4189ZM5.45478 6.75517C4.11378 8.09617 4.04628 10.2427 5.28198 11.6611L11.6 17.989L13.0031 16.5832L12.0977 15.6832C10.8341 14.4295 10.8341 12.3955 12.0977 11.1409C13.3613 9.88717 15.4097 9.88717 16.6733 11.1409L17 11.4649L17.3267 11.1409C17.7092 10.762 18.1637 10.4974 18.6452 10.3471C19.0196 9.11677 18.7154 7.72627 17.7443 6.75337C16.3943 5.40157 14.2163 5.34667 12.8033 6.61567L11.6018 7.69387L10.3994 6.61657C8.98188 5.34577 6.80838 5.40157 5.45478 6.75517Z" fill="#0A0D14" style="fill:#0A0D14;fill:color(display-p3 0.0392 0.0510 0.0784);fill-opacity:1;"/>
</svg>
