<svg width="25" height="24" viewBox="0 0 25 24" fill="none" xmlns="http://www.w3.org/2000/svg">
<path d="M13.4001 17.4011V21.9011H11.6001V17.4011H9.80006V20.1011H8.00006V17.1743C6.8064 16.8654 5.71206 16.2552 4.82189 15.4021C3.93172 14.5489 3.27555 13.4815 2.91625 12.302C2.55695 11.1226 2.50656 9.87061 2.76991 8.66609C3.03325 7.46156 3.60151 6.34485 4.42024 5.42294C5.23896 4.50103 6.28072 3.80481 7.4457 3.401C8.61067 2.99719 9.85983 2.89931 11.0735 3.11675C12.2871 3.33419 13.4246 3.85965 14.3769 4.64279C15.3293 5.42593 16.0645 6.44051 16.5123 7.58932C17.1891 7.45982 17.8855 7.47306 18.5569 7.62821C19.2284 7.78336 19.86 8.07699 20.4114 8.49031C20.9628 8.90364 21.4219 9.42754 21.7591 10.0285C22.0964 10.6294 22.3045 11.2942 22.37 11.9802C22.4356 12.6661 22.3572 13.3583 22.1399 14.0122C21.9226 14.6662 21.5711 15.2675 21.1079 15.7778C20.6448 16.2881 20.0802 16.6961 19.4504 16.9756C18.8205 17.2551 18.1392 17.4001 17.4501 17.4011L17.0001 17.402V20.102H15.2001V17.402H13.4001V17.4011Z" fill="#0A0D14" style="fill:#0A0D14;fill:color(display-p3 0.0392 0.0510 0.0784);fill-opacity:1;"/>
</svg>
