<svg width="25" height="24" viewBox="0 0 25 24" fill="none" xmlns="http://www.w3.org/2000/svg">
<path d="M12.5 3C17.4707 3 21.5 7.0293 21.5 12C21.5 16.9707 17.4707 21 12.5 21C7.5293 21 3.5 16.9707 3.5 12H5.3C5.3 15.9762 8.5238 19.2 12.5 19.2C16.4762 19.2 19.7 15.9762 19.7 12C19.7 8.0238 16.4762 4.8 12.5 4.8C10.2824 4.8 8.2988 5.8026 6.9785 7.3785L8.9 9.3H3.5V3.9L5.7023 6.1014C7.352 4.2024 9.7856 3 12.5 3ZM13.4 7.5V11.6265L16.3187 14.5452L15.0452 15.8187L11.6 12.3717V7.5H13.4Z" fill="#0A0D14" style="fill:#0A0D14;fill:color(display-p3 0.0392 0.0510 0.0784);fill-opacity:1;"/>
</svg>
