<svg width="25" height="24" viewBox="0 0 25 24" fill="none" xmlns="http://www.w3.org/2000/svg">
<path d="M19.7 19.2C19.7 19.4387 19.6052 19.6676 19.4364 19.8364C19.2676 20.0052 19.0387 20.1 18.8 20.1H6.19998C5.96128 20.1 5.73236 20.0052 5.56358 19.8364C5.3948 19.6676 5.29998 19.4387 5.29998 19.2V11.1H2.59998L11.8943 2.65083C12.06 2.50006 12.2759 2.4165 12.5 2.4165C12.724 2.4165 12.94 2.50006 13.1057 2.65083L22.4 11.1H19.7V19.2ZM12.5 16.5L15.5231 13.4769C15.7111 13.2889 15.8603 13.0656 15.962 12.82C16.0638 12.5743 16.1162 12.311 16.1162 12.045C16.1162 11.7791 16.0638 11.5158 15.962 11.2701C15.8603 11.0244 15.7111 10.8012 15.5231 10.6131C15.335 10.4251 15.1118 10.2759 14.8661 10.1742C14.6204 10.0724 14.3571 10.02 14.0912 10.02C13.8252 10.02 13.5619 10.0724 13.3162 10.1742C13.0706 10.2759 12.8473 10.4251 12.6593 10.6131L12.5 10.7724L12.3407 10.6131C12.1526 10.4251 11.9294 10.2759 11.6837 10.1742C11.438 10.0724 11.1747 10.02 10.9088 10.02C10.6428 10.02 10.3795 10.0724 10.1338 10.1742C9.88815 10.2759 9.66492 10.4251 9.47688 10.6131C9.28884 10.8012 9.13967 11.0244 9.03791 11.2701C8.93614 11.5158 8.88376 11.7791 8.88376 12.045C8.88376 12.311 8.93614 12.5743 9.03791 12.82C9.13967 13.0656 9.28884 13.2889 9.47688 13.4769L12.5 16.5Z" fill="#0A0D14" style="fill:#0A0D14;fill:color(display-p3 0.0392 0.0510 0.0784);fill-opacity:1;"/>
</svg>
