<svg width="25" height="24" viewBox="0 0 25 24" fill="none" xmlns="http://www.w3.org/2000/svg">
<path d="M20.6 19.2001C20.6 19.4388 20.5052 19.6678 20.3364 19.8365C20.1676 20.0053 19.9387 20.1001 19.7 20.1001H5.30002C5.06133 20.1001 4.83241 20.0053 4.66363 19.8365C4.49485 19.6678 4.40002 19.4388 4.40002 19.2001V9.74115C4.39993 9.604 4.43118 9.46864 4.49139 9.34542C4.5516 9.22219 4.63917 9.11436 4.74742 9.03015L11.9474 3.43035C12.1054 3.30745 12.2999 3.24072 12.5 3.24072C12.7002 3.24072 12.8946 3.30745 13.0526 3.43035L20.2526 9.03015C20.3609 9.11436 20.4485 9.22219 20.5087 9.34542C20.5689 9.46864 20.6001 9.604 20.6 9.74115V19.2001ZM18.8 18.3001V10.1803L12.5 5.28075L6.20002 10.1803V18.3001H18.8ZM8.00003 14.7001H17V16.5001H8.00003V14.7001Z" fill="#0A0D14" style="fill:#0A0D14;fill:color(display-p3 0.0392 0.0510 0.0784);fill-opacity:1;"/>
</svg>
