<svg width="25" height="24" viewBox="0 0 25 24" fill="none" xmlns="http://www.w3.org/2000/svg">
<path d="M18.8 20.1H6.19998C5.96128 20.1 5.73236 20.0052 5.56358 19.8364C5.3948 19.6676 5.29998 19.4387 5.29998 19.2V11.1H2.59998L11.8943 2.65083C12.06 2.50006 12.2759 2.4165 12.5 2.4165C12.724 2.4165 12.94 2.50006 13.1057 2.65083L22.4 11.1H19.7V19.2C19.7 19.4387 19.6052 19.6676 19.4364 19.8364C19.2676 20.0052 19.0387 20.1 18.8 20.1ZM7.09998 18.3H17.9V9.44133L12.5 4.53273L7.09998 9.44133V18.3ZM9.79998 10.2H15.2V15.6H9.79998V10.2ZM11.6 12V13.8H13.4V12H11.6Z" fill="#0A0D14" style="fill:#0A0D14;fill:color(display-p3 0.0392 0.0510 0.0784);fill-opacity:1;"/>
</svg>
