<svg width="25" height="24" viewBox="0 0 25 24" fill="none" xmlns="http://www.w3.org/2000/svg">
<path d="M7.10001 18.3H17.9V9.44133L12.5 4.53273L7.10001 9.44133V18.3ZM18.8 20.1H6.20001C5.96131 20.1 5.73239 20.0052 5.56361 19.8364C5.39483 19.6676 5.30001 19.4387 5.30001 19.2V11.1H2.60001L11.8943 2.65083C12.06 2.50006 12.276 2.4165 12.5 2.4165C12.724 2.4165 12.94 2.50006 13.1057 2.65083L22.4 11.1H19.7V19.2C19.7 19.4387 19.6052 19.6676 19.4364 19.8364C19.2676 20.0052 19.0387 20.1 18.8 20.1ZM8.90001 10.2C10.5709 10.2 12.1733 10.8638 13.3548 12.0453C14.5363 13.2267 15.2 14.8292 15.2 16.5H13.4C13.4 15.3066 12.9259 14.162 12.082 13.318C11.2381 12.4741 10.0935 12 8.90001 12V10.2ZM8.90001 13.8C9.61609 13.8 10.3028 14.0845 10.8092 14.5908C11.3155 15.0972 11.6 15.7839 11.6 16.5H8.90001V13.8Z" fill="#0A0D14" style="fill:#0A0D14;fill:color(display-p3 0.0392 0.0510 0.0784);fill-opacity:1;"/>
</svg>
