<svg width="25" height="24" viewBox="0 0 25 24" fill="none" xmlns="http://www.w3.org/2000/svg">
<path d="M18.8 20.1H6.20001C5.96131 20.1 5.73239 20.0052 5.56361 19.8364C5.39483 19.6676 5.30001 19.4387 5.30001 19.2V11.1H2.60001L11.8943 2.65083C12.06 2.50006 12.276 2.4165 12.5 2.4165C12.724 2.4165 12.94 2.50006 13.1057 2.65083L22.4 11.1H19.7V19.2C19.7 19.4387 19.6052 19.6676 19.4364 19.8364C19.2676 20.0052 19.0387 20.1 18.8 20.1ZM7.10001 18.3H17.9V9.44133L12.5 4.53273L7.10001 9.44133V18.3ZM9.43191 13.6281C9.31787 13.1482 9.31787 12.6482 9.43191 12.1683L8.54001 11.6535L9.44001 10.0947L10.3319 10.6104C10.69 10.2711 11.1228 10.0208 11.5955 9.87963V8.85003H13.3955V9.87963C13.8743 10.0227 14.3045 10.2756 14.6591 10.6104L15.551 10.0947L16.451 11.6526L15.5591 12.1683C15.6731 12.6482 15.6731 13.1482 15.5591 13.6281L16.451 14.1429L15.551 15.7008L14.6591 15.186C14.3009 15.525 13.8681 15.775 13.3955 15.9159V16.9464H11.5955V15.915C11.1229 15.7741 10.6901 15.5241 10.3319 15.1851L9.44001 15.6999L8.54001 14.1429L9.43191 13.6272V13.6281ZM12.4955 14.2473C12.6768 14.2539 12.8576 14.224 13.0271 14.1591C13.1965 14.0943 13.3512 13.996 13.4818 13.8701C13.6124 13.7442 13.7163 13.5932 13.7873 13.4262C13.8582 13.2592 13.8948 13.0797 13.8948 12.8982C13.8948 12.7168 13.8582 12.5372 13.7873 12.3702C13.7163 12.2033 13.6124 12.0523 13.4818 11.9264C13.3512 11.8004 13.1965 11.7021 13.0271 11.6373C12.8576 11.5725 12.6768 11.5425 12.4955 11.5491C12.1462 11.5619 11.8155 11.7096 11.5729 11.9612C11.3303 12.2128 11.1948 12.5487 11.1948 12.8982C11.1948 13.2477 11.3303 13.5836 11.5729 13.8352C11.8155 14.0868 12.1462 14.2346 12.4955 14.2473Z" fill="#0A0D14" style="fill:#0A0D14;fill:color(display-p3 0.0392 0.0510 0.0784);fill-opacity:1;"/>
</svg>
