<svg width="25" height="24" viewBox="0 0 25 24" fill="none" xmlns="http://www.w3.org/2000/svg">
<path d="M18.8 18.3001V10.0192L12.5 5.0494L6.20002 10.0192V18.3001H18.8ZM20.6 19.2001C20.6 19.4388 20.5052 19.6677 20.3364 19.8365C20.1676 20.0053 19.9387 20.1001 19.7 20.1001H5.30002C5.06133 20.1001 4.83241 20.0053 4.66363 19.8365C4.49485 19.6677 4.40002 19.4388 4.40002 19.2001V9.5827C4.39997 9.44675 4.43071 9.31256 4.48995 9.1902C4.54918 9.06784 4.63536 8.96049 4.74202 8.8762L11.942 3.1963C12.1009 3.07074 12.2975 3.00244 12.5 3.00244C12.7025 3.00244 12.8991 3.07074 13.058 3.1963L20.258 8.8753C20.3648 8.95968 20.4511 9.06718 20.5103 9.18971C20.5695 9.31224 20.6002 9.4466 20.6 9.5827V19.2001ZM8.00002 12.0001H9.80002C9.80002 12.7162 10.0845 13.4029 10.5908 13.9093C11.0972 14.4156 11.7839 14.7001 12.5 14.7001C13.2161 14.7001 13.9029 14.4156 14.4092 13.9093C14.9156 13.4029 15.2 12.7162 15.2 12.0001H17C17 13.1936 16.5259 14.3382 15.682 15.1821C14.8381 16.026 13.6935 16.5001 12.5 16.5001C11.3066 16.5001 10.162 16.026 9.31804 15.1821C8.47413 14.3382 8.00002 13.1936 8.00002 12.0001Z" fill="#0A0D14" style="fill:#0A0D14;fill:color(display-p3 0.0392 0.0510 0.0784);fill-opacity:1;"/>
</svg>
