<svg width="25" height="24" viewBox="0 0 25 24" fill="none" xmlns="http://www.w3.org/2000/svg">
<path d="M19.7 19.2C19.7 19.4387 19.6052 19.6676 19.4364 19.8364C19.2676 20.0052 19.0387 20.1 18.8 20.1H6.20001C5.96131 20.1 5.73239 20.0052 5.56361 19.8364C5.39483 19.6676 5.30001 19.4387 5.30001 19.2V11.1H2.60001L11.8943 2.65083C12.06 2.50006 12.276 2.4165 12.5 2.4165C12.724 2.4165 12.94 2.50006 13.1057 2.65083L22.4 11.1H19.7V19.2ZM8.00001 11.1V12.9C8.59095 12.9 9.17612 13.0164 9.72208 13.2426C10.268 13.4687 10.7641 13.8002 11.182 14.218C11.5998 14.6359 11.9313 15.132 12.1575 15.6779C12.3836 16.2239 12.5 16.8091 12.5 17.4H14.3C14.3 15.7292 13.6363 14.1267 12.4548 12.9453C11.2733 11.7638 9.67087 11.1 8.00001 11.1ZM8.00001 14.7V17.4H10.7C10.7 16.6839 10.4155 15.9972 9.90919 15.4908C9.40285 14.9845 8.71609 14.7 8.00001 14.7Z" fill="#0A0D14" style="fill:#0A0D14;fill:color(display-p3 0.0392 0.0510 0.0784);fill-opacity:1;"/>
</svg>
