<svg width="25" height="24" viewBox="0 0 25 24" fill="none" xmlns="http://www.w3.org/2000/svg">
<path d="M18.8 19.2C18.8 19.4387 18.7051 19.6676 18.5363 19.8364C18.3676 20.0052 18.1386 20.1 17.9 20.1H5.29995C5.06126 20.1 4.83234 20.0052 4.66355 19.8364C4.49477 19.6676 4.39995 19.4387 4.39995 19.2V11.1H1.69995L10.9943 2.65083C11.16 2.50006 11.3759 2.4165 11.6 2.4165C11.824 2.4165 12.04 2.50006 12.2057 2.65083L21.5 11.1H18.8V19.2ZM11.6 14.7C12.1967 14.7 12.769 14.463 13.1909 14.041C13.6129 13.6191 13.85 13.0468 13.85 12.45C13.85 11.8533 13.6129 11.281 13.1909 10.859C12.769 10.4371 12.1967 10.2 11.6 10.2C11.0032 10.2 10.4309 10.4371 10.009 10.859C9.587 11.281 9.34995 11.8533 9.34995 12.45C9.34995 13.0468 9.587 13.6191 10.009 14.041C10.4309 14.463 11.0032 14.7 11.6 14.7Z" fill="#0A0D14" style="fill:#0A0D14;fill:color(display-p3 0.0392 0.0510 0.0784);fill-opacity:1;"/>
</svg>
