<svg width="25" height="24" viewBox="0 0 25 24" fill="none" xmlns="http://www.w3.org/2000/svg">
<path d="M19.7 19.2C19.7 19.4387 19.6052 19.6676 19.4364 19.8364C19.2676 20.0052 19.0387 20.1 18.8 20.1H6.20001C5.96131 20.1 5.73239 20.0052 5.56361 19.8364C5.39483 19.6676 5.30001 19.4387 5.30001 19.2V11.1H2.60001L11.8943 2.65083C12.06 2.50006 12.276 2.4165 12.5 2.4165C12.724 2.4165 12.94 2.50006 13.1057 2.65083L22.4 11.1H19.7V19.2ZM9.43281 13.6272L8.54091 14.142L9.44091 15.7017L10.3346 15.186C10.6931 15.525 11.1263 15.775 11.5991 15.9159V16.9464H13.4009V15.915C13.8737 15.7744 14.3068 15.5247 14.6654 15.186L15.5582 15.7008L16.46 14.142L15.5681 13.6272C15.682 13.1479 15.682 12.6486 15.5681 12.1692L16.46 11.6535L15.56 10.0938L14.6663 10.6095C14.3072 10.2706 13.8734 10.0209 13.4 9.88053V8.85003H11.5982V9.87963C11.1254 10.0205 10.6922 10.2706 10.3337 10.6095L9.44091 10.0938L8.54001 11.6544L9.43191 12.1692C9.31802 12.6486 9.31802 13.1479 9.43191 13.6272H9.43281ZM12.5 14.2482C12.3227 14.2483 12.147 14.2135 11.9831 14.1458C11.8193 14.078 11.6703 13.9786 11.5448 13.8533C11.4193 13.728 11.3198 13.5792 11.2518 13.4154C11.1838 13.2516 11.1488 13.076 11.1487 12.8987C11.1485 12.7213 11.1834 12.5457 11.2511 12.3818C11.3189 12.2179 11.4182 12.069 11.5436 11.9435C11.6689 11.818 11.8177 11.7184 11.9815 11.6505C12.1453 11.5825 12.3209 11.5474 12.4982 11.5473C12.8562 11.5471 13.1997 11.6891 13.4531 11.9421C13.7064 12.1951 13.8489 12.5384 13.8491 12.8964C13.8493 13.2545 13.7073 13.5979 13.4543 13.8513C13.2013 14.1046 12.858 14.2471 12.5 14.2473V14.2482Z" fill="#0A0D14" style="fill:#0A0D14;fill:color(display-p3 0.0392 0.0510 0.0784);fill-opacity:1;"/>
</svg>
