<svg width="25" height="24" viewBox="0 0 25 24" fill="none" xmlns="http://www.w3.org/2000/svg">
<path d="M7.09998 18.3H17.9V9.44133L12.5 4.53273L7.09998 9.44133V18.3ZM18.8 20.1H6.19998C5.96128 20.1 5.73236 20.0052 5.56358 19.8364C5.3948 19.6676 5.29998 19.4387 5.29998 19.2V11.1H2.59998L11.8943 2.65083C12.06 2.50006 12.2759 2.4165 12.5 2.4165C12.724 2.4165 12.94 2.50006 13.1057 2.65083L22.4 11.1H19.7V19.2C19.7 19.4387 19.6052 19.6676 19.4364 19.8364C19.2676 20.0052 19.0387 20.1 18.8 20.1ZM8.44998 12.9H10.25C10.25 13.4968 10.487 14.0691 10.909 14.491C11.3309 14.913 11.9032 15.15 12.5 15.15C13.0967 15.15 13.669 14.913 14.091 14.491C14.5129 14.0691 14.75 13.4968 14.75 12.9H16.55C16.55 13.9742 16.1233 15.0043 15.3638 15.7638C14.6042 16.5233 13.5741 16.95 12.5 16.95C11.4258 16.95 10.3957 16.5233 9.63619 15.7638C8.87667 15.0043 8.44998 13.9742 8.44998 12.9Z" fill="#0A0D14" style="fill:#0A0D14;fill:color(display-p3 0.0392 0.0510 0.0784);fill-opacity:1;"/>
</svg>
