<svg width="25" height="24" viewBox="0 0 25 24" fill="none" xmlns="http://www.w3.org/2000/svg">
<path d="M20.7422 5.03183C20.7728 8.18183 21.2741 9.36173 21.4514 11.0627C21.7223 13.6673 20.8601 16.3673 18.8639 18.3635C15.5645 21.6629 10.34 21.8645 6.80387 18.9692L9.37067 16.4015C11.4803 17.9045 14.426 17.7101 16.3187 15.8183C18.2105 13.9256 18.4049 10.979 16.9019 8.87033L20.7422 5.03183ZM18.1952 5.03003L15.6293 7.59773C13.5197 6.09473 10.574 6.28913 8.68127 8.18093C6.78947 10.0736 6.59507 13.0193 8.09807 15.1289L4.25777 18.9674C4.22717 15.8174 3.72587 14.6375 3.54857 12.9365C3.27767 10.3319 4.13987 7.63193 6.13607 5.63573C9.43547 2.33633 14.66 2.13473 18.1961 5.03003H18.1952ZM12.5 8.39963C14.489 8.39963 16.1 10.0106 16.1 11.9996C16.1 13.9886 14.489 15.5996 12.5 15.5996C10.511 15.5996 8.89997 13.9886 8.89997 11.9996C8.89997 10.0106 10.511 8.39963 12.5 8.39963ZM12.5 10.6496C11.7548 10.6496 11.15 11.2544 11.15 11.9996C11.15 12.7448 11.7548 13.3496 12.5 13.3496C13.2452 13.3496 13.85 12.7448 13.85 11.9996C13.85 11.2544 13.2452 10.6496 12.5 10.6496Z" fill="#0A0D14" style="fill:#0A0D14;fill:color(display-p3 0.0392 0.0510 0.0784);fill-opacity:1;"/>
</svg>
