<svg width="25" height="24" viewBox="0 0 25 24" fill="none" xmlns="http://www.w3.org/2000/svg">
<path d="M18.1952 5.03003L16.9145 6.31073C14.0903 4.11293 10.0052 4.31273 7.40867 6.90833C5.27207 9.04493 4.75907 12.1895 5.86967 14.8103L8.04497 12.635C7.85327 11.2823 8.27717 9.85853 9.31757 8.81723C10.8566 7.27823 13.2344 7.08743 14.9813 8.24483L13.6637 9.56243C12.6602 9.08363 11.4227 9.25913 10.5911 10.0907C9.75947 10.9214 9.58307 12.1598 10.0628 13.1633L4.25777 18.9683C4.22717 15.8183 3.72587 14.6375 3.54857 12.9365C3.27767 10.3319 4.13987 7.63193 6.13607 5.63573C9.43547 2.33633 14.66 2.13473 18.1961 5.03003H18.1952ZM20.7422 5.03183C20.7728 8.18183 21.2741 9.36173 21.4514 11.0627C21.7223 13.6673 20.8601 16.3673 18.8639 18.3635C15.5645 21.6629 10.34 21.8645 6.80387 18.9692L8.08547 17.6885C10.9097 19.8863 14.9948 19.6865 17.5913 17.0909C19.7279 14.9543 20.2409 11.8097 19.1303 9.18893L16.955 11.3642C17.1467 12.7169 16.7228 14.1407 15.6824 15.182C14.1434 16.721 11.7656 16.9118 10.0187 15.7544L11.3363 14.4368C12.3398 14.9156 13.5773 14.7401 14.4089 13.9085C15.2405 13.0778 15.4169 11.8394 14.9372 10.8359L20.7422 5.03093V5.03183Z" fill="#0A0D14" style="fill:#0A0D14;fill:color(display-p3 0.0392 0.0510 0.0784);fill-opacity:1;"/>
</svg>
