<svg width="25" height="24" viewBox="0 0 25 24" fill="none" xmlns="http://www.w3.org/2000/svg">
<path d="M20.6 4.8V18.0489C20.6001 18.1362 20.5748 18.2217 20.5272 18.2949C20.4795 18.3681 20.4117 18.4258 20.3318 18.4611L12.5 21.927L4.66818 18.462C4.58802 18.4266 4.51994 18.3686 4.47229 18.295C4.42465 18.2215 4.39952 18.1356 4.39998 18.048V4.8H2.59998V3H22.4V4.8H20.6ZM6.19998 4.8V17.1705L12.5 19.9605L18.8 17.1705V4.8H6.19998ZM8.89998 8.4H16.1V10.2H8.89998V8.4ZM8.89998 12H16.1V13.8H8.89998V12Z" fill="#0A0D14" style="fill:#0A0D14;fill:color(display-p3 0.0392 0.0510 0.0784);fill-opacity:1;"/>
</svg>
