<svg width="25" height="24" viewBox="0 0 25 24" fill="none" xmlns="http://www.w3.org/2000/svg">
<path d="M20.6 19.2H22.4V21H2.59998V19.2H4.39998V3.9C4.39998 3.66131 4.4948 3.43239 4.66358 3.2636C4.83236 3.09482 5.06128 3 5.29998 3H19.7C19.9387 3 20.1676 3.09482 20.3364 3.2636C20.5052 3.43239 20.6 3.66131 20.6 3.9V19.2ZM11.6 8.4H9.79998V10.2H11.6V12H13.4V10.2H15.2V8.4H13.4V6.6H11.6V8.4ZM14.3 19.2H16.1V13.8H8.89998V19.2H10.7V15.6H14.3V19.2Z" fill="#0A0D14" style="fill:#0A0D14;fill:color(display-p3 0.0392 0.0510 0.0784);fill-opacity:1;"/>
</svg>
