<svg width="25" height="24" viewBox="0 0 25 24" fill="none" xmlns="http://www.w3.org/2000/svg">
<path d="M8.89998 19.2V13.8H16.1V19.2H18.8V4.8H6.19998V19.2H8.89998ZM10.7 19.2H14.3V15.6H10.7V19.2ZM20.6 19.2H22.4V21H2.59998V19.2H4.39998V3.9C4.39998 3.66131 4.4948 3.43239 4.66358 3.2636C4.83236 3.09482 5.06128 3 5.29998 3H19.7C19.9387 3 20.1676 3.09482 20.3364 3.2636C20.5052 3.43239 20.6 3.66131 20.6 3.9V19.2ZM11.6 8.4V6.6H13.4V8.4H15.2V10.2H13.4V12H11.6V10.2H9.79998V8.4H11.6Z" fill="#0A0D14" style="fill:#0A0D14;fill:color(display-p3 0.0392 0.0510 0.0784);fill-opacity:1;"/>
</svg>
