<svg width="25" height="24" viewBox="0 0 25 24" fill="none" xmlns="http://www.w3.org/2000/svg">
<path d="M21.5 11.1008V19.2008H19.7V16.5008H5.3V19.2008H3.5V4.80078H5.3V13.8008H12.5V7.50078H17.9C18.8548 7.50078 19.7705 7.88007 20.4456 8.5552C21.1207 9.23033 21.5 10.146 21.5 11.1008ZM8.9 12.9008C8.18392 12.9008 7.49716 12.6163 6.99081 12.11C6.48446 11.6036 6.2 10.9169 6.2 10.2008C6.2 9.4847 6.48446 8.79794 6.99081 8.29159C7.49716 7.78524 8.18392 7.50078 8.9 7.50078C9.61608 7.50078 10.3028 7.78524 10.8092 8.29159C11.3155 8.79794 11.6 9.4847 11.6 10.2008C11.6 10.9169 11.3155 11.6036 10.8092 12.11C10.3028 12.6163 9.61608 12.9008 8.9 12.9008Z" fill="#0A0D14" style="fill:#0A0D14;fill:color(display-p3 0.0392 0.0510 0.0784);fill-opacity:1;"/>
</svg>
