<svg width="25" height="24" viewBox="0 0 25 24" fill="none" xmlns="http://www.w3.org/2000/svg">
<path d="M17 18.2999H18.8V11.0999H13.4V18.2999H15.2V12.8999H17V18.2999ZM4.4 18.2999V4.7999C4.4 4.56121 4.49482 4.33229 4.6636 4.16351C4.83239 3.99472 5.06131 3.8999 5.3 3.8999H17.9C18.1387 3.8999 18.3676 3.99472 18.5364 4.16351C18.7052 4.33229 18.8 4.56121 18.8 4.7999V9.2999H20.6V18.2999H21.5V20.0999H3.5V18.2999H4.4ZM8 11.0999V12.8999H9.8V11.0999H8ZM8 14.6999V16.4999H9.8V14.6999H8ZM8 7.4999V9.2999H9.8V7.4999H8Z" fill="#0A0D14" style="fill:#0A0D14;fill:color(display-p3 0.0392 0.0510 0.0784);fill-opacity:1;"/>
</svg>
