<svg width="25" height="24" viewBox="0 0 25 24" fill="none" xmlns="http://www.w3.org/2000/svg">
<path d="M21.5 11.1008V19.2008H19.7V16.5008H5.3V19.2008H3.5V4.80078H5.3V13.8008H12.5V7.50078H17.9C18.8548 7.50078 19.7705 7.88007 20.4456 8.5552C21.1207 9.23033 21.5 10.146 21.5 11.1008ZM19.7 13.8008V11.1008C19.7 10.6234 19.5104 10.1656 19.1728 9.82799C18.8352 9.49042 18.3774 9.30078 17.9 9.30078H14.3V13.8008H19.7ZM8.9 11.1008C9.13869 11.1008 9.36761 11.006 9.5364 10.8372C9.70518 10.6684 9.8 10.4395 9.8 10.2008C9.8 9.96209 9.70518 9.73317 9.5364 9.56439C9.36761 9.3956 9.13869 9.30078 8.9 9.30078C8.6613 9.30078 8.43239 9.3956 8.2636 9.56439C8.09482 9.73317 8 9.96209 8 10.2008C8 10.4395 8.09482 10.6684 8.2636 10.8372C8.43239 11.006 8.6613 11.1008 8.9 11.1008ZM8.9 12.9008C8.18392 12.9008 7.49716 12.6163 6.99081 12.11C6.48446 11.6036 6.2 10.9169 6.2 10.2008C6.2 9.4847 6.48446 8.79794 6.99081 8.29159C7.49716 7.78524 8.18392 7.50078 8.9 7.50078C9.61608 7.50078 10.3028 7.78524 10.8092 8.29159C11.3155 8.79794 11.6 9.4847 11.6 10.2008C11.6 10.9169 11.3155 11.6036 10.8092 12.11C10.3028 12.6163 9.61608 12.9008 8.9 12.9008Z" fill="#0A0D14" style="fill:#0A0D14;fill:color(display-p3 0.0392 0.0510 0.0784);fill-opacity:1;"/>
</svg>
