<svg width="25" height="24" viewBox="0 0 25 24" fill="none" xmlns="http://www.w3.org/2000/svg">
<path d="M11.6 2.99961V11.0996H17.9V20.0996C17.9 20.3383 17.8052 20.5672 17.6364 20.736C17.4676 20.9048 17.2387 20.9996 17 20.9996H6.19999C5.96129 20.9996 5.73237 20.9048 5.56359 20.736C5.39481 20.5672 5.29999 20.3383 5.29999 20.0996V3.89961C5.29999 3.66091 5.39481 3.432 5.56359 3.26321C5.73237 3.09443 5.96129 2.99961 6.19999 2.99961H11.6ZM13.4 7.49961C13.8774 7.49961 14.3352 7.68925 14.6728 8.02682C15.0103 8.36438 15.2 8.82222 15.2 9.29961H13.4V7.49961ZM13.4 4.79961C14.5935 4.79961 15.7381 5.27372 16.582 6.11763C17.4259 6.96154 17.9 8.10613 17.9 9.29961H16.1C16.1 8.58352 15.8155 7.89677 15.3092 7.39042C14.8028 6.88407 14.1161 6.59961 13.4 6.59961V4.79961ZM13.4 2.09961C15.3095 2.09961 17.1409 2.85818 18.4912 4.20844C19.8414 5.5587 20.6 7.39005 20.6 9.29961H18.8C18.8 7.86744 18.2311 6.49393 17.2184 5.48123C16.2057 4.46854 14.8322 3.89961 13.4 3.89961V2.09961Z" fill="#0A0D14" style="fill:#0A0D14;fill:color(display-p3 0.0392 0.0510 0.0784);fill-opacity:1;"/>
</svg>
