<svg width="25" height="24" viewBox="0 0 25 24" fill="none" xmlns="http://www.w3.org/2000/svg">
<path d="M11.6 2.99961V4.79961H8.00001V19.1996H17V11.0996H18.8V20.0996C18.8 20.3383 18.7052 20.5672 18.5364 20.736C18.3676 20.9048 18.1387 20.9996 17.9 20.9996H7.10001C6.86132 20.9996 6.6324 20.9048 6.46362 20.736C6.29483 20.5672 6.20001 20.3383 6.20001 20.0996V3.89961C6.20001 3.66091 6.29483 3.432 6.46362 3.26321C6.6324 3.09443 6.86132 2.99961 7.10001 2.99961H11.6ZM13.4 7.49961C13.8774 7.49961 14.3352 7.68925 14.6728 8.02682C15.0104 8.36438 15.2 8.82222 15.2 9.29961H13.4V7.49961ZM13.4 4.79961C14.5935 4.79961 15.7381 5.27372 16.582 6.11763C17.4259 6.96154 17.9 8.10613 17.9 9.29961H16.1C16.1 8.58352 15.8155 7.89677 15.3092 7.39042C14.8029 6.88407 14.1161 6.59961 13.4 6.59961V4.79961ZM13.4 2.09961C15.3096 2.09961 17.1409 2.85818 18.4912 4.20844C19.8414 5.5587 20.6 7.39005 20.6 9.29961H18.8C18.8 7.86744 18.2311 6.49393 17.2184 5.48123C16.2057 4.46854 14.8322 3.89961 13.4 3.89961V2.09961Z" fill="#0A0D14" style="fill:#0A0D14;fill:color(display-p3 0.0392 0.0510 0.0784);fill-opacity:1;"/>
</svg>
