<svg width="25" height="24" viewBox="0 0 25 24" fill="none" xmlns="http://www.w3.org/2000/svg">
<path d="M8 6H6.5V4.5H18.5V6H17V7.5C17 8.71157 16.3878 9.68601 15.6171 10.4825C15.0899 11.0273 14.4485 11.529 13.7982 12C14.4485 12.471 15.0899 12.9727 15.6171 13.5175C16.3878 14.314 17 15.2885 17 16.5V18H18.5V19.5H6.5V18H8V16.5C8 15.2885 8.61212 14.314 9.38293 13.5175C9.91012 12.9727 10.5515 12.471 11.2018 12C10.5515 11.529 9.91012 11.0273 9.38293 10.4825C8.61212 9.68601 8 8.71157 8 7.5V6ZM9.5 6V7.5C9.5 8.01385 9.69519 8.50124 10.0785 9H14.9215C15.3048 8.50124 15.5 8.01385 15.5 7.5V6H9.5ZM12.5 12.9164C11.7161 13.4701 11.006 13.9972 10.4608 14.5606C10.3176 14.7087 10.1901 14.8548 10.0785 15H14.9215C14.8099 14.8548 14.6824 14.7087 14.5392 14.5606C13.994 13.9972 13.2839 13.4701 12.5 12.9164Z" fill="#0A0D14" style="fill:#0A0D14;fill:color(display-p3 0.0392 0.0510 0.0784);fill-opacity:1;"/>
</svg>
