<svg width="25" height="24" viewBox="0 0 25 24" fill="none" xmlns="http://www.w3.org/2000/svg">
<path d="M4.4 3.89844H20.6C20.8387 3.89844 21.0676 3.99326 21.2364 4.16204C21.4052 4.33082 21.5 4.55974 21.5 4.79844V19.1984C21.5 19.4371 21.4052 19.6661 21.2364 19.8348C21.0676 20.0036 20.8387 20.0984 20.6 20.0984H4.4C4.16131 20.0984 3.93239 20.0036 3.7636 19.8348C3.59482 19.6661 3.5 19.4371 3.5 19.1984V4.79844C3.5 4.55974 3.59482 4.33082 3.7636 4.16204C3.93239 3.99326 4.16131 3.89844 4.4 3.89844ZM8.45 11.3234V9.29844H7.1V14.6984H8.45V12.6734H10.25V14.6984H11.6V9.29844H10.25V11.3234H8.45ZM16.325 14.6984H17C17.2387 14.6984 17.4676 14.6036 17.6364 14.4348C17.8052 14.2661 17.9 14.0371 17.9 13.7984V10.1984C17.9 9.95974 17.8052 9.73082 17.6364 9.56204C17.4676 9.39326 17.2387 9.29844 17 9.29844H14.3C14.0613 9.29844 13.8324 9.39326 13.6636 9.56204C13.4948 9.73082 13.4 9.95974 13.4 10.1984V13.7984C13.4 14.0371 13.4948 14.2661 13.6636 14.4348C13.8324 14.6036 14.0613 14.6984 14.3 14.6984H14.975V16.0484H16.325V14.6984ZM14.75 10.6484H16.55V13.3484H14.75V10.6484Z" fill="#0A0D14" style="fill:#0A0D14;fill:color(display-p3 0.0392 0.0510 0.0784);fill-opacity:1;"/>
</svg>
