<svg width="25" height="24" viewBox="0 0 25 24" fill="none" xmlns="http://www.w3.org/2000/svg">
<path d="M5.3 5.69844V18.2984H19.7V5.69844H5.3ZM4.4 3.89844H20.6C20.8387 3.89844 21.0676 3.99326 21.2364 4.16204C21.4052 4.33082 21.5 4.55974 21.5 4.79844V19.1984C21.5 19.4371 21.4052 19.6661 21.2364 19.8348C21.0676 20.0036 20.8387 20.0984 20.6 20.0984H4.4C4.16131 20.0984 3.93239 20.0036 3.7636 19.8348C3.59482 19.6661 3.5 19.4371 3.5 19.1984V4.79844C3.5 4.55974 3.59482 4.33082 3.7636 4.16204C3.93239 3.99326 4.16131 3.89844 4.4 3.89844ZM8.45 11.3234H10.25V9.29844H11.6V14.6984H10.25V12.6734H8.45V14.6984H7.1V9.29844H8.45V11.3234ZM16.325 14.6984V16.0484H14.975V14.6984H14.3C14.0613 14.6984 13.8324 14.6036 13.6636 14.4348C13.4948 14.2661 13.4 14.0371 13.4 13.7984V10.1984C13.4 9.95974 13.4948 9.73082 13.6636 9.56204C13.8324 9.39326 14.0613 9.29844 14.3 9.29844H17C17.2387 9.29844 17.4676 9.39326 17.6364 9.56204C17.8052 9.73082 17.9 9.95974 17.9 10.1984V13.7984C17.9 14.0371 17.8052 14.2661 17.6364 14.4348C17.4676 14.6036 17.2387 14.6984 17 14.6984H16.325ZM14.75 10.6484V13.3484H16.55V10.6484H14.75Z" fill="#0A0D14" style="fill:#0A0D14;fill:color(display-p3 0.0392 0.0510 0.0784);fill-opacity:1;"/>
</svg>
