<svg width="25" height="24" viewBox="0 0 25 24" fill="none" xmlns="http://www.w3.org/2000/svg">
<path d="M9.4508 19.3079C6.9812 20.6489 4.8491 20.927 3.671 19.7489C2.4614 18.5429 3.1058 15.383 4.8527 12.2132C5.74015 10.6008 6.83685 9.11283 8.1143 7.7879C8.2826 7.6196 9.1268 6.7763 9.1826 6.7763C9.1826 6.7763 8.7326 7.058 8.6768 7.058C6.9218 8.0435 5.3801 9.83 5.0435 10.2305C5.46925 8.33082 6.56467 6.64791 8.12937 5.48959C9.69408 4.33126 11.6235 3.77495 13.5647 3.9224C16.3502 2.6606 18.9413 2.369 20.0375 3.4634C21.05 4.4741 20.9933 6.1589 20.15 8.1812C20.141 8.2001 20.1338 8.2199 20.1257 8.2388C20.7348 9.39879 21.052 10.6897 21.05 11.9999C21.05 12.3419 21.0293 12.6776 20.9879 13.0079H20.2643C20.2217 13.0095 20.1791 13.0104 20.1365 13.0106H9.5201V13.1789C9.5759 14.9762 11.1509 16.5485 13.0634 16.5485C14.4134 16.5485 15.7067 15.8186 16.2692 14.7512H20.5712C20.1867 15.8162 19.5832 16.7889 18.7997 17.6064C18.0162 18.4239 17.07 19.068 16.0222 19.4974C14.9744 19.9267 13.8483 20.1317 12.7164 20.099C11.5846 20.0664 10.4721 19.7969 9.4508 19.3079ZM8.9045 19.019C7.24761 18.0616 5.98168 16.5503 5.3297 14.7512C4.2848 16.805 4.0157 18.5222 4.9076 19.4132C5.6393 20.144 7.1018 19.9748 8.9018 19.0208L8.9045 19.019ZM19.8548 7.7627C19.8593 7.75249 19.8638 7.74229 19.8683 7.7321C20.5433 6.2723 20.6 5.0375 19.9808 4.3067C19.1987 3.5255 17.6948 3.6317 15.911 4.4579C17.5488 5.1034 18.9327 6.26312 19.8548 7.7627ZM16.6067 10.8767V10.8218C16.4942 8.9678 15.0317 7.5638 13.2317 7.5638C11.3192 7.5638 9.6893 9.0803 9.5768 10.8218V10.8776H16.6067V10.8767Z" fill="#0A0D14" style="fill:#0A0D14;fill:color(display-p3 0.0392 0.0510 0.0784);fill-opacity:1;"/>
</svg>
