<svg width="25" height="24" viewBox="0 0 25 24" fill="none" xmlns="http://www.w3.org/2000/svg">
<path d="M18.0431 10.2009C17.671 9.1473 16.9814 8.23497 16.0691 7.58965C15.1569 6.94434 14.067 6.59781 12.9495 6.59781C11.8321 6.59781 10.7422 6.94434 9.82998 7.58965C8.91774 8.23497 8.22807 9.1473 7.856 10.2009H18.044H18.0431ZM7.6247 12.9009C7.80978 13.9915 8.3252 14.999 9.10131 15.7871C9.87741 16.5753 10.8768 17.1062 11.9643 17.3082C13.0519 17.5101 14.1753 17.3732 15.1825 16.9161C16.1898 16.459 17.0325 15.7037 17.5967 14.7522H20.5703C20.1858 15.8172 19.5823 16.7897 18.7989 17.6071C18.0154 18.4245 17.0693 19.0687 16.0217 19.498C14.974 19.9273 13.848 20.1323 12.7162 20.0997C11.5844 20.0672 10.4721 19.7978 9.4508 19.309C6.9812 20.6509 4.8491 20.9289 3.671 19.7508C2.4614 18.5448 3.1058 15.3849 4.8527 12.2151C5.49728 11.0475 6.2503 9.94317 7.1018 8.91665C7.4249 8.52695 7.7633 8.14985 8.1143 7.78985C7.8668 7.83935 6.4223 8.55575 5.0435 10.2324C5.46925 8.33278 6.56467 6.64987 8.12937 5.49154C9.69408 4.33321 11.6235 3.7769 13.5647 3.92435C16.3502 2.66255 18.9413 2.37095 20.0375 3.46535C21.05 4.47605 20.9933 6.16085 20.15 8.18315C20.141 8.20205 20.1338 8.22185 20.1257 8.24075C20.7346 9.40048 21.0519 10.6911 21.05 12.0009C21.05 12.3051 21.0329 12.6057 21.0005 12.9009H7.6247ZM8.9045 19.02C7.24761 18.0627 5.98168 16.5513 5.3297 14.7522C4.2848 16.806 4.0157 18.5232 4.9076 19.4142C5.6393 20.145 7.1018 19.9758 8.9018 19.0218L8.9045 19.02ZM19.8548 7.76375C19.8593 7.75354 19.8638 7.74334 19.8683 7.73315C20.5433 6.27335 20.6 5.03855 19.9808 4.30775C19.1987 3.52655 17.6948 3.63275 15.911 4.45895C17.5488 5.10445 18.9327 6.26417 19.8548 7.76375Z" fill="#0A0D14" style="fill:#0A0D14;fill:color(display-p3 0.0392 0.0510 0.0784);fill-opacity:1;"/>
</svg>
