<svg width="25" height="24" viewBox="0 0 25 24" fill="none" xmlns="http://www.w3.org/2000/svg">
<path d="M20.6 14.6984V17.3984H23.3V19.1984H20.6V21.8984H18.8V19.1984H16.1V17.3984H18.8V14.6984H20.6ZM20.6072 3.89844C21.1004 3.89844 21.5 4.29894 21.5 4.79214V13.2062C20.9219 13.002 20.3131 12.8979 19.7 12.8984V5.69844H5.3L5.3009 18.2984L13.6637 9.93474C13.8185 9.77947 14.0246 9.6861 14.2434 9.67217C14.4622 9.65825 14.6785 9.72474 14.8517 9.85914L14.9354 9.93564L18.1268 13.1306C17.429 13.3433 16.7814 13.695 16.2233 14.1647C15.6651 14.6344 15.2078 15.2122 14.8789 15.8634C14.5501 16.5146 14.3565 17.2256 14.3099 17.9536C14.2634 18.6816 14.3647 19.4115 14.6078 20.0993L4.3928 20.0984C4.15593 20.0982 3.92885 20.0039 3.76144 19.8364C3.59403 19.6688 3.5 19.4416 3.5 19.2047V4.79214C3.50165 4.55578 3.59621 4.32955 3.76326 4.16233C3.93031 3.99511 4.15644 3.90032 4.3928 3.89844H20.6072ZM8.9 7.49844C9.37739 7.49844 9.83523 7.68808 10.1728 8.02565C10.5104 8.36321 10.7 8.82105 10.7 9.29844C10.7 9.77583 10.5104 10.2337 10.1728 10.5712C9.83523 10.9088 9.37739 11.0984 8.9 11.0984C8.42261 11.0984 7.96477 10.9088 7.62721 10.5712C7.28964 10.2337 7.1 9.77583 7.1 9.29844C7.1 8.82105 7.28964 8.36321 7.62721 8.02565C7.96477 7.68808 8.42261 7.49844 8.9 7.49844Z" fill="#0A0D14" style="fill:#0A0D14;fill:color(display-p3 0.0392 0.0510 0.0784);fill-opacity:1;"/>
</svg>
