<svg width="25" height="24" viewBox="0 0 25 24" fill="none" xmlns="http://www.w3.org/2000/svg">
<path d="M6.0452 20.0984L6.0272 20.1164L6.0083 20.0984H4.3928C4.15593 20.0982 3.92885 20.0039 3.76144 19.8364C3.59403 19.6688 3.5 19.4416 3.5 19.2047V4.79214C3.50165 4.55578 3.59621 4.32955 3.76326 4.16233C3.93031 3.99511 4.15644 3.90032 4.3928 3.89844H20.6072C21.1004 3.89844 21.5 4.29894 21.5 4.79214V19.2047C21.4984 19.4411 21.4038 19.6673 21.2367 19.8345C21.0697 20.0018 20.8436 20.0966 20.6072 20.0984H6.0452ZM19.7 14.6984V5.69844H5.3V18.2984L14.3 9.29844L19.7 14.6984ZM19.7 17.2436L14.3 11.8436L7.8452 18.2984H19.7V17.2436ZM8.9 11.0984C8.42261 11.0984 7.96477 10.9088 7.62721 10.5712C7.28964 10.2337 7.1 9.77583 7.1 9.29844C7.1 8.82105 7.28964 8.36321 7.62721 8.02565C7.96477 7.68808 8.42261 7.49844 8.9 7.49844C9.37739 7.49844 9.83523 7.68808 10.1728 8.02565C10.5104 8.36321 10.7 8.82105 10.7 9.29844C10.7 9.77583 10.5104 10.2337 10.1728 10.5712C9.83523 10.9088 9.37739 11.0984 8.9 11.0984Z" fill="#0A0D14" style="fill:#0A0D14;fill:color(display-p3 0.0392 0.0510 0.0784);fill-opacity:1;"/>
</svg>
