<svg width="25" height="24" viewBox="0 0 25 24" fill="none" xmlns="http://www.w3.org/2000/svg">
<path d="M19.7 3.89844C20.1968 3.89844 20.6 4.30164 20.6 4.79844V6.37974L18.8 8.17974V5.69844H6.20002V12.9884L9.80002 9.38844L13.6952 13.2845L12.5009 14.4788L12.4955 18.2939L16.3169 18.2993L17.5139 17.1023L18.7091 18.2984H18.8V15.8162L20.6 14.0162V19.1984C20.6 19.6952 20.1968 20.0984 19.7 20.0984H5.30002C4.80322 20.0984 4.40002 19.6952 4.40002 19.1984V4.79844C4.40002 4.30164 4.80322 3.89844 5.30002 3.89844H19.7ZM21.3002 8.22564L22.5728 9.49824L15.5726 16.4984L14.2982 16.4966L14.3 15.2258L21.3002 8.22564ZM15.65 7.49844C16.3952 7.49844 17 8.10324 17 8.84844C17 9.59364 16.3952 10.1984 15.65 10.1984C14.9048 10.1984 14.3 9.59364 14.3 8.84844C14.3 8.10324 14.9048 7.49844 15.65 7.49844Z" fill="#0A0D14" style="fill:#0A0D14;fill:color(display-p3 0.0392 0.0510 0.0784);fill-opacity:1;"/>
</svg>
