<svg width="25" height="24" viewBox="0 0 25 24" fill="none" xmlns="http://www.w3.org/2000/svg">
<path d="M6.19999 11.1884L7.99999 9.38844L12.95 14.3384L16.1 11.1884L18.8 13.8884V5.69844H6.19999V11.1884ZM5.29999 3.89844H19.7C19.9387 3.89844 20.1676 3.99326 20.3364 4.16204C20.5052 4.33082 20.6 4.55974 20.6 4.79844V19.1984C20.6 19.4371 20.5052 19.6661 20.3364 19.8348C20.1676 20.0036 19.9387 20.0984 19.7 20.0984H5.29999C5.0613 20.0984 4.83238 20.0036 4.6636 19.8348C4.49482 19.6661 4.39999 19.4371 4.39999 19.1984V4.79844C4.39999 4.55974 4.49482 4.33082 4.6636 4.16204C4.83238 3.99326 5.0613 3.89844 5.29999 3.89844ZM15.65 10.1984C15.292 10.1984 14.9486 10.0562 14.6954 9.80303C14.4422 9.54986 14.3 9.20648 14.3 8.84844C14.3 8.4904 14.4422 8.14702 14.6954 7.89384C14.9486 7.64067 15.292 7.49844 15.65 7.49844C16.008 7.49844 16.3514 7.64067 16.6046 7.89384C16.8578 8.14702 17 8.4904 17 8.84844C17 9.20648 16.8578 9.54986 16.6046 9.80303C16.3514 10.0562 16.008 10.1984 15.65 10.1984Z" fill="#0A0D14" style="fill:#0A0D14;fill:color(display-p3 0.0392 0.0510 0.0784);fill-opacity:1;"/>
</svg>
