<svg width="25" height="24" viewBox="0 0 25 24" fill="none" xmlns="http://www.w3.org/2000/svg">
<path d="M7.25 5.25C6.89848 5.25 6.59412 5.49415 6.51786 5.8373L5.01786 12.5873C5.00599 12.6407 5 12.6953 5 12.75V18C5 18.4142 5.33579 18.75 5.75 18.75H19.25C19.6642 18.75 20 18.4142 20 18V12.75C20 12.6953 19.994 12.6407 19.9822 12.5873L18.4822 5.8373C18.4059 5.49415 18.1015 5.25 17.75 5.25H7.25ZM18.3151 12H14.75C14.75 13.2427 13.7427 14.25 12.5 14.25C11.2573 14.25 10.25 13.2427 10.25 12H6.68497L7.85163 6.75H17.1483L18.3151 12Z" fill="#0A0D14" style="fill:#0A0D14;fill:color(display-p3 0.0392 0.0510 0.0784);fill-opacity:1;"/>
</svg>
