<svg width="25" height="24" viewBox="0 0 25 24" fill="none" xmlns="http://www.w3.org/2000/svg">
<path d="M6.51786 5.8373C6.59412 5.49415 6.89848 5.25 7.25 5.25H17.75C18.1015 5.25 18.4059 5.49415 18.4822 5.8373L19.9822 12.5873C19.994 12.6407 20 12.6953 20 12.75V18C20 18.4142 19.6642 18.75 19.25 18.75H5.75C5.33579 18.75 5 18.4142 5 18V12.75C5 12.6953 5.00599 12.6407 5.01786 12.5873L6.51786 5.8373ZM7.85163 6.75L6.68497 12H10.25C10.25 13.2427 11.2573 14.25 12.5 14.25C13.7427 14.25 14.75 13.2427 14.75 12H18.3151L17.1483 6.75H7.85163ZM15.938 13.5C15.3593 14.8244 14.0377 15.75 12.5 15.75C10.9623 15.75 9.6407 14.8244 9.06203 13.5H6.5V17.25H18.5V13.5H15.938Z" fill="#0A0D14" style="fill:#0A0D14;fill:color(display-p3 0.0392 0.0510 0.0784);fill-opacity:1;"/>
</svg>
