<svg width="25" height="24" viewBox="0 0 25 24" fill="none" xmlns="http://www.w3.org/2000/svg">
<path d="M4.4 3.8999H20.6C20.8387 3.8999 21.0676 3.99472 21.2364 4.16351C21.4052 4.33229 21.5 4.56121 21.5 4.7999V19.1999C21.5 19.4386 21.4052 19.6675 21.2364 19.8363C21.0676 20.0051 20.8387 20.0999 20.6 20.0999H4.4C4.16131 20.0999 3.93239 20.0051 3.7636 19.8363C3.59482 19.6675 3.5 19.4386 3.5 19.1999V4.7999C3.5 4.56121 3.59482 4.33229 3.7636 4.16351C3.93239 3.99472 4.16131 3.8999 4.4 3.8999ZM19.7 13.7999H16.6256C16.2754 14.6028 15.6985 15.2861 14.9657 15.766C14.2329 16.2459 13.376 16.5015 12.5 16.5015C11.624 16.5015 10.7671 16.2459 10.0343 15.766C9.30145 15.2861 8.72458 14.6028 8.3744 13.7999H5.3V18.2999H19.7V13.7999ZM19.7 11.9999V5.6999H5.3V11.9999H9.8C9.8 12.716 10.0845 13.4027 10.5908 13.9091C11.0972 14.4154 11.7839 14.6999 12.5 14.6999C13.2161 14.6999 13.9028 14.4154 14.4092 13.9091C14.9155 13.4027 15.2 12.716 15.2 11.9999H19.7Z" fill="#0A0D14" style="fill:#0A0D14;fill:color(display-p3 0.0392 0.0510 0.0784);fill-opacity:1;"/>
</svg>
