<svg width="25" height="24" viewBox="0 0 25 24" fill="none" xmlns="http://www.w3.org/2000/svg">
<path d="M5.75 12C5.75 10.5503 6.92525 9.375 8.375 9.375C9.27763 9.375 9.88969 9.70035 10.3994 10.21C10.9441 10.7548 11.3638 11.4992 11.8443 12.3642L11.8696 12.4096C12.3204 13.2212 12.8323 14.143 13.5399 14.8507C14.2959 15.6066 15.2776 16.125 16.625 16.125C18.9032 16.125 20.75 14.2782 20.75 12C20.75 9.72182 18.9032 7.875 16.625 7.875C15.3795 7.875 14.2631 8.42693 13.5067 9.29953C13.8415 9.79055 14.118 10.2793 14.348 10.693C14.8011 9.90538 15.651 9.375 16.625 9.375C18.0747 9.375 19.25 10.5503 19.25 12C19.25 13.4497 18.0747 14.625 16.625 14.625C15.7224 14.625 15.1103 14.2996 14.6007 13.7899C14.0559 13.2452 13.6362 12.5008 13.1557 11.6358L13.1304 11.5904C12.6796 10.7788 12.1677 9.85699 11.4601 9.14935C10.7041 8.3934 9.72237 7.875 8.375 7.875C6.09682 7.875 4.25 9.72182 4.25 12C4.25 14.2782 6.09682 16.125 8.375 16.125C9.62042 16.125 10.7369 15.5731 11.4933 14.7004C11.1585 14.2094 10.882 13.7207 10.652 13.307C10.199 14.0946 9.34892 14.625 8.375 14.625C6.92525 14.625 5.75 13.4497 5.75 12Z" fill="#0A0D14" style="fill:#0A0D14;fill:color(display-p3 0.0392 0.0510 0.0784);fill-opacity:1;"/>
</svg>
