<svg width="25" height="24" viewBox="0 0 25 24" fill="none" xmlns="http://www.w3.org/2000/svg">
<path d="M5.75 12C5.75 13.4497 6.92525 14.625 8.375 14.625C9.27763 14.625 9.88969 14.2996 10.3994 13.7899C10.8661 13.3233 11.241 12.7101 11.641 12C11.241 11.2899 10.8661 10.6767 10.3994 10.21C9.88969 9.70035 9.27763 9.375 8.375 9.375C6.92525 9.375 5.75 10.5503 5.75 12ZM8.375 16.125C6.09682 16.125 4.25 14.2782 4.25 12C4.25 9.72182 6.09682 7.875 8.375 7.875C9.72237 7.875 10.7041 8.3934 11.4601 9.14935C11.8615 9.5508 12.1999 10.0212 12.5 10.5013C12.8001 10.0212 13.1385 9.5508 13.5399 9.14935C14.2959 8.3934 15.2776 7.875 16.625 7.875C18.9032 7.875 20.75 9.72182 20.75 12C20.75 14.2782 18.9032 16.125 16.625 16.125C15.2776 16.125 14.2959 15.6066 13.5399 14.8507C13.1385 14.4492 12.8001 13.9788 12.5 13.4987C12.1999 13.9788 11.8615 14.4492 11.4601 14.8507C10.7041 15.6066 9.72237 16.125 8.375 16.125ZM13.359 12C13.759 12.7101 14.134 13.3233 14.6007 13.7899C15.1103 14.2996 15.7224 14.625 16.625 14.625C18.0747 14.625 19.25 13.4497 19.25 12C19.25 10.5503 18.0747 9.375 16.625 9.375C15.7224 9.375 15.1103 9.70035 14.6007 10.21C14.134 10.6767 13.759 11.2899 13.359 12Z" fill="#0A0D14" style="fill:#0A0D14;fill:color(display-p3 0.0392 0.0510 0.0784);fill-opacity:1;"/>
</svg>
