<svg width="25" height="24" viewBox="0 0 25 24" fill="none" xmlns="http://www.w3.org/2000/svg">
<path d="M20.6 3V11.1H17.8991L17.9 12C17.9 13.989 16.289 15.6 14.3 15.6H13.0589L12.5072 18.3999L13.3271 19.5888C13.6097 19.9983 13.5071 20.559 13.0976 20.8407C12.9473 20.9442 12.7691 21 12.5864 21H4.39999L6.48169 11.9784L4.39999 11.1L7.99999 3H20.6ZM18.8 4.8H9.16999L6.78949 10.155L8.57599 10.9083L6.66259 19.2H10.8728L10.5947 18.7968L12.464 9.3H18.8V4.8ZM16.0991 11.1H13.9445L13.4126 13.8H14.3C15.2945 13.8 16.1 12.9945 16.1 12L16.0991 11.1Z" fill="#0A0D14" style="fill:#0A0D14;fill:color(display-p3 0.0392 0.0510 0.0784);fill-opacity:1;"/>
</svg>
