<svg width="25" height="24" viewBox="0 0 25 24" fill="none" xmlns="http://www.w3.org/2000/svg">
<path d="M16.1 9.30039L20.0339 10.8745C20.3759 11.0104 20.6 11.3425 20.6 11.7097V20.1004C20.6 20.5972 20.1968 21.0004 19.7 21.0004H5.30002C4.80322 21.0004 4.40002 20.5972 4.40002 20.1004V11.7097C4.40002 11.3416 4.62412 11.0104 4.96612 10.8745L8.90002 9.30039H16.1ZM19.7 13.8004H8.90002V18.3004H19.7V13.8004ZM16.1 3.90039C16.5968 3.90039 17 4.30359 17 4.80039V8.40039H8.00002V4.80039C8.00002 4.30359 8.40322 3.90039 8.90002 3.90039H16.1Z" fill="#0A0D14" style="fill:#0A0D14;fill:color(display-p3 0.0392 0.0510 0.0784);fill-opacity:1;"/>
</svg>
