<svg width="25" height="24" viewBox="0 0 25 24" fill="none" xmlns="http://www.w3.org/2000/svg">
<path d="M12.5 12.9004C14.9849 12.9004 17 14.9155 17 17.4004C17 19.8853 14.9849 21.9004 12.5 21.9004C10.0151 21.9004 7.99999 19.8853 7.99999 17.4004C7.99999 14.9155 10.0151 12.9004 12.5 12.9004ZM13.4 14.7004H11.6V16.4995L9.79999 16.5004V18.3004L11.6 18.2995V20.1004H13.4V18.2995L15.2 18.3004V16.5004L13.4 16.4995V14.7004ZM19.7 3.90039C20.1968 3.90039 20.6 4.30359 20.6 4.80039V10.2004C20.6 10.6972 20.1968 11.1004 19.7 11.1004H5.29999C4.80319 11.1004 4.39999 10.6972 4.39999 10.2004V4.80039C4.39999 4.30359 4.80319 3.90039 5.29999 3.90039H19.7ZM6.19999 5.70039V9.30039H18.8V5.70039H6.19999Z" fill="#0A0D14" style="fill:#0A0D14;fill:color(display-p3 0.0392 0.0510 0.0784);fill-opacity:1;"/>
</svg>
