<svg width="25" height="24" viewBox="0 0 25 24" fill="none" xmlns="http://www.w3.org/2000/svg">
<path d="M19.7 12.8996C20.1968 12.8996 20.6 13.3028 20.6 13.7996V19.1996C20.6 19.6964 20.1968 20.0996 19.7 20.0996H5.29999C4.80319 20.0996 4.39999 19.6964 4.39999 19.1996V13.7996C4.39999 13.3028 4.80319 12.8996 5.29999 12.8996H19.7ZM18.8 14.6996H6.19999V18.2996H18.8V14.6996ZM12.5 2.09961C14.9849 2.09961 17 4.11471 17 6.59961C17 9.08451 14.9849 11.0996 12.5 11.0996C10.0151 11.0996 7.99999 9.08451 7.99999 6.59961C7.99999 4.11471 10.0151 2.09961 12.5 2.09961ZM13.4 3.89961H11.6V5.69871L9.79999 5.69961V7.49961L11.6 7.49871V9.29961H13.4V7.49871L15.2 7.49961V5.69961L13.4 5.69871V3.89961Z" fill="#0A0D14" style="fill:#0A0D14;fill:color(display-p3 0.0392 0.0510 0.0784);fill-opacity:1;"/>
</svg>
