<svg width="25" height="24" viewBox="0 0 25 24" fill="none" xmlns="http://www.w3.org/2000/svg">
<path d="M19.7 3.90039C20.1968 3.90039 20.6 4.30359 20.6 4.80039V19.2004C20.6 19.6972 20.1968 20.1004 19.7 20.1004H14.3C13.8032 20.1004 13.4 19.6972 13.4 19.2004V4.80039C13.4 4.30359 13.8032 3.90039 14.3 3.90039H19.7ZM18.8 5.70039H15.2V18.3004H18.8V5.70039ZM7.09998 7.50039C9.58488 7.50039 11.6 9.51549 11.6 12.0004C11.6 14.4853 9.58488 16.5004 7.09998 16.5004C4.61508 16.5004 2.59998 14.4853 2.59998 12.0004C2.59998 9.51549 4.61508 7.50039 7.09998 7.50039ZM7.99998 9.30039H6.19998V11.0995L4.39998 11.1004V12.9004L6.19998 12.8995V14.7004H7.99998V12.8995L9.79998 12.9004V11.1004L7.99998 11.0995V9.30039Z" fill="#0A0D14" style="fill:#0A0D14;fill:color(display-p3 0.0392 0.0510 0.0784);fill-opacity:1;"/>
</svg>
