<svg width="25" height="24" viewBox="0 0 25 24" fill="none" xmlns="http://www.w3.org/2000/svg">
<path d="M10.7 3.90039C11.1968 3.90039 11.6 4.30359 11.6 4.80039V19.2004C11.6 19.6972 11.1968 20.1004 10.7 20.1004H5.30002C4.80322 20.1004 4.40002 19.6972 4.40002 19.2004V4.80039C4.40002 4.30359 4.80322 3.90039 5.30002 3.90039H10.7ZM9.80002 5.70039H6.20002V18.3004H9.80002V5.70039ZM17.9 7.50039C20.3849 7.50039 22.4 9.51549 22.4 12.0004C22.4 14.4853 20.3849 16.5004 17.9 16.5004C15.4151 16.5004 13.4 14.4853 13.4 12.0004C13.4 9.51549 15.4151 7.50039 17.9 7.50039ZM18.8 9.30039H17V11.0995L15.2 11.1004V12.9004L17 12.8995V14.7004H18.8V12.8995L20.6 12.9004V11.1004L18.8 11.0995V9.30039Z" fill="#0A0D14" style="fill:#0A0D14;fill:color(display-p3 0.0392 0.0510 0.0784);fill-opacity:1;"/>
</svg>
