<svg width="25" height="24" viewBox="0 0 25 24" fill="none" xmlns="http://www.w3.org/2000/svg">
<path d="M12.5 3C14.9453 3 15.2504 3.009 16.2098 3.054C17.1683 3.099 17.8208 3.2493 18.395 3.4725C18.989 3.7011 19.4894 4.0107 19.9898 4.5102C20.4474 4.96011 20.8016 5.50433 21.0275 6.105C21.2498 6.6783 21.401 7.3317 21.446 8.2902C21.4883 9.2496 21.5 9.5547 21.5 12C21.5 14.4453 21.491 14.7504 21.446 15.7098C21.401 16.6683 21.2498 17.3208 21.0275 17.895C20.8022 18.496 20.448 19.0404 19.9898 19.4898C19.5398 19.9473 18.9956 20.3014 18.395 20.5275C17.8217 20.7498 17.1683 20.901 16.2098 20.946C15.2504 20.9883 14.9453 21 12.5 21C10.0547 21 9.7496 20.991 8.7902 20.946C7.8317 20.901 7.1792 20.7498 6.605 20.5275C6.00409 20.302 5.45977 19.9478 5.0102 19.4898C4.55247 19.04 4.19834 18.4957 3.9725 17.895C3.7493 17.3217 3.599 16.6683 3.554 15.7098C3.5117 14.7504 3.5 14.4453 3.5 12C3.5 9.5547 3.509 9.2496 3.554 8.2902C3.599 7.3308 3.7493 6.6792 3.9725 6.105C4.19771 5.50396 4.55192 4.95959 5.0102 4.5102C5.4599 4.05231 6.00419 3.69816 6.605 3.4725C7.1792 3.2493 7.8308 3.099 8.7902 3.054C9.7496 3.0117 10.0547 3 12.5 3ZM12.5 7.5C11.3065 7.5 10.1619 7.97411 9.31802 8.81802C8.47411 9.66193 8 10.8065 8 12C8 13.1935 8.47411 14.3381 9.31802 15.182C10.1619 16.0259 11.3065 16.5 12.5 16.5C13.6935 16.5 14.8381 16.0259 15.682 15.182C16.5259 14.3381 17 13.1935 17 12C17 10.8065 16.5259 9.66193 15.682 8.81802C14.8381 7.97411 13.6935 7.5 12.5 7.5ZM18.35 7.275C18.35 6.97663 18.2315 6.69048 18.0205 6.4795C17.8095 6.26853 17.5234 6.15 17.225 6.15C16.9266 6.15 16.6405 6.26853 16.4295 6.4795C16.2185 6.69048 16.1 6.97663 16.1 7.275C16.1 7.57337 16.2185 7.85952 16.4295 8.0705C16.6405 8.28147 16.9266 8.4 17.225 8.4C17.5234 8.4 17.8095 8.28147 18.0205 8.0705C18.2315 7.85952 18.35 7.57337 18.35 7.275ZM12.5 9.3C13.2161 9.3 13.9028 9.58446 14.4092 10.0908C14.9155 10.5972 15.2 11.2839 15.2 12C15.2 12.7161 14.9155 13.4028 14.4092 13.9092C13.9028 14.4155 13.2161 14.7 12.5 14.7C11.7839 14.7 11.0972 14.4155 10.5908 13.9092C10.0845 13.4028 9.8 12.7161 9.8 12C9.8 11.2839 10.0845 10.5972 10.5908 10.0908C11.0972 9.58446 11.7839 9.3 12.5 9.3Z" fill="#0A0D14" style="fill:#0A0D14;fill:color(display-p3 0.0392 0.0510 0.0784);fill-opacity:1;"/>
</svg>
