<svg width="25" height="24" viewBox="0 0 25 24" fill="none" xmlns="http://www.w3.org/2000/svg">
<path d="M9.79999 3V4.8H6.19999L6.19909 13.8H18.7991L18.8 4.8H15.2V3H19.7C19.9387 3 20.1676 3.09482 20.3364 3.2636C20.5052 3.43239 20.6 3.66131 20.6 3.9V20.1C20.6 20.3387 20.5052 20.5676 20.3364 20.7364C20.1676 20.9052 19.9387 21 19.7 21H5.29999C5.0613 21 4.83238 20.9052 4.6636 20.7364C4.49482 20.5676 4.39999 20.3387 4.39999 20.1V3.9C4.39999 3.66131 4.49482 3.43239 4.6636 3.2636C4.83238 3.09482 5.0613 3 5.29999 3H9.79999ZM18.7991 15.6H6.19909L6.19999 19.2H18.8L18.7991 15.6ZM17 16.5V18.3H15.2V16.5H17ZM13.4 3V7.5H16.1L12.5 11.1L8.89999 7.5H11.6V3H13.4Z" fill="#0A0D14" style="fill:#0A0D14;fill:color(display-p3 0.0392 0.0510 0.0784);fill-opacity:1;"/>
</svg>
