<svg width="25" height="24" viewBox="0 0 25 24" fill="none" xmlns="http://www.w3.org/2000/svg">
<path d="M5.30002 3.90039H19.7C19.9387 3.90039 20.1676 3.99521 20.3364 4.16399C20.5052 4.33278 20.6 4.5617 20.6 4.80039V19.2004C20.6 19.4391 20.5052 19.668 20.3364 19.8368C20.1676 20.0056 19.9387 20.1004 19.7 20.1004H5.30002C5.06133 20.1004 4.83241 20.0056 4.66363 19.8368C4.49485 19.668 4.40002 19.4391 4.40002 19.2004V4.80039C4.40002 4.5617 4.49485 4.33278 4.66363 4.16399C4.83241 3.99521 5.06133 3.90039 5.30002 3.90039ZM6.20002 5.70039V18.3004H18.8V5.70039H6.20002ZM7.98922 13.8589L8.68222 10.915H7.60762L7.93342 9.66399H10.5146L9.49582 13.867C9.43845 14.0784 9.40643 14.296 9.40042 14.515C9.40042 14.7832 9.52732 14.8624 9.72622 14.9083C9.84772 14.9371 10.8134 14.9173 11.3381 13.7023L12.0077 10.915H10.9205L11.2472 9.66399H13.5692L13.2713 11.0842C13.6781 10.2922 14.4935 9.54069 15.2945 9.54069C16.1495 9.54069 16.8569 10.1743 16.8569 11.3902C16.8569 11.7007 16.8155 12.0391 16.7075 12.4207L16.2728 14.0452C16.2334 14.1882 16.2104 14.3353 16.2044 14.4835C16.2044 14.7661 16.3133 14.9065 16.5167 14.9065C16.721 14.9065 16.9793 14.7517 17.2781 13.8895L17.8757 14.1298C17.522 15.4159 16.8839 15.9523 16.082 15.9523C15.1451 15.9523 14.6969 15.3736 14.6969 14.5816C14.6969 14.3566 14.7239 14.1154 14.7923 13.8751L15.2405 12.2074C15.2945 12.0238 15.308 11.8546 15.308 11.6989C15.308 11.1625 14.9957 10.8367 14.4935 10.8367C13.8545 10.8367 13.4333 11.3137 13.2164 12.2317L12.347 15.8605H10.826L11.0987 14.7202C10.6514 15.4852 10.0304 15.9577 9.26452 15.9577C8.34112 15.9577 7.90642 15.4042 7.90642 14.5699C7.90642 14.3584 7.93342 14.0992 7.98742 13.8589H7.98922ZM9.46252 8.96289C9.19399 8.96289 8.93646 8.85622 8.74658 8.66634C8.5567 8.47646 8.45002 8.21892 8.45002 7.95039C8.45002 7.68186 8.5567 7.42433 8.74658 7.23445C8.93646 7.04456 9.19399 6.93789 9.46252 6.93789C9.73106 6.93789 9.98859 7.04456 10.1785 7.23445C10.3684 7.42433 10.475 7.68186 10.475 7.95039C10.475 8.21892 10.3684 8.47646 10.1785 8.66634C9.98859 8.85622 9.73106 8.96289 9.46252 8.96289Z" fill="#0A0D14" style="fill:#0A0D14;fill:color(display-p3 0.0392 0.0510 0.0784);fill-opacity:1;"/>
</svg>
