<svg width="25" height="24" viewBox="0 0 25 24" fill="none" xmlns="http://www.w3.org/2000/svg">
<path d="M5.30002 3.90039H19.7C19.9387 3.90039 20.1676 3.99521 20.3364 4.16399C20.5052 4.33278 20.6 4.5617 20.6 4.80039V19.2004C20.6 19.4391 20.5052 19.668 20.3364 19.8368C20.1676 20.0056 19.9387 20.1004 19.7 20.1004H5.30002C5.06133 20.1004 4.83241 20.0056 4.66363 19.8368C4.49485 19.668 4.40002 19.4391 4.40002 19.2004V4.80039C4.40002 4.5617 4.49485 4.33278 4.66363 4.16399C4.83241 3.99521 5.06133 3.90039 5.30002 3.90039ZM7.98922 13.8589C7.93522 14.0992 7.90822 14.3584 7.90822 14.5699C7.90822 15.4042 8.34202 15.9577 9.26542 15.9577C10.0313 15.9577 10.6523 15.4843 11.0996 14.7202L10.8269 15.8605H12.3479L13.2173 12.2326C13.4342 11.3146 13.8563 10.8376 14.4944 10.8376C14.9966 10.8376 15.3089 11.1616 15.3089 11.6989C15.3089 11.8546 15.2954 12.0238 15.2414 12.2074L14.7932 13.8751C14.7291 14.1051 14.697 14.3428 14.6978 14.5816C14.6978 15.3736 15.146 15.9523 16.0838 15.9523C16.8848 15.9523 17.5238 15.4159 17.8766 14.1298L17.279 13.8895C16.9802 14.7517 16.721 14.9065 16.5176 14.9065C16.3142 14.9065 16.2053 14.7661 16.2053 14.4835C16.2053 14.3566 16.2323 14.2153 16.2737 14.0452L16.7084 12.4207C16.8164 12.0391 16.8578 11.7007 16.8578 11.3902C16.8578 10.1752 16.1513 9.54069 15.2954 9.54069C14.4944 9.54069 13.679 10.2922 13.2722 11.0842L13.5701 9.66309H11.2481L10.9214 10.9141H12.0086L11.339 13.7023C10.8143 14.9173 9.84862 14.9371 9.72802 14.9083C9.52822 14.8624 9.40132 14.7832 9.40132 14.5141C9.40132 14.3593 9.42832 14.1361 9.49672 13.8679L10.5155 9.66309H7.93432L7.60852 10.9141H8.68132L7.98832 13.8589H7.98922ZM9.46252 8.96289C9.73106 8.96289 9.98859 8.85622 10.1785 8.66634C10.3684 8.47646 10.475 8.21892 10.475 7.95039C10.475 7.68186 10.3684 7.42433 10.1785 7.23445C9.98859 7.04456 9.73106 6.93789 9.46252 6.93789C9.19399 6.93789 8.93646 7.04456 8.74658 7.23445C8.5567 7.42433 8.45002 7.68186 8.45002 7.95039C8.45002 8.21892 8.5567 8.47646 8.74658 8.66634C8.93646 8.85622 9.19399 8.96289 9.46252 8.96289Z" fill="#0A0D14" style="fill:#0A0D14;fill:color(display-p3 0.0392 0.0510 0.0784);fill-opacity:1;"/>
</svg>
