<svg width="25" height="24" viewBox="0 0 25 24" fill="none" xmlns="http://www.w3.org/2000/svg">
<path d="M8 5.25C6.75736 5.25 5.75 6.25736 5.75 7.5V16.5C5.75 17.7427 6.75736 18.75 8 18.75H17C18.2427 18.75 19.25 17.7427 19.25 16.5V7.5C19.25 6.25736 18.2427 5.25 17 5.25H8ZM13.5008 15.0413C14.0398 15.4757 14.5788 15.6902 15.1178 15.6847C15.4478 15.6847 15.7008 15.6242 15.8768 15.5033C16.0473 15.3877 16.1325 15.2227 16.1325 15.0082C16.1325 14.7883 16.0473 14.6012 15.8768 14.4472C15.7008 14.2933 15.3681 14.1392 14.8785 13.9853C14.29 13.8148 13.8363 13.5947 13.5173 13.3253C13.2038 13.0558 13.0443 12.679 13.0388 12.195C13.0388 11.7385 13.2368 11.3563 13.6328 11.0483C14.0178 10.7402 14.5101 10.5862 15.1095 10.5862C15.9456 10.5862 16.6165 10.7897 17.1226 11.1967L16.545 12.096C16.3416 11.9365 16.1078 11.821 15.8438 11.7495C15.5798 11.667 15.3433 11.6258 15.1343 11.6258C14.8483 11.6258 14.62 11.678 14.4495 11.7825C14.2791 11.887 14.1938 12.0245 14.1938 12.195C14.1938 12.382 14.2983 12.5415 14.5073 12.6735C14.7163 12.8 15.0738 12.9403 15.5798 13.0942C16.1903 13.2758 16.6248 13.5178 16.8833 13.8202C17.1418 14.1227 17.2711 14.5078 17.2711 14.9753C17.2711 15.4537 17.0868 15.8663 16.7183 16.2128C16.3553 16.5538 15.8273 16.7325 15.1343 16.749C14.2268 16.749 13.4678 16.4768 12.8573 15.9323L13.5008 15.0413ZM9.35304 15.5198C9.52904 15.6298 9.74079 15.6847 9.98829 15.6847C10.2468 15.6847 10.4613 15.6105 10.6318 15.462C10.8023 15.308 10.8875 15.0413 10.8875 14.6617V10.6852H12.0013V14.8763C11.9848 15.5252 11.7978 15.9928 11.4403 16.2787C11.2368 16.4492 11.014 16.5703 10.772 16.6417C10.53 16.7132 10.2963 16.749 10.0708 16.749C9.65829 16.749 9.29254 16.6775 8.97354 16.5345C8.63254 16.3805 8.34654 16.1083 8.11554 15.7178L8.89104 15.0825C9.03404 15.275 9.18804 15.4208 9.35304 15.5198Z" fill="#0A0D14" style="fill:#0A0D14;fill:color(display-p3 0.0392 0.0510 0.0784);fill-opacity:1;"/>
</svg>
