<svg width="25" height="24" viewBox="0 0 25 24" fill="none" xmlns="http://www.w3.org/2000/svg">
<path d="M13.5008 15.0413L12.8573 15.9323C13.4678 16.4768 14.2268 16.749 15.1343 16.749C15.8273 16.7325 16.3553 16.5538 16.7183 16.2128C17.0868 15.8663 17.2711 15.4537 17.2711 14.9753C17.2711 14.5078 17.1418 14.1227 16.8833 13.8202C16.6248 13.5178 16.1903 13.2758 15.5798 13.0942C15.0738 12.9403 14.7163 12.8 14.5073 12.6735C14.2983 12.5415 14.1938 12.382 14.1938 12.195C14.1938 12.0245 14.2791 11.887 14.4495 11.7825C14.62 11.678 14.8483 11.6258 15.1343 11.6258C15.3433 11.6258 15.5798 11.667 15.8438 11.7495C16.1078 11.821 16.3416 11.9365 16.545 12.096L17.1226 11.1967C16.6165 10.7897 15.9456 10.5862 15.1095 10.5862C14.5101 10.5862 14.0178 10.7402 13.6328 11.0483C13.2368 11.3563 13.0388 11.7385 13.0388 12.195C13.0443 12.679 13.2038 13.0558 13.5173 13.3253C13.8363 13.5947 14.29 13.8148 14.8785 13.9853C15.3681 14.1392 15.7008 14.2933 15.8768 14.4472C16.0473 14.6012 16.1325 14.7883 16.1325 15.0082C16.1325 15.2227 16.0473 15.3877 15.8768 15.5033C15.7008 15.6242 15.4478 15.6847 15.1178 15.6847C14.5788 15.6902 14.0398 15.4757 13.5008 15.0413ZM9.35304 15.5198C9.18804 15.4208 9.03404 15.275 8.89104 15.0825L8.11554 15.7178C8.34654 16.1083 8.63254 16.3805 8.97354 16.5345C9.29254 16.6775 9.65829 16.749 10.0708 16.749C10.2963 16.749 10.53 16.7132 10.772 16.6417C11.014 16.5703 11.2368 16.4492 11.4403 16.2787C11.7978 15.9928 11.9848 15.5252 12.0013 14.8763V10.6852H10.8875V14.6617C10.8875 15.0413 10.8023 15.308 10.6318 15.462C10.4613 15.6105 10.2468 15.6847 9.98829 15.6847C9.74079 15.6847 9.52904 15.6298 9.35304 15.5198ZM5.75 7.5C5.75 6.25736 6.75736 5.25 8 5.25H17C18.2427 5.25 19.25 6.25736 19.25 7.5V16.5C19.25 17.7427 18.2427 18.75 17 18.75H8C6.75736 18.75 5.75 17.7427 5.75 16.5V7.5ZM8 6.75C7.58579 6.75 7.25 7.08579 7.25 7.5V16.5C7.25 16.9142 7.58579 17.25 8 17.25H17C17.4142 17.25 17.75 16.9142 17.75 16.5V7.5C17.75 7.08579 17.4142 6.75 17 6.75H8Z" fill="#0A0D14" style="fill:#0A0D14;fill:color(display-p3 0.0392 0.0510 0.0784);fill-opacity:1;"/>
</svg>
