<svg width="25" height="24" viewBox="0 0 25 24" fill="none" xmlns="http://www.w3.org/2000/svg">
<path d="M12.5 3.90039C17.7191 3.90039 21.95 7.19799 21.95 11.2669C21.95 15.3349 17.7191 18.6325 12.5 18.6325C11.9803 18.6328 11.4611 18.5997 10.9457 18.5335L6.97849 21.1282C6.52759 21.3667 6.36829 21.3406 6.55369 20.7565L7.35649 17.4463C4.76449 16.1323 3.04999 13.8553 3.04999 11.2669C3.04999 7.19889 7.28089 3.90039 12.5 3.90039ZM17.8163 11.1544L19.1393 9.87279C19.2156 9.79351 19.2582 9.68769 19.2581 9.57763C19.2579 9.46757 19.2151 9.36186 19.1386 9.28276C19.062 9.20366 18.9578 9.15735 18.8478 9.15359C18.7378 9.14983 18.6306 9.18891 18.5489 9.26259L16.8137 10.942V9.55419C16.8137 9.44153 16.7689 9.33348 16.6893 9.25381C16.6096 9.17415 16.5016 9.12939 16.3889 9.12939C16.2762 9.12939 16.1682 9.17415 16.0885 9.25381C16.0088 9.33348 15.9641 9.44153 15.9641 9.55419V11.8555C15.9482 11.9211 15.9482 11.9896 15.9641 12.0553V13.3504C15.9641 13.4631 16.0088 13.5711 16.0885 13.6508C16.1682 13.7304 16.2762 13.7752 16.3889 13.7752C16.5016 13.7752 16.6096 13.7304 16.6893 13.6508C16.7689 13.5711 16.8137 13.4631 16.8137 13.3504V12.1237L17.198 11.752L18.4832 13.5817C18.5153 13.6274 18.556 13.6663 18.6032 13.6962C18.6503 13.7261 18.7029 13.7465 18.7579 13.7561C18.8128 13.7657 18.8692 13.7644 18.9237 13.7522C18.9782 13.7401 19.0297 13.7173 19.0754 13.6852C19.1211 13.6531 19.16 13.6123 19.1899 13.5652C19.2198 13.5181 19.2402 13.4655 19.2498 13.4105C19.2594 13.3555 19.2581 13.2992 19.2459 13.2447C19.2338 13.1902 19.211 13.1387 19.1789 13.093L17.8163 11.1535V11.1544ZM15.1541 12.886H13.8401V9.56769C13.8351 9.45853 13.7882 9.3555 13.7091 9.28003C13.6301 9.20455 13.525 9.16244 13.4157 9.16244C13.3065 9.16244 13.2014 9.20455 13.1224 9.28003C13.0433 9.3555 12.9964 9.45853 12.9914 9.56769V13.3108C12.9914 13.5448 13.1804 13.7356 13.4153 13.7356H15.1541C15.2668 13.7356 15.3748 13.6908 15.4545 13.6112C15.5341 13.5315 15.5789 13.4235 15.5789 13.3108C15.5789 13.1981 15.5341 13.0901 15.4545 13.0104C15.3748 12.9307 15.2668 12.886 15.1541 12.886ZM9.88279 11.9032L10.5092 10.3669L11.0834 11.9032H9.88279ZM12.1535 12.3424L12.1553 12.328C12.1551 12.221 12.1142 12.118 12.041 12.04L11.0996 9.51999C11.0601 9.3999 10.985 9.29472 10.8841 9.21849C10.7833 9.14226 10.6616 9.09861 10.5353 9.09339C10.4081 9.09283 10.2837 9.13102 10.1787 9.20289C10.0737 9.27476 9.9931 9.37688 9.94759 9.49569L8.45269 13.1632C8.43159 13.2148 8.42087 13.2701 8.42115 13.3259C8.42142 13.3817 8.43268 13.4369 8.45429 13.4883C8.47589 13.5398 8.50741 13.5865 8.54706 13.6257C8.5867 13.665 8.63369 13.696 8.68534 13.7171C8.73699 13.7382 8.79228 13.749 8.84808 13.7487C8.90387 13.7484 8.95906 13.7371 9.0105 13.7155C9.06194 13.6939 9.10861 13.6624 9.14787 13.6228C9.18713 13.5831 9.21819 13.5361 9.23929 13.4845L9.53629 12.7528H11.3993L11.6684 13.4728C11.6867 13.5266 11.7156 13.5762 11.7534 13.6187C11.7912 13.6611 11.8372 13.6955 11.8885 13.7199C11.9399 13.7442 11.9956 13.758 12.0524 13.7605C12.1092 13.7629 12.1659 13.7539 12.2191 13.734C12.2724 13.7142 12.3211 13.6838 12.3624 13.6447C12.4037 13.6057 12.4368 13.5587 12.4596 13.5067C12.4824 13.4546 12.4946 13.3985 12.4953 13.3417C12.4961 13.2848 12.4854 13.2284 12.464 13.1758L12.1535 12.3424ZM9.16369 9.57219C9.16369 9.45968 9.11906 9.35177 9.03959 9.27213C8.96011 9.19249 8.8523 9.14763 8.73979 9.14739H5.81929C5.70662 9.14739 5.59857 9.19215 5.51891 9.27181C5.43924 9.35148 5.39449 9.45953 5.39449 9.57219C5.39449 9.68485 5.43924 9.7929 5.51891 9.87257C5.59857 9.95224 5.70662 9.99699 5.81929 9.99699H6.86329V13.3594C6.86329 13.4721 6.90804 13.5801 6.98771 13.6598C7.06737 13.7394 7.17542 13.7842 7.28809 13.7842C7.40075 13.7842 7.5088 13.7394 7.58847 13.6598C7.66813 13.5801 7.71289 13.4721 7.71289 13.3594V9.99699H8.73889C8.97379 9.99699 9.16369 9.80619 9.16369 9.57219Z" fill="#0A0D14" style="fill:#0A0D14;fill:color(display-p3 0.0392 0.0510 0.0784);fill-opacity:1;"/>
</svg>
