<svg width="25" height="24" viewBox="0 0 25 24" fill="none" xmlns="http://www.w3.org/2000/svg">
<path d="M6.81019 17.5111C4.48279 16.1098 3.04999 13.9012 3.04999 11.4649C3.04999 7.23129 7.32319 3.90039 12.5 3.90039C17.6768 3.90039 21.95 7.23129 21.95 11.4649C21.95 15.6985 17.6768 19.0294 12.5 19.0294C12.1022 19.0294 11.7062 19.0096 11.3138 18.9709L7.92529 21.1831C7.37179 21.4765 7.06399 21.5656 6.58879 21.2425C6.03079 20.8609 6.05239 20.4397 6.24589 19.8385L6.81019 17.5111ZM4.84999 11.4649C4.84999 13.3837 6.12619 15.1756 8.25289 16.2529L8.88829 16.576L8.72089 17.269L8.35999 18.7522L10.88 17.1052L11.2094 17.1466C11.6351 17.2015 12.0662 17.2294 12.5 17.2294C16.7669 17.2294 20.15 14.5924 20.15 11.4649C20.15 8.33739 16.7669 5.70039 12.5 5.70039C8.23309 5.70039 4.84999 8.33739 4.84999 11.4649ZM17.8163 11.1535L19.1789 13.093C19.211 13.1387 19.2338 13.1902 19.2459 13.2447C19.2581 13.2992 19.2594 13.3555 19.2498 13.4105C19.2402 13.4655 19.2198 13.5181 19.1899 13.5652C19.16 13.6123 19.1211 13.6531 19.0754 13.6852C19.0297 13.7173 18.9782 13.7401 18.9237 13.7522C18.8692 13.7644 18.8128 13.7657 18.7579 13.7561C18.7029 13.7465 18.6503 13.7261 18.6032 13.6962C18.556 13.6663 18.5153 13.6274 18.4832 13.5817L17.198 11.752L16.8137 12.1237V13.3504C16.8137 13.4631 16.7689 13.5711 16.6893 13.6508C16.6096 13.7304 16.5016 13.7752 16.3889 13.7752C16.2762 13.7752 16.1682 13.7304 16.0885 13.6508C16.0088 13.5711 15.9641 13.4631 15.9641 13.3504V12.0553C15.9482 11.9896 15.9482 11.9211 15.9641 11.8555V9.55419C15.9641 9.44153 16.0088 9.33348 16.0885 9.25381C16.1682 9.17415 16.2762 9.12939 16.3889 9.12939C16.5016 9.12939 16.6096 9.17415 16.6893 9.25381C16.7689 9.33348 16.8137 9.44153 16.8137 9.55419V10.942L18.5489 9.26259C18.6306 9.18891 18.7378 9.14983 18.8478 9.15359C18.9578 9.15735 19.062 9.20366 19.1386 9.28276C19.2151 9.36186 19.2579 9.46757 19.2581 9.57763C19.2582 9.68769 19.2156 9.79351 19.1393 9.87279L17.8163 11.1535ZM15.1541 12.886C15.2668 12.886 15.3748 12.9307 15.4545 13.0104C15.5341 13.0901 15.5789 13.1981 15.5789 13.3108C15.5789 13.4235 15.5341 13.5315 15.4545 13.6112C15.3748 13.6908 15.2668 13.7356 15.1541 13.7356H13.4153C13.3028 13.7354 13.195 13.6905 13.1155 13.6109C13.036 13.5312 12.9914 13.4233 12.9914 13.3108V9.56769C12.9887 9.51032 12.9978 9.45301 13.0179 9.39922C13.038 9.34544 13.0689 9.29629 13.1085 9.25476C13.1482 9.21322 13.1959 9.18016 13.2487 9.15758C13.3015 9.13499 13.3583 9.12334 13.4157 9.12334C13.4732 9.12334 13.53 9.13499 13.5828 9.15758C13.6356 9.18016 13.6833 9.21322 13.7229 9.25476C13.7626 9.29629 13.7934 9.34544 13.8136 9.39922C13.8337 9.45301 13.8427 9.51032 13.8401 9.56769V12.886H15.1541ZM9.88279 11.9032H11.0834L10.5092 10.3669L9.88279 11.9032ZM12.1535 12.3424L12.464 13.1749C12.4854 13.2275 12.4961 13.2839 12.4953 13.3408C12.4946 13.3976 12.4824 13.4537 12.4596 13.5058C12.4368 13.5578 12.4037 13.6048 12.3624 13.6438C12.3211 13.6829 12.2724 13.7133 12.2191 13.7331C12.1659 13.753 12.1092 13.762 12.0524 13.7596C11.9956 13.7571 11.9399 13.7433 11.8885 13.719C11.8372 13.6946 11.7912 13.6602 11.7534 13.6178C11.7156 13.5753 11.6867 13.5257 11.6684 13.4719L11.4002 12.7528H9.53719L9.23929 13.4845C9.21819 13.5361 9.18713 13.5831 9.14787 13.6228C9.10861 13.6624 9.06194 13.6939 9.0105 13.7155C8.95906 13.7371 8.90387 13.7484 8.84808 13.7487C8.79228 13.749 8.73699 13.7382 8.68534 13.7171C8.63369 13.696 8.5867 13.665 8.54706 13.6257C8.50741 13.5865 8.47589 13.5398 8.45429 13.4883C8.43268 13.4369 8.42142 13.3817 8.42115 13.3259C8.42087 13.2701 8.43159 13.2148 8.45269 13.1632L9.94669 9.49569C9.99226 9.37674 10.073 9.27451 10.1782 9.20263C10.2833 9.13076 10.4079 9.09265 10.5353 9.09339C10.6616 9.09861 10.7833 9.14226 10.8841 9.21849C10.985 9.29472 11.0601 9.3999 11.0996 9.51999L12.041 12.04C12.1142 12.118 12.1551 12.221 12.1553 12.328L12.1535 12.3424ZM9.16369 9.57219C9.16369 9.80619 8.97469 9.99699 8.73979 9.99699H7.71379V13.3594C7.71379 13.4722 7.66898 13.5803 7.58923 13.6601C7.50949 13.7398 7.40132 13.7846 7.28854 13.7846C7.17575 13.7846 7.06759 13.7398 6.98784 13.6601C6.90809 13.5803 6.86329 13.4722 6.86329 13.3594V9.99699H5.81929C5.70662 9.99699 5.59857 9.95224 5.51891 9.87257C5.43924 9.7929 5.39449 9.68485 5.39449 9.57219C5.39449 9.45953 5.43924 9.35148 5.51891 9.27181C5.59857 9.19215 5.70662 9.14739 5.81929 9.14739H8.73979C8.97379 9.14739 9.16369 9.33729 9.16369 9.57219Z" fill="#0A0D14" style="fill:#0A0D14;fill:color(display-p3 0.0392 0.0510 0.0784);fill-opacity:1;"/>
</svg>
