<svg width="25" height="24" viewBox="0 0 25 24" fill="none" xmlns="http://www.w3.org/2000/svg">
<path d="M13.3253 12.8987C13.096 14.2307 12.3757 15.4285 11.3065 16.2554C10.2373 17.0823 8.89697 17.4783 7.55006 17.3653C6.20314 17.2523 4.94754 16.6384 4.03112 15.6449C3.11469 14.6513 2.60405 13.3503 2.59998 11.9987C2.59874 10.6438 3.10685 9.33802 4.02349 8.34033C4.94013 7.34263 6.19832 6.72597 7.54843 6.61267C8.89854 6.49938 10.2419 6.89774 11.312 7.72872C12.3821 8.5597 13.1007 9.76258 13.3253 11.0987H22.4V12.8987H20.6V16.4987H18.8V12.8987H17V16.4987H15.2V12.8987H13.3253ZM7.99998 15.5987C8.95476 15.5987 9.87043 15.2194 10.5456 14.5443C11.2207 13.8691 11.6 12.9535 11.6 11.9987C11.6 11.0439 11.2207 10.1282 10.5456 9.4531C9.87043 8.77797 8.95476 8.39869 7.99998 8.39869C7.0452 8.39869 6.12952 8.77797 5.45439 9.4531C4.77926 10.1282 4.39998 11.0439 4.39998 11.9987C4.39998 12.9535 4.77926 13.8691 5.45439 14.5443C6.12952 15.2194 7.0452 15.5987 7.99998 15.5987Z" fill="#0A0D14" style="fill:#0A0D14;fill:color(display-p3 0.0392 0.0510 0.0784);fill-opacity:1;"/>
</svg>
