<svg width="25" height="24" viewBox="0 0 25 24" fill="none" xmlns="http://www.w3.org/2000/svg">
<path d="M10.9817 11.6108L18.1277 4.46484L20.0366 6.37374L18.764 7.64634L20.6729 9.55524L17.4914 12.7376L15.5825 10.8287L12.8915 13.5197C13.387 14.4731 13.5252 15.5723 13.2811 16.6186C13.037 17.665 12.4267 18.5895 11.5605 19.2252C10.6943 19.8609 9.62929 20.1658 8.5579 20.0849C7.48651 20.0039 6.4794 19.5425 5.71853 18.7838C4.95726 18.0238 4.49346 17.0162 4.41115 15.9436C4.32884 14.8711 4.63348 13.8045 5.26986 12.9372C5.90624 12.0699 6.83225 11.4593 7.8801 11.2159C8.92794 10.9726 10.0283 11.1127 10.9817 11.6108ZM10.1726 16.874C10.3445 16.708 10.4817 16.5094 10.576 16.2898C10.6703 16.0702 10.72 15.834 10.7221 15.595C10.7242 15.356 10.6786 15.1189 10.5881 14.8977C10.4976 14.6765 10.3639 14.4755 10.1949 14.3065C10.0259 14.1375 9.82496 14.0039 9.60374 13.9134C9.38253 13.8229 9.14551 13.7773 8.9065 13.7794C8.6675 13.7815 8.4313 13.8311 8.2117 13.9255C7.99209 14.0198 7.79347 14.1569 7.62742 14.3288C7.29954 14.6683 7.11811 15.123 7.12221 15.595C7.12631 16.0669 7.31562 16.5184 7.64935 16.8521C7.98309 17.1859 8.43455 17.3752 8.9065 17.3793C9.37846 17.3834 9.83314 17.2019 10.1726 16.874Z" fill="#0A0D14" style="fill:#0A0D14;fill:color(display-p3 0.0392 0.0510 0.0784);fill-opacity:1;"/>
</svg>
