<svg width="25" height="24" viewBox="0 0 25 24" fill="none" xmlns="http://www.w3.org/2000/svg">
<path d="M17 13.8016H13.0931C12.6685 15.0026 11.833 16.0148 10.7342 16.6593C9.63549 17.3038 8.34427 17.5392 7.08878 17.3238C5.83329 17.1084 4.69436 16.4561 3.87331 15.4822C3.05225 14.5082 2.60193 13.2754 2.60193 12.0016C2.60193 10.7277 3.05225 9.49491 3.87331 8.52099C4.69436 7.54706 5.83329 6.89475 7.08878 6.67934C8.34427 6.46393 9.63549 6.6993 10.7342 7.34384C11.833 7.98838 12.6685 9.00059 13.0931 10.2016H22.4V13.8016H20.6V17.4016H17V13.8016ZM8 13.8016C8.47739 13.8016 8.93522 13.6119 9.27279 13.2744C9.61035 12.9368 9.8 12.479 9.8 12.0016C9.8 11.5242 9.61035 11.0663 9.27279 10.7288C8.93522 10.3912 8.47739 10.2016 8 10.2016C7.52261 10.2016 7.06477 10.3912 6.72721 10.7288C6.38964 11.0663 6.2 11.5242 6.2 12.0016C6.2 12.479 6.38964 12.9368 6.72721 13.2744C7.06477 13.6119 7.52261 13.8016 8 13.8016Z" fill="#0A0D14" style="fill:#0A0D14;fill:color(display-p3 0.0392 0.0510 0.0784);fill-opacity:1;"/>
</svg>
