<svg width="25" height="24" viewBox="0 0 25 24" fill="none" xmlns="http://www.w3.org/2000/svg">
<path d="M11.3822 11.8453L18.4463 4.78125L19.7189 6.05385L18.4463 7.32735L20.6729 9.55395L19.4003 10.8274L17.1728 8.59995L15.9002 9.87255L17.8091 11.7814L16.5365 13.0549L14.6276 11.1451L12.6548 13.1179C13.2672 14.0486 13.5128 15.1732 13.3441 16.2744C13.1754 17.3755 12.6044 18.3751 11.7415 19.0797C10.8786 19.7843 9.7851 20.1439 8.67242 20.089C7.55974 20.0341 6.50693 19.5686 5.71756 18.7825C4.92649 17.9944 4.45669 16.9404 4.39947 15.8252C4.34225 14.71 4.70171 13.6134 5.40797 12.7484C6.11424 11.8835 7.11685 11.312 8.22097 11.1451C9.32508 10.9782 10.4518 11.2278 11.3822 11.8453ZM10.8089 17.509C11.071 17.2611 11.2809 16.963 11.4259 16.6326C11.5709 16.3021 11.6482 15.9459 11.6532 15.5851C11.6583 15.2242 11.5909 14.866 11.4551 14.5316C11.3193 14.1973 11.1179 13.8935 10.8627 13.6383C10.6075 13.3831 10.3037 13.1817 9.96938 13.0459C9.63501 12.9101 9.27681 12.8428 8.91596 12.8478C8.5551 12.8528 8.19892 12.9301 7.86845 13.0751C7.53799 13.2202 7.23995 13.43 6.99196 13.6922C6.50013 14.2014 6.22799 14.8834 6.23414 15.5913C6.24029 16.2993 6.52425 16.9765 7.02485 17.4771C7.52545 17.9777 8.20265 18.2616 8.91058 18.2678C9.61851 18.2739 10.3005 18.0018 10.8098 17.5099L10.8089 17.509Z" fill="#0A0D14" style="fill:#0A0D14;fill:color(display-p3 0.0392 0.0510 0.0784);fill-opacity:1;"/>
</svg>
