<svg width="25" height="24" viewBox="0 0 25 24" fill="none" xmlns="http://www.w3.org/2000/svg">
<path d="M5.60785 2.46875L21.8357 18.6976C22.089 18.9507 22.2313 19.2941 22.2314 19.6521C22.2315 20.0102 22.0893 20.3536 21.8362 20.6069C21.5831 20.8602 21.2397 21.0025 20.8816 21.0026C20.5235 21.0026 20.1801 20.8605 19.9268 20.6073L15.7904 16.47L12.608 19.6515L5.60785 12.6514C4.28491 11.3286 3.52877 9.54287 3.49954 7.67232C3.47031 5.80177 4.17029 3.99329 5.45125 2.62985L5.60785 2.46875ZM5.82475 5.23175L5.77885 5.33075C5.34242 6.2956 5.19907 7.3674 5.3666 8.41303C5.53412 9.45866 6.00514 10.432 6.72115 11.2122L6.88045 11.3787L12.6071 17.1054L15.1532 14.5603L5.82475 5.23175Z" fill="#0A0D14" style="fill:#0A0D14;fill:color(display-p3 0.0392 0.0510 0.0784);fill-opacity:1;"/>
</svg>
