<svg width="25" height="24" viewBox="0 0 25 24" fill="none" xmlns="http://www.w3.org/2000/svg">
<path d="M5.60776 2.46875L21.8357 18.6976C22.0889 18.9507 22.2312 19.2941 22.2313 19.6521C22.2314 20.0102 22.0892 20.3536 21.8361 20.6069C21.583 20.8602 21.2396 21.0025 20.8815 21.0026C20.5235 21.0026 20.18 20.8605 19.9268 20.6073L15.7904 16.47L12.608 19.6515L8.89996 15.9435V18.3015C8.89996 18.5402 8.80514 18.7692 8.63635 18.9379C8.46757 19.1067 8.23865 19.2015 7.99996 19.2015C7.76126 19.2015 7.53234 19.1067 7.36356 18.9379C7.19478 18.7692 7.09996 18.5402 7.09996 18.3015V14.7015C7.0997 14.4722 7.01187 14.2515 6.8544 14.0847C6.69692 13.9179 6.4817 13.8175 6.2527 13.8041C6.02371 13.7907 5.79822 13.8652 5.62231 14.0124C5.4464 14.1596 5.33335 14.3685 5.30626 14.5962L5.29996 14.7015V15.6016C5.29996 15.8402 5.20514 16.0692 5.03635 16.2379C4.86757 16.4067 4.63865 16.5015 4.39996 16.5015C4.16126 16.5015 3.93234 16.4067 3.76356 16.2379C3.59478 16.0692 3.49996 15.8402 3.49996 15.6016V7.69415C3.46257 5.81576 4.16309 3.99757 5.45116 2.62985L5.60776 2.46875ZM5.82466 5.23175L5.77876 5.33075C5.50846 5.92786 5.34926 6.56925 5.30896 7.22345L5.29996 7.50155L5.29906 7.60955C5.30989 8.94524 5.81669 10.2292 6.72106 11.2122L6.88036 11.3787L12.6071 17.1054L15.1532 14.5603L5.82466 5.23175Z" fill="#0A0D14" style="fill:#0A0D14;fill:color(display-p3 0.0392 0.0510 0.0784);fill-opacity:1;"/>
</svg>
