<svg width="25" height="24" viewBox="0 0 25 24" fill="none" xmlns="http://www.w3.org/2000/svg">
<path d="M16.1 20.0984L11.8142 12.2414L15.2 6.59844L22.4 20.0984H16.1ZM8.9 10.1984L14.3 20.0984H3.5L8.9 10.1984ZM6.65 8.39844C6.05326 8.39844 5.48097 8.16138 5.05901 7.73943C4.63705 7.31747 4.4 6.74517 4.4 6.14844C4.4 5.5517 4.63705 4.9794 5.05901 4.55745C5.48097 4.13549 6.05326 3.89844 6.65 3.89844C7.24674 3.89844 7.81903 4.13549 8.24099 4.55745C8.66295 4.9794 8.9 5.5517 8.9 6.14844C8.9 6.74517 8.66295 7.31747 8.24099 7.73943C7.81903 8.16138 7.24674 8.39844 6.65 8.39844Z" fill="#0A0D14" style="fill:#0A0D14;fill:color(display-p3 0.0392 0.0510 0.0784);fill-opacity:1;"/>
</svg>
