<svg width="25" height="24" viewBox="0 0 25 24" fill="none" xmlns="http://www.w3.org/2000/svg">
<path d="M11.6 12.9004V20.1004H5.29999C5.0613 20.1004 4.83238 20.0056 4.6636 19.8368C4.49482 19.668 4.39999 19.4391 4.39999 19.2004V12.9004H11.6ZM13.4 3.90039H19.7C19.9387 3.90039 20.1676 3.99521 20.3364 4.16399C20.5052 4.33278 20.6 4.5617 20.6 4.80039V19.2004C20.6 19.4391 20.5052 19.668 20.3364 19.8368C20.1676 20.0056 19.9387 20.1004 19.7 20.1004H13.4V3.90039ZM4.39999 4.80039C4.39999 4.5617 4.49482 4.33278 4.6636 4.16399C4.83238 3.99521 5.0613 3.90039 5.29999 3.90039H11.6V11.1004H4.39999V4.80039Z" fill="#0A0D14" style="fill:#0A0D14;fill:color(display-p3 0.0392 0.0510 0.0784);fill-opacity:1;"/>
</svg>
