<svg width="25" height="24" viewBox="0 0 25 24" fill="none" xmlns="http://www.w3.org/2000/svg">
<path d="M20.6 3.89844V5.69844C20.6 14.3627 15.7643 18.2984 9.79999 18.2984H6.41869C6.27199 19.1192 6.19999 20.0147 6.19999 20.9984H4.39999C4.39999 19.7717 4.50439 18.6584 4.71139 17.6396C4.50439 16.475 4.39999 14.8946 4.39999 12.8984C4.39999 7.92774 8.42929 3.89844 13.4 3.89844C15.2 3.89844 17 4.79844 20.6 3.89844ZM13.4 5.69844C9.42379 5.69844 6.19999 8.92224 6.19999 12.8984C6.19999 13.2242 6.20269 13.5383 6.20899 13.8398C7.33759 12.0596 8.99089 10.6529 11.1536 9.41724L12.0464 10.9796C9.47689 12.4484 7.77229 14.117 6.89839 16.4984H9.79999C15.2135 16.4984 18.6839 12.9227 18.7973 6.04764C17.5625 6.16734 16.415 6.09084 14.9993 5.87844C13.9643 5.72274 13.7609 5.69844 13.4 5.69844Z" fill="#0A0D14" style="fill:#0A0D14;fill:color(display-p3 0.0392 0.0510 0.0784);fill-opacity:1;"/>
</svg>
