<svg width="25" height="24" viewBox="0 0 25 24" fill="none" xmlns="http://www.w3.org/2000/svg">
<path d="M12.5 3C17.4707 3 21.5 7.0293 21.5 12C21.5 16.9707 17.4707 21 12.5 21C7.5293 21 3.5 16.9707 3.5 12C3.5 7.0293 7.5293 3 12.5 3ZM8.1773 14.4138L6.2198 16.3704C6.67382 17.0211 7.22574 17.5976 7.856 18.0795L8.1305 18.2802L10.0862 16.3227C9.35972 15.9158 8.747 15.3331 8.3042 14.628L8.1782 14.4138H8.1773ZM16.8227 14.4138C16.4158 15.1403 15.8331 15.753 15.128 16.1958L14.9138 16.3218L16.8704 18.2802C17.5211 17.8262 18.0976 17.2743 18.5795 16.644L18.7802 16.3704L16.8227 14.4138ZM12.5 8.4C11.5452 8.4 10.6295 8.77928 9.95442 9.45442C9.27928 10.1295 8.9 11.0452 8.9 12C8.9 12.9548 9.27928 13.8705 9.95442 14.5456C10.6295 15.2207 11.5452 15.6 12.5 15.6C13.4548 15.6 14.3705 15.2207 15.0456 14.5456C15.7207 13.8705 16.1 12.9548 16.1 12C16.1 11.0452 15.7207 10.1295 15.0456 9.45442C14.3705 8.77928 13.4548 8.4 12.5 8.4ZM8.1305 5.7198C7.47953 6.17375 6.9027 6.72567 6.4205 7.356L6.2198 7.6305L8.1773 9.5862C8.58415 8.85972 9.16686 8.247 9.872 7.8042L10.0862 7.6782L8.1305 5.7198ZM16.8695 5.7198L14.9138 7.6773C15.6403 8.08415 16.253 8.66686 16.6958 9.372L16.8218 9.5862L18.7802 7.6305C18.3263 6.97953 17.7743 6.4027 17.144 5.9205L16.8704 5.7198H16.8695Z" fill="#0A0D14" style="fill:#0A0D14;fill:color(display-p3 0.0392 0.0510 0.0784);fill-opacity:1;"/>
</svg>
