<svg width="25" height="24" viewBox="0 0 25 24" fill="none" xmlns="http://www.w3.org/2000/svg">
<path d="M12.5 3C17.4707 3 21.5 7.0293 21.5 12C21.5 16.9707 17.4707 21 12.5 21C7.5293 21 3.5 16.9707 3.5 12C3.5 7.0293 7.5293 3 12.5 3ZM12.5 16.5C11.937 16.5006 11.3789 16.3953 10.8548 16.1895L8.8424 18.2028C9.94999 18.8575 11.2134 19.2019 12.5 19.2C13.7866 19.2019 15.05 18.8575 16.1576 18.2028L14.1452 16.1895C13.6211 16.3953 13.063 16.5006 12.5 16.5ZM5.3 12C5.3 13.3356 5.6636 14.5857 6.2972 15.6576L8.3105 13.6452C8.10473 13.1211 7.9994 12.563 8 12C8 11.4195 8.1098 10.8651 8.3105 10.3548L6.2972 8.3424C5.64251 9.44999 5.29806 10.7134 5.3 12ZM18.7028 8.3424L16.6895 10.3548C16.8902 10.8651 17 11.4195 17 12C17 12.5805 16.8902 13.1349 16.6895 13.6452L18.7028 15.6576C19.3575 14.55 19.7019 13.2866 19.7 12C19.7019 10.7134 19.3575 9.44999 18.7028 8.3424ZM12.5 9.3C11.7839 9.3 11.0972 9.58446 10.5908 10.0908C10.0845 10.5972 9.8 11.2839 9.8 12C9.8 12.7161 10.0845 13.4028 10.5908 13.9092C11.0972 14.4155 11.7839 14.7 12.5 14.7C13.2161 14.7 13.9028 14.4155 14.4092 13.9092C14.9155 13.4028 15.2 12.7161 15.2 12C15.2 11.2839 14.9155 10.5972 14.4092 10.0908C13.9028 9.58446 13.2161 9.3 12.5 9.3ZM12.5 4.8C11.2134 4.79806 9.94999 5.14251 8.8424 5.7972L10.8548 7.8105C11.3789 7.60473 11.937 7.4994 12.5 7.5C13.0805 7.5 13.6349 7.6098 14.1452 7.8105L16.1576 5.7972C15.05 5.14251 13.7866 4.79806 12.5 4.8Z" fill="#0A0D14" style="fill:#0A0D14;fill:color(display-p3 0.0392 0.0510 0.0784);fill-opacity:1;"/>
</svg>
