<svg width="25" height="24" viewBox="0 0 25 24" fill="none" xmlns="http://www.w3.org/2000/svg">
<path d="M10.6757 17.3991H11.6V12.8991H13.4V17.3991H14.3243C14.4431 16.3173 14.9948 15.4245 15.8903 14.4498C15.992 14.34 16.6391 13.6695 16.7156 13.5741C17.3513 12.78 17.7497 11.8224 17.865 10.8118C17.9803 9.80115 17.8078 8.77848 17.3674 7.86156C16.927 6.94465 16.2366 6.17077 15.3756 5.62906C14.5146 5.08734 13.5182 4.79982 12.501 4.79961C11.4838 4.79939 10.4872 5.08648 9.626 5.62783C8.76481 6.16918 8.07403 6.94276 7.63322 7.85949C7.19241 8.77621 7.01949 9.79881 7.13438 10.8095C7.24926 11.8202 7.64729 12.7779 8.2826 13.5723C8.36 13.6686 9.0089 14.34 9.1088 14.4489C10.0052 15.4245 10.5569 16.3173 10.6757 17.3991ZM10.7 19.1991V20.0991H14.3V19.1991H10.7ZM6.8786 14.6991C6.03098 13.6401 5.49976 12.3631 5.34614 11.0154C5.19253 9.66762 5.42276 8.30389 6.01033 7.08127C6.5979 5.85865 7.51889 4.82688 8.66722 4.10482C9.81555 3.38276 11.1445 2.99978 12.501 3C13.8575 3.00022 15.1863 3.38362 16.3344 4.10605C17.4825 4.82848 18.4031 5.86054 18.9903 7.08335C19.5775 8.30615 19.8073 9.66996 19.6532 11.0177C19.4992 12.3654 18.9676 13.6421 18.1196 14.7009C17.5616 15.3957 16.1 16.4991 16.1 17.8491V20.0991C16.1 20.5765 15.9104 21.0343 15.5728 21.3719C15.2352 21.7095 14.7774 21.8991 14.3 21.8991H10.7C10.2226 21.8991 9.76478 21.7095 9.42721 21.3719C9.08965 21.0343 8.9 20.5765 8.9 20.0991V17.8491C8.9 16.4991 7.4375 15.3957 6.8786 14.6991Z" fill="#0A0D14" style="fill:#0A0D14;fill:color(display-p3 0.0392 0.0510 0.0784);fill-opacity:1;"/>
</svg>
