<svg width="25" height="24" viewBox="0 0 25 24" fill="none" xmlns="http://www.w3.org/2000/svg">
<path d="M8.84689 17.3991C8.57959 16.2534 7.37359 15.3165 6.87859 14.6991C6.03096 13.6401 5.49974 12.3631 5.34613 11.0154C5.19251 9.66762 5.42275 8.30389 6.01032 7.08127C6.59788 5.85865 7.51888 4.82688 8.66721 4.10482C9.81554 3.38276 11.1445 2.99978 12.501 3C13.8574 3.00022 15.1863 3.38362 16.3344 4.10605C17.4825 4.82848 18.4031 5.86054 18.9903 7.08335C19.5775 8.30615 19.8073 9.66996 19.6532 11.0177C19.4992 12.3654 18.9676 13.6421 18.1196 14.7009C17.6246 15.3174 16.4204 16.2543 16.1531 17.3991H8.84599H8.84689ZM16.1 19.1991V20.0991C16.1 20.5765 15.9103 21.0343 15.5728 21.3719C15.2352 21.7095 14.7774 21.8991 14.3 21.8991H10.7C10.2226 21.8991 9.76476 21.7095 9.4272 21.3719C9.08963 21.0343 8.89999 20.5765 8.89999 20.0991V19.1991H16.1ZM13.4 10.2036V6.5991L9.34999 12.0036H11.6V15.6036L15.65 10.2036H13.4Z" fill="#0A0D14" style="fill:#0A0D14;fill:color(display-p3 0.0392 0.0510 0.0784);fill-opacity:1;"/>
</svg>
