<svg width="25" height="24" viewBox="0 0 25 24" fill="none" xmlns="http://www.w3.org/2000/svg">
<path d="M11.6 17.3991H8.8469C8.5796 16.2534 7.3736 15.3165 6.8786 14.6991C6.03098 13.6401 5.49976 12.3631 5.34614 11.0154C5.19253 9.66762 5.42276 8.30389 6.01033 7.08127C6.5979 5.85865 7.51889 4.82688 8.66722 4.10482C9.81555 3.38276 11.1445 2.99978 12.501 3C13.8575 3.00022 15.1863 3.38362 16.3344 4.10605C17.4825 4.82848 18.4031 5.86054 18.9903 7.08335C19.5775 8.30615 19.8073 9.66996 19.6532 11.0177C19.4992 12.3654 18.9676 13.6421 18.1196 14.7009C17.6246 15.3174 16.4204 16.2543 16.1531 17.3991H13.4V12.8991H11.6V17.3991ZM16.1 19.1991V20.0991C16.1 20.5765 15.9104 21.0343 15.5728 21.3719C15.2352 21.7095 14.7774 21.8991 14.3 21.8991H10.7C10.2226 21.8991 9.76478 21.7095 9.42721 21.3719C9.08965 21.0343 8.9 20.5765 8.9 20.0991V19.1991H16.1Z" fill="#0A0D14" style="fill:#0A0D14;fill:color(display-p3 0.0392 0.0510 0.0784);fill-opacity:1;"/>
</svg>
