<svg width="25" height="24" viewBox="0 0 25 24" fill="none" xmlns="http://www.w3.org/2000/svg">
<path d="M18.4967 10.9568C18.4965 11.0822 18.4465 11.2024 18.3577 11.291C18.269 11.3796 18.1487 11.4293 18.0233 11.4293H16.7075V12.2735H18.0233C18.087 12.2707 18.1507 12.2809 18.2104 12.3034C18.27 12.3258 18.3246 12.3601 18.3707 12.4043C18.4167 12.4484 18.4534 12.5013 18.4785 12.56C18.5035 12.6187 18.5164 12.6818 18.5164 12.7456C18.5164 12.8094 18.5035 12.8725 18.4785 12.9311C18.4534 12.9898 18.4167 13.0428 18.3707 13.0869C18.3246 13.131 18.27 13.1653 18.2104 13.1878C18.1507 13.2103 18.087 13.2204 18.0233 13.2176H16.235C16.1104 13.2167 15.9912 13.1666 15.9032 13.0783C15.8153 12.9901 15.7657 12.8706 15.7652 12.746V9.16762C15.7652 8.90933 15.9767 8.69512 16.2377 8.69512H18.0269C18.1522 8.69548 18.2723 8.74561 18.3606 8.83447C18.449 8.92334 18.4984 9.04366 18.498 9.16898C18.4977 9.29429 18.4476 9.41433 18.3587 9.50269C18.2698 9.59105 18.1495 9.64048 18.0242 9.64012H16.7084V10.4843H18.0242C18.2861 10.4843 18.4976 10.6976 18.4976 10.9568H18.4967ZM14.8085 13.1933C14.7602 13.2086 14.7098 13.2162 14.6591 13.2158C14.585 13.2175 14.5116 13.2013 14.4451 13.1688C14.3785 13.1362 14.3208 13.0881 14.2766 13.0286L12.4442 10.541V12.746C12.4352 12.8648 12.3817 12.9758 12.2943 13.0568C12.2069 13.1378 12.0922 13.1828 11.9731 13.1828C11.8539 13.1828 11.7392 13.1378 11.6518 13.0568C11.5644 12.9758 11.5109 12.8648 11.5019 12.746V9.16762C11.5017 9.04318 11.5508 8.92373 11.6385 8.83548C11.7263 8.74723 11.8455 8.6974 11.9699 8.69693C12.1157 8.69693 12.2507 8.77432 12.3407 8.88682L14.1875 11.3843V9.16762C14.1875 8.90933 14.399 8.69512 14.66 8.69512C14.9183 8.69512 15.1325 8.90933 15.1325 9.16762V12.746C15.1324 12.8452 15.101 12.9418 15.0428 13.0221C14.9847 13.1024 14.9027 13.1623 14.8085 13.1933ZM10.3535 13.2176C10.2287 13.2169 10.1093 13.167 10.0211 13.0787C9.93299 12.9903 9.88327 12.8708 9.8828 12.746V9.16762C9.8828 8.90933 10.0952 8.69512 10.3553 8.69512C10.6154 8.69512 10.8269 8.90933 10.8269 9.16762V12.746C10.8262 12.8712 10.776 12.991 10.6873 13.0793C10.5987 13.1677 10.4787 13.2174 10.3535 13.2176ZM8.9765 13.2176H7.1882C7.06326 13.2169 6.94362 13.167 6.85519 13.0788C6.76676 12.9905 6.71664 12.871 6.7157 12.746V9.16762C6.72603 9.04943 6.78028 8.9394 6.86775 8.85924C6.95522 8.77907 7.06955 8.73461 7.1882 8.73461C7.30685 8.73461 7.42118 8.77907 7.50865 8.85924C7.59612 8.9394 7.65037 9.04943 7.6607 9.16762V12.2726H8.9783C9.10361 12.2726 9.2238 12.3224 9.31241 12.411C9.40102 12.4996 9.4508 12.6198 9.4508 12.7451C9.4508 12.8704 9.40102 12.9906 9.31241 13.0792C9.2238 13.1678 9.10361 13.2176 8.9783 13.2176H8.9765ZM12.5 3.51562C7.5383 3.51562 3.5 6.79433 3.5 10.8218C3.5 14.4308 6.7022 17.4539 11.0267 18.0281C11.3192 18.0893 11.7188 18.2216 11.8196 18.4709C11.9096 18.6959 11.879 19.0451 11.8484 19.2809L11.7251 20.0459C11.6918 20.2709 11.5451 20.9351 12.5117 20.5292C13.4801 20.1251 17.6993 17.471 19.5893 15.2984C20.8817 13.8809 21.5 12.4301 21.5 10.8218C21.5 6.79433 17.4608 3.51562 12.5 3.51562Z" fill="#0A0D14" style="fill:#0A0D14;fill:color(display-p3 0.0392 0.0510 0.0784);fill-opacity:1;"/>
</svg>
