<svg width="25" height="24" viewBox="0 0 25 24" fill="none" xmlns="http://www.w3.org/2000/svg">
<path d="M21.5 10.8218C21.5 12.4301 20.8817 13.8818 19.5893 15.2984C17.6993 17.471 13.4801 20.1251 12.5117 20.5292C11.5451 20.9351 11.6918 20.2709 11.7251 20.0459L11.8484 19.2809C11.879 19.0451 11.9096 18.6959 11.8196 18.4709C11.7188 18.2216 11.3192 18.0893 11.0267 18.0281C6.7022 17.4539 3.5 14.4308 3.5 10.8218C3.5 6.79433 7.5383 3.51562 12.5 3.51562C17.4608 3.51562 21.5 6.79433 21.5 10.8218ZM18.26 14.0843C19.2617 12.9863 19.7 11.9594 19.7 10.8218C19.7 7.88063 16.541 5.31562 12.5 5.31562C8.459 5.31562 5.3 7.88063 5.3 10.8218C5.3 13.4363 7.7552 15.7781 11.2634 16.2434L11.3957 16.2668C12.3659 16.4702 13.0913 16.8194 13.4918 17.804L13.5242 17.8904C15.1496 16.832 17.2808 15.2084 18.2591 14.0843H18.26ZM18.0242 10.4843C18.1445 10.4918 18.2574 10.5448 18.3399 10.6326C18.4225 10.7204 18.4684 10.8363 18.4684 10.9568C18.4684 11.0773 18.4225 11.1933 18.3399 11.2811C18.2574 11.3689 18.1445 11.4219 18.0242 11.4293H16.7075V12.2735H18.0233C18.087 12.2707 18.1507 12.2809 18.2104 12.3034C18.27 12.3258 18.3246 12.3601 18.3707 12.4043C18.4167 12.4484 18.4534 12.5013 18.4785 12.56C18.5035 12.6187 18.5164 12.6818 18.5164 12.7456C18.5164 12.8094 18.5035 12.8725 18.4785 12.9311C18.4534 12.9898 18.4167 13.0428 18.3707 13.0869C18.3246 13.131 18.27 13.1653 18.2104 13.1878C18.1507 13.2103 18.087 13.2204 18.0233 13.2176H16.235C16.1104 13.2167 15.9912 13.1666 15.9032 13.0783C15.8153 12.9901 15.7657 12.8706 15.7652 12.746V9.16762C15.7652 8.90933 15.9767 8.69512 16.2377 8.69512H18.0269C18.1522 8.69548 18.2723 8.74561 18.3606 8.83447C18.449 8.92334 18.4984 9.04366 18.498 9.16898C18.4977 9.29429 18.4476 9.41433 18.3587 9.50269C18.2698 9.59105 18.1495 9.64048 18.0242 9.64012H16.7084V10.4843H18.0242ZM15.1325 12.746C15.1323 12.808 15.1198 12.8692 15.0959 12.9264C15.072 12.9835 15.0371 13.0353 14.9931 13.079C14.9491 13.1226 14.897 13.1571 14.8397 13.1806C14.7824 13.2041 14.721 13.2161 14.6591 13.2158C14.585 13.2175 14.5116 13.2013 14.4451 13.1688C14.3785 13.1362 14.3208 13.0881 14.2766 13.0286L12.4442 10.541V12.746C12.4352 12.8648 12.3817 12.9758 12.2943 13.0568C12.2069 13.1378 12.0922 13.1828 11.9731 13.1828C11.8539 13.1828 11.7392 13.1378 11.6518 13.0568C11.5644 12.9758 11.5109 12.8648 11.5019 12.746V9.16762C11.5017 9.04318 11.5508 8.92373 11.6385 8.83548C11.7263 8.74723 11.8455 8.6974 11.9699 8.69693C12.1157 8.69693 12.2507 8.77432 12.3407 8.88682L14.1875 11.3843V9.16762C14.1875 8.90933 14.399 8.69512 14.66 8.69512C14.9183 8.69512 15.1325 8.90933 15.1325 9.16762V12.746ZM10.8269 12.746C10.8262 12.8712 10.776 12.991 10.6873 13.0793C10.5987 13.1677 10.4787 13.2174 10.3535 13.2176C10.2287 13.2169 10.1093 13.167 10.0211 13.0787C9.93299 12.9903 9.88327 12.8708 9.8828 12.746V9.16762C9.8828 8.90933 10.0952 8.69512 10.3553 8.69512C10.6154 8.69512 10.8269 8.90933 10.8269 9.16762V12.746ZM8.9774 13.2176H7.1873C7.06236 13.2169 6.94272 13.167 6.85429 13.0788C6.76586 12.9905 6.71574 12.871 6.7148 12.746V9.16762C6.72513 9.04943 6.77938 8.9394 6.86685 8.85924C6.95432 8.77907 7.06865 8.73461 7.1873 8.73461C7.30595 8.73461 7.42028 8.77907 7.50775 8.85924C7.59522 8.9394 7.64947 9.04943 7.6598 9.16762V12.2726H8.9774C9.10272 12.2726 9.2229 12.3224 9.31151 12.411C9.40012 12.4996 9.4499 12.6198 9.4499 12.7451C9.4499 12.8704 9.40012 12.9906 9.31151 13.0792C9.2229 13.1678 9.10272 13.2176 8.9774 13.2176Z" fill="#0A0D14" style="fill:#0A0D14;fill:color(display-p3 0.0392 0.0510 0.0784);fill-opacity:1;"/>
</svg>
