<svg width="25" height="24" viewBox="0 0 25 24" fill="none" xmlns="http://www.w3.org/2000/svg">
<path d="M5.30002 3.90039H19.7C19.9387 3.90039 20.1676 3.99521 20.3364 4.16399C20.5052 4.33278 20.6 4.5617 20.6 4.80039V19.2004C20.6 19.4391 20.5052 19.668 20.3364 19.8368C20.1676 20.0056 19.9387 20.1004 19.7 20.1004H5.30002C5.06133 20.1004 4.83241 20.0056 4.66363 19.8368C4.49485 19.668 4.40002 19.4391 4.40002 19.2004V4.80039C4.40002 4.5617 4.49485 4.33278 4.66363 4.16399C4.83241 3.99521 5.06133 3.90039 5.30002 3.90039ZM6.20002 5.70039V18.3004H18.8V5.70039H6.20002ZM8.45002 9.30039C8.09198 9.30039 7.7486 9.15816 7.49543 8.90498C7.24226 8.65181 7.10002 8.30843 7.10002 7.95039C7.10002 7.59235 7.24226 7.24897 7.49543 6.9958C7.7486 6.74262 8.09198 6.60039 8.45002 6.60039C8.80807 6.60039 9.15144 6.74262 9.40462 6.9958C9.65779 7.24897 9.80002 7.59235 9.80002 7.95039C9.80002 8.30843 9.65779 8.65181 9.40462 8.90498C9.15144 9.15816 8.80807 9.30039 8.45002 9.30039ZM7.55002 10.2004H9.35002V16.9504H7.55002V10.2004ZM12.5 10.5874C13.0256 10.0789 13.6394 9.75039 14.3 9.75039C16.1639 9.75039 17.45 11.2615 17.45 13.1254V16.9504H15.65V13.1254C15.65 12.7077 15.4841 12.3071 15.1887 12.0117C14.8933 11.7163 14.4927 11.5504 14.075 11.5504C13.6573 11.5504 13.2567 11.7163 12.9613 12.0117C12.666 12.3071 12.5 12.7077 12.5 13.1254V16.9504H10.7V10.2004H12.5V10.5874Z" fill="#0A0D14" style="fill:#0A0D14;fill:color(display-p3 0.0392 0.0510 0.0784);fill-opacity:1;"/>
</svg>
