<svg width="25" height="24" viewBox="0 0 25 24" fill="none" xmlns="http://www.w3.org/2000/svg">
<path d="M17 16.5H21.5V18.3H18.8V21H17V16.5ZM8 7.5H3.5V5.7H6.2V3H8V7.5ZM18.2276 15.1824L16.955 13.908L18.2276 12.6354C18.6485 12.2182 18.9828 11.722 19.2114 11.1752C19.4399 10.6285 19.5583 10.042 19.5596 9.44937C19.5609 8.85676 19.4451 8.26974 19.2189 7.72199C18.9927 7.17425 18.6606 6.67657 18.2416 6.25753C17.8225 5.8385 17.3249 5.50635 16.7771 5.28017C16.2294 5.05399 15.6423 4.93823 15.0497 4.93953C14.4571 4.94082 13.8706 5.05916 13.3239 5.28774C12.7771 5.51631 12.2809 5.85063 11.8637 6.2715L10.5911 7.545L9.3176 6.2724L10.592 4.9998C11.7735 3.81826 13.3761 3.15448 15.047 3.15448C16.7179 3.15448 18.3205 3.81826 19.502 4.9998C20.6835 6.18134 21.3473 7.78385 21.3473 9.4548C21.3473 11.1257 20.6835 12.7283 19.502 13.9098L18.2285 15.1824H18.2276ZM15.6824 17.7276L14.4089 19.0002C13.2274 20.1817 11.6248 20.8455 9.9539 20.8455C8.28295 20.8455 6.68044 20.1817 5.4989 19.0002C4.31736 17.8187 3.65358 16.2161 3.65358 14.5452C3.65358 12.8743 4.31736 11.2717 5.4989 10.0902L6.7724 8.8176L8.045 10.092L6.7724 11.3646C6.35153 11.7818 6.01721 12.278 5.78864 12.8248C5.56006 13.3715 5.44172 13.958 5.44043 14.5506C5.43913 15.1432 5.55489 15.7303 5.78107 16.278C6.00725 16.8258 6.3394 17.3234 6.75843 17.7425C7.17747 18.1615 7.67515 18.4936 8.22289 18.7198C8.77064 18.946 9.35766 19.0618 9.95027 19.0605C10.5429 19.0592 11.1294 18.9408 11.6761 18.7123C12.2229 18.4837 12.7191 18.1494 13.1363 17.7285L14.4089 16.4559L15.6824 17.7285V17.7276ZM15.0452 8.1813L16.3187 9.4548L9.9548 15.8178L8.6813 14.5452L15.0452 8.1822V8.1813Z" fill="#0A0D14" style="fill:#0A0D14;fill:color(display-p3 0.0392 0.0510 0.0784);fill-opacity:1;"/>
</svg>
