<svg width="25" height="24" viewBox="0 0 25 24" fill="none" xmlns="http://www.w3.org/2000/svg">
<path d="M17.5913 14.5446L16.3187 13.272L17.5913 11.9994C17.9256 11.6651 18.1908 11.2682 18.3717 10.8314C18.5526 10.3946 18.6457 9.9265 18.6457 9.45372C18.6457 8.98095 18.5526 8.51281 18.3717 8.07603C18.1908 7.63925 17.9256 7.24237 17.5913 6.90807C17.257 6.57378 16.8601 6.30859 16.4233 6.12767C15.9866 5.94675 15.5184 5.85363 15.0457 5.85363C14.5729 5.85363 14.1047 5.94675 13.668 6.12767C13.2312 6.30859 12.8343 6.57378 12.5 6.90807L11.2274 8.18067L9.9548 6.90807L11.2274 5.63547C12.2429 4.6364 13.612 4.07906 15.0365 4.08487C16.4611 4.09067 17.8256 4.65913 18.8329 5.66644C19.8402 6.67375 20.4087 8.03829 20.4145 9.46283C20.4203 10.8874 19.863 12.2565 18.8639 13.272L17.5913 14.5446ZM15.0452 17.0907L13.7726 18.3633C13.2727 18.8714 12.6771 19.2755 12.0202 19.5524C11.3633 19.8292 10.6581 19.9732 9.94524 19.9761C9.23241 19.979 8.52606 19.8407 7.86693 19.5693C7.20779 19.2978 6.60893 18.8986 6.10488 18.3945C5.60083 17.8904 5.20156 17.2916 4.93011 16.6325C4.65866 15.9733 4.5204 15.267 4.5233 14.5541C4.5262 13.8413 4.67021 13.1361 4.94702 12.4792C5.22383 11.8223 5.62796 11.2267 6.1361 10.7268L7.4087 9.45417L8.6813 10.7268L7.4087 11.9994C7.0744 12.3337 6.80922 12.7305 6.6283 13.1673C6.44738 13.6041 6.35426 14.0723 6.35426 14.545C6.35426 15.0178 6.44738 15.4859 6.6283 15.9227C6.80922 16.3595 7.0744 16.7564 7.4087 17.0907C7.743 17.425 8.13987 17.6902 8.57665 17.8711C9.01344 18.052 9.48158 18.1451 9.95435 18.1451C10.4271 18.1451 10.8953 18.052 11.332 17.8711C11.7688 17.6902 12.1657 17.425 12.5 17.0907L13.7726 15.8181L15.0452 17.0907ZM15.0452 8.18067L16.3187 9.45417L9.9548 15.8172L8.6813 14.5446L15.0452 8.18157V8.18067ZM6.8975 3.26307L8.6363 2.79688L9.5678 6.27537L7.8299 6.74157L6.8975 3.26397V3.26307ZM15.4322 17.7243L17.1701 17.2581L18.1025 20.7357L16.3637 21.2019L15.4322 17.7243ZM3.7637 6.39687L7.2413 7.32927L6.7751 9.06717L3.2975 8.13567L3.7637 6.39687ZM18.2249 14.9316L21.7025 15.8631L21.2363 17.6019L17.7587 16.6695L18.2249 14.9316Z" fill="#0A0D14" style="fill:#0A0D14;fill:color(display-p3 0.0392 0.0510 0.0784);fill-opacity:1;"/>
</svg>
