<svg width="25" height="24" viewBox="0 0 25 24" fill="none" xmlns="http://www.w3.org/2000/svg">
<path d="M18.2015 17.7055H15.803V13.9462C15.803 13.0498 15.785 11.896 14.552 11.896C13.3019 11.896 13.1111 12.8716 13.1111 13.8805V17.7055H10.7117V9.97539H13.0157V11.0284H13.0472C13.3694 10.4218 14.1524 9.78009 15.3224 9.78009C17.7524 9.78009 18.2024 11.3803 18.2024 13.462V17.7055H18.2015ZM8.00272 8.91789C7.81962 8.91813 7.63828 8.88222 7.46908 8.81224C7.29988 8.74225 7.14617 8.63956 7.01674 8.51004C6.88731 8.38053 6.78471 8.22674 6.71483 8.0575C6.64496 7.88826 6.60917 7.70689 6.60952 7.52379C6.6097 7.24824 6.69159 6.97893 6.84482 6.74992C6.99806 6.52091 7.21576 6.34248 7.4704 6.2372C7.72504 6.13191 8.00519 6.10451 8.27541 6.15844C8.54563 6.21237 8.79378 6.34522 8.9885 6.54019C9.18322 6.73515 9.31575 6.98348 9.36933 7.25377C9.42291 7.52406 9.39514 7.80417 9.28953 8.05868C9.18392 8.31318 9.00521 8.53066 8.776 8.68359C8.54679 8.83653 8.27737 8.91807 8.00182 8.91789H8.00272ZM9.20512 17.7055H6.79942V9.97539H9.20602V17.7055H9.20512ZM19.403 3.90039H5.59612C4.93372 3.90039 4.40002 4.42239 4.40002 5.06769V18.9331C4.40002 19.5784 4.93462 20.1004 5.59522 20.1004H19.3994C20.06 20.1004 20.6 19.5784 20.6 18.9331V5.06769C20.6 4.42239 20.06 3.90039 19.3994 3.90039H19.4021H19.403Z" fill="#0A0D14" style="fill:#0A0D14;fill:color(display-p3 0.0392 0.0510 0.0784);fill-opacity:1;"/>
</svg>
