<svg width="25" height="24" viewBox="0 0 25 24" fill="none" xmlns="http://www.w3.org/2000/svg">
<path d="M7.94595 5.69934C7.94571 6.17673 7.75584 6.63447 7.4181 6.97187C7.08037 7.30926 6.62244 7.49868 6.14505 7.49844C5.66766 7.4982 5.20992 7.30833 4.87252 6.97059C4.53512 6.63286 4.34571 6.17493 4.34595 5.69754C4.34619 5.22015 4.53606 4.76241 4.87379 4.42501C5.21153 4.08761 5.66946 3.8982 6.14685 3.89844C6.62424 3.89868 7.08198 4.08855 7.41938 4.42628C7.75677 4.76402 7.94619 5.22195 7.94595 5.69934ZM7.99995 8.83134H4.39995V20.0993H7.99995V8.83134ZM13.6879 8.83134H10.1059V20.0993H13.6519V14.1863C13.6519 10.8923 17.9449 10.5863 17.9449 14.1863V20.0993H21.4999V12.9623C21.4999 7.40934 15.1459 7.61634 13.6519 10.3433L13.6879 8.83134Z" fill="#0A0D14" style="fill:#0A0D14;fill:color(display-p3 0.0392 0.0510 0.0784);fill-opacity:1;"/>
</svg>
