<svg width="25" height="24" viewBox="0 0 25 24" fill="none" xmlns="http://www.w3.org/2000/svg">
<path d="M17.5913 14.5457L16.3187 13.2731L17.5913 12.0005C17.9256 11.6662 18.1908 11.2693 18.3717 10.8325C18.5526 10.3958 18.6457 9.92761 18.6457 9.45484C18.6457 8.98207 18.5526 8.51393 18.3717 8.07715C18.1908 7.64036 17.9256 7.24349 17.5913 6.90919C17.257 6.57489 16.8601 6.30971 16.4233 6.12879C15.9866 5.94787 15.5184 5.85475 15.0457 5.85475C14.5729 5.85475 14.1047 5.94787 13.668 6.12879C13.2312 6.30971 12.8343 6.57489 12.5 6.90919L11.2274 8.18179L9.9548 6.90919L11.2274 5.63659C12.2429 4.63752 13.612 4.08018 15.0365 4.08598C16.4611 4.09178 17.8256 4.66025 18.8329 5.66756C19.8402 6.67487 20.4087 8.03941 20.4145 9.46395C20.4203 10.8885 19.863 12.2576 18.8639 13.2731L17.5913 14.5457ZM15.0452 17.0918L13.7726 18.3644C13.2727 18.8725 12.6771 19.2767 12.0202 19.5535C11.3633 19.8303 10.6581 19.9743 9.94524 19.9772C9.23241 19.9801 8.52606 19.8418 7.86693 19.5704C7.20779 19.2989 6.60893 18.8997 6.10488 18.3956C5.60082 17.8916 5.20156 17.2927 4.93011 16.6336C4.65866 15.9744 4.5204 15.2681 4.5233 14.5552C4.5262 13.8424 4.67021 13.1372 4.94702 12.4803C5.22383 11.8234 5.62796 11.2278 6.1361 10.7279L7.4087 9.45529L8.6813 10.7279L7.4087 12.0005C7.0744 12.3348 6.80922 12.7317 6.6283 13.1684C6.44738 13.6052 6.35426 14.0734 6.35426 14.5461C6.35426 15.0189 6.44738 15.4871 6.6283 15.9238C6.80922 16.3606 7.0744 16.7575 7.4087 17.0918C7.743 17.4261 8.13987 17.6913 8.57665 17.8722C9.01344 18.0531 9.48158 18.1462 9.95435 18.1462C10.4271 18.1462 10.8953 18.0531 11.332 17.8722C11.7688 17.6913 12.1657 17.4261 12.5 17.0918L13.7726 15.8192L15.0452 17.0918ZM15.0452 8.18179L16.3187 9.45529L9.9548 15.8183L8.6813 14.5457L15.0452 8.18269V8.18179Z" fill="#0A0D14" style="fill:#0A0D14;fill:color(display-p3 0.0392 0.0510 0.0784);fill-opacity:1;"/>
</svg>
