<svg width="25" height="24" viewBox="0 0 25 24" fill="none" xmlns="http://www.w3.org/2000/svg">
<path d="M18.2276 15.1822L16.955 13.9078L18.2276 12.6352C18.6485 12.218 18.9828 11.7218 19.2114 11.1751C19.4399 10.6283 19.5583 10.0418 19.5596 9.44919C19.5609 8.85658 19.4451 8.26956 19.2189 7.72181C18.9927 7.17407 18.6606 6.67639 18.2416 6.25735C17.8225 5.83832 17.3248 5.50617 16.7771 5.27999C16.2293 5.05381 15.6423 4.93805 15.0497 4.93934C14.4571 4.94064 13.8706 5.05898 13.3239 5.28755C12.7771 5.51613 12.2809 5.85045 11.8637 6.27132L10.5911 7.54482L9.31759 6.27222L10.592 4.99962C11.7735 3.81808 13.376 3.1543 15.047 3.1543C16.7179 3.1543 18.3204 3.81808 19.502 4.99962C20.6835 6.18116 21.3473 7.78367 21.3473 9.45462C21.3473 11.1256 20.6835 12.7281 19.502 13.9096L18.2285 15.1822H18.2276ZM15.6824 17.7274L14.4089 19C13.2273 20.1816 11.6248 20.8453 9.95389 20.8453C8.28294 20.8453 6.68043 20.1816 5.49889 19C4.31735 17.8185 3.65356 16.216 3.65356 14.545C3.65356 12.8741 4.31735 11.2716 5.49889 10.09L6.77239 8.81742L8.04499 10.0918L6.77239 11.3644C6.35152 11.7816 6.0172 12.2778 5.78862 12.8246C5.56004 13.3713 5.44171 13.9578 5.44041 14.5504C5.43911 15.1431 5.55488 15.7301 5.78106 16.2778C6.00724 16.8256 6.33938 17.3232 6.75842 17.7423C7.17746 18.1613 7.67513 18.4935 8.22288 18.7196C8.77062 18.9458 9.35765 19.0616 9.95025 19.0603C10.5429 19.059 11.1294 18.9407 11.6761 18.7121C12.2229 18.4835 12.7191 18.1492 13.1363 17.7283L14.4089 16.4557L15.6824 17.7283V17.7274ZM15.0452 8.18112L16.3187 9.45462L9.95479 15.8176L8.68129 14.545L15.0452 8.18202V8.18112Z" fill="#0A0D14" style="fill:#0A0D14;fill:color(display-p3 0.0392 0.0510 0.0784);fill-opacity:1;"/>
</svg>
