<svg width="25" height="24" viewBox="0 0 25 24" fill="none" xmlns="http://www.w3.org/2000/svg">
<path d="M12.5 9.79461C13.3253 8.95131 14.3999 8.39961 15.65 8.39961C16.9628 8.39961 18.2218 8.92113 19.1502 9.84943C20.0785 10.7777 20.6 12.0368 20.6 13.3496V20.0996H18.8V13.3496C18.8 12.5142 18.4681 11.713 17.8774 11.1222C17.2866 10.5315 16.4854 10.1996 15.65 10.1996C14.8145 10.1996 14.0133 10.5315 13.4226 11.1222C12.8318 11.713 12.5 12.5142 12.5 13.3496V20.0996H10.7V8.84961H12.5V9.79461ZM6.19998 7.04961C5.84193 7.04961 5.49856 6.90738 5.24538 6.6542C4.99221 6.40103 4.84998 6.05765 4.84998 5.69961C4.84998 5.34157 4.99221 4.99819 5.24538 4.74502C5.49856 4.49184 5.84193 4.34961 6.19998 4.34961C6.55802 4.34961 6.9014 4.49184 7.15457 4.74502C7.40774 4.99819 7.54998 5.34157 7.54998 5.69961C7.54998 6.05765 7.40774 6.40103 7.15457 6.6542C6.9014 6.90738 6.55802 7.04961 6.19998 7.04961ZM5.29998 8.84961H7.09998V20.0996H5.29998V8.84961Z" fill="#0A0D14" style="fill:#0A0D14;fill:color(display-p3 0.0392 0.0510 0.0784);fill-opacity:1;"/>
</svg>
