<svg width="25" height="24" viewBox="0 0 25 24" fill="none" xmlns="http://www.w3.org/2000/svg">
<path d="M13.25 6H19.25V7.5H13.25V6ZM13.25 11.25H19.25V12.75H13.25V11.25ZM13.25 16.5H19.25V18H13.25V16.5ZM8.375 17.25C7.54657 17.25 6.875 16.5785 6.875 15.75C6.875 14.9215 7.54657 14.25 8.375 14.25C9.20343 14.25 9.875 14.9215 9.875 15.75C9.875 16.5785 9.20343 17.25 8.375 17.25ZM8.375 18.75C10.0319 18.75 11.375 17.4068 11.375 15.75C11.375 14.0932 10.0319 12.75 8.375 12.75C6.71814 12.75 5.375 14.0932 5.375 15.75C5.375 17.4068 6.71814 18.75 8.375 18.75ZM7.25 7.5V9.75H9.5V7.5H7.25ZM5.75 6H11V11.25H5.75V6Z" fill="#0A0D14" style="fill:#0A0D14;fill:color(display-p3 0.0392 0.0510 0.0784);fill-opacity:1;"/>
</svg>
