<svg width="25" height="24" viewBox="0 0 25 24" fill="none" xmlns="http://www.w3.org/2000/svg">
<path d="M3.5 17.4008H9.8V19.2008H3.5V17.4008ZM3.5 11.1008H11.6V12.9008H3.5V11.1008ZM3.5 4.80078H21.5V6.60078H3.5V4.80078ZM20.3066 12.9233L21.347 12.5714L22.247 14.1302L21.4226 14.8547C21.5264 15.3467 21.5264 15.8549 21.4226 16.3469L22.247 17.0714L21.347 18.6302L20.3066 18.2783C19.9376 18.6113 19.4984 18.8678 19.0151 19.0253L18.8 20.1008H17L16.784 19.0244C16.3063 18.8683 15.8667 18.6138 15.4934 18.2774L14.453 18.6302L13.553 17.0714L14.3774 16.3469C14.2736 15.8549 14.2736 15.3467 14.3774 14.8547L13.553 14.1302L14.453 12.5714L15.4934 12.9233C15.8624 12.5903 16.3016 12.3338 16.7849 12.1763L17 11.1008H18.8L19.016 12.1772C19.4984 12.3338 19.9376 12.5912 20.3066 12.9242V12.9233ZM17.9 17.4008C18.3774 17.4008 18.8352 17.2111 19.1728 16.8736C19.5104 16.536 19.7 16.0782 19.7 15.6008C19.7 15.1234 19.5104 14.6656 19.1728 14.328C18.8352 13.9904 18.3774 13.8008 17.9 13.8008C17.4226 13.8008 16.9648 13.9904 16.6272 14.328C16.2896 14.6656 16.1 15.1234 16.1 15.6008C16.1 16.0782 16.2896 16.536 16.6272 16.8736C16.9648 17.2111 17.4226 17.4008 17.9 17.4008Z" fill="#0A0D14" style="fill:#0A0D14;fill:color(display-p3 0.0392 0.0510 0.0784);fill-opacity:1;"/>
</svg>
