<svg width="25" height="24" viewBox="0 0 25 24" fill="none" xmlns="http://www.w3.org/2000/svg">
<path d="M7.81268 5.625H7.038L5.9375 5.91988V7.08436L6.68752 6.88337L6.68763 9.375H5.75V10.5H8.75V9.375H7.81268V5.625ZM11 6H19.25V7.5H11V6ZM11 11.25H19.25V12.75H11V11.25ZM11 16.5H19.25V18H11V16.5ZM5.65625 14.7188C5.65625 13.8385 6.36979 13.125 7.25 13.125C8.13021 13.125 8.84375 13.8385 8.84375 14.7188C8.84375 15.0829 8.72137 15.419 8.5156 15.6875L8.51203 15.6922L7.4869 16.875H8.75V18H5.75009L5.74969 17.1589L7.60378 15.0262C7.67548 14.9439 7.71875 14.8366 7.71875 14.7188C7.71875 14.4599 7.50889 14.25 7.25 14.25C7.00533 14.25 6.8043 14.4376 6.7831 14.6766L6.77382 14.9062H5.65625V14.7188Z" fill="#0A0D14" style="fill:#0A0D14;fill:color(display-p3 0.0392 0.0510 0.0784);fill-opacity:1;"/>
</svg>
