<svg width="25" height="24" viewBox="0 0 25 24" fill="none" xmlns="http://www.w3.org/2000/svg">
<path d="M8.90002 4.80039H20.6V6.60039H8.90002V4.80039ZM6.20002 3.90039V6.60039H7.10002V7.50039H4.40002V6.60039H5.30002V4.80039H4.40002V3.90039H6.20002ZM4.40002 13.8004V11.5504H6.20002V11.1004H4.40002V10.2004H7.10002V12.4504H5.30002V12.9004H7.10002V13.8004H4.40002ZM6.20002 18.7504H4.40002V17.8504H6.20002V17.4004H4.40002V16.5004H7.10002V20.1004H4.40002V19.2004H6.20002V18.7504ZM8.90002 11.1004H20.6V12.9004H8.90002V11.1004ZM8.90002 17.4004H20.6V19.2004H8.90002V17.4004Z" fill="#0A0D14" style="fill:#0A0D14;fill:color(display-p3 0.0392 0.0510 0.0784);fill-opacity:1;"/>
</svg>
