<svg width="25" height="24" viewBox="0 0 25 24" fill="none" xmlns="http://www.w3.org/2000/svg">
<path d="M8.90002 4.79961H20.6V6.59961H8.90002V4.79961ZM5.75002 7.04961C5.39198 7.04961 5.0486 6.90738 4.79543 6.6542C4.54226 6.40103 4.40002 6.05765 4.40002 5.69961C4.40002 5.34157 4.54226 4.99819 4.79543 4.74502C5.0486 4.49184 5.39198 4.34961 5.75002 4.34961C6.10807 4.34961 6.45144 4.49184 6.70462 4.74502C6.95779 4.99819 7.10002 5.34157 7.10002 5.69961C7.10002 6.05765 6.95779 6.40103 6.70462 6.6542C6.45144 6.90738 6.10807 7.04961 5.75002 7.04961ZM5.75002 13.3496C5.39198 13.3496 5.0486 13.2074 4.79543 12.9542C4.54226 12.701 4.40002 12.3577 4.40002 11.9996C4.40002 11.6416 4.54226 11.2982 4.79543 11.045C5.0486 10.7918 5.39198 10.6496 5.75002 10.6496C6.10807 10.6496 6.45144 10.7918 6.70462 11.045C6.95779 11.2982 7.10002 11.6416 7.10002 11.9996C7.10002 12.3577 6.95779 12.701 6.70462 12.9542C6.45144 13.2074 6.10807 13.3496 5.75002 13.3496ZM5.75002 19.5596C5.39198 19.5596 5.0486 19.4174 4.79543 19.1642C4.54226 18.911 4.40002 18.5677 4.40002 18.2096C4.40002 17.8516 4.54226 17.5082 4.79543 17.255C5.0486 17.0018 5.39198 16.8596 5.75002 16.8596C6.10807 16.8596 6.45144 17.0018 6.70462 17.255C6.95779 17.5082 7.10002 17.8516 7.10002 18.2096C7.10002 18.5677 6.95779 18.911 6.70462 19.1642C6.45144 19.4174 6.10807 19.5596 5.75002 19.5596ZM8.90002 11.0996H20.6V12.8996H8.90002V11.0996ZM8.90002 17.3996H20.6V19.1996H8.90002V17.3996Z" fill="#0A0D14" style="fill:#0A0D14;fill:color(display-p3 0.0392 0.0510 0.0784);fill-opacity:1;"/>
</svg>
