<svg width="25" height="24" viewBox="0 0 25 24" fill="none" xmlns="http://www.w3.org/2000/svg">
<path d="M3.5 17.4008H9.8V19.2008H3.5V17.4008ZM3.5 11.1008H11.6V12.9008H3.5V11.1008ZM3.5 4.80078H21.5V6.60078H3.5V4.80078ZM20.3066 12.9233L21.347 12.5714L22.247 14.1302L21.4226 14.8547C21.5264 15.3467 21.5264 15.8549 21.4226 16.3469L22.247 17.0714L21.347 18.6302L20.3066 18.2783C19.9376 18.6113 19.4984 18.8678 19.0151 19.0253L18.8 20.1008H17L16.784 19.0244C16.3063 18.8683 15.8667 18.6138 15.4934 18.2774L14.453 18.6302L13.553 17.0714L14.3774 16.3469C14.2736 15.8549 14.2736 15.3467 14.3774 14.8547L13.553 14.1302L14.453 12.5714L15.4934 12.9233C15.8624 12.5903 16.3016 12.3338 16.7849 12.1763L17 11.1008H18.8L19.016 12.1772C19.4984 12.3338 19.9376 12.5912 20.3066 12.9242V12.9233ZM17.9 16.5008C18.1387 16.5008 18.3676 16.406 18.5364 16.2372C18.7052 16.0684 18.8 15.8395 18.8 15.6008C18.8 15.3621 18.7052 15.1332 18.5364 14.9644C18.3676 14.7956 18.1387 14.7008 17.9 14.7008C17.6613 14.7008 17.4324 14.7956 17.2636 14.9644C17.0948 15.1332 17 15.3621 17 15.6008C17 15.8395 17.0948 16.0684 17.2636 16.2372C17.4324 16.406 17.6613 16.5008 17.9 16.5008Z" fill="#0A0D14" style="fill:#0A0D14;fill:color(display-p3 0.0392 0.0510 0.0784);fill-opacity:1;"/>
</svg>
