<svg width="25" height="24" viewBox="0 0 25 24" fill="none" xmlns="http://www.w3.org/2000/svg">
<path d="M16.1 4.80078C16.3387 4.80078 16.5676 4.8956 16.7364 5.06439C16.9052 5.23317 17 5.46209 17 5.70078V9.48078L21.6917 6.19578C21.7591 6.14849 21.8383 6.12063 21.9205 6.11523C22.0027 6.10984 22.0848 6.12711 22.1579 6.16518C22.231 6.20324 22.2922 6.26063 22.3349 6.3311C22.3775 6.40156 22.4001 6.48239 22.4 6.56478V17.4368C22.4001 17.5192 22.3775 17.6 22.3349 17.6705C22.2922 17.7409 22.231 17.7983 22.1579 17.8364C22.0848 17.8745 22.0027 17.8917 21.9205 17.8863C21.8383 17.8809 21.7591 17.8531 21.6917 17.8058L17 14.5208V18.3008C17 18.5395 16.9052 18.7684 16.7364 18.9372C16.5676 19.106 16.3387 19.2008 16.1 19.2008H3.49998C3.26128 19.2008 3.03236 19.106 2.86358 18.9372C2.6948 18.7684 2.59998 18.5395 2.59998 18.3008V5.70078C2.59998 5.46209 2.6948 5.23317 2.86358 5.06439C3.03236 4.8956 3.26128 4.80078 3.49998 4.80078H16.1ZM8.35998 9.14688C8.27698 9.14686 8.19654 9.17552 8.13225 9.228C8.06796 9.28048 8.02377 9.35357 8.00718 9.43488L7.99998 9.50598V14.4938C7.99997 14.5521 8.01412 14.6095 8.04121 14.6611C8.06831 14.7128 8.10753 14.757 8.15551 14.7901C8.2035 14.8232 8.25881 14.8442 8.31668 14.8512C8.37456 14.8582 8.43327 14.8511 8.48778 14.8304L8.55348 14.798L12.473 12.3032C12.5187 12.2739 12.5572 12.2347 12.5857 12.1884C12.6141 12.1422 12.6317 12.0901 12.6371 12.0361C12.6426 11.9821 12.6358 11.9275 12.6172 11.8765C12.5985 11.8255 12.5686 11.7794 12.5297 11.7416L12.473 11.6966L8.55348 9.20178C8.49541 9.16578 8.42829 9.14706 8.35998 9.14778V9.14688Z" fill="#0A0D14" style="fill:#0A0D14;fill:color(display-p3 0.0392 0.0510 0.0784);fill-opacity:1;"/>
</svg>
