<svg width="25" height="24" viewBox="0 0 25 24" fill="none" xmlns="http://www.w3.org/2000/svg">
<path d="M16.1 4.80078C16.3387 4.80078 16.5676 4.8956 16.7364 5.06439C16.9052 5.23317 17 5.46209 17 5.70078V9.48078L21.6917 6.19578C21.7591 6.14849 21.8383 6.12063 21.9205 6.11523C22.0027 6.10984 22.0848 6.12711 22.1579 6.16518C22.231 6.20324 22.2922 6.26063 22.3349 6.3311C22.3775 6.40156 22.4001 6.48239 22.4 6.56478V17.4368C22.4001 17.5192 22.3775 17.6 22.3349 17.6705C22.2922 17.7409 22.231 17.7983 22.1579 17.8364C22.0848 17.8745 22.0027 17.8917 21.9205 17.8863C21.8383 17.8809 21.7591 17.8531 21.6917 17.8058L17 14.5208V18.3008C17 18.5395 16.9052 18.7684 16.7364 18.9372C16.5676 19.106 16.3387 19.2008 16.1 19.2008H3.49998C3.26128 19.2008 3.03236 19.106 2.86358 18.9372C2.6948 18.7684 2.59998 18.5395 2.59998 18.3008V5.70078C2.59998 5.46209 2.6948 5.23317 2.86358 5.06439C3.03236 4.8956 3.26128 4.80078 3.49998 4.80078H16.1ZM15.2 6.60078H4.39998V17.4008H15.2V6.60078ZM8.35998 9.14688C8.42847 9.14669 8.4956 9.16605 8.55348 9.20268L12.473 11.6975C12.5239 11.73 12.5658 11.7749 12.5948 11.8279C12.6238 11.8809 12.639 11.9404 12.639 12.0008C12.639 12.0612 12.6238 12.1207 12.5948 12.1737C12.5658 12.2267 12.5239 12.2715 12.473 12.3041L8.55348 14.7998C8.49888 14.8346 8.43592 14.854 8.37121 14.856C8.3065 14.8581 8.24245 14.8426 8.18579 14.8113C8.12913 14.7799 8.08197 14.7339 8.04927 14.6781C8.01657 14.6222 7.99954 14.5585 7.99998 14.4938V9.50778C7.99998 9.30888 8.16198 9.14778 8.35998 9.14778V9.14688ZM20.6 9.15678L17 11.6768V12.323L20.6 14.843V9.15678Z" fill="#0A0D14" style="fill:#0A0D14;fill:color(display-p3 0.0392 0.0510 0.0784);fill-opacity:1;"/>
</svg>
