<svg width="25" height="24" viewBox="0 0 25 24" fill="none" xmlns="http://www.w3.org/2000/svg">
<path d="M12.5 3C12.7387 3 12.9676 3.09482 13.1364 3.2636C13.3052 3.43239 13.4 3.66131 13.4 3.9V6.6C13.4 6.83869 13.3052 7.06761 13.1364 7.2364C12.9676 7.40518 12.7387 7.5 12.5 7.5C12.2613 7.5 12.0324 7.40518 11.8636 7.2364C11.6948 7.06761 11.6 6.83869 11.6 6.6V3.9C11.6 3.66131 11.6948 3.43239 11.8636 3.2636C12.0324 3.09482 12.2613 3 12.5 3ZM12.5 16.5C12.7387 16.5 12.9676 16.5948 13.1364 16.7636C13.3052 16.9324 13.4 17.1613 13.4 17.4V20.1C13.4 20.3387 13.3052 20.5676 13.1364 20.7364C12.9676 20.9052 12.7387 21 12.5 21C12.2613 21 12.0324 20.9052 11.8636 20.7364C11.6948 20.5676 11.6 20.3387 11.6 20.1V17.4C11.6 17.1613 11.6948 16.9324 11.8636 16.7636C12.0324 16.5948 12.2613 16.5 12.5 16.5ZM21.5 12C21.5 12.2387 21.4052 12.4676 21.2364 12.6364C21.0676 12.8052 20.8387 12.9 20.6 12.9H17.9C17.6613 12.9 17.4324 12.8052 17.2636 12.6364C17.0948 12.4676 17 12.2387 17 12C17 11.7613 17.0948 11.5324 17.2636 11.3636C17.4324 11.1948 17.6613 11.1 17.9 11.1H20.6C20.8387 11.1 21.0676 11.1948 21.2364 11.3636C21.4052 11.5324 21.5 11.7613 21.5 12ZM8 12C8 12.2387 7.90518 12.4676 7.7364 12.6364C7.56761 12.8052 7.33869 12.9 7.1 12.9H4.4C4.16131 12.9 3.93239 12.8052 3.7636 12.6364C3.59482 12.4676 3.5 12.2387 3.5 12C3.5 11.7613 3.59482 11.5324 3.7636 11.3636C3.93239 11.1948 4.16131 11.1 4.4 11.1H7.1C7.33869 11.1 7.56761 11.1948 7.7364 11.3636C7.90518 11.5324 8 11.7613 8 12ZM18.8639 18.3639C18.6951 18.5326 18.4662 18.6274 18.2276 18.6274C17.989 18.6274 17.7601 18.5326 17.5913 18.3639L15.6824 16.455C15.5185 16.2853 15.4277 16.0579 15.4298 15.8219C15.4318 15.586 15.5265 15.3602 15.6934 15.1934C15.8602 15.0265 16.086 14.9318 16.3219 14.9298C16.5579 14.9277 16.7853 15.0185 16.955 15.1824L18.8639 17.0904C18.9476 17.174 19.014 17.2732 19.0593 17.3825C19.1045 17.4918 19.1279 17.6089 19.1279 17.7271C19.1279 17.8454 19.1045 17.9625 19.0593 18.0718C19.014 18.1811 18.9476 18.2803 18.8639 18.3639ZM9.3176 8.8176C9.14882 8.98632 8.91995 9.08111 8.6813 9.08111C8.44265 9.08111 8.21378 8.98632 8.045 8.8176L6.137 6.9096C5.96812 6.74084 5.8732 6.51191 5.87312 6.27317C5.87303 6.03443 5.96779 5.80543 6.13655 5.63655C6.30531 5.46767 6.53424 5.37275 6.77298 5.37267C7.01172 5.37258 7.24072 5.46734 7.4096 5.6361L9.3176 7.545C9.48632 7.71378 9.58111 7.94265 9.58111 8.1813C9.58111 8.41995 9.48632 8.64882 9.3176 8.8176ZM6.137 18.3639C5.96828 18.1951 5.87349 17.9662 5.87349 17.7276C5.87349 17.489 5.96828 17.2601 6.137 17.0913L8.0459 15.1824C8.12892 15.0964 8.22823 15.0279 8.33804 14.9807C8.44784 14.9335 8.56594 14.9087 8.68544 14.9077C8.80494 14.9066 8.92345 14.9294 9.03406 14.9747C9.14467 15.0199 9.24515 15.0867 9.32966 15.1712C9.41416 15.2557 9.48099 15.3562 9.52624 15.4668C9.57149 15.5774 9.59426 15.696 9.59323 15.8155C9.59219 15.935 9.56736 16.0531 9.52019 16.1629C9.47302 16.2727 9.40446 16.372 9.3185 16.455L7.4105 18.3639C7.32691 18.4476 7.22765 18.514 7.1184 18.5593C7.00914 18.6045 6.89202 18.6279 6.77375 18.6279C6.65548 18.6279 6.53836 18.6045 6.4291 18.5593C6.31985 18.514 6.22059 18.4476 6.137 18.3639ZM15.6824 8.8176C15.5137 8.64882 15.4189 8.41995 15.4189 8.1813C15.4189 7.94265 15.5137 7.71378 15.6824 7.545L17.5904 5.6361C17.7592 5.46722 17.9881 5.3723 18.2268 5.37222C18.4656 5.37213 18.6946 5.46689 18.8634 5.63565C19.0323 5.80441 19.1272 6.03334 19.1273 6.27208C19.1274 6.51082 19.0327 6.73982 18.8639 6.9087L16.955 8.8176C16.7862 8.98632 16.5573 9.08111 16.3187 9.08111C16.0801 9.08111 15.8512 8.98632 15.6824 8.8176Z" fill="#0A0D14" style="fill:#0A0D14;fill:color(display-p3 0.0392 0.0510 0.0784);fill-opacity:1;"/>
</svg>
