<svg width="25" height="24" viewBox="0 0 25 24" fill="none" xmlns="http://www.w3.org/2000/svg">
<path d="M12.5 3C12.7387 3 12.9676 3.09482 13.1364 3.2636C13.3051 3.43239 13.4 3.66131 13.4 3.9V6.6C13.4 6.83869 13.3051 7.06761 13.1364 7.2364C12.9676 7.40518 12.7387 7.5 12.5 7.5C12.2613 7.5 12.0324 7.40518 11.8636 7.2364C11.6948 7.06761 11.6 6.83869 11.6 6.6V3.9C11.6 3.66131 11.6948 3.43239 11.8636 3.2636C12.0324 3.09482 12.2613 3 12.5 3ZM12.5 16.5C12.7387 16.5 12.9676 16.5948 13.1364 16.7636C13.3051 16.9324 13.4 17.1613 13.4 17.4V20.1C13.4 20.3387 13.3051 20.5676 13.1364 20.7364C12.9676 20.9052 12.7387 21 12.5 21C12.2613 21 12.0324 20.9052 11.8636 20.7364C11.6948 20.5676 11.6 20.3387 11.6 20.1V17.4C11.6 17.1613 11.6948 16.9324 11.8636 16.7636C12.0324 16.5948 12.2613 16.5 12.5 16.5ZM20.294 7.5C20.4133 7.70671 20.4457 7.95236 20.3839 8.18292C20.3221 8.41347 20.1713 8.61005 19.9646 8.7294L17.6264 10.0794C17.524 10.1394 17.4107 10.1786 17.2931 10.1947C17.1755 10.2108 17.0559 10.2034 16.9412 10.1731C16.8264 10.1428 16.7188 10.09 16.6245 10.0179C16.5302 9.94582 16.4511 9.85578 16.3918 9.75299C16.3324 9.65021 16.294 9.53669 16.2787 9.41899C16.2634 9.30129 16.2715 9.18172 16.3026 9.06718C16.3337 8.95263 16.3872 8.84537 16.4599 8.75156C16.5326 8.65776 16.6232 8.57926 16.7264 8.5206L19.0646 7.1706C19.2713 7.05126 19.5169 7.01892 19.7475 7.08069C19.978 7.14246 20.1746 7.29329 20.294 7.5ZM8.60297 14.25C8.72231 14.4567 8.75465 14.7024 8.69288 14.9329C8.6311 15.1635 8.48028 15.36 8.27357 15.4794L5.93537 16.8294C5.83298 16.8894 5.71972 16.9286 5.60212 16.9447C5.48452 16.9608 5.36491 16.9534 5.25016 16.9231C5.13541 16.8928 5.02779 16.84 4.93351 16.7679C4.83922 16.6958 4.76013 16.6058 4.70078 16.503C4.64144 16.4002 4.60301 16.2867 4.58771 16.169C4.57241 16.0513 4.58054 15.9317 4.61164 15.8172C4.64274 15.7026 4.69619 15.5954 4.76891 15.5016C4.84163 15.4078 4.93219 15.3293 5.03537 15.2706L7.37357 13.9206C7.58028 13.8013 7.82593 13.7689 8.05649 13.8307C8.28704 13.8925 8.48362 14.0433 8.60297 14.25ZM20.294 16.5C20.1746 16.7067 19.978 16.8575 19.7475 16.9193C19.5169 16.9811 19.2713 16.9487 19.0646 16.8294L16.7264 15.4794C16.5213 15.3592 16.3722 15.1628 16.3114 14.933C16.2507 14.7033 16.2833 14.4588 16.4021 14.253C16.521 14.0472 16.7164 13.8967 16.9457 13.8344C17.1751 13.7722 17.4198 13.8031 17.6264 13.9206L19.9646 15.2706C20.1713 15.39 20.3221 15.5865 20.3839 15.8171C20.4457 16.0476 20.4133 16.2933 20.294 16.5ZM8.60297 9.75C8.48362 9.95671 8.28704 10.1075 8.05649 10.1693C7.82593 10.2311 7.58028 10.1987 7.37357 10.0794L5.03537 8.7294C4.93219 8.67074 4.84163 8.59224 4.76891 8.49844C4.69619 8.40463 4.64274 8.29737 4.61164 8.18282C4.58054 8.06828 4.57241 7.94871 4.58771 7.83101C4.60301 7.71331 4.64144 7.59979 4.70078 7.497C4.76013 7.39422 4.83922 7.30418 4.93351 7.23208C5.02779 7.15998 5.13541 7.10725 5.25016 7.07691C5.36491 7.04657 5.48452 7.03923 5.60212 7.05531C5.71972 7.07139 5.83298 7.11057 5.93537 7.1706L8.27357 8.5206C8.48028 8.63995 8.6311 8.83653 8.69288 9.06708C8.75465 9.29764 8.72231 9.54329 8.60297 9.75Z" fill="#0A0D14" style="fill:#0A0D14;fill:color(display-p3 0.0392 0.0510 0.0784);fill-opacity:1;"/>
</svg>
