<svg width="25" height="24" viewBox="0 0 25 24" fill="none" xmlns="http://www.w3.org/2000/svg">
<path d="M18.2276 6.27092L16.955 7.54352C15.9244 6.51284 14.5684 5.87138 13.1179 5.72844C11.6674 5.58549 10.2122 5.94992 9.00023 6.75961C7.78829 7.5693 6.89459 8.77417 6.47141 10.1689C6.04823 11.5637 6.12175 13.062 6.67944 14.4086C7.23713 15.7552 8.24449 16.8668 9.52987 17.554C10.8153 18.2411 12.2991 18.4614 13.7287 18.1771C15.1582 17.8928 16.445 17.1217 17.3697 15.9951C18.2944 14.8685 18.7999 13.4561 18.8 11.9985H20.6C20.6 13.8725 19.9502 15.6885 18.7614 17.1371C17.5725 18.5857 15.9182 19.5772 14.0802 19.9428C12.2422 20.3084 10.3344 20.0254 8.68166 19.142C7.02896 18.2586 5.73371 16.8295 5.01658 15.0981C4.29945 13.3668 4.20483 11.4404 4.74883 9.64709C5.29283 7.85381 6.44179 6.30463 7.99995 5.26352C9.55812 4.2224 11.4291 3.75377 13.294 3.93746C15.159 4.12115 16.9025 4.94581 18.2276 6.27092Z" fill="#0A0D14" style="fill:#0A0D14;fill:color(display-p3 0.0392 0.0510 0.0784);fill-opacity:1;"/>
</svg>
