<svg width="25" height="24" viewBox="0 0 25 24" fill="none" xmlns="http://www.w3.org/2000/svg">
<path d="M4.44951 12.901H6.26301C6.48107 14.3993 7.23129 15.769 8.37642 16.7595C9.52154 17.7501 10.985 18.2952 12.4991 18.2952C14.0132 18.2952 15.4767 17.7501 16.6218 16.7595C17.7669 15.769 18.5171 14.3993 18.7352 12.901H20.5496C20.3277 14.8809 19.384 16.7096 17.8989 18.0375C16.4138 19.3655 14.4914 20.0997 12.4991 20.0997C10.5068 20.0997 8.58443 19.3655 7.09931 18.0375C5.61418 16.7096 4.6705 14.8809 4.44861 12.901H4.44951ZM4.44951 11.101C4.6714 9.12113 5.61508 7.29245 7.10021 5.96447C8.58533 4.63649 10.5077 3.90234 12.5 3.90234C14.4923 3.90234 16.4147 4.63649 17.8998 5.96447C19.3849 7.29245 20.3286 9.12113 20.5505 11.101H18.737C18.5189 9.6027 17.7687 8.233 16.6236 7.24247C15.4785 6.25194 14.015 5.70681 12.5009 5.70681C10.9868 5.70681 9.52334 6.25194 8.37822 7.24247C7.23309 8.233 6.48287 9.6027 6.26481 11.101H4.44951Z" fill="#0A0D14" style="fill:#0A0D14;fill:color(display-p3 0.0392 0.0510 0.0784);fill-opacity:1;"/>
</svg>
