<svg width="25" height="24" viewBox="0 0 25 24" fill="none" xmlns="http://www.w3.org/2000/svg">
<path d="M18.8 10.2H19.7C19.9387 10.2 20.1676 10.2948 20.3364 10.4636C20.5052 10.6324 20.6 10.8613 20.6 11.1V20.1C20.6 20.3387 20.5052 20.5676 20.3364 20.7364C20.1676 20.9052 19.9387 21 19.7 21H5.30002C5.06133 21 4.83241 20.9052 4.66363 20.7364C4.49485 20.5676 4.40002 20.3387 4.40002 20.1V11.1C4.40002 10.8613 4.49485 10.6324 4.66363 10.4636C4.83241 10.2948 5.06133 10.2 5.30002 10.2H6.20002V9.3C6.20002 8.47267 6.36298 7.65345 6.67958 6.88909C6.99619 6.12474 7.46024 5.43024 8.04525 4.84523C8.63026 4.26022 9.32477 3.79616 10.0891 3.47956C10.8535 3.16295 11.6727 3 12.5 3C13.3274 3 14.1466 3.16295 14.9109 3.47956C15.6753 3.79616 16.3698 4.26022 16.9548 4.84523C17.5398 5.43024 18.0039 6.12474 18.3205 6.88909C18.6371 7.65345 18.8 8.47267 18.8 9.3V10.2ZM6.20002 12V19.2H18.8V12H6.20002ZM11.6 13.8H13.4V17.4H11.6V13.8ZM17 10.2V9.3C17 8.10653 16.5259 6.96193 15.682 6.11802C14.8381 5.27411 13.6935 4.8 12.5 4.8C11.3066 4.8 10.162 5.27411 9.31804 6.11802C8.47413 6.96193 8.00002 8.10653 8.00002 9.3V10.2H17Z" fill="#0A0D14" style="fill:#0A0D14;fill:color(display-p3 0.0392 0.0510 0.0784);fill-opacity:1;"/>
</svg>
