<svg width="25" height="24" viewBox="0 0 25 24" fill="none" xmlns="http://www.w3.org/2000/svg">
<path d="M7.10002 8.40156V7.50156C7.10002 6.06939 7.66895 4.69588 8.68165 3.68319C9.69434 2.67049 11.0679 2.10156 12.5 2.10156C13.9322 2.10156 15.3057 2.67049 16.3184 3.68319C17.3311 4.69588 17.9 6.06939 17.9 7.50156V8.40156H19.7C19.9387 8.40156 20.1676 8.49638 20.3364 8.66517C20.5052 8.83395 20.6 9.06287 20.6 9.30156V20.1016C20.6 20.3403 20.5052 20.5692 20.3364 20.738C20.1676 20.9067 19.9387 21.0016 19.7 21.0016H5.30002C5.06133 21.0016 4.83241 20.9067 4.66363 20.738C4.49485 20.5692 4.40002 20.3403 4.40002 20.1016V9.30156C4.40002 9.06287 4.49485 8.83395 4.66363 8.66517C4.83241 8.49638 5.06133 8.40156 5.30002 8.40156H7.10002ZM18.8 10.2016H6.20002V19.2016H18.8V10.2016ZM11.6 15.3604C11.2569 15.1622 10.9887 14.8564 10.837 14.4903C10.6854 14.1243 10.6588 13.7184 10.7614 13.3356C10.8639 12.9529 11.0899 12.6147 11.4043 12.3735C11.7186 12.1323 12.1038 12.0015 12.5 12.0015C12.8963 12.0015 13.2814 12.1323 13.5958 12.3735C13.9102 12.6147 14.1361 12.9529 14.2387 13.3356C14.3412 13.7184 14.3146 14.1243 14.163 14.4903C14.0114 14.8564 13.7432 15.1622 13.4 15.3604V17.4016H11.6V15.3604ZM8.90002 8.40156H16.1V7.50156C16.1 6.54678 15.7207 5.63111 15.0456 4.95598C14.3705 4.28085 13.4548 3.90156 12.5 3.90156C11.5452 3.90156 10.6296 4.28085 9.95444 4.95598C9.27931 5.63111 8.90002 6.54678 8.90002 7.50156V8.40156Z" fill="#0A0D14" style="fill:#0A0D14;fill:color(display-p3 0.0392 0.0510 0.0784);fill-opacity:1;"/>
</svg>
