<svg width="25" height="24" viewBox="0 0 25 24" fill="none" xmlns="http://www.w3.org/2000/svg">
<path d="M17.9 8.40156H19.7C19.9387 8.40156 20.1676 8.49638 20.3364 8.66517C20.5052 8.83395 20.6 9.06287 20.6 9.30156V20.1016C20.6 20.3403 20.5052 20.5692 20.3364 20.738C20.1676 20.9067 19.9387 21.0016 19.7 21.0016H5.29999C5.0613 21.0016 4.83238 20.9067 4.6636 20.738C4.49482 20.5692 4.39999 20.3403 4.39999 20.1016V9.30156C4.39999 9.06287 4.49482 8.83395 4.6636 8.66517C4.83238 8.49638 5.0613 8.40156 5.29999 8.40156H7.09999V7.50156C7.09999 6.06939 7.66892 4.69588 8.68162 3.68319C9.69431 2.67049 11.0678 2.10156 12.5 2.10156C13.9322 2.10156 15.3057 2.67049 16.3184 3.68319C17.3311 4.69588 17.9 6.06939 17.9 7.50156V8.40156ZM6.19999 10.2016V19.2016H18.8V10.2016H6.19999ZM11.6 13.8016H13.4V15.6016H11.6V13.8016ZM7.99999 13.8016H9.79999V15.6016H7.99999V13.8016ZM15.2 13.8016H17V15.6016H15.2V13.8016ZM16.1 8.40156V7.50156C16.1 6.54678 15.7207 5.63111 15.0456 4.95598C14.3704 4.28085 13.4548 3.90156 12.5 3.90156C11.5452 3.90156 10.6295 4.28085 9.95441 4.95598C9.27928 5.63111 8.89999 6.54678 8.89999 7.50156V8.40156H16.1Z" fill="#0A0D14" style="fill:#0A0D14;fill:color(display-p3 0.0392 0.0510 0.0784);fill-opacity:1;"/>
</svg>
