<svg width="25" height="24" viewBox="0 0 25 24" fill="none" xmlns="http://www.w3.org/2000/svg">
<path d="M7.99999 10.1984H19.7C19.9387 10.1984 20.1676 10.2932 20.3364 10.462C20.5052 10.6308 20.6 10.8597 20.6 11.0984V20.0984C20.6 20.3371 20.5052 20.566 20.3364 20.7348C20.1676 20.9036 19.9387 20.9984 19.7 20.9984H5.29999C5.0613 20.9984 4.83238 20.9036 4.6636 20.7348C4.49482 20.566 4.39999 20.3371 4.39999 20.0984V11.0984C4.39999 10.8597 4.49482 10.6308 4.6636 10.462C4.83238 10.2932 5.0613 10.1984 5.29999 10.1984H6.19999V9.29837C6.19948 7.87881 6.67842 6.50067 7.55917 5.38736C8.43991 4.27406 9.67085 3.49083 11.0524 3.16466C12.434 2.83848 13.8853 2.98847 15.1709 3.59031C16.4566 4.19215 17.5014 5.21057 18.1358 6.48047L16.5257 7.28507C16.0725 6.37789 15.3263 5.65035 14.4078 5.22042C13.4894 4.79049 12.4527 4.68337 11.4658 4.91643C10.4789 5.14949 9.59959 5.70906 8.97052 6.50442C8.34144 7.29978 7.99945 8.28431 7.99999 9.29837V10.1984ZM10.7 14.6984V16.4984H14.3V14.6984H10.7Z" fill="#0A0D14" style="fill:#0A0D14;fill:color(display-p3 0.0392 0.0510 0.0784);fill-opacity:1;"/>
</svg>
