<svg width="25" height="24" viewBox="0 0 25 24" fill="none" xmlns="http://www.w3.org/2000/svg">
<path d="M10.7 11.1V8.4L15.2 12L10.7 15.6V12.9H2.59998V11.1H10.7ZM3.91218 14.7H5.82378C6.45202 16.2472 7.59831 17.528 9.06658 18.3233C10.5348 19.1187 12.2339 19.3792 13.873 19.0603C15.5121 18.7413 16.9895 17.8628 18.0524 16.5749C19.1153 15.287 19.6977 13.6699 19.7 12C19.7009 10.3284 19.1202 8.70855 18.0574 7.4183C16.9946 6.12805 15.516 5.2478 13.8751 4.92853C12.2343 4.60926 10.5335 4.87087 9.06448 5.66848C7.59543 6.46609 6.4497 7.75 5.82378 9.3H3.91218C5.05878 5.6487 8.46978 3 12.5 3C17.4707 3 21.5 7.0293 21.5 12C21.5 16.9707 17.4707 21 12.5 21C8.46978 21 5.05878 18.3513 3.91218 14.7Z" fill="#0A0D14" style="fill:#0A0D14;fill:color(display-p3 0.0392 0.0510 0.0784);fill-opacity:1;"/>
</svg>
