<svg width="25" height="24" viewBox="0 0 25 24" fill="none" xmlns="http://www.w3.org/2000/svg">
<path d="M5.3 14.7H7.1V19.2H17.9V4.8H7.1V9.3H5.3V3.9C5.3 3.66131 5.39482 3.43239 5.5636 3.2636C5.73239 3.09482 5.96131 3 6.2 3H18.8C19.0387 3 19.2676 3.09482 19.4364 3.2636C19.6052 3.43239 19.7 3.66131 19.7 3.9V20.1C19.7 20.3387 19.6052 20.5676 19.4364 20.7364C19.2676 20.9052 19.0387 21 18.8 21H6.2C5.96131 21 5.73239 20.9052 5.5636 20.7364C5.39482 20.5676 5.3 20.3387 5.3 20.1V14.7ZM10.7 11.1V8.4L15.2 12L10.7 15.6V12.9H3.5V11.1H10.7Z" fill="#0A0D14" style="fill:#0A0D14;fill:color(display-p3 0.0392 0.0510 0.0784);fill-opacity:1;"/>
</svg>
