<svg width="25" height="24" viewBox="0 0 25 24" fill="none" xmlns="http://www.w3.org/2000/svg">
<path d="M6.20001 11.1H13.4V12.9H6.20001V15.6L1.70001 12L6.20001 8.4V11.1ZM5.30001 17.4H7.73721C8.77643 18.3165 10.058 18.9137 11.4282 19.1198C12.7984 19.326 14.199 19.1325 15.4619 18.5624C16.7248 17.9923 17.7964 17.0699 18.5481 15.9058C19.2997 14.7418 19.6996 13.3856 19.6996 12C19.6996 10.6144 19.2997 9.25819 18.5481 8.09417C17.7964 6.93015 16.7248 6.00775 15.4619 5.43765C14.199 4.86755 12.7984 4.67398 11.4282 4.88015C10.058 5.08633 8.77643 5.6835 7.73721 6.6H5.30001C6.13761 5.48146 7.22451 4.57366 8.47438 3.94873C9.72424 3.3238 11.1026 2.99895 12.5 3C17.4707 3 21.5 7.0293 21.5 12C21.5 16.9707 17.4707 21 12.5 21C11.1026 21.001 9.72424 20.6762 8.47438 20.0513C7.22451 19.4263 6.13761 18.5185 5.30001 17.4Z" fill="#0A0D14" style="fill:#0A0D14;fill:color(display-p3 0.0392 0.0510 0.0784);fill-opacity:1;"/>
</svg>
