<svg width="25" height="24" viewBox="0 0 25 24" fill="none" xmlns="http://www.w3.org/2000/svg">
<path d="M5.30001 17.4H7.10001V19.2H17.9V4.8H7.10001V6.6H5.30001V3.9C5.30001 3.66131 5.39483 3.43239 5.56361 3.2636C5.73239 3.09482 5.96131 3 6.20001 3H18.8C19.0387 3 19.2676 3.09482 19.4364 3.2636C19.6052 3.43239 19.7 3.66131 19.7 3.9V20.1C19.7 20.3387 19.6052 20.5676 19.4364 20.7364C19.2676 20.9052 19.0387 21 18.8 21H6.20001C5.96131 21 5.73239 20.9052 5.56361 20.7364C5.39483 20.5676 5.30001 20.3387 5.30001 20.1V17.4ZM7.10001 11.1H13.4V12.9H7.10001V15.6L2.60001 12L7.10001 8.4V11.1Z" fill="#0A0D14" style="fill:#0A0D14;fill:color(display-p3 0.0392 0.0510 0.0784);fill-opacity:1;"/>
</svg>
