<svg width="25" height="24" viewBox="0 0 25 24" fill="none" xmlns="http://www.w3.org/2000/svg">
<path d="M12.5 21C7.5293 21 3.5 16.9707 3.5 12C3.5 7.0293 7.5293 3 12.5 3C13.8974 2.99895 15.2758 3.3238 16.5256 3.94873C17.7755 4.57366 18.8624 5.48146 19.7 6.6H17.261C16.2217 5.68359 14.9401 5.08652 13.5698 4.88046C12.1996 4.6744 10.7991 4.86809 9.5362 5.43829C8.27334 6.0085 7.20183 6.93099 6.45026 8.09507C5.69869 9.25915 5.29898 10.6154 5.2991 12.001C5.29921 13.3866 5.69915 14.7428 6.45091 15.9067C7.20268 17.0707 8.27434 17.993 9.53729 18.563C10.8002 19.133 12.2008 19.3264 13.571 19.1202C14.9412 18.9139 16.2228 18.3166 17.2619 17.4H19.7009C18.8632 18.5187 17.7762 19.4265 16.5261 20.0515C15.2761 20.6764 13.8975 21.0012 12.5 21ZM18.8 15.6V12.9H11.6V11.1H18.8V8.4L23.3 12L18.8 15.6Z" fill="#0A0D14" style="fill:#0A0D14;fill:color(display-p3 0.0392 0.0510 0.0784);fill-opacity:1;"/>
</svg>
