<svg width="25" height="24" viewBox="0 0 25 24" fill="none" xmlns="http://www.w3.org/2000/svg">
<path d="M12.5 6C10.5571 6 8.82954 6.9229 7.73205 8.35705L9.5 10.125H5V5.625L6.66397 7.28897C8.03796 5.589 10.1417 4.5 12.5 4.5C16.6421 4.5 20 7.85786 20 12H18.5C18.5 8.68629 15.8137 6 12.5 6ZM6.5 12C6.5 15.3137 9.18629 18 12.5 18C14.4429 18 16.1705 17.0771 17.268 15.643L15.5 13.875H20V18.375L18.3361 16.7111C16.9621 18.411 14.8583 19.5 12.5 19.5C8.35786 19.5 5 16.1421 5 12H6.5Z" fill="#0A0D14" style="fill:#0A0D14;fill:color(display-p3 0.0392 0.0510 0.0784);fill-opacity:1;"/>
</svg>
