<svg width="25" height="24" viewBox="0 0 25 24" fill="none" xmlns="http://www.w3.org/2000/svg">
<path d="M12.5 6C14.5615 6 16.3812 7.0397 17.4617 8.625H15.5V10.125H20V5.625H18.5V7.49952C17.1321 5.67875 14.9543 4.5 12.5 4.5C8.35786 4.5 5 7.85786 5 12H6.5C6.5 8.68629 9.18629 6 12.5 6ZM18.5 12C18.5 15.3137 15.8137 18 12.5 18C10.4386 18 8.61881 16.9603 7.53832 15.375H9.5V13.875H5V18.375H6.5V16.5005C7.86786 18.3212 10.0457 19.5 12.5 19.5C16.6421 19.5 20 16.1421 20 12H18.5Z" fill="#0A0D14" style="fill:#0A0D14;fill:color(display-p3 0.0392 0.0510 0.0784);fill-opacity:1;"/>
</svg>
