<svg width="25" height="24" viewBox="0 0 25 24" fill="none" xmlns="http://www.w3.org/2000/svg">
<path d="M12.5 6C10.4386 6 8.61881 7.0397 7.53832 8.625H9.5V10.125H5V5.625H6.5V7.49952C7.86786 5.67875 10.0457 4.5 12.5 4.5C16.6421 4.5 20 7.85786 20 12H18.5C18.5 8.68629 15.8137 6 12.5 6ZM6.5 12C6.5 15.3137 9.18629 18 12.5 18C14.5615 18 16.3812 16.9603 17.4617 15.375H15.5V13.875H20V18.375H18.5V16.5005C17.1321 18.3212 14.9543 19.5 12.5 19.5C8.35786 19.5 5 16.1421 5 12H6.5Z" fill="#0A0D14" style="fill:#0A0D14;fill:color(display-p3 0.0392 0.0510 0.0784);fill-opacity:1;"/>
</svg>
