<svg width="25" height="24" viewBox="0 0 25 24" fill="none" xmlns="http://www.w3.org/2000/svg">
<path d="M12.5 6C14.4429 6 16.1704 6.9229 17.268 8.35705L15.5 10.125H20V5.625L18.3361 7.28897C16.9621 5.589 14.8583 4.5 12.5 4.5C8.35786 4.5 5 7.85786 5 12H6.5C6.5 8.68629 9.18629 6 12.5 6ZM18.5 12C18.5 15.3137 15.8137 18 12.5 18C10.5571 18 8.82954 17.0771 7.73205 15.643L9.5 13.875H5V18.375L6.66397 16.7111C8.03796 18.411 10.1417 19.5 12.5 19.5C16.6421 19.5 20 16.1421 20 12H18.5Z" fill="#0A0D14" style="fill:#0A0D14;fill:color(display-p3 0.0392 0.0510 0.0784);fill-opacity:1;"/>
</svg>
