<svg width="25" height="24" viewBox="0 0 25 24" fill="none" xmlns="http://www.w3.org/2000/svg">
<path d="M6.64997 19.1999C7.39517 19.1999 7.99997 19.8048 7.99997 20.5499C7.99997 21.2951 7.39517 21.9 6.64997 21.9C5.90477 21.9 5.29997 21.2951 5.29997 20.5499C5.29997 19.8048 5.90477 19.1999 6.64997 19.1999ZM18.35 19.1999C19.0952 19.1999 19.7 19.8048 19.7 20.5499C19.7 21.2951 19.0952 21.9 18.35 21.9C17.6048 21.9 17 21.2951 17 20.5499C17 19.8048 17.6048 19.1999 18.35 19.1999ZM3.65477 2.78125L7.09907 6.22645V16.4999H19.7V18.2999H6.19997C5.70317 18.2999 5.29997 17.8967 5.29997 17.4V6.97165L2.38037 4.05475L3.65387 2.78125H3.65477ZM16.1 3.89995C16.5968 3.89995 17 4.30315 17 4.79995V6.59995H19.6937C20.195 6.59995 20.6 7.01035 20.6 7.49545V14.7044C20.6 15.1994 20.195 15.5999 19.6937 15.5999H8.90627C8.40497 15.5999 7.99997 15.1895 7.99997 14.7044V7.49545C7.99997 7.00045 8.40497 6.59995 8.90627 6.59995H11.5991L11.6 4.79995C11.6 4.30315 12.0032 3.89995 12.5 3.89995H16.1ZM11.6 8.39995H10.7V13.7999H11.6V8.39995ZM17.9 8.39995H17V13.7999H17.9V8.39995ZM15.2 5.69995H13.4V6.59995H15.2V5.69995Z" fill="#0A0D14" style="fill:#0A0D14;fill:color(display-p3 0.0392 0.0510 0.0784);fill-opacity:1;"/>
</svg>
