<svg width="25" height="24" viewBox="0 0 25 24" fill="none" xmlns="http://www.w3.org/2000/svg">
<path d="M15.2 3.90039C15.6968 3.90039 16.1 4.30359 16.1 4.80039V6.60039H19.7C20.1968 6.60039 20.6 7.00359 20.6 7.50039V18.3004H22.4V20.1004H2.59998V18.3004H4.39998V7.50039C4.39998 7.00359 4.80318 6.60039 5.29998 6.60039H8.89998V4.80039C8.89998 4.30359 9.30318 3.90039 9.79998 3.90039H15.2ZM8.89998 8.40039H6.19998V18.3004H8.89998V8.40039ZM14.3 8.40039H10.7V18.3004H14.3V8.40039ZM18.8 8.40039H16.1V18.3004H18.8V8.40039ZM14.3 5.70039H10.7V6.60039H14.3V5.70039Z" fill="#0A0D14" style="fill:#0A0D14;fill:color(display-p3 0.0392 0.0510 0.0784);fill-opacity:1;"/>
</svg>
