<svg width="25" height="24" viewBox="0 0 25 24" fill="none" xmlns="http://www.w3.org/2000/svg">
<path d="M21.5009 16.5C21.5 20.1 21.5 20.1 17.9009 20.1C14.3009 20.1 13.4009 17.4 13.4009 14.7C13.4009 14.3598 13.3847 13.8738 13.3775 13.305L15.1982 14.3571L15.2 14.7C15.2 17.1984 15.9344 18.3 17.9 18.3C18.926 18.3 19.349 18.2937 19.6667 18.2658C19.6937 17.9499 19.7 17.526 19.7 16.5C19.7 13.6155 19.0673 11.0703 18.0485 9.39C17.2943 8.1462 16.5968 7.7313 16.2197 7.8573C15.956 7.9455 15.6752 8.4423 15.4718 9.318L13.8608 8.3883C14.1929 7.311 14.7446 6.4524 15.65 6.15C18.35 5.25 21.5027 9.75 21.5 16.5H21.5009ZM9.35 6.15C10.2563 6.4524 10.808 7.311 11.1401 8.3883L9.5291 9.318C9.3257 8.4423 9.044 7.9455 8.7812 7.8573C8.4032 7.7313 7.7057 8.1453 6.9524 9.3891C5.9327 11.0703 5.3 13.6155 5.3 16.5C5.3 17.526 5.3063 17.949 5.3342 18.2658C5.6501 18.2937 6.074 18.3 7.1 18.3C9.0656 18.3 9.8 17.1984 9.8 14.7L9.8036 14.3562L11.6243 13.305C11.6153 13.8747 11.6 14.3598 11.6 14.7C11.6 17.4 10.7 20.1 7.1 20.1C3.5 20.1 3.5 20.1 3.5 16.5C3.5 9.75 6.65 5.25 9.35 6.15ZM13.4 3V9.6798L17.6264 12.1206L16.7264 13.6794L12.5 11.2395L8.2736 13.6794L7.3736 12.1206L11.6 9.6798V3H13.4Z" fill="#0A0D14" style="fill:#0A0D14;fill:color(display-p3 0.0392 0.0510 0.0784);fill-opacity:1;"/>
</svg>
