<svg width="25" height="24" viewBox="0 0 25 24" fill="none" xmlns="http://www.w3.org/2000/svg">
<path d="M9.35 6.15C10.6208 6.573 11.1932 8.0931 11.4443 9.7707L7.3736 12.1206L8.2736 13.6794L11.6126 11.7525C11.654 12.9711 11.6 14.0772 11.6 14.7C11.6 17.4 10.7 20.1 7.1 20.1C3.5 20.1 3.5 20.1 3.5 16.5C3.5 9.75 6.65 5.25 9.35 6.15ZM21.5009 16.5V16.8924C21.4964 20.1 21.3659 20.1 17.9009 20.1C14.3009 20.1 13.4009 17.4 13.4009 14.7C13.4009 14.0781 13.3469 12.972 13.3883 11.7534L16.7273 13.6794L17.6273 12.1206L13.5566 9.7716C13.8077 8.0931 14.3801 6.5739 15.6509 6.15C18.3509 5.25 21.5009 9.75 21.5009 16.5ZM13.4 3V11.1H11.6V3H13.4Z" fill="#0A0D14" style="fill:#0A0D14;fill:color(display-p3 0.0392 0.0510 0.0784);fill-opacity:1;"/>
</svg>
