<svg width="25" height="24" viewBox="0 0 25 24" fill="none" xmlns="http://www.w3.org/2000/svg">
<path d="M15.3791 10.1508C14.9887 9.78096 14.7376 9.28803 14.6681 8.75486L14.3054 5.98016L11.8484 7.31756C11.3759 7.57498 10.8293 7.66175 10.3004 7.56326L7.54995 7.05026L8.06295 9.80066C8.16144 10.3296 8.07467 10.8762 7.81725 11.3487L6.47985 13.8057L9.25455 14.1684C9.7874 14.2381 10.28 14.4892 10.6496 14.8794L12.5738 16.9107L13.7762 14.3844C14.0069 13.8989 14.3979 13.5076 14.8832 13.2765L17.4104 12.0741L15.3791 10.1508ZM15.4016 15.1575L13.4099 19.3425C13.3722 19.4216 13.3158 19.4904 13.2456 19.5428C13.1754 19.5953 13.0935 19.6299 13.0069 19.6436C12.9204 19.6574 12.8318 19.6498 12.7488 19.6217C12.6658 19.5935 12.5909 19.5455 12.5306 19.482L9.34275 16.1169C9.25759 16.0271 9.14416 15.9692 9.02145 15.9531L4.42515 15.3519C4.33831 15.3404 4.25556 15.308 4.18403 15.2575C4.1125 15.2069 4.05434 15.1397 4.01457 15.0617C3.9748 14.9836 3.9546 14.8971 3.95573 14.8095C3.95686 14.7219 3.97928 14.6359 4.02105 14.559L6.23685 10.4874C6.29576 10.3785 6.31546 10.2526 6.29265 10.131L5.44395 5.57426C5.42784 5.48801 5.43298 5.39913 5.45894 5.31532C5.48489 5.2315 5.53088 5.15528 5.59293 5.09323C5.65497 5.03119 5.7312 4.9852 5.81501 4.95924C5.89883 4.93328 5.9877 4.92814 6.07395 4.94426L10.6307 5.79296C10.7523 5.81576 10.8782 5.79606 10.9871 5.73716L15.0587 3.52136C15.1357 3.47958 15.2218 3.45718 15.3094 3.4561C15.3971 3.45502 15.4836 3.47529 15.5617 3.51516C15.6398 3.55503 15.7069 3.6133 15.7574 3.68494C15.8079 3.75658 15.8402 3.83944 15.8516 3.92636L16.4528 8.52176C16.4689 8.64447 16.5267 8.75789 16.6166 8.84306L19.9817 12.0309C20.0452 12.0912 20.0932 12.1661 20.1213 12.2491C20.1495 12.3321 20.1571 12.4207 20.1433 12.5072C20.1296 12.5938 20.095 12.6757 20.0425 12.7459C19.9901 12.8161 19.9213 12.8725 19.8422 12.9102L15.6572 14.9019C15.5451 14.9552 15.4549 15.0454 15.4016 15.1575ZM16.1189 16.8918L17.3915 15.6192L21.2102 19.437L19.9367 20.7105L16.1189 16.8918Z" fill="#0A0D14" style="fill:#0A0D14;fill:color(display-p3 0.0392 0.0510 0.0784);fill-opacity:1;"/>
</svg>
