<svg width="25" height="24" viewBox="0 0 25 24" fill="none" xmlns="http://www.w3.org/2000/svg">
<path d="M21.5 19.2062C21.4984 19.4426 21.4038 19.6688 21.2367 19.836C21.0697 20.0032 20.8436 20.098 20.6072 20.0999H4.39281C4.15594 20.0997 3.92886 20.0054 3.76145 19.8378C3.59405 19.6702 3.50001 19.4431 3.50001 19.2062V18.2999H19.7V7.7699L12.5 14.2499L3.50001 6.1499V4.7999C3.50001 4.56121 3.59483 4.33229 3.76362 4.16351C3.9324 3.99472 4.16132 3.8999 4.40001 3.8999H20.6C20.8387 3.8999 21.0676 3.99472 21.2364 4.16351C21.4052 4.33229 21.5 4.56121 21.5 4.7999V19.2062ZM5.69061 5.6999L12.5 11.8289L19.3094 5.6999H5.69061ZM1.70001 14.6999H8.90001V16.4999H1.70001V14.6999ZM1.70001 10.1999H6.20001V11.9999H1.70001V10.1999Z" fill="#0A0D14" style="fill:#0A0D14;fill:color(display-p3 0.0392 0.0510 0.0784);fill-opacity:1;"/>
</svg>
