<svg width="25" height="24" viewBox="0 0 25 24" fill="none" xmlns="http://www.w3.org/2000/svg">
<path d="M15.4394 11.5985L19.3886 8.1803L18.2114 6.8195L12.5549 11.7146L6.7823 6.8141L5.6177 8.1857L12.5495 14.0717C11.927 15.0701 11.598 16.2234 11.6 17.3999C11.6 18.3665 11.8178 19.2809 12.2066 20.0999H4.4C4.16131 20.0999 3.93239 20.0051 3.7636 19.8363C3.59482 19.6675 3.5 19.4386 3.5 19.1999V4.7999C3.5 4.56121 3.59482 4.33229 3.7636 4.16351C3.93239 3.99472 4.16131 3.8999 4.4 3.8999H20.6C20.8387 3.8999 21.0676 3.99472 21.2364 4.16351C21.4052 4.33229 21.5 4.56121 21.5 4.7999V12.2294C20.4444 11.4923 19.1875 11.0979 17.9 11.0999C17.027 11.0999 16.1954 11.2772 15.4394 11.5985ZM16.7354 19.8371C17.2394 20.0782 17.8057 20.1571 18.3564 20.0628C18.907 19.9685 19.4149 19.7058 19.8099 19.3107C20.205 18.9157 20.4677 18.4078 20.562 17.8572C20.6563 17.3065 20.5774 16.7402 20.3363 16.2362L16.7363 19.8362L16.7354 19.8371ZM15.4628 18.5636L19.0637 14.9636C18.5597 14.7225 17.9934 14.6436 17.4427 14.7379C16.8921 14.8322 16.3842 15.0949 15.9892 15.49C15.5941 15.885 15.3314 16.3929 15.2371 16.9435C15.1428 17.4942 15.2217 18.0605 15.4628 18.5645V18.5636ZM17.9 21.8999C16.7065 21.8999 15.5619 21.4258 14.718 20.5819C13.8741 19.738 13.4 18.5934 13.4 17.3999C13.4 16.2064 13.8741 15.0618 14.718 14.2179C15.5619 13.374 16.7065 12.8999 17.9 12.8999C19.0935 12.8999 20.2381 13.374 21.082 14.2179C21.9259 15.0618 22.4 16.2064 22.4 17.3999C22.4 18.5934 21.9259 19.738 21.082 20.5819C20.2381 21.4258 19.0935 21.8999 17.9 21.8999Z" fill="#0A0D14" style="fill:#0A0D14;fill:color(display-p3 0.0392 0.0510 0.0784);fill-opacity:1;"/>
</svg>
