<svg width="25" height="24" viewBox="0 0 25 24" fill="none" xmlns="http://www.w3.org/2000/svg">
<path d="M21.5 13.2068C20.5385 12.8662 19.5003 12.8049 18.5055 13.03C17.5106 13.2551 16.5999 13.7573 15.8786 14.4785C15.1574 15.1998 14.6552 16.1105 14.4301 17.1054C14.205 18.1002 14.2663 19.1385 14.6069 20.0999H4.4C4.16131 20.0999 3.93239 20.0051 3.7636 19.8363C3.59482 19.6675 3.5 19.4386 3.5 19.1999V4.7999C3.5 4.56121 3.59482 4.33229 3.7636 4.16351C3.93239 3.99472 4.16131 3.8999 4.4 3.8999H20.6C20.8387 3.8999 21.0676 3.99472 21.2364 4.16351C21.4052 4.33229 21.5 4.56121 21.5 4.7999V13.2068ZM12.554 11.7146L6.7832 6.8141L5.6177 8.1857L12.5657 14.0852L19.3886 8.1812L18.2114 6.8195L12.5549 11.7146H12.554ZM17.045 18.7931C16.9848 18.4671 16.9848 18.1327 17.045 17.8067L16.1324 17.2793L17.0324 15.7205L17.945 16.2479C18.1952 16.0337 18.4841 15.8654 18.8 15.7529V14.6999H20.6V15.7529C20.9159 15.8654 21.2048 16.0337 21.455 16.2479L22.3676 15.7205L23.2676 17.2793L22.355 17.8067C22.4152 18.1327 22.4152 18.4671 22.355 18.7931L23.2676 19.3205L22.3676 20.8793L21.455 20.3519C21.2029 20.5681 20.913 20.7359 20.6 20.8469V21.8999H18.8V20.8469C18.487 20.7359 18.1971 20.5681 17.945 20.3519L17.0324 20.8793L16.1324 19.3205L17.045 18.7931ZM19.7 19.1999C19.9387 19.1999 20.1676 19.1051 20.3364 18.9363C20.5052 18.7675 20.6 18.5386 20.6 18.2999C20.6 18.0612 20.5052 17.8323 20.3364 17.6635C20.1676 17.4947 19.9387 17.3999 19.7 17.3999C19.4613 17.3999 19.2324 17.4947 19.0636 17.6635C18.8948 17.8323 18.8 18.0612 18.8 18.2999C18.8 18.5386 18.8948 18.7675 19.0636 18.9363C19.2324 19.1051 19.4613 19.1999 19.7 19.1999Z" fill="#0A0D14" style="fill:#0A0D14;fill:color(display-p3 0.0392 0.0510 0.0784);fill-opacity:1;"/>
</svg>
