<svg width="25" height="24" viewBox="0 0 25 24" fill="none" xmlns="http://www.w3.org/2000/svg">
<path d="M4.4 4.5H20.6C20.8387 4.5 21.0676 4.59482 21.2364 4.7636C21.4052 4.93239 21.5 5.16131 21.5 5.4V18.6C21.5 18.8387 21.4052 19.0676 21.2364 19.2364C21.0676 19.4052 20.8387 19.5 20.6 19.5H4.4C4.16131 19.5 3.93239 19.4052 3.7636 19.2364C3.59482 19.0676 3.5 18.8387 3.5 18.6V5.4C3.5 5.16131 3.59482 4.93239 3.7636 4.7636C3.93239 4.59482 4.16131 4.5 4.4 4.5ZM12.554 12.3147L6.7832 7.4142L5.6177 8.7858L12.5657 14.6853L19.3886 8.7813L18.2114 7.4196L12.554 12.3147Z" fill="#0A0D14" style="fill:#0A0D14;fill:color(display-p3 0.0392 0.0510 0.0784);fill-opacity:1;"/>
</svg>
