<svg width="25" height="24" viewBox="0 0 25 24" fill="none" xmlns="http://www.w3.org/2000/svg">
<path d="M19.7 14.2499V22.3499L16.7003 20.0999H14.3V16.4999H16.7003L19.7 14.2499ZM20.6 3.8999C20.8387 3.8999 21.0676 3.99472 21.2364 4.16351C21.4052 4.33229 21.5 4.56121 21.5 4.7999V14.276C20.6066 13.4754 19.4719 12.9951 18.2752 12.911C17.0785 12.8268 15.8878 13.1436 14.8911 13.8113C13.8944 14.479 13.1484 15.4595 12.7708 16.5983C12.3933 17.737 12.4056 18.969 12.806 20.0999H4.40183C4.16314 20.0999 3.93422 20.0051 3.76543 19.8363C3.59665 19.6675 3.50183 19.4386 3.50183 19.1999V4.7999C3.50183 4.56121 3.59665 4.33229 3.76543 4.16351C3.93422 3.99472 4.16314 3.8999 4.40183 3.8999H20.6018H20.6ZM20.6 16.4999C21.0671 16.4978 21.5167 16.6774 21.8539 17.0006C22.191 17.3239 22.3893 17.7656 22.4068 18.2323C22.4243 18.6991 22.2597 19.1544 21.9478 19.502C21.6358 19.8497 21.201 20.0625 20.735 20.0954L20.6 20.0999V16.4999ZM6.78233 6.8141L5.61773 8.1857L12.5657 14.0852L19.3886 8.1812L18.2114 6.8195L12.554 11.7137L6.78233 6.8141Z" fill="#0A0D14" style="fill:#0A0D14;fill:color(display-p3 0.0392 0.0510 0.0784);fill-opacity:1;"/>
</svg>
