<svg width="25" height="24" viewBox="0 0 25 24" fill="none" xmlns="http://www.w3.org/2000/svg">
<path d="M18.6227 8.8438C19.5155 9.27862 20.5267 9.40735 21.5 9.2101V19.2001C21.5 19.4388 21.4052 19.6677 21.2364 19.8365C21.0676 20.0053 20.8387 20.1001 20.6 20.1001H4.4C4.16131 20.1001 3.93239 20.0053 3.7636 19.8365C3.59482 19.6677 3.5 19.4388 3.5 19.2001V4.8001C3.5 4.5614 3.59482 4.33248 3.7636 4.1637C3.93239 3.99492 4.16131 3.9001 4.4 3.9001H16.19C16.1306 4.1908 16.1 4.4923 16.1 4.8001C16.0985 5.86934 16.4793 6.9039 17.1737 7.717L12.5549 11.7148L6.7823 6.8143L5.6177 8.1859L12.5657 14.0854L18.6227 8.8438ZM20.6 7.5001C20.2454 7.5001 19.8943 7.43026 19.5668 7.29457C19.2392 7.15888 18.9415 6.96 18.6908 6.70929C18.4401 6.45857 18.2412 6.16092 18.1055 5.83334C17.9698 5.50576 17.9 5.15467 17.9 4.8001C17.9 4.44553 17.9698 4.09443 18.1055 3.76685C18.2412 3.43927 18.4401 3.14163 18.6908 2.89091C18.9415 2.64019 19.2392 2.44131 19.5668 2.30562C19.8943 2.16994 20.2454 2.1001 20.6 2.1001C21.3161 2.1001 22.0028 2.38456 22.5092 2.89091C23.0155 3.39726 23.3 4.08401 23.3 4.8001C23.3 5.51618 23.0155 6.20294 22.5092 6.70929C22.0028 7.21563 21.3161 7.5001 20.6 7.5001Z" fill="#0A0D14" style="fill:#0A0D14;fill:color(display-p3 0.0392 0.0510 0.0784);fill-opacity:1;"/>
</svg>
