<svg width="25" height="24" viewBox="0 0 25 24" fill="none" xmlns="http://www.w3.org/2000/svg">
<path d="M21.5 13.7999H19.7V7.7141L12.5648 14.1041L5.3 7.6943V18.2999H15.2V20.0999H4.4C4.16131 20.0999 3.93239 20.0051 3.7636 19.8363C3.59482 19.6675 3.5 19.4386 3.5 19.1999V4.7999C3.5 4.56121 3.59482 4.33229 3.7636 4.16351C3.93239 3.99472 4.16131 3.8999 4.4 3.8999H20.6C20.8387 3.8999 21.0676 3.99472 21.2364 4.16351C21.4052 4.33229 21.5 4.56121 21.5 4.7999V13.7999ZM5.7599 5.6999L12.5549 11.6957L19.2518 5.6999H5.7599ZM20.9726 18.2999L22.8824 20.2088L21.6089 21.4823L19.7 19.5725L17.7911 21.4823L16.5176 20.2088L18.4274 18.2999L16.5176 16.391L17.7911 15.1175L19.7 17.0273L21.6089 15.1175L22.8824 16.391L20.9726 18.2999Z" fill="#0A0D14" style="fill:#0A0D14;fill:color(display-p3 0.0392 0.0510 0.0784);fill-opacity:1;"/>
</svg>
