<svg width="25" height="24" viewBox="0 0 25 24" fill="none" xmlns="http://www.w3.org/2000/svg">
<path d="M21.5 11.9999C20.8928 11.5449 20.1803 11.2507 19.429 11.1447C18.6776 11.0388 17.9116 11.1245 17.2022 11.3939C16.4928 11.6633 15.863 12.1076 15.3714 12.6856C14.8797 13.2636 14.5421 13.9565 14.39 14.6999H13.4V20.0999H4.4C4.16131 20.0999 3.93239 20.0051 3.7636 19.8363C3.59482 19.6675 3.5 19.4386 3.5 19.1999V4.7999C3.5 4.56121 3.59482 4.33229 3.7636 4.16351C3.93239 3.99472 4.16131 3.8999 4.4 3.8999H20.6C20.8387 3.8999 21.0676 3.99472 21.2364 4.16351C21.4052 4.33229 21.5 4.56121 21.5 4.7999V11.9999ZM12.554 11.7146L6.7832 6.8141L5.6177 8.1857L12.5657 14.0852L19.3886 8.1812L18.2114 6.8195L12.5549 11.7146H12.554ZM21.5 16.4999H22.4V20.9999H15.2V16.4999H16.1V15.5999C16.1 14.8838 16.3845 14.1971 16.8908 13.6907C17.3972 13.1844 18.0839 12.8999 18.8 12.8999C19.5161 12.8999 20.2028 13.1844 20.7092 13.6907C21.2155 14.1971 21.5 14.8838 21.5 15.5999V16.4999ZM19.7 16.4999V15.5999C19.7 15.3612 19.6052 15.1323 19.4364 14.9635C19.2676 14.7947 19.0387 14.6999 18.8 14.6999C18.5613 14.6999 18.3324 14.7947 18.1636 14.9635C17.9948 15.1323 17.9 15.3612 17.9 15.5999V16.4999H19.7Z" fill="#0A0D14" style="fill:#0A0D14;fill:color(display-p3 0.0392 0.0510 0.0784);fill-opacity:1;"/>
</svg>
