<svg width="25" height="24" viewBox="0 0 25 24" fill="none" xmlns="http://www.w3.org/2000/svg">
<path d="M19.7 7.7141L12.5648 14.1041L5.3 7.6943V18.2999H11.663C11.7525 18.9239 11.9357 19.5307 12.2066 20.0999H4.4C4.16131 20.0999 3.93239 20.0051 3.7636 19.8363C3.59482 19.6675 3.5 19.4386 3.5 19.1999V4.7999C3.5 4.56121 3.59482 4.33229 3.7636 4.16351C3.93239 3.99472 4.16131 3.8999 4.4 3.8999H20.6C20.8387 3.8999 21.0676 3.99472 21.2364 4.16351C21.4052 4.33229 21.5 4.56121 21.5 4.7999V12.2294C20.9503 11.8456 20.3425 11.5524 19.7 11.3609V7.7141ZM19.2509 5.6999H5.7599L12.5549 11.6957L19.2518 5.6999H19.2509ZM16.7363 19.8371C17.2403 20.0782 17.8066 20.1571 18.3573 20.0628C18.9079 19.9685 19.4158 19.7058 19.8108 19.3107C20.2059 18.9157 20.4686 18.4078 20.5629 17.8572C20.6572 17.3065 20.5783 16.7402 20.3372 16.2362L16.7363 19.8362V19.8371ZM15.4628 18.5636L19.0637 14.9636C18.5597 14.7225 17.9934 14.6436 17.4427 14.7379C16.8921 14.8322 16.3842 15.0949 15.9892 15.49C15.5941 15.885 15.3314 16.3929 15.2371 16.9435C15.1428 17.4942 15.2217 18.0605 15.4628 18.5645V18.5636ZM17.9 21.8999C16.7065 21.8999 15.5619 21.4258 14.718 20.5819C13.8741 19.738 13.4 18.5934 13.4 17.3999C13.4 16.2064 13.8741 15.0618 14.718 14.2179C15.5619 13.374 16.7065 12.8999 17.9 12.8999C19.0935 12.8999 20.2381 13.374 21.082 14.2179C21.9259 15.0618 22.4 16.2064 22.4 17.3999C22.4 18.5934 21.9259 19.738 21.082 20.5819C20.2381 21.4258 19.0935 21.8999 17.9 21.8999Z" fill="#0A0D14" style="fill:#0A0D14;fill:color(display-p3 0.0392 0.0510 0.0784);fill-opacity:1;"/>
</svg>
