<svg width="25" height="24" viewBox="0 0 25 24" fill="none" xmlns="http://www.w3.org/2000/svg">
<path d="M21.5 13.2068C20.5386 12.8662 19.5003 12.8049 18.5055 13.03C17.5106 13.2551 16.5999 13.7573 15.8786 14.4785C15.1574 15.1998 14.6552 16.1105 14.4301 17.1054C14.205 18.1002 14.2663 19.1385 14.6069 20.0999H4.4C4.16131 20.0999 3.93239 20.0051 3.7636 19.8363C3.59482 19.6675 3.5 19.4386 3.5 19.1999V4.7999C3.5 4.56121 3.59482 4.33229 3.7636 4.16351C3.93239 3.99472 4.16131 3.8999 4.4 3.8999H20.6C20.8387 3.8999 21.0676 3.99472 21.2364 4.16351C21.4052 4.33229 21.5 4.56121 21.5 4.7999V13.2068ZM12.554 11.7146L6.7832 6.8141L5.6177 8.1857L12.5657 14.0852L19.3886 8.1812L18.2114 6.8195L12.5549 11.7146H12.554ZM20.6 17.3999H23.3V19.1999H20.6V21.8999H18.8V19.1999H16.1V17.3999H18.8V14.6999H20.6V17.3999Z" fill="#0A0D14" style="fill:#0A0D14;fill:color(display-p3 0.0392 0.0510 0.0784);fill-opacity:1;"/>
</svg>
