<svg width="25" height="24" viewBox="0 0 25 24" fill="none" xmlns="http://www.w3.org/2000/svg">
<path d="M19.7 7.7141L12.5648 14.1041L5.3 7.6943V18.2999H13.4V20.0999H4.4C4.16131 20.0999 3.93239 20.0051 3.7636 19.8363C3.59482 19.6675 3.5 19.4386 3.5 19.1999V4.7999C3.5 4.56121 3.59482 4.33229 3.7636 4.16351C3.93239 3.99472 4.16131 3.8999 4.4 3.8999H20.6C20.8387 3.8999 21.0676 3.99472 21.2364 4.16351C21.4052 4.33229 21.5 4.56121 21.5 4.7999V11.0999H19.7V7.7141ZM19.2509 5.6999H5.7599L12.5549 11.6957L19.2518 5.6999H19.2509ZM21.5 16.4999H22.4V20.9999H15.2V16.4999H16.1V15.5999C16.1 14.8838 16.3845 14.1971 16.8908 13.6907C17.3972 13.1844 18.0839 12.8999 18.8 12.8999C19.5161 12.8999 20.2028 13.1844 20.7092 13.6907C21.2155 14.1971 21.5 14.8838 21.5 15.5999V16.4999ZM19.7 16.4999V15.5999C19.7 15.3612 19.6052 15.1323 19.4364 14.9635C19.2676 14.7947 19.0387 14.6999 18.8 14.6999C18.5613 14.6999 18.3324 14.7947 18.1636 14.9635C17.9948 15.1323 17.9 15.3612 17.9 15.5999V16.4999H19.7Z" fill="#0A0D14" style="fill:#0A0D14;fill:color(display-p3 0.0392 0.0510 0.0784);fill-opacity:1;"/>
</svg>
