<svg width="25" height="24" viewBox="0 0 25 24" fill="none" xmlns="http://www.w3.org/2000/svg">
<path d="M3.7187 7.36883L12.041 2.37924C12.1809 2.29531 12.3409 2.25098 12.5041 2.25098C12.6672 2.25098 12.8272 2.29531 12.9671 2.37924L21.2813 7.36974C21.348 7.40971 21.4032 7.46629 21.4415 7.53395C21.4799 7.60162 21.5 7.67807 21.5 7.75584V19.2002C21.5 19.4389 21.4052 19.6678 21.2364 19.8366C21.0676 20.0054 20.8387 20.1002 20.6 20.1002H4.4C4.16131 20.1002 3.93239 20.0054 3.7636 19.8366C3.59482 19.6678 3.5 19.4389 3.5 19.2002V7.75493C3.49998 7.67717 3.52012 7.60072 3.55845 7.53305C3.59678 7.46539 3.65199 7.40881 3.7187 7.36883ZM18.2114 8.61984L12.5549 13.5149L6.7823 8.61443L5.6177 9.98604L12.5657 15.8855L19.3886 9.98154L18.2114 8.61984Z" fill="#0A0D14" style="fill:#0A0D14;fill:color(display-p3 0.0392 0.0510 0.0784);fill-opacity:1;"/>
</svg>
