<svg width="25" height="24" viewBox="0 0 25 24" fill="none" xmlns="http://www.w3.org/2000/svg">
<path d="M11.6 17.3442C9.78449 17.1132 8.12502 16.1995 6.95892 14.7889C5.79282 13.3783 5.2076 11.5766 5.32221 9.74998C5.43681 7.92337 6.24265 6.20894 7.57592 4.95514C8.90919 3.70135 10.6699 3.00227 12.5 3C14.3325 2.99864 16.0965 3.69601 17.4326 4.95001C18.7688 6.20402 19.5765 7.9203 19.6913 9.74914C19.806 11.578 19.2191 13.3818 18.0502 14.7929C16.8813 16.2041 15.2183 17.1165 13.4 17.3442V19.2108C16.9514 19.2936 19.7 19.8615 19.7 20.55C19.7 21.2952 16.4762 21.9 12.5 21.9C8.52385 21.9 5.30005 21.2952 5.30005 20.55C5.30005 19.8615 8.04865 19.2936 11.6 19.2108V17.3442ZM12.5 12C12.9774 12 13.4353 11.8104 13.7728 11.4728C14.1104 11.1352 14.3 10.6774 14.3 10.2C14.3 9.72261 14.1104 9.26478 13.7728 8.92721C13.4353 8.58964 12.9774 8.4 12.5 8.4C12.0227 8.4 11.5648 8.58964 11.2273 8.92721C10.8897 9.26478 10.7 9.72261 10.7 10.2C10.7 10.6774 10.8897 11.1352 11.2273 11.4728C11.5648 11.8104 12.0227 12 12.5 12Z" fill="#0A0D14" style="fill:#0A0D14;fill:color(display-p3 0.0392 0.0510 0.0784);fill-opacity:1;"/>
</svg>
