<svg width="25" height="24" viewBox="0 0 25 24" fill="none" xmlns="http://www.w3.org/2000/svg">
<path d="M3.5 5.7L9.8 3L15.2 5.7L20.8727 3.2691C20.9412 3.23975 21.0159 3.22785 21.0901 3.23449C21.1643 3.24112 21.2357 3.26608 21.2979 3.30712C21.3601 3.34816 21.4111 3.404 21.4464 3.46962C21.4816 3.53524 21.5001 3.6086 21.5 3.6831V18.3L15.2 21L9.8 18.3L4.1273 20.7309C4.05882 20.7603 3.98413 20.7721 3.90992 20.7655C3.83571 20.7589 3.76431 20.7339 3.70213 20.6929C3.63995 20.6518 3.58893 20.596 3.55365 20.5304C3.51837 20.4648 3.49993 20.3914 3.5 20.3169V5.7Z" fill="#0A0D14" style="fill:#0A0D14;fill:color(display-p3 0.0392 0.0510 0.0784);fill-opacity:1;"/>
</svg>
