<svg width="25" height="24" viewBox="0 0 25 24" fill="none" xmlns="http://www.w3.org/2000/svg">
<path d="M13.4 11.0999V6.59993H11.6V12.8999H17V11.0999H13.4ZM18.2276 16.8275L12.5 22.5551L6.77243 16.8275C5.63963 15.6947 4.86819 14.2514 4.55566 12.6802C4.24313 11.109 4.40354 9.48032 5.01661 8.00024C5.62969 6.52017 6.66788 5.25512 7.99992 4.36509C9.33196 3.47505 10.898 3 12.5 3C14.1021 3 15.6681 3.47505 17.0001 4.36509C18.3322 5.25512 19.3704 6.52017 19.9834 8.00024C20.5965 9.48032 20.7569 11.109 20.4444 12.6802C20.1319 14.2514 19.3604 15.6947 18.2276 16.8275Z" fill="#0A0D14" style="fill:#0A0D14;fill:color(display-p3 0.0392 0.0510 0.0784);fill-opacity:1;"/>
</svg>
