<svg width="25" height="24" viewBox="0 0 25 24" fill="none" xmlns="http://www.w3.org/2000/svg">
<path d="M12.5001 17.8362L16.3188 14.0184C17.0739 13.2632 17.5881 12.301 17.7964 11.2535C18.0046 10.2061 17.8977 9.12035 17.4889 8.13368C17.0802 7.14701 16.388 6.3037 15.5 5.71038C14.612 5.11707 13.568 4.80038 12.5001 4.80038C11.4321 4.80038 10.3881 5.11707 9.50007 5.71038C8.61206 6.3037 7.91993 7.14701 7.51119 8.13368C7.10245 9.12035 6.99546 10.2061 7.20374 11.2535C7.41203 12.301 7.92624 13.2632 8.68135 14.0184L12.5001 17.8362ZM17.5914 15.291L12.5001 20.3823L7.40875 15.291C6.40185 14.2841 5.71615 13.0012 5.43837 11.6045C5.16059 10.2079 5.30319 8.7602 5.84815 7.44459C6.39312 6.12899 7.31596 5.00452 8.49999 4.21339C9.68401 3.42226 11.076 3 12.5001 3C13.9241 3 15.3161 3.42226 16.5001 4.21339C17.6841 5.00452 18.607 6.12899 19.1519 7.44459C19.6969 8.7602 19.8395 10.2079 19.5617 11.6045C19.2839 13.0012 18.5983 14.2841 17.5914 15.291ZM6.20005 20.9997H18.8001V22.7997H6.20005V20.9997Z" fill="#0A0D14" style="fill:#0A0D14;fill:color(display-p3 0.0392 0.0510 0.0784);fill-opacity:1;"/>
</svg>
