<svg width="25" height="24" viewBox="0 0 25 24" fill="none" xmlns="http://www.w3.org/2000/svg">
<path d="M17.5914 15.291L12.5001 20.3823L7.40875 15.291C6.40185 14.2841 5.71615 13.0012 5.43837 11.6045C5.16059 10.2079 5.30319 8.7602 5.84815 7.44459C6.39312 6.12899 7.31596 5.00452 8.49999 4.21339C9.68401 3.42226 11.076 3 12.5001 3C13.9241 3 15.3161 3.42226 16.5001 4.21339C17.6841 5.00452 18.607 6.12899 19.1519 7.44459C19.6969 8.7602 19.8395 10.2079 19.5617 11.6045C19.2839 13.0012 18.5983 14.2841 17.5914 15.291ZM6.20005 20.9997H18.8001V22.7997H6.20005V20.9997Z" fill="#0A0D14" style="fill:#0A0D14;fill:color(display-p3 0.0392 0.0510 0.0784);fill-opacity:1;"/>
</svg>
