<svg width="25" height="24" viewBox="0 0 25 24" fill="none" xmlns="http://www.w3.org/2000/svg">
<path d="M11.6 17.3442C9.78447 17.1132 8.125 16.1995 6.9589 14.7889C5.7928 13.3783 5.20758 11.5766 5.32219 9.74998C5.43679 7.92337 6.24263 6.20894 7.5759 4.95514C8.90917 3.70135 10.6698 3.00227 12.5 3C14.3325 2.99864 16.0965 3.69601 17.4326 4.95001C18.7688 6.20402 19.5765 7.9203 19.6913 9.74914C19.806 11.578 19.2191 13.3818 18.0502 14.7929C16.8813 16.2041 15.2183 17.1165 13.4 17.3442V20.1H11.6V17.3442ZM12.5 15.6C13.9322 15.6 15.3057 15.0311 16.3184 14.0184C17.3311 13.0057 17.9 11.6322 17.9 10.2C17.9 8.76783 17.3311 7.39432 16.3184 6.38163C15.3057 5.36893 13.9322 4.8 12.5 4.8C11.0679 4.8 9.69435 5.36893 8.68165 6.38163C7.66896 7.39432 7.10003 8.76783 7.10003 10.2C7.10003 11.6322 7.66896 13.0057 8.68165 14.0184C9.69435 15.0311 11.0679 15.6 12.5 15.6ZM6.20003 21H18.8V22.8H6.20003V21Z" fill="#0A0D14" style="fill:#0A0D14;fill:color(display-p3 0.0392 0.0510 0.0784);fill-opacity:1;"/>
</svg>
