<svg width="25" height="24" viewBox="0 0 25 24" fill="none" xmlns="http://www.w3.org/2000/svg">
<path d="M17.0756 15.4307C17.922 14.5365 18.4877 13.4138 18.703 12.2015C18.9182 10.9892 18.7735 9.74039 18.2867 8.60943C17.7999 7.47848 16.9924 6.51495 15.964 5.83795C14.9355 5.16095 13.7313 4.80015 12.5 4.80015C11.2687 4.80015 10.0644 5.16095 9.03601 5.83795C8.00756 6.51495 7.20005 7.47848 6.71326 8.60943C6.22648 9.74039 6.08176 10.9892 6.29701 12.2015C6.51226 13.4138 7.07803 14.5365 7.9244 15.4307C8.4101 14.6557 9.08482 14.0168 9.8852 13.5741C10.6856 13.1314 11.5853 12.8994 12.5 12.8999C13.4146 12.8994 14.3144 13.1314 15.1148 13.5741C15.9152 14.0168 16.5899 14.6557 17.0756 15.4307ZM12.5 22.5551L6.7724 16.8275C5.6396 15.6947 4.86816 14.2514 4.55563 12.6802C4.2431 11.109 4.40351 9.48032 5.01658 8.00024C5.62966 6.52017 6.66785 5.25512 7.99989 4.36509C9.33192 3.47505 10.898 3 12.5 3C14.102 3 15.6681 3.47505 17.0001 4.36509C18.3321 5.25512 19.3703 6.52017 19.9834 8.00024C20.5965 9.48032 20.7569 11.109 20.4444 12.6802C20.1318 14.2514 19.3604 15.6947 18.2276 16.8275L12.5 22.5551ZM12.5 11.9999C11.7839 11.9999 11.0972 11.7155 10.5908 11.2091C10.0845 10.7028 9.8 10.016 9.8 9.29993C9.8 8.58385 10.0845 7.89709 10.5908 7.39074C11.0972 6.88439 11.7839 6.59993 12.5 6.59993C13.2161 6.59993 13.9028 6.88439 14.4092 7.39074C14.9155 7.89709 15.2 8.58385 15.2 9.29993C15.2 10.016 14.9155 10.7028 14.4092 11.2091C13.9028 11.7155 13.2161 11.9999 12.5 11.9999Z" fill="#0A0D14" style="fill:#0A0D14;fill:color(display-p3 0.0392 0.0510 0.0784);fill-opacity:1;"/>
</svg>
