<svg width="25" height="24" viewBox="0 0 25 24" fill="none" xmlns="http://www.w3.org/2000/svg">
<path d="M18.2276 16.8275L12.5 22.5551L6.7724 16.8275C5.6396 15.6947 4.86816 14.2514 4.55563 12.6802C4.2431 11.109 4.40351 9.48032 5.01658 8.00024C5.62966 6.52017 6.66785 5.25512 7.99989 4.36509C9.33192 3.47505 10.898 3 12.5 3C14.102 3 15.6681 3.47505 17.0001 4.36509C18.3321 5.25512 19.3703 6.52017 19.9834 8.00024C20.5965 9.48032 20.7569 11.109 20.4444 12.6802C20.1318 14.2514 19.3604 15.6947 18.2276 16.8275ZM12.5 12.8999C12.9774 12.8999 13.4352 12.7103 13.7728 12.3727C14.1104 12.0352 14.3 11.5773 14.3 11.0999C14.3 10.6225 14.1104 10.1647 13.7728 9.82714C13.4352 9.48957 12.9774 9.29993 12.5 9.29993C12.0226 9.29993 11.5648 9.48957 11.2272 9.82714C10.8896 10.1647 10.7 10.6225 10.7 11.0999C10.7 11.5773 10.8896 12.0352 11.2272 12.3727C11.5648 12.7103 12.0226 12.8999 12.5 12.8999Z" fill="#0A0D14" style="fill:#0A0D14;fill:color(display-p3 0.0392 0.0510 0.0784);fill-opacity:1;"/>
</svg>
