<svg width="25" height="24" viewBox="0 0 25 24" fill="none" xmlns="http://www.w3.org/2000/svg">
<path d="M12.5 22.5551L6.7724 16.8275C5.6396 15.6947 4.86816 14.2514 4.55563 12.6802C4.2431 11.109 4.40351 9.48032 5.01658 8.00024C5.62966 6.52017 6.66785 5.25512 7.99989 4.36509C9.33192 3.47505 10.898 3 12.5 3C14.102 3 15.6681 3.47505 17.0001 4.36509C18.3321 5.25512 19.3703 6.52017 19.9834 8.00024C20.5965 9.48032 20.7569 11.109 20.4444 12.6802C20.1318 14.2514 19.3604 15.6947 18.2276 16.8275L12.5 22.5551ZM16.955 15.5549C17.836 14.6738 18.436 13.5513 18.679 12.3292C18.922 11.1072 18.7972 9.84047 18.3204 8.68933C17.8435 7.53819 17.036 6.55431 16 5.86208C14.964 5.16986 13.746 4.80038 12.5 4.80038C11.254 4.80038 10.036 5.16986 8.99997 5.86208C7.96396 6.55431 7.15647 7.53819 6.67962 8.68933C6.20277 9.84047 6.07797 11.1072 6.321 12.3292C6.56404 13.5513 7.16399 14.6738 8.045 15.5549L12.5 20.0099L16.955 15.5549ZM12.5 12.8999C12.0226 12.8999 11.5648 12.7103 11.2272 12.3727C10.8896 12.0352 10.7 11.5773 10.7 11.0999C10.7 10.6225 10.8896 10.1647 11.2272 9.82714C11.5648 9.48957 12.0226 9.29993 12.5 9.29993C12.9774 9.29993 13.4352 9.48957 13.7728 9.82714C14.1104 10.1647 14.3 10.6225 14.3 11.0999C14.3 11.5773 14.1104 12.0352 13.7728 12.3727C13.4352 12.7103 12.9774 12.8999 12.5 12.8999Z" fill="#0A0D14" style="fill:#0A0D14;fill:color(display-p3 0.0392 0.0510 0.0784);fill-opacity:1;"/>
</svg>
