<svg width="25" height="24" viewBox="0 0 25 24" fill="none" xmlns="http://www.w3.org/2000/svg">
<path d="M11.6 19.1505C9.54437 18.9181 7.65556 17.908 6.32086 16.3275C4.98616 14.7469 4.3067 12.7157 4.4218 10.6502C4.5369 8.58466 5.43784 6.64145 6.93989 5.21899C8.44194 3.79653 10.4313 3.0026 12.5 3C14.5712 2.99849 16.5644 3.7905 18.0697 5.21323C19.575 6.63595 20.4781 8.58127 20.5933 10.6493C20.7086 12.7174 20.0272 14.751 18.6893 16.3322C17.3514 17.9133 15.4586 18.9219 13.4 19.1505V22.8H11.6V19.1505ZM12.5 17.4C13.3273 17.4 14.1465 17.237 14.9109 16.9204C15.6752 16.6038 16.3697 16.1398 16.9547 15.5548C17.5398 14.9698 18.0038 14.2753 18.3204 13.5109C18.637 12.7466 18.8 11.9273 18.8 11.1C18.8 10.2727 18.637 9.45345 18.3204 8.6891C18.0038 7.92475 17.5398 7.23024 16.9547 6.64523C16.3697 6.06022 15.6752 5.59617 14.9109 5.27956C14.1465 4.96296 13.3273 4.8 12.5 4.8C10.8291 4.8 9.22668 5.46375 8.0452 6.64523C6.86372 7.82671 6.19998 9.42914 6.19998 11.1C6.19998 12.7709 6.86372 14.3733 8.0452 15.5548C9.22668 16.7363 10.8291 17.4 12.5 17.4Z" fill="#0A0D14" style="fill:#0A0D14;fill:color(display-p3 0.0392 0.0510 0.0784);fill-opacity:1;"/>
</svg>
