<svg width="25" height="24" viewBox="0 0 25 24" fill="none" xmlns="http://www.w3.org/2000/svg">
<path d="M12.5 20.0099L16.955 15.5549C17.836 14.6738 18.436 13.5513 18.679 12.3292C18.9221 11.1072 18.7973 9.84047 18.3204 8.68933C17.8436 7.53819 17.0361 6.55431 16.0001 5.86208C14.964 5.16986 13.746 4.80038 12.5 4.80038C11.254 4.80038 10.036 5.16986 9 5.86208C7.96399 6.55431 7.1565 7.53819 6.67965 8.68933C6.2028 9.84047 6.078 11.1072 6.32103 12.3292C6.56407 13.5513 7.16402 14.6738 8.04503 15.5549L12.5 20.0099ZM12.5 22.5551L6.77243 16.8275C5.63963 15.6947 4.86819 14.2514 4.55566 12.6802C4.24313 11.109 4.40354 9.48032 5.01661 8.00024C5.62969 6.52017 6.66788 5.25512 7.99992 4.36509C9.33196 3.47505 10.898 3 12.5 3C14.1021 3 15.6681 3.47505 17.0001 4.36509C18.3322 5.25512 19.3704 6.52017 19.9834 8.00024C20.5965 9.48032 20.7569 11.109 20.4444 12.6802C20.1319 14.2514 19.3604 15.6947 18.2276 16.8275L12.5 22.5551ZM11.6 10.1999V7.49993H13.4V10.1999H16.1V11.9999H13.4V14.6999H11.6V11.9999H8.90003V10.1999H11.6Z" fill="#0A0D14" style="fill:#0A0D14;fill:color(display-p3 0.0392 0.0510 0.0784);fill-opacity:1;"/>
</svg>
