<svg width="25" height="24" viewBox="0 0 25 24" fill="none" xmlns="http://www.w3.org/2000/svg">
<path d="M10.7 10.65L11.6342 7.3785C11.6877 7.19009 11.8011 7.02428 11.9574 6.9062C12.1137 6.78813 12.3042 6.72424 12.5 6.72424C12.6958 6.72424 12.8863 6.78813 13.0426 6.9062C13.1989 7.02428 13.3123 7.19009 13.3658 7.3785L14.3 10.65V12H14.948C15.1486 12 15.3435 12.0671 15.5017 12.1905C15.6599 12.3139 15.7722 12.4867 15.821 12.6813L17.0459 17.5836C18.1988 16.6449 19.0328 15.3724 19.4335 13.9408C19.8342 12.5091 19.7819 10.9885 19.2838 9.58777C18.7857 8.18703 17.8662 6.97482 16.6516 6.11759C15.4369 5.26037 13.9867 4.80016 12.5 4.80016C11.0133 4.80016 9.5631 5.26037 8.34845 6.11759C7.1338 6.97482 6.21428 8.18703 5.71617 9.58777C5.21805 10.9885 5.16575 12.5091 5.56646 13.9408C5.96716 15.3724 6.80121 16.6449 7.9541 17.5836L9.1799 12.6813C9.22862 12.4868 9.34087 12.3142 9.49886 12.1908C9.65685 12.0673 9.85152 12.0002 10.052 12H10.7V10.65ZM12.5 19.2C13.5127 19.202 14.5142 18.9891 15.4385 18.5754L14.2442 13.8H10.7558L9.5615 18.5754C10.4858 18.9892 11.4873 19.2021 12.5 19.2ZM12.5 21C7.5293 21 3.5 16.9707 3.5 12C3.5 7.0293 7.5293 3 12.5 3C17.4707 3 21.5 7.0293 21.5 12C21.5 16.9707 17.4707 21 12.5 21Z" fill="#0A0D14" style="fill:#0A0D14;fill:color(display-p3 0.0392 0.0510 0.0784);fill-opacity:1;"/>
</svg>
