<svg width="25" height="24" viewBox="0 0 25 24" fill="none" xmlns="http://www.w3.org/2000/svg">
<path d="M16.0549 3.35335L21.1462 8.44465C21.315 8.61343 21.4098 8.8423 21.4098 9.08095C21.4098 9.3196 21.315 9.54848 21.1462 9.71725L14.1451 16.7184L12.2371 17.3547L10.9636 18.6273C10.7949 18.796 10.566 18.8908 10.3273 18.8908C10.0887 18.8908 9.85982 18.796 9.69104 18.6273L5.87234 14.8086C5.70362 14.6398 5.60884 14.4109 5.60884 14.1723C5.60884 13.9336 5.70362 13.7047 5.87234 13.536L7.14495 12.2634L7.78124 10.3545L14.7823 3.35335C14.9511 3.18463 15.18 3.08984 15.4186 3.08984C15.6573 3.08984 15.8862 3.18463 16.0549 3.35335ZM16.6912 6.53575L10.9636 12.2634L12.2362 13.536L17.9638 7.80835L16.6912 6.53575ZM5.55375 16.3998L8.09984 18.9459L6.82724 20.2185L3.00854 18.9459L5.55375 16.3998Z" fill="#0A0D14" style="fill:#0A0D14;fill:color(display-p3 0.0392 0.0510 0.0784);fill-opacity:1;"/>
</svg>
