<svg width="25" height="24" viewBox="0 0 25 24" fill="none" xmlns="http://www.w3.org/2000/svg">
<path d="M12.5 21C7.5293 21 3.5 16.9707 3.5 12C3.5 7.0293 7.5293 3 12.5 3C17.4707 3 21.5 7.0293 21.5 12C21.5 16.9707 17.4707 21 12.5 21ZM17.0459 17.5836L16.2701 14.4813C16.2213 14.2867 16.109 14.1139 15.9508 13.9905C15.7926 13.8671 15.5977 13.8 15.3971 13.8H9.6029C9.40226 13.8 9.20738 13.8671 9.04921 13.9905C8.89104 14.1139 8.77865 14.2867 8.7299 14.4813L7.9541 17.5836C9.23719 18.6313 10.8435 19.2025 12.5 19.2C14.1565 19.2025 15.7628 18.6313 17.0459 17.5836ZM10.7 12H14.3V10.65L13.3658 7.3785C13.3123 7.19009 13.1989 7.02428 13.0426 6.9062C12.8863 6.78813 12.6958 6.72424 12.5 6.72424C12.3042 6.72424 12.1137 6.78813 11.9574 6.9062C11.8011 7.02428 11.6877 7.19009 11.6342 7.3785L10.7 10.65V12Z" fill="#0A0D14" style="fill:#0A0D14;fill:color(display-p3 0.0392 0.0510 0.0784);fill-opacity:1;"/>
</svg>
