<svg width="25" height="24" viewBox="0 0 25 24" fill="none" xmlns="http://www.w3.org/2000/svg">
<path d="M4.4162 12.0072C4.3874 10.8732 4.4054 9.804 4.4054 8.9094C4.4054 5.0052 6.9641 3.8604 6.9641 3.8604C8.2538 3.2682 10.4669 3.0189 12.7691 3H12.8249C15.1262 3.018 17.3411 3.2682 18.6308 3.8604C18.6308 3.8604 21.1895 5.0052 21.1895 8.9094C21.1895 8.9094 21.2219 11.7903 20.8331 13.791C20.5856 15.06 18.6218 16.4505 16.3664 16.7196C15.191 16.86 14.0327 16.9896 12.7979 16.932C10.7792 16.8393 9.1853 16.4505 9.1853 16.4505C9.1853 16.6467 9.1979 16.8339 9.2213 17.0085C9.2969 17.5782 9.4904 17.994 9.7658 18.3C10.4552 19.065 11.6612 19.137 12.8213 19.1766C14.4593 19.2333 15.9173 18.7725 15.9173 18.7725L15.9857 20.2539C15.9857 20.2539 14.8391 20.8695 12.7979 20.9829C11.6729 21.0441 10.2752 20.9541 8.6471 20.5239C7.2683 20.1585 6.3359 19.3629 5.7041 18.3C4.7204 16.6413 4.4729 14.3346 4.4162 12.0072ZM7.3862 16.4505V14.1573L9.6128 14.7018C10.0012 14.7879 10.3923 14.8614 10.7855 14.9223C11.4632 15.0267 12.1697 15.1023 12.8807 15.1338C13.7978 15.1761 14.5916 15.1185 16.1531 14.9322C17.6498 14.7531 18.9863 13.8558 19.0655 13.4472C19.1393 13.0674 19.2014 12.6174 19.2509 12.1134C19.3145 11.4415 19.3557 10.7676 19.3742 10.0929C19.3877 9.6339 19.3922 9.2424 19.3895 8.9625V8.9094C19.3895 7.6224 19.0574 6.7152 18.5228 6.0672C18.3704 5.88011 18.1936 5.71424 17.9972 5.574C17.9162 5.5164 17.8757 5.4939 17.8802 5.4957C16.9685 5.0772 15.0965 4.8189 12.8249 4.8H12.7835C10.4975 4.818 8.6255 5.0772 7.6985 5.5038C7.7192 5.4948 7.6796 5.5164 7.5977 5.574C7.4013 5.71424 7.22453 5.88011 7.0721 6.0672C6.5375 6.7152 6.2054 7.6233 6.2054 8.9094C6.2054 9.1182 6.2054 9.2667 6.2027 9.6969C6.19462 10.4523 6.19882 11.2078 6.2153 11.9631C6.2639 13.9404 6.4529 15.4146 6.8453 16.5C7.0361 17.0283 7.2701 17.463 7.5473 17.805C7.43324 17.3627 7.37876 16.9072 7.3853 16.4505H7.3862ZM8.9756 6.933C9.24854 6.933 9.51031 7.04143 9.70332 7.23443C9.89632 7.42743 10.0047 7.6892 10.0047 7.96215C10.0047 8.2351 9.89632 8.49687 9.70332 8.68987C9.51031 8.88287 9.24854 8.9913 8.9756 8.9913C8.70265 8.9913 8.44088 8.88287 8.24788 8.68987C8.05488 8.49687 7.94645 8.2351 7.94645 7.96215C7.94645 7.6892 8.05488 7.42743 8.24788 7.23443C8.44088 7.04143 8.70265 6.933 8.9756 6.933Z" fill="#0A0D14" style="fill:#0A0D14;fill:color(display-p3 0.0392 0.0510 0.0784);fill-opacity:1;"/>
</svg>
