<svg width="25" height="24" viewBox="0 0 25 24" fill="none" xmlns="http://www.w3.org/2000/svg">
<path d="M20.8322 13.791C20.5856 15.06 18.6218 16.4505 16.3664 16.7196C15.191 16.86 14.0327 16.9896 12.7979 16.932C10.7792 16.8393 9.18529 16.4505 9.18529 16.4505C9.18529 16.6467 9.19789 16.8339 9.22129 17.0085C9.48409 19.002 11.1977 19.1208 12.8213 19.1775C14.4593 19.2333 15.9173 18.7725 15.9173 18.7725L15.9857 20.2539C15.9857 20.2539 14.8391 20.8695 12.7979 20.9829C11.6729 21.0441 10.2752 20.9541 8.64709 20.5239C5.11639 19.5888 4.50889 15.8259 4.41619 12.0063C4.38829 10.8723 4.40539 9.804 4.40539 8.9103C4.40539 5.0043 6.96409 3.8604 6.96409 3.8604C8.25379 3.2682 10.4669 3.0189 12.7691 3H12.8249C15.1262 3.018 17.3411 3.2682 18.6308 3.8604C18.6308 3.8604 21.1895 5.0052 21.1895 8.9094C21.1895 8.9094 21.2219 11.7903 20.8322 13.791ZM18.1718 9.2127C18.1718 8.2461 17.9261 7.4784 17.432 6.9105C16.9217 6.3426 16.2548 6.051 15.4259 6.051C14.4674 6.051 13.742 6.42 13.2614 7.1562L12.7952 7.9392L12.3281 7.1562C11.8484 6.42 11.123 6.051 10.1645 6.051C9.33559 6.051 8.66779 6.3426 8.15839 6.9105C7.66429 7.4784 7.41859 8.2461 7.41859 9.2127V13.9404H9.29149V9.3513C9.29149 8.3838 9.69829 7.8933 10.5128 7.8933C11.4128 7.8933 11.8637 8.4756 11.8637 9.6276V12.1386H13.7267V9.6276C13.7267 8.4756 14.1767 7.8933 15.0767 7.8933C15.8912 7.8933 16.2989 8.3838 16.2989 9.3513V13.9413H18.1709V9.2118L18.1718 9.2127Z" fill="#0A0D14" style="fill:#0A0D14;fill:color(display-p3 0.0392 0.0510 0.0784);fill-opacity:1;"/>
</svg>
