<svg width="25" height="24" viewBox="0 0 25 24" fill="none" xmlns="http://www.w3.org/2000/svg">
<path d="M12.5 7.18932C13.2287 7.76131 13.8177 8.49158 14.2225 9.32484C14.6273 10.1581 14.8372 11.0725 14.8364 11.9989C14.837 12.925 14.6269 13.8391 14.2221 14.672C13.8174 15.5049 13.2285 16.2349 12.5 16.8067C11.7714 16.2348 11.1825 15.5047 10.7777 14.6716C10.3729 13.8385 10.1629 12.9242 10.1636 11.998C10.1629 11.0718 10.3729 10.1575 10.7777 9.32444C11.1825 8.49134 11.7714 7.76122 12.5 7.18932ZM11.717 6.66552C10.9457 7.32393 10.3265 8.14199 9.90226 9.06314C9.47805 9.98429 9.25891 10.9866 9.26 12.0007C9.25895 13.0144 9.47793 14.0163 9.90182 14.9371C10.3257 15.8579 10.9444 16.6757 11.7152 17.3341C10.784 17.8568 9.7323 18.1267 8.6645 18.117C7.59671 18.1073 6.55006 17.8182 5.62859 17.2786C4.70712 16.739 3.94293 15.9676 3.41198 15.0411C2.88103 14.1147 2.60181 13.0654 2.60208 11.9975C2.60235 10.9297 2.8821 9.8805 3.41352 8.95429C3.94494 8.02807 4.70952 7.25707 5.63126 6.71793C6.553 6.17879 7.5998 5.89028 8.6676 5.88109C9.7354 5.87189 10.787 6.14233 11.7179 6.66552H11.717ZM13.2848 17.3341C14.0556 16.6757 14.6743 15.8579 15.0982 14.9371C15.5221 14.0163 15.741 13.0144 15.74 12.0007C15.7411 10.9866 15.5219 9.98429 15.0977 9.06314C14.6735 8.14199 14.0543 7.32393 13.283 6.66552C14.2139 6.14233 15.2655 5.87189 16.3333 5.88109C17.4011 5.89028 18.4479 6.17879 19.3696 6.71793C20.2914 7.25707 21.056 8.02807 21.5874 8.95429C22.1188 9.8805 22.3985 10.9297 22.3988 11.9975C22.3991 13.0654 22.1199 14.1147 21.5889 15.0411C21.058 15.9676 20.2938 16.739 19.3723 17.2786C18.4508 17.8182 17.4042 18.1073 16.3364 18.117C15.2686 18.1267 14.2169 17.8568 13.2857 17.3341H13.2848Z" fill="#0A0D14" style="fill:#0A0D14;fill:color(display-p3 0.0392 0.0510 0.0784);fill-opacity:1;"/>
</svg>
