<svg width="25" height="24" viewBox="0 0 25 24" fill="none" xmlns="http://www.w3.org/2000/svg">
<path d="M12.5 17.6643C11.502 18.2507 10.3668 18.563 9.20928 18.5696C8.05178 18.5762 6.91308 18.2769 5.90844 17.7019C4.9038 17.127 4.06889 16.2969 3.48822 15.2955C2.90756 14.2942 2.60175 13.1572 2.60175 11.9997C2.60175 10.8422 2.90756 9.7052 3.48822 8.70386C4.06889 7.70252 4.9038 6.87237 5.90844 6.29743C6.91308 5.72249 8.05178 5.42318 9.20928 5.42979C10.3668 5.43641 11.502 5.74871 12.5 6.33509C13.498 5.74871 14.6332 5.43641 15.7907 5.42979C16.9482 5.42318 18.0869 5.72249 19.0915 6.29743C20.0962 6.87237 20.9311 7.70252 21.5118 8.70386C22.0924 9.7052 22.3982 10.8422 22.3982 11.9997C22.3982 13.1572 22.0924 14.2942 21.5118 15.2955C20.9311 16.2969 20.0962 17.127 19.0915 17.7019C18.0869 18.2769 16.9482 18.5762 15.7907 18.5696C14.6332 18.563 13.498 18.2507 12.5 17.6643ZM14.0318 16.4187C14.756 16.713 15.5415 16.8248 16.319 16.7443C17.0966 16.6638 17.8425 16.3934 18.491 15.9569C19.1396 15.5204 19.6709 14.9313 20.0382 14.2412C20.4056 13.5512 20.5977 12.7814 20.5977 11.9997C20.5977 11.218 20.4056 10.4482 20.0382 9.75815C19.6709 9.06811 19.1396 8.47893 18.491 8.04245C17.8425 7.60597 17.0966 7.33558 16.319 7.25506C15.5415 7.17454 14.756 7.28636 14.0318 7.58069C15.133 8.78873 15.7423 10.3651 15.74 11.9997C15.74 13.7007 15.0929 15.2523 14.0318 16.4187ZM10.9682 7.58069C10.244 7.28636 9.45853 7.17454 8.68095 7.25506C7.90337 7.33558 7.1575 7.60597 6.50897 8.04245C5.86043 8.47893 5.32911 9.06811 4.96175 9.75815C4.5944 10.4482 4.40227 11.218 4.40227 11.9997C4.40227 12.7814 4.5944 13.5512 4.96175 14.2412C5.32911 14.9313 5.86043 15.5204 6.50897 15.9569C7.1575 16.3934 7.90337 16.6638 8.68095 16.7443C9.45853 16.8248 10.244 16.713 10.9682 16.4187C9.867 15.2106 9.25765 13.6343 9.25999 11.9997C9.25999 10.2987 9.90709 8.74709 10.9682 7.58069ZM12.5 8.58419C12.0435 9.02811 11.6809 9.55916 11.4335 10.1459C11.1862 10.7326 11.0591 11.363 11.06 11.9997C11.06 13.3389 11.6117 14.5485 12.5 15.4152C12.9564 14.9713 13.3191 14.4402 13.5665 13.8535C13.8138 13.2668 13.9408 12.6364 13.94 11.9997C13.9408 11.363 13.8138 10.7326 13.5665 10.1459C13.3191 9.55916 12.9564 9.02811 12.5 8.58419Z" fill="#0A0D14" style="fill:#0A0D14;fill:color(display-p3 0.0392 0.0510 0.0784);fill-opacity:1;"/>
</svg>
