<svg width="25" height="24" viewBox="0 0 25 24" fill="none" xmlns="http://www.w3.org/2000/svg">
<path d="M12.5 7.49992C14.4095 7.49992 16.2409 8.25849 17.5912 9.60875C18.9414 10.959 19.7 12.7904 19.7 14.6999C19.7 16.6095 18.9414 18.4408 17.5912 19.7911C16.2409 21.1414 14.4095 21.8999 12.5 21.8999C10.5904 21.8999 8.75908 21.1414 7.40882 19.7911C6.05856 18.4408 5.29999 16.6095 5.29999 14.6999C5.29999 12.7904 6.05856 10.959 7.40882 9.60875C8.75908 8.25849 10.5904 7.49992 12.5 7.49992ZM12.5 9.29992C11.0678 9.29992 9.69431 9.86885 8.68161 10.8815C7.66891 11.8942 7.09999 13.2678 7.09999 14.6999C7.09999 16.1321 7.66891 17.5056 8.68161 18.5183C9.69431 19.531 11.0678 20.0999 12.5 20.0999C13.9322 20.0999 15.3057 19.531 16.3184 18.5183C17.3311 17.5056 17.9 16.1321 17.9 14.6999C17.9 13.2678 17.3311 11.8942 16.3184 10.8815C15.3057 9.86885 13.9322 9.29992 12.5 9.29992ZM12.5 10.6499L13.6907 13.0619L16.352 13.4489L14.426 15.3254L14.8805 17.9768L12.5 16.7249L10.1195 17.9759L10.574 15.3254L8.64799 13.448L11.3093 13.061L12.5 10.6499ZM17.9 2.99992V5.69992L16.6733 6.72412C15.6553 6.19005 14.5439 5.85727 13.4 5.74402V2.99992H17.9ZM11.6 2.99902V5.74402C10.4564 5.85711 9.34533 6.18957 8.32759 6.72322L7.09999 5.69992V2.99992L11.6 2.99902Z" fill="#0A0D14" style="fill:#0A0D14;fill:color(display-p3 0.0392 0.0510 0.0784);fill-opacity:1;"/>
</svg>
