<svg width="25" height="24" viewBox="0 0 25 24" fill="none" xmlns="http://www.w3.org/2000/svg">
<path d="M5.30002 3.90039H19.7C19.9387 3.90039 20.1676 3.99521 20.3364 4.16399C20.5052 4.33278 20.6 4.5617 20.6 4.80039V19.2004C20.6 19.4391 20.5052 19.668 20.3364 19.8368C20.1676 20.0056 19.9387 20.1004 19.7 20.1004H5.30002C5.06133 20.1004 4.83241 20.0056 4.66363 19.8368C4.49485 19.668 4.40002 19.4391 4.40002 19.2004V4.80039C4.40002 4.5617 4.49485 4.33278 4.66363 4.16399C4.83241 3.99521 5.06133 3.90039 5.30002 3.90039ZM17.27 15.5464C17.18 15.5014 17.135 15.3664 17.135 15.2755V8.40579C17.135 8.31579 17.18 8.18079 17.27 8.08989L18.1295 7.09539V7.05039H15.056L12.752 12.8806L10.1294 7.05039H6.96682V7.09539L7.77952 8.22579C7.96042 8.40579 8.00542 8.67759 8.00542 8.90349V13.8742C8.05042 14.146 8.00542 14.4619 7.87042 14.7328L6.65002 16.405V16.45H9.90442V16.405L8.68402 14.7787C8.54902 14.5069 8.50312 14.236 8.54902 13.9201V9.39939C8.59402 9.48939 8.63902 9.48939 8.68402 9.67029L11.7566 16.54H11.8016L14.786 9.08439C14.741 9.35439 14.741 9.67119 14.741 9.89799V15.2305C14.741 15.3655 14.696 15.4555 14.606 15.5464L13.7015 16.405V16.45H18.1304V16.405L17.2718 15.5464H17.27Z" fill="#0A0D14" style="fill:#0A0D14;fill:color(display-p3 0.0392 0.0510 0.0784);fill-opacity:1;"/>
</svg>
