<svg width="25" height="24" viewBox="0 0 25 24" fill="none" xmlns="http://www.w3.org/2000/svg">
<path d="M5.30002 3.90039H19.7C19.9387 3.90039 20.1676 3.99521 20.3364 4.16399C20.5052 4.33278 20.6 4.5617 20.6 4.80039V19.2004C20.6 19.4391 20.5052 19.668 20.3364 19.8368C20.1676 20.0056 19.9387 20.1004 19.7 20.1004H5.30002C5.06133 20.1004 4.83241 20.0056 4.66363 19.8368C4.49485 19.668 4.40002 19.4391 4.40002 19.2004V4.80039C4.40002 4.5617 4.49485 4.33278 4.66363 4.16399C4.83241 3.99521 5.06133 3.90039 5.30002 3.90039ZM6.20002 5.70039V18.3004H18.8V5.70039H6.20002ZM17.27 15.5464L18.1295 16.405V16.45H13.7006V16.405L14.6042 15.5464C14.6942 15.4564 14.7392 15.3664 14.7392 15.2305V9.89799C14.7392 9.67119 14.7392 9.35529 14.7851 9.08439L11.8025 16.5409H11.7575L8.68402 9.67119C8.63902 9.49119 8.59402 9.49119 8.54902 9.40119V13.9192C8.50312 14.236 8.54902 14.5069 8.68402 14.7787L9.90442 16.405V16.45H6.65002V16.405L7.87042 14.7328C8.00542 14.4628 8.05042 14.146 8.00542 13.8742V8.90439C8.00542 8.67849 7.96042 8.40669 7.78042 8.22669L6.96592 7.09539V7.05039H10.1294L12.7502 12.8806L15.056 7.05039H18.1295V7.09539L17.2709 8.08989C17.1809 8.17989 17.1359 8.31579 17.1359 8.40579V15.2755C17.1359 15.3655 17.1809 15.5014 17.2709 15.5464H17.27Z" fill="#0A0D14" style="fill:#0A0D14;fill:color(display-p3 0.0392 0.0510 0.0784);fill-opacity:1;"/>
</svg>
