<svg width="25" height="24" viewBox="0 0 25 24" fill="none" xmlns="http://www.w3.org/2000/svg">
<path d="M18.8 3V4.8H17V7.5C18.4913 7.5 19.7 8.7087 19.7 10.2V20.1C19.7 20.5968 19.2968 21 18.8 21H6.20005C5.70325 21 5.30005 20.5968 5.30005 20.1V10.2C5.30005 8.7087 6.50875 7.5 8.00005 7.5V4.8H6.20005V3H18.8ZM17 9.3H8.00005C7.50325 9.3 7.10005 9.7032 7.10005 10.2V19.2H17.9V10.2C17.9 9.7032 17.4968 9.3 17 9.3ZM13.4 11.1V12.9H15.2V14.7H13.3991L13.4 16.5H11.6L11.5991 14.7H9.80005V12.9H11.6V11.1H13.4ZM15.2 4.8H9.80005V7.5H15.2V4.8Z" fill="#0A0D14" style="fill:#0A0D14;fill:color(display-p3 0.0392 0.0510 0.0784);fill-opacity:1;"/>
</svg>
