<svg width="25" height="24" viewBox="0 0 25 24" fill="none" xmlns="http://www.w3.org/2000/svg">
<path d="M10.25 15.75C10.25 15.75 15.5 16.5 17.75 18.75H18.5C18.9142 18.75 19.25 18.4142 19.25 18V13.4528C19.8969 13.2863 20.375 12.6989 20.375 12C20.375 11.3011 19.8969 10.7137 19.25 10.5472V6C19.25 5.58579 18.9142 5.25 18.5 5.25H17.75C15.5 7.5 10.25 8.25 10.25 8.25H7.25C6.42157 8.25 5.75 8.92157 5.75 9.75V14.25C5.75 15.0785 6.42157 15.75 7.25 15.75H8L8.75 19.5H10.25V15.75ZM11.75 9.4959C12.2625 9.38595 12.8956 9.23395 13.5795 9.0328C14.8381 8.6626 16.4375 8.07947 17.75 7.18094V16.819C16.4375 15.9205 14.8381 15.3374 13.5795 14.9672C12.8956 14.7661 12.2625 14.614 11.75 14.5041V9.4959ZM7.25 9.75H10.25V14.25H7.25V9.75Z" fill="#0A0D14" style="fill:#0A0D14;fill:color(display-p3 0.0392 0.0510 0.0784);fill-opacity:1;"/>
</svg>
