<svg width="25" height="24" viewBox="0 0 25 24" fill="none" xmlns="http://www.w3.org/2000/svg">
<path d="M19.25 10.5472V6C19.25 5.58579 18.9142 5.25 18.5 5.25H17.75C16.2661 6.73398 13.477 7.56546 11.75 7.95961V16.0404C13.477 16.4345 16.2661 17.2661 17.75 18.75H18.5C18.9142 18.75 19.25 18.4142 19.25 18V13.4528C19.8969 13.2863 20.375 12.6989 20.375 12C20.375 11.3011 19.8969 10.7137 19.25 10.5472ZM7.25 8.25C6.42157 8.25 5.75 8.92157 5.75 9.75V14.25C5.75 15.0785 6.42157 15.75 7.25 15.75H8L8.75 19.5H10.25V8.25H7.25Z" fill="#0A0D14" style="fill:#0A0D14;fill:color(display-p3 0.0392 0.0510 0.0784);fill-opacity:1;"/>
</svg>
