<svg width="25" height="24" viewBox="0 0 25 24" fill="none" xmlns="http://www.w3.org/2000/svg">
<path d="M20 12C20 7.85786 16.6421 4.5 12.5 4.5C10.0465 4.5 7.86826 5.67806 6.49992 7.49938L6.5 5.625H5V10.125H9.5V8.625L7.53838 8.62518C8.61835 7.0405 10.4377 6 12.5 6C15.8137 6 18.5 8.68629 18.5 12C18.5 15.3137 15.8137 18 12.5 18C9.18629 18 6.5 15.3137 6.5 12H5C5 16.1421 8.35786 19.5 12.5 19.5C16.6421 19.5 20 16.1421 20 12ZM11.583 9.38867L15.032 11.688C15.2546 11.8364 15.2546 12.1636 15.032 12.312L11.583 14.6114C11.3338 14.7775 11 14.5988 11 14.2993V9.7007C11 9.40118 11.3338 9.22254 11.583 9.38867Z" fill="#0A0D14" style="fill:#0A0D14;fill:color(display-p3 0.0392 0.0510 0.0784);fill-opacity:1;"/>
</svg>
