<svg width="25" height="24" viewBox="0 0 25 24" fill="none" xmlns="http://www.w3.org/2000/svg">
<path d="M18.4274 5.69844H14.3V3.89844H21.5V11.0984H19.7V6.97104L16.5167 10.1543C17.5552 11.5156 18.0375 13.2206 17.8661 14.9242C17.6947 16.6277 16.8823 18.2025 15.5935 19.3296C14.3046 20.4567 12.6356 21.0519 10.9244 20.9946C9.21324 20.9374 7.58773 20.232 6.37706 19.0214C5.16638 17.8107 4.46102 16.1852 4.4038 14.474C4.34658 12.7628 4.94177 11.0938 6.06886 9.80496C7.19595 8.51611 8.7707 7.70373 10.4742 7.53232C12.1778 7.3609 13.8828 7.84327 15.2441 8.88174L18.4274 5.69844Z" fill="#0A0D14" style="fill:#0A0D14;fill:color(display-p3 0.0392 0.0510 0.0784);fill-opacity:1;"/>
</svg>
