<svg width="25" height="24" viewBox="0 0 25 24" fill="none" xmlns="http://www.w3.org/2000/svg">
<path d="M11.6 3C15.2612 3 18.2834 5.7324 18.7406 9.2685L20.7656 12.4536C20.8988 12.6633 20.8718 12.9756 20.5631 13.1088L18.8 13.863V16.5C18.8 17.4945 17.9945 18.3 17 18.3H15.2009L15.2 21H7.10002V17.6754C7.10002 16.6134 6.70762 15.6081 5.98042 14.7009C4.99132 13.4679 4.40002 11.9028 4.40002 10.2C4.40002 6.2238 7.62382 3 11.6 3ZM11.123 8.1867C10.5074 7.5711 9.51022 7.5711 8.89552 8.1867C8.27992 8.8014 8.27992 9.7986 8.89552 10.4133L11.6 13.1187L14.3045 10.4133C14.9201 9.7986 14.9201 8.8014 14.3045 8.1867C13.6898 7.5711 12.6926 7.5711 12.077 8.1867L11.6 8.6637L11.123 8.1867Z" fill="#0A0D14" style="fill:#0A0D14;fill:color(display-p3 0.0392 0.0510 0.0784);fill-opacity:1;"/>
</svg>
