<svg width="25" height="24" viewBox="0 0 25 24" fill="none" xmlns="http://www.w3.org/2000/svg">
<path d="M15.125 6.75C13.6753 6.75 12.5 7.92525 12.5 9.375C12.5 10.8247 13.6753 12 15.125 12C16.5747 12 17.75 10.8247 17.75 9.375C17.75 7.92525 16.5747 6.75 15.125 6.75ZM11 9.375C11 7.09682 12.8468 5.25 15.125 5.25C17.4032 5.25 19.25 7.09682 19.25 9.375C19.25 10.2431 18.9818 11.0486 18.5238 11.7131L20.5303 13.7197L19.4697 14.7803L17.4631 12.7738C16.7986 13.2318 15.9931 13.5 15.125 13.5C12.8468 13.5 11 11.6532 11 9.375ZM5.75 6H9.5V7.5H5.75V6ZM5.75 11.25H9.5V12.75H5.75V11.25ZM19.25 16.5V18H5.75V16.5H19.25Z" fill="#0A0D14" style="fill:#0A0D14;fill:color(display-p3 0.0392 0.0510 0.0784);fill-opacity:1;"/>
</svg>
