<svg width="25" height="24" viewBox="0 0 25 24" fill="none" xmlns="http://www.w3.org/2000/svg">
<path d="M20.6 19.2004C20.6 19.6972 20.1968 20.1004 19.7 20.1004H5.30002C4.80322 20.1004 4.40002 19.6972 4.40002 19.2004V4.80039C4.40002 4.30359 4.80322 3.90039 5.30002 3.90039H19.7C20.1968 3.90039 20.6 4.30359 20.6 4.80039V19.2004ZM18.8 11.1004V5.70039H13.4009V7.50039H15.2L12.5 10.2004L9.80002 7.50039H11.6V5.70039H6.20002V11.1004H8.00002V12.9004H6.20002V18.3004H11.6V16.5004H9.80002L12.5 13.8004L15.2 16.5004H13.4009V18.3004H18.8V12.9004H17V11.1004H18.8ZM11.6 12.9004H9.80002V11.1004H11.6V12.9004ZM15.2 12.9004H13.4V11.1004H15.2V12.9004Z" fill="#0A0D14" style="fill:#0A0D14;fill:color(display-p3 0.0392 0.0510 0.0784);fill-opacity:1;"/>
</svg>
