<svg width="25" height="24" viewBox="0 0 25 24" fill="none" xmlns="http://www.w3.org/2000/svg">
<path d="M19.7 3.90039C20.1968 3.90039 20.6 4.30359 20.6 4.80039V19.2004C20.6 19.6972 20.1968 20.1004 19.7 20.1004H5.30002C4.80322 20.1004 4.40002 19.6972 4.40002 19.2004V4.80039C4.40002 4.30359 4.80322 3.90039 5.30002 3.90039H19.7ZM11.6 5.70039H6.20002V11.0995H8.00002V9.30039L10.7 12.0004L8.00002 14.7004V12.9004H6.20002V18.3004H11.6V16.5004H13.4V18.3004H18.8V12.9004H17V14.7004L14.3 12.0004L17 9.30039V11.0995H18.8V5.70039H13.4V7.50039H11.6V5.70039ZM13.4 12.9004V14.7004H11.6V12.9004H13.4ZM13.4 9.30039V11.1004H11.6V9.30039H13.4Z" fill="#0A0D14" style="fill:#0A0D14;fill:color(display-p3 0.0392 0.0510 0.0784);fill-opacity:1;"/>
</svg>
