<svg width="25" height="24" viewBox="0 0 25 24" fill="none" xmlns="http://www.w3.org/2000/svg">
<path d="M12.5 3C17.5706 3 21.5 6.7143 21.5 11.73C21.5 16.7457 17.5706 20.46 12.5 20.46C11.6199 20.4623 10.7436 20.346 9.8945 20.1144C9.73502 20.0706 9.56531 20.0829 9.4139 20.1495L7.6283 20.9379C7.52042 20.9856 7.40247 21.006 7.28484 20.9974C7.1672 20.9888 7.05347 20.9515 6.95366 20.8887C6.85384 20.8258 6.77099 20.7394 6.7124 20.637C6.6538 20.5347 6.62125 20.4195 6.6176 20.3016L6.5681 18.6996C6.56486 18.6022 6.5418 18.5065 6.50033 18.4183C6.45886 18.3301 6.39985 18.2512 6.3269 18.1866C4.5755 16.6215 3.5 14.3553 3.5 11.73C3.5 6.7143 7.4303 3 12.5 3ZM7.0955 14.2833C6.8417 14.6856 7.3367 15.1392 7.7156 14.8512L10.5551 12.6966C10.6488 12.6259 10.763 12.5876 10.8804 12.5876C10.9979 12.5876 11.1121 12.6259 11.2058 12.6966L13.3091 14.2716C13.4583 14.3835 13.6291 14.4633 13.8106 14.5059C13.9922 14.5486 14.1806 14.5531 14.364 14.5193C14.5474 14.4855 14.7218 14.414 14.8763 14.3094C15.0307 14.2048 15.1617 14.0694 15.2612 13.9116L17.9045 9.7176C18.1583 9.3144 17.6633 8.8608 17.2844 9.1479L14.4449 11.3043C14.3512 11.375 14.237 11.4133 14.1195 11.4133C14.0021 11.4133 13.8879 11.375 13.7942 11.3043L11.6909 9.7293C11.5417 9.61739 11.3709 9.5376 11.1894 9.49497C11.0078 9.45234 10.8194 9.4478 10.636 9.48162C10.4526 9.51545 10.2782 9.5869 10.1237 9.69149C9.96933 9.79608 9.83826 9.93153 9.7388 10.0893L7.0955 14.2833Z" fill="#0A0D14" style="fill:#0A0D14;fill:color(display-p3 0.0392 0.0510 0.0784);fill-opacity:1;"/>
</svg>
