<svg width="25" height="24" viewBox="0 0 25 24" fill="none" xmlns="http://www.w3.org/2000/svg">
<path d="M8.6876 18.5025C9.2186 18.2685 9.8126 18.2244 10.3688 18.3774C11.0618 18.5664 11.7773 18.6618 12.5 18.66C16.6265 18.66 19.7 15.7017 19.7 11.73C19.7 7.7583 16.6265 4.8 12.5 4.8C8.3735 4.8 5.3 7.7583 5.3 11.73C5.3 13.773 6.1064 15.5748 7.5194 16.8384C7.77613 17.0658 7.98374 17.3432 8.12952 17.6537C8.2753 17.9641 8.35618 18.301 8.3672 18.6438L8.6876 18.5025ZM12.5 3C17.5706 3 21.5 6.7143 21.5 11.73C21.5 16.7457 17.5706 20.46 12.5 20.46C11.6199 20.4623 10.7436 20.346 9.8945 20.1144C9.73502 20.0706 9.56531 20.0829 9.4139 20.1495L7.6283 20.9379C7.52042 20.9856 7.40247 21.006 7.28484 20.9974C7.1672 20.9888 7.05347 20.9515 6.95366 20.8887C6.85384 20.8258 6.77099 20.7394 6.7124 20.637C6.6538 20.5347 6.62125 20.4195 6.6176 20.3016L6.5681 18.6996C6.56486 18.6022 6.5418 18.5065 6.50033 18.4183C6.45886 18.3301 6.39985 18.2512 6.3269 18.1866C4.5755 16.6215 3.5 14.3553 3.5 11.73C3.5 6.7143 7.4303 3 12.5 3ZM7.0955 14.2833L9.7388 10.0893C9.83825 9.9314 9.96936 9.79583 10.1239 9.69116C10.2783 9.58648 10.4529 9.51497 10.6364 9.48114C10.8199 9.44731 11.0084 9.4519 11.1901 9.49461C11.3718 9.53733 11.5426 9.61724 11.6918 9.7293L13.7942 11.3043C13.8879 11.375 14.0021 11.4133 14.1195 11.4133C14.237 11.4133 14.3512 11.375 14.4449 11.3043L17.2844 9.1479C17.6633 8.8608 18.1583 9.3144 17.9045 9.7176L15.2612 13.9116C15.1617 14.0695 15.0306 14.2051 14.8761 14.3097C14.7217 14.4144 14.5471 14.4859 14.3636 14.5198C14.1801 14.5536 13.9916 14.549 13.8099 14.5063C13.6282 14.4636 13.4574 14.3837 13.3082 14.2716L11.2058 12.6966C11.1121 12.6259 10.9979 12.5876 10.8804 12.5876C10.763 12.5876 10.6488 12.6259 10.5551 12.6966L7.7156 14.8521C7.3367 15.1392 6.8417 14.6856 7.0955 14.2824V14.2833Z" fill="#0A0D14" style="fill:#0A0D14;fill:color(display-p3 0.0392 0.0510 0.0784);fill-opacity:1;"/>
</svg>
