<svg width="25" height="24" viewBox="0 0 25 24" fill="none" xmlns="http://www.w3.org/2000/svg">
<path d="M3.5 9.295C3.49953 8.58598 3.63892 7.88383 3.91019 7.22877C4.18147 6.5737 4.57929 5.97857 5.08089 5.47747C5.5825 4.97637 6.17802 4.57914 6.83336 4.30852C7.4887 4.0379 8.19099 3.89921 8.9 3.9004H16.1C19.0817 3.9004 21.5 6.3259 21.5 9.295V20.1004H8.9C5.9183 20.1004 3.5 17.6749 3.5 14.7058V9.295ZM19.7 18.3004V9.295C19.6976 8.34145 19.3174 7.42771 18.6426 6.75395C17.9679 6.0802 17.0536 5.70135 16.1 5.7004H8.9C8.42736 5.69921 7.95914 5.79134 7.52219 5.9715C7.08523 6.15166 6.68814 6.41631 6.35369 6.75026C6.01923 7.08422 5.75399 7.48091 5.57317 7.91759C5.39236 8.35428 5.29953 8.82236 5.3 9.295V14.7058C5.30238 15.6593 5.6826 16.5731 6.35737 17.2468C7.03214 17.9206 7.94645 18.2994 8.9 18.3004H19.7ZM14.3 11.1004H16.1V12.9004H14.3V11.1004ZM8.9 11.1004H10.7V12.9004H8.9V11.1004Z" fill="#0A0D14" style="fill:#0A0D14;fill:color(display-p3 0.0392 0.0510 0.0784);fill-opacity:1;"/>
</svg>
