<svg width="25" height="24" viewBox="0 0 25 24" fill="none" xmlns="http://www.w3.org/2000/svg">
<path d="M19.2308 15.1226C19.0166 15.7909 18.6493 16.125 18.1286 16.125C17.4705 16.125 16.8235 15.7301 16.1877 14.9404C15.7462 14.392 15.1269 13.3497 14.33 11.8136C13.988 11.1542 13.6708 10.5719 13.3785 10.0667C13.6107 9.70029 13.8177 9.40633 13.9998 9.18481C14.7177 8.31161 15.469 7.875 16.2536 7.875C16.8798 7.875 17.4762 8.27688 18.043 9.08065C18.6255 9.90672 19.0336 10.927 19.2671 12.1416C19.4969 13.3365 19.4848 14.3302 19.2308 15.1226ZM12.5037 11.5722C12.6612 11.8613 12.8262 12.172 12.9985 12.5044C13.8415 14.1292 14.5152 15.2548 15.0193 15.8811C15.9553 17.0437 16.9918 17.625 18.1286 17.625C18.7706 17.625 19.3198 17.4223 19.7764 17.0169C20.17 16.6675 20.4643 16.1887 20.6593 15.5805C20.9912 14.5448 21.0182 13.3041 20.7401 11.8584C20.4659 10.4323 19.9755 9.21829 19.2689 8.21623C18.4034 6.98874 17.3983 6.375 16.2536 6.375C14.9966 6.375 13.8591 6.99407 12.8412 8.23221C12.7349 8.36147 12.6224 8.51001 12.5037 8.67785C12.3849 8.51001 12.2725 8.36147 12.1661 8.23221C11.1482 6.99407 10.0108 6.375 8.75375 6.375C7.6091 6.375 6.604 6.98875 5.73847 8.21623C5.03189 9.21829 4.54148 10.4323 4.26724 11.8584C3.98921 13.3041 4.01617 14.5448 4.34812 15.5805C4.54306 16.1887 4.83732 16.6675 5.23091 17.0169C5.68754 17.4223 6.23683 17.625 6.87877 17.625C8.01565 17.625 9.05207 17.0437 9.98802 15.8811C10.4922 15.2548 11.1658 14.1292 12.0087 12.5044C12.1813 12.172 12.3462 11.8613 12.5037 11.5722ZM11.6288 10.0667C11.3365 10.5719 11.0194 11.1542 10.6773 11.8136C9.88036 13.3497 9.26113 14.392 8.81959 14.9404C8.18386 15.7301 7.53691 16.125 6.87877 16.125C6.35813 16.125 5.99072 15.7909 5.77654 15.1226C5.52256 14.3302 5.51045 13.3365 5.74024 12.1416C5.97382 10.927 6.38186 9.90672 6.96435 9.08064C7.53111 8.27688 8.12758 7.875 8.75375 7.875C9.53833 7.875 10.2896 8.31161 11.0075 9.18481C11.1896 9.40632 11.3967 9.70028 11.6288 10.0667Z" fill="#0A0D14" style="fill:#0A0D14;fill:color(display-p3 0.0392 0.0510 0.0784);fill-opacity:1;"/>
</svg>
