<svg width="25" height="24" viewBox="0 0 25 24" fill="none" xmlns="http://www.w3.org/2000/svg">
<path d="M16.1898 6.375C14.8017 6.375 13.7165 7.42053 12.7342 8.74867C11.3843 7.02992 10.2554 6.375 8.90445 6.375C6.15014 6.375 4.03979 9.95948 4.03979 13.7534C4.03979 16.1276 5.18837 17.625 7.11221 17.625C8.49687 17.625 9.49271 16.9722 11.2631 13.8776C11.2631 13.8776 12.001 12.5743 12.5087 11.6767C12.6866 11.9639 12.8736 12.2729 13.0708 12.6052L13.901 14.0017C15.5182 16.7079 16.4192 17.625 18.0519 17.625C19.9261 17.625 20.9691 16.1071 20.9691 13.6836C20.9691 9.71121 18.8112 6.375 16.1898 6.375ZM9.91307 13.0396C8.47773 15.2896 7.98117 15.7939 7.18203 15.7939C6.35962 15.7939 5.87083 15.0719 5.87083 13.7845C5.87083 11.0302 7.2441 8.21379 8.88117 8.21379C9.76769 8.21379 10.5085 8.72578 11.6433 10.3503C10.5658 12.0031 9.91307 13.0396 9.91307 13.0396ZM15.3303 12.7564L14.3377 11.101C14.0691 10.6641 13.8117 10.2627 13.5633 9.89464C14.4579 8.51387 15.1958 7.82586 16.0735 7.82586C17.8967 7.82586 19.3553 10.5104 19.3553 13.8077C19.3553 15.0647 18.9436 15.7939 18.0907 15.7939C17.2731 15.7939 16.8826 15.254 15.3303 12.7564Z" fill="#0A0D14" style="fill:#0A0D14;fill:color(display-p3 0.0392 0.0510 0.0784);fill-opacity:1;"/>
</svg>
