<svg width="25" height="24" viewBox="0 0 25 24" fill="none" xmlns="http://www.w3.org/2000/svg">
<path d="M20.6 2.10156V12.9016C20.5998 14.3178 20.2283 15.7093 19.5225 16.9371C18.8167 18.165 17.8012 19.1863 16.5775 19.8993C15.3538 20.6122 13.9645 20.9918 12.5482 21.0003C11.132 21.0087 9.7383 20.6456 8.50617 19.9473C7.27403 19.249 6.24652 18.2398 5.52614 17.0205C4.80576 15.8011 4.41768 14.4142 4.40061 12.998C4.38355 11.5818 4.7381 10.1859 5.42889 8.94958C6.11968 7.71321 7.12257 6.67957 8.33752 5.95176L14.3 2.50926V5.00226L20.6 2.10156ZM12.5 8.40156C11.3066 8.40156 10.162 8.87567 9.31804 9.71958C8.47413 10.5635 8.00002 11.7081 8.00002 12.9016C8.00002 14.095 8.47413 15.2396 9.31804 16.0835C10.162 16.9275 11.3066 17.4016 12.5 17.4016C13.6935 17.4016 14.8381 16.9275 15.682 16.0835C16.5259 15.2396 17 14.095 17 12.9016C17 11.7081 16.5259 10.5635 15.682 9.71958C14.8381 8.87567 13.6935 8.40156 12.5 8.40156Z" fill="#0A0D14" style="fill:#0A0D14;fill:color(display-p3 0.0392 0.0510 0.0784);fill-opacity:1;"/>
</svg>
