<svg width="25" height="24" viewBox="0 0 25 24" fill="none" xmlns="http://www.w3.org/2000/svg">
<path d="M20.6 2.10156V12.9016C20.5998 14.3178 20.2283 15.7093 19.5225 16.9371C18.8167 18.165 17.8012 19.1863 16.5775 19.8993C15.3538 20.6122 13.9645 20.9918 12.5482 21.0003C11.132 21.0087 9.7383 20.6456 8.50617 19.9473C7.27403 19.249 6.24652 18.2398 5.52614 17.0205C4.80576 15.8011 4.41768 14.4142 4.40061 12.998C4.38355 11.5818 4.7381 10.1859 5.42889 8.94958C6.11968 7.71321 7.12257 6.67957 8.33752 5.95176L14.3 2.50926V5.00226L20.6 2.10156ZM18.8 4.91136L12.5 7.81296V5.62596L9.43732 7.39446C8.49212 7.91992 7.69817 8.67995 7.13195 9.60131C6.56573 10.5227 6.24634 11.5743 6.20452 12.655L6.20002 12.9016C6.19922 14.5543 6.84787 16.1411 8.00615 17.32C9.16443 18.4988 10.7396 19.1754 12.392 19.2037C14.0445 19.232 15.6419 18.6099 16.8399 17.4714C18.0379 16.333 18.7406 14.7693 18.7964 13.1176L18.8 12.9016V4.91136ZM12.5 8.40156C13.6935 8.40156 14.8381 8.87567 15.682 9.71958C16.5259 10.5635 17 11.7081 17 12.9016C17 14.095 16.5259 15.2396 15.682 16.0835C14.8381 16.9275 13.6935 17.4016 12.5 17.4016C11.3066 17.4016 10.162 16.9275 9.31804 16.0835C8.47413 15.2396 8.00002 14.095 8.00002 12.9016C8.00002 11.7081 8.47413 10.5635 9.31804 9.71958C10.162 8.87567 11.3066 8.40156 12.5 8.40156ZM12.5 10.2016C11.7839 10.2016 11.0972 10.486 10.5908 10.9924C10.0845 11.4987 9.80002 12.1855 9.80002 12.9016C9.80002 13.6176 10.0845 14.3044 10.5908 14.8108C11.0972 15.3171 11.7839 15.6016 12.5 15.6016C13.2161 15.6016 13.9029 15.3171 14.4092 14.8108C14.9156 14.3044 15.2 13.6176 15.2 12.9016C15.2 12.1855 14.9156 11.4987 14.4092 10.9924C13.9029 10.486 13.2161 10.2016 12.5 10.2016Z" fill="#0A0D14" style="fill:#0A0D14;fill:color(display-p3 0.0392 0.0510 0.0784);fill-opacity:1;"/>
</svg>
