<svg width="25" height="24" viewBox="0 0 25 24" fill="none" xmlns="http://www.w3.org/2000/svg">
<path d="M16.4825 17.2554C15.5331 17.7928 14.4844 18.1314 13.4 18.2508V21.9003H11.6V18.2508C9.77403 18.0462 8.07181 17.227 6.77256 15.9278C5.47332 14.6285 4.65418 12.9263 4.4495 11.1003H6.263C6.40331 12.0718 6.76861 12.9971 7.32979 13.8024C7.89096 14.6077 8.6325 15.2708 9.49528 15.7388C10.3581 16.2068 11.3183 16.4668 12.2993 16.4981C13.2804 16.5294 14.2552 16.3311 15.146 15.9189L13.7501 14.5239C13.0798 14.7178 12.3736 14.7531 11.6872 14.6271C11.0009 14.501 10.3533 14.2171 9.79559 13.7978C9.23787 13.3784 8.78532 12.8351 8.47369 12.2107C8.16206 11.5864 7.99989 10.8981 8 10.2003V8.77294L2.9537 3.72754L4.2272 2.45404L22.0463 20.274L20.7728 21.5466L16.4825 17.2554ZM19.1375 14.8443L17.8388 13.5465C18.2969 12.8175 18.6092 11.9895 18.7361 11.1003H20.5505C20.4019 12.4473 19.9159 13.7351 19.1375 14.8443ZM16.5185 12.2262L8.6165 4.32424C9.11591 3.47115 9.88231 2.80624 10.7973 2.43221C11.7124 2.05819 12.7251 1.99586 13.6791 2.25487C14.633 2.51387 15.4752 3.07979 16.0754 3.86521C16.6757 4.65062 17.0006 5.61183 17 6.60034L17.0009 10.2003C17.002 10.904 16.8373 11.598 16.5203 12.2262H16.5185Z" fill="#0A0D14" style="fill:#0A0D14;fill:color(display-p3 0.0392 0.0510 0.0784);fill-opacity:1;"/>
</svg>
