<svg width="25" height="24" viewBox="0 0 25 24" fill="none" xmlns="http://www.w3.org/2000/svg">
<path d="M16.4825 17.2539C15.5331 17.7912 14.4844 18.1299 13.4 18.2493V21.8988H11.6V18.2493C9.77403 18.0446 8.07181 17.2255 6.77256 15.9262C5.47332 14.627 4.65418 12.9248 4.4495 11.0988H6.263C6.40331 12.0703 6.76861 12.9955 7.32979 13.8009C7.89096 14.6062 8.6325 15.2693 9.49528 15.7373C10.3581 16.2053 11.3183 16.4653 12.2993 16.4966C13.2804 16.5279 14.2552 16.3295 15.146 15.9174L13.7501 14.5224C13.0798 14.7163 12.3736 14.7516 11.6872 14.6255C11.0009 14.4995 10.3533 14.2156 9.79559 13.7962C9.23787 13.3769 8.78532 12.8335 8.47369 12.2092C8.16206 11.5849 7.99989 10.8966 8 10.1988V8.7714L2.9537 3.726L4.2272 2.4525L22.0463 20.2725L20.7728 21.5451L16.4825 17.2539ZM9.8297 10.6011L12.0977 12.8691C11.527 12.7829 10.9989 12.5162 10.5907 12.1081C10.1826 11.6999 9.9159 11.1718 9.8297 10.6011ZM19.1375 14.8428L17.8388 13.545C18.2969 12.816 18.6092 11.988 18.7361 11.0988H20.5505C20.4019 12.4458 19.9159 13.7335 19.1375 14.8428ZM16.5185 12.2247L15.1253 10.8315C15.1739 10.6281 15.2 10.4175 15.2 10.1988V6.5988C15.2006 5.96404 14.9776 5.34935 14.5701 4.86268C14.1625 4.37601 13.5966 4.04848 12.9716 3.93761C12.3466 3.82675 11.7025 3.93964 11.1524 4.25645C10.6024 4.57327 10.1815 5.07375 9.9638 5.67L8.6174 4.3227C9.117 3.47006 9.88338 2.80558 10.7982 2.43185C11.7131 2.05813 12.7255 1.99594 13.6792 2.2549C14.6329 2.51385 15.4748 3.07955 16.075 3.86464C16.6752 4.64974 17.0003 5.61057 17 6.5988V10.1988C17.0011 10.9025 16.8364 11.5965 16.5194 12.2247H16.5185Z" fill="#0A0D14" style="fill:#0A0D14;fill:color(display-p3 0.0392 0.0510 0.0784);fill-opacity:1;"/>
</svg>
