<svg width="25" height="24" viewBox="0 0 25 24" fill="none" xmlns="http://www.w3.org/2000/svg">
<path d="M12.5 3.90156C11.7839 3.90156 11.0972 4.18603 10.5908 4.69237C10.0845 5.19872 9.80001 5.88548 9.80001 6.60156V12.0016C9.80001 12.7176 10.0845 13.4044 10.5908 13.9108C11.0972 14.4171 11.7839 14.7016 12.5 14.7016C13.2161 14.7016 13.9028 14.4171 14.4092 13.9108C14.9155 13.4044 15.2 12.7176 15.2 12.0016V6.60156C15.2 5.88548 14.9155 5.19872 14.4092 4.69237C13.9028 4.18603 13.2161 3.90156 12.5 3.90156ZM12.5 2.10156C13.091 2.10156 13.6761 2.21796 14.2221 2.4441C14.768 2.67025 15.2641 3.00172 15.682 3.41958C16.0999 3.83745 16.4313 4.33352 16.6575 4.87949C16.8836 5.42545 17 6.01061 17 6.60156V12.0016C17 13.195 16.5259 14.3396 15.682 15.1835C14.8381 16.0275 13.6935 16.5016 12.5 16.5016C11.3065 16.5016 10.1619 16.0275 9.31803 15.1835C8.47411 14.3396 8.00001 13.195 8.00001 12.0016V6.60156C8.00001 5.40809 8.47411 4.2635 9.31803 3.41958C10.1619 2.57567 11.3065 2.10156 12.5 2.10156ZM3.67281 13.7674L5.43861 13.4137C5.76656 15.0449 6.64913 16.5122 7.93638 17.5664C9.22364 18.6206 10.8362 19.1967 12.5 19.1967C14.1638 19.1967 15.7764 18.6206 17.0636 17.5664C18.3509 16.5122 19.2335 15.0449 19.5614 13.4137L21.3272 13.7674C20.5064 17.8921 16.865 21.0016 12.5 21.0016C8.13501 21.0016 4.49361 17.8921 3.67281 13.7674Z" fill="#0A0D14" style="fill:#0A0D14;fill:color(display-p3 0.0392 0.0510 0.0784);fill-opacity:1;"/>
</svg>
