<svg width="25" height="24" viewBox="0 0 25 24" fill="none" xmlns="http://www.w3.org/2000/svg">
<path d="M12.5 3.90156C11.7839 3.90156 11.0971 4.18603 10.5908 4.69237C10.0844 5.19872 9.79996 5.88548 9.79996 6.60156V10.2016C9.79996 10.9176 10.0844 11.6044 10.5908 12.1108C11.0971 12.6171 11.7839 12.9016 12.5 12.9016C13.216 12.9016 13.9028 12.6171 14.4092 12.1108C14.9155 11.6044 15.2 10.9176 15.2 10.2016V6.60156C15.2 5.88548 14.9155 5.19872 14.4092 4.69237C13.9028 4.18603 13.216 3.90156 12.5 3.90156ZM12.5 2.10156C13.0909 2.10156 13.6761 2.21796 14.222 2.4441C14.768 2.67025 15.2641 3.00172 15.6819 3.41958C16.0998 3.83745 16.4313 4.33352 16.6574 4.87949C16.8836 5.42545 17 6.01061 17 6.60156V10.2016C17 11.395 16.5259 12.5396 15.6819 13.3835C14.838 14.2275 13.6934 14.7016 12.5 14.7016C11.3065 14.7016 10.1619 14.2275 9.31798 13.3835C8.47407 12.5396 7.99996 11.395 7.99996 10.2016V6.60156C7.99996 5.40809 8.47407 4.2635 9.31798 3.41958C10.1619 2.57567 11.3065 2.10156 12.5 2.10156ZM4.44946 11.1016H6.26296C6.48103 12.5999 7.23125 13.9696 8.37637 14.9601C9.5215 15.9506 10.985 16.4958 12.4991 16.4958C14.0132 16.4958 15.4766 15.9506 16.6218 14.9601C17.7669 13.9696 18.5171 12.5999 18.7352 11.1016H20.5496C20.3449 12.9274 19.5259 14.6295 18.2269 15.9287C16.9278 17.228 15.2258 18.0472 13.4 18.2521V21.9016H11.6V18.2521C9.77398 18.0474 8.07177 17.2283 6.77252 15.929C5.47327 14.6298 4.65413 12.9275 4.44946 11.1016Z" fill="#0A0D14" style="fill:#0A0D14;fill:color(display-p3 0.0392 0.0510 0.0784);fill-opacity:1;"/>
</svg>
