<svg width="25" height="24" viewBox="0 0 25 24" fill="none" xmlns="http://www.w3.org/2000/svg">
<path d="M18.35 3C19.3554 2.99946 20.325 3.37289 21.0703 4.04764C21.8156 4.7224 22.2833 5.65025 22.3824 6.65073C22.4816 7.65121 22.205 8.65279 21.6066 9.46067C21.0081 10.2685 20.1306 10.825 19.1447 11.0217L19.1546 11.046C19.6002 12.1225 19.7779 13.2911 19.6725 14.4515C19.567 15.6118 19.1816 16.7292 18.5492 17.7078C17.9168 18.6864 17.0563 19.4968 16.0417 20.0697C15.0271 20.6425 13.8887 20.9605 12.7241 20.9964L12.5 21C11.3136 21.0003 10.1455 20.7074 9.09962 20.1474C8.05371 19.5874 7.1624 18.7776 6.50492 17.7901C5.84745 16.8026 5.44419 15.6678 5.33102 14.4869C5.21784 13.3059 5.39824 12.1152 5.85619 11.0208C4.86955 10.8251 3.99108 10.2691 3.39186 9.46122C2.79265 8.65331 2.5156 7.65129 2.61466 6.65032C2.71373 5.64934 3.18182 4.72107 3.92777 4.04629C4.67372 3.37151 5.64412 2.99854 6.64999 3C7.68574 3.00007 8.68212 3.39696 9.43424 4.10907C10.1864 4.82118 10.6371 5.7944 10.6937 6.8286L10.7594 6.8115C11.3288 6.67052 11.9133 6.59949 12.5 6.6L12.725 6.6036C13.2585 6.61979 13.7886 6.69526 14.3054 6.8286C14.362 5.79424 14.8128 4.8209 15.5652 4.10876C16.3175 3.39662 17.3141 2.99984 18.35 3ZM12.5 8.4C11.7908 8.4 11.0887 8.53968 10.4335 8.81105C9.77834 9.08243 9.18305 9.48019 8.68161 9.98163C8.18017 10.4831 7.78241 11.0784 7.51104 11.7335C7.23966 12.3887 7.09999 13.0909 7.09999 13.8C7.09999 14.5091 7.23966 15.2113 7.51104 15.8665C7.78241 16.5217 8.18017 17.1169 8.68161 17.6184C9.18305 18.1198 9.77834 18.5176 10.4335 18.789C11.0887 19.0603 11.7908 19.2 12.5 19.2C13.9322 19.2 15.3057 18.6311 16.3184 17.6184C17.3311 16.6057 17.9 15.2322 17.9 13.8C17.9 12.3678 17.3311 10.9943 16.3184 9.98163C15.3057 8.96893 13.9322 8.4 12.5 8.4ZM6.64999 4.8C6.05325 4.8 5.48095 5.03706 5.059 5.45901C4.63704 5.88097 4.39999 6.45327 4.39999 7.05C4.39999 7.64674 4.63704 8.21904 5.059 8.64099C5.48095 9.06295 6.05325 9.3 6.64999 9.3L6.79759 9.2955L6.89029 9.2865C7.35791 8.70527 7.91256 8.1998 8.53459 7.788L8.83159 7.6026C8.91572 7.27053 8.92292 6.92362 8.85263 6.58834C8.78234 6.25306 8.63642 5.93825 8.42599 5.66793C8.21557 5.3976 7.94619 5.1789 7.63841 5.02848C7.33062 4.87807 6.99256 4.79993 6.64999 4.8ZM18.35 4.8C18.0228 4.79989 17.6995 4.87116 17.4026 5.00882C17.1057 5.14649 16.8425 5.34725 16.6312 5.59711C16.4199 5.84697 16.2656 6.1399 16.1792 6.4555C16.0927 6.77109 16.0761 7.10174 16.1306 7.4244L16.1693 7.6044L16.1945 7.6188C16.9261 8.05719 17.5745 8.62147 18.1097 9.2856C18.4145 9.3202 18.7231 9.29212 19.0167 9.20307C19.3102 9.11402 19.5824 8.96589 19.8166 8.76778C20.0508 8.56967 20.242 8.32577 20.3785 8.05106C20.515 7.77635 20.5939 7.47663 20.6103 7.17033C20.6267 6.86402 20.5803 6.55759 20.4739 6.26987C20.3676 5.98215 20.2035 5.71922 19.9918 5.49722C19.7801 5.27523 19.5253 5.09886 19.2429 4.97896C18.9606 4.85906 18.6567 4.79816 18.35 4.8Z" fill="#0A0D14" style="fill:#0A0D14;fill:color(display-p3 0.0392 0.0510 0.0784);fill-opacity:1;"/>
</svg>
