<svg width="25" height="24" viewBox="0 0 25 24" fill="none" xmlns="http://www.w3.org/2000/svg">
<path d="M18.35 3C19.3554 2.99946 20.325 3.37289 21.0703 4.04764C21.8156 4.7224 22.2833 5.65025 22.3824 6.65073C22.4816 7.65121 22.205 8.65279 21.6066 9.46067C21.0081 10.2685 20.1306 10.825 19.1447 11.0217C19.6014 12.116 19.7808 13.3061 19.667 14.4863C19.5531 15.6666 19.1496 16.8005 18.4921 17.7872C17.8347 18.774 16.9437 19.5831 15.8983 20.1428C14.8529 20.7024 13.6855 20.9951 12.4998 20.9951C11.314 20.995 10.1467 20.702 9.10135 20.1423C8.05605 19.5825 7.16517 18.7733 6.50785 17.7864C5.85052 16.7996 5.4471 15.6656 5.33342 14.4854C5.21973 13.3051 5.39931 12.115 5.85619 11.0208C4.86955 10.8251 3.99108 10.2691 3.39186 9.46122C2.79265 8.65331 2.5156 7.6513 2.61466 6.65032C2.71373 5.64934 3.18182 4.72107 3.92777 4.04629C4.67372 3.37151 5.64412 2.99854 6.64999 3C7.68574 3.00007 8.68212 3.39696 9.43424 4.10907C10.1864 4.82118 10.6371 5.7944 10.6937 6.8286C11.2837 6.67626 11.8906 6.59944 12.5 6.6C13.1237 6.6 13.7285 6.6792 14.3054 6.8286C14.362 5.79424 14.8128 4.8209 15.5652 4.10876C16.3175 3.39662 17.3141 2.99984 18.35 3Z" fill="#0A0D14" style="fill:#0A0D14;fill:color(display-p3 0.0392 0.0510 0.0784);fill-opacity:1;"/>
</svg>
