<svg width="25" height="24" viewBox="0 0 25 24" fill="none" xmlns="http://www.w3.org/2000/svg">
<path d="M12.5 6C15.8137 6 18.5 8.68629 18.5 12C18.5 15.3137 15.8137 18 12.5 18H9.26782C9.94473 17.2946 10.4115 16.3861 10.5677 15.375H12.5C14.364 15.375 15.875 13.864 15.875 12C15.875 10.136 14.364 8.625 12.5 8.625C10.636 8.625 9.125 10.136 9.125 12V14.625C9.125 16.2312 8.00299 17.5753 6.5 17.9164V12C6.5 8.68629 9.18629 6 12.5 6ZM12.5 19.5C16.6421 19.5 20 16.1421 20 12C20 7.85786 16.6421 4.5 12.5 4.5C8.35786 4.5 5 7.85786 5 12V19.5H12.5ZM10.625 13.875V12C10.625 10.9645 11.4645 10.125 12.5 10.125C13.5355 10.125 14.375 10.9645 14.375 12C14.375 13.0355 13.5355 13.875 12.5 13.875H10.625Z" fill="#0A0D14" style="fill:#0A0D14;fill:color(display-p3 0.0392 0.0510 0.0784);fill-opacity:1;"/>
</svg>
