<svg width="25" height="24" viewBox="0 0 25 24" fill="none" xmlns="http://www.w3.org/2000/svg">
<path d="M13.5764 3.24203L16.5014 8.30903C16.7498 8.73833 16.6022 9.28913 16.172 9.53753L15.002 10.2125L15.9029 11.7713L14.3441 12.6713L13.4441 11.1116L12.275 11.7875C11.8448 12.0359 11.294 11.8883 11.0456 11.4581L9.39139 8.59433C7.54459 9.15413 6.19999 10.8713 6.19999 12.9008C6.19999 13.4633 6.30349 14.0024 6.49159 14.4992C7.18999 14.0564 8.01439 13.8008 8.89999 13.8008C10.4156 13.8008 11.7566 14.5505 12.572 15.6989L19.4912 11.7038L20.3912 13.2626L13.301 17.3567C13.3658 17.6609 13.4 17.9777 13.4 18.3008C13.4 18.6095 13.3694 18.9101 13.31 19.2008H20.6V21.0008L5.29999 21.0017C4.73479 20.2493 4.39999 19.3142 4.39999 18.3008C4.39999 17.3945 4.66819 16.5503 5.12899 15.8438C4.66369 14.9663 4.39999 13.9646 4.39999 12.9008C4.39999 10.2053 6.09289 7.90493 8.47429 7.00583L8.12059 6.39203C7.62379 5.53073 7.91809 4.43003 8.77939 3.93323L11.1176 2.58323C11.9789 2.08643 13.0796 2.38073 13.5764 3.24203ZM8.89999 15.6008C7.40869 15.6008 6.19999 16.8095 6.19999 18.3008C6.19999 18.6158 6.25399 18.9191 6.35299 19.2008H11.447C11.546 18.9191 11.6 18.6158 11.6 18.3008C11.6 16.8095 10.3913 15.6008 8.89999 15.6008ZM12.0176 4.14203L9.67939 5.49203L12.1544 9.77873L14.4926 8.42873L12.0176 4.14203Z" fill="#0A0D14" style="fill:#0A0D14;fill:color(display-p3 0.0392 0.0510 0.0784);fill-opacity:1;"/>
</svg>
