<svg width="25" height="24" viewBox="0 0 25 24" fill="none" xmlns="http://www.w3.org/2000/svg">
<path d="M17.9 3.90039C19.3913 3.90039 20.6 5.10909 20.6 6.60039C20.6 8.09169 19.3913 9.30039 17.9 9.30039H15.2C14.0246 9.30039 13.0247 8.54979 12.6539 7.50039H11.6C10.61 7.50039 9.8 8.31039 9.8 9.30039V9.45429C10.8494 9.82509 11.6 10.825 11.6 12.0004C11.6 13.1758 10.8494 14.1757 9.8 14.5465V14.7004C9.8 15.6904 10.61 16.5004 11.6 16.5004H12.653C13.0238 15.4519 14.0246 14.7004 15.2 14.7004H17.9C19.3913 14.7004 20.6 15.9091 20.6 17.4004C20.6 18.8917 19.3913 20.1004 17.9 20.1004H15.2C14.0246 20.1004 13.0247 19.3498 12.6539 18.3004H11.6C9.611 18.3004 8 16.6894 8 14.7004H6.2C4.7087 14.7004 3.5 13.4917 3.5 12.0004C3.5 10.5091 4.7087 9.30039 6.2 9.30039H8C8 7.31139 9.611 5.70039 11.6 5.70039H12.653C13.0238 4.65189 14.0246 3.90039 15.2 3.90039H17.9ZM17.9 16.5004H15.2C14.7032 16.5004 14.3 16.9036 14.3 17.4004C14.3 17.8972 14.7032 18.3004 15.2 18.3004H17.9C18.3968 18.3004 18.8 17.8972 18.8 17.4004C18.8 16.9036 18.3968 16.5004 17.9 16.5004ZM8.9 11.1004H6.2C5.7032 11.1004 5.3 11.5036 5.3 12.0004C5.3 12.4972 5.7032 12.9004 6.2 12.9004H8.9C9.3968 12.9004 9.8 12.4972 9.8 12.0004C9.8 11.5036 9.3968 11.1004 8.9 11.1004ZM17.9 5.70039H15.2C14.7032 5.70039 14.3 6.10359 14.3 6.60039C14.3 7.09719 14.7032 7.50039 15.2 7.50039H17.9C18.3968 7.50039 18.8 7.09719 18.8 6.60039C18.8 6.10359 18.3968 5.70039 17.9 5.70039Z" fill="#0A0D14" style="fill:#0A0D14;fill:color(display-p3 0.0392 0.0510 0.0784);fill-opacity:1;"/>
</svg>
