<svg width="25" height="24" viewBox="0 0 25 24" fill="none" xmlns="http://www.w3.org/2000/svg">
<path d="M15.956 12.6219L15.8957 12.6399C15.7747 12.6756 15.6493 12.6944 15.5231 12.6957C14.9741 12.6957 14.6645 12.3249 14.8301 11.8668C14.9525 11.532 15.272 11.2494 15.6626 11.1189C16.2674 10.8984 16.6904 10.3953 16.6904 9.8094C16.6904 9.0201 15.9227 8.3811 14.9759 8.3811C14.0291 8.3811 13.2623 9.0201 13.2623 9.8094V14.1906C13.2623 15.2436 12.6512 16.1679 11.7377 16.6908C11.2157 16.9882 10.6249 17.144 10.0241 17.1426C8.2385 17.1426 6.7859 15.8187 6.7859 14.1906C6.7859 13.6722 6.9335 13.1853 7.1918 12.7623C7.5914 12.1053 8.2574 11.604 9.0548 11.3754C9.1887 11.3328 9.32828 11.3106 9.4688 11.3097C10.0196 11.3097 10.331 11.6823 10.1645 12.1413C10.0511 12.4536 9.7451 12.7218 9.3896 12.864C9.34738 12.8782 9.30565 12.8938 9.2645 12.9108C8.6993 13.1448 8.3096 13.629 8.3096 14.1906C8.3096 14.9799 9.0773 15.6189 10.0241 15.6189C10.9709 15.6189 11.7377 14.9799 11.7377 14.1906V9.8094C11.7377 8.7564 12.3488 7.8321 13.2623 7.3092C13.7843 7.01179 14.3751 6.85604 14.9759 6.8574C16.7615 6.8574 18.2141 8.1813 18.2141 9.8094C18.2141 10.3278 18.0665 10.8147 17.8082 11.2377C17.4104 11.8911 16.748 12.3915 15.956 12.6219ZM3.5 12C3.5 16.9707 7.5293 21 12.5 21C17.4707 21 21.5 16.9707 21.5 12C21.5 7.0293 17.4707 3 12.5 3C7.5293 3 3.5 7.0293 3.5 12Z" fill="#0A0D14" style="fill:#0A0D14;fill:color(display-p3 0.0392 0.0510 0.0784);fill-opacity:1;"/>
</svg>
