<svg width="25" height="24" viewBox="0 0 25 24" fill="none" xmlns="http://www.w3.org/2000/svg">
<path d="M12.5 21C7.5293 21 3.5 16.9707 3.5 12C3.5 7.0293 7.5293 3 12.5 3C17.4707 3 21.5 7.0293 21.5 12C21.5 16.9707 17.4707 21 12.5 21ZM12.5 19.2C14.4096 19.2 16.2409 18.4414 17.5912 17.0912C18.9414 15.7409 19.7 13.9096 19.7 12C19.7 10.0904 18.9414 8.25909 17.5912 6.90883C16.2409 5.55857 14.4096 4.8 12.5 4.8C10.5904 4.8 8.75909 5.55857 7.40883 6.90883C6.05857 8.25909 5.3 10.0904 5.3 12C5.3 13.9096 6.05857 15.7409 7.40883 17.0912C8.75909 18.4414 10.5904 19.2 12.5 19.2ZM13.4 13.8C13.3999 14.3647 13.2479 14.9189 12.9601 15.4047C12.6723 15.8905 12.2592 16.29 11.7641 16.5614C11.269 16.8328 10.71 16.9662 10.1456 16.9474C9.58127 16.9287 9.03233 16.7587 8.55625 16.4551C8.08017 16.1514 7.69446 15.7254 7.43947 15.2216C7.18449 14.7178 7.06961 14.1548 7.10686 13.5913C7.14412 13.0279 7.33214 12.4849 7.65124 12.019C7.97034 11.5532 8.40879 11.1817 8.9207 10.9434C9.02784 10.8935 9.14376 10.8651 9.26186 10.86C9.37995 10.8549 9.4979 10.873 9.60897 10.9135C9.72003 10.9539 9.82205 11.0159 9.90918 11.0957C9.99632 11.1756 10.0669 11.2719 10.1168 11.379C10.1667 11.4861 10.1951 11.6021 10.2002 11.7202C10.2053 11.8382 10.1872 11.9562 10.1467 12.0673C10.1063 12.1783 10.0443 12.2803 9.96447 12.3675C9.88459 12.4546 9.78834 12.5252 9.6812 12.5751C9.4617 12.6771 9.27366 12.8362 9.13675 13.0358C8.99984 13.2353 8.91911 13.4681 8.90299 13.7096C8.88688 13.951 8.93599 14.1924 9.04517 14.4084C9.15435 14.6244 9.31959 14.8071 9.5236 14.9373C9.7276 15.0676 9.96286 15.1406 10.2048 15.1487C10.4466 15.1568 10.6863 15.0997 10.8985 14.9834C11.1108 14.8672 11.2879 14.696 11.4113 14.4878C11.5347 14.2796 11.5999 14.042 11.6 13.8V10.2C11.6001 9.63535 11.7521 9.08111 12.0399 8.59531C12.3277 8.1095 12.7408 7.70999 13.2359 7.43858C13.731 7.16717 14.29 7.03384 14.8544 7.05255C15.4187 7.07126 15.9677 7.24133 16.4437 7.54494C16.9198 7.84855 17.3055 8.27455 17.5605 8.77835C17.8155 9.28215 17.9304 9.84523 17.8931 10.4087C17.8559 10.9721 17.6679 11.5151 17.3488 11.981C17.0297 12.4468 16.5912 12.8183 16.0793 13.0566C15.9722 13.1065 15.8562 13.1349 15.7381 13.14C15.62 13.1451 15.5021 13.127 15.391 13.0865C15.28 13.0461 15.178 12.9841 15.0908 12.9043C15.0037 12.8244 14.9331 12.7281 14.8832 12.621C14.7824 12.4046 14.7716 12.157 14.8533 11.9327C14.935 11.7084 15.1024 11.5257 15.3188 11.4249C15.5383 11.3229 15.7263 11.1638 15.8632 10.9642C16.0002 10.7647 16.0809 10.5319 16.097 10.2904C16.1131 10.049 16.064 9.80758 15.9548 9.59158C15.8456 9.37557 15.6804 9.1929 15.4764 9.06267C15.2724 8.93244 15.0371 8.85945 14.7952 8.85134C14.5534 8.84322 14.3137 8.90029 14.1015 9.01656C13.8892 9.13283 13.7121 9.30402 13.5887 9.51222C13.4653 9.72042 13.4001 9.95797 13.4 10.2V13.8Z" fill="#0A0D14" style="fill:#0A0D14;fill:color(display-p3 0.0392 0.0510 0.0784);fill-opacity:1;"/>
</svg>
