<svg width="25" height="24" viewBox="0 0 25 24" fill="none" xmlns="http://www.w3.org/2000/svg">
<path d="M5.3 4.80078H8.9V6.60078H5.3V4.80078ZM16.1 18.3008H19.7V20.1008H16.1V18.3008ZM3.5 9.30078H8V11.1008H3.5V9.30078ZM9.8 9.30078H12.5V11.1008H9.8V9.30078ZM14.3 9.30078H19.7V11.1008H14.3V9.30078ZM5.3 13.8008H10.7V15.6008H5.3V13.8008ZM12.5 13.8008H15.2V15.6008H12.5V13.8008ZM17 13.8008H21.5V15.6008H17V13.8008ZM10.7 4.80078H21.5V6.60078H10.7V4.80078ZM3.5 18.3008H14.3V20.1008H3.5V18.3008Z" fill="#0A0D14" style="fill:#0A0D14;fill:color(display-p3 0.0392 0.0510 0.0784);fill-opacity:1;"/>
</svg>
