<svg width="25" height="24" viewBox="0 0 25 24" fill="none" xmlns="http://www.w3.org/2000/svg">
<path d="M4.4 3.90039H20.6C20.8387 3.90039 21.0676 3.99521 21.2364 4.16399C21.4052 4.33278 21.5 4.5617 21.5 4.80039V19.2004C21.5 19.4391 21.4052 19.668 21.2364 19.8368C21.0676 20.0056 20.8387 20.1004 20.6 20.1004H4.4C4.16131 20.1004 3.93239 20.0056 3.7636 19.8368C3.59482 19.668 3.5 19.4391 3.5 19.2004V4.80039C3.5 4.5617 3.59482 4.33278 3.7636 4.16399C3.93239 3.99521 4.16131 3.90039 4.4 3.90039ZM9.8 12.9004V14.7004H8.9V16.5004H16.1V14.7004H11.6V12.9004H14.3V11.1004H11.6V10.2004C11.5998 9.90889 11.6939 9.62515 11.8683 9.39159C12.0428 9.15803 12.2881 8.9872 12.5677 8.90465C12.8472 8.8221 13.146 8.83225 13.4193 8.9336C13.6927 9.03494 13.9258 9.22203 14.084 9.46689L15.8714 9.02049C15.5971 8.34306 15.0957 7.78207 14.4533 7.43357C13.8109 7.08508 13.0673 6.97076 12.3498 7.11018C11.6324 7.24961 10.9857 7.63412 10.5205 8.19786C10.0554 8.7616 9.80066 9.46952 9.8 10.2004V11.1004H8.9V12.9004H9.8Z" fill="#0A0D14" style="fill:#0A0D14;fill:color(display-p3 0.0392 0.0510 0.0784);fill-opacity:1;"/>
</svg>
