<svg width="25" height="24" viewBox="0 0 25 24" fill="none" xmlns="http://www.w3.org/2000/svg">
<path d="M4.4 3.90039H20.6C20.8387 3.90039 21.0676 3.99521 21.2364 4.16399C21.4052 4.33278 21.5 4.5617 21.5 4.80039V19.2004C21.5 19.4391 21.4052 19.668 21.2364 19.8368C21.0676 20.0056 20.8387 20.1004 20.6 20.1004H4.4C4.16131 20.1004 3.93239 20.0056 3.7636 19.8368C3.59482 19.668 3.5 19.4391 3.5 19.2004V4.80039C3.5 4.5617 3.59482 4.33278 3.7636 4.16399C3.93239 3.99521 4.16131 3.90039 4.4 3.90039ZM5.3 5.70039V18.3004H19.7V5.70039H5.3ZM9.35 13.8004H14.3C14.4193 13.8004 14.5338 13.753 14.6182 13.6686C14.7026 13.5842 14.75 13.4697 14.75 13.3504C14.75 13.231 14.7026 13.1166 14.6182 13.0322C14.5338 12.9478 14.4193 12.9004 14.3 12.9004H10.7C10.1033 12.9004 9.53097 12.6633 9.10901 12.2414C8.68705 11.8194 8.45 11.2471 8.45 10.6504C8.45 10.0537 8.68705 9.48136 9.10901 9.0594C9.53097 8.63744 10.1033 8.40039 10.7 8.40039H11.6V6.60039H13.4V8.40039H15.65V10.2004H10.7C10.5807 10.2004 10.4662 10.2478 10.3818 10.3322C10.2974 10.4166 10.25 10.531 10.25 10.6504C10.25 10.7697 10.2974 10.8842 10.3818 10.9686C10.4662 11.053 10.5807 11.1004 10.7 11.1004H14.3C14.8967 11.1004 15.469 11.3374 15.891 11.7594C16.3129 12.1814 16.55 12.7537 16.55 13.3504C16.55 13.9471 16.3129 14.5194 15.891 14.9414C15.469 15.3633 14.8967 15.6004 14.3 15.6004H13.4V17.4004H11.6V15.6004H9.35V13.8004Z" fill="#0A0D14" style="fill:#0A0D14;fill:color(display-p3 0.0392 0.0510 0.0784);fill-opacity:1;"/>
</svg>
