<svg width="25" height="24" viewBox="0 0 25 24" fill="none" xmlns="http://www.w3.org/2000/svg">
<path d="M4.4 3.90039H20.6C20.8387 3.90039 21.0676 3.99521 21.2364 4.16399C21.4052 4.33278 21.5 4.5617 21.5 4.80039V19.2004C21.5 19.4391 21.4052 19.668 21.2364 19.8368C21.0676 20.0056 20.8387 20.1004 20.6 20.1004H4.4C4.16131 20.1004 3.93239 20.0056 3.7636 19.8368C3.59482 19.668 3.5 19.4391 3.5 19.2004V4.80039C3.5 4.5617 3.59482 4.33278 3.7636 4.16399C3.93239 3.99521 4.16131 3.90039 4.4 3.90039ZM10.745 11.1004C10.823 10.7176 10.9993 10.3617 11.2565 10.0677C11.5138 9.77373 11.8432 9.55179 12.2122 9.42374C12.5813 9.29569 12.9774 9.26594 13.3614 9.33742C13.7455 9.4089 14.1043 9.57914 14.4026 9.83139L15.9335 8.81169C15.4078 8.23908 14.7284 7.82984 13.9765 7.63285C13.2245 7.43585 12.4318 7.45941 11.6928 7.70072C10.9539 7.94204 10.3 8.3909 9.80928 8.99373C9.31852 9.59655 9.01162 10.3279 8.9252 11.1004H8V12.9004H8.9243C9.01057 13.6731 9.31743 14.4046 9.80825 15.0076C10.2991 15.6107 10.9531 16.0596 11.6922 16.301C12.4313 16.5423 13.2242 16.5658 13.9763 16.3686C14.7284 16.1715 15.4079 15.762 15.9335 15.1891L14.4026 14.1685C14.1044 14.4207 13.7456 14.591 13.3616 14.6625C12.9776 14.7341 12.5816 14.7044 12.2125 14.5764C11.8435 14.4485 11.5141 14.2267 11.2568 13.9328C10.9995 13.6389 10.8231 13.2831 10.745 12.9004L15.2 12.9013V11.1013H10.745V11.1004Z" fill="#0A0D14" style="fill:#0A0D14;fill:color(display-p3 0.0392 0.0510 0.0784);fill-opacity:1;"/>
</svg>
