<svg width="25" height="24" viewBox="0 0 25 24" fill="none" xmlns="http://www.w3.org/2000/svg">
<path d="M12.5 21C7.5293 21 3.5 16.9707 3.5 12C3.5 7.0293 7.5293 3 12.5 3C17.4707 3 21.5 7.0293 21.5 12C21.5 16.9707 17.4707 21 12.5 21ZM12.5 19.2C14.4096 19.2 16.2409 18.4414 17.5912 17.0912C18.9414 15.7409 19.7 13.9096 19.7 12C19.7 10.0904 18.9414 8.25909 17.5912 6.90883C16.2409 5.55857 14.4096 4.8 12.5 4.8C10.5904 4.8 8.75909 5.55857 7.40883 6.90883C6.05857 8.25909 5.3 10.0904 5.3 12C5.3 13.9096 6.05857 15.7409 7.40883 17.0912C8.75909 18.4414 10.5904 19.2 12.5 19.2ZM9.8 12.9H8.9V11.1H9.8V10.2C9.79958 9.46854 10.0537 8.75973 10.5189 8.1952C10.984 7.63066 11.6311 7.24559 12.3491 7.10605C13.0671 6.96651 13.8113 7.0812 14.454 7.43045C15.0967 7.7797 15.5978 8.34172 15.8714 9.0201L14.084 9.4665C13.9262 9.221 13.6931 9.03329 13.4196 8.93151C13.1461 8.82974 12.8469 8.81941 12.567 8.90205C12.2871 8.9847 12.0416 9.15588 11.8672 9.3899C11.6929 9.62392 11.5991 9.90817 11.6 10.2V11.1H14.3V12.9H11.6V14.7H16.1V16.5H8.9V14.7H9.8V12.9Z" fill="#0A0D14" style="fill:#0A0D14;fill:color(display-p3 0.0392 0.0510 0.0784);fill-opacity:1;"/>
</svg>
