<svg width="25" height="24" viewBox="0 0 25 24" fill="none" xmlns="http://www.w3.org/2000/svg">
<path d="M12.5 21C7.5293 21 3.5 16.9707 3.5 12C3.5 7.0293 7.5293 3 12.5 3C17.4707 3 21.5 7.0293 21.5 12C21.5 16.9707 17.4707 21 12.5 21ZM12.5 19.2C14.4096 19.2 16.2409 18.4414 17.5912 17.0912C18.9414 15.7409 19.7 13.9096 19.7 12C19.7 10.0904 18.9414 8.25909 17.5912 6.90883C16.2409 5.55857 14.4096 4.8 12.5 4.8C10.5904 4.8 8.75909 5.55857 7.40883 6.90883C6.05857 8.25909 5.3 10.0904 5.3 12C5.3 13.9096 6.05857 15.7409 7.40883 17.0912C8.75909 18.4414 10.5904 19.2 12.5 19.2ZM10.745 11.1H15.2V12.9H10.745C10.823 13.2828 10.9993 13.6387 11.2565 13.9327C11.5138 14.2267 11.8432 14.4486 12.2122 14.5766C12.5813 14.7047 12.9774 14.7344 13.3614 14.663C13.7455 14.5915 14.1043 14.4213 14.4026 14.169L15.9326 15.1887C15.4069 15.761 14.7275 16.17 13.9757 16.3668C13.2239 16.5637 12.4313 16.54 11.6926 16.2987C10.9538 16.0575 10.3001 15.6087 9.80941 15.0061C9.31871 14.4034 9.01176 13.6723 8.9252 12.9H8V11.1H8.9243C9.01057 10.3273 9.31743 9.59575 9.80825 8.99274C10.2991 8.38973 10.9531 7.94075 11.6922 7.69941C12.4313 7.45807 13.2242 7.43459 13.9763 7.63175C14.7284 7.82892 15.4079 8.2384 15.9335 8.8113L14.4026 9.831C14.1043 9.57875 13.7455 9.40851 13.3614 9.33703C12.9774 9.26555 12.5813 9.2953 12.2122 9.42335C11.8432 9.5514 11.5138 9.77334 11.2565 10.0673C10.9993 10.3613 10.823 10.7172 10.745 11.1Z" fill="#0A0D14" style="fill:#0A0D14;fill:color(display-p3 0.0392 0.0510 0.0784);fill-opacity:1;"/>
</svg>
