<svg width="25" height="24" viewBox="0 0 25 24" fill="none" xmlns="http://www.w3.org/2000/svg">
<path d="M4.4 3.90039H20.6C20.8387 3.90039 21.0676 3.99521 21.2364 4.16399C21.4052 4.33278 21.5 4.5617 21.5 4.80039V19.2004C21.5 19.4391 21.4052 19.668 21.2364 19.8368C21.0676 20.0056 20.8387 20.1004 20.6 20.1004H4.4C4.16131 20.1004 3.93239 20.0056 3.7636 19.8368C3.59482 19.668 3.5 19.4391 3.5 19.2004V4.80039C3.5 4.5617 3.59482 4.33278 3.7636 4.16399C3.93239 3.99521 4.16131 3.90039 4.4 3.90039ZM9.35 13.8004V15.6004H11.6V17.4004H13.4V15.6004H14.3C14.8967 15.6004 15.469 15.3633 15.891 14.9414C16.3129 14.5194 16.55 13.9471 16.55 13.3504C16.55 12.7537 16.3129 12.1814 15.891 11.7594C15.469 11.3374 14.8967 11.1004 14.3 11.1004H10.7C10.5807 11.1004 10.4662 11.053 10.3818 10.9686C10.2974 10.8842 10.25 10.7697 10.25 10.6504C10.25 10.531 10.2974 10.4166 10.3818 10.3322C10.4662 10.2478 10.5807 10.2004 10.7 10.2004H15.65V8.40039H13.4V6.60039H11.6V8.40039H10.7C10.1033 8.40039 9.53097 8.63744 9.10901 9.0594C8.68705 9.48136 8.45 10.0537 8.45 10.6504C8.45 11.2471 8.68705 11.8194 9.10901 12.2414C9.53097 12.6633 10.1033 12.9004 10.7 12.9004H14.3C14.4193 12.9004 14.5338 12.9478 14.6182 13.0322C14.7026 13.1166 14.75 13.231 14.75 13.3504C14.75 13.4697 14.7026 13.5842 14.6182 13.6686C14.5338 13.753 14.4193 13.8004 14.3 13.8004H9.35Z" fill="#0A0D14" style="fill:#0A0D14;fill:color(display-p3 0.0392 0.0510 0.0784);fill-opacity:1;"/>
</svg>
