<svg width="25" height="24" viewBox="0 0 25 24" fill="none" xmlns="http://www.w3.org/2000/svg">
<path d="M12.5 21C7.5293 21 3.5 16.9707 3.5 12C3.5 7.0293 7.5293 3 12.5 3C17.4707 3 21.5 7.0293 21.5 12C21.5 16.9707 17.4707 21 12.5 21ZM10.745 11.1C10.823 10.7172 10.9993 10.3613 11.2565 10.0673C11.5138 9.77334 11.8432 9.5514 12.2122 9.42335C12.5813 9.2953 12.9774 9.26555 13.3614 9.33703C13.7455 9.40851 14.1043 9.57875 14.4026 9.831L15.9335 8.8113C15.4078 8.23868 14.7284 7.82945 13.9765 7.63245C13.2245 7.43546 12.4318 7.45902 11.6928 7.70033C10.9539 7.94164 10.3 8.39051 9.80928 8.99334C9.31852 9.59616 9.01162 10.3275 8.9252 11.1H8V12.9H8.9243C9.01057 13.6727 9.31743 14.4042 9.80825 15.0073C10.2991 15.6103 10.9531 16.0592 11.6922 16.3006C12.4313 16.5419 13.2242 16.5654 13.9763 16.3682C14.7284 16.1711 15.4079 15.7616 15.9335 15.1887L14.4026 14.1681C14.1044 14.4203 13.7456 14.5906 13.3616 14.6621C12.9776 14.7337 12.5816 14.704 12.2125 14.576C11.8435 14.4481 11.5141 14.2263 11.2568 13.9324C10.9995 13.6385 10.8231 13.2827 10.745 12.9L15.2 12.9009V11.1009H10.745V11.1Z" fill="#0A0D14" style="fill:#0A0D14;fill:color(display-p3 0.0392 0.0510 0.0784);fill-opacity:1;"/>
</svg>
