<svg width="25" height="24" viewBox="0 0 25 24" fill="none" xmlns="http://www.w3.org/2000/svg">
<path d="M4.4 3.90039H20.6C20.8387 3.90039 21.0676 3.99521 21.2364 4.16399C21.4052 4.33278 21.5 4.5617 21.5 4.80039V19.2004C21.5 19.4391 21.4052 19.668 21.2364 19.8368C21.0676 20.0056 20.8387 20.1004 20.6 20.1004H4.4C4.16131 20.1004 3.93239 20.0056 3.7636 19.8368C3.59482 19.668 3.5 19.4391 3.5 19.2004V4.80039C3.5 4.5617 3.59482 4.33278 3.7636 4.16399C3.93239 3.99521 4.16131 3.90039 4.4 3.90039ZM5.3 5.70039V18.3004H19.7V5.70039H5.3ZM10.745 11.1004H15.2V12.9004H10.745C10.823 13.2832 10.9993 13.6391 11.2565 13.9331C11.5138 14.2271 11.8432 14.449 12.2122 14.577C12.5813 14.7051 12.9774 14.7348 13.3614 14.6634C13.7455 14.5919 14.1043 14.4216 14.4026 14.1694L15.9326 15.1891C15.4069 15.7614 14.7275 16.1704 13.9757 16.3672C13.2239 16.5641 12.4313 16.5404 11.6926 16.2991C10.9538 16.0579 10.3001 15.6091 9.80941 15.0065C9.31871 14.4038 9.01176 13.6727 8.9252 12.9004H8V11.1004H8.9243C9.01057 10.3277 9.31743 9.59614 9.80825 8.99313C10.2991 8.39013 10.9531 7.94114 11.6922 7.6998C12.4313 7.45846 13.2242 7.43498 13.9763 7.63214C14.7284 7.82931 15.4079 8.23879 15.9335 8.81169L14.4026 9.83139C14.1043 9.57914 13.7455 9.4089 13.3614 9.33742C12.9774 9.26594 12.5813 9.29569 12.2122 9.42374C11.8432 9.55179 11.5138 9.77373 11.2565 10.0677C10.9993 10.3617 10.823 10.7176 10.745 11.1004Z" fill="#0A0D14" style="fill:#0A0D14;fill:color(display-p3 0.0392 0.0510 0.0784);fill-opacity:1;"/>
</svg>
