<svg width="25" height="24" viewBox="0 0 25 24" fill="none" xmlns="http://www.w3.org/2000/svg">
<path d="M12.5 21C7.5293 21 3.5 16.9707 3.5 12C3.5 7.0293 7.5293 3 12.5 3C17.4707 3 21.5 7.0293 21.5 12C21.5 16.9707 17.4707 21 12.5 21ZM9.8 12.9V14.7H8.9V16.5H16.1V14.7H11.6V12.9H14.3V11.1H11.6V10.2C11.5998 9.9085 11.6939 9.62476 11.8683 9.3912C12.0428 9.15764 12.2881 8.98681 12.5677 8.90426C12.8472 8.82171 13.146 8.83186 13.4193 8.9332C13.6927 9.03455 13.9258 9.22164 14.084 9.4665L15.8714 9.0201C15.5971 8.34267 15.0957 7.78168 14.4533 7.43318C13.8109 7.08469 13.0673 6.97037 12.3498 7.10979C11.6324 7.24922 10.9857 7.63372 10.5205 8.19747C10.0554 8.76121 9.80066 9.46913 9.8 10.2V11.1H8.9V12.9H9.8Z" fill="#0A0D14" style="fill:#0A0D14;fill:color(display-p3 0.0392 0.0510 0.0784);fill-opacity:1;"/>
</svg>
