<svg width="25" height="24" viewBox="0 0 25 24" fill="none" xmlns="http://www.w3.org/2000/svg">
<path d="M4.4 3.90039H20.6C20.8387 3.90039 21.0676 3.99521 21.2364 4.16399C21.4052 4.33278 21.5 4.5617 21.5 4.80039V19.2004C21.5 19.4391 21.4052 19.668 21.2364 19.8368C21.0676 20.0056 20.8387 20.1004 20.6 20.1004H4.4C4.16131 20.1004 3.93239 20.0056 3.7636 19.8368C3.59482 19.668 3.5 19.4391 3.5 19.2004V4.80039C3.5 4.5617 3.59482 4.33278 3.7636 4.16399C3.93239 3.99521 4.16131 3.90039 4.4 3.90039ZM5.3 5.70039V18.3004H19.7V5.70039H5.3ZM9.8 12.9004H8.9V11.1004H9.8V10.2004C9.79958 9.46893 10.0537 8.76012 10.5189 8.19559C10.984 7.63105 11.6311 7.24598 12.3491 7.10644C13.0671 6.9669 13.8113 7.08159 14.454 7.43084C15.0967 7.78009 15.5978 8.34211 15.8714 9.02049L14.084 9.46689C13.9262 9.22139 13.6931 9.03368 13.4196 8.93191C13.1461 8.83014 12.8469 8.8198 12.567 8.90245C12.2871 8.98509 12.0416 9.15627 11.8672 9.39029C11.6929 9.62431 11.5991 9.90856 11.6 10.2004V11.1004H14.3V12.9004H11.6V14.7004H16.1V16.5004H8.9V14.7004H9.8V12.9004Z" fill="#0A0D14" style="fill:#0A0D14;fill:color(display-p3 0.0392 0.0510 0.0784);fill-opacity:1;"/>
</svg>
