<svg width="25" height="24" viewBox="0 0 25 24" fill="none" xmlns="http://www.w3.org/2000/svg">
<path d="M9.50299 5.70522C10.0937 4.45569 11.0789 3.43507 12.3067 2.80063C13.5346 2.16619 14.9371 1.95315 16.298 2.19432C16.066 2.90521 16.0354 3.66645 16.2095 4.39368C16.3836 5.12092 16.7556 5.78575 17.2844 6.31452C17.8132 6.84328 18.478 7.21533 19.2052 7.38943C19.9325 7.56354 20.6937 7.5329 21.4046 7.30092C21.4676 7.65732 21.5 8.02452 21.5 8.39892C21.5016 9.46039 21.2337 10.5049 20.7215 11.4346C21.4761 12.0994 22.0103 12.9782 22.253 13.9541C22.4958 14.93 22.4355 15.9567 22.0803 16.8975C21.7251 17.8383 21.0917 18.6486 20.2645 19.2205C19.4374 19.7924 18.4556 20.0988 17.45 20.0989H9.79999C7.91687 20.0978 6.10911 19.359 4.76425 18.0409C3.41939 16.7228 2.64448 14.9302 2.60563 13.0475C2.56678 11.1647 3.26709 9.34171 4.55643 7.96921C5.84577 6.59671 7.62152 5.78397 9.50299 5.70522ZM11.4623 5.89152C12.5965 6.16179 13.6483 6.70295 14.5277 7.46864C15.407 8.23433 16.0876 9.20174 16.5113 10.288C17.4028 10.1172 18.324 10.1934 19.1753 10.5085C19.3787 10.126 19.529 9.71202 19.6145 9.27552C18.2535 9.15007 16.9793 8.55218 16.013 7.58556C15.0467 6.61894 14.4493 5.34457 14.3243 3.98352C13.1554 4.21571 12.1262 4.90183 11.4623 5.89152Z" fill="#0A0D14" style="fill:#0A0D14;fill:color(display-p3 0.0392 0.0510 0.0784);fill-opacity:1;"/>
</svg>
