<svg width="25" height="24" viewBox="0 0 25 24" fill="none" xmlns="http://www.w3.org/2000/svg">
<path d="M9.50299 5.70522C10.0937 4.45569 11.0789 3.43507 12.3067 2.80063C13.5346 2.16619 14.9371 1.95315 16.298 2.19432C16.066 2.90521 16.0354 3.66645 16.2095 4.39368C16.3836 5.12092 16.7556 5.78575 17.2844 6.31452C17.8132 6.84328 18.478 7.21533 19.2052 7.38943C19.9325 7.56354 20.6937 7.5329 21.4046 7.30092C21.4676 7.65732 21.5 8.02452 21.5 8.39892C21.5016 9.46039 21.2337 10.5049 20.7215 11.4346C21.4761 12.0994 22.0103 12.9782 22.253 13.9541C22.4958 14.93 22.4355 15.9567 22.0803 16.8975C21.7251 17.8383 21.0917 18.6486 20.2645 19.2205C19.4374 19.7924 18.4556 20.0988 17.45 20.0989H9.79999C7.91687 20.0978 6.10911 19.359 4.76425 18.0409C3.41939 16.7228 2.64448 14.9302 2.60563 13.0475C2.56678 11.1647 3.26709 9.34171 4.55643 7.96921C5.84577 6.59671 7.62152 5.78397 9.50299 5.70522ZM11.4623 5.89152C12.5965 6.16179 13.6483 6.70295 14.5277 7.46864C15.407 8.23433 16.0876 9.20174 16.5113 10.288C17.4028 10.1172 18.324 10.1934 19.1753 10.5085C19.3787 10.126 19.529 9.71202 19.6145 9.27552C18.2535 9.15007 16.9793 8.55218 16.013 7.58556C15.0467 6.61894 14.4493 5.34457 14.3243 3.98352C13.1554 4.21571 12.1262 4.90183 11.4623 5.89152ZM17.45 18.2989C17.9693 18.2988 18.4806 18.1704 18.9383 17.9249C19.3959 17.6795 19.7858 17.3247 20.0732 16.8921C20.3606 16.4596 20.5366 15.9627 20.5855 15.4456C20.6345 14.9286 20.5548 14.4075 20.3536 13.9287C20.1524 13.4499 19.836 13.0283 19.4325 12.7014C19.029 12.3745 18.5509 12.1524 18.0408 12.0549C17.5307 11.9574 17.0044 11.9876 16.5088 12.1427C16.0131 12.2978 15.5635 12.573 15.2 12.9439V12.8989C15.2 11.8309 14.8833 10.7869 14.2899 9.89884C13.6966 9.01081 12.8532 8.31868 11.8665 7.90997C10.8798 7.50126 9.794 7.39432 8.74651 7.60268C7.69901 7.81104 6.73682 8.32534 5.98162 9.08054C5.22641 9.83575 4.71211 10.7979 4.50375 11.8454C4.29539 12.8929 4.40233 13.9787 4.81104 14.9654C5.21976 15.9521 5.91189 16.7955 6.79991 17.3889C7.68794 17.9822 8.73197 18.2989 9.79999 18.2989H17.45Z" fill="#0A0D14" style="fill:#0A0D14;fill:color(display-p3 0.0392 0.0510 0.0784);fill-opacity:1;"/>
</svg>
