<svg width="25" height="24" viewBox="0 0 25 24" fill="none" xmlns="http://www.w3.org/2000/svg">
<path d="M11.942 3.01562C11.2788 3.63358 10.7469 4.37879 10.378 5.20678C10.009 6.03478 9.81067 6.9286 9.79468 7.83492C9.77869 8.74125 9.94541 9.64151 10.2849 10.482C10.6244 11.3225 11.1297 12.086 11.7707 12.727C12.4116 13.3679 13.1751 13.8732 14.0156 14.2127C14.8561 14.5522 15.7564 14.7189 16.6627 14.7029C17.569 14.687 18.4628 14.4886 19.2908 14.1197C20.1188 13.7507 20.864 13.2188 21.482 12.5556C21.1958 17.2671 17.2844 20.9985 12.5009 20.9985C7.5293 20.9985 3.5 16.9692 3.5 11.9985C3.5 7.21502 7.2314 3.30362 11.942 3.01562Z" fill="#0A0D14" style="fill:#0A0D14;fill:color(display-p3 0.0392 0.0510 0.0784);fill-opacity:1;"/>
</svg>
