<svg width="25" height="24" viewBox="0 0 25 24" fill="none" xmlns="http://www.w3.org/2000/svg">
<path d="M10.7 6.59922C10.6997 7.85928 11.0301 9.09736 11.6581 10.1897C12.2862 11.2821 13.1899 12.1906 14.279 12.8243C15.3681 13.458 16.6045 13.7947 17.8645 13.8009C19.1246 13.8071 20.3642 13.4826 21.4595 12.8596C21.0266 17.4262 17.18 20.9992 12.5 20.9992C7.5293 20.9992 3.5 16.9699 3.5 11.9992C3.5 7.31922 7.073 3.47262 11.6396 3.03972C11.0218 4.12416 10.6979 5.35114 10.7 6.59922ZM5.3 11.9992C5.3 13.9088 6.05857 15.7401 7.40883 17.0904C8.75909 18.4406 10.5904 19.1992 12.5 19.1992C13.7721 19.1991 15.0216 18.8623 16.1213 18.2228C17.2211 17.5834 18.1319 16.6642 18.7613 15.5587C18.4769 15.5857 18.1889 15.5992 17.9 15.5992C12.9293 15.5992 8.9 11.5699 8.9 6.59922C8.9 6.31032 8.9135 6.02322 8.9405 5.73792C7.83498 6.36731 6.9158 7.27817 6.27637 8.37791C5.63695 9.47766 5.30008 10.7271 5.3 11.9992ZM18.0476 3.26112L18.8 3.44922V4.34922L18.0476 4.53732C17.7312 4.61646 17.4422 4.7801 17.2115 5.01074C16.9809 5.24139 16.8172 5.53038 16.7381 5.84682L16.55 6.59922H15.65L15.4619 5.84682C15.3828 5.53038 15.2191 5.24139 14.9885 5.01074C14.7578 4.7801 14.4688 4.61646 14.1524 4.53732L13.4 4.34922V3.44922L14.1524 3.26112C14.4687 3.18184 14.7575 3.01813 14.988 2.7875C15.2184 2.55686 15.3819 2.26795 15.461 1.95162L15.65 1.19922H16.55L16.7381 1.95162C16.8172 2.26806 16.9809 2.55705 17.2115 2.78769C17.4422 3.01834 17.7312 3.18198 18.0476 3.26112ZM22.5476 7.76112L23.3 7.94922V8.84922L22.5476 9.03732C22.2312 9.11646 21.9422 9.2801 21.7115 9.51074C21.4809 9.74139 21.3172 10.0304 21.2381 10.3468L21.05 11.0992H20.15L19.9619 10.3468C19.8828 10.0304 19.7191 9.74139 19.4885 9.51074C19.2578 9.2801 18.9688 9.11646 18.6524 9.03732L17.9 8.84922V7.94922L18.6524 7.76112C18.9688 7.68198 19.2578 7.51834 19.4885 7.28769C19.7191 7.05704 19.8828 6.76806 19.9619 6.45162L20.15 5.69922H21.05L21.2381 6.45162C21.3172 6.76806 21.4809 7.05704 21.7115 7.28769C21.9422 7.51834 22.2312 7.68198 22.5476 7.76112Z" fill="#0A0D14" style="fill:#0A0D14;fill:color(display-p3 0.0392 0.0510 0.0784);fill-opacity:1;"/>
</svg>
