<svg width="25" height="24" viewBox="0 0 25 24" fill="none" xmlns="http://www.w3.org/2000/svg">
<path d="M16.1 19.5025V17.5234C17.6429 16.7074 18.8111 15.3271 19.3607 13.6705C18.1825 13.8865 16.971 13.8385 15.8135 13.5299C14.6561 13.2214 13.5814 12.6599 12.6671 11.8861C11.7527 11.1122 11.0214 10.1452 10.5258 9.05463C10.0302 7.96409 9.78259 6.7772 9.8009 5.57946C8.91797 6.04642 8.14938 6.70308 7.55029 7.50227C6.9512 8.30147 6.53648 9.22339 6.3359 10.2019H4.5053C4.80647 8.32273 5.72564 6.59769 7.11739 5.29967C8.50913 4.00166 10.294 3.20479 12.1895 3.03516C11.603 4.28859 11.4456 5.70027 11.7415 7.05212C12.0373 8.40398 12.7701 9.6208 13.8266 10.5146C14.883 11.4085 16.2044 11.9296 17.5866 11.9975C18.9688 12.0654 20.3349 11.6763 21.4739 10.8904C21.6155 12.7117 21.1701 14.5305 20.2031 16.0804C19.2361 17.6303 17.7982 18.8299 16.1 19.5034V19.5025ZM8 19.2019H14.3V21.0019H8V19.2019ZM5.3 12.0019H10.7V13.8019H5.3V12.0019ZM3.5 15.6019H12.5V17.4019H3.5V15.6019Z" fill="#0A0D14" style="fill:#0A0D14;fill:color(display-p3 0.0392 0.0510 0.0784);fill-opacity:1;"/>
</svg>
