<svg width="25" height="24" viewBox="0 0 25 24" fill="none" xmlns="http://www.w3.org/2000/svg">
<path d="M10.7 7.5C10.6998 8.75158 11.0724 9.97484 11.7703 11.0138C12.4682 12.0527 13.4597 12.8603 14.6184 13.3334C15.7771 13.8065 17.0505 13.9238 18.2761 13.6703C19.5017 13.4168 20.6241 12.804 21.5 11.91V12C21.5 16.9707 17.4707 21 12.5 21C7.5293 21 3.5 16.9707 3.5 12C3.5 7.0293 7.5293 3 12.5 3H12.59C11.9906 3.58601 11.5146 4.28607 11.19 5.05891C10.8654 5.83176 10.6988 6.66176 10.7 7.5ZM5.3 12C5.29935 13.6065 5.83597 15.167 6.8245 16.4334C7.81303 17.6997 9.19667 18.5991 10.7553 18.9883C12.3139 19.3776 13.9579 19.2345 15.4258 18.5817C16.8936 17.9289 18.101 16.8039 18.8558 15.3858C17.5125 15.7023 16.1106 15.6703 14.7831 15.2928C13.4557 14.9154 12.2467 14.2051 11.2708 13.2292C10.2949 12.2533 9.58458 11.0443 9.20715 9.71686C8.82972 8.38939 8.79773 6.9875 9.1142 5.6442C7.96182 6.25812 6.99811 7.1739 6.32623 8.29348C5.65436 9.41306 5.29962 10.6943 5.3 12Z" fill="#0A0D14" style="fill:#0A0D14;fill:color(display-p3 0.0392 0.0510 0.0784);fill-opacity:1;"/>
</svg>
