<svg width="25" height="24" viewBox="0 0 25 24" fill="none" xmlns="http://www.w3.org/2000/svg">
<path d="M10.5398 3.21342C9.84697 4.71737 9.63172 6.39754 9.92305 8.02757C10.2144 9.65761 10.9983 11.1592 12.1691 12.3301C13.34 13.501 14.8416 14.2849 16.4716 14.5762C18.1017 14.8675 19.7818 14.6522 21.2858 13.9594C20.3912 17.9878 16.7975 20.9992 12.5 20.9992C7.5293 20.9992 3.5 16.9699 3.5 11.9992C3.5 7.70172 6.5114 4.10802 10.5398 3.21342ZM18.0476 3.26112L18.8 3.44922V4.34922L18.0476 4.53732C17.7312 4.61646 17.4422 4.7801 17.2115 5.01074C16.9809 5.24139 16.8172 5.53038 16.7381 5.84682L16.55 6.59922H15.65L15.4619 5.84682C15.3828 5.53038 15.2191 5.24139 14.9885 5.01074C14.7578 4.7801 14.4688 4.61646 14.1524 4.53732L13.4 4.34922V3.44922L14.1524 3.26112C14.4687 3.18184 14.7575 3.01813 14.988 2.7875C15.2184 2.55686 15.3819 2.26795 15.461 1.95162L15.65 1.19922H16.55L16.7381 1.95162C16.8172 2.26806 16.9809 2.55705 17.2115 2.78769C17.4422 3.01834 17.7312 3.18198 18.0476 3.26112ZM22.5476 7.76112L23.3 7.94922V8.84922L22.5476 9.03732C22.2312 9.11646 21.9422 9.2801 21.7115 9.51074C21.4809 9.74139 21.3172 10.0304 21.2381 10.3468L21.05 11.0992H20.15L19.9619 10.3468C19.8828 10.0304 19.7191 9.74139 19.4885 9.51074C19.2578 9.2801 18.9688 9.11646 18.6524 9.03732L17.9 8.84922V7.94922L18.6524 7.76112C18.9688 7.68198 19.2578 7.51834 19.4885 7.28769C19.7191 7.05704 19.8828 6.76806 19.9619 6.45162L20.15 5.69922H21.05L21.2381 6.45162C21.3172 6.76806 21.4809 7.05704 21.7115 7.28769C21.9422 7.51834 22.2312 7.68198 22.5476 7.76112Z" fill="#0A0D14" style="fill:#0A0D14;fill:color(display-p3 0.0392 0.0510 0.0784);fill-opacity:1;"/>
</svg>
