<svg width="25" height="24" viewBox="0 0 25 24" fill="none" xmlns="http://www.w3.org/2000/svg">
<path d="M16.1 19.5021V17.4015H14.3V13.8015H4.6988C4.49977 13.0681 4.39928 12.3114 4.4 11.5515C4.4 7.44751 7.2917 4.01851 11.15 3.19141C10.633 4.57977 10.5569 6.09382 10.932 7.52704C11.3071 8.96026 12.1153 10.2429 13.2461 11.1999C14.377 12.157 15.7756 12.7419 17.2511 12.8749C18.7266 13.0079 20.2072 12.6824 21.491 11.943C21.4156 13.5884 20.8668 15.177 19.9105 16.5181C18.9542 17.8592 17.631 18.8956 16.1 19.503V19.5021ZM8 19.2015H14.3V21.0015H8V19.2015ZM3.5 15.6015H12.5V17.4015H3.5V15.6015Z" fill="#0A0D14" style="fill:#0A0D14;fill:color(display-p3 0.0392 0.0510 0.0784);fill-opacity:1;"/>
</svg>
