<svg width="25" height="24" viewBox="0 0 25 24" fill="none" xmlns="http://www.w3.org/2000/svg">
<path d="M12.5 3.89844C11.7575 3.89844 11.15 4.50594 11.15 5.24844C11.15 5.99094 11.7575 6.59844 12.5 6.59844C13.2425 6.59844 13.85 5.99094 13.85 5.24844C13.85 4.50594 13.2425 3.89844 12.5 3.89844ZM12.5 17.3984C11.7575 17.3984 11.15 18.0059 11.15 18.7484C11.15 19.4909 11.7575 20.0984 12.5 20.0984C13.2425 20.0984 13.85 19.4909 13.85 18.7484C13.85 18.0059 13.2425 17.3984 12.5 17.3984ZM12.5 10.6484C11.7575 10.6484 11.15 11.2559 11.15 11.9984C11.15 12.7409 11.7575 13.3484 12.5 13.3484C13.2425 13.3484 13.85 12.7409 13.85 11.9984C13.85 11.2559 13.2425 10.6484 12.5 10.6484Z" fill="#0A0D14" style="fill:#0A0D14;fill:color(display-p3 0.0392 0.0510 0.0784);fill-opacity:1;"/>
</svg>
