<svg width="25" height="24" viewBox="0 0 25 24" fill="none" xmlns="http://www.w3.org/2000/svg">
<path d="M12.5 3.89844C11.51 3.89844 10.7 4.70844 10.7 5.69844C10.7 6.68844 11.51 7.49844 12.5 7.49844C13.49 7.49844 14.3 6.68844 14.3 5.69844C14.3 4.70844 13.49 3.89844 12.5 3.89844ZM12.5 16.4984C11.51 16.4984 10.7 17.3084 10.7 18.2984C10.7 19.2884 11.51 20.0984 12.5 20.0984C13.49 20.0984 14.3 19.2884 14.3 18.2984C14.3 17.3084 13.49 16.4984 12.5 16.4984ZM12.5 10.1984C11.51 10.1984 10.7 11.0084 10.7 11.9984C10.7 12.9884 11.51 13.7984 12.5 13.7984C13.49 13.7984 14.3 12.9884 14.3 11.9984C14.3 11.0084 13.49 10.1984 12.5 10.1984Z" fill="#0A0D14" style="fill:#0A0D14;fill:color(display-p3 0.0392 0.0510 0.0784);fill-opacity:1;"/>
</svg>
