<svg width="25" height="24" viewBox="0 0 25 24" fill="none" xmlns="http://www.w3.org/2000/svg">
<path d="M6.20002 10.1992C5.21002 10.1992 4.40002 11.0092 4.40002 11.9992C4.40002 12.9892 5.21002 13.7992 6.20002 13.7992C7.19002 13.7992 8.00002 12.9892 8.00002 11.9992C8.00002 11.0092 7.19002 10.1992 6.20002 10.1992ZM18.8 10.1992C17.81 10.1992 17 11.0092 17 11.9992C17 12.9892 17.81 13.7992 18.8 13.7992C19.79 13.7992 20.6 12.9892 20.6 11.9992C20.6 11.0092 19.79 10.1992 18.8 10.1992ZM12.5 10.1992C11.51 10.1992 10.7 11.0092 10.7 11.9992C10.7 12.9892 11.51 13.7992 12.5 13.7992C13.49 13.7992 14.3 12.9892 14.3 11.9992C14.3 11.0092 13.49 10.1992 12.5 10.1992Z" fill="#0A0D14" style="fill:#0A0D14;fill:color(display-p3 0.0392 0.0510 0.0784);fill-opacity:1;"/>
</svg>
