<svg width="25" height="24" viewBox="0 0 25 24" fill="none" xmlns="http://www.w3.org/2000/svg">
<path d="M5.75002 10.6484C5.00752 10.6484 4.40002 11.2559 4.40002 11.9984C4.40002 12.7409 5.00752 13.3484 5.75002 13.3484C6.49252 13.3484 7.10002 12.7409 7.10002 11.9984C7.10002 11.2559 6.49252 10.6484 5.75002 10.6484ZM19.25 10.6484C18.5075 10.6484 17.9 11.2559 17.9 11.9984C17.9 12.7409 18.5075 13.3484 19.25 13.3484C19.9925 13.3484 20.6 12.7409 20.6 11.9984C20.6 11.2559 19.9925 10.6484 19.25 10.6484ZM12.5 10.6484C11.7575 10.6484 11.15 11.2559 11.15 11.9984C11.15 12.7409 11.7575 13.3484 12.5 13.3484C13.2425 13.3484 13.85 12.7409 13.85 11.9984C13.85 11.2559 13.2425 10.6484 12.5 10.6484Z" fill="#0A0D14" style="fill:#0A0D14;fill:color(display-p3 0.0392 0.0510 0.0784);fill-opacity:1;"/>
</svg>
