<svg width="25" height="24" viewBox="0 0 25 24" fill="none" xmlns="http://www.w3.org/2000/svg">
<path d="M5.30003 13.1308V12.0004H3.50003V10.2004H9.22853L11.78 8.40039H14.9219L13.94 5.70039H11.6V3.90039H15.2L16.1828 6.60039H19.7V9.30039H17.1656L18.476 12.9022C19.4703 12.9338 20.4182 13.3302 21.1389 14.0159C21.8596 14.7016 22.3028 15.6286 22.3839 16.62C22.4649 17.6115 22.1783 18.5982 21.5785 19.3918C20.9788 20.1855 20.1079 20.7307 19.132 20.9234C18.156 21.1161 17.1433 20.9429 16.2869 20.4368C15.4305 19.9307 14.7903 19.1271 14.4884 18.1793C14.1865 17.2314 14.244 16.2056 14.6499 15.2974C15.0559 14.3892 15.7819 13.6622 16.6895 13.255L15.5771 10.2004H14.7248L13.301 15.4834L13.2992 15.4825L13.301 15.4879L10.6685 16.4455C10.7635 17.2035 10.6422 17.9729 10.3186 18.6649C9.99494 19.357 9.48217 19.9433 8.83949 20.3563C8.1968 20.7693 7.45041 20.9921 6.68649 20.999C5.92258 21.0059 5.17229 20.7966 4.52226 20.3952C3.87223 19.9939 3.34898 19.4169 3.01291 18.7308C2.67684 18.0448 2.54167 17.2776 2.62299 16.518C2.70432 15.7584 2.99883 15.0373 3.47253 14.438C3.94622 13.8386 4.57977 13.3854 5.30003 13.1308ZM7.10003 12.9247C7.69714 12.9915 8.27188 13.1904 8.78262 13.5069C9.29335 13.8233 9.72727 14.2495 10.0529 14.7544L11.8142 14.1127L12.8627 10.2004H12.3704L9.80003 12.0004H7.10003V12.9247ZM6.65003 19.2004C7.24677 19.2004 7.81907 18.9633 8.24102 18.5414C8.66298 18.1194 8.90003 17.5471 8.90003 16.9504C8.90003 16.3537 8.66298 15.7814 8.24102 15.3594C7.81907 14.9374 7.24677 14.7004 6.65003 14.7004C6.0533 14.7004 5.481 14.9374 5.05904 15.3594C4.63709 15.7814 4.40003 16.3537 4.40003 16.9504C4.40003 17.5471 4.63709 18.1194 5.05904 18.5414C5.481 18.9633 6.0533 19.2004 6.65003 19.2004ZM18.35 19.2004C18.9468 19.2004 19.5191 18.9633 19.941 18.5414C20.363 18.1194 20.6 17.5471 20.6 16.9504C20.6 16.3537 20.363 15.7814 19.941 15.3594C19.5191 14.9374 18.9468 14.7004 18.35 14.7004C17.7533 14.7004 17.181 14.9374 16.759 15.3594C16.3371 15.7814 16.1 16.3537 16.1 16.9504C16.1 17.5471 16.3371 18.1194 16.759 18.5414C17.181 18.9633 17.7533 19.2004 18.35 19.2004Z" fill="#0A0D14" style="fill:#0A0D14;fill:color(display-p3 0.0392 0.0510 0.0784);fill-opacity:1;"/>
</svg>
