<svg width="25" height="24" viewBox="0 0 25 24" fill="none" xmlns="http://www.w3.org/2000/svg">
<path d="M9.22849 10.2004L11.78 8.40039H17V10.2004H12.3704L9.79999 12.0004H3.49999V10.2004H9.22849ZM10.0529 14.7544L12.6854 13.7959L13.301 15.4879L10.6685 16.4455C10.7924 17.4334 10.5481 18.4324 9.98209 19.2516C9.41613 20.0708 8.56822 20.6528 7.60033 20.8865C6.63243 21.1201 5.61239 20.989 4.73503 20.5182C3.85767 20.0474 3.18448 19.27 2.84405 18.3343C2.50362 17.3986 2.5198 16.3703 2.88951 15.4458C3.25922 14.5213 3.95654 13.7653 4.84828 13.3224C5.74003 12.8794 6.76369 12.7805 7.72375 13.0445C8.68381 13.3085 9.51298 13.9169 10.0529 14.7535V14.7544ZM6.64999 19.2004C7.24672 19.2004 7.81902 18.9633 8.24098 18.5414C8.66293 18.1194 8.89999 17.5471 8.89999 16.9504C8.89999 16.3537 8.66293 15.7814 8.24098 15.3594C7.81902 14.9374 7.24672 14.7004 6.64999 14.7004C6.05325 14.7004 5.48095 14.9374 5.05899 15.3594C4.63704 15.7814 4.39999 16.3537 4.39999 16.9504C4.39999 17.5471 4.63704 18.1194 5.05899 18.5414C5.48095 18.9633 6.05325 19.2004 6.64999 19.2004ZM18.35 21.0004C17.8181 21.0004 17.2915 20.8956 16.8001 20.6921C16.3087 20.4886 15.8623 20.1903 15.4862 19.8142C15.1101 19.4381 14.8118 18.9916 14.6083 18.5003C14.4047 18.0089 14.3 17.4822 14.3 16.9504C14.3 16.4185 14.4047 15.8919 14.6083 15.4005C14.8118 14.9092 15.1101 14.4627 15.4862 14.0866C15.8623 13.7105 16.3087 13.4122 16.8001 13.2087C17.2915 13.0051 17.8181 12.9004 18.35 12.9004C19.4241 12.9004 20.4542 13.3271 21.2138 14.0866C21.9733 14.8461 22.4 15.8763 22.4 16.9504C22.4 18.0245 21.9733 19.0547 21.2138 19.8142C20.4542 20.5737 19.4241 21.0004 18.35 21.0004ZM18.35 19.2004C18.9467 19.2004 19.519 18.9633 19.941 18.5414C20.3629 18.1194 20.6 17.5471 20.6 16.9504C20.6 16.3537 20.3629 15.7814 19.941 15.3594C19.519 14.9374 18.9467 14.7004 18.35 14.7004C17.7532 14.7004 17.181 14.9374 16.759 15.3594C16.337 15.7814 16.1 16.3537 16.1 16.9504C16.1 17.5471 16.337 18.1194 16.759 18.5414C17.181 18.9633 17.7532 19.2004 18.35 19.2004ZM5.29999 11.1004H10.7L13.04 9.54069L13.292 8.59929L15.0308 9.06549L13.301 15.4834L11.6612 14.6842L11.7674 14.2882L9.79999 15.6004L8.89999 13.8004H5.29999V11.1004ZM16.1828 6.60039H19.7V9.30039H17.1656L18.8936 14.0488L17.2016 14.6644L15.2504 9.30039H15.2V9.16359L13.94 5.70039H11.6V3.90039H15.2L16.1828 6.60039Z" fill="#0A0D14" style="fill:#0A0D14;fill:color(display-p3 0.0392 0.0510 0.0784);fill-opacity:1;"/>
</svg>
