<svg width="25" height="24" viewBox="0 0 25 24" fill="none" xmlns="http://www.w3.org/2000/svg">
<path d="M11.7269 3H13.2731C15.0857 3 16.0577 3.2502 16.9379 3.7209C17.8076 4.18124 18.5187 4.89242 18.9791 5.7621C19.4498 6.6423 19.7 7.6143 19.7 9.4269V14.5731C19.7 16.3857 19.4498 17.3577 18.9791 18.2379C18.5187 19.1076 17.8076 19.8188 16.9379 20.2791C16.0577 20.7498 15.0857 21 13.2731 21H11.726C9.91339 21 8.94139 20.7498 8.06119 20.2791C7.19151 19.8188 6.48033 19.1076 6.01999 18.2379C5.55019 17.3577 5.29999 16.3857 5.29999 14.5731V9.426C5.29999 7.6134 5.55019 6.6414 6.02089 5.7612C6.48161 4.89173 7.19311 4.18086 8.06299 3.7209C8.94229 3.2502 9.91429 3 11.7269 3ZM11.6 6.6V11.1H13.4V6.6H11.6Z" fill="#0A0D14" style="fill:#0A0D14;fill:color(display-p3 0.0392 0.0510 0.0784);fill-opacity:1;"/>
</svg>
