<svg width="25" height="24" viewBox="0 0 25 24" fill="none" xmlns="http://www.w3.org/2000/svg">
<path d="M12.5 19.2H19.7V21H12.5C7.5293 21 3.5 16.9707 3.5 12C3.5 7.0293 7.5293 3 12.5 3C17.4707 3 21.5 7.0293 21.5 12C21.5029 13.9478 20.871 15.8435 19.7 17.4H17.2628C18.5266 16.2854 19.3595 14.7628 19.6163 13.0974C19.8732 11.432 19.5377 9.72923 18.6684 8.28566C17.7991 6.84209 16.451 5.74917 14.8588 5.1972C13.2667 4.64524 11.5314 4.66921 9.95507 5.26494C8.37878 5.86067 7.06137 6.99041 6.23225 8.45744C5.40314 9.92446 5.11485 11.6358 5.4176 13.2935C5.72034 14.9512 6.59492 16.4502 7.88906 17.5295C9.1832 18.6087 10.8149 19.1999 12.5 19.2ZM12.5 10.2C12.0226 10.2 11.5648 10.0104 11.2272 9.67279C10.8896 9.33523 10.7 8.87739 10.7 8.4C10.7 7.92261 10.8896 7.46477 11.2272 7.12721C11.5648 6.78964 12.0226 6.6 12.5 6.6C12.9774 6.6 13.4352 6.78964 13.7728 7.12721C14.1104 7.46477 14.3 7.92261 14.3 8.4C14.3 8.87739 14.1104 9.33523 13.7728 9.67279C13.4352 10.0104 12.9774 10.2 12.5 10.2ZM8.9 13.8C8.42261 13.8 7.96477 13.6104 7.62721 13.2728C7.28964 12.9352 7.1 12.4774 7.1 12C7.1 11.5226 7.28964 11.0648 7.62721 10.7272C7.96477 10.3896 8.42261 10.2 8.9 10.2C9.37739 10.2 9.83523 10.3896 10.1728 10.7272C10.5104 11.0648 10.7 11.5226 10.7 12C10.7 12.4774 10.5104 12.9352 10.1728 13.2728C9.83523 13.6104 9.37739 13.8 8.9 13.8ZM16.1 13.8C15.6226 13.8 15.1648 13.6104 14.8272 13.2728C14.4896 12.9352 14.3 12.4774 14.3 12C14.3 11.5226 14.4896 11.0648 14.8272 10.7272C15.1648 10.3896 15.6226 10.2 16.1 10.2C16.5774 10.2 17.0352 10.3896 17.3728 10.7272C17.7104 11.0648 17.9 11.5226 17.9 12C17.9 12.4774 17.7104 12.9352 17.3728 13.2728C17.0352 13.6104 16.5774 13.8 16.1 13.8ZM12.5 17.4C12.0226 17.4 11.5648 17.2104 11.2272 16.8728C10.8896 16.5352 10.7 16.0774 10.7 15.6C10.7 15.1226 10.8896 14.6648 11.2272 14.3272C11.5648 13.9896 12.0226 13.8 12.5 13.8C12.9774 13.8 13.4352 13.9896 13.7728 14.3272C14.1104 14.6648 14.3 15.1226 14.3 15.6C14.3 16.0774 14.1104 16.5352 13.7728 16.8728C13.4352 17.2104 12.9774 17.4 12.5 17.4Z" fill="#0A0D14" style="fill:#0A0D14;fill:color(display-p3 0.0392 0.0510 0.0784);fill-opacity:1;"/>
</svg>
