<svg width="25" height="24" viewBox="0 0 25 24" fill="none" xmlns="http://www.w3.org/2000/svg">
<path d="M3.5 4.79214C3.50165 4.55578 3.59621 4.32955 3.76326 4.16233C3.93031 3.99511 4.15644 3.90032 4.3928 3.89844H20.6072C21.1004 3.89844 21.5 4.29894 21.5 4.79214V19.2047C21.4984 19.4411 21.4038 19.6673 21.2367 19.8345C21.0697 20.0018 20.8436 20.0966 20.6072 20.0984H4.3928C4.15593 20.0982 3.92885 20.0039 3.76144 19.8364C3.59403 19.6688 3.5 19.4416 3.5 19.2047V4.79214ZM5.3 5.69844V18.2984H19.7V5.69844H5.3ZM11.2598 8.77194L15.6509 11.6987C15.7003 11.7316 15.7408 11.7762 15.7688 11.8284C15.7968 11.8807 15.8115 11.9391 15.8115 11.9984C15.8115 12.0578 15.7968 12.1161 15.7688 12.1684C15.7408 12.2207 15.7003 12.2653 15.6509 12.2981L11.2589 15.2249C11.2047 15.2608 11.1419 15.2814 11.077 15.2845C11.0121 15.2875 10.9476 15.273 10.8903 15.2424C10.833 15.2117 10.785 15.1662 10.7515 15.1105C10.718 15.0548 10.7002 14.9911 10.7 14.9261V9.07074C10.7001 9.00562 10.7179 8.94176 10.7514 8.88595C10.785 8.83014 10.833 8.78447 10.8905 8.75381C10.9479 8.72315 11.0126 8.70864 11.0776 8.71184C11.1427 8.71503 11.2056 8.7358 11.2598 8.77194Z" fill="#0A0D14" style="fill:#0A0D14;fill:color(display-p3 0.0392 0.0510 0.0784);fill-opacity:1;"/>
</svg>
