<svg width="25" height="24" viewBox="0 0 25 24" fill="none" xmlns="http://www.w3.org/2000/svg">
<path d="M17.9009 19.2H19.7V21H12.5C7.5293 21 3.5 16.9707 3.5 12C3.5 7.0293 7.5293 3 12.5 3C17.4707 3 21.5 7.0293 21.5 12C21.5012 13.3973 21.1764 14.7756 20.5517 16.0255C19.9269 17.2754 19.0193 18.3623 17.9009 19.2ZM12.5 10.2C12.9774 10.2 13.4352 10.0104 13.7728 9.67279C14.1104 9.33523 14.3 8.87739 14.3 8.4C14.3 7.92261 14.1104 7.46477 13.7728 7.12721C13.4352 6.78964 12.9774 6.6 12.5 6.6C12.0226 6.6 11.5648 6.78964 11.2272 7.12721C10.8896 7.46477 10.7 7.92261 10.7 8.4C10.7 8.87739 10.8896 9.33523 11.2272 9.67279C11.5648 10.0104 12.0226 10.2 12.5 10.2ZM8.9 13.8C9.37739 13.8 9.83523 13.6104 10.1728 13.2728C10.5104 12.9352 10.7 12.4774 10.7 12C10.7 11.5226 10.5104 11.0648 10.1728 10.7272C9.83523 10.3896 9.37739 10.2 8.9 10.2C8.42261 10.2 7.96477 10.3896 7.62721 10.7272C7.28964 11.0648 7.1 11.5226 7.1 12C7.1 12.4774 7.28964 12.9352 7.62721 13.2728C7.96477 13.6104 8.42261 13.8 8.9 13.8ZM16.1 13.8C16.5774 13.8 17.0352 13.6104 17.3728 13.2728C17.7104 12.9352 17.9 12.4774 17.9 12C17.9 11.5226 17.7104 11.0648 17.3728 10.7272C17.0352 10.3896 16.5774 10.2 16.1 10.2C15.6226 10.2 15.1648 10.3896 14.8272 10.7272C14.4896 11.0648 14.3 11.5226 14.3 12C14.3 12.4774 14.4896 12.9352 14.8272 13.2728C15.1648 13.6104 15.6226 13.8 16.1 13.8ZM12.5 17.4C12.9774 17.4 13.4352 17.2104 13.7728 16.8728C14.1104 16.5352 14.3 16.0774 14.3 15.6C14.3 15.1226 14.1104 14.6648 13.7728 14.3272C13.4352 13.9896 12.9774 13.8 12.5 13.8C12.0226 13.8 11.5648 13.9896 11.2272 14.3272C10.8896 14.6648 10.7 15.1226 10.7 15.6C10.7 16.0774 10.8896 16.5352 11.2272 16.8728C11.5648 17.2104 12.0226 17.4 12.5 17.4Z" fill="#0A0D14" style="fill:#0A0D14;fill:color(display-p3 0.0392 0.0510 0.0784);fill-opacity:1;"/>
</svg>
