<svg width="25" height="24" viewBox="0 0 25 24" fill="none" xmlns="http://www.w3.org/2000/svg">
<path d="M19.7 3.89844V16.4984C19.6998 17.2909 19.4382 18.0611 18.9556 18.6897C18.4731 19.3183 17.7966 19.7701 17.0311 19.9751C16.2657 20.1801 15.4539 20.1268 14.7219 19.8234C13.9898 19.52 13.3782 18.9836 12.9821 18.2973C12.5859 17.611 12.4273 16.8131 12.5308 16.0274C12.6343 15.2418 12.9942 14.5122 13.5545 13.9519C14.1149 13.3916 14.8445 13.0318 15.6302 12.9284C16.4159 12.825 17.2137 12.9837 17.9 13.3799V6.59844H9.79998V16.4984C9.7998 17.2909 9.53816 18.0611 9.05562 18.6897C8.57309 19.3183 7.89662 19.7701 7.13114 19.9751C6.36566 20.1801 5.55394 20.1268 4.82185 19.8234C4.08977 19.52 3.47823 18.9836 3.08209 18.2973C2.68594 17.611 2.52732 16.8131 2.63082 16.0274C2.73432 15.2418 3.09416 14.5122 3.65454 13.9519C4.21492 13.3916 4.94451 13.0318 5.73019 12.9284C6.51586 12.825 7.3137 12.9837 7.99998 13.3799V3.89844H19.7Z" fill="#0A0D14" style="fill:#0A0D14;fill:color(display-p3 0.0392 0.0510 0.0784);fill-opacity:1;"/>
</svg>
