<svg width="25" height="24" viewBox="0 0 25 24" fill="none" xmlns="http://www.w3.org/2000/svg">
<path d="M3.5 4.79214C3.50165 4.55578 3.59621 4.32955 3.76326 4.16233C3.93031 3.99511 4.15644 3.90032 4.3928 3.89844H20.6072C21.1004 3.89844 21.5 4.29894 21.5 4.79214V19.2047C21.4984 19.4411 21.4038 19.6673 21.2367 19.8345C21.0697 20.0018 20.8436 20.0966 20.6072 20.0984H4.3928C4.15593 20.0982 3.92885 20.0039 3.76144 19.8364C3.59403 19.6688 3.5 19.4416 3.5 19.2047V4.79214ZM12.5 12.1523C11.9597 11.9613 11.3725 11.9472 10.8236 12.112C10.2747 12.2768 9.79246 12.612 9.4467 13.069C9.10094 13.5261 8.90959 14.0814 8.90035 14.6544C8.89111 15.2274 9.06446 15.7886 9.39531 16.2566C9.72616 16.7245 10.1973 17.0751 10.7407 17.2575C11.284 17.4399 11.8713 17.4447 12.4175 17.2712C12.9637 17.0977 13.4405 16.7548 13.779 16.2923C14.1174 15.8298 14.2999 15.2716 14.3 14.6984V8.39754H17V6.59844H12.5V12.1514V12.1523Z" fill="#0A0D14" style="fill:#0A0D14;fill:color(display-p3 0.0392 0.0510 0.0784);fill-opacity:1;"/>
</svg>
