<svg width="25" height="24" viewBox="0 0 25 24" fill="none" xmlns="http://www.w3.org/2000/svg">
<path d="M3.5 4.79214C3.50165 4.55578 3.59621 4.32955 3.76326 4.16233C3.93031 3.99511 4.15644 3.90032 4.3928 3.89844H20.6072C21.1004 3.89844 21.5 4.29894 21.5 4.79214V19.2047C21.4984 19.4411 21.4038 19.6673 21.2367 19.8345C21.0697 20.0018 20.8436 20.0966 20.6072 20.0984H4.3928C4.15593 20.0982 3.92885 20.0039 3.76144 19.8364C3.59403 19.6688 3.5 19.4416 3.5 19.2047V4.79214ZM5.3 5.69844V18.2984H19.7V5.69844H5.3ZM12.5 12.1514V6.59844H17V8.39844H14.3V14.6984C14.2997 15.2715 14.1171 15.8296 13.7785 16.292C13.44 16.7544 12.9631 17.0971 12.4168 17.2705C11.8706 17.4439 11.2834 17.439 10.7401 17.2564C10.1969 17.0739 9.7258 16.7233 9.39505 16.2553C9.0643 15.7873 8.89105 15.2262 8.90036 14.6532C8.90967 14.0802 9.10106 13.525 9.44683 13.068C9.79261 12.6109 10.2748 12.2758 10.8237 12.111C11.3726 11.9463 11.9597 11.9604 12.5 12.1514Z" fill="#0A0D14" style="fill:#0A0D14;fill:color(display-p3 0.0392 0.0510 0.0784);fill-opacity:1;"/>
</svg>
