<svg width="25" height="24" viewBox="0 0 25 24" fill="none" xmlns="http://www.w3.org/2000/svg">
<path d="M4.31002 3.26949L21.2345 8.91069C21.3221 8.93973 21.3987 8.995 21.4538 9.069C21.5089 9.14301 21.54 9.23218 21.5427 9.32443C21.5455 9.41667 21.5198 9.50754 21.4692 9.5847C21.4186 9.66186 21.3454 9.72159 21.2597 9.75579L13.4 12.8995L9.41752 20.8645C9.37699 20.9456 9.31291 21.0126 9.23367 21.0566C9.15443 21.1007 9.06373 21.1198 8.97345 21.1114C8.88317 21.1031 8.79752 21.0676 8.72773 21.0098C8.65793 20.9519 8.60725 20.8743 8.58232 20.7871L3.73402 3.81939C3.71156 3.74057 3.71106 3.6571 3.73257 3.57801C3.75407 3.49892 3.79677 3.42721 3.85606 3.37061C3.91534 3.31401 3.98896 3.27468 4.06896 3.25686C4.14897 3.23904 4.23232 3.24341 4.31002 3.26949Z" fill="#0A0D14" style="fill:#0A0D14;fill:color(display-p3 0.0392 0.0510 0.0784);fill-opacity:1;"/>
</svg>
