<svg width="25" height="24" viewBox="0 0 25 24" fill="none" xmlns="http://www.w3.org/2000/svg">
<path d="M12.5 21C7.5293 21 3.5 16.9707 3.5 12C3.5 7.0293 7.5293 3 12.5 3C17.4707 3 21.5 7.0293 21.5 12C21.5 16.9707 17.4707 21 12.5 21ZM11.5226 11.6112C11.7386 10.8552 12.4901 10.2243 13.3136 10.128C13.4819 10.7526 13.6628 11.3637 13.8041 11.9847C13.8518 12.1917 13.8374 12.4302 13.7879 12.639C13.5962 13.4418 12.6647 13.7568 12.0077 13.2555C11.5307 12.891 11.3399 12.2475 11.5226 11.6112ZM14.9579 11.4339C14.8454 11.0154 14.7275 10.5996 14.6042 10.1559C15.0542 10.2729 15.4214 10.4799 15.7337 10.7841C16.865 11.883 16.9802 13.7541 15.9983 15.042C14.9768 16.383 13.1588 16.9626 11.4731 16.4865C9.4013 15.9015 8.0459 13.8297 8.3762 11.7021C8.6228 10.1109 9.5192 8.9985 10.9862 8.3424C11.3525 8.1786 11.5082 7.8384 11.3642 7.5054C11.2229 7.1778 10.8782 7.0518 10.5146 7.1967C8.0657 8.1768 6.6266 10.9173 7.2116 13.485C7.8533 16.2912 10.3571 18.1317 13.2191 17.8581C14.7779 17.7096 16.0667 17.0049 17.0135 15.7458C18.3689 13.944 18.1808 11.4411 16.5968 9.8967C15.9974 9.3117 15.2729 8.9805 14.4458 8.859C14.3711 8.8473 14.2505 8.8122 14.237 8.7636C14.1587 8.4819 14.075 8.1948 14.0516 7.905C14.0255 7.5837 14.3126 7.329 14.6366 7.3245C14.8643 7.3218 15.0272 7.4415 15.1793 7.5945C15.452 7.8645 15.8129 7.8843 16.0685 7.6503C16.3295 7.4127 16.3349 7.0401 16.0847 6.7431C15.5753 6.1383 14.6573 5.9412 13.8977 6.2724C13.1354 6.6054 12.7088 7.3407 12.8177 8.1561C12.8519 8.4081 12.9167 8.6574 12.968 8.9139L12.734 8.9787C11.9636 9.1947 11.3291 9.6123 10.8458 10.2513C10.0169 11.3493 10.0034 12.7965 10.8089 13.8036C11.9555 15.2382 14.1812 14.9592 14.8796 13.2924C15.1352 12.684 15.1271 12.0612 14.9579 11.4339Z" fill="#0A0D14" style="fill:#0A0D14;fill:color(display-p3 0.0392 0.0510 0.0784);fill-opacity:1;"/>
</svg>
