<svg width="25" height="24" viewBox="0 0 25 24" fill="none" xmlns="http://www.w3.org/2000/svg">
<path d="M11.0789 11.4385C10.8143 12.3637 11.0897 13.2961 11.7845 13.8262C12.7394 14.5552 14.093 14.0962 14.3711 12.9307C14.4431 12.6274 14.4638 12.2809 14.3954 11.9803C14.1884 11.0794 13.9274 10.1911 13.6826 9.28387C12.4856 9.42247 11.3939 10.3387 11.0789 11.4385ZM16.0721 11.1802C16.3178 12.091 16.3286 12.9955 15.9578 13.8802C14.9426 16.3012 11.7089 16.7062 10.0421 14.6236C8.87029 13.1593 8.89009 11.0587 10.0961 9.46297C10.7981 8.53417 11.7197 7.92667 12.8393 7.61437L13.1804 7.52077C13.1048 7.14727 13.0112 6.78637 12.9617 6.41917C12.8033 5.23387 13.4225 4.16647 14.5313 3.68317C15.6347 3.20167 16.9685 3.48877 17.7083 4.36717C18.0737 4.79827 18.0638 5.33917 17.6858 5.68477C17.315 6.02407 16.7894 5.99617 16.3943 5.60377C16.172 5.38237 15.9353 5.20777 15.605 5.21137C15.1325 5.21677 14.7167 5.58757 14.7545 6.05467C14.7878 6.47587 14.9102 6.89167 15.0245 7.30207C15.0443 7.37227 15.2189 7.42357 15.3287 7.43977C16.5293 7.61707 17.5823 8.09767 18.4535 8.94817C20.7557 11.1919 21.0284 14.8261 19.0583 17.4442C17.6822 19.273 15.8093 20.2954 13.544 20.5123C9.38509 20.9083 5.74639 18.2353 4.81399 14.1601C3.96349 10.4305 6.05599 6.44887 9.61549 5.02597C10.1429 4.81537 10.6442 4.99807 10.8494 5.47417C11.0582 5.95747 10.8323 6.45157 10.3004 6.68917C8.16919 7.64317 6.86509 9.25867 6.50689 11.5708C6.02719 14.6605 7.99729 17.6692 11.0069 18.5188C13.4576 19.2118 16.0991 18.3694 17.5841 16.4218C19.0115 14.5498 18.8441 11.8327 17.1998 10.2361C16.7437 9.7917 16.1773 9.47699 15.5591 9.32437C15.7373 9.96877 15.9092 10.5736 16.0721 11.1802Z" fill="#0A0D14" style="fill:#0A0D14;fill:color(display-p3 0.0392 0.0510 0.0784);fill-opacity:1;"/>
</svg>
