<svg width="25" height="24" viewBox="0 0 25 24" fill="none" xmlns="http://www.w3.org/2000/svg">
<path d="M11.861 4.63221L13.679 9.76851L14.0345 10.7729L14.0408 6.44391L14.0498 2.10771H17.8928L17.9 11.8835C17.9027 17.2655 17.8973 21.6845 17.8865 21.6935C17.8757 21.7016 17.6984 21.6935 17.4941 21.6692C16.604 21.563 15.4331 21.4568 14.4881 21.4154C14.2971 21.4082 14.1062 21.3968 13.9157 21.3812C13.913 21.3776 13.67 20.6954 13.2173 19.4156V19.412L11.2877 13.9571L10.9817 13.0985L10.9745 17.2259C10.9691 21.1544 10.9655 21.3749 10.9232 21.3749C10.7765 21.3749 9.51021 21.4559 9.08721 21.4973C8.81001 21.5216 8.25381 21.5783 7.85421 21.6278C7.45281 21.6737 7.11981 21.7043 7.11351 21.698C7.10541 21.6926 7.10001 17.2799 7.10001 11.8943V2.10141H7.10451V2.09961H10.9637L10.9889 2.17161C10.9952 2.18601 11.0474 2.33001 11.1302 2.56491L11.7071 4.16511L11.8628 4.61151L11.8619 4.63221H11.861Z" fill="#0A0D14" style="fill:#0A0D14;fill:color(display-p3 0.0392 0.0510 0.0784);fill-opacity:1;"/>
</svg>
