<svg width="25" height="24" viewBox="0 0 25 24" fill="none" xmlns="http://www.w3.org/2000/svg">
<path d="M10.25 12C11.0785 12 11.75 11.3285 11.75 10.5C11.75 9.67157 11.0785 9 10.25 9C9.42157 9 8.75 9.67157 8.75 10.5C8.75 11.3285 9.42157 12 10.25 12ZM19.625 7.875L12.5 3.75L5.375 7.875V16.125L12.5 20.25L19.625 16.125V7.875ZM12.5 5.48325L18.125 8.73983V13.9004L14.7034 11.8475L8.72502 16.3312L6.875 15.2602V8.73983L12.5 5.48325ZM12.5 18.5167L10.1359 17.1481L14.7966 13.6525L17.7946 15.4514L12.5 18.5167Z" fill="#0A0D14" style="fill:#0A0D14;fill:color(display-p3 0.0392 0.0510 0.0784);fill-opacity:1;"/>
</svg>
