<svg width="25" height="24" viewBox="0 0 25 24" fill="none" xmlns="http://www.w3.org/2000/svg">
<path d="M10.7 3C11.1968 3 11.6 3.4032 11.6 3.9V7.5C11.6 7.9968 11.1968 8.4 10.7 8.4H8.90002V10.2H13.4V9.3C13.4 8.8032 13.8032 8.4 14.3 8.4H19.7C20.1968 8.4 20.6 8.8032 20.6 9.3V12.9C20.6 13.3968 20.1968 13.8 19.7 13.8H14.3C13.8032 13.8 13.4 13.3968 13.4 12.9V12H8.90002V17.4H13.4V16.5C13.4 16.0032 13.8032 15.6 14.3 15.6H19.7C20.1968 15.6 20.6 16.0032 20.6 16.5V20.1C20.6 20.5968 20.1968 21 19.7 21H14.3C13.8032 21 13.4 20.5968 13.4 20.1V19.2H8.00002C7.50322 19.2 7.10002 18.7968 7.10002 18.3V8.4H5.30002C4.80322 8.4 4.40002 7.9968 4.40002 7.5V3.9C4.40002 3.4032 4.80322 3 5.30002 3H10.7ZM18.8 17.4H15.2V19.2H18.8V17.4ZM18.8 10.2H15.2V12H18.8V10.2ZM9.80002 4.8H6.20002V6.6H9.80002V4.8Z" fill="#0A0D14" style="fill:#0A0D14;fill:color(display-p3 0.0392 0.0510 0.0784);fill-opacity:1;"/>
</svg>
