<svg width="24" height="24" viewBox="0 0 24 24" fill="none" xmlns="http://www.w3.org/2000/svg">
<path fill-rule="evenodd" clip-rule="evenodd" d="M14.4361 3.04105L4.44623 3.77616C3.6407 3.84587 3.35999 4.371 3.35999 5.00054V15.919C3.35999 16.4095 3.53497 16.8288 3.95576 17.3892L6.3041 20.4338C6.68983 20.924 7.04038 21.0289 7.77694 20.9938L19.378 20.2938C20.3593 20.2241 20.6399 19.7689 20.6399 18.999V6.71547C20.6399 6.31753 20.4823 6.20258 20.0178 5.8637C19.9923 5.84506 19.9658 5.82574 19.9383 5.80565L16.7495 3.56603C15.9784 3.00634 15.6628 2.93591 14.4361 3.04105ZM8.03998 6.514C7.09282 6.57791 6.8776 6.59243 6.33972 6.15579L4.9719 5.07097C4.83239 4.93068 4.90236 4.7557 5.25261 4.72099L14.8567 4.02101C15.6627 3.95087 16.0832 4.23129 16.3988 4.47614L18.0461 5.66609C18.1162 5.70094 18.2911 5.91065 18.0808 5.91065L8.16225 6.50578L8.03998 6.514ZM6.93522 18.8938V8.46556C6.93522 8.01071 7.07543 7.80059 7.49579 7.76529L18.8869 7.1006C19.2732 7.06561 19.4482 7.31075 19.4482 7.76529V18.1236C19.4482 18.5789 19.3779 18.9643 18.7468 18.999L7.84633 19.6293C7.2155 19.664 6.93522 19.4543 6.93522 18.8938ZM17.6961 9.02496C17.766 9.34024 17.6961 9.65522 17.38 9.69065L16.8548 9.79522V17.4941C16.3988 17.739 15.9783 17.879 15.6279 17.879C15.0669 17.879 14.9264 17.7038 14.5062 17.1792L11.0707 11.79V17.0042L12.1578 17.2494C12.1578 17.2494 12.1578 17.879 11.2808 17.879L8.86289 18.0191C8.79265 17.879 8.86289 17.5293 9.10814 17.4592L9.7391 17.2845V10.3903L8.86304 10.3202C8.79279 10.0049 8.96777 9.55037 9.45882 9.51509L12.0527 9.34037L15.6279 14.7997V9.9702L14.7164 9.86565C14.6464 9.48023 14.9264 9.20038 15.2769 9.16567L17.6961 9.02496Z" fill="#525866" style="fill:#525866;fill:color(display-p3 0.3216 0.3451 0.4000);fill-opacity:1;"/>
</svg>
