<svg width="25" height="24" viewBox="0 0 25 24" fill="none" xmlns="http://www.w3.org/2000/svg">
<path d="M18.4274 19.1994H5.3C5.21643 19.1994 5.13451 19.1762 5.06343 19.1322C4.99234 19.0883 4.93489 19.0254 4.89751 18.9507C4.86014 18.8759 4.84432 18.7922 4.85182 18.709C4.85933 18.6258 4.88986 18.5463 4.94 18.4794L5.3 17.9997V10.1994C5.3 9.00243 5.5916 7.87383 6.1091 6.88112L2.9537 3.72663L4.2272 2.45312L22.0463 20.2731L20.7728 21.5457L18.4274 19.1994ZM19.7 15.4068L8.5031 4.20992C9.58738 3.48628 10.8478 3.07057 12.1498 3.00717C13.4518 2.94376 14.7467 3.23504 15.8961 3.84991C17.0456 4.46478 18.0065 5.38018 18.6764 6.49843C19.3464 7.61669 19.7001 8.89585 19.7 10.1994V15.4068ZM10.25 20.0994H14.75C14.75 20.6962 14.513 21.2685 14.091 21.6904C13.669 22.1124 13.0967 22.3494 12.5 22.3494C11.9033 22.3494 11.331 22.1124 10.909 21.6904C10.4871 21.2685 10.25 20.6962 10.25 20.0994Z" fill="#0A0D14" style="fill:#0A0D14;fill:color(display-p3 0.0392 0.0510 0.0784);fill-opacity:1;"/>
</svg>
