<svg width="25" height="24" viewBox="0 0 25 24" fill="none" xmlns="http://www.w3.org/2000/svg">
<path d="M15.7139 5.21645C15.4462 5.03801 15.1258 4.95597 14.8053 4.98384L6.51091 5.7051C6.12765 5.73843 5.8335 6.05927 5.8335 6.44397V15.1252C5.8335 15.4317 5.93292 15.73 6.11683 15.9752L8.19213 18.7423C8.34427 18.9452 8.58951 19.0562 8.84235 19.0367L18.4821 18.2952C18.8685 18.2655 19.1668 17.9433 19.1668 17.5558V7.89528C19.1668 7.65984 19.0491 7.43998 18.8532 7.30938L15.7139 5.21645ZM14.9208 6.31216C14.9397 6.31053 14.9585 6.31535 14.9742 6.32585L17.0336 7.69874L9.37887 8.31112L7.98319 6.91544L14.9208 6.31216ZM17.8335 17.0078L9.79183 17.6264V9.61568L17.8335 8.97234V17.0078ZM7.16683 7.98469L8.4585 9.27636V16.8752L7.1835 15.1752C7.17267 15.1608 7.16683 15.1433 7.16683 15.1252V7.98469ZM12.4839 10.5928L11.0016 10.6899V16.3618L12.4984 16.2637V13.0112L15.1323 16.1379L16.6146 16.0408V10.3689L15.1178 10.467V13.7195L12.4839 10.5928Z" fill="#0A0D14" style="fill:#0A0D14;fill:color(display-p3 0.0392 0.0510 0.0784);fill-opacity:1;"/>
</svg>
