<svg width="25" height="24" viewBox="0 0 25 24" fill="none" xmlns="http://www.w3.org/2000/svg">
<path d="M8.07792 7.43213C8.51566 7.78774 8.67986 7.7606 9.50179 7.70577L17.2507 7.24048C17.415 7.24048 17.2783 7.07652 17.2236 7.04927L15.9366 6.11894C15.69 5.92751 15.3615 5.70826 14.7318 5.7631L7.22862 6.31037C6.95499 6.3375 6.90033 6.47431 7.00932 6.58399L8.07792 7.43213ZM8.54316 9.23799V17.3911C8.54316 17.8294 8.76213 17.9932 9.25497 17.9662L17.771 17.4734C18.264 17.4463 18.319 17.1449 18.319 16.789V8.69049C18.319 8.33512 18.1823 8.14346 17.8804 8.17083L8.98111 8.69049C8.6527 8.71809 8.54316 8.88237 8.54316 9.23799ZM16.9501 9.67534C17.0047 9.92184 16.9501 10.1681 16.7032 10.1958L16.2928 10.2776V16.2967C15.9367 16.4882 15.6081 16.5977 15.3343 16.5977C14.896 16.5977 14.7863 16.4608 14.458 16.0506L11.7741 11.8372V15.9138L12.6234 16.1054C12.6234 16.1054 12.6234 16.5977 11.9382 16.5977L10.0492 16.7073C9.99429 16.5977 10.0492 16.3243 10.2408 16.2695L10.7337 16.1329V10.7428L10.0493 10.688C9.9944 10.4415 10.1311 10.0861 10.5147 10.0585L12.5412 9.92194L15.3343 14.1903V10.4144L14.6222 10.3326C14.5675 10.0313 14.7863 9.81249 15.0601 9.78536L16.9501 9.67534ZM6.59863 5.57167L14.4032 4.99694C15.3616 4.91474 15.6082 4.96979 16.2106 5.40738L18.7019 7.15839C19.113 7.45949 19.25 7.54148 19.25 7.86971V17.4734C19.25 18.0753 19.0308 18.4312 18.2642 18.4857L9.20076 19.033C8.62532 19.0604 8.35145 18.9784 8.0501 18.5951L6.21545 16.2148C5.8867 15.7766 5.75 15.4489 5.75 15.0653V6.52893C5.75 6.03673 5.96931 5.62617 6.59863 5.57167Z" fill="#0A0D14" style="fill:#0A0D14;fill:color(display-p3 0.0392 0.0510 0.0784);fill-opacity:1;"/>
</svg>
