<svg width="25" height="24" viewBox="0 0 25 24" fill="none" xmlns="http://www.w3.org/2000/svg">
<path d="M18.4274 19.1994H5.3C5.21643 19.1994 5.13451 19.1762 5.06343 19.1322C4.99234 19.0883 4.93489 19.0254 4.89751 18.9507C4.86014 18.8759 4.84432 18.7922 4.85182 18.709C4.85933 18.6258 4.88986 18.5463 4.94 18.4794L5.3 17.9997V10.1994C5.3 9.00243 5.5916 7.87383 6.1091 6.88112L2.9537 3.72663L4.2272 2.45312L22.0463 20.2731L20.7728 21.5457L18.4274 19.1994ZM7.4672 8.23922C7.22386 8.86407 7.09933 9.52886 7.1 10.1994V17.3994H16.6274L7.4672 8.23922ZM19.7 15.4068L17.9 13.6068V10.1994C17.9002 9.25232 17.6513 8.32184 17.1782 7.50133C16.7052 6.68083 16.0246 5.99917 15.2049 5.52475C14.3852 5.05034 13.4551 4.79986 12.508 4.79845C11.5609 4.79704 10.6301 5.04475 9.809 5.51672L8.504 4.20992C9.58826 3.48652 10.8486 3.07102 12.1505 3.00774C13.4524 2.94446 14.747 3.23578 15.8963 3.85062C17.0456 4.46546 18.0065 5.38076 18.6764 6.49888C19.3462 7.617 19.7 8.89599 19.7 10.1994V15.4068ZM10.25 20.0994H14.75C14.75 20.6962 14.513 21.2685 14.091 21.6904C13.669 22.1124 13.0967 22.3494 12.5 22.3494C11.9033 22.3494 11.331 22.1124 10.909 21.6904C10.4871 21.2685 10.25 20.6962 10.25 20.0994Z" fill="#0A0D14" style="fill:#0A0D14;fill:color(display-p3 0.0392 0.0510 0.0784);fill-opacity:1;"/>
</svg>
