<svg width="25" height="24" viewBox="0 0 25 24" fill="none" xmlns="http://www.w3.org/2000/svg">
<path d="M19.7 18.0003L20.06 18.48C20.1101 18.5469 20.1407 18.6264 20.1482 18.7096C20.1557 18.7928 20.1398 18.8765 20.1025 18.9512C20.0651 19.026 20.0076 19.0889 19.9366 19.1328C19.8655 19.1767 19.7835 19.2 19.7 19.2H5.29998C5.21641 19.2 5.13449 19.1767 5.0634 19.1328C4.99231 19.0889 4.93486 19.026 4.89748 18.9512C4.86011 18.8765 4.84429 18.7928 4.85179 18.7096C4.8593 18.6264 4.88983 18.5469 4.93998 18.48L5.29998 18.0003V10.2C5.29998 8.29044 6.05855 6.45909 7.40881 5.10883C8.75907 3.75857 10.5904 3 12.5 3C14.4095 3 16.2409 3.75857 17.5911 5.10883C18.9414 6.45909 19.7 8.29044 19.7 10.2V18.0003ZM10.25 20.1H14.75C14.75 20.6967 14.5129 21.269 14.091 21.691C13.669 22.1129 13.0967 22.35 12.5 22.35C11.9032 22.35 11.3309 22.1129 10.909 21.691C10.487 21.269 10.25 20.6967 10.25 20.1Z" fill="#0A0D14" style="fill:#0A0D14;fill:color(display-p3 0.0392 0.0510 0.0784);fill-opacity:1;"/>
</svg>
