<svg width="25" height="24" viewBox="0 0 25 24" fill="none" xmlns="http://www.w3.org/2000/svg">
<path d="M13.7069 4.8C13.3664 5.76145 13.3051 6.79969 13.5301 7.79453C13.7552 8.78937 14.2574 9.70013 14.9787 10.4214C15.6999 11.1426 16.6107 11.6448 17.6055 11.8699C18.6003 12.095 19.6386 12.0337 20.6 11.6931V20.1C20.6 20.3387 20.5052 20.5676 20.3364 20.7364C20.1676 20.9052 19.9387 21 19.7 21H5.30002C5.06133 21 4.83241 20.9052 4.66363 20.7364C4.49485 20.5676 4.40002 20.3387 4.40002 20.1V5.7C4.40002 5.46131 4.49485 5.23239 4.66363 5.0636C4.83241 4.89482 5.06133 4.8 5.30002 4.8H13.7069ZM18.8 10.2C17.8452 10.2 16.9296 9.82072 16.2544 9.14558C15.5793 8.47045 15.2 7.55478 15.2 6.6C15.2 5.64522 15.5793 4.72955 16.2544 4.05442C16.9296 3.37928 17.8452 3 18.8 3C19.7548 3 20.6705 3.37928 21.3456 4.05442C22.0207 4.72955 22.4 5.64522 22.4 6.6C22.4 7.55478 22.0207 8.47045 21.3456 9.14558C20.6705 9.82072 19.7548 10.2 18.8 10.2Z" fill="#0A0D14" style="fill:#0A0D14;fill:color(display-p3 0.0392 0.0510 0.0784);fill-opacity:1;"/>
</svg>
