<svg width="25" height="24" viewBox="0 0 25 24" fill="none" xmlns="http://www.w3.org/2000/svg">
<path d="M13.7069 4.8C13.503 5.37818 13.3992 5.98691 13.4 6.6H6.20002V19.2H18.8V12C19.4131 12.0008 20.0218 11.897 20.6 11.6931V20.1C20.6 20.3387 20.5052 20.5676 20.3364 20.7364C20.1676 20.9052 19.9387 21 19.7 21H5.30002C5.06133 21 4.83241 20.9052 4.66363 20.7364C4.49485 20.5676 4.40002 20.3387 4.40002 20.1V5.7C4.40002 5.46131 4.49485 5.23239 4.66363 5.0636C4.83241 4.89482 5.06133 4.8 5.30002 4.8H13.7069ZM18.8 8.4C19.2774 8.4 19.7353 8.21036 20.0728 7.87279C20.4104 7.53523 20.6 7.07739 20.6 6.6C20.6 6.12261 20.4104 5.66477 20.0728 5.32721C19.7353 4.98964 19.2774 4.8 18.8 4.8C18.3226 4.8 17.8648 4.98964 17.5272 5.32721C17.1897 5.66477 17 6.12261 17 6.6C17 7.07739 17.1897 7.53523 17.5272 7.87279C17.8648 8.21036 18.3226 8.4 18.8 8.4ZM18.8 10.2C17.8452 10.2 16.9296 9.82072 16.2544 9.14558C15.5793 8.47045 15.2 7.55478 15.2 6.6C15.2 5.64522 15.5793 4.72955 16.2544 4.05442C16.9296 3.37928 17.8452 3 18.8 3C19.7548 3 20.6705 3.37928 21.3456 4.05442C22.0207 4.72955 22.4 5.64522 22.4 6.6C22.4 7.55478 22.0207 8.47045 21.3456 9.14558C20.6705 9.82072 19.7548 10.2 18.8 10.2Z" fill="#0A0D14" style="fill:#0A0D14;fill:color(display-p3 0.0392 0.0510 0.0784);fill-opacity:1;"/>
</svg>
