<svg width="25" height="24" viewBox="0 0 25 24" fill="none" xmlns="http://www.w3.org/2000/svg">
<path d="M21.5 19.2H3.5V17.4H4.4V11.1279C4.4 6.6387 8.027 3 12.5 3C16.973 3 20.6 6.6387 20.6 11.1279V17.4H21.5V19.2ZM6.2 17.4H18.8V11.1279C18.8 7.6332 15.9794 4.8 12.5 4.8C9.0206 4.8 6.2 7.6332 6.2 11.1279V17.4ZM10.25 20.1H14.75C14.75 20.6967 14.5129 21.269 14.091 21.691C13.669 22.1129 13.0967 22.35 12.5 22.35C11.9033 22.35 11.331 22.1129 10.909 21.691C10.4871 21.269 10.25 20.6967 10.25 20.1Z" fill="#0A0D14" style="fill:#0A0D14;fill:color(display-p3 0.0392 0.0510 0.0784);fill-opacity:1;"/>
</svg>
