<svg width="25" height="24" viewBox="0 0 25 24" fill="none" xmlns="http://www.w3.org/2000/svg">
<path d="M17.9 3V4.2258L13.2281 9.795C14.285 9.92761 15.2856 10.3462 16.1221 11.0057C16.9586 11.6652 17.5992 12.5405 17.9748 13.5373C18.3504 14.534 18.4467 15.6144 18.2535 16.6619C18.0602 17.7094 17.5847 18.6843 16.8781 19.4814C16.1716 20.2785 15.2608 20.8676 14.2441 21.1852C13.2273 21.5028 12.1432 21.5368 11.1085 21.2835C10.0739 21.0302 9.12802 20.4993 8.37292 19.748C7.61783 18.9967 7.08215 18.0535 6.82367 17.0202L8.56967 16.5828C8.81136 17.54 9.39423 18.3761 10.2088 18.9339C11.0234 19.4917 12.0136 19.733 12.9934 19.6123C13.9733 19.4916 14.8754 19.0174 15.5303 18.2786C16.1851 17.5398 16.5477 16.5873 16.55 15.6C16.5502 14.9102 16.3742 14.2317 16.0387 13.629C15.7032 13.0263 15.2193 12.5192 14.6329 12.1559C14.0465 11.7926 13.377 11.5852 12.6879 11.5531C11.9989 11.5211 11.313 11.6656 10.6955 11.973L10.4903 12.0828L9.86927 10.9965L15.0695 4.8H7.54997V3H17.9Z" fill="#0A0D14" style="fill:#0A0D14;fill:color(display-p3 0.0392 0.0510 0.0784);fill-opacity:1;"/>
</svg>
