<svg width="25" height="24" viewBox="0 0 25 24" fill="none" xmlns="http://www.w3.org/2000/svg">
<path d="M15.0974 3L11.1032 9.9174C12.4145 9.59468 13.7971 9.73555 15.0163 10.3161C16.2355 10.8967 17.2164 11.8812 17.7924 13.1026C18.3684 14.324 18.5041 15.7071 18.1765 17.0172C17.8488 18.3272 17.0781 19.4836 15.9949 20.2901C14.9118 21.0966 13.583 21.5035 12.2339 21.4418C10.8849 21.3801 9.59882 20.8536 8.59382 19.9516C7.58882 19.0496 6.92682 17.8277 6.72016 16.4931C6.5135 15.1586 6.7749 13.7937 7.46001 12.63L13.0184 3H15.0974ZM12.5 11.55C11.4259 11.55 10.3958 11.9767 9.63623 12.7362C8.87671 13.4957 8.45001 14.5259 8.45001 15.6C8.45001 16.6741 8.87671 17.7043 9.63623 18.4638C10.3958 19.2233 11.4259 19.65 12.5 19.65C13.5741 19.65 14.6043 19.2233 15.3638 18.4638C16.1233 17.7043 16.55 16.6741 16.55 15.6C16.55 14.5259 16.1233 13.4957 15.3638 12.7362C14.6043 11.9767 13.5741 11.55 12.5 11.55Z" fill="#0A0D14" style="fill:#0A0D14;fill:color(display-p3 0.0392 0.0510 0.0784);fill-opacity:1;"/>
</svg>
