<svg width="25" height="24" viewBox="0 0 25 24" fill="none" xmlns="http://www.w3.org/2000/svg">
<path d="M17.9 3V4.8H10.07L9.46073 10.6005C10.5136 9.96068 11.7417 9.66963 12.9697 9.76883C14.1978 9.86804 15.3632 10.3524 16.2997 11.153C17.2363 11.9535 17.8962 13.0293 18.1853 14.2269C18.4744 15.4246 18.3781 16.6829 17.9099 17.8226C17.4418 18.9623 16.6258 19.925 15.5783 20.5736C14.5308 21.2222 13.3052 21.5235 12.0764 21.4346C10.8475 21.3456 9.67813 20.871 8.73493 20.0783C7.79173 19.2856 7.12287 18.2154 6.82373 17.0202L8.56973 16.5828C8.81142 17.54 9.39429 18.3761 10.2089 18.9339C11.0234 19.4917 12.0136 19.733 12.9935 19.6123C13.9734 19.4916 14.8754 19.0174 15.5303 18.2786C16.1852 17.5398 16.5478 16.5873 16.55 15.6C16.55 14.5259 16.1233 13.4957 15.3638 12.7362C14.6043 11.9767 13.5742 11.55 12.5 11.55C10.6802 11.55 9.54983 12.1251 8.93603 12.927L7.51853 11.8632L8.45003 3H17.9Z" fill="#0A0D14" style="fill:#0A0D14;fill:color(display-p3 0.0392 0.0510 0.0784);fill-opacity:1;"/>
</svg>
