<svg width="25" height="24" viewBox="0 0 25 24" fill="none" xmlns="http://www.w3.org/2000/svg">
<path d="M12.5 2.55078C13.6889 2.55078 14.7356 2.86398 15.6023 3.44538C16.469 4.02588 17.1557 4.87458 17.6264 5.94558C18.0962 7.01658 18.35 8.30808 18.35 9.77688V14.2247C18.35 15.6935 18.0962 16.9859 17.6264 18.056C17.1557 19.127 16.469 19.9757 15.6014 20.5562C14.7356 21.1376 13.6889 21.4508 12.5 21.4508C11.3111 21.4508 10.2644 21.1376 9.39769 20.5562C8.53099 19.9757 7.84429 19.127 7.37359 18.056C6.90379 16.985 6.64999 15.6935 6.64999 14.2247V9.77688C6.64999 8.30808 6.90379 7.01568 7.37359 5.94558C7.84429 4.87458 8.53099 4.02588 9.39859 3.44538C10.2635 2.86398 11.3102 2.55078 12.5 2.55078ZM12.5 4.35078C11.6756 4.35078 10.9754 4.55418 10.4003 4.94028C9.82699 5.32458 9.35809 5.90328 9.02149 6.66828C8.65069 7.51428 8.44999 8.56548 8.44999 9.77688V14.2247C8.44999 15.4361 8.65069 16.4873 9.02149 17.3324C9.35809 18.0983 9.82699 18.677 10.4003 19.0613C10.9754 19.4474 11.6756 19.6508 12.5 19.6508C13.3244 19.6508 14.0246 19.4474 14.5997 19.0613C15.173 18.677 15.6419 18.0983 15.9785 17.3333C16.3493 16.4873 16.55 15.4361 16.55 14.2247V9.77688C16.55 8.56548 16.3493 7.51428 15.9785 6.66918C15.6419 5.90328 15.173 5.32458 14.5997 4.94028C14.0246 4.55418 13.3244 4.35078 12.5 4.35078Z" fill="#0A0D14" style="fill:#0A0D14;fill:color(display-p3 0.0392 0.0510 0.0784);fill-opacity:1;"/>
</svg>
