<svg width="25" height="24" viewBox="0 0 25 24" fill="none" xmlns="http://www.w3.org/2000/svg">
<path d="M12.5 2.55078C13.5288 2.55056 14.5394 2.82163 15.43 3.33665C16.3205 3.85168 17.0595 4.59245 17.5724 5.48424C18.0853 6.37603 18.354 7.38731 18.3513 8.41606C18.3486 9.44482 18.0746 10.4547 17.5571 11.3438L11.9807 20.9999H9.9026L13.8977 14.0825C13.0942 14.2795 12.2581 14.3038 11.4446 14.1539C10.631 14.004 9.85847 13.6833 9.17798 13.2129C8.49749 12.7424 7.92451 12.133 7.49687 11.4249C7.06922 10.7167 6.79663 9.92593 6.69709 9.10468C6.59755 8.28342 6.67332 7.4504 6.91941 6.66059C7.16549 5.87077 7.57629 5.14213 8.12469 4.52276C8.67309 3.90339 9.34662 3.40737 10.1008 3.06745C10.855 2.72753 11.6727 2.55143 12.5 2.55078ZM12.5 4.35078C11.4259 4.35078 10.3957 4.77748 9.63622 5.537C8.8767 6.29652 8.45 7.32665 8.45 8.40078C8.45 9.47491 8.8767 10.505 9.63622 11.2646C10.3957 12.0241 11.4259 12.4508 12.5 12.4508C13.5741 12.4508 14.6043 12.0241 15.3638 11.2646C16.1233 10.505 16.55 9.47491 16.55 8.40078C16.55 7.32665 16.1233 6.29652 15.3638 5.537C14.6043 4.77748 13.5741 4.35078 12.5 4.35078Z" fill="#0A0D14" style="fill:#0A0D14;fill:color(display-p3 0.0392 0.0510 0.0784);fill-opacity:1;"/>
</svg>
