<svg width="25" height="24" viewBox="0 0 25 24" fill="none" xmlns="http://www.w3.org/2000/svg">
<path d="M12.5 2.55078C13.5338 2.55091 14.5416 2.8747 15.382 3.47671C16.2224 4.07873 16.8533 4.92876 17.186 5.90753C17.5187 6.8863 17.5367 7.94469 17.2373 8.93418C16.938 9.92367 16.3363 10.7946 15.5168 11.4248C17.216 12.3698 18.35 14.0888 18.35 16.0508C18.35 19.0334 15.731 21.4508 12.5 21.4508C9.26902 21.4508 6.65002 19.0334 6.65002 16.0508C6.65002 14.0879 7.78492 12.3698 9.48232 11.4239C8.66312 10.7936 8.06179 9.9226 7.76268 8.93319C7.46357 7.94378 7.4817 6.88555 7.81451 5.90696C8.14732 4.92837 8.77813 4.07852 9.61843 3.47662C10.4587 2.87471 11.4664 2.55096 12.5 2.55078ZM12.5 12.4508C10.232 12.4508 8.45002 14.096 8.45002 16.0508C8.45002 18.0056 10.232 19.6508 12.5 19.6508C14.768 19.6508 16.55 18.0056 16.55 16.0508C16.55 14.096 14.768 12.4508 12.5 12.4508ZM12.5 4.35078C11.6646 4.35078 10.8634 4.68266 10.2726 5.2734C9.6819 5.86413 9.35002 6.66535 9.35002 7.50078C9.35002 8.33621 9.6819 9.13743 10.2726 9.72817C10.8634 10.3189 11.6646 10.6508 12.5 10.6508C13.3355 10.6508 14.1367 10.3189 14.7274 9.72817C15.3181 9.13743 15.65 8.33621 15.65 7.50078C15.65 6.66535 15.3181 5.86413 14.7274 5.2734C14.1367 4.68266 13.3355 4.35078 12.5 4.35078Z" fill="#0A0D14" style="fill:#0A0D14;fill:color(display-p3 0.0392 0.0510 0.0784);fill-opacity:1;"/>
</svg>
