<svg width="25" height="24" viewBox="0 0 25 24" fill="none" xmlns="http://www.w3.org/2000/svg">
<path d="M16.1 7.95057C16.1 6.99579 15.7207 6.08012 15.0456 5.40499C14.3705 4.72986 13.4548 4.35057 12.5 4.35057C11.5452 4.35057 10.6296 4.72986 9.95442 5.40499C9.27929 6.08012 8.90001 6.99579 8.90001 7.95057H7.10001C7.10004 7.08647 7.30744 6.23498 7.70479 5.46765C8.10214 4.70032 8.67784 4.03955 9.38351 3.54085C10.0892 3.04215 10.9042 2.72008 11.7602 2.6017C12.6162 2.48332 13.488 2.57208 14.3026 2.86052C15.1171 3.14897 15.8505 3.62868 16.4413 4.25936C17.032 4.89004 17.4627 5.65326 17.6972 6.48493C17.9318 7.31659 17.9634 8.1924 17.7893 9.03878C17.6152 9.88517 17.2405 10.6774 16.6967 11.349L10.1087 19.1997L17.9 19.2006V21.0006H7.10001V19.9863L15.2576 10.2645C15.8029 9.61688 16.1013 8.79716 16.1 7.95057Z" fill="#0A0D14" style="fill:#0A0D14;fill:color(display-p3 0.0392 0.0510 0.0784);fill-opacity:1;"/>
</svg>
