<svg width="25" height="24" viewBox="0 0 25 24" fill="none" xmlns="http://www.w3.org/2000/svg">
<path d="M12.5 14.7C16.172 14.7 19.2014 17.4486 19.6442 21H5.3558C5.7986 17.4486 8.828 14.7 12.5 14.7ZM10.8683 16.752C9.5777 17.1606 8.49141 18.0417 7.82 19.2H12.5L10.8683 16.752ZM14.1326 16.752L12.5 19.2H17.1791C16.5086 18.0417 15.4223 17.1606 14.1326 16.752ZM17.9 3V8.4C17.9 11.3826 15.4826 13.8 12.5 13.8C9.51741 13.8 7.1 11.3826 7.1 8.4V3H17.9ZM8.9 8.4C8.9 10.389 10.511 12 12.5 12C14.489 12 16.1 10.389 16.1 8.4H8.9ZM16.1 4.8H8.9V6.6H16.1V4.8Z" fill="#0A0D14" style="fill:#0A0D14;fill:color(display-p3 0.0392 0.0510 0.0784);fill-opacity:1;"/>
</svg>
