<svg width="25" height="24" viewBox="0 0 25 24" fill="none" xmlns="http://www.w3.org/2000/svg">
<path d="M9.86305 7.49961L7.10005 11.645V19.1996H17.9V7.49961H9.86305ZM8.90005 5.69961H18.8C19.0387 5.69961 19.2677 5.79443 19.4364 5.96321C19.6052 6.132 19.7 6.36091 19.7 6.59961V20.0996C19.7 20.3383 19.6052 20.5672 19.4364 20.736C19.2677 20.9048 19.0387 20.9996 18.8 20.9996H6.20005C5.96135 20.9996 5.73244 20.9048 5.56365 20.736C5.39487 20.5672 5.30005 20.3383 5.30005 20.0996V11.0996L8.90005 5.69961ZM13.4 2.09961H17.9C18.1387 2.09961 18.3677 2.19443 18.5364 2.36321C18.7052 2.532 18.8 2.76091 18.8 2.99961V4.79961H12.5V2.99961C12.5 2.76091 12.5949 2.532 12.7637 2.36321C12.9324 2.19443 13.1614 2.09961 13.4 2.09961ZM8.90005 11.9996H10.7V17.3996H8.90005V11.9996Z" fill="#0A0D14" style="fill:#0A0D14;fill:color(display-p3 0.0392 0.0510 0.0784);fill-opacity:1;"/>
</svg>
