<svg width="25" height="24" viewBox="0 0 25 24" fill="none" xmlns="http://www.w3.org/2000/svg">
<path d="M14.3 19.2004V17.2591C15.9767 16.1863 17.45 13.7716 17.45 10.996C17.45 8.23029 15.65 5.56989 12.5 5.56989C9.35002 5.56989 7.55002 8.23029 7.55002 10.9969C7.55002 13.7716 9.02332 16.1863 10.7 17.2591V19.2004H4.40002V17.4004H8.68402C6.79942 16.0549 5.30002 13.7905 5.30002 10.996C5.30002 6.82269 8.45002 3.90039 12.5 3.90039C16.55 3.90039 19.7 6.82269 19.7 10.996C19.7 13.7905 18.2006 16.0549 16.316 17.4004H20.6V19.2004H14.3Z" fill="#0A0D14" style="fill:#0A0D14;fill:color(display-p3 0.0392 0.0510 0.0784);fill-opacity:1;"/>
</svg>
