<svg width="25" height="24" viewBox="0 0 25 24" fill="none" xmlns="http://www.w3.org/2000/svg">
<path d="M12.5 3C17.4707 3 21.5 7.0293 21.5 12C21.5 15.96 18.9431 19.3224 15.3899 20.5257L15.1865 20.5923L12.5729 13.7973C13.535 13.755 14.3 12.9486 14.3 12C14.3 11.0055 13.4945 10.2 12.5 10.2C11.5055 10.2 10.7 11.0055 10.7 12C10.7 12.9693 11.4659 13.7595 12.4253 13.7982L9.8126 20.5923L9.6101 20.5257C6.056 19.3224 3.5 15.96 3.5 12C3.5 7.0293 7.5293 3 12.5 3ZM12.5 4.8C8.5238 4.8 5.3 8.0238 5.3 12C5.3 14.628 6.7076 16.9275 8.8109 18.1848L10.1429 14.7207C9.3806 14.061 8.9 13.0863 8.9 12C8.9 10.011 10.511 8.4 12.5 8.4C14.489 8.4 16.1 10.011 16.1 12C16.1 13.0863 15.6185 14.061 14.858 14.7207C15.3665 16.0473 15.8111 17.202 16.1891 18.1857C18.2915 16.9275 19.7 14.628 19.7 12C19.7 8.0238 16.4762 4.8 12.5 4.8Z" fill="#0A0D14" style="fill:#0A0D14;fill:color(display-p3 0.0392 0.0510 0.0784);fill-opacity:1;"/>
</svg>
