<svg width="25" height="24" viewBox="0 0 25 24" fill="none" xmlns="http://www.w3.org/2000/svg">
<path d="M18.9218 10.6406C19.1093 10.125 19.1562 9.60938 19.1093 9.09375C19.0624 8.57812 18.8749 8.0625 18.6405 7.59375C18.2187 6.89062 17.6093 6.32812 16.9062 6C16.1562 5.67188 15.3593 5.57812 14.5624 5.76562C14.1874 5.39062 13.7655 5.0625 13.2968 4.82812C12.828 4.59375 12.2655 4.5 11.7499 4.5C10.953 4.5 10.1562 4.73438 9.49992 5.20312C8.84367 5.67188 8.37492 6.32812 8.14055 7.07812C7.57805 7.21875 7.1093 7.45312 6.64055 7.73438C6.21867 8.0625 5.89055 8.48438 5.6093 8.90625C5.18743 9.60938 5.0468 10.4062 5.14055 11.2031C5.2343 12 5.56242 12.75 6.07805 13.3594C5.89055 13.875 5.84367 14.3906 5.89055 14.9062C5.93742 15.4219 6.12492 15.9375 6.3593 16.4062C6.78117 17.1094 7.39055 17.6719 8.09367 18C8.84367 18.3281 9.64055 18.4219 10.4374 18.2344C10.8124 18.6094 11.2343 18.9375 11.703 19.1719C12.1718 19.4062 12.7343 19.5 13.2499 19.5C14.0468 19.5 14.8437 19.2656 15.4999 18.7969C16.1562 18.3281 16.6249 17.6719 16.8593 16.9219C17.3749 16.8281 17.8905 16.5938 18.3124 16.2656C18.7343 15.9375 19.1093 15.5625 19.3437 15.0938C19.7655 14.3906 19.9062 13.5938 19.8124 12.7969C19.7187 12 19.4374 11.25 18.9218 10.6406ZM13.2968 18.5156C12.5468 18.5156 11.9843 18.2812 11.4687 17.8594C11.4687 17.8594 11.5155 17.8125 11.5624 17.8125L14.5624 16.0781C14.6562 16.0312 14.703 15.9844 14.7499 15.8906C14.7968 15.7969 14.7968 15.75 14.7968 15.6562V11.4375L16.0624 12.1875V15.6562C16.1093 17.2969 14.7968 18.5156 13.2968 18.5156ZM7.24992 15.9375C6.9218 15.375 6.78117 14.7188 6.9218 14.0625C6.9218 14.0625 6.96867 14.1094 7.01555 14.1094L10.0155 15.8438C10.1093 15.8906 10.1562 15.8906 10.2499 15.8906C10.3437 15.8906 10.4374 15.8906 10.4843 15.8438L14.1405 13.7344V15.1875L11.0937 16.9688C10.4374 17.3438 9.68742 17.4375 8.9843 17.25C8.2343 17.0625 7.62492 16.5938 7.24992 15.9375ZM6.45305 9.42188C6.78117 8.85938 7.2968 8.4375 7.90617 8.20312V8.29688V11.7656C7.90617 11.8594 7.90617 11.9531 7.95305 12C7.99992 12.0938 8.0468 12.1406 8.14055 12.1875L11.7968 14.2969L10.5312 15.0469L7.53117 13.3125C6.87492 12.9375 6.40617 12.3281 6.21867 11.625C6.03117 10.9219 6.07805 10.0781 6.45305 9.42188ZM16.8124 11.8125L13.1562 9.70312L14.4218 8.95312L17.4218 10.6875C17.8905 10.9688 18.2655 11.3438 18.4999 11.8125C18.7343 12.2812 18.8749 12.7969 18.828 13.3594C18.7812 13.875 18.5937 14.3906 18.2655 14.8125C17.9374 15.2344 17.5155 15.5625 16.9999 15.75V12.1875C16.9999 12.0938 16.9999 12 16.953 11.9531C16.953 11.9531 16.9062 11.8594 16.8124 11.8125ZM18.078 9.9375C18.078 9.9375 18.0312 9.89062 17.9843 9.89062L14.9843 8.15625C14.8905 8.10938 14.8437 8.10938 14.7499 8.10938C14.6562 8.10938 14.5624 8.10938 14.5155 8.15625L10.8593 10.2656V8.8125L13.9062 7.03125C14.3749 6.75 14.8905 6.65625 15.453 6.65625C15.9687 6.65625 16.4843 6.84375 16.953 7.17188C17.3749 7.5 17.7499 7.92188 17.9374 8.39062C18.1249 8.85938 18.1718 9.42188 18.078 9.9375ZM10.203 12.5625L8.93742 11.8125V8.29688C8.93742 7.78125 9.07805 7.21875 9.3593 6.79688C9.64055 6.32812 10.0624 6 10.5312 5.76562C10.9999 5.53125 11.5624 5.4375 12.078 5.53125C12.5937 5.57812 13.1093 5.8125 13.5312 6.14062C13.5312 6.14062 13.4843 6.1875 13.4374 6.1875L10.4374 7.92188C10.3437 7.96875 10.2968 8.01562 10.2499 8.10938C10.203 8.20312 10.203 8.25 10.203 8.34375V12.5625ZM10.8593 11.0625L12.4999 10.125L14.1405 11.0625V12.9375L12.4999 13.875L10.8593 12.9375V11.0625Z" fill="#0A0D14" style="fill:#0A0D14;fill:color(display-p3 0.0392 0.0510 0.0784);fill-opacity:1;"/>
</svg>
