<svg width="25" height="24" viewBox="0 0 25 24" fill="none" xmlns="http://www.w3.org/2000/svg">
<path d="M12.5 12C11.3065 12 10.1619 11.5259 9.318 10.682C8.47408 9.83807 7.99998 8.69347 7.99998 7.5C7.99998 6.30653 8.47408 5.16193 9.318 4.31802C10.1619 3.47411 11.3065 3 12.5 3C13.6935 3 14.838 3.47411 15.682 4.31802C16.5259 5.16193 17 6.30653 17 7.5C17 8.69347 16.5259 9.83807 15.682 10.682C14.838 11.5259 13.6935 12 12.5 12ZM17.9 16.5V21H16.1V16.5C16.1 12.4941 18.4796 9.0435 21.9023 7.4856L22.6475 9.1236C21.2315 9.76762 20.0309 10.8057 19.189 12.1137C18.3472 13.4217 17.8997 14.9445 17.9 16.5ZM8.89998 16.5V21H7.09998V16.5C7.10011 14.9446 6.65252 13.4221 5.81067 12.1142C4.96882 10.8063 3.76829 9.76846 2.35248 9.1245L3.09768 7.4856C4.8281 8.27264 6.29538 9.54116 7.32428 11.1396C8.35318 12.7381 8.90019 14.599 8.89998 16.5Z" fill="#0A0D14" style="fill:#0A0D14;fill:color(display-p3 0.0392 0.0510 0.0784);fill-opacity:1;"/>
</svg>
