<svg width="25" height="24" viewBox="0 0 25 24" fill="none" xmlns="http://www.w3.org/2000/svg">
<path d="M11.75 6C12.2365 6 12.6873 6.15427 13.0558 6.41734C12.0864 6.92185 11.1951 7.55717 10.25 8.10289L11 9.40193C12.1812 8.7199 13.2888 7.86406 14.5706 7.37278C15.585 6.98398 16.7607 7.37982 17.3211 8.35048C17.5644 8.77186 17.6562 9.23938 17.6126 9.69005C16.691 9.10281 15.6951 8.6486 14.75 8.10289L14 9.40193C15.1812 10.0839 16.4762 10.6152 17.5425 11.4796C18.3865 12.1637 18.6315 13.3799 18.0711 14.3505C17.8278 14.772 17.4687 15.0853 17.0564 15.2729C17.1039 14.1811 17 13.0915 17 12H15.5C15.5 13.3638 15.6873 14.7514 15.4719 16.1068C15.3015 17.1797 14.3708 18 13.25 18C12.7632 18 12.3123 17.8456 11.9438 17.5824C12.9131 17.0776 13.8047 16.4428 14.75 15.8972L14 14.5981C12.8189 15.28 11.7108 16.136 10.4293 16.6272C9.41493 17.016 8.23923 16.6201 7.67882 15.6495C7.43547 15.228 7.3437 14.7604 7.38737 14.3096C8.30918 14.8966 9.30473 15.3514 10.25 15.8972L11 14.5981C9.81888 13.9162 8.52351 13.3847 7.45737 12.5204C6.61346 11.8363 6.36841 10.6202 6.92882 9.64952C7.17218 9.22801 7.53129 8.91471 7.94352 8.72713C7.89609 9.81894 7.99998 10.9085 7.99998 12H9.49998C9.49998 10.6362 9.3126 9.24861 9.528 7.89317C9.6985 6.82027 10.6292 6 11.75 6ZM14.5944 5.80628C13.9074 5.00744 12.8882 4.5 11.75 4.5C10.0836 4.5 8.67216 5.58625 8.18326 7.08932C7.14795 7.28485 6.19888 7.91381 5.62978 8.89952C4.79662 10.3426 5.0316 12.1082 6.08885 13.283C5.74053 14.2774 5.81069 15.4138 6.37978 16.3995C7.21294 17.8426 8.85942 18.5219 10.4056 18.1937C11.0925 18.9926 12.1118 19.5 13.25 19.5C14.9163 19.5 16.3278 18.4138 16.8167 16.9107C17.852 16.7152 18.801 16.0862 19.3701 15.1005C20.2033 13.6574 19.9683 11.8919 18.9111 10.717C19.2594 9.72259 19.1892 8.58619 18.6201 7.60048C17.787 6.1574 16.1405 5.47814 14.5944 5.80628Z" fill="#0A0D14" style="fill:#0A0D14;fill:color(display-p3 0.0392 0.0510 0.0784);fill-opacity:1;"/>
</svg>
