<svg width="25" height="24" viewBox="0 0 25 24" fill="none" xmlns="http://www.w3.org/2000/svg">
<path d="M9.539 6.9285C8.5418 8.103 7.8983 9.8409 7.8533 11.7885V12.2115C7.8992 14.16 8.5427 15.8952 9.5381 17.0715C10.8287 18.7473 12.7475 19.8111 14.8931 19.8111C16.1773 19.8082 17.4318 19.4242 18.4976 18.7077C16.741 20.2865 14.4314 21.1067 12.0725 20.9892C9.76213 20.8798 7.58262 19.8849 5.98637 18.211C4.39012 16.5372 3.49972 14.313 3.5 12C3.5 7.0284 7.5302 3 12.5 3H12.5333C14.7355 3.00591 16.8587 3.82147 18.4985 5.2914C17.4312 4.57594 16.1762 4.19205 14.8913 4.188C12.7475 4.188 10.8287 5.2527 9.5363 6.9285H9.5381H9.539ZM21.5 12C21.5016 13.2667 21.235 14.5195 20.7177 15.6757C20.2003 16.832 19.444 17.8656 18.4985 18.7086C16.19 19.8336 14.039 19.047 13.3262 18.5556C15.5942 18.057 17.3069 15.3156 17.3069 12C17.3069 8.6835 15.5942 5.943 13.3262 5.4453C14.0381 4.9548 16.19 4.1673 18.4985 5.2914C19.4441 6.13429 20.2005 7.1679 20.7178 8.3242C21.2352 9.48049 21.5017 10.7333 21.5 12Z" fill="#0A0D14" style="fill:#0A0D14;fill:color(display-p3 0.0392 0.0510 0.0784);fill-opacity:1;"/>
</svg>
