<svg width="25" height="24" viewBox="0 0 25 24" fill="none" xmlns="http://www.w3.org/2000/svg">
<path d="M14.9894 18.759C16.3721 18.2498 17.5654 17.3288 18.4083 16.1202C19.2512 14.9116 19.7032 13.4735 19.7032 12C19.7032 10.5265 19.2512 9.08843 18.4083 7.87982C17.5654 6.6712 16.3721 5.75018 14.9894 5.241C16.739 6.5793 17.9 9.2415 17.9 12C17.9 14.7585 16.7399 17.4216 14.9894 18.759ZM10.0106 5.241C8.62786 5.75018 7.43456 6.6712 6.59166 7.87982C5.74877 9.08843 5.29684 10.5265 5.29684 12C5.29684 13.4735 5.74877 14.9116 6.59166 16.1202C7.43456 17.3288 8.62786 18.2498 10.0106 18.759C8.261 17.4207 7.1 14.7585 7.1 12C7.1 9.2415 8.2601 6.5784 10.0106 5.241ZM12.5 21C7.5293 21 3.5 16.9707 3.5 12C3.5 7.0293 7.5293 3 12.5 3C17.4707 3 21.5 7.0293 21.5 12C21.5 16.9707 17.4707 21 12.5 21ZM12.5 17.85C14.3 17.85 16.1 15.1203 16.1 12C16.1 8.8797 14.3 6.15 12.5 6.15C10.7 6.15 8.9 8.8797 8.9 12C8.9 15.1203 10.7 17.85 12.5 17.85Z" fill="#0A0D14" style="fill:#0A0D14;fill:color(display-p3 0.0392 0.0510 0.0784);fill-opacity:1;"/>
</svg>
