<svg width="25" height="24" viewBox="0 0 25 24" fill="none" xmlns="http://www.w3.org/2000/svg">
<path d="M15.2 3.90039C15.6968 3.90039 16.1 4.30359 16.1 4.80039V8.40039C16.1 8.89719 15.6968 9.30039 15.2 9.30039H13.4V11.1004H17C17.4968 11.1004 17.9 11.5036 17.9 12.0004V14.7004H19.7C20.1968 14.7004 20.6 15.1036 20.6 15.6004V19.2004C20.6 19.6972 20.1968 20.1004 19.7 20.1004H14.3C13.8032 20.1004 13.4 19.6972 13.4 19.2004V15.6004C13.4 15.1036 13.8032 14.7004 14.3 14.7004H16.1V12.9004H8.90002V14.7004H10.7C11.1968 14.7004 11.6 15.1036 11.6 15.6004V19.2004C11.6 19.6972 11.1968 20.1004 10.7 20.1004H5.30002C4.80322 20.1004 4.40002 19.6972 4.40002 19.2004V15.6004C4.40002 15.1036 4.80322 14.7004 5.30002 14.7004H7.10002V12.0004C7.10002 11.5036 7.50322 11.1004 8.00002 11.1004H11.6V9.30039H9.80002C9.30322 9.30039 8.90002 8.89719 8.90002 8.40039V4.80039C8.90002 4.30359 9.30322 3.90039 9.80002 3.90039H15.2ZM9.80002 16.5004H6.20002V18.3004H9.80002V16.5004ZM18.8 16.5004H15.2V18.3004H18.8V16.5004ZM14.3 5.70039H10.7V7.50039H14.3V5.70039Z" fill="#0A0D14" style="fill:#0A0D14;fill:color(display-p3 0.0392 0.0510 0.0784);fill-opacity:1;"/>
</svg>
