<svg width="25" height="24" viewBox="0 0 25 24" fill="none" xmlns="http://www.w3.org/2000/svg">
<path d="M18.5 6.75C18.5 7.99264 17.4927 9 16.25 9C15.0073 9 14 7.99264 14 6.75C14 5.50736 15.0073 4.5 16.25 4.5C17.4927 4.5 18.5 5.50736 18.5 6.75ZM8.75 5.25C7.09314 5.25 5.75 6.59314 5.75 8.25V9.75H7.25V8.25C7.25 7.42157 7.92157 6.75 8.75 6.75H11V5.25H8.75ZM16.25 18.75C17.9068 18.75 19.25 17.4068 19.25 15.75V14.25H17.75V15.75C17.75 16.5785 17.0785 17.25 16.25 17.25H14V18.75H16.25ZM8.75 15C9.99264 15 11 13.9927 11 12.75C11 11.5073 9.99264 10.5 8.75 10.5C7.50736 10.5 6.5 11.5073 6.5 12.75C6.5 13.9927 7.50736 15 8.75 15ZM16.25 9.75C14.5932 9.75 13.25 11.0932 13.25 12.75H19.25C19.25 11.0932 17.9068 9.75 16.25 9.75ZM5.75 18.75C5.75 17.0932 7.09314 15.75 8.75 15.75C10.4069 15.75 11.75 17.0932 11.75 18.75H5.75Z" fill="#0A0D14" style="fill:#0A0D14;fill:color(display-p3 0.0392 0.0510 0.0784);fill-opacity:1;"/>
</svg>
