<svg width="25" height="24" viewBox="0 0 25 24" fill="none" xmlns="http://www.w3.org/2000/svg">
<path d="M16.25 7.5C15.8358 7.5 15.5 7.16421 15.5 6.75C15.5 6.33579 15.8358 6 16.25 6C16.6642 6 17 6.33579 17 6.75C17 7.16421 16.6642 7.5 16.25 7.5ZM16.25 9C17.4927 9 18.5 7.99264 18.5 6.75C18.5 5.50736 17.4927 4.5 16.25 4.5C15.0073 4.5 14 5.50736 14 6.75C14 7.99264 15.0073 9 16.25 9ZM8.75 5.25C7.09314 5.25 5.75 6.59314 5.75 8.25V9.75H7.25V8.25C7.25 7.42157 7.92157 6.75 8.75 6.75H11V5.25H8.75ZM16.25 18.75C17.9068 18.75 19.25 17.4068 19.25 15.75V14.25H17.75V15.75C17.75 16.5785 17.0785 17.25 16.25 17.25H14V18.75H16.25ZM9.5 12.75C9.5 12.3358 9.16421 12 8.75 12C8.33579 12 8 12.3358 8 12.75C8 13.1642 8.33579 13.5 8.75 13.5C9.16421 13.5 9.5 13.1642 9.5 12.75ZM11 12.75C11 13.9927 9.99264 15 8.75 15C7.50736 15 6.5 13.9927 6.5 12.75C6.5 11.5073 7.50736 10.5 8.75 10.5C9.99264 10.5 11 11.5073 11 12.75ZM16.25 11.25C15.4215 11.25 14.75 11.9215 14.75 12.75H13.25C13.25 11.0932 14.5932 9.75 16.25 9.75C17.9068 9.75 19.25 11.0932 19.25 12.75H17.75C17.75 11.9215 17.0785 11.25 16.25 11.25ZM7.25 18.75C7.25 17.9215 7.92157 17.25 8.75 17.25C9.57843 17.25 10.25 17.9215 10.25 18.75H11.75C11.75 17.0932 10.4069 15.75 8.75 15.75C7.09314 15.75 5.75 17.0932 5.75 18.75H7.25Z" fill="#0A0D14" style="fill:#0A0D14;fill:color(display-p3 0.0392 0.0510 0.0784);fill-opacity:1;"/>
</svg>
