<svg width="25" height="24" viewBox="0 0 25 24" fill="none" xmlns="http://www.w3.org/2000/svg">
<path d="M19.7 21H5.30002C5.06133 21 4.83241 20.9052 4.66363 20.7364C4.49485 20.5676 4.40002 20.3387 4.40002 20.1V8.4H20.6V20.1C20.6 20.3387 20.5052 20.5676 20.3364 20.7364C20.1676 20.9052 19.9387 21 19.7 21ZM20.6 6.6H4.40002V3.9C4.40002 3.66131 4.49485 3.43239 4.66363 3.2636C4.83241 3.09482 5.06133 3 5.30002 3H19.7C19.9387 3 20.1676 3.09482 20.3364 3.2636C20.5052 3.43239 20.6 3.66131 20.6 3.9V6.6ZM8.00002 11.1V14.7H11.6V11.1H8.00002ZM8.00002 16.5V18.3H17V16.5H8.00002ZM13.4 12V13.8H17V12H13.4Z" fill="#0A0D14" style="fill:#0A0D14;fill:color(display-p3 0.0392 0.0510 0.0784);fill-opacity:1;"/>
</svg>
