<svg width="25" height="24" viewBox="0 0 25 24" fill="none" xmlns="http://www.w3.org/2000/svg">
<path d="M17 20.1004V16.5004H8V20.1004H6.2V15.6004C6.2 15.3617 6.29482 15.1328 6.4636 14.964C6.63239 14.7952 6.8613 14.7004 7.1 14.7004H17.9C18.1387 14.7004 18.3676 14.7952 18.5364 14.964C18.7052 15.1328 18.8 15.3617 18.8 15.6004V20.1004H17ZM8 3.90039V7.50039H17V3.90039H18.8V8.40039C18.8 8.63909 18.7052 8.868 18.5364 9.03679C18.3676 9.20557 18.1387 9.30039 17.9 9.30039H7.1C6.8613 9.30039 6.63239 9.20557 6.4636 9.03679C6.29482 8.868 6.2 8.63909 6.2 8.40039V3.90039H8ZM3.5 9.30039L7.1 12.0004L3.5 14.7004V9.30039ZM21.5 9.30039V14.7004L17.9 12.0004L21.5 9.30039Z" fill="#0A0D14" style="fill:#0A0D14;fill:color(display-p3 0.0392 0.0510 0.0784);fill-opacity:1;"/>
</svg>
