<svg width="25" height="24" viewBox="0 0 25 24" fill="none" xmlns="http://www.w3.org/2000/svg">
<path d="M6.19999 5.70039V8.40039H18.8V5.70039H6.19999ZM5.29999 3.90039H19.7C19.9387 3.90039 20.1676 3.99521 20.3364 4.16399C20.5052 4.33278 20.6 4.5617 20.6 4.80039V9.30039C20.6 9.53909 20.5052 9.768 20.3364 9.93679C20.1676 10.1056 19.9387 10.2004 19.7 10.2004H5.29999C5.0613 10.2004 4.83238 10.1056 4.6636 9.93679C4.49482 9.768 4.39999 9.53909 4.39999 9.30039V4.80039C4.39999 4.5617 4.49482 4.33278 4.6636 4.16399C4.83238 3.99521 5.0613 3.90039 5.29999 3.90039ZM7.09999 12.0004H12.5C12.7387 12.0004 12.9676 12.0952 13.1364 12.264C13.3052 12.4328 13.4 12.6617 13.4 12.9004V15.6004H14.3V21.0004H10.7V15.6004H11.6V13.8004H6.19999C5.9613 13.8004 5.73238 13.7056 5.5636 13.5368C5.39482 13.368 5.29999 13.1391 5.29999 12.9004V11.1004H7.09999V12.0004ZM17.6588 13.5592L19.25 11.968L20.8412 13.5592C21.1558 13.8739 21.37 14.2748 21.4568 14.7112C21.5436 15.1477 21.499 15.6 21.3287 16.0111C21.1584 16.4222 20.87 16.7736 20.5 17.0208C20.13 17.268 19.695 17.4 19.25 17.4C18.805 17.4 18.37 17.268 18 17.0208C17.63 16.7736 17.3416 16.4222 17.1713 16.0111C17.001 15.6 16.9564 15.1477 17.0432 14.7112C17.13 14.2748 17.3442 13.8739 17.6588 13.5592Z" fill="#0A0D14" style="fill:#0A0D14;fill:color(display-p3 0.0392 0.0510 0.0784);fill-opacity:1;"/>
</svg>
