<svg width="25" height="24" viewBox="0 0 25 24" fill="none" xmlns="http://www.w3.org/2000/svg">
<path d="M19.0052 18.0587L20.5964 16.4675L22.1867 18.0587C22.5014 18.3733 22.7158 18.7742 22.8027 19.2107C22.8895 19.6472 22.845 20.0996 22.6747 20.5108C22.5045 20.922 22.2161 21.2734 21.846 21.5207C21.476 21.7679 21.041 21.8999 20.5959 21.8999C20.1509 21.8999 19.7159 21.7679 19.3458 21.5207C18.9758 21.2734 18.6874 20.922 18.5171 20.5108C18.3469 20.0996 18.3024 19.6472 18.3892 19.2107C18.4761 18.7742 18.6905 18.3733 19.0052 18.0587ZM9.69019 2.17188L19.8728 12.3536C19.9565 12.4372 20.0229 12.5364 20.0681 12.6457C20.1134 12.7549 20.1367 12.8721 20.1367 12.9903C20.1367 13.1086 20.1134 13.2257 20.0681 13.335C20.0229 13.4442 19.9565 13.5435 19.8728 13.6271L12.2363 21.2636C12.0675 21.4323 11.8386 21.5271 11.6 21.5271C11.3613 21.5271 11.1325 21.4323 10.9637 21.2636L3.32719 13.6271C3.24351 13.5435 3.17713 13.4442 3.13184 13.335C3.08654 13.2257 3.06323 13.1086 3.06323 12.9903C3.06323 12.8721 3.08654 12.7549 3.13184 12.6457C3.17713 12.5364 3.24351 12.4372 3.32719 12.3536L10.3274 5.35337L8.41759 3.44447L9.69199 2.17188H9.69019ZM11.6 6.62688L5.23609 12.9899L11.6 19.3556L17.9639 12.9917L11.6 6.62598V6.62688Z" fill="#0A0D14" style="fill:#0A0D14;fill:color(display-p3 0.0392 0.0510 0.0784);fill-opacity:1;"/>
</svg>
