<svg width="25" height="24" viewBox="0 0 25 24" fill="none" xmlns="http://www.w3.org/2000/svg">
<path d="M12.5 3C17.4698 3 21.5 6.5802 21.5 11.0001C21.4993 12.326 20.9722 13.5973 20.0346 14.5348C19.0969 15.4723 17.8255 15.9991 16.4996 15.9996H14.7302C13.9004 15.9996 13.2299 16.6701 13.2299 17.4999C13.2299 17.8797 13.3802 18.2298 13.6097 18.4899C13.85 18.7599 14.0003 19.11 14.0003 19.4997C14.0003 20.3304 13.31 21 12.5 21C7.5302 21 3.5 16.9698 3.5 12C3.5 7.0302 7.5302 3 12.5 3ZM11.4299 17.4999C11.4295 17.0664 11.5147 16.6371 11.6804 16.2365C11.8461 15.8359 12.0892 15.472 12.3957 15.1654C12.7023 14.8589 13.0662 14.6158 13.4668 14.4501C13.8674 14.2844 14.2967 14.1992 14.7302 14.1996H16.4996C17.3479 14.1991 18.1614 13.862 18.7615 13.2623C19.3615 12.6626 19.699 11.8493 19.7 11.001C19.7 7.6251 16.5212 4.8 12.5 4.8C10.642 4.79831 8.85531 5.51493 7.51344 6.80003C6.17157 8.08513 5.37844 9.83922 5.29987 11.6955C5.22131 13.5519 5.86339 15.3667 7.09187 16.7606C8.32035 18.1545 10.0401 19.0195 11.8916 19.1748C11.5903 18.6683 11.4308 18.0901 11.4299 17.5008V17.4999ZM8.45 12C8.09196 12 7.74858 11.8578 7.49541 11.6046C7.24223 11.3514 7.1 11.008 7.1 10.65C7.1 10.292 7.24223 9.94858 7.49541 9.69541C7.74858 9.44223 8.09196 9.3 8.45 9.3C8.80804 9.3 9.15142 9.44223 9.40459 9.69541C9.65777 9.94858 9.8 10.292 9.8 10.65C9.8 11.008 9.65777 11.3514 9.40459 11.6046C9.15142 11.8578 8.80804 12 8.45 12ZM16.55 12C16.192 12 15.8486 11.8578 15.5954 11.6046C15.3422 11.3514 15.2 11.008 15.2 10.65C15.2 10.292 15.3422 9.94858 15.5954 9.69541C15.8486 9.44223 16.192 9.3 16.55 9.3C16.908 9.3 17.2514 9.44223 17.5046 9.69541C17.7578 9.94858 17.9 10.292 17.9 10.65C17.9 11.008 17.7578 11.3514 17.5046 11.6046C17.2514 11.8578 16.908 12 16.55 12ZM12.5 9.3C12.142 9.3 11.7986 9.15777 11.5454 8.90459C11.2922 8.65142 11.15 8.30804 11.15 7.95C11.15 7.59196 11.2922 7.24858 11.5454 6.99541C11.7986 6.74223 12.142 6.6 12.5 6.6C12.858 6.6 13.2014 6.74223 13.4546 6.99541C13.7078 7.24858 13.85 7.59196 13.85 7.95C13.85 8.30804 13.7078 8.65142 13.4546 8.90459C13.2014 9.15777 12.858 9.3 12.5 9.3Z" fill="#0A0D14" style="fill:#0A0D14;fill:color(display-p3 0.0392 0.0510 0.0784);fill-opacity:1;"/>
</svg>
