<svg width="25" height="24" viewBox="0 0 25 24" fill="none" xmlns="http://www.w3.org/2000/svg">
<path d="M12.5 3C17.4698 3 21.5 6.5802 21.5 11.0001C21.4993 12.326 20.9722 13.5973 20.0346 14.5348C19.0969 15.4723 17.8255 15.9991 16.4996 15.9996H14.7302C13.9004 15.9996 13.2299 16.6701 13.2299 17.4999C13.2299 17.8797 13.3802 18.2298 13.6097 18.4899C13.85 18.7599 14.0003 19.11 14.0003 19.4997C14.0003 20.3304 13.31 21 12.5 21C7.5302 21 3.5 16.9698 3.5 12C3.5 7.0302 7.5302 3 12.5 3ZM8.45 12C8.80804 12 9.15142 11.8578 9.40459 11.6046C9.65777 11.3514 9.8 11.008 9.8 10.65C9.8 10.292 9.65777 9.94858 9.40459 9.69541C9.15142 9.44223 8.80804 9.3 8.45 9.3C8.09196 9.3 7.74858 9.44223 7.49541 9.69541C7.24223 9.94858 7.1 10.292 7.1 10.65C7.1 11.008 7.24223 11.3514 7.49541 11.6046C7.74858 11.8578 8.09196 12 8.45 12ZM16.55 12C16.908 12 17.2514 11.8578 17.5046 11.6046C17.7578 11.3514 17.9 11.008 17.9 10.65C17.9 10.292 17.7578 9.94858 17.5046 9.69541C17.2514 9.44223 16.908 9.3 16.55 9.3C16.192 9.3 15.8486 9.44223 15.5954 9.69541C15.3422 9.94858 15.2 10.292 15.2 10.65C15.2 11.008 15.3422 11.3514 15.5954 11.6046C15.8486 11.8578 16.192 12 16.55 12ZM12.5 9.3C12.858 9.3 13.2014 9.15777 13.4546 8.90459C13.7078 8.65142 13.85 8.30804 13.85 7.95C13.85 7.59196 13.7078 7.24858 13.4546 6.99541C13.2014 6.74223 12.858 6.6 12.5 6.6C12.142 6.6 11.7986 6.74223 11.5454 6.99541C11.2922 7.24858 11.15 7.59196 11.15 7.95C11.15 8.30804 11.2922 8.65142 11.5454 8.90459C11.7986 9.15777 12.142 9.3 12.5 9.3Z" fill="#0A0D14" style="fill:#0A0D14;fill:color(display-p3 0.0392 0.0510 0.0784);fill-opacity:1;"/>
</svg>
