<svg width="25" height="24" viewBox="0 0 25 24" fill="none" xmlns="http://www.w3.org/2000/svg">
<path d="M5.3 18.2301L4.085 17.7396C3.86373 17.6501 3.68708 17.4764 3.59392 17.2566C3.50075 17.0369 3.49869 16.7891 3.5882 16.5678L5.3 12.3306V18.2301ZM9.674 20.1003H8C7.7613 20.1003 7.53238 20.0055 7.3636 19.8367C7.19482 19.6679 7.1 19.439 7.1 19.2003V13.7301L9.674 20.1003ZM7.1198 6.57153L15.4646 3.20013C15.6858 3.1109 15.9333 3.11311 16.1528 3.20626C16.3724 3.2994 16.546 3.47588 16.6355 3.69693L21.6935 16.2141C21.7378 16.3237 21.76 16.441 21.759 16.5592C21.758 16.6775 21.7336 16.7943 21.6874 16.9031C21.6412 17.012 21.574 17.1106 21.4896 17.1934C21.4053 17.2763 21.3054 17.3417 21.1958 17.3859L12.851 20.7573C12.7414 20.8016 12.6241 20.8239 12.5059 20.8228C12.3877 20.8218 12.2708 20.7975 12.162 20.7512C12.0532 20.705 11.9545 20.6378 11.8717 20.5535C11.7888 20.4691 11.7234 20.3693 11.6792 20.2596L6.62299 7.74333C6.53382 7.52205 6.53615 7.27442 6.62948 7.05486C6.72281 6.8353 6.89949 6.66177 7.12069 6.57243L7.1198 6.57153ZM9.79999 9.30033C10.0387 9.30033 10.2676 9.2055 10.4364 9.03672C10.6052 8.86794 10.7 8.63902 10.7 8.40033C10.7 8.16163 10.6052 7.93271 10.4364 7.76393C10.2676 7.59515 10.0387 7.50033 9.79999 7.50033C9.5613 7.50033 9.33238 7.59515 9.1636 7.76393C8.99482 7.93271 8.89999 8.16163 8.89999 8.40033C8.89999 8.63902 8.99482 8.86794 9.1636 9.03672C9.33238 9.2055 9.5613 9.30033 9.79999 9.30033Z" fill="#0A0D14" style="fill:#0A0D14;fill:color(display-p3 0.0392 0.0510 0.0784);fill-opacity:1;"/>
</svg>
