<svg width="25" height="24" viewBox="0 0 25 24" fill="none" xmlns="http://www.w3.org/2000/svg">
<path d="M6.8876 8.40033L6.6221 7.74333C6.5778 7.63371 6.55554 7.51644 6.55658 7.39821C6.55763 7.27999 6.58195 7.16313 6.62817 7.05431C6.67439 6.94549 6.7416 6.84685 6.82595 6.76401C6.91031 6.68117 7.01016 6.61576 7.1198 6.57153L15.4646 3.20013C15.6858 3.1109 15.9333 3.11311 16.1528 3.20626C16.3724 3.2994 16.546 3.47588 16.6355 3.69693L21.6935 16.2141C21.7378 16.3237 21.76 16.441 21.759 16.5592C21.758 16.6775 21.7336 16.7943 21.6874 16.9031C21.6412 17.012 21.574 17.1106 21.4896 17.1934C21.4053 17.2763 21.3054 17.3417 21.1958 17.3859L12.851 20.7573C12.7414 20.8016 12.6241 20.8239 12.5059 20.8228C12.3877 20.8218 12.2708 20.7975 12.162 20.7512C12.0532 20.705 11.9545 20.6378 11.8717 20.5535C11.7888 20.4691 11.7234 20.3693 11.6792 20.2596L11.6 20.0643V20.1003H8C7.7613 20.1003 7.53238 20.0055 7.3636 19.8367C7.19482 19.6679 7.1 19.439 7.1 19.2003V18.9573L4.085 17.7396C3.86373 17.6501 3.68708 17.4764 3.59392 17.2566C3.50075 17.0369 3.49869 16.7891 3.5882 16.5678L6.8876 8.40033ZM8.89999 18.3003H10.8881L8.89999 13.38V18.3003ZM7.1 12.6807L5.5943 16.4076L7.1 17.0475V12.6807ZM8.62819 7.90263L13.0112 18.7512L19.6874 16.0539L15.3044 5.20623L8.62819 7.90263ZM11.3084 9.73233C11.087 9.82172 10.8392 9.8195 10.6194 9.72616C10.3997 9.63283 10.226 9.45602 10.1366 9.23463C10.0472 9.01324 10.0494 8.7654 10.1428 8.54565C10.2361 8.32589 10.4129 8.15222 10.6343 8.06283C10.8557 7.97332 11.1036 7.97542 11.3234 8.06867C11.5432 8.16192 11.717 8.33869 11.8065 8.56008C11.8961 8.78147 11.894 9.02935 11.8007 9.24919C11.7074 9.46902 11.5307 9.64282 11.3093 9.73233H11.3084Z" fill="#0A0D14" style="fill:#0A0D14;fill:color(display-p3 0.0392 0.0510 0.0784);fill-opacity:1;"/>
</svg>
