<svg width="25" height="24" viewBox="0 0 25 24" fill="none" xmlns="http://www.w3.org/2000/svg">
<path d="M12.5 6.60078V20.1008H10.7V15.6008C9.26782 15.6008 7.89431 15.0319 6.88161 14.0192C5.86891 13.0065 5.29999 11.633 5.29999 10.2008C5.29999 8.76861 5.86891 7.3951 6.88161 6.3824C7.89431 5.36971 9.26782 4.80078 10.7 4.80078H19.7V6.60078H17V20.1008H15.2V6.60078H12.5ZM10.7 6.60078C9.74521 6.60078 8.82953 6.98007 8.1544 7.6552C7.47927 8.33033 7.09999 9.246 7.09999 10.2008C7.09999 11.1556 7.47927 12.0712 8.1544 12.7464C8.82953 13.4215 9.74521 13.8008 10.7 13.8008V6.60078Z" fill="#0A0D14" style="fill:#0A0D14;fill:color(display-p3 0.0392 0.0510 0.0784);fill-opacity:1;"/>
</svg>
