<svg width="25" height="24" viewBox="0 0 25 24" fill="none" xmlns="http://www.w3.org/2000/svg">
<path d="M8 11.1C7.46815 11.1 6.9415 10.9952 6.45013 10.7917C5.95876 10.5882 5.51229 10.2899 5.13622 9.91378C4.76014 9.5377 4.46182 9.09124 4.25829 8.59987C4.05476 8.1085 3.95 7.58185 3.95 7.05C3.95 6.51815 4.05476 5.9915 4.25829 5.50013C4.46182 5.00876 4.76014 4.56229 5.13622 4.18622C5.51229 3.81014 5.95876 3.51182 6.45013 3.30829C6.9415 3.10476 7.46815 3 8 3C9.07413 3 10.1043 3.4267 10.8638 4.18622C11.6233 4.94574 12.05 5.97587 12.05 7.05C12.05 8.12413 11.6233 9.15426 10.8638 9.91378C10.1043 10.6733 9.07413 11.1 8 11.1ZM17.45 14.7C16.4952 14.7 15.5795 14.3207 14.9044 13.6456C14.2293 12.9705 13.85 12.0548 13.85 11.1C13.85 10.1452 14.2293 9.22955 14.9044 8.55442C15.5795 7.87928 16.4952 7.5 17.45 7.5C18.4048 7.5 19.3205 7.87928 19.9956 8.55442C20.6707 9.22955 21.05 10.1452 21.05 11.1C21.05 12.0548 20.6707 12.9705 19.9956 13.6456C19.3205 14.3207 18.4048 14.7 17.45 14.7ZM17.45 15.6C18.5241 15.6 19.5543 16.0267 20.3138 16.7862C21.0733 17.5457 21.5 18.5759 21.5 19.65V20.1H13.4V19.65C13.4 18.5759 13.8267 17.5457 14.5862 16.7862C15.3457 16.0267 16.3759 15.6 17.45 15.6ZM8 12C8.59095 12 9.17611 12.1164 9.72207 12.3425C10.268 12.5687 10.7641 12.9002 11.182 13.318C11.5998 13.7359 11.9313 14.232 12.1575 14.7779C12.3836 15.3239 12.5 15.9091 12.5 16.5V20.1H3.5V16.5C3.5 15.3065 3.97411 14.1619 4.81802 13.318C5.66193 12.4741 6.80653 12 8 12Z" fill="#0A0D14" style="fill:#0A0D14;fill:color(display-p3 0.0392 0.0510 0.0784);fill-opacity:1;"/>
</svg>
