<svg width="25" height="24" viewBox="0 0 25 24" fill="none" xmlns="http://www.w3.org/2000/svg">
<path d="M8 9.3C8.59674 9.3 9.16903 9.06295 9.59099 8.64099C10.0129 8.21903 10.25 7.64674 10.25 7.05C10.25 6.45326 10.0129 5.88097 9.59099 5.45901C9.16903 5.03705 8.59674 4.8 8 4.8C7.40326 4.8 6.83097 5.03705 6.40901 5.45901C5.98705 5.88097 5.75 6.45326 5.75 7.05C5.75 7.64674 5.98705 8.21903 6.40901 8.64099C6.83097 9.06295 7.40326 9.3 8 9.3ZM8 11.1C7.46815 11.1 6.9415 10.9952 6.45013 10.7917C5.95876 10.5882 5.51229 10.2899 5.13622 9.91378C4.76014 9.5377 4.46182 9.09124 4.25829 8.59987C4.05476 8.1085 3.95 7.58185 3.95 7.05C3.95 6.51815 4.05476 5.9915 4.25829 5.50013C4.46182 5.00876 4.76014 4.56229 5.13622 4.18622C5.51229 3.81014 5.95876 3.51182 6.45013 3.30829C6.9415 3.10476 7.46815 3 8 3C9.07413 3 10.1043 3.4267 10.8638 4.18622C11.6233 4.94574 12.05 5.97587 12.05 7.05C12.05 8.12413 11.6233 9.15426 10.8638 9.91378C10.1043 10.6733 9.07413 11.1 8 11.1ZM17.45 12.9C17.9274 12.9 18.3852 12.7104 18.7228 12.3728C19.0604 12.0352 19.25 11.5774 19.25 11.1C19.25 10.6226 19.0604 10.1648 18.7228 9.82721C18.3852 9.48964 17.9274 9.3 17.45 9.3C16.9726 9.3 16.5148 9.48964 16.1772 9.82721C15.8396 10.1648 15.65 10.6226 15.65 11.1C15.65 11.5774 15.8396 12.0352 16.1772 12.3728C16.5148 12.7104 16.9726 12.9 17.45 12.9ZM17.45 14.7C16.4952 14.7 15.5795 14.3207 14.9044 13.6456C14.2293 12.9705 13.85 12.0548 13.85 11.1C13.85 10.1452 14.2293 9.22955 14.9044 8.55442C15.5795 7.87928 16.4952 7.5 17.45 7.5C18.4048 7.5 19.3205 7.87928 19.9956 8.55442C20.6707 9.22955 21.05 10.1452 21.05 11.1C21.05 12.0548 20.6707 12.9705 19.9956 13.6456C19.3205 14.3207 18.4048 14.7 17.45 14.7ZM19.7 20.1V19.65C19.7 19.0533 19.4629 18.481 19.041 18.059C18.619 17.6371 18.0467 17.4 17.45 17.4C16.8533 17.4 16.281 17.6371 15.859 18.059C15.4371 18.481 15.2 19.0533 15.2 19.65V20.1H13.4V19.65C13.4 19.1181 13.5048 18.5915 13.7083 18.1001C13.9118 17.6088 14.2101 17.1623 14.5862 16.7862C14.9623 16.4101 15.4088 16.1118 15.9001 15.9083C16.3915 15.7048 16.9181 15.6 17.45 15.6C17.9819 15.6 18.5085 15.7048 18.9999 15.9083C19.4912 16.1118 19.9377 16.4101 20.3138 16.7862C20.6899 17.1623 20.9882 17.6088 21.1917 18.1001C21.3952 18.5915 21.5 19.1181 21.5 19.65V20.1H19.7ZM10.7 20.1V16.5C10.7 15.7839 10.4155 15.0972 9.90919 14.5908C9.40284 14.0845 8.71608 13.8 8 13.8C7.28392 13.8 6.59716 14.0845 6.09081 14.5908C5.58446 15.0972 5.3 15.7839 5.3 16.5V20.1H3.5V16.5C3.5 15.3065 3.97411 14.1619 4.81802 13.318C5.66193 12.4741 6.80653 12 8 12C9.19347 12 10.3381 12.4741 11.182 13.318C12.0259 14.1619 12.5 15.3065 12.5 16.5V20.1H10.7Z" fill="#0A0D14" style="fill:#0A0D14;fill:color(display-p3 0.0392 0.0510 0.0784);fill-opacity:1;"/>
</svg>
