<svg width="25" height="24" viewBox="0 0 25 24" fill="none" xmlns="http://www.w3.org/2000/svg">
<path d="M5.30002 3.90039H19.7C19.9387 3.90039 20.1676 3.99521 20.3364 4.16399C20.5052 4.33278 20.6 4.5617 20.6 4.80039V19.2004C20.6 19.4391 20.5052 19.668 20.3364 19.8368C20.1676 20.0056 19.9387 20.1004 19.7 20.1004H5.30002C5.06133 20.1004 4.83241 20.0056 4.66363 19.8368C4.49485 19.668 4.40002 19.4391 4.40002 19.2004V4.80039C4.40002 4.5617 4.49485 4.33278 4.66363 4.16399C4.83241 3.99521 5.06133 3.90039 5.30002 3.90039ZM6.20002 5.70039V18.3004H18.8V5.70039H6.20002ZM9.80002 7.50039H12.95C13.7855 7.50039 14.5867 7.83226 15.1774 8.423C15.7682 9.01374 16.1 9.81496 16.1 10.6504C16.1 11.4858 15.7682 12.287 15.1774 12.8778C14.5867 13.4685 13.7855 13.8004 12.95 13.8004H11.6V16.5004H9.80002V7.50039ZM11.6 9.30039V12.0004H12.95C13.3081 12.0004 13.6514 11.8582 13.9046 11.605C14.1578 11.3518 14.3 11.0084 14.3 10.6504C14.3 10.2923 14.1578 9.94897 13.9046 9.6958C13.6514 9.44262 13.3081 9.30039 12.95 9.30039H11.6Z" fill="#0A0D14" style="fill:#0A0D14;fill:color(display-p3 0.0392 0.0510 0.0784);fill-opacity:1;"/>
</svg>
