<svg width="25" height="24" viewBox="0 0 25 24" fill="none" xmlns="http://www.w3.org/2000/svg">
<path d="M7.09998 3.90039H13.4C14.8321 3.90039 16.2057 4.46932 17.2184 5.48201C18.231 6.49471 18.8 7.86822 18.8 9.30039C18.8 10.7326 18.231 12.1061 17.2184 13.1188C16.2057 14.1315 14.8321 14.7004 13.4 14.7004H8.89998V20.1004H7.09998V3.90039ZM8.89998 5.70039V12.9004H13.4C14.3548 12.9004 15.2704 12.5211 15.9456 11.846C16.6207 11.1708 17 10.2552 17 9.30039C17 8.34561 16.6207 7.42994 15.9456 6.75481C15.2704 6.07968 14.3548 5.70039 13.4 5.70039H8.89998Z" fill="#0A0D14" style="fill:#0A0D14;fill:color(display-p3 0.0392 0.0510 0.0784);fill-opacity:1;"/>
</svg>
