<svg width="25" height="24" viewBox="0 0 25 24" fill="none" xmlns="http://www.w3.org/2000/svg">
<path d="M7.09998 3.90039H13.4C14.8321 3.90039 16.2057 4.46932 17.2184 5.48201C18.231 6.49471 18.8 7.86822 18.8 9.30039C18.8 10.7326 18.231 12.1061 17.2184 13.1188C16.2057 14.1315 14.8321 14.7004 13.4 14.7004H10.7V20.1004H7.09998V3.90039ZM10.7 7.50039V11.1004H13.4C13.8774 11.1004 14.3352 10.9107 14.6728 10.5732C15.0103 10.2356 15.2 9.77778 15.2 9.30039C15.2 8.823 15.0103 8.36516 14.6728 8.0276C14.3352 7.69003 13.8774 7.50039 13.4 7.50039H10.7Z" fill="#0A0D14" style="fill:#0A0D14;fill:color(display-p3 0.0392 0.0510 0.0784);fill-opacity:1;"/>
</svg>
