<svg width="25" height="24" viewBox="0 0 25 24" fill="none" xmlns="http://www.w3.org/2000/svg">
<path d="M5 6C4.58579 6 4.25 6.33579 4.25 6.75V17.25C4.25 17.6642 4.58579 18 5 18H20C20.4142 18 20.75 17.6642 20.75 17.25V6.75C20.75 6.33579 20.4142 6 20 6H5ZM10.2501 10.5C10.2501 10.0858 9.91427 9.75 9.50006 9.75C9.08584 9.75 8.75006 10.0858 8.75006 10.5C8.75006 10.9142 9.08584 11.25 9.50006 11.25C9.91427 11.25 10.2501 10.9142 10.2501 10.5ZM11.7501 10.5C11.7501 11.7427 10.7427 12.75 9.50006 12.75C8.25742 12.75 7.25006 11.7427 7.25006 10.5C7.25006 9.25736 8.25742 8.25 9.50006 8.25C10.7427 8.25 11.7501 9.25736 11.7501 10.5ZM7.64544 15.7688L6.58478 14.7082C7.33044 13.9625 8.36272 13.5 9.50159 13.5C10.6405 13.5 11.6727 13.9625 12.4184 14.7082L11.3577 15.7688C10.8819 15.293 10.2267 15 9.50159 15C8.77651 15 8.12129 15.293 7.64544 15.7688ZM13.25 14.25V9.75H14.75V14.25H13.25ZM16.25 14.25V9.75H17.75V14.25H16.25Z" fill="#0A0D14" style="fill:#0A0D14;fill:color(display-p3 0.0392 0.0510 0.0784);fill-opacity:1;"/>
</svg>
