<svg width="25" height="24" viewBox="0 0 25 24" fill="none" xmlns="http://www.w3.org/2000/svg">
<path d="M19.7 3C19.9387 3 20.1676 3.09482 20.3364 3.2636C20.5052 3.43239 20.6 3.66131 20.6 3.9V20.1C20.6 20.3387 20.5052 20.5676 20.3364 20.7364C20.1676 20.9052 19.9387 21 19.7 21H5.30002C5.06133 21 4.83241 20.9052 4.66363 20.7364C4.49485 20.5676 4.40002 20.3387 4.40002 20.1V3.9C4.40002 3.66131 4.49485 3.43239 4.66363 3.2636C4.83241 3.09482 5.06133 3 5.30002 3H19.7ZM18.8 4.8H6.20002V19.2H18.8V4.8ZM16.1 15.6V17.4H8.90002V15.6H16.1ZM12.5 6.6C13.4548 6.6 14.3705 6.97928 15.0456 7.65442C15.7207 8.32955 16.1 9.24522 16.1 10.2C16.1 11.1548 15.7207 12.0705 15.0456 12.7456C14.3705 13.4207 13.4548 13.8 12.5 13.8C11.5452 13.8 10.6296 13.4207 9.95444 12.7456C9.27931 12.0705 8.90002 11.1548 8.90002 10.2C8.90002 9.24522 9.27931 8.32955 9.95444 7.65442C10.6296 6.97928 11.5452 6.6 12.5 6.6ZM12.5 8.4C12.0226 8.4 11.5648 8.58964 11.2272 8.92721C10.8897 9.26477 10.7 9.72261 10.7 10.2C10.7 10.6774 10.8897 11.1352 11.2272 11.4728C11.5648 11.8104 12.0226 12 12.5 12C12.9774 12 13.4353 11.8104 13.7728 11.4728C14.1104 11.1352 14.3 10.6774 14.3 10.2C14.3 9.72261 14.1104 9.26477 13.7728 8.92721C13.4353 8.58964 12.9774 8.4 12.5 8.4Z" fill="#0A0D14" style="fill:#0A0D14;fill:color(display-p3 0.0392 0.0510 0.0784);fill-opacity:1;"/>
</svg>
