<svg width="25" height="24" viewBox="0 0 25 24" fill="none" xmlns="http://www.w3.org/2000/svg">
<path d="M5.75 16.5H19.25V7.5H5.75V16.5ZM4.25 6.75C4.25 6.33579 4.58579 6 5 6H20C20.4142 6 20.75 6.33579 20.75 6.75V17.25C20.75 17.6642 20.4142 18 20 18H5C4.58579 18 4.25 17.6642 4.25 17.25V6.75ZM10.25 10.5C10.25 10.0858 9.91421 9.75 9.5 9.75C9.08579 9.75 8.75 10.0858 8.75 10.5C8.75 10.9142 9.08579 11.25 9.5 11.25C9.91421 11.25 10.25 10.9142 10.25 10.5ZM11.75 10.5C11.75 11.7427 10.7426 12.75 9.5 12.75C8.25736 12.75 7.25 11.7427 7.25 10.5C7.25 9.25736 8.25736 8.25 9.5 8.25C10.7426 8.25 11.75 9.25736 11.75 10.5ZM9.50135 15C8.77627 15 8.12105 15.293 7.6452 15.7688L6.58454 14.7082C7.3302 13.9625 8.36247 13.5 9.50135 13.5C10.6402 13.5 11.6725 13.9625 12.4182 14.7082L11.3575 15.7688C10.8817 15.293 10.2264 15 9.50135 15ZM16.8447 9.59467L15.5 10.9394L14.1553 9.59467L13.0947 10.6553L14.4394 12L13.0947 13.3447L14.1553 14.4053L15.5 13.0606L16.8447 14.4053L17.9053 13.3447L16.5606 12L17.9053 10.6553L16.8447 9.59467Z" fill="#0A0D14" style="fill:#0A0D14;fill:color(display-p3 0.0392 0.0510 0.0784);fill-opacity:1;"/>
</svg>
