<svg width="25" height="24" viewBox="0 0 25 24" fill="none" xmlns="http://www.w3.org/2000/svg">
<path d="M15.2 16.5C13.4098 16.5 11.6929 15.7888 10.427 14.523C9.16116 13.2571 8.45 11.5402 8.45 9.75C8.45 7.95979 9.16116 6.2429 10.427 4.97703C11.6929 3.71116 13.4098 3 15.2 3C16.9902 3 18.7071 3.71116 19.973 4.97703C21.2388 6.2429 21.95 7.95979 21.95 9.75C21.95 11.5402 21.2388 13.2571 19.973 14.523C18.7071 15.7888 16.9902 16.5 15.2 16.5ZM15.2 14.7C16.5128 14.7 17.7719 14.1785 18.7002 13.2502C19.6285 12.3219 20.15 11.0628 20.15 9.75C20.15 8.43718 19.6285 7.17813 18.7002 6.24982C17.7719 5.32152 16.5128 4.8 15.2 4.8C13.8872 4.8 12.6281 5.32152 11.6998 6.24982C10.7715 7.17813 10.25 8.43718 10.25 9.75C10.25 11.0628 10.7715 12.3219 11.6998 13.2502C12.6281 14.1785 13.8872 14.7 15.2 14.7ZM3.5 3H8V21H3.5V3ZM5.3 4.8V19.2H6.2V4.8H5.3Z" fill="#0A0D14" style="fill:#0A0D14;fill:color(display-p3 0.0392 0.0510 0.0784);fill-opacity:1;"/>
</svg>
