<svg width="25" height="24" viewBox="0 0 25 24" fill="none" xmlns="http://www.w3.org/2000/svg">
<path d="M15.2 7.50156C15.2 7.26287 15.2948 7.03395 15.4636 6.86517C15.6324 6.69638 15.8613 6.60156 16.1 6.60156C16.3387 6.60156 16.5676 6.69638 16.7364 6.86517C16.9052 7.03395 17 7.26287 17 7.50156V16.5016C17 16.7403 16.9052 16.9692 16.7364 17.138C16.5676 17.3067 16.3387 17.4016 16.1 17.4016C15.8613 17.4016 15.6324 17.3067 15.4636 17.138C15.2948 16.9692 15.2 16.7403 15.2 16.5016V7.50156ZM8 7.50156C8 7.26287 8.09482 7.03395 8.2636 6.86517C8.43239 6.69638 8.66131 6.60156 8.9 6.60156C9.13869 6.60156 9.36761 6.69638 9.5364 6.86517C9.70518 7.03395 9.8 7.26287 9.8 7.50156V16.5016C9.8 16.7403 9.70518 16.9692 9.5364 17.138C9.36761 17.3067 9.13869 17.4016 8.9 17.4016C8.66131 17.4016 8.43239 17.3067 8.2636 17.138C8.09482 16.9692 8 16.7403 8 16.5016V7.50156Z" fill="#0A0D14" style="fill:#0A0D14;fill:color(display-p3 0.0392 0.0510 0.0784);fill-opacity:1;"/>
</svg>
