<svg width="25" height="24" viewBox="0 0 25 24" fill="none" xmlns="http://www.w3.org/2000/svg">
<path d="M9.34549 19.8003H10.7414L11.2256 16.7619C11.3196 16.1683 11.6224 15.6278 12.0794 15.2374C12.5363 14.8471 13.1176 14.6326 13.7186 14.6325H14.1686C16.5779 14.6325 17.8226 13.7478 18.2636 11.4798C18.4508 10.5204 18.3689 9.9228 18.1097 9.588C17.0234 12.3366 14.6987 13.332 11.8439 13.332H11.0483C10.7027 13.332 10.3337 13.5201 10.2815 13.854L9.34549 19.8003ZM4.89589 19.5357C4.82424 19.5357 4.75344 19.5201 4.68838 19.4901C4.62332 19.4601 4.56554 19.4163 4.51901 19.3618C4.47248 19.3074 4.43831 19.2434 4.41885 19.1745C4.39939 19.1055 4.3951 19.0332 4.40629 18.9624L6.81198 3.6984C6.84287 3.50349 6.94236 3.32602 7.09252 3.19797C7.24268 3.06992 7.43364 2.99971 7.63099 3H13.4126C15.4034 3 16.9604 3.4203 17.8217 4.4022C18.6047 5.2932 18.8324 6.2778 18.6056 7.725C18.9296 7.8969 19.2068 8.1075 19.43 8.3604C20.1662 9.2001 20.3102 10.3944 20.0312 11.8254C19.3652 15.2499 17.0828 16.4334 14.1686 16.4334H13.7186C13.5463 16.4336 13.3797 16.4953 13.2487 16.6073C13.1177 16.7193 13.031 16.8743 13.004 17.0445L12.3722 20.9892C12.3454 21.1595 12.2587 21.3146 12.1277 21.4266C11.9967 21.5387 11.83 21.6003 11.6576 21.6003H7.74798C7.6852 21.6003 7.62317 21.5867 7.56615 21.5604C7.50913 21.5341 7.45848 21.4958 7.41769 21.4481C7.37689 21.4003 7.34692 21.3443 7.32983 21.2839C7.31274 21.2235 7.30894 21.1601 7.31869 21.0981L7.56529 19.5357H4.89498H4.89589ZM11.0483 11.5311H11.8439C14.7149 11.5311 16.2494 10.4403 16.7786 7.725C16.7966 7.6341 16.8119 7.5423 16.8263 7.4469C16.9757 6.4929 16.8713 6.0492 16.4681 5.5902C16.0496 5.1132 15.0254 4.8 13.4117 4.8H8.46169L6.42138 17.7357H7.82629L8.48329 13.5705L8.48959 13.5714C8.62176 12.9917 8.94693 12.4741 9.41181 12.1034C9.87669 11.7327 10.4537 11.5309 11.0483 11.5311Z" fill="#0A0D14" style="fill:#0A0D14;fill:color(display-p3 0.0392 0.0510 0.0784);fill-opacity:1;"/>
</svg>
