<svg width="25" height="24" viewBox="0 0 25 24" fill="none" xmlns="http://www.w3.org/2000/svg">
<path d="M19.7603 8.8302C20.2031 9.6222 20.2607 10.6428 20.0303 11.8245C19.3643 15.2499 17.0819 16.4325 14.1677 16.4325H13.7177C13.5452 16.4328 13.3785 16.4945 13.2475 16.6067C13.1165 16.7189 13.0299 16.8741 13.0031 17.0445L12.9671 17.2425L12.4001 20.8362L12.3713 20.9892C12.3445 21.1595 12.2578 21.3146 12.1268 21.4266C11.9958 21.5387 11.8291 21.6003 11.6567 21.6003H8.64799C8.5852 21.6003 8.52317 21.5867 8.46615 21.5604C8.40913 21.5341 8.35848 21.4958 8.31769 21.4481C8.27689 21.4003 8.24692 21.3443 8.22983 21.2839C8.21274 21.2235 8.20894 21.1601 8.21869 21.0981L8.37619 20.1H9.74239L10.5974 14.682H11.8439C16.0541 14.682 18.8189 12.6993 19.7603 8.8302ZM17.0963 4.2492C17.7821 5.0304 17.981 5.8782 17.7731 7.2057C17.756 7.3164 17.7371 7.4217 17.7173 7.5297C17.0558 10.9254 14.9372 12.4311 11.4569 12.4311H9.76129C9.19429 12.4311 8.70469 12.8037 8.54269 13.3329L8.53009 13.3311L7.69309 18.6357H4.50889C4.50219 18.6357 4.49558 18.6342 4.48952 18.6313C4.48345 18.6285 4.47809 18.6243 4.4738 18.6192C4.46952 18.614 4.46641 18.608 4.46469 18.6015C4.46298 18.5951 4.4627 18.5883 4.46389 18.5817L6.80209 3.7227C6.83361 3.52141 6.93598 3.33799 7.09076 3.20549C7.24554 3.07299 7.44254 3.00012 7.64629 3H13.0247C14.9894 3 16.3691 3.4221 17.0954 4.2492H17.0963Z" fill="#0A0D14" style="fill:#0A0D14;fill:color(display-p3 0.0392 0.0510 0.0784);fill-opacity:1;"/>
</svg>
