<svg width="25" height="24" viewBox="0 0 25 24" fill="none" xmlns="http://www.w3.org/2000/svg">
<path d="M6.13615 20.5362L11.3975 15.2748C11.7803 15.3774 12.1862 15.3508 12.5523 15.1992C12.9184 15.0476 13.2242 14.7794 13.4224 14.4362C13.6205 14.0931 13.6999 13.6941 13.6482 13.3012C13.5965 12.9084 13.4166 12.5435 13.1364 12.2633C12.8562 11.9832 12.4913 11.8032 12.0985 11.7515C11.7056 11.6998 11.3067 11.7792 10.9635 11.9773C10.6203 12.1755 10.3522 12.4813 10.2005 12.8474C10.0489 13.2135 10.0224 13.6194 10.1249 14.0022L4.86355 19.2636L3.90955 18.3096C6.45385 15.3396 7.40875 12.051 8.68135 6.53577L14.4089 5.89947L19.5002 10.9908L18.8639 16.7184C13.3487 17.991 10.0601 18.9459 7.09105 21.4911L6.13615 20.5371V20.5362ZM16.6364 3.03567L22.3487 8.74707C22.4076 8.80583 22.449 8.87976 22.4684 8.96064C22.4878 9.04152 22.4844 9.12619 22.4586 9.20526C22.4327 9.28432 22.3855 9.35468 22.3221 9.40852C22.2587 9.46236 22.1816 9.49758 22.0994 9.51027L20.7728 9.71727L15.6824 4.62687L15.8732 3.29037C15.8851 3.20772 15.9197 3.13 15.9732 3.06591C16.0267 3.00181 16.097 2.95387 16.1762 2.92744C16.2554 2.90101 16.3404 2.89713 16.4217 2.91625C16.503 2.93536 16.5773 2.97671 16.6364 3.03567Z" fill="#0A0D14" style="fill:#0A0D14;fill:color(display-p3 0.0392 0.0510 0.0784);fill-opacity:1;"/>
</svg>
