<svg width="25" height="24" viewBox="0 0 25 24" fill="none" xmlns="http://www.w3.org/2000/svg">
<path d="M16.6364 2.13625L22.3487 7.84765C22.4075 7.90642 22.449 7.98034 22.4683 8.06123C22.4877 8.14211 22.4843 8.22678 22.4585 8.30584C22.4327 8.38491 22.3854 8.45526 22.322 8.50911C22.2586 8.56295 22.1816 8.59817 22.0994 8.61085L20.7728 8.81785L15.6824 3.72745L15.8732 2.39095C15.885 2.30831 15.9197 2.23059 15.9732 2.16649C16.0267 2.1024 16.097 2.05446 16.1762 2.02803C16.2554 2.00159 16.3403 1.99772 16.4216 2.01683C16.5029 2.03595 16.5773 2.07729 16.6364 2.13625ZM5.83547 19.3353C9.18527 16.3374 13.031 15.4401 17.2142 14.3673L17.6156 10.7511L13.7483 6.88375L10.1321 7.28515C9.05927 11.4684 8.16197 15.3132 5.16407 18.6639L3.90857 17.4093C6.45377 14.4393 7.40957 11.1516 8.68127 5.63635L14.4089 5.00005L19.5002 10.0914L18.8639 15.819C13.3487 17.0916 10.0601 18.0465 7.09097 20.5917L5.83547 19.3353ZM10.5911 13.9083C10.4192 13.7422 10.282 13.5436 10.1877 13.324C10.0934 13.1044 10.0437 12.8682 10.0416 12.6292C10.0395 12.3902 10.0851 12.1531 10.1756 11.9319C10.2661 11.7107 10.3998 11.5097 10.5688 11.3407C10.7378 11.1717 10.9387 11.0381 11.16 10.9476C11.3812 10.8571 11.6182 10.8115 11.8572 10.8136C12.0962 10.8157 12.3324 10.8653 12.552 10.9597C12.7716 11.054 12.9702 11.1911 13.1363 11.3631C13.4596 11.7033 13.6373 12.1564 13.6314 12.6258C13.6255 13.0952 13.4364 13.5437 13.1045 13.8756C12.7727 14.2076 12.3243 14.3968 11.8549 14.4029C11.3855 14.409 10.9323 14.2315 10.592 13.9083H10.5911Z" fill="#0A0D14" style="fill:#0A0D14;fill:color(display-p3 0.0392 0.0510 0.0784);fill-opacity:1;"/>
</svg>
