<svg width="25" height="24" viewBox="0 0 25 24" fill="none" xmlns="http://www.w3.org/2000/svg">
<path d="M6.19999 17.4V19.2H9.79999V17.4H6.19999ZM4.39999 7.5L7.99999 3L11.6 7.5V21H4.39999V7.5ZM20.6 8.4H18.8V10.2H20.6V12H17.9V13.8H20.6V15.6H18.8V17.4H20.6V20.1C20.6 20.3387 20.5052 20.5676 20.3364 20.7364C20.1676 20.9052 19.9387 21 19.7 21H14.3C14.0613 21 13.8324 20.9052 13.6636 20.7364C13.4948 20.5676 13.4 20.3387 13.4 20.1V5.7C13.4 5.46131 13.4948 5.23239 13.6636 5.0636C13.8324 4.89482 14.0613 4.8 14.3 4.8H19.7C19.9387 4.8 20.1676 4.89482 20.3364 5.0636C20.5052 5.23239 20.6 5.46131 20.6 5.7V8.4Z" fill="#0A0D14" style="fill:#0A0D14;fill:color(display-p3 0.0392 0.0510 0.0784);fill-opacity:1;"/>
</svg>
