<svg width="25" height="24" viewBox="0 0 25 24" fill="none" xmlns="http://www.w3.org/2000/svg">
<path d="M6.7724 12.6364L8.4176 14.2825L9.692 13.0081L8.045 11.3638L9.3176 10.0912L10.9637 11.7364L12.2363 10.4638L10.592 8.8177L11.8646 7.5451L13.508 9.1921L14.7815 7.9186L13.1354 6.2734L15.6815 3.7282C15.8503 3.55947 16.0792 3.46469 16.3178 3.46469C16.5564 3.46469 16.7853 3.55947 16.9541 3.7282L20.7719 7.546C20.9406 7.71477 21.0354 7.94365 21.0354 8.1823C21.0354 8.42095 20.9406 8.64982 20.7719 8.8186L9.3176 20.2729C9.14882 20.4416 8.91995 20.5364 8.6813 20.5364C8.44265 20.5364 8.21377 20.4416 8.045 20.2729L4.2272 16.4551C4.05848 16.2863 3.96369 16.0574 3.96369 15.8188C3.96369 15.5802 4.05848 15.3513 4.2272 15.1825L6.7724 12.6364ZM14.4089 17.7268L18.2276 13.909L20.6 16.2814V20.1001H16.7822L14.4089 17.7268ZM6.7724 10.0903L4.2263 7.5451C4.14262 7.46151 4.07624 7.36225 4.03095 7.253C3.98565 7.14374 3.96234 7.02662 3.96234 6.90835C3.96234 6.79007 3.98565 6.67296 4.03095 6.5637C4.07624 6.45444 4.14262 6.35518 4.2263 6.2716L6.7724 3.7264C6.94117 3.55767 7.17005 3.46289 7.4087 3.46289C7.64735 3.46289 7.87622 3.55767 8.045 3.7264L10.592 6.2716L6.7724 10.0903Z" fill="#0A0D14" style="fill:#0A0D14;fill:color(display-p3 0.0392 0.0510 0.0784);fill-opacity:1;"/>
</svg>
