<svg width="25" height="24" viewBox="0 0 25 24" fill="none" xmlns="http://www.w3.org/2000/svg">
<path d="M8.045 13.909L6.137 15.8188L8.6822 18.364L18.8639 8.1814L16.3187 5.6371L14.408 7.5451L15.6815 8.8177L14.408 10.0921L13.1354 8.8186L11.8628 10.0921L13.1354 11.3647L11.8628 12.6373L10.5902 11.3647L9.3167 12.6373L10.5902 13.9099L9.3167 15.1834L8.045 13.9081V13.909ZM16.955 3.7273L20.7728 7.5451C20.9415 7.71387 21.0363 7.94275 21.0363 8.1814C21.0363 8.42005 20.9415 8.64892 20.7728 8.8177L9.3176 20.2729C9.14882 20.4416 8.91995 20.5364 8.6813 20.5364C8.44265 20.5364 8.21377 20.4416 8.045 20.2729L4.2272 16.4551C4.05848 16.2863 3.96369 16.0574 3.96369 15.8188C3.96369 15.5802 4.05848 15.3513 4.2272 15.1825L15.6824 3.7273C15.8512 3.55857 16.0801 3.46379 16.3187 3.46379C16.5573 3.46379 16.7862 3.55857 16.955 3.7273ZM14.408 17.7268L15.6815 16.4542L17.6993 18.4729H18.9719V17.2003L16.9541 15.1816L18.2267 13.909L20.6 16.2814V20.1001H16.7822L14.4089 17.7268H14.408ZM6.7724 10.0903L4.2263 7.5451C4.14262 7.46151 4.07624 7.36225 4.03095 7.253C3.98565 7.14374 3.96234 7.02662 3.96234 6.90835C3.96234 6.79007 3.98565 6.67296 4.03095 6.5637C4.07624 6.45444 4.14262 6.35518 4.2263 6.2716L6.7724 3.7264C6.94117 3.55767 7.17005 3.46289 7.4087 3.46289C7.64735 3.46289 7.87622 3.55767 8.045 3.7264L10.592 6.2716L9.3176 7.5451L7.4087 5.6353L6.1361 6.9088L8.045 8.8168L6.7724 10.0903Z" fill="#0A0D14" style="fill:#0A0D14;fill:color(display-p3 0.0392 0.0510 0.0784);fill-opacity:1;"/>
</svg>
