<svg width="25" height="24" viewBox="0 0 25 24" fill="none" xmlns="http://www.w3.org/2000/svg">
<path d="M17.45 20.1004C16.6146 20.1004 15.8133 19.7685 15.2226 19.1778C14.6319 18.587 14.3 17.7858 14.3 16.9504C14.3 16.115 14.6319 15.3137 15.2226 14.723C15.8133 14.1323 16.6146 13.8004 17.45 13.8004C18.2854 13.8004 19.0866 14.1323 19.6774 14.723C20.2681 15.3137 20.6 16.115 20.6 16.9504C20.6 17.7858 20.2681 18.587 19.6774 19.1778C19.0866 19.7685 18.2854 20.1004 17.45 20.1004ZM7.54999 10.2004C7.13633 10.2004 6.72672 10.1189 6.34454 9.96061C5.96237 9.80231 5.61511 9.57028 5.32261 9.27778C5.0301 8.98527 4.79808 8.63802 4.63977 8.25584C4.48147 7.87367 4.39999 7.46405 4.39999 7.05039C4.39999 6.63673 4.48147 6.22711 4.63977 5.84494C4.79808 5.46276 5.0301 5.11551 5.32261 4.823C5.61511 4.5305 5.96237 4.29847 6.34454 4.14017C6.72672 3.98187 7.13633 3.90039 7.54999 3.90039C8.38543 3.90039 9.18664 4.23226 9.77738 4.823C10.3681 5.41374 10.7 6.21496 10.7 7.05039C10.7 7.88582 10.3681 8.68704 9.77738 9.27778C9.18664 9.86852 8.38543 10.2004 7.54999 10.2004ZM18.8639 4.36389L20.1365 5.63649L6.13699 19.6369L4.86439 18.3643L18.863 4.36389H18.8639Z" fill="#0A0D14" style="fill:#0A0D14;fill:color(display-p3 0.0392 0.0510 0.0784);fill-opacity:1;"/>
</svg>
