<svg width="25" height="24" viewBox="0 0 25 24" fill="none" xmlns="http://www.w3.org/2000/svg">
<path d="M17.45 20.1004C16.6146 20.1004 15.8133 19.7685 15.2226 19.1778C14.6319 18.587 14.3 17.7858 14.3 16.9504C14.3 16.115 14.6319 15.3137 15.2226 14.723C15.8133 14.1323 16.6146 13.8004 17.45 13.8004C18.2854 13.8004 19.0866 14.1323 19.6774 14.723C20.2681 15.3137 20.6 16.115 20.6 16.9504C20.6 17.7858 20.2681 18.587 19.6774 19.1778C19.0866 19.7685 18.2854 20.1004 17.45 20.1004ZM17.45 18.3004C17.808 18.3004 18.1514 18.1582 18.4046 17.905C18.6578 17.6518 18.8 17.3084 18.8 16.9504C18.8 16.5923 18.6578 16.249 18.4046 15.9958C18.1514 15.7426 17.808 15.6004 17.45 15.6004C17.092 15.6004 16.7486 15.7426 16.4954 15.9958C16.2422 16.249 16.1 16.5923 16.1 16.9504C16.1 17.3084 16.2422 17.6518 16.4954 17.905C16.7486 18.1582 17.092 18.3004 17.45 18.3004ZM7.54999 10.2004C7.13633 10.2004 6.72672 10.1189 6.34454 9.96061C5.96237 9.80231 5.61511 9.57028 5.32261 9.27778C5.0301 8.98527 4.79808 8.63802 4.63977 8.25584C4.48147 7.87367 4.39999 7.46405 4.39999 7.05039C4.39999 6.63673 4.48147 6.22711 4.63977 5.84494C4.79808 5.46276 5.0301 5.11551 5.32261 4.823C5.61511 4.5305 5.96237 4.29847 6.34454 4.14017C6.72672 3.98187 7.13633 3.90039 7.54999 3.90039C8.38543 3.90039 9.18664 4.23226 9.77738 4.823C10.3681 5.41374 10.7 6.21496 10.7 7.05039C10.7 7.88582 10.3681 8.68704 9.77738 9.27778C9.18664 9.86852 8.38543 10.2004 7.54999 10.2004ZM7.54999 8.40039C7.90804 8.40039 8.25141 8.25816 8.50459 8.00499C8.75776 7.75181 8.89999 7.40843 8.89999 7.05039C8.89999 6.69235 8.75776 6.34897 8.50459 6.0958C8.25141 5.84262 7.90804 5.70039 7.54999 5.70039C7.19195 5.70039 6.84857 5.84262 6.5954 6.0958C6.34223 6.34897 6.19999 6.69235 6.19999 7.05039C6.19999 7.40843 6.34223 7.75181 6.5954 8.00499C6.84857 8.25816 7.19195 8.40039 7.54999 8.40039ZM18.8639 4.36389L20.1365 5.63649L6.13699 19.6369L4.86439 18.3643L18.863 4.36389H18.8639Z" fill="#0A0D14" style="fill:#0A0D14;fill:color(display-p3 0.0392 0.0510 0.0784);fill-opacity:1;"/>
</svg>
