<svg width="25" height="24" viewBox="0 0 25 24" fill="none" xmlns="http://www.w3.org/2000/svg">
<path d="M17.9 3C18.1387 3 18.3676 3.09482 18.5364 3.2636C18.7052 3.43239 18.8 3.66131 18.8 3.9V11.1H17V4.8H8.00001V19.2H11.6V21H7.10001C6.86132 21 6.6324 20.9052 6.46362 20.7364C6.29483 20.5676 6.20001 20.3387 6.20001 20.1V3.9C6.20001 3.66131 6.29483 3.43239 6.46362 3.2636C6.6324 3.09482 6.86132 3 7.10001 3H17.9ZM15.2 12C15.8348 11.9999 16.4584 12.1677 17.0074 12.4863C17.5565 12.8049 18.0115 13.263 18.3264 13.8142C18.6413 14.3654 18.8048 14.9901 18.8004 15.6249C18.7961 16.2597 18.6239 16.882 18.3014 17.4288L20.2904 19.4178L19.0187 20.6913L17.0279 18.7023C16.551 18.9831 16.0158 19.1501 15.4638 19.1904C14.9119 19.2308 14.3581 19.1433 13.8454 18.9348C13.3327 18.7263 12.8751 18.4025 12.5079 17.9884C12.1407 17.5743 11.874 17.0811 11.7284 16.5472C11.5827 16.0133 11.5622 15.453 11.6683 14.9098C11.7744 14.3667 12.0043 13.8553 12.3401 13.4154C12.6759 12.9755 13.1087 12.619 13.6047 12.3735C14.1007 12.1281 14.6466 12.0002 15.2 12ZM15.2 13.8C14.7226 13.8 14.2648 13.9896 13.9272 14.3272C13.5897 14.6648 13.4 15.1226 13.4 15.6C13.4 16.0774 13.5897 16.5352 13.9272 16.8728C14.2648 17.2104 14.7226 17.4 15.2 17.4C15.6774 17.4 16.1352 17.2104 16.4728 16.8728C16.8104 16.5352 17 16.0774 17 15.6C17 15.1226 16.8104 14.6648 16.4728 14.3272C16.1352 13.9896 15.6774 13.8 15.2 13.8Z" fill="#0A0D14" style="fill:#0A0D14;fill:color(display-p3 0.0392 0.0510 0.0784);fill-opacity:1;"/>
</svg>
