<svg width="25" height="24" viewBox="0 0 25 24" fill="none" xmlns="http://www.w3.org/2000/svg">
<path d="M17.9 3C18.1386 3 18.3676 3.09482 18.5363 3.2636C18.7051 3.43239 18.8 3.66131 18.8 3.9L18.8009 10.29C17.6311 10.0513 16.4145 10.287 15.4185 10.9452C14.4226 11.6034 13.7289 12.6303 13.49 13.8H12.5V21H7.09995C6.86126 21 6.63234 20.9052 6.46356 20.7364C6.29477 20.5676 6.19995 20.3387 6.19995 20.1V3.9C6.19995 3.66131 6.29477 3.43239 6.46356 3.2636C6.63234 3.09482 6.86126 3 7.09995 3H17.9ZM17.9 12C18.616 12 19.3028 12.2845 19.8091 12.7908C20.3155 13.2972 20.6 13.9839 20.6 14.7V15.6H21.5V20.1C21.5 20.3387 21.4051 20.5676 21.2363 20.7364C21.0676 20.9052 20.8386 21 20.6 21H15.2C14.9613 21 14.7323 20.9052 14.5636 20.7364C14.3948 20.5676 14.3 20.3387 14.3 20.1V15.6H15.2V14.7C15.2 13.9839 15.4844 13.2972 15.9908 12.7908C16.4971 12.2845 17.1839 12 17.9 12ZM17.9 13.8C17.4383 13.8 17 14.205 17 14.7V15.6H18.8V14.7C18.8 14.4613 18.7051 14.2324 18.5363 14.0636C18.3676 13.8948 18.1386 13.8 17.9 13.8Z" fill="#0A0D14" style="fill:#0A0D14;fill:color(display-p3 0.0392 0.0510 0.0784);fill-opacity:1;"/>
</svg>
