<svg width="25" height="24" viewBox="0 0 25 24" fill="none" xmlns="http://www.w3.org/2000/svg">
<path d="M17.9 3C18.1387 3 18.3676 3.09482 18.5364 3.2636C18.7052 3.43239 18.8 3.66131 18.8 3.9V11.5761C18.0231 10.8812 17.0617 10.426 16.0318 10.2655C15.0019 10.1049 13.9475 10.2459 12.9959 10.6713C12.0444 11.0968 11.2363 11.7885 10.6692 12.6631C10.1021 13.5376 9.80021 14.5577 9.80001 15.6C9.80001 18.5142 12.284 21 15.2 21H7.10001C6.86132 21 6.6324 20.9052 6.46362 20.7364C6.29483 20.5676 6.20001 20.3387 6.20001 20.1V3.9C6.20001 3.66131 6.29483 3.43239 6.46362 3.2636C6.6324 3.09482 6.86132 3 7.10001 3H17.9ZM15.2 12C15.8348 11.9999 16.4584 12.1677 17.0074 12.4863C17.5565 12.8049 18.0115 13.263 18.3264 13.8142C18.6413 14.3654 18.8048 14.9901 18.8004 15.6249C18.7961 16.2597 18.6239 16.882 18.3014 17.4288L20.2904 19.4178L19.0187 20.6913L17.0288 18.7023C16.5519 18.9831 16.0168 19.1501 15.4648 19.1904C14.9129 19.2308 14.3591 19.1433 13.8465 18.9349C13.3339 18.7265 12.8762 18.4027 12.509 17.9886C12.1418 17.5746 11.8751 17.0815 11.7294 16.5477C11.5837 16.0138 11.5631 15.4535 11.6691 14.9104C11.7751 14.3673 12.0049 13.8559 12.3406 13.416C12.6763 12.976 13.109 12.6195 13.6049 12.3739C14.1008 12.1283 14.6466 12.0004 15.2 12ZM15.2 13.8C14.7226 13.8 14.2648 13.9896 13.9272 14.3272C13.5897 14.6648 13.4 15.1226 13.4 15.6C13.4 16.0774 13.5897 16.5352 13.9272 16.8728C14.2648 17.2104 14.7226 17.4 15.2 17.4C15.6774 17.4 16.1352 17.2104 16.4728 16.8728C16.8104 16.5352 17 16.0774 17 15.6C17 15.1226 16.8104 14.6648 16.4728 14.3272C16.1352 13.9896 15.6774 13.8 15.2 13.8Z" fill="#0A0D14" style="fill:#0A0D14;fill:color(display-p3 0.0392 0.0510 0.0784);fill-opacity:1;"/>
</svg>
