<svg width="25" height="24" viewBox="0 0 25 24" fill="none" xmlns="http://www.w3.org/2000/svg">
<path d="M15.0227 4.79844C14.4277 5.82798 14.1893 7.02511 14.3442 8.20405C14.4992 9.38299 15.039 10.4778 15.8798 11.3186C16.7206 12.1594 17.8154 12.6992 18.9944 12.8542C20.1733 13.0092 21.3704 12.7707 22.4 12.1757V18.2984C22.4 18.7961 22.004 19.1993 21.4982 19.1993H3.50178C3.38336 19.1996 3.26606 19.1764 3.1566 19.1313C3.04714 19.0861 2.94767 19.0197 2.8639 18.9361C2.78012 18.8524 2.71369 18.753 2.6684 18.6435C2.62311 18.5341 2.59986 18.4169 2.59998 18.2984V5.69844C2.59998 5.20164 2.99598 4.79844 3.50178 4.79844H15.0218H15.0227ZM19.7 11.0984C18.7452 11.0984 17.8295 10.7192 17.1544 10.044C16.4793 9.36889 16.1 8.45322 16.1 7.49844C16.1 6.54366 16.4793 5.62798 17.1544 4.95285C17.8295 4.27772 18.7452 3.89844 19.7 3.89844C20.6548 3.89844 21.5704 4.27772 22.2456 4.95285C22.9207 5.62798 23.3 6.54366 23.3 7.49844C23.3 8.45322 22.9207 9.36889 22.2456 10.044C21.5704 10.7192 20.6548 11.0984 19.7 11.0984ZM19.7 9.29844C20.1774 9.29844 20.6352 9.1088 20.9728 8.77123C21.3103 8.43366 21.5 7.97583 21.5 7.49844C21.5 7.02105 21.3103 6.56321 20.9728 6.22565C20.6352 5.88808 20.1774 5.69844 19.7 5.69844C19.2226 5.69844 18.7647 5.88808 18.4272 6.22565C18.0896 6.56321 17.9 7.02105 17.9 7.49844C17.9 7.97583 18.0896 8.43366 18.4272 8.77123C18.7647 9.1088 19.2226 9.29844 19.7 9.29844ZM18.8 14.6984V17.3984H20.6V14.6984H18.8Z" fill="#0A0D14" style="fill:#0A0D14;fill:color(display-p3 0.0392 0.0510 0.0784);fill-opacity:1;"/>
</svg>
