<svg width="25" height="24" viewBox="0 0 25 24" fill="none" xmlns="http://www.w3.org/2000/svg">
<path d="M20.6 15.9784V19.1608C20.6001 19.3886 20.5138 19.6081 20.3584 19.7748C20.2031 19.9415 19.9903 20.043 19.763 20.059C19.3697 20.086 19.0484 20.1004 18.8 20.1004C10.8467 20.1004 4.39999 13.6537 4.39999 5.70039C4.39999 5.45199 4.41349 5.13069 4.44139 4.73739C4.45734 4.51009 4.55892 4.2973 4.72562 4.14196C4.89232 3.98662 5.11173 3.90029 5.33959 3.90039H8.52199C8.63363 3.90028 8.74132 3.94166 8.82415 4.01651C8.90698 4.09135 8.95903 4.19432 8.97019 4.30539C8.99089 4.51239 9.00979 4.67709 9.02779 4.80219C9.20665 6.05042 9.5732 7.26444 10.115 8.40309C10.2005 8.58309 10.1447 8.79819 9.98269 8.91339L8.04049 10.3012C9.228 13.0682 11.4331 15.2733 14.2001 16.4608L15.5861 14.5222C15.6427 14.443 15.7254 14.3862 15.8196 14.3617C15.9139 14.3372 16.0137 14.3465 16.1018 14.3881C17.2403 14.9289 18.454 15.2945 19.7018 15.4726C19.8269 15.4906 19.9916 15.5104 20.1968 15.5302C20.3077 15.5416 20.4104 15.5937 20.4851 15.6765C20.5598 15.7593 20.601 15.8669 20.6009 15.9784H20.6Z" fill="#0A0D14" style="fill:#0A0D14;fill:color(display-p3 0.0392 0.0510 0.0784);fill-opacity:1;"/>
</svg>
