<svg width="25" height="24" viewBox="0 0 25 24" fill="none" xmlns="http://www.w3.org/2000/svg">
<path d="M10.1294 10.8142C10.9739 12.2978 12.2026 13.5265 13.6862 14.371L14.4818 13.2568C14.6097 13.0776 14.7989 12.9516 15.0135 12.9025C15.2281 12.8534 15.4533 12.8847 15.6464 12.9904C16.9193 13.686 18.325 14.1044 19.7711 14.218C19.9968 14.2359 20.2075 14.3382 20.3611 14.5045C20.5147 14.6708 20.6 14.8889 20.6 15.1153V19.1311C20.6 19.3539 20.5174 19.5689 20.3681 19.7343C20.2188 19.8997 20.0135 20.0039 19.7918 20.0266C19.3148 20.0761 18.8342 20.1004 18.35 20.1004C10.646 20.1004 4.39999 13.8544 4.39999 6.15039C4.39999 5.66619 4.42429 5.18559 4.47379 4.70859C4.49652 4.48692 4.60068 4.28156 4.7661 4.13226C4.93153 3.98296 5.14646 3.90034 5.36929 3.90039H9.38509C9.6115 3.90036 9.8296 3.98567 9.99591 4.1393C10.1622 4.29293 10.2645 4.50359 10.2824 4.72929C10.396 6.1754 10.8144 7.5811 11.51 8.85399C11.6157 9.0471 11.647 9.27226 11.5979 9.48687C11.5488 9.70148 11.4228 9.89065 11.2436 10.0186L10.1294 10.8142ZM7.85959 10.2229L9.56959 9.00159C9.0843 7.95408 8.75181 6.84235 8.58229 5.70039H6.20899C6.20359 5.84979 6.20089 6.00009 6.20089 6.15039C6.19999 12.8608 11.6396 18.3004 18.35 18.3004C18.5003 18.3004 18.6506 18.2977 18.8 18.2914V15.9181C17.658 15.7486 16.5463 15.4161 15.4988 14.9308L14.2775 16.6408C13.7858 16.4497 13.3082 16.2242 12.8483 15.9658L12.7961 15.9361C11.0308 14.9314 9.56895 13.4696 8.56429 11.7043L8.53459 11.6521C8.27621 11.1922 8.05065 10.7146 7.85959 10.2229Z" fill="#0A0D14" style="fill:#0A0D14;fill:color(display-p3 0.0392 0.0510 0.0784);fill-opacity:1;"/>
</svg>
