<svg width="25" height="24" viewBox="0 0 25 24" fill="none" xmlns="http://www.w3.org/2000/svg">
<path d="M20.6 3.89844C20.8387 3.89844 21.0676 3.99326 21.2364 4.16204C21.4052 4.33082 21.5 4.55974 21.5 4.79844V11.0984H19.7V5.69844H5.3V18.2984H10.7V20.0984H4.4C4.16131 20.0984 3.93239 20.0036 3.7636 19.8348C3.59482 19.6661 3.5 19.4371 3.5 19.1984V4.79844C3.5 4.55974 3.59482 4.33082 3.7636 4.16204C3.93239 3.99326 4.16131 3.89844 4.4 3.89844H20.6ZM20.6 12.8984C20.8387 12.8984 21.0676 12.9933 21.2364 13.162C21.4052 13.3308 21.5 13.5597 21.5 13.7984V19.1984C21.5 19.4371 21.4052 19.6661 21.2364 19.8348C21.0676 20.0036 20.8387 20.0984 20.6 20.0984H13.4C13.1613 20.0984 12.9324 20.0036 12.7636 19.8348C12.5948 19.6661 12.5 19.4371 12.5 19.1984V13.7984C12.5 13.5597 12.5948 13.3308 12.7636 13.162C12.9324 12.9933 13.1613 12.8984 13.4 12.8984H20.6ZM7.7363 6.86214L9.7613 8.88714L11.6 7.04844V11.9984H6.65L8.4887 10.1597L6.4637 8.13474L7.7363 6.86214Z" fill="#0A0D14" style="fill:#0A0D14;fill:color(display-p3 0.0392 0.0510 0.0784);fill-opacity:1;"/>
</svg>
