<svg width="25" height="24" viewBox="0 0 25 24" fill="none" xmlns="http://www.w3.org/2000/svg">
<path d="M12.5 21C7.5293 21 3.5 16.9707 3.5 12C3.5 7.9698 6.1487 4.5588 9.8 3.4122V5.3238C8.25283 5.95204 6.97202 7.09834 6.17665 8.5666C5.38129 10.0349 5.12079 11.7339 5.43973 13.373C5.75866 15.0121 6.63721 16.4895 7.92509 17.5524C9.21297 18.6153 10.8301 19.1977 12.5 19.2C13.9344 19.2 15.3361 18.7716 16.5256 17.9699C17.715 17.1682 18.638 16.0296 19.1762 14.7H21.0878C19.9412 18.3513 16.5302 21 12.5 21ZM21.455 12.9H11.6V3.045C11.8961 3.0153 12.1967 3 12.5 3C17.4707 3 21.5 7.0293 21.5 12C21.5 12.3033 21.4847 12.6039 21.455 12.9ZM13.4 4.8558V11.1H19.6442C19.4439 9.51385 18.7216 8.0394 17.5911 6.90891C16.4606 5.77842 14.9862 5.05613 13.4 4.8558Z" fill="#0A0D14" style="fill:#0A0D14;fill:color(display-p3 0.0392 0.0510 0.0784);fill-opacity:1;"/>
</svg>
