<svg width="25" height="24" viewBox="0 0 25 24" fill="none" xmlns="http://www.w3.org/2000/svg">
<path d="M4.4 3.8999H20.6C20.8387 3.8999 21.0676 3.99472 21.2364 4.16351C21.4052 4.33229 21.5 4.56121 21.5 4.7999V19.1999C21.5 19.4386 21.4052 19.6675 21.2364 19.8363C21.0676 20.0051 20.8387 20.0999 20.6 20.0999H4.4C4.16131 20.0999 3.93239 20.0051 3.7636 19.8363C3.59482 19.6675 3.5 19.4386 3.5 19.1999V4.7999C3.5 4.56121 3.59482 4.33229 3.7636 4.16351C3.93239 3.99472 4.16131 3.8999 4.4 3.8999ZM16.91 12.8999H11.6V7.5899C10.5098 7.81573 9.54193 8.43754 8.88336 9.33524C8.22479 10.2329 7.92223 11.3428 8.03412 12.4505C8.14601 13.5583 8.66441 14.5852 9.4892 15.3331C10.314 16.081 11.3866 16.4967 12.5 16.4999C13.5373 16.4998 14.5427 16.1414 15.3463 15.4855C16.1498 14.8295 16.7022 13.9162 16.91 12.8999ZM16.91 11.0999C16.733 10.2354 16.306 9.4419 15.682 8.81792C15.058 8.19393 14.2645 7.76693 13.4 7.5899V11.0999H16.91Z" fill="#0A0D14" style="fill:#0A0D14;fill:color(display-p3 0.0392 0.0510 0.0784);fill-opacity:1;"/>
</svg>
