<svg width="25" height="24" viewBox="0 0 25 24" fill="none" xmlns="http://www.w3.org/2000/svg">
<path d="M4.4 3.8999H20.6C20.8387 3.8999 21.0676 3.99472 21.2364 4.16351C21.4052 4.33229 21.5 4.56121 21.5 4.7999V19.1999C21.5 19.4386 21.4052 19.6675 21.2364 19.8363C21.0676 20.0051 20.8387 20.0999 20.6 20.0999H4.4C4.16131 20.0999 3.93239 20.0051 3.7636 19.8363C3.59482 19.6675 3.5 19.4386 3.5 19.1999V4.7999C3.5 4.56121 3.59482 4.33229 3.7636 4.16351C3.93239 3.99472 4.16131 3.8999 4.4 3.8999ZM5.3 5.6999V18.2999H19.7V5.6999H5.3ZM16.91 12.8999C16.6842 13.9901 16.0624 14.958 15.1647 15.6165C14.267 16.2751 13.1571 16.5777 12.0494 16.4658C10.9416 16.3539 9.91467 15.8355 9.16681 15.0107C8.41895 14.1859 8.00325 13.1133 8 11.9999C8.00013 10.9626 8.35847 9.95718 9.01443 9.15362C9.67039 8.35007 10.5837 7.79769 11.6 7.5899V12.8999H16.91ZM16.91 11.0999H13.4V7.5899C14.2645 7.76693 15.058 8.19393 15.682 8.81792C16.306 9.4419 16.733 10.2354 16.91 11.0999Z" fill="#0A0D14" style="fill:#0A0D14;fill:color(display-p3 0.0392 0.0510 0.0784);fill-opacity:1;"/>
</svg>
