<svg width="25" height="24" viewBox="0 0 25 24" fill="none" xmlns="http://www.w3.org/2000/svg">
<path d="M11.951 10.5509L8.45 14.0492L4.949 10.5509C4.25696 9.85856 3.78575 8.97655 3.59495 8.01641C3.40414 7.05626 3.5023 6.0611 3.87702 5.15674C4.25174 4.25238 4.8862 3.47944 5.70017 2.93563C6.51414 2.39182 7.47108 2.10156 8.45 2.10156C9.42892 2.10156 10.3859 2.39182 11.1998 2.93563C12.0138 3.47944 12.6483 4.25238 13.023 5.15674C13.3977 6.0611 13.4959 7.05626 13.3051 8.01641C13.1143 8.97655 12.643 9.85856 11.951 10.5509ZM8.45 8.84992C8.92739 8.84992 9.38523 8.66028 9.72279 8.32271C10.0604 7.98515 10.25 7.52731 10.25 7.04992C10.25 6.57253 10.0604 6.11469 9.72279 5.77713C9.38523 5.43956 8.92739 5.24992 8.45 5.24992C7.97261 5.24992 7.51477 5.43956 7.17721 5.77713C6.83964 6.11469 6.65 6.57253 6.65 7.04992C6.65 7.52731 6.83964 7.98515 7.17721 8.32271C7.51477 8.66028 7.97261 8.84992 8.45 8.84992ZM20.051 18.6509L16.55 22.1501L13.049 18.65C12.357 17.9577 11.8858 17.0756 11.6949 16.1155C11.5041 15.1554 11.6023 14.1602 11.977 13.2558C12.3517 12.3515 12.9862 11.5785 13.8002 11.0347C14.6141 10.4909 15.5711 10.2007 16.55 10.2007C17.5289 10.2007 18.4859 10.4909 19.2998 11.0347C20.1138 11.5785 20.7483 12.3515 21.123 13.2558C21.4977 14.1602 21.5959 15.1554 21.4051 16.1155C21.2142 17.0756 20.743 17.9577 20.051 18.65V18.6509ZM16.55 16.9499C17.0274 16.9499 17.4852 16.7603 17.8228 16.4227C18.1604 16.0851 18.35 15.6273 18.35 15.1499C18.35 14.6725 18.1604 14.2147 17.8228 13.8771C17.4852 13.5396 17.0274 13.3499 16.55 13.3499C16.0726 13.3499 15.6148 13.5396 15.2772 13.8771C14.9396 14.2147 14.75 14.6725 14.75 15.1499C14.75 15.6273 14.9396 16.0851 15.2772 16.4227C15.6148 16.7603 16.0726 16.9499 16.55 16.9499Z" fill="#0A0D14" style="fill:#0A0D14;fill:color(display-p3 0.0392 0.0510 0.0784);fill-opacity:1;"/>
</svg>
