<svg width="25" height="24" viewBox="0 0 25 24" fill="none" xmlns="http://www.w3.org/2000/svg">
<path d="M10.6775 9.27742C11.118 8.83687 11.418 8.27559 11.5395 7.66456C11.661 7.05353 11.5986 6.42019 11.3602 5.84462C11.1218 5.26905 10.718 4.77711 10.2 4.431C9.68201 4.08488 9.073 3.90015 8.45 3.90015C7.827 3.90015 7.218 4.08488 6.69999 4.431C6.18198 4.77711 5.77824 5.26905 5.53981 5.84462C5.30139 6.42019 5.23899 7.05353 5.36051 7.66456C5.48202 8.27559 5.782 8.83687 6.2225 9.27742L8.45 11.5049L10.6775 9.27742ZM8.45 14.0501L4.949 10.5509C4.25696 9.85856 3.78575 8.97655 3.59495 8.01641C3.40414 7.05626 3.5023 6.0611 3.87702 5.15674C4.25174 4.25238 4.8862 3.47944 5.70017 2.93563C6.51414 2.39182 7.47108 2.10156 8.45 2.10156C9.42892 2.10156 10.3859 2.39182 11.1998 2.93563C12.0138 3.47944 12.6483 4.25238 13.023 5.15674C13.3977 6.0611 13.4959 7.05626 13.3051 8.01641C13.1143 8.97655 12.643 9.85856 11.951 10.5509L8.45 14.0519V14.0501ZM8.45 8.39992C8.09196 8.39992 7.74858 8.25769 7.49541 8.00451C7.24223 7.75134 7.1 7.40796 7.1 7.04992C7.1 6.69188 7.24223 6.3485 7.49541 6.09533C7.74858 5.84215 8.09196 5.69992 8.45 5.69992C8.80804 5.69992 9.15142 5.84215 9.4046 6.09533C9.65777 6.3485 9.8 6.69188 9.8 7.04992C9.8 7.40796 9.65777 7.75134 9.4046 8.00451C9.15142 8.25769 8.80804 8.39992 8.45 8.39992ZM16.55 19.6049L18.7775 17.3774C19.218 16.9369 19.518 16.3756 19.6395 15.7646C19.761 15.1535 19.6986 14.5202 19.4602 13.9446C19.2218 13.3691 18.818 12.8771 18.3 12.531C17.782 12.1849 17.173 12.0001 16.55 12.0001C15.927 12.0001 15.318 12.1849 14.8 12.531C14.282 12.8771 13.8782 13.3691 13.6398 13.9446C13.4014 14.5202 13.339 15.1535 13.4605 15.7646C13.582 16.3756 13.882 16.9369 14.3225 17.3774L16.55 19.6049ZM20.051 18.6509L16.55 22.1501L13.049 18.65C12.357 17.9577 11.8858 17.0756 11.6949 16.1155C11.5041 15.1554 11.6023 14.1602 11.977 13.2558C12.3517 12.3515 12.9862 11.5785 13.8002 11.0347C14.6141 10.4909 15.5711 10.2007 16.55 10.2007C17.5289 10.2007 18.4859 10.4909 19.2998 11.0347C20.1138 11.5785 20.7483 12.3515 21.123 13.2558C21.4977 14.1602 21.5959 15.1554 21.4051 16.1155C21.2142 17.0756 20.743 17.9577 20.051 18.65V18.6509ZM16.55 16.4999C16.192 16.4999 15.8486 16.3577 15.5954 16.1045C15.3422 15.8513 15.2 15.508 15.2 15.1499C15.2 14.7919 15.3422 14.4485 15.5954 14.1953C15.8486 13.9422 16.192 13.7999 16.55 13.7999C16.908 13.7999 17.2514 13.9422 17.5046 14.1953C17.7578 14.4485 17.9 14.7919 17.9 15.1499C17.9 15.508 17.7578 15.8513 17.5046 16.1045C17.2514 16.3577 16.908 16.4999 16.55 16.4999Z" fill="#0A0D14" style="fill:#0A0D14;fill:color(display-p3 0.0392 0.0510 0.0784);fill-opacity:1;"/>
</svg>
