<svg width="25" height="24" viewBox="0 0 25 24" fill="none" xmlns="http://www.w3.org/2000/svg">
<path d="M12.05 3C14.3176 3 16.4923 3.9008 18.0958 5.50424C19.6992 7.10767 20.6 9.2824 20.6 11.55C20.6021 12.8792 20.2929 14.1904 19.6973 15.3786L21.914 17.5962C22.0827 17.765 22.1775 17.9939 22.1775 18.2325C22.1775 18.4711 22.0827 18.7 21.914 18.8688L19.3688 21.414C19.2 21.5827 18.9711 21.6775 18.7325 21.6775C18.4939 21.6775 18.265 21.5827 18.0962 21.414L15.8786 19.1973C14.6904 19.7929 13.3792 20.1021 12.05 20.1C9.7824 20.1 7.60767 19.1992 6.00424 17.5958C4.4008 15.9923 3.5 13.8176 3.5 11.55C3.5 9.2824 4.4008 7.10767 6.00424 5.50424C7.60767 3.9008 9.7824 3 12.05 3ZM16.8227 15.0492L15.5501 16.3218L18.7325 19.5033L20.0051 18.2307L16.8227 15.0492ZM18.5003 9.5547L10.0547 18.0003C10.6847 18.1947 11.3552 18.3 12.05 18.3C12.8938 18.3011 13.7304 18.1436 14.516 17.8356L13.6412 16.959C13.4725 16.7902 13.3777 16.5613 13.3777 16.3227C13.3777 16.0841 13.4725 15.8552 13.6412 15.6864L16.1864 13.1412C16.3552 12.9725 16.5841 12.8777 16.8227 12.8777C17.0613 12.8777 17.2902 12.9725 17.459 13.1412L18.3356 14.016C18.6436 13.2304 18.8011 12.3938 18.8 11.55C18.8 10.8552 18.6947 10.1856 18.5003 9.5547Z" fill="#0A0D14" style="fill:#0A0D14;fill:color(display-p3 0.0392 0.0510 0.0784);fill-opacity:1;"/>
</svg>
