<svg width="25" height="24" viewBox="0 0 25 24" fill="none" xmlns="http://www.w3.org/2000/svg">
<path d="M13.733 3.08401C11.5795 2.78778 9.39161 3.28071 7.57323 4.47177C5.75486 5.66284 4.42883 7.4716 3.84001 9.56407C3.25119 11.6565 3.43934 13.8914 4.36972 15.856C5.30009 17.8205 6.90987 19.3821 8.90179 20.2524C8.84792 19.561 8.89736 18.8655 9.04849 18.1887C9.21499 17.4336 10.2149 13.272 10.2149 13.272C10.0158 12.8257 9.91627 12.3414 9.92329 11.8527C9.92329 10.5162 10.6946 9.51901 11.654 9.51901C11.8263 9.5165 11.9972 9.55114 12.155 9.62056C12.3128 9.68998 12.4537 9.79256 12.5683 9.92133C12.6829 10.0501 12.7685 10.202 12.8191 10.3668C12.8697 10.5316 12.8843 10.7053 12.8618 10.8762C12.8618 11.6862 12.3416 12.912 12.0698 14.0622C12.0161 14.2732 12.0127 14.4938 12.0598 14.7063C12.107 14.9188 12.2034 15.1172 12.3414 15.2856C12.4793 15.454 12.6549 15.5877 12.8539 15.6758C13.0529 15.7639 13.2699 15.804 13.4873 15.7929C15.1955 15.7929 16.3403 13.605 16.3403 11.022C16.3403 9.04201 15.029 7.55881 12.6116 7.55881C12.0332 7.53634 11.4563 7.63164 10.9159 7.83894C10.3755 8.04624 9.88289 8.3612 9.46793 8.76471C9.05298 9.16822 8.72436 9.65185 8.50203 10.1862C8.2797 10.7206 8.1683 11.2946 8.17459 11.8734C8.14882 12.5154 8.35594 13.1451 8.75779 13.6464C8.83288 13.7025 8.88771 13.7814 8.914 13.8713C8.9403 13.9613 8.93665 14.0573 8.90359 14.145C8.86219 14.3106 8.75779 14.7057 8.71639 14.8506C8.70778 14.8997 8.68775 14.9462 8.65791 14.9862C8.62807 15.0261 8.58926 15.0586 8.54461 15.0808C8.49995 15.103 8.45069 15.1145 8.40081 15.1142C8.35092 15.1139 8.3018 15.1019 8.25739 15.0792C7.01179 14.5806 6.42499 13.2099 6.42499 11.6448C6.42499 9.08251 8.57059 6.01531 12.8636 6.01531C16.28 6.01531 18.5516 8.51461 18.5516 11.1876C18.5516 14.7057 16.5923 17.3508 13.697 17.3508C13.2643 17.3646 12.835 17.2691 12.449 17.0731C12.0629 16.8771 11.7326 16.5869 11.4884 16.2294C11.4884 16.2294 10.9682 18.3138 10.8656 18.708C10.6562 19.389 10.3471 20.0353 9.94849 20.6259C10.7792 20.8779 11.6423 21.0039 12.5099 21.0003C13.6921 21.0013 14.8629 20.769 15.9552 20.3168C17.0476 19.8647 18.04 19.2015 18.8756 18.3652C19.7113 17.529 20.3738 16.5361 20.8252 15.4434C21.2766 14.3508 21.5081 13.1798 21.5063 11.9976C21.5052 9.82411 20.7177 7.72441 19.2893 6.08621C17.8608 4.44802 15.8879 3.38197 13.7348 3.08491L13.733 3.08401Z" fill="#0A0D14" style="fill:#0A0D14;fill:color(display-p3 0.0392 0.0510 0.0784);fill-opacity:1;"/>
</svg>
