<svg width="25" height="24" viewBox="0 0 25 24" fill="none" xmlns="http://www.w3.org/2000/svg">
<path d="M9.341 18.4719C9.3626 18.1695 9.4058 17.868 9.4706 17.571C9.5273 17.3055 9.6992 16.554 9.9512 15.465L9.9575 15.438L10.3058 13.9368C10.3769 13.6308 10.4318 13.3932 10.4687 13.314C10.2939 12.91 10.2068 12.4735 10.2131 12.0333C10.2131 10.83 10.8935 9.8976 11.7755 9.8976C12.0995 9.8922 12.4091 10.0326 12.6233 10.281C12.8375 10.5285 12.9365 10.8606 12.8951 11.1774C12.8951 11.5851 12.8186 11.8956 12.4874 13.0089C12.4235 13.2231 12.3794 13.3725 12.338 13.5228C12.2921 13.692 12.2525 13.845 12.2192 13.9926C12.1328 14.34 12.212 14.7099 12.4325 14.988C12.5395 15.1239 12.6776 15.2321 12.8352 15.3036C12.9927 15.375 13.1651 15.4075 13.3379 15.3984C14.6807 15.3984 15.6779 13.6119 15.6779 11.3052C15.6779 9.5322 14.5169 8.3586 12.5891 8.3586C12.1065 8.34066 11.6255 8.42306 11.1764 8.6006C10.7273 8.77813 10.3199 9.04693 9.98 9.39C9.63284 9.74058 9.35894 10.1568 9.17429 10.6143C8.98964 11.0718 8.89793 11.5616 8.9045 12.0549C8.88213 12.5866 9.045 13.1095 9.3653 13.5345C9.5282 13.6605 9.5903 13.8792 9.5228 14.0655C9.4859 14.2167 9.3968 14.5623 9.3644 14.6775C9.35501 14.7341 9.33255 14.7877 9.2988 14.8341C9.26505 14.8805 9.22095 14.9184 9.17 14.9448C9.12073 14.9705 9.06604 14.9841 9.01047 14.9844C8.9549 14.9847 8.90006 14.9717 8.8505 14.9466C7.8065 14.5155 7.2341 13.3464 7.2341 11.8506C7.2341 9.1641 9.476 6.825 12.8069 6.825C15.6284 6.825 17.7398 8.9211 17.7398 11.451C17.7398 14.6298 16.001 16.9446 13.5188 16.9446C13.1657 16.9548 12.8152 16.8821 12.4954 16.7322C12.1756 16.5823 11.8954 16.3594 11.6774 16.0815L11.6387 16.2408L11.4524 17.0076L11.4506 17.0139C11.3192 17.5539 11.2274 17.9292 11.1914 18.0705C11.096 18.39 10.9754 18.7032 10.8314 19.0065C12.6223 19.4328 14.5085 19.157 16.1023 18.2356C17.6961 17.3143 18.8764 15.8174 19.4007 14.0527C19.9249 12.288 19.7533 10.3895 18.9211 8.74741C18.0889 7.10531 16.6593 5.84437 14.9261 5.22373C13.193 4.6031 11.2879 4.66993 9.60248 5.41048C7.91706 6.15103 6.57932 7.50905 5.86422 9.20542C5.14911 10.9018 5.11096 12.8077 5.75761 14.5313C6.40425 16.2549 7.68656 17.6654 9.341 18.4728V18.4719ZM12.5 21C7.5293 21 3.5 16.9707 3.5 12C3.5 7.0293 7.5293 3 12.5 3C17.4707 3 21.5 7.0293 21.5 12C21.5 16.9707 17.4707 21 12.5 21Z" fill="#0A0D14" style="fill:#0A0D14;fill:color(display-p3 0.0392 0.0510 0.0784);fill-opacity:1;"/>
</svg>
