<svg width="25" height="24" viewBox="0 0 25 24" fill="none" xmlns="http://www.w3.org/2000/svg">
<path d="M17.8406 3.93279L19.3994 4.83279L18.3779 6.60039H20.6V8.40039H18.8V12.0004H20.6V13.8004H18.8V20.1004H17V13.8004H14.2244C13.9319 16.3762 12.8168 18.655 11.1914 20.2741L9.78562 19.1311C11.1536 17.8369 12.122 15.9613 12.4109 13.8013L10.7 13.8004V12.0004L12.5 11.9995V8.40039H10.7V6.60039H12.9203L11.9006 4.83279L13.4594 3.93279L14.9993 6.60039H16.2989L17.8406 3.93279ZM6.20002 13.6231L4.40002 14.1055V12.2416L6.20002 11.7592V8.40039H4.40002V6.60039H6.20002V3.90039H8.00002V6.60039H9.80002V8.40039H8.00002V11.2777L9.80002 10.7953V12.6583L8.00002 13.1407V17.8504C8.00002 18.1459 7.94183 18.4384 7.82875 18.7114C7.71568 18.9844 7.54995 19.2324 7.34101 19.4414C7.13208 19.6503 6.88404 19.816 6.61106 19.9291C6.33808 20.0422 6.0455 20.1004 5.75002 20.1004H4.40002V18.3004H5.75002C5.85535 18.3004 5.95735 18.2635 6.03826 18.1961C6.11917 18.1287 6.17387 18.035 6.19282 17.9314L6.20002 17.8504V13.6231ZM17 8.40039H14.3V12.0004H17V8.40039Z" fill="#0A0D14" style="fill:#0A0D14;fill:color(display-p3 0.0392 0.0510 0.0784);fill-opacity:1;"/>
</svg>
