<svg width="25" height="24" viewBox="0 0 25 24" fill="none" xmlns="http://www.w3.org/2000/svg">
<path d="M12.5 3C17.4707 3 21.5 7.0293 21.5 12C21.5 16.9707 17.4707 21 12.5 21C7.5293 21 3.5 16.9707 3.5 12C3.5 7.0293 7.5293 3 12.5 3ZM12.5 4.8C8.5238 4.8 5.3 8.0238 5.3 12C5.3 15.9762 8.5238 19.2 12.5 19.2C16.4762 19.2 19.7 15.9762 19.7 12C19.7 8.0238 16.4762 4.8 12.5 4.8ZM13.4279 8.4891C14.9696 8.4891 16.2188 9.6996 16.2188 11.1936C16.2188 12.6876 14.9696 13.8981 13.4288 13.8981H11.7917L9.4562 16.122V10.0488C9.4562 9.1875 10.1771 8.4891 11.0672 8.4891H13.4279Z" fill="#0A0D14" style="fill:#0A0D14;fill:color(display-p3 0.0392 0.0510 0.0784);fill-opacity:1;"/>
</svg>
