<svg width="25" height="24" viewBox="0 0 25 24" fill="none" xmlns="http://www.w3.org/2000/svg">
<path d="M7.1 3C9.521 3 11.6216 4.3653 12.6773 6.3669C13.7366 4.8747 15.479 3.9 17.45 3.9H20.6V6.15C20.6 9.381 17.981 12 14.75 12H13.4V12.9H17.9V19.2C17.9 20.1945 17.0945 21 16.1 21H8.9C7.9055 21 7.1 20.1945 7.1 19.2V12.9H11.6V11.1H9.8C6.3206 11.1 3.5 8.2794 3.5 4.8V3H7.1ZM16.1 14.7H8.9V19.2H16.1V14.7ZM18.8 5.7H17.45C15.2135 5.7 13.4 7.5135 13.4 9.75V10.2H14.75C16.9865 10.2 18.8 8.3865 18.8 6.15V5.7ZM7.1 4.8H5.3C5.3 7.2849 7.3151 9.3 9.8 9.3H11.6C11.6 6.8151 9.5849 4.8 7.1 4.8Z" fill="#0A0D14" style="fill:#0A0D14;fill:color(display-p3 0.0392 0.0510 0.0784);fill-opacity:1;"/>
</svg>
