<svg width="25" height="24" viewBox="0 0 25 24" fill="none" xmlns="http://www.w3.org/2000/svg">
<path d="M7.49183 7.47445C7.56775 7.39059 7.64615 7.30816 7.72703 7.22727C8.08959 6.86472 8.48313 6.55203 8.89912 6.2892C8.66367 6.22431 8.45205 6.18587 8.26656 6.17188C7.83731 6.1395 7.64932 6.24144 7.56915 6.32161C7.48897 6.40179 7.38704 6.58977 7.41942 7.01902C7.4298 7.15674 7.45367 7.30887 7.49183 7.47445ZM19.0443 13.6583C19.0905 13.7505 19.1347 13.842 19.1771 13.9327C19.5345 14.6985 19.7706 15.4461 19.8212 16.118C19.8717 16.7867 19.742 17.4833 19.2364 17.9889C18.7308 18.4944 18.0342 18.6241 17.3655 18.5737C16.7801 18.5295 16.1373 18.3446 15.4749 18.0614L15.473 18.0623C15.3582 18.0132 15.2427 17.9611 15.1269 17.9062C13.6021 17.1845 11.8576 15.9156 10.2199 14.2779C8.58391 12.642 7.31605 10.8993 6.5939 9.37581C6.53883 9.25962 6.48654 9.14387 6.43722 9.02873L6.438 9.02712C6.15361 8.36315 5.96793 7.71867 5.92366 7.13184C5.87322 6.46311 6.00288 5.76656 6.50849 5.26095C7.0141 4.75534 7.71064 4.62569 8.37937 4.67613C9.0513 4.7268 9.7988 4.9629 10.5646 5.32027C10.6569 5.36334 10.75 5.40843 10.8439 5.4555C13.0717 4.89399 15.5303 5.48457 17.273 7.22727C19.0161 8.97048 19.6066 11.4299 19.0443 13.6583ZM18.2096 15.6034C17.947 16.0185 17.6349 16.4113 17.273 16.7732C17.1927 16.8534 17.1109 16.9313 17.0278 17.0067C17.1915 17.0442 17.342 17.0676 17.4783 17.0779C17.9076 17.1103 18.0956 17.0084 18.1758 16.9282C18.2559 16.848 18.3579 16.66 18.3255 16.2308C18.3116 16.0467 18.2737 15.8368 18.2096 15.6034ZM7.72703 16.7732C6.02931 15.0755 5.42499 12.6984 5.91408 10.5171C6.72579 12.0027 7.9428 13.5918 9.42443 15.0735C10.9072 16.5562 12.4978 17.7741 13.9845 18.5859C11.8029 19.0755 9.42511 18.4713 7.72703 16.7732Z" fill="#0A0D14" style="fill:#0A0D14;fill:color(display-p3 0.0392 0.0510 0.0784);fill-opacity:1;"/>
</svg>
