<svg width="25" height="24" viewBox="0 0 25 24" fill="none" xmlns="http://www.w3.org/2000/svg">
<path d="M20.6 3.9V5.7C20.6 9.1794 17.7794 12 14.3 12H13.4V12.9H17.9V19.2C17.9 20.1945 17.0945 21 16.1 21H8.9C7.9055 21 7.1 20.1945 7.1 19.2V12.9H11.6V10.2C11.6 6.7206 14.4206 3.9 17.9 3.9H20.6ZM6.65 3C8.9261 3 10.9385 4.1259 12.1616 5.8521C11.2436 7.059 10.7 8.5665 10.7 10.2V11.1H10.25C6.5222 11.1 3.5 8.0778 3.5 4.35V3H6.65Z" fill="#0A0D14" style="fill:#0A0D14;fill:color(display-p3 0.0392 0.0510 0.0784);fill-opacity:1;"/>
</svg>
