<svg width="25" height="24" viewBox="0 0 25 24" fill="none" xmlns="http://www.w3.org/2000/svg">
<path d="M6.43821 9.02757C5.99738 9.92508 5.75 10.9345 5.75 12C5.75 15.7279 8.77208 18.75 12.5 18.75C13.5662 18.75 14.5763 18.5023 15.4743 18.0609C16.1289 18.3409 16.7636 18.5244 17.3423 18.5716C18.0187 18.6268 18.725 18.5 19.2364 17.9886C19.8004 17.4245 19.8969 16.6268 19.7959 15.8796C19.7039 15.198 19.4361 14.4404 19.0445 13.6587C19.1788 13.1274 19.25 12.5715 19.25 12C19.25 8.27209 16.228 5.25002 12.5 5.25002C11.9292 5.25002 11.374 5.32103 10.8433 5.45501C10.0605 5.06247 9.30204 4.79391 8.61958 4.70138C7.87173 4.59999 7.07305 4.69608 6.50841 5.26072C5.99652 5.7726 5.87001 6.47979 5.92558 7.15687C5.97314 7.73637 6.15735 8.37198 6.43821 9.02757ZM7.4918 7.47443C7.45505 7.31503 7.43153 7.16799 7.42055 7.03417C7.38446 6.59445 7.48795 6.40249 7.56907 6.32138C7.65839 6.23206 7.88598 6.11565 8.41804 6.18778C8.56612 6.20786 8.72713 6.24154 8.9 6.28923C8.37773 6.61908 7.90402 7.0185 7.4918 7.47443ZM18.2093 15.6024C18.2563 15.7738 18.2896 15.9335 18.3094 16.0804C18.3812 16.6115 18.2649 16.8387 18.1757 16.928C18.0946 17.009 17.903 17.1123 17.4642 17.0766C17.3314 17.0658 17.1856 17.0426 17.0276 17.0064C17.482 16.5952 17.8802 16.1229 18.2093 15.6024ZM15.4109 16.3699C14.1535 15.7113 12.6928 14.6271 11.2814 13.2156C9.87155 11.8059 8.78819 10.3468 8.12931 9.09033C8.79768 8.08861 9.80093 7.32996 10.977 6.97412C11.4581 6.82855 11.9692 6.75002 12.5 6.75002C15.3995 6.75002 17.75 9.10052 17.75 12C17.75 12.5313 17.6713 13.0429 17.5254 13.5245C17.1696 14.6994 16.4116 15.7018 15.4109 16.3699ZM13.7039 17.1115C13.3176 17.202 12.9146 17.25 12.5 17.25C9.60051 17.25 7.25 14.8995 7.25 12C7.25 11.5858 7.29783 11.1833 7.38822 10.7973C8.11162 11.9349 9.07606 13.1316 10.2207 14.2763C11.3668 15.4224 12.5651 16.3878 13.7039 17.1115Z" fill="#0A0D14" style="fill:#0A0D14;fill:color(display-p3 0.0392 0.0510 0.0784);fill-opacity:1;"/>
</svg>
