<svg width="25" height="24" viewBox="0 0 25 24" fill="none" xmlns="http://www.w3.org/2000/svg">
<path d="M9.80001 8.83519V15.1676L15.227 12.0014L9.80001 8.83519ZM8.67681 6.09739L18.134 11.6144C18.2018 11.6541 18.258 11.7108 18.2971 11.7789C18.3361 11.847 18.3567 11.9242 18.3567 12.0027C18.3567 12.0813 18.3361 12.1584 18.2971 12.2266C18.258 12.2947 18.2018 12.3514 18.134 12.3911L8.67681 17.9081C8.60822 17.9481 8.53027 17.9693 8.45086 17.9694C8.37145 17.9696 8.29341 17.9487 8.22468 17.909C8.15594 17.8692 8.09895 17.8119 8.05949 17.743C8.02003 17.6741 7.99951 17.596 8.00001 17.5166V6.48529C7.99999 6.40611 8.02085 6.32833 8.06051 6.25979C8.10016 6.19126 8.1572 6.1344 8.22585 6.09496C8.29451 6.05552 8.37236 6.03489 8.45154 6.03516C8.53072 6.03543 8.60842 6.05658 8.67681 6.09649V6.09739Z" fill="#0A0D14" style="fill:#0A0D14;fill:color(display-p3 0.0392 0.0510 0.0784);fill-opacity:1;"/>
</svg>
