<svg width="25" height="24" viewBox="0 0 25 24" fill="none" xmlns="http://www.w3.org/2000/svg">
<path d="M3.5 17.4008H12.5V19.2008H3.5V17.4008ZM3.5 11.1008H16.1V12.9008H3.5V11.1008ZM3.5 4.80078H21.5V6.60078H3.5V4.80078ZM18.8 14.8538V9.30078H23.3V11.1008H20.6V17.4008C20.5997 17.9739 20.4171 18.532 20.0785 18.9944C19.74 19.4568 19.2631 19.7995 18.7168 19.9728C18.1706 20.1462 17.5834 20.1413 17.0401 19.9588C16.4969 19.7763 16.0258 19.4256 15.6951 18.9576C15.3643 18.4896 15.191 17.9285 15.2004 17.3555C15.2097 16.7825 15.4011 16.2273 15.7468 15.7703C16.0926 15.3133 16.5748 14.9781 17.1237 14.8134C17.6726 14.6486 18.2597 14.6628 18.8 14.8538Z" fill="#0A0D14" style="fill:#0A0D14;fill:color(display-p3 0.0392 0.0510 0.0784);fill-opacity:1;"/>
</svg>
