<svg width="25" height="24" viewBox="0 0 25 24" fill="none" xmlns="http://www.w3.org/2000/svg">
<path d="M12.5 21C7.5293 21 3.5 16.9707 3.5 12C3.5 7.0293 7.5293 3 12.5 3C17.4707 3 21.5 7.0293 21.5 12C21.5 16.9707 17.4707 21 12.5 21ZM11.2598 8.7735C11.2056 8.73736 11.1427 8.71659 11.0776 8.7134C11.0126 8.71021 10.9479 8.72471 10.8905 8.75537C10.833 8.78604 10.785 8.8317 10.7514 8.88751C10.7179 8.94332 10.7001 9.00719 10.7 9.0723V14.9277C10.7001 14.9928 10.7179 15.0567 10.7514 15.1125C10.785 15.1683 10.833 15.214 10.8905 15.2446C10.9479 15.2753 11.0126 15.2898 11.0776 15.2866C11.1427 15.2834 11.2056 15.2626 11.2598 15.2265L15.6509 12.2997C15.7003 12.2668 15.7408 12.2223 15.7688 12.17C15.7968 12.1177 15.8115 12.0593 15.8115 12C15.8115 11.9407 15.7968 11.8823 15.7688 11.83C15.7408 11.7777 15.7003 11.7332 15.6509 11.7003L11.2589 8.7735H11.2598Z" fill="#0A0D14" style="fill:#0A0D14;fill:color(display-p3 0.0392 0.0510 0.0784);fill-opacity:1;"/>
</svg>
