<svg width="25" height="24" viewBox="0 0 25 24" fill="none" xmlns="http://www.w3.org/2000/svg">
<path d="M8.6768 6.09649L18.134 11.6135C18.2018 11.6532 18.258 11.7099 18.297 11.778C18.3361 11.8461 18.3567 11.9233 18.3567 12.0018C18.3567 12.0804 18.3361 12.1575 18.297 12.2257C18.258 12.2938 18.2018 12.3505 18.134 12.3902L8.6768 17.9072C8.60828 17.9472 8.53041 17.9683 8.45108 17.9685C8.37175 17.9687 8.29378 17.9479 8.22507 17.9083C8.15635 17.8686 8.09935 17.8115 8.05982 17.7427C8.0203 17.6739 7.99966 17.5959 8 17.5166V6.48529C7.99998 6.40611 8.02085 6.32833 8.0605 6.25979C8.10016 6.19126 8.15719 6.1344 8.22585 6.09496C8.29451 6.05552 8.37235 6.03489 8.45153 6.03516C8.53071 6.03543 8.60842 6.05658 8.6768 6.09649Z" fill="#0A0D14" style="fill:#0A0D14;fill:color(display-p3 0.0392 0.0510 0.0784);fill-opacity:1;"/>
</svg>
