<svg width="25" height="24" viewBox="0 0 25 24" fill="none" xmlns="http://www.w3.org/2000/svg">
<path d="M19.1384 12.375L9.59932 18.7344C9.53156 18.7795 9.45283 18.8053 9.37153 18.8092C9.29022 18.8131 9.20938 18.7949 9.13762 18.7565C9.06586 18.718 9.00587 18.6609 8.96403 18.5911C8.92219 18.5212 8.90007 18.4414 8.90002 18.36V5.64117C8.90007 5.55978 8.92219 5.47991 8.96403 5.41009C9.00587 5.34027 9.06586 5.28311 9.13762 5.24469C9.20938 5.20627 9.29022 5.18803 9.37153 5.19192C9.45283 5.19581 9.53156 5.22168 9.59932 5.26677L19.1384 11.6262C19.2001 11.6673 19.2506 11.7229 19.2855 11.7883C19.3205 11.8536 19.3388 11.9265 19.3388 12.0006C19.3388 12.0746 19.3205 12.1476 19.2855 12.2129C19.2506 12.2782 19.2001 12.3339 19.1384 12.375Z" fill="#0A0D14" style="fill:#0A0D14;fill:color(display-p3 0.0392 0.0510 0.0784);fill-opacity:1;"/>
</svg>
