<svg width="25" height="24" viewBox="0 0 25 24" fill="none" xmlns="http://www.w3.org/2000/svg">
<path d="M3.5 17.4008H12.5V19.2008H3.5V17.4008ZM3.5 11.1008H16.1V12.9008H3.5V11.1008ZM3.5 4.80078H21.5V6.60078H3.5V4.80078ZM18.8 14.8538V9.30078H23.3V11.1008H20.6V17.4008C20.5997 17.9739 20.4171 18.532 20.0785 18.9944C19.74 19.4568 19.2631 19.7995 18.7168 19.9728C18.1706 20.1462 17.5834 20.1413 17.0401 19.9588C16.4969 19.7763 16.0258 19.4256 15.6951 18.9576C15.3643 18.4896 15.191 17.9285 15.2004 17.3555C15.2097 16.7825 15.4011 16.2273 15.7468 15.7703C16.0926 15.3133 16.5748 14.9781 17.1237 14.8134C17.6726 14.6486 18.2597 14.6628 18.8 14.8538ZM17.9 18.3008C18.1387 18.3008 18.3676 18.206 18.5364 18.0372C18.7052 17.8684 18.8 17.6395 18.8 17.4008C18.8 17.1621 18.7052 16.9332 18.5364 16.7644C18.3676 16.5956 18.1387 16.5008 17.9 16.5008C17.6613 16.5008 17.4324 16.5956 17.2636 16.7644C17.0948 16.9332 17 17.1621 17 17.4008C17 17.6395 17.0948 17.8684 17.2636 18.0372C17.4324 18.206 17.6613 18.3008 17.9 18.3008Z" fill="#0A0D14" style="fill:#0A0D14;fill:color(display-p3 0.0392 0.0510 0.0784);fill-opacity:1;"/>
</svg>
