<svg width="25" height="24" viewBox="0 0 25 24" fill="none" xmlns="http://www.w3.org/2000/svg">
<path d="M22.0256 16.5107C21.6386 16.9994 20.6918 17.3477 20.6918 17.3477L13.6421 19.883V18.0128L18.8297 16.1615C19.4192 15.9509 19.5092 15.6521 19.0304 15.4955C18.5534 15.338 17.6885 15.383 17.099 15.5954L13.643 16.814V14.8745L13.841 14.807C13.841 14.807 14.84 14.4524 16.2449 14.2967C17.6489 14.1419 19.3697 14.3183 20.7197 14.8304C22.2407 15.3119 22.4117 16.0211 22.0256 16.5098V16.5107ZM14.3126 13.3274V8.54658C14.3126 7.98498 14.21 7.46838 13.6835 7.32258C13.2812 7.19298 13.031 7.56738 13.031 8.12808V20.1008L9.80539 19.0757V4.80078C11.177 5.05548 13.175 5.65848 14.2487 6.02028C16.9802 6.95898 17.9063 8.12808 17.9063 10.7606C17.9063 13.3265 16.3241 14.2994 14.3135 13.3274H14.3126ZM3.88789 17.8184C2.32639 17.3774 2.06629 16.4594 2.77819 15.9311C3.43609 15.4433 4.55479 15.0761 4.55479 15.0761L9.17899 13.4291V15.3065L5.85169 16.499C5.26399 16.7096 5.17309 17.0084 5.65099 17.165C6.12889 17.3225 6.99469 17.2775 7.58329 17.066L9.17899 16.4864V18.1649L8.86129 18.2189C7.26469 18.4799 5.56369 18.371 3.88789 17.8184Z" fill="#0A0D14" style="fill:#0A0D14;fill:color(display-p3 0.0392 0.0510 0.0784);fill-opacity:1;"/>
</svg>
