<svg width="25" height="24" viewBox="0 0 25 24" fill="none" xmlns="http://www.w3.org/2000/svg">
<path d="M13.4 17.4V19.2H18.8V21H13.4C12.9227 21 12.4648 20.8104 12.1273 20.4728C11.7897 20.1352 11.6 19.6774 11.6 19.2V17.4H8.90005C7.94527 17.4 7.0296 17.0207 6.35446 16.3456C5.67933 15.6705 5.30005 14.7548 5.30005 13.8V7.5C5.30005 7.2613 5.39487 7.03239 5.56365 6.8636C5.73244 6.69482 5.96135 6.6 6.20005 6.6H8.00005V3H9.80005V6.6H15.2V3H17V6.6H18.8C19.0387 6.6 19.2677 6.69482 19.4364 6.8636C19.6052 7.03239 19.7 7.2613 19.7 7.5V13.8C19.7 14.7548 19.3208 15.6705 18.6456 16.3456C17.9705 17.0207 17.0548 17.4 16.1 17.4H13.4ZM8.90005 15.6H16.1C16.5774 15.6 17.0353 15.4104 17.3728 15.0728C17.7104 14.7352 17.9 14.2774 17.9 13.8V11.1H7.10005V13.8C7.10005 14.2774 7.28969 14.7352 7.62726 15.0728C7.96482 15.4104 8.42266 15.6 8.90005 15.6ZM17.9 8.4H7.10005V9.3H17.9V8.4ZM12.5 14.25C12.2614 14.25 12.0324 14.1552 11.8637 13.9864C11.6949 13.8176 11.6 13.5887 11.6 13.35C11.6 13.1113 11.6949 12.8824 11.8637 12.7136C12.0324 12.5448 12.2614 12.45 12.5 12.45C12.7387 12.45 12.9677 12.5448 13.1364 12.7136C13.3052 12.8824 13.4 13.1113 13.4 13.35C13.4 13.5887 13.3052 13.8176 13.1364 13.9864C12.9677 14.1552 12.7387 14.25 12.5 14.25ZM11.6 3H13.4V5.7H11.6V3Z" fill="#0A0D14" style="fill:#0A0D14;fill:color(display-p3 0.0392 0.0510 0.0784);fill-opacity:1;"/>
</svg>
