<svg width="25" height="24" viewBox="0 0 25 24" fill="none" xmlns="http://www.w3.org/2000/svg">
<path d="M4.40002 4.79214C4.40002 4.29894 4.80052 3.89844 5.29372 3.89844H19.7063C20.1995 3.89844 20.6 4.29894 20.6 4.79214V19.2047C20.5998 19.4417 20.5056 19.6689 20.338 19.8364C20.1705 20.004 19.9433 20.0982 19.7063 20.0984H5.29372C5.05677 20.0982 4.8296 20.004 4.66205 19.8364C4.4945 19.6689 4.40026 19.4417 4.40002 19.2047V4.79214ZM7.10002 16.4984V18.2984H17.9V16.4984H7.10002ZM6.20002 5.69844V7.49844H8.00002V5.69844H6.20002ZM12.5 11.9984C12.0226 11.9984 11.5648 11.8088 11.2272 11.4712C10.8897 11.1337 10.7 10.6758 10.7 10.1984C10.7 9.72105 10.8897 9.26321 11.2272 8.92565C11.5648 8.58808 12.0226 8.39844 12.5 8.39844C12.9774 8.39844 13.4353 8.58808 13.7728 8.92565C14.1104 9.26321 14.3 9.72105 14.3 10.1984C14.3 10.6758 14.1104 11.1337 13.7728 11.4712C13.4353 11.8088 12.9774 11.9984 12.5 11.9984ZM12.5 13.7984C13.4548 13.7984 14.3705 13.4192 15.0456 12.744C15.7207 12.0689 16.1 11.1532 16.1 10.1984C16.1 9.24366 15.7207 8.32798 15.0456 7.65285C14.3705 6.97772 13.4548 6.59844 12.5 6.59844C11.5452 6.59844 10.6296 6.97772 9.95444 7.65285C9.27931 8.32798 8.90002 9.24366 8.90002 10.1984C8.90002 11.1532 9.27931 12.0689 9.95444 12.744C10.6296 13.4192 11.5452 13.7984 12.5 13.7984Z" fill="#0A0D14" style="fill:#0A0D14;fill:color(display-p3 0.0392 0.0510 0.0784);fill-opacity:1;"/>
</svg>
