<svg width="25" height="24" viewBox="0 0 25 24" fill="none" xmlns="http://www.w3.org/2000/svg">
<path d="M20.2931 10.1984C19.8685 8.99745 19.033 7.98524 17.9342 7.3407C16.8355 6.69616 15.5443 6.4608 14.2888 6.67621C13.0333 6.89161 11.8944 7.54393 11.0733 8.51785C10.2522 9.49177 9.80193 10.7246 9.80193 11.9984C9.80193 13.2723 10.2522 14.5051 11.0733 15.479C11.8944 16.4529 13.0333 17.1053 14.2888 17.3207C15.5443 17.5361 16.8355 17.3007 17.9342 16.6562C19.033 16.0116 19.8685 14.9994 20.2931 13.7984H20.6V19.1984C20.6 19.4371 20.5052 19.6661 20.3364 19.8348C20.1676 20.0036 19.9387 20.0984 19.7 20.0984H5.29999C5.0613 20.0984 4.83238 20.0036 4.6636 19.8348C4.49482 19.6661 4.39999 19.4371 4.39999 19.1984V4.79844C4.39999 4.55974 4.49482 4.33082 4.6636 4.16204C4.83238 3.99326 5.0613 3.89844 5.29999 3.89844H19.7C19.9387 3.89844 20.1676 3.99326 20.3364 4.16204C20.5052 4.33082 20.6 4.55974 20.6 4.79844V10.1984H20.2931ZM6.19999 6.59844V9.29844H7.99999V6.59844H6.19999ZM15.2 15.5984C14.2452 15.5984 13.3295 15.2192 12.6544 14.544C11.9793 13.8689 11.6 12.9532 11.6 11.9984C11.6 11.0437 11.9793 10.128 12.6544 9.45285C13.3295 8.77772 14.2452 8.39844 15.2 8.39844C16.1548 8.39844 17.0704 8.77772 17.7456 9.45285C18.4207 10.128 18.8 11.0437 18.8 11.9984C18.8 12.9532 18.4207 13.8689 17.7456 14.544C17.0704 15.2192 16.1548 15.5984 15.2 15.5984ZM15.2 13.7984C15.6774 13.7984 16.1352 13.6088 16.4728 13.2712C16.8104 12.9337 17 12.4758 17 11.9984C17 11.521 16.8104 11.0632 16.4728 10.7256C16.1352 10.3881 15.6774 10.1984 15.2 10.1984C14.7226 10.1984 14.2648 10.3881 13.9272 10.7256C13.5896 11.0632 13.4 11.521 13.4 11.9984C13.4 12.4758 13.5896 12.9337 13.9272 13.2712C14.2648 13.6088 14.7226 13.7984 15.2 13.7984Z" fill="#0A0D14" style="fill:#0A0D14;fill:color(display-p3 0.0392 0.0510 0.0784);fill-opacity:1;"/>
</svg>
