<svg width="25" height="24" viewBox="0 0 25 24" fill="none" xmlns="http://www.w3.org/2000/svg">
<path d="M20.6 6.59844H18.8V5.69844H6.19999V18.2984H18.8V17.3984H20.6V19.1984C20.6 19.4371 20.5052 19.6661 20.3364 19.8348C20.1676 20.0036 19.9387 20.0984 19.7 20.0984H5.29999C5.0613 20.0984 4.83238 20.0036 4.6636 19.8348C4.49482 19.6661 4.39999 19.4371 4.39999 19.1984V4.79844C4.39999 4.55974 4.49482 4.33082 4.6636 4.16204C4.83238 3.99326 5.0613 3.89844 5.29999 3.89844H19.7C19.9387 3.89844 20.1676 3.99326 20.3364 4.16204C20.5052 4.33082 20.6 4.55974 20.6 4.79844V6.59844ZM7.09999 6.59844H8.89999V9.29844H7.09999V6.59844ZM15.2 15.5984C16.1548 15.5984 17.0704 15.2192 17.7456 14.544C18.4207 13.8689 18.8 12.9532 18.8 11.9984C18.8 11.0437 18.4207 10.128 17.7456 9.45285C17.0704 8.77772 16.1548 8.39844 15.2 8.39844C14.2452 8.39844 13.3295 8.77772 12.6544 9.45285C11.9793 10.128 11.6 11.0437 11.6 11.9984C11.6 12.9532 11.9793 13.8689 12.6544 14.544C13.3295 15.2192 14.2452 15.5984 15.2 15.5984ZM15.2 17.3984C13.7678 17.3984 12.3943 16.8295 11.3816 15.8168C10.3689 14.8041 9.79999 13.4306 9.79999 11.9984C9.79999 10.5663 10.3689 9.19276 11.3816 8.18006C12.3943 7.16736 13.7678 6.59844 15.2 6.59844C16.6322 6.59844 18.0057 7.16736 19.0184 8.18006C20.0311 9.19276 20.6 10.5663 20.6 11.9984C20.6 13.4306 20.0311 14.8041 19.0184 15.8168C18.0057 16.8295 16.6322 17.3984 15.2 17.3984ZM15.2 13.7984C14.7226 13.7984 14.2648 13.6088 13.9272 13.2712C13.5896 12.9337 13.4 12.4758 13.4 11.9984C13.4 11.521 13.5896 11.0632 13.9272 10.7256C14.2648 10.3881 14.7226 10.1984 15.2 10.1984C15.6774 10.1984 16.1352 10.3881 16.4728 10.7256C16.8104 11.0632 17 11.521 17 11.9984C17 12.4758 16.8104 12.9337 16.4728 13.2712C16.1352 13.6088 15.6774 13.7984 15.2 13.7984Z" fill="#0A0D14" style="fill:#0A0D14;fill:color(display-p3 0.0392 0.0510 0.0784);fill-opacity:1;"/>
</svg>
