<svg width="25" height="24" viewBox="0 0 25 24" fill="none" xmlns="http://www.w3.org/2000/svg">
<path d="M18.8 14.6984V5.69844H6.20002V14.6984H18.8ZM4.40002 4.79214C4.40002 4.29894 4.80052 3.89844 5.29372 3.89844H19.7063C20.1995 3.89844 20.6 4.29894 20.6 4.79214V19.2047C20.5998 19.4417 20.5056 19.6689 20.338 19.8364C20.1705 20.004 19.9433 20.0982 19.7063 20.0984H5.29372C5.05677 20.0982 4.8296 20.004 4.66205 19.8364C4.4945 19.6689 4.40026 19.4417 4.40002 19.2047V4.79214ZM12.5 11.9984C12.9774 11.9984 13.4353 11.8088 13.7728 11.4712C14.1104 11.1337 14.3 10.6758 14.3 10.1984C14.3 9.72105 14.1104 9.26321 13.7728 8.92565C13.4353 8.58808 12.9774 8.39844 12.5 8.39844C12.0226 8.39844 11.5648 8.58808 11.2272 8.92565C10.8897 9.26321 10.7 9.72105 10.7 10.1984C10.7 10.6758 10.8897 11.1337 11.2272 11.4712C11.5648 11.8088 12.0226 11.9984 12.5 11.9984ZM12.5 13.7984C11.5452 13.7984 10.6296 13.4192 9.95444 12.744C9.27931 12.0689 8.90002 11.1532 8.90002 10.1984C8.90002 9.24366 9.27931 8.32798 9.95444 7.65285C10.6296 6.97772 11.5452 6.59844 12.5 6.59844C13.4548 6.59844 14.3705 6.97772 15.0456 7.65285C15.7207 8.32798 16.1 9.24366 16.1 10.1984C16.1 11.1532 15.7207 12.0689 15.0456 12.744C14.3705 13.4192 13.4548 13.7984 12.5 13.7984ZM7.10002 6.59844H8.90002V8.39844H7.10002V6.59844ZM7.10002 16.4984V18.2984H17.9V16.4984H7.10002Z" fill="#0A0D14" style="fill:#0A0D14;fill:color(display-p3 0.0392 0.0510 0.0784);fill-opacity:1;"/>
</svg>
