<svg width="25" height="24" viewBox="0 0 25 24" fill="none" xmlns="http://www.w3.org/2000/svg">
<path d="M21.5 13.3504V20.1004C21.5 20.3391 21.4052 20.568 21.2364 20.7368C21.0676 20.9056 20.8387 21.0004 20.6 21.0004H19.7C19.4613 21.0004 19.2324 20.9056 19.0636 20.7368C18.8948 20.568 18.8 20.3391 18.8 20.1004V19.2004H6.20001V20.1004C6.20001 20.3391 6.10519 20.568 5.93641 20.7368C5.76763 20.9056 5.53871 21.0004 5.30001 21.0004H4.40001C4.16132 21.0004 3.9324 20.9056 3.76362 20.7368C3.59483 20.568 3.50001 20.3391 3.50001 20.1004V13.3504L2.38131 13.0714C2.18669 13.0226 2.01394 12.9102 1.8905 12.7521C1.76706 12.5939 1.70002 12.399 1.70001 12.1984V11.5504C1.70001 11.431 1.74742 11.3166 1.83181 11.2322C1.91621 11.1478 2.03066 11.1004 2.15001 11.1004H3.88611L5.73201 6.79119C5.87084 6.46733 6.10167 6.19134 6.39589 5.99744C6.6901 5.80354 7.03475 5.70025 7.38711 5.70039H8.90001V3.90039H11.6V5.70039H13.4V3.90039H16.1V5.70039H17.6129C17.9651 5.70043 18.3096 5.8038 18.6036 5.99769C18.8977 6.19158 19.1283 6.46747 19.2671 6.79119L21.1139 11.1004H22.85C22.9694 11.1004 23.0838 11.1478 23.1682 11.2322C23.2526 11.3166 23.3 11.431 23.3 11.5504V12.1984C23.3 12.399 23.233 12.5939 23.1095 12.7521C22.9861 12.9102 22.8133 13.0226 22.6187 13.0714L21.5 13.3504ZM5.30001 14.7004V16.5004C5.30001 16.7391 5.39483 16.968 5.56362 17.1368C5.7324 17.3056 5.96132 17.4004 6.20001 17.4004H9.12051C9.19822 17.4003 9.27457 17.38 9.34213 17.3416C9.40969 17.3032 9.46616 17.248 9.50604 17.1813C9.54591 17.1146 9.56783 17.0387 9.56967 16.961C9.5715 16.8833 9.55319 16.8065 9.51651 16.738C8.79201 15.379 7.38621 14.7004 5.30001 14.7004ZM19.7 14.7004C17.6147 14.7004 16.2089 15.3799 15.4826 16.738C15.4459 16.8066 15.4276 16.8835 15.4295 16.9612C15.4313 17.039 15.4533 17.115 15.4933 17.1817C15.5333 17.2484 15.5899 17.3036 15.6576 17.342C15.7253 17.3803 15.8017 17.4004 15.8795 17.4004H18.8C19.0387 17.4004 19.2676 17.3056 19.4364 17.1368C19.6052 16.968 19.7 16.7391 19.7 16.5004V14.7004ZM7.10001 7.50039L5.79411 10.7665C5.73958 10.903 5.71931 11.0508 5.73507 11.1969C5.75084 11.3431 5.80217 11.4831 5.88457 11.6049C5.96697 11.7266 6.07793 11.8263 6.20775 11.8953C6.33758 11.9642 6.48232 12.0003 6.62931 12.0004H18.3707C18.5177 12.0003 18.6624 11.9642 18.7923 11.8953C18.9221 11.8263 19.0331 11.7266 19.1155 11.6049C19.1979 11.4831 19.2492 11.3431 19.265 11.1969C19.2807 11.0508 19.2604 10.903 19.2059 10.7665L17.9 7.50039H7.10001Z" fill="#0A0D14" style="fill:#0A0D14;fill:color(display-p3 0.0392 0.0510 0.0784);fill-opacity:1;"/>
</svg>
