<svg width="25" height="24" viewBox="0 0 25 24" fill="none" xmlns="http://www.w3.org/2000/svg">
<path d="M5.30001 12.9004V17.4004H19.7V12.9004H5.30001ZM6.75621 11.1004H18.2438C18.3972 11.1003 18.548 11.061 18.6819 10.9863C18.8158 10.9116 18.9284 10.8039 19.009 10.6734C19.0896 10.543 19.1355 10.3941 19.1424 10.2409C19.1493 10.0877 19.117 9.93527 19.0484 9.79809L17.9 7.50039H7.10001L5.95161 9.79809C5.88306 9.93527 5.8507 10.0877 5.8576 10.2409C5.8645 10.3941 5.91043 10.543 5.99104 10.6734C6.07164 10.8039 6.18424 10.9116 6.31816 10.9863C6.45207 11.061 6.60286 11.1003 6.75621 11.1004ZM21.5 13.3504V20.1004C21.5 20.3391 21.4052 20.568 21.2364 20.7368C21.0676 20.9056 20.8387 21.0004 20.6 21.0004H19.7C19.4613 21.0004 19.2324 20.9056 19.0636 20.7368C18.8948 20.568 18.8 20.3391 18.8 20.1004V19.2004H6.20001V20.1004C6.20001 20.3391 6.10519 20.568 5.93641 20.7368C5.76763 20.9056 5.53871 21.0004 5.30001 21.0004H4.40001C4.16132 21.0004 3.9324 20.9056 3.76362 20.7368C3.59483 20.568 3.50001 20.3391 3.50001 20.1004V13.3504L2.38131 13.0714C2.18669 13.0226 2.01394 12.9102 1.8905 12.7521C1.76706 12.5939 1.70002 12.399 1.70001 12.1984V11.5504C1.70001 11.431 1.74742 11.3166 1.83181 11.2322C1.91621 11.1478 2.03066 11.1004 2.15001 11.1004H3.50001L5.70231 6.69579C5.85183 6.39657 6.08177 6.14493 6.36633 5.96911C6.65089 5.79329 6.97882 5.70023 7.31331 5.70039H8.90001V3.90039H11.6V5.70039H13.4V3.90039H16.1V5.70039H17.6876C18.022 5.7004 18.3497 5.79353 18.6341 5.96935C18.9185 6.14516 19.1483 6.39671 19.2977 6.69579L21.5 11.1004H22.85C22.9694 11.1004 23.0838 11.1478 23.1682 11.2322C23.2526 11.3166 23.3 11.431 23.3 11.5504V12.1984C23.3 12.399 23.233 12.5939 23.1095 12.7521C22.9861 12.9102 22.8133 13.0226 22.6187 13.0714L21.5 13.3504ZM6.20001 13.8004C8.28531 13.8004 9.69111 14.4799 10.4174 15.838C10.4541 15.9066 10.4724 15.9835 10.4706 16.0612C10.4687 16.139 10.4467 16.215 10.4067 16.2817C10.3667 16.3484 10.3101 16.4036 10.2424 16.442C10.1748 16.4803 10.0983 16.5004 10.0205 16.5004H7.10001C6.86132 16.5004 6.6324 16.4056 6.46362 16.2368C6.29483 16.068 6.20001 15.8391 6.20001 15.6004V13.8004ZM18.8 13.8004V15.6004C18.8 15.8391 18.7052 16.068 18.5364 16.2368C18.3676 16.4056 18.1387 16.5004 17.9 16.5004H14.9795C14.9018 16.5003 14.8255 16.48 14.7579 16.4416C14.6903 16.4032 14.6339 16.348 14.594 16.2813C14.5541 16.2146 14.5322 16.1387 14.5304 16.061C14.5285 15.9833 14.5468 15.9065 14.5835 15.838C15.308 14.479 16.7138 13.8004 18.8 13.8004Z" fill="#0A0D14" style="fill:#0A0D14;fill:color(display-p3 0.0392 0.0510 0.0784);fill-opacity:1;"/>
</svg>
