<svg width="25" height="24" viewBox="0 0 25 24" fill="none" xmlns="http://www.w3.org/2000/svg">
<path d="M9.5 6C9.5 6.82843 8.82843 7.5 8 7.5C7.17157 7.5 6.5 6.82843 6.5 6C6.5 5.17157 7.17157 4.5 8 4.5C8.82843 4.5 9.5 5.17157 9.5 6ZM7.25 15V19.5H5.75V10.5C5.75 9.25736 6.75736 8.25 8 8.25C8.61544 8.25 9.17317 8.49709 9.57939 8.8975L11.3602 10.5793L13.0948 8.84467L14.1555 9.90533L11.3901 12.6707L10.25 11.594V19.5H8.75V15H7.25ZM8 9.75C7.58579 9.75 7.25 10.0858 7.25 10.5V13.5H8.75V10.5C8.75 10.0858 8.41421 9.75 8 9.75ZM17.75 6.75H11V5.25H18.5C18.9142 5.25 19.25 5.58579 19.25 6V14.25C19.25 14.6642 18.9142 15 18.5 15H15.9319L18.0495 19.5H16.3917L14.274 15H11V13.5H17.75V6.75Z" fill="#0A0D14" style="fill:#0A0D14;fill:color(display-p3 0.0392 0.0510 0.0784);fill-opacity:1;"/>
</svg>
