<svg width="25" height="24" viewBox="0 0 25 24" fill="none" xmlns="http://www.w3.org/2000/svg">
<path d="M11.51 3.08984L20.4191 4.36334L21.6917 13.2733L13.4189 21.5461C13.2501 21.7149 13.0212 21.8097 12.7826 21.8097C12.5439 21.8097 12.3151 21.7149 12.1463 21.5461L3.23629 12.6361C3.06756 12.4674 2.97278 12.2385 2.97278 11.9998C2.97278 11.7612 3.06756 11.5323 3.23629 11.3635L11.51 3.08984ZM12.1463 4.99964L5.14519 11.9998L12.7826 19.6363L19.7828 12.6361L18.8288 5.95364L12.1463 4.99964ZM14.0543 10.7272C13.7167 10.3895 13.527 9.93145 13.5271 9.45388C13.5271 9.21741 13.5738 8.98326 13.6643 8.76481C13.7548 8.54636 13.8875 8.34787 14.0547 8.18069C14.222 8.01351 14.4205 7.88091 14.639 7.79046C14.8575 7.7 15.0916 7.65347 15.3281 7.65351C15.8057 7.6536 16.2637 7.84339 16.6013 8.18114C16.9389 8.5189 17.1286 8.97694 17.1285 9.45451C17.1284 9.93208 16.9386 10.3901 16.6008 10.7277C16.2631 11.0653 15.805 11.255 15.3275 11.2549C14.8499 11.2548 14.3919 11.065 14.0543 10.7272Z" fill="#0A0D14" style="fill:#0A0D14;fill:color(display-p3 0.0392 0.0510 0.0784);fill-opacity:1;"/>
</svg>
