<svg width="25" height="24" viewBox="0 0 25 24" fill="none" xmlns="http://www.w3.org/2000/svg">
<path d="M4.40002 7.49958L12.0005 2.43258C12.1484 2.33391 12.3222 2.28125 12.5 2.28125C12.6778 2.28125 12.8516 2.33391 12.9995 2.43258L20.6 7.49958V20.0996C20.6 20.3383 20.5052 20.5672 20.3364 20.736C20.1676 20.9048 19.9387 20.9996 19.7 20.9996H5.30002C5.06133 20.9996 4.83241 20.9048 4.66363 20.736C4.49485 20.5672 4.40002 20.3383 4.40002 20.0996V7.49958ZM6.20002 8.46258V19.1996H18.8V8.46258L12.5 4.26318L6.20002 8.46258ZM12.5 11.0996C12.0226 11.0996 11.5648 10.9099 11.2272 10.5724C10.8897 10.2348 10.7 9.77697 10.7 9.29958C10.7 8.82219 10.8897 8.36436 11.2272 8.02679C11.5648 7.68923 12.0226 7.49958 12.5 7.49958C12.9774 7.49958 13.4353 7.68923 13.7728 8.02679C14.1104 8.36436 14.3 8.82219 14.3 9.29958C14.3 9.77697 14.1104 10.2348 13.7728 10.5724C13.4353 10.9099 12.9774 11.0996 12.5 11.0996Z" fill="#0A0D14" style="fill:#0A0D14;fill:color(display-p3 0.0392 0.0510 0.0784);fill-opacity:1;"/>
</svg>
