<svg width="25" height="24" viewBox="0 0 25 24" fill="none" xmlns="http://www.w3.org/2000/svg">
<path d="M11.51 3.08984L20.4191 4.36334L21.6917 13.2733L13.4189 21.5461C13.2501 21.7149 13.0212 21.8097 12.7826 21.8097C12.5439 21.8097 12.3151 21.7149 12.1463 21.5461L3.23629 12.6361C3.06756 12.4674 2.97278 12.2385 2.97278 11.9998C2.97278 11.7612 3.06756 11.5323 3.23629 11.3635L11.51 3.08984ZM14.0552 10.7272C14.2224 10.8944 14.4208 11.0269 14.6392 11.1173C14.8576 11.2078 15.0917 11.2543 15.3281 11.2542C15.5645 11.2542 15.7986 11.2076 16.0169 11.1171C16.2353 11.0266 16.4337 10.894 16.6008 10.7268C16.768 10.5596 16.9005 10.3612 16.9909 10.1427C17.0814 9.92434 17.1279 9.69026 17.1278 9.45388C17.1278 9.21749 17.0812 8.98343 16.9907 8.76505C16.9002 8.54668 16.7676 8.34826 16.6004 8.18114C16.4332 8.01402 16.2347 7.88147 16.0163 7.79105C15.7979 7.70062 15.5639 7.65411 15.3275 7.65415C14.8501 7.65423 14.3923 7.84396 14.0547 8.18159C13.7172 8.51923 13.5277 8.97711 13.5277 9.45451C13.5278 9.93191 13.7176 10.3897 14.0552 10.7272Z" fill="#0A0D14" style="fill:#0A0D14;fill:color(display-p3 0.0392 0.0510 0.0784);fill-opacity:1;"/>
</svg>
