<svg width="25" height="24" viewBox="0 0 25 24" fill="none" xmlns="http://www.w3.org/2000/svg">
<path d="M8 16.5H17V21H8V16.5ZM18.8 19.2V14.7H6.2V19.2H4.4C4.16131 19.2 3.93239 19.1052 3.7636 18.9364C3.59482 18.7676 3.5 18.5387 3.5 18.3V9.3C3.5 9.06131 3.59482 8.83239 3.7636 8.6636C3.93239 8.49482 4.16131 8.4 4.4 8.4H20.6C20.8387 8.4 21.0676 8.49482 21.2364 8.6636C21.4052 8.83239 21.5 9.06131 21.5 9.3V18.3C21.5 18.5387 21.4052 18.7676 21.2364 18.9364C21.0676 19.1052 20.8387 19.2 20.6 19.2H18.8ZM6.2 10.2V12H8.9V10.2H6.2ZM8 3H17C17.2387 3 17.4676 3.09482 17.6364 3.2636C17.8052 3.43239 17.9 3.66131 17.9 3.9V6.6H7.1V3.9C7.1 3.66131 7.19482 3.43239 7.3636 3.2636C7.53239 3.09482 7.7613 3 8 3Z" fill="#0A0D14" style="fill:#0A0D14;fill:color(display-p3 0.0392 0.0510 0.0784);fill-opacity:1;"/>
</svg>
