<svg width="25" height="24" viewBox="0 0 25 24" fill="none" xmlns="http://www.w3.org/2000/svg">
<path d="M17 3C17.2387 3 17.4676 3.09482 17.6364 3.2636C17.8052 3.43239 17.9 3.66131 17.9 3.9V7.5H20.6C20.8387 7.5 21.0676 7.59482 21.2364 7.7636C21.4052 7.93239 21.5 8.1613 21.5 8.4L21.5009 13.2114C21.0377 12.5492 20.4198 12.0101 19.7009 11.6409L19.7 9.3H5.3V16.5H7.1V15.6C7.1 15.3613 7.19482 15.1324 7.3636 14.9636C7.53239 14.7948 7.7613 14.7 8 14.7H12.6863L12.6224 14.9547L12.5954 14.9727C12.0163 15.3615 11.5409 15.8858 11.2103 16.5H8.9V19.2H10.754C10.857 19.8487 11.1086 20.4648 11.4893 21H8C7.7613 21 7.53239 20.9052 7.3636 20.7364C7.19482 20.5676 7.1 20.3387 7.1 20.1V18.3H4.4C4.16131 18.3 3.93239 18.2052 3.7636 18.0364C3.59482 17.8676 3.5 17.6387 3.5 17.4V8.4C3.5 8.1613 3.59482 7.93239 3.7636 7.7636C3.93239 7.59482 4.16131 7.5 4.4 7.5H7.1V3.9C7.1 3.66131 7.19482 3.43239 7.3636 3.2636C7.53239 3.09482 7.7613 3 8 3H17ZM17.45 12.9C18.2854 12.9 19.0866 13.2319 19.6774 13.8226C20.2681 14.4134 20.6 15.2146 20.6 16.05L20.5991 16.1427C21.1621 16.3013 21.6508 16.6543 21.9784 17.1389C22.306 17.6235 22.4513 18.2085 22.3886 18.7901C22.326 19.3717 22.0593 19.9123 21.636 20.316C21.2127 20.7197 20.6601 20.9604 20.0762 20.9955L19.925 21H14.975L14.8238 20.9955C14.24 20.9601 13.6876 20.7191 13.2646 20.3153C12.8415 19.9114 12.5752 19.3708 12.5127 18.7893C12.4503 18.2078 12.5958 17.6229 12.9235 17.1385C13.2511 16.654 13.7397 16.3012 14.3027 16.1427L14.3 16.05C14.3 15.2146 14.6319 14.4134 15.2226 13.8226C15.8134 13.2319 16.6146 12.9 17.45 12.9ZM17.45 14.7C17.1364 14.6999 16.8326 14.809 16.5907 15.0086C16.3488 15.2081 16.1839 15.4856 16.1243 15.7935L16.1063 15.9195L16.1 16.05V17.508L14.8004 17.8734C14.6506 17.9134 14.5192 18.0037 14.4282 18.1291C14.3371 18.2546 14.292 18.4076 14.3005 18.5623C14.3089 18.7171 14.3704 18.8643 14.4745 18.9791C14.5787 19.0939 14.7192 19.1694 14.8724 19.1928L14.9705 19.2H19.9295C20.0927 19.1988 20.2499 19.1384 20.372 19.0302C20.4942 18.922 20.573 18.7732 20.5938 18.6113C20.6147 18.4495 20.5762 18.2855 20.4855 18.1499C20.3948 18.0142 20.258 17.916 20.1005 17.8734L19.1888 17.6187L18.8 17.508V16.05L18.7937 15.9204C18.7615 15.5864 18.606 15.2763 18.3576 15.0507C18.1092 14.825 17.7856 14.7 17.45 14.7ZM8.9 10.2V12H6.2V10.2H8.9ZM16.1 4.8H8.9V7.5H16.1V4.8Z" fill="#0A0D14" style="fill:#0A0D14;fill:color(display-p3 0.0392 0.0510 0.0784);fill-opacity:1;"/>
</svg>
