<svg width="25" height="24" viewBox="0 0 25 24" fill="none" xmlns="http://www.w3.org/2000/svg">
<path d="M11.2094 16.5C10.8744 17.1223 10.6993 17.8182 10.7 18.525C10.7 19.4457 10.9916 20.3007 11.4893 21H8V16.5H11.2094ZM17.45 12.9C18.2854 12.9 19.0866 13.2319 19.6774 13.8226C20.2681 14.4134 20.6 15.2146 20.6 16.05L20.5991 16.1427C21.1621 16.3013 21.6508 16.6543 21.9784 17.1389C22.306 17.6235 22.4513 18.2085 22.3886 18.7901C22.326 19.3717 22.0593 19.9123 21.636 20.316C21.2127 20.7197 20.6601 20.9604 20.0762 20.9955L19.925 21H14.975L14.8238 20.9955C14.24 20.9601 13.6876 20.7191 13.2646 20.3153C12.8415 19.9114 12.5752 19.3708 12.5127 18.7893C12.4503 18.2078 12.5958 17.6229 12.9235 17.1385C13.2511 16.654 13.7397 16.3012 14.3027 16.1427L14.3 16.05C14.3 15.2146 14.6319 14.4134 15.2226 13.8226C15.8134 13.2319 16.6146 12.9 17.45 12.9ZM20.6 8.4C20.8387 8.4 21.0676 8.49482 21.2364 8.6636C21.4052 8.83239 21.5 9.06131 21.5 9.3L21.5009 13.2114C21.0459 12.559 20.4399 12.0263 19.7345 11.6586C19.0292 11.291 18.2454 11.0993 17.45 11.1L17.2511 11.1036C16.2083 11.1457 15.2055 11.5161 14.3858 12.1619C13.566 12.8078 12.9712 13.6961 12.6863 14.7H6.2V19.2H4.4C4.16131 19.2 3.93239 19.1052 3.7636 18.9364C3.59482 18.7676 3.5 18.5387 3.5 18.3V9.3C3.5 9.06131 3.59482 8.83239 3.7636 8.6636C3.93239 8.49482 4.16131 8.4 4.4 8.4H20.6ZM8.9 10.2H6.2V12H8.9V10.2ZM17 3C17.2387 3 17.4676 3.09482 17.6364 3.2636C17.8052 3.43239 17.9 3.66131 17.9 3.9V6.6H7.1V3.9C7.1 3.66131 7.19482 3.43239 7.3636 3.2636C7.53239 3.09482 7.7613 3 8 3H17Z" fill="#0A0D14" style="fill:#0A0D14;fill:color(display-p3 0.0392 0.0510 0.0784);fill-opacity:1;"/>
</svg>
