<svg width="25" height="24" viewBox="0 0 25 24" fill="none" xmlns="http://www.w3.org/2000/svg">
<path d="M7.1 18.3H4.4C4.16131 18.3 3.93239 18.2052 3.7636 18.0364C3.59482 17.8676 3.5 17.6387 3.5 17.4V8.4C3.5 8.1613 3.59482 7.93239 3.7636 7.7636C3.93239 7.59482 4.16131 7.5 4.4 7.5H7.1V3.9C7.1 3.66131 7.19482 3.43239 7.3636 3.2636C7.53239 3.09482 7.7613 3 8 3H17C17.2387 3 17.4676 3.09482 17.6364 3.2636C17.8052 3.43239 17.9 3.66131 17.9 3.9V7.5H20.6C20.8387 7.5 21.0676 7.59482 21.2364 7.7636C21.4052 7.93239 21.5 8.1613 21.5 8.4V17.4C21.5 17.6387 21.4052 17.8676 21.2364 18.0364C21.0676 18.2052 20.8387 18.3 20.6 18.3H17.9V20.1C17.9 20.3387 17.8052 20.5676 17.6364 20.7364C17.4676 20.9052 17.2387 21 17 21H8C7.7613 21 7.53239 20.9052 7.3636 20.7364C7.19482 20.5676 7.1 20.3387 7.1 20.1V18.3ZM7.1 16.5V15.6C7.1 15.3613 7.19482 15.1324 7.3636 14.9636C7.53239 14.7948 7.7613 14.7 8 14.7H17C17.2387 14.7 17.4676 14.7948 17.6364 14.9636C17.8052 15.1324 17.9 15.3613 17.9 15.6V16.5H19.7V9.3H5.3V16.5H7.1ZM8.9 4.8V7.5H16.1V4.8H8.9ZM8.9 16.5V19.2H16.1V16.5H8.9ZM6.2 10.2H8.9V12H6.2V10.2Z" fill="#0A0D14" style="fill:#0A0D14;fill:color(display-p3 0.0392 0.0510 0.0784);fill-opacity:1;"/>
</svg>
