<svg width="25" height="24" viewBox="0 0 25 24" fill="none" xmlns="http://www.w3.org/2000/svg">
<path d="M12.5 21C7.5293 21 3.5 16.9707 3.5 12C3.5 7.0293 7.5293 3 12.5 3C17.4707 3 21.5 7.0293 21.5 12C21.5 16.9707 17.4707 21 12.5 21ZM12.5 19.2C14.4096 19.2 16.2409 18.4414 17.5912 17.0912C18.9414 15.7409 19.7 13.9096 19.7 12C19.7 10.0904 18.9414 8.25909 17.5912 6.90883C16.2409 5.55857 14.4096 4.8 12.5 4.8C10.5904 4.8 8.75909 5.55857 7.40883 6.90883C6.05857 8.25909 5.3 10.0904 5.3 12C5.3 13.9096 6.05857 15.7409 7.40883 17.0912C8.75909 18.4414 10.5904 19.2 12.5 19.2ZM13.7006 12C14.0586 12 14.402 11.8578 14.6552 11.6046C14.9084 11.3514 15.0506 11.008 15.0506 10.65C15.0506 10.292 14.9084 9.94858 14.6552 9.69541C14.402 9.44223 14.0586 9.3 13.7006 9.3H11.15V12H13.7006ZM13.7006 7.5C14.536 7.5 15.3372 7.83187 15.928 8.42261C16.5187 9.01335 16.8506 9.81457 16.8506 10.65C16.8506 11.4854 16.5187 12.2866 15.928 12.8774C15.3372 13.4681 14.536 13.8 13.7006 13.8H11.15V16.5H9.35V7.5H13.7006Z" fill="#0A0D14" style="fill:#0A0D14;fill:color(display-p3 0.0392 0.0510 0.0784);fill-opacity:1;"/>
</svg>
