<svg width="25" height="24" viewBox="0 0 25 24" fill="none" xmlns="http://www.w3.org/2000/svg">
<path d="M12.5 21C7.5293 21 3.5 16.9707 3.5 12C3.5 7.0293 7.5293 3 12.5 3C17.4707 3 21.5 7.0293 21.5 12C21.5 16.9707 17.4707 21 12.5 21ZM13.7006 12H11.15V9.3H13.7006C14.0586 9.3 14.402 9.44223 14.6552 9.69541C14.9084 9.94858 15.0506 10.292 15.0506 10.65C15.0506 11.008 14.9084 11.3514 14.6552 11.6046C14.402 11.8578 14.0586 12 13.7006 12ZM13.7006 7.5H9.35V16.5H11.15V13.8H13.7006C14.536 13.8 15.3372 13.4681 15.928 12.8774C16.5187 12.2866 16.8506 11.4854 16.8506 10.65C16.8506 9.81457 16.5187 9.01335 15.928 8.42261C15.3372 7.83187 14.536 7.5 13.7006 7.5Z" fill="#0A0D14" style="fill:#0A0D14;fill:color(display-p3 0.0392 0.0510 0.0784);fill-opacity:1;"/>
</svg>
