<svg width="25" height="24" viewBox="0 0 25 24" fill="none" xmlns="http://www.w3.org/2000/svg">
<path d="M8.82072 7.26007L17.2399 15.6793C18.0302 14.663 18.5 13.3868 18.5 12C18.5 8.68629 15.8137 6 12.5 6C11.1132 6 9.83704 6.46983 8.82072 7.26007ZM16.1793 16.7399L7.76007 8.32072C6.96983 9.33704 6.5 10.6132 6.5 12C6.5 15.3137 9.18629 18 12.5 18C13.8868 18 15.163 17.5302 16.1793 16.7399ZM7.1967 6.6967C8.55311 5.34028 10.4291 4.5 12.5 4.5C16.6421 4.5 20 7.85786 20 12C20 14.0708 19.1597 15.9469 17.8033 17.3033C16.4469 18.6597 14.5708 19.5 12.5 19.5C8.35786 19.5 5 16.1421 5 12C5 9.92914 5.84028 8.05311 7.1967 6.6967Z" fill="#0A0D14" style="fill:#0A0D14;fill:color(display-p3 0.0392 0.0510 0.0784);fill-opacity:1;"/>
</svg>
