<svg width="25" height="24" viewBox="0 0 25 24" fill="none" xmlns="http://www.w3.org/2000/svg">
<path d="M21.5 18.2999V20.0999H19.7V18.2999H5.29998V20.0999H3.49998V18.2999C3.26128 18.2999 3.03236 18.2051 2.86358 18.0363C2.6948 17.8675 2.59998 17.6386 2.59998 17.3999V6.59991C2.59998 6.36121 2.6948 6.13229 2.86358 5.96351C3.03236 5.79473 3.26128 5.69991 3.49998 5.69991H12.329C12.8743 5.13008 13.5295 4.67677 14.255 4.36739C14.9805 4.058 15.7613 3.89897 16.55 3.89991C18.2087 3.89991 19.7063 4.59021 20.771 5.69991H21.5C21.7387 5.69991 21.9676 5.79473 22.1364 5.96351C22.3052 6.13229 22.4 6.36121 22.4 6.59991V17.3999C22.4 17.6386 22.3052 17.8675 22.1364 18.0363C21.9676 18.2051 21.7387 18.2999 21.5 18.2999ZM16.55 13.7999C17.0818 13.7999 17.6085 13.6952 18.0998 13.4916C18.5912 13.2881 19.0377 12.9898 19.4138 12.6137C19.7898 12.2376 20.0882 11.7911 20.2917 11.2998C20.4952 10.8084 20.6 10.2818 20.6 9.74991C20.6 9.21805 20.4952 8.69141 20.2917 8.20004C20.0882 7.70867 19.7898 7.2622 19.4138 6.88612C19.0377 6.51005 18.5912 6.21173 18.0998 6.00819C17.6085 5.80466 17.0818 5.69991 16.55 5.69991C15.4758 5.69991 14.4457 6.1266 13.6862 6.88612C12.9267 7.64565 12.5 8.67578 12.5 9.74991C12.5 10.824 12.9267 11.8542 13.6862 12.6137C14.4457 13.3732 15.4758 13.7999 16.55 13.7999ZM16.55 11.9999C15.9532 11.9999 15.3809 11.7629 14.959 11.3409C14.537 10.9189 14.3 10.3466 14.3 9.74991C14.3 9.15317 14.537 8.58087 14.959 8.15892C15.3809 7.73696 15.9532 7.49991 16.55 7.49991C17.1467 7.49991 17.719 7.73696 18.141 8.15892C18.5629 8.58087 18.8 9.15317 18.8 9.74991C18.8 10.3466 18.5629 10.9189 18.141 11.3409C17.719 11.7629 17.1467 11.9999 16.55 11.9999ZM5.29998 12.8999V14.6999H7.09998V12.8999H5.29998ZM8.89998 12.8999V14.6999H10.7V12.8999H8.89998Z" fill="#0A0D14" style="fill:#0A0D14;fill:color(display-p3 0.0392 0.0510 0.0784);fill-opacity:1;"/>
</svg>
