<svg width="25" height="24" viewBox="0 0 25 24" fill="none" xmlns="http://www.w3.org/2000/svg">
<path d="M11.7008 11.9999C11.9059 12.8938 12.4082 13.6917 13.1255 14.2631C13.8429 14.8345 14.7329 15.1457 15.65 15.1457C16.5671 15.1457 17.4571 14.8345 18.1745 14.2631C18.8918 13.6917 19.3941 12.8938 19.5992 11.9999H21.5V19.1999C21.5 19.4386 21.4052 19.6675 21.2364 19.8363C21.0676 20.0051 20.8387 20.0999 20.6 20.0999H4.4C4.16131 20.0999 3.93239 20.0051 3.7636 19.8363C3.59482 19.6675 3.5 19.4386 3.5 19.1999V11.9999H11.7008ZM6.2 15.5999H8V17.3999H6.2V15.5999ZM15.65 13.3499C15.0533 13.3499 14.481 13.1129 14.059 12.6909C13.6371 12.2689 13.4 11.6966 13.4 11.0999C13.4 10.5032 13.6371 9.93087 14.059 9.50891C14.481 9.08696 15.0533 8.8499 15.65 8.8499C16.2467 8.8499 16.819 9.08696 17.241 9.50891C17.6629 9.93087 17.9 10.5032 17.9 11.0999C17.9 11.6966 17.6629 12.2689 17.241 12.6909C16.819 13.1129 16.2467 13.3499 15.65 13.3499ZM11.7008 10.1999H3.5V4.7999C3.5 4.56121 3.59482 4.33229 3.7636 4.16351C3.93239 3.99472 4.16131 3.8999 4.4 3.8999H20.6C20.8387 3.8999 21.0676 3.99472 21.2364 4.16351C21.4052 4.33229 21.5 4.56121 21.5 4.7999V10.1999H19.5992C19.3941 9.306 18.8918 8.50812 18.1745 7.9367C17.4571 7.36528 16.5671 7.05414 15.65 7.05414C14.7329 7.05414 13.8429 7.36528 13.1255 7.9367C12.4082 8.50812 11.9059 9.306 11.7008 10.1999Z" fill="#0A0D14" style="fill:#0A0D14;fill:color(display-p3 0.0392 0.0510 0.0784);fill-opacity:1;"/>
</svg>
