<svg width="25" height="24" viewBox="0 0 25 24" fill="none" xmlns="http://www.w3.org/2000/svg">
<path d="M21.5 18.2999V20.0999H19.7V18.2999H5.29998V20.0999H3.49998V18.2999C3.26128 18.2999 3.03236 18.2051 2.86358 18.0363C2.6948 17.8675 2.59998 17.6386 2.59998 17.3999V6.59991C2.59998 6.36121 2.6948 6.13229 2.86358 5.96351C3.03236 5.79473 3.26128 5.69991 3.49998 5.69991H12.9752C13.4811 5.13296 14.1013 4.67947 14.795 4.36925C15.4886 4.05902 16.2401 3.89907 17 3.89991C18.5993 3.89991 20.0366 4.59561 21.0248 5.69991H21.5C21.7387 5.69991 21.9676 5.79473 22.1364 5.96351C22.3052 6.13229 22.4 6.36121 22.4 6.59991V17.3999C22.4 17.6386 22.3052 17.8675 22.1364 18.0363C21.9676 18.2051 21.7387 18.2999 21.5 18.2999ZM11.9069 7.49991H4.39998V16.4999H20.6V13.3247C19.7064 14.1251 18.5718 14.6051 17.3751 14.689C16.1784 14.773 14.9879 14.4561 13.9913 13.7883C12.9948 13.1206 12.2489 12.14 11.8715 11.0013C11.494 9.86265 11.5065 8.63071 11.9069 7.49991ZM17 12.8999C17.9548 12.8999 18.8704 12.5206 19.5456 11.8455C20.2207 11.1704 20.6 10.2547 20.6 9.29991C20.6 8.34513 20.2207 7.42945 19.5456 6.75432C18.8704 6.07919 17.9548 5.69991 17 5.69991C16.0452 5.69991 15.1295 6.07919 14.4544 6.75432C13.7793 7.42945 13.4 8.34513 13.4 9.29991C13.4 10.2547 13.7793 11.1704 14.4544 11.8455C15.1295 12.5206 16.0452 12.8999 17 12.8999ZM6.19998 12.8999H7.99998V14.6999H6.19998V12.8999ZM8.89998 12.8999H10.7V14.6999H8.89998V12.8999Z" fill="#0A0D14" style="fill:#0A0D14;fill:color(display-p3 0.0392 0.0510 0.0784);fill-opacity:1;"/>
</svg>
