<svg width="25" height="24" viewBox="0 0 25 24" fill="none" xmlns="http://www.w3.org/2000/svg">
<path d="M4.4 3.8999H20.6C20.8387 3.8999 21.0676 3.99472 21.2364 4.16351C21.4052 4.33229 21.5 4.56121 21.5 4.7999V19.1999C21.5 19.4386 21.4052 19.6675 21.2364 19.8363C21.0676 20.0051 20.8387 20.0999 20.6 20.0999H4.4C4.16131 20.0999 3.93239 20.0051 3.7636 19.8363C3.59482 19.6675 3.5 19.4386 3.5 19.1999V4.7999C3.5 4.56121 3.59482 4.33229 3.7636 4.16351C3.93239 3.99472 4.16131 3.8999 4.4 3.8999ZM11.7134 11.9999H5.3V18.2999H19.7V11.9999H18.6866C18.4864 12.7723 18.0354 13.4564 17.4043 13.9447C16.7733 14.4331 15.9979 14.6981 15.2 14.6981C14.4021 14.6981 13.6267 14.4331 12.9957 13.9447C12.3646 13.4564 11.9136 12.7723 11.7134 11.9999ZM11.7134 10.1999C11.9136 9.42749 12.3646 8.74341 12.9957 8.25507C13.6267 7.76672 14.4021 7.50175 15.2 7.50175C15.9979 7.50175 16.7733 7.76672 17.4043 8.25507C18.0354 8.74341 18.4864 9.42749 18.6866 10.1999H19.7V5.6999H5.3V10.1999H11.7134ZM15.2 12.8999C15.6774 12.8999 16.1352 12.7103 16.4728 12.3727C16.8104 12.0351 17 11.5773 17 11.0999C17 10.6225 16.8104 10.1647 16.4728 9.82711C16.1352 9.48955 15.6774 9.2999 15.2 9.2999C14.7226 9.2999 14.2648 9.48955 13.9272 9.82711C13.5896 10.1647 13.4 10.6225 13.4 11.0999C13.4 11.5773 13.5896 12.0351 13.9272 12.3727C14.2648 12.7103 14.7226 12.8999 15.2 12.8999ZM7.1 14.6999H8.9V16.4999H7.1V14.6999Z" fill="#0A0D14" style="fill:#0A0D14;fill:color(display-p3 0.0392 0.0510 0.0784);fill-opacity:1;"/>
</svg>
