<svg width="25" height="24" viewBox="0 0 25 24" fill="none" xmlns="http://www.w3.org/2000/svg">
<path d="M11.6 3C15.2612 3 18.2834 5.7324 18.7406 9.2685L20.7656 12.4536C20.8988 12.6633 20.8718 12.9756 20.5631 13.1088L18.8 13.863V16.5C18.8 17.4945 17.9945 18.3 17 18.3H15.2009L15.2 21H7.10002V17.6754C7.10002 16.6134 6.70762 15.6081 5.98042 14.7009C4.99132 13.4679 4.40002 11.9028 4.40002 10.2C4.40002 6.2238 7.62382 3 11.6 3ZM11.6 4.8C8.61742 4.8 6.20002 7.2174 6.20002 10.2C6.20002 11.4465 6.62122 12.6237 7.38442 13.575C8.36902 14.8026 8.90002 16.2003 8.90002 17.6754V19.2H13.4L13.4018 16.5H17V12.6768L18.395 12.0792L17.0063 9.8967L16.955 9.4989C16.6094 6.8259 14.3216 4.8 11.6 4.8ZM11.6 7.5C12.0968 7.5 12.5 7.9032 12.5 8.4V9.3H13.4C13.8968 9.3 14.3 9.7032 14.3 10.2C14.3 10.6968 13.8968 11.1 13.4 11.1H12.5V12C12.5 12.4968 12.0968 12.9 11.6 12.9C11.1032 12.9 10.7 12.4968 10.7 12V11.0991L9.80002 11.1C9.30322 11.1 8.90002 10.6968 8.90002 10.2C8.90002 9.7032 9.30322 9.3 9.80002 9.3L10.7 9.2991V8.4C10.7 7.9032 11.1032 7.5 11.6 7.5Z" fill="#0A0D14" style="fill:#0A0D14;fill:color(display-p3 0.0392 0.0510 0.0784);fill-opacity:1;"/>
</svg>
