<svg width="25" height="24" viewBox="0 0 25 24" fill="none" xmlns="http://www.w3.org/2000/svg">
<path d="M11.6 3C15.2612 3 18.2834 5.7324 18.7406 9.2685L20.7656 12.4536C20.8988 12.6633 20.8718 12.9756 20.5631 13.1088L18.8 13.863V16.5C18.8 17.4945 17.9945 18.3 17 18.3H15.2009L15.2 21H7.10002V17.6754C7.10002 16.6134 6.70762 15.6081 5.98042 14.7009C4.99132 13.4679 4.40002 11.9028 4.40002 10.2C4.40002 6.2238 7.62382 3 11.6 3ZM11.6 7.5C11.1032 7.5 10.7 7.9032 10.7 8.4V9.2991L9.80002 9.3C9.30322 9.3 8.90002 9.7032 8.90002 10.2C8.90002 10.6968 9.30322 11.1 9.80002 11.1L10.7 11.0991V12C10.7 12.4968 11.1032 12.9 11.6 12.9C12.0968 12.9 12.5 12.4968 12.5 12V11.1H13.4C13.8968 11.1 14.3 10.6968 14.3 10.2C14.3 9.7032 13.8968 9.3 13.4 9.3H12.5V8.4C12.5 7.9032 12.0968 7.5 11.6 7.5Z" fill="#0A0D14" style="fill:#0A0D14;fill:color(display-p3 0.0392 0.0510 0.0784);fill-opacity:1;"/>
</svg>
