<svg width="25" height="24" viewBox="0 0 25 24" fill="none" xmlns="http://www.w3.org/2000/svg">
<path d="M19.6218 14.2761C19.437 13.7041 19.2344 13.138 19.0143 12.5787L18.1953 10.5573C18.1953 10.5339 18.2061 10.1361 18.2061 9.9309C18.2061 6.474 16.5564 3 12.5001 3C8.44375 3 6.79405 6.474 6.79405 9.93C6.79405 10.1361 6.80395 10.5339 6.80485 10.5573L5.98585 12.5787C5.76265 13.1574 5.54035 13.7595 5.37835 14.2761C4.60435 16.7394 4.85545 17.7591 5.04625 17.7816C5.45575 17.8302 6.64015 15.9276 6.64015 15.9276C6.64015 17.0292 7.21345 18.4674 8.45455 19.506C7.99105 19.6473 7.42225 19.8651 7.05595 20.1315C6.72745 20.3718 6.76885 20.6175 6.82825 20.7165C7.08835 21.1494 11.2878 20.9928 12.501 20.8578C13.7133 20.9928 17.9136 21.1494 18.1728 20.7156C18.2322 20.6166 18.2736 20.3718 17.9451 20.1315C17.5788 19.8651 17.01 19.6473 16.5456 19.5051C17.7867 18.4674 18.36 17.0292 18.36 15.9267C18.36 15.9267 19.5444 17.8302 19.9539 17.7807C20.1447 17.7582 20.3949 16.7394 19.6209 14.2761" fill="#0A0D14" style="fill:#0A0D14;fill:color(display-p3 0.0392 0.0510 0.0784);fill-opacity:1;"/>
</svg>
