<svg width="25" height="24" viewBox="0 0 25 24" fill="none" xmlns="http://www.w3.org/2000/svg">
<path d="M17.4814 12.4626L16.855 10.8462C16.855 10.8273 16.864 10.5087 16.864 10.344C16.8631 7.5792 15.6013 4.8 12.4999 4.8C9.39855 4.8 8.13675 7.5792 8.13675 10.344C8.13675 10.5087 8.14485 10.8273 8.14575 10.8462L7.51935 12.4626C7.34835 12.9261 7.17735 13.4076 7.05405 13.8216C6.46275 15.7917 6.65445 16.6071 6.80025 16.6251C7.11345 16.6638 8.01885 15.1419 8.01885 15.1419C8.01885 16.0239 8.45805 17.1741 9.40665 18.0039C9.05205 18.1182 8.61645 18.2919 8.33745 18.5052C8.08545 18.6978 8.11695 18.8931 8.16285 18.9732C8.36085 19.3197 11.5738 19.1937 12.5008 19.0857C13.4278 19.1937 16.6399 19.3197 16.8388 18.9723C16.8838 18.8931 16.9153 18.6978 16.6642 18.5052C16.3843 18.2919 15.9487 18.1182 15.5932 18.0048C16.5427 17.1741 16.981 16.023 16.981 15.1419C16.981 15.1419 17.8873 16.6638 18.2005 16.6251C18.3463 16.6071 18.5407 15.7899 17.9458 13.8207C17.8198 13.404 17.6533 12.9261 17.4814 12.4626ZM18.4003 19.8669C18.0646 20.4537 17.6506 20.6697 17.1061 20.8182C16.8901 20.8767 16.6579 20.9154 16.3915 20.9424C15.9955 20.9829 15.5041 21.0009 14.9398 21C14.1258 20.9984 13.3121 20.9636 12.5008 20.8956C11.878 20.9541 10.8943 20.9982 10.0618 21C9.57699 21.0052 9.09218 20.9859 8.60925 20.9424C8.36836 20.9205 8.12966 20.879 7.89555 20.8182C7.35105 20.6706 6.93705 20.4537 6.59955 19.8651C6.34197 19.4147 6.26509 18.8833 6.38445 18.3783C5.85165 18.2595 5.48355 17.9436 5.23335 17.5584C5.10709 17.3616 5.0132 17.1459 4.95525 16.9194C4.87459 16.594 4.83946 16.259 4.85085 15.924C4.86255 15.2175 5.01915 14.3382 5.32965 13.3032C5.45565 12.8838 5.62395 12.396 5.84085 11.8137L6.33855 10.5267C6.33755 10.4658 6.33695 10.4049 6.33675 10.344C6.33675 6.2445 8.52915 3 12.4999 3C16.4716 3 18.6631 6.2445 18.6631 10.344L18.6622 10.5267L19.1599 11.8137L19.1689 11.8371C19.3714 12.3825 19.5406 12.8748 19.6693 13.3005C19.9825 14.3355 20.1391 15.2166 20.1508 15.9249C20.1571 16.2912 20.1238 16.6233 20.0446 16.9221C19.9852 17.1435 19.8997 17.3541 19.7656 17.5593C19.5172 17.9436 19.15 18.2577 18.6163 18.3783C18.7333 18.8769 18.6658 19.4043 18.4003 19.8669Z" fill="#0A0D14" style="fill:#0A0D14;fill:color(display-p3 0.0392 0.0510 0.0784);fill-opacity:1;"/>
</svg>
