<svg width="25" height="24" viewBox="0 0 25 24" fill="none" xmlns="http://www.w3.org/2000/svg">
<path d="M16.1 16.5004V15.6004H13.4V12.9004H16.1V14.7004H17.9V16.5004H17V18.3004H15.2V20.1004H13.4V17.4004H15.2V16.5004H16.1ZM20.6 20.1004H17V18.3004H18.8V16.5004H20.6V20.1004ZM4.40002 3.90039H11.6V11.1004H4.40002V3.90039ZM13.4 3.90039H20.6V11.1004H13.4V3.90039ZM4.40002 12.9004H11.6V20.1004H4.40002V12.9004ZM17.9 12.9004H20.6V14.7004H17.9V12.9004ZM7.10002 6.60039V8.40039H8.90002V6.60039H7.10002ZM7.10002 15.6004V17.4004H8.90002V15.6004H7.10002ZM16.1 6.60039V8.40039H17.9V6.60039H16.1Z" fill="#0A0D14" style="fill:#0A0D14;fill:color(display-p3 0.0392 0.0510 0.0784);fill-opacity:1;"/>
</svg>
