<svg width="25" height="24" viewBox="0 0 25 24" fill="none" xmlns="http://www.w3.org/2000/svg">
<path d="M6.8867 16.5004H19.7V5.70039H5.3V17.7469L6.8867 16.5004ZM7.5095 18.3004L3.5 21.4504V4.80039C3.5 4.5617 3.59482 4.33278 3.7636 4.16399C3.93239 3.99521 4.16131 3.90039 4.4 3.90039H20.6C20.8387 3.90039 21.0676 3.99521 21.2364 4.16399C21.4052 4.33278 21.5 4.5617 21.5 4.80039V17.4004C21.5 17.6391 21.4052 17.868 21.2364 18.0368C21.0676 18.2056 20.8387 18.3004 20.6 18.3004H7.5095ZM11.6 13.8004H13.4V15.6004H11.6V13.8004ZM9.4103 9.13209C9.52723 8.5469 9.80794 8.00695 10.2198 7.57507C10.6316 7.14319 11.1576 6.83713 11.7365 6.69251C12.3155 6.5479 12.9236 6.57067 13.4902 6.75817C14.0567 6.94568 14.5583 7.29022 14.9367 7.75169C15.3151 8.21316 15.5546 8.77259 15.6275 9.36488C15.7003 9.95718 15.6034 10.558 15.3482 11.0974C15.0929 11.6368 14.6897 12.0926 14.1855 12.4118C13.6812 12.731 13.0968 12.9004 12.5 12.9004H11.6V11.1004H12.5C12.7557 11.1004 13.0061 11.0278 13.2221 10.891C13.4381 10.7542 13.6108 10.5589 13.7202 10.3278C13.8295 10.0967 13.871 9.83931 13.8398 9.58555C13.8086 9.33179 13.706 9.09212 13.5438 8.89441C13.3817 8.6967 13.1668 8.5491 12.9241 8.46876C12.6814 8.38843 12.4208 8.37867 12.1728 8.44063C11.9247 8.50258 11.6994 8.6337 11.5229 8.81873C11.3465 9.00375 11.2262 9.23508 11.1761 9.48579L9.4103 9.13209Z" fill="#0A0D14" style="fill:#0A0D14;fill:color(display-p3 0.0392 0.0510 0.0784);fill-opacity:1;"/>
</svg>
