<svg width="25" height="24" viewBox="0 0 25 24" fill="none" xmlns="http://www.w3.org/2000/svg">
<path d="M12.5 18.3C13.2452 18.3 13.85 18.9048 13.85 19.65C13.85 20.3952 13.2452 21 12.5 21C11.7548 21 11.15 20.3952 11.15 19.65C11.15 18.9048 11.7548 18.3 12.5 18.3ZM12.5 3C15.4826 3 17.9 5.4174 17.9 8.4C17.9 10.3485 17.2223 11.361 15.4934 12.8307C13.7591 14.304 13.4 14.9673 13.4 16.5H11.6C11.6 14.2734 12.3083 13.1745 14.3279 11.4591C15.6932 10.299 16.1 9.6906 16.1 8.4C16.1 6.411 14.489 4.8 12.5 4.8C10.511 4.8 8.90001 6.411 8.90001 8.4V9.3H7.10001V8.4C7.10001 5.4174 9.51741 3 12.5 3Z" fill="#0A0D14" style="fill:#0A0D14;fill:color(display-p3 0.0392 0.0510 0.0784);fill-opacity:1;"/>
</svg>
