<svg width="25" height="24" viewBox="0 0 25 24" fill="none" xmlns="http://www.w3.org/2000/svg">
<path d="M8.89998 17.4004H18.1133L19.7 18.6469V9.30039H20.6C20.8387 9.30039 21.0676 9.39521 21.2364 9.56399C21.4052 9.73278 21.5 9.9617 21.5 10.2004V22.3504L17.4905 19.2004H9.79998C9.56128 19.2004 9.33236 19.1056 9.16358 18.9368C8.9948 18.768 8.89998 18.5391 8.89998 18.3004V17.4004ZM6.60948 15.6004L2.59998 18.7504V4.80039C2.59998 4.5617 2.6948 4.33278 2.86358 4.16399C3.03236 3.99521 3.26128 3.90039 3.49998 3.90039H17C17.2387 3.90039 17.4676 3.99521 17.6364 4.16399C17.8052 4.33278 17.9 4.5617 17.9 4.80039V15.6004H6.60948Z" fill="#0A0D14" style="fill:#0A0D14;fill:color(display-p3 0.0392 0.0510 0.0784);fill-opacity:1;"/>
</svg>
