<svg width="25" height="24" viewBox="0 0 25 24" fill="none" xmlns="http://www.w3.org/2000/svg">
<path d="M12.5 21C7.5293 21 3.5 16.9707 3.5 12C3.5 7.0293 7.5293 3 12.5 3C17.4707 3 21.5 7.0293 21.5 12C21.5 16.9707 17.4707 21 12.5 21ZM12.5 19.2C14.4096 19.2 16.2409 18.4414 17.5912 17.0912C18.9414 15.7409 19.7 13.9096 19.7 12C19.7 10.0904 18.9414 8.25909 17.5912 6.90883C16.2409 5.55857 14.4096 4.8 12.5 4.8C10.5904 4.8 8.75909 5.55857 7.40883 6.90883C6.05857 8.25909 5.3 10.0904 5.3 12C5.3 13.9096 6.05857 15.7409 7.40883 17.0912C8.75909 18.4414 10.5904 19.2 12.5 19.2ZM11.6 14.7H13.4V16.5H11.6V14.7ZM13.4 13.2195V13.8H11.6V12.45C11.6 12.2113 11.6948 11.9824 11.8636 11.8136C12.0324 11.6448 12.2613 11.55 12.5 11.55C12.7557 11.55 13.0061 11.4774 13.2221 11.3406C13.4381 11.2038 13.6108 11.0085 13.7202 10.7774C13.8295 10.5463 13.871 10.2889 13.8398 10.0352C13.8086 9.7814 13.706 9.54173 13.5438 9.34402C13.3817 9.14631 13.1668 8.99871 12.9241 8.91837C12.6814 8.83804 12.4208 8.82828 12.1728 8.89023C11.9247 8.95219 11.6994 9.08331 11.5229 9.26833C11.3465 9.45336 11.2262 9.68469 11.1761 9.9354L9.4103 9.5817C9.51977 9.03458 9.77256 8.52633 10.1428 8.10893C10.5131 7.69152 10.9876 7.37992 11.5177 7.20599C12.0479 7.03205 12.6147 7.00202 13.1603 7.11895C13.7059 7.23589 14.2106 7.4956 14.6229 7.87154C15.0352 8.24748 15.3403 8.72617 15.507 9.25866C15.6737 9.79115 15.696 10.3583 15.5716 10.9023C15.4472 11.4462 15.1806 11.9473 14.7991 12.3545C14.4175 12.7616 13.9347 13.0601 13.4 13.2195Z" fill="#0A0D14" style="fill:#0A0D14;fill:color(display-p3 0.0392 0.0510 0.0784);fill-opacity:1;"/>
</svg>
