<svg width="25" height="24" viewBox="0 0 25 24" fill="none" xmlns="http://www.w3.org/2000/svg">
<path d="M7.5095 18.3004L3.5 21.4504V4.80039C3.5 4.5617 3.59482 4.33278 3.7636 4.16399C3.93239 3.99521 4.16131 3.90039 4.4 3.90039H20.6C20.8387 3.90039 21.0676 3.99521 21.2364 4.16399C21.4052 4.33278 21.5 4.5617 21.5 4.80039V17.4004C21.5 17.6391 21.4052 17.868 21.2364 18.0368C21.0676 18.2056 20.8387 18.3004 20.6 18.3004H7.5095ZM11.6 13.8004V15.6004H13.4V13.8004H11.6ZM9.4103 9.13209L11.1761 9.48579C11.2262 9.23508 11.3465 9.00375 11.5229 8.81873C11.6994 8.6337 11.9247 8.50258 12.1728 8.44063C12.4208 8.37867 12.6814 8.38843 12.9241 8.46876C13.1668 8.5491 13.3817 8.6967 13.5438 8.89441C13.706 9.09212 13.8086 9.33179 13.8398 9.58555C13.871 9.83931 13.8295 10.0967 13.7202 10.3278C13.6108 10.5589 13.4381 10.7542 13.2221 10.891C13.0061 11.0278 12.7557 11.1004 12.5 11.1004H11.6V12.9004H12.5C13.0965 12.9002 13.6807 12.7307 14.1846 12.4115C14.6885 12.0923 15.0914 11.6366 15.3465 11.0974C15.6016 10.5582 15.6983 9.95764 15.6254 9.36562C15.5526 8.77359 15.3131 8.21442 14.9349 7.75316C14.5567 7.29189 14.0553 6.94749 13.489 6.76002C12.9228 6.57254 12.3149 6.5497 11.7362 6.69415C11.1575 6.8386 10.6316 7.14441 10.2199 7.57599C9.80813 8.00758 9.52738 8.5472 9.4103 9.13209Z" fill="#0A0D14" style="fill:#0A0D14;fill:color(display-p3 0.0392 0.0510 0.0784);fill-opacity:1;"/>
</svg>
