<svg width="25" height="24" viewBox="0 0 25 24" fill="none" xmlns="http://www.w3.org/2000/svg">
<path d="M6.60948 14.7L2.59998 17.85V3.9C2.59998 3.66131 2.6948 3.43239 2.86358 3.2636C3.03236 3.09482 3.26128 3 3.49998 3H17C17.2387 3 17.4676 3.09482 17.6364 3.2636C17.8052 3.43239 17.9 3.66131 17.9 3.9V14.7H6.60948ZM5.98668 12.9H16.1V4.8H4.39998V14.1465L5.98668 12.9ZM8.89998 16.5H18.1133L19.7 17.7465V8.4H20.6C20.8387 8.4 21.0676 8.49482 21.2364 8.6636C21.4052 8.83239 21.5 9.06131 21.5 9.3V21.45L17.4905 18.3H9.79998C9.56128 18.3 9.33236 18.2052 9.16358 18.0364C8.9948 17.8676 8.89998 17.6387 8.89998 17.4V16.5Z" fill="#0A0D14" style="fill:#0A0D14;fill:color(display-p3 0.0392 0.0510 0.0784);fill-opacity:1;"/>
</svg>
