<svg width="25" height="24" viewBox="0 0 25 24" fill="none" xmlns="http://www.w3.org/2000/svg">
<path d="M7.94602 13.8324C7.73632 14.394 7.55902 14.9124 7.40062 15.4371C8.26462 14.8098 9.29152 14.412 10.4768 14.2635C12.7385 13.9809 14.7482 12.4878 15.7652 10.6113L14.4548 9.3018L15.7265 8.0283L16.6265 7.1274C17.0135 6.7404 17.45 6.0258 17.9117 4.9962C12.878 5.7765 9.79552 8.859 7.94512 13.8324H7.94602ZM17 9.3009L17.9 10.2C17 12.9 14.3 15.6 10.7 16.05C8.29792 16.3506 6.79762 18.0003 6.19822 21H4.40002C5.30002 15.6 7.10002 3 20.6 3C19.7 5.6973 18.8018 7.4964 17.9027 8.3973L17 9.3009Z" fill="#0A0D14" style="fill:#0A0D14;fill:color(display-p3 0.0392 0.0510 0.0784);fill-opacity:1;"/>
</svg>
