<svg width="25" height="24" viewBox="0 0 25 24" fill="none" xmlns="http://www.w3.org/2000/svg">
<path d="M14.6312 5.1584L11.4956 10.5899L13.0544 11.4899L16.19 6.0584C19.943 8.5532 21.8654 12.4304 20.294 15.1502C18.62 18.05 13.8239 18.1697 9.57501 15.7172C5.32611 13.262 3.03201 9.0491 4.70601 6.1502C6.27651 3.4295 10.5947 3.1559 14.6312 5.1584ZM15.9956 2.7959L17.5544 3.6959L16.2044 6.0341L14.6456 5.1341L15.9956 2.7959ZM7.75881 19.2002H17V21.0002H6.21531C6.05466 21.0034 5.89611 20.9633 5.75628 20.8841C5.61646 20.8049 5.50052 20.6896 5.42061 20.5502C5.34206 20.4132 5.30072 20.2581 5.30072 20.1002C5.30072 19.9423 5.34206 19.7872 5.42061 19.6502L7.44561 16.1429L9.00441 17.0429L7.75881 19.2002Z" fill="#0A0D14" style="fill:#0A0D14;fill:color(display-p3 0.0392 0.0510 0.0784);fill-opacity:1;"/>
</svg>
