<svg width="25" height="24" viewBox="0 0 25 24" fill="none" xmlns="http://www.w3.org/2000/svg">
<path d="M12.9554 4.4609L12.0347 6.0557C9.41571 5.2646 7.07211 5.6507 6.26481 7.0502C5.20461 8.8862 6.97581 12.137 10.475 14.1575C13.9742 16.178 17.675 16.0853 18.7352 14.2502C19.5434 12.8507 18.7055 10.6286 16.7111 8.7557L17.6318 7.1609C20.4056 9.599 21.6485 12.8039 20.294 15.1502C18.62 18.05 13.8239 18.1697 9.57501 15.7172C5.32611 13.262 3.03201 9.0491 4.70601 6.1502C6.06051 3.8039 9.45801 3.2774 12.9554 4.4609ZM15.9956 2.7959L17.5544 3.6959L13.0544 11.4899L11.4956 10.5899L15.9956 2.7959ZM7.75881 19.2002H17V21.0002H6.21531C6.05466 21.0034 5.89611 20.9633 5.75628 20.8841C5.61646 20.8049 5.50052 20.6896 5.42061 20.5502C5.34206 20.4132 5.30072 20.2581 5.30072 20.1002C5.30072 19.9423 5.34206 19.7872 5.42061 19.6502L7.44561 16.1429L9.00441 17.0429L7.75881 19.2002Z" fill="#0A0D14" style="fill:#0A0D14;fill:color(display-p3 0.0392 0.0510 0.0784);fill-opacity:1;"/>
</svg>
