<svg width="25" height="24" viewBox="0 0 25 24" fill="none" xmlns="http://www.w3.org/2000/svg">
<path d="M12.5 4.80078C17.9675 4.80078 22.4 9.23328 22.4 14.7008V19.2008H20.6V14.7008C20.6 12.5938 19.779 10.5698 18.3112 9.05823C16.8435 7.54663 14.8445 6.66642 12.7385 6.60438L12.5 6.60078C10.393 6.6008 8.36902 7.42179 6.85742 8.88954C5.34582 10.3573 4.46561 12.3563 4.40358 14.4623L4.39998 14.7008V19.2008H2.59998V14.7008C2.59998 9.23328 7.03248 4.80078 12.5 4.80078ZM12.5 8.40078C14.1708 8.40078 15.7733 9.06453 16.9547 10.246C18.1362 11.4275 18.8 13.0299 18.8 14.7008V19.2008H17V14.7008C16.9999 13.5412 16.5522 12.4263 15.7502 11.5888C14.9482 10.7512 13.8538 10.2556 12.6953 10.2053L12.5 10.2008C11.3404 10.2008 10.2255 10.6486 9.38798 11.4506C8.55042 12.2526 8.0548 13.347 8.00448 14.5055L7.99998 14.7008V19.2008H6.19998V14.7008C6.19998 13.0299 6.86372 11.4275 8.0452 10.246C9.22668 9.06453 10.8291 8.40078 12.5 8.40078ZM12.5 12.0008C13.2161 12.0008 13.9028 12.2852 14.4092 12.7916C14.9155 13.2979 15.2 13.9847 15.2 14.7008V19.2008H13.4V14.7008C13.3999 14.4803 13.319 14.2676 13.1725 14.1028C13.026 13.9381 12.8242 13.8329 12.6053 13.8071L12.5 13.8008C12.2795 13.8008 12.0668 13.8817 11.902 14.0282C11.7373 14.1747 11.6321 14.3766 11.6063 14.5955L11.6 14.7008V19.2008H9.79998V14.7008C9.79998 13.9847 10.0844 13.2979 10.5908 12.7916C11.0971 12.2852 11.7839 12.0008 12.5 12.0008Z" fill="#0A0D14" style="fill:#0A0D14;fill:color(display-p3 0.0392 0.0510 0.0784);fill-opacity:1;"/>
</svg>
