<svg width="25" height="24" viewBox="0 0 25 24" fill="none" xmlns="http://www.w3.org/2000/svg">
<path d="M16.1 17.4V15.6H17C17.559 15.5997 18.1102 15.4692 18.6101 15.2189C19.1099 14.9686 19.5445 14.6053 19.8796 14.1579C20.2147 13.7104 20.4409 13.1911 20.5405 12.641C20.64 12.091 20.6101 11.5253 20.4531 10.9888C20.2961 10.4523 20.0163 9.95975 19.6359 9.55016C19.2554 9.14056 18.7849 8.82518 18.2614 8.62899C17.738 8.43281 17.1761 8.36122 16.6202 8.41988C16.0643 8.47855 15.5297 8.66587 15.0587 8.967C14.8355 8.01626 14.3587 7.14384 13.679 6.44262C12.9992 5.7414 12.1421 5.23764 11.1987 4.98497C10.2554 4.7323 9.26121 4.74018 8.32199 5.00776C7.38278 5.27535 6.53371 5.79263 5.86519 6.50453C5.19667 7.21643 4.73371 8.0963 4.52562 9.05046C4.31753 10.0046 4.37208 10.9974 4.68348 11.923C4.99488 12.8486 5.55146 13.6724 6.29397 14.3068C7.03648 14.9411 7.93712 15.3622 8.9 15.5253V17.3451C7.08299 17.1157 5.42166 16.2026 4.25408 14.7917C3.0865 13.3807 2.50042 11.5778 2.61509 9.75001C2.72977 7.92218 3.53659 6.20672 4.87137 4.95274C6.20615 3.69876 7.96857 3.00048 9.8 3C11.0795 2.99945 12.3361 3.33997 13.4403 3.98649C14.5444 4.63302 15.4563 5.56219 16.082 6.6783C16.819 6.55141 17.5743 6.57898 18.3 6.75926C19.0258 6.93954 19.7062 7.2686 20.2982 7.72559C20.8901 8.18258 21.3807 8.75753 21.7388 9.41403C22.0969 10.0705 22.3148 10.7942 22.3786 11.5393C22.4424 12.2844 22.3507 13.0347 22.1094 13.7425C21.8681 14.4503 21.4824 15.1003 20.9767 15.6512C20.4711 16.2022 19.8565 16.6421 19.172 16.9432C18.4874 17.2442 17.7478 17.3998 17 17.4H16.1ZM10.9088 18.0588L12.5 16.4676L14.0912 18.0588C14.4058 18.3735 14.62 18.7744 14.7068 19.2108C14.7936 19.6473 14.749 20.0997 14.5787 20.5108C14.4084 20.9219 14.12 21.2732 13.75 21.5204C13.38 21.7676 12.945 21.8996 12.5 21.8996C12.055 21.8996 11.62 21.7676 11.25 21.5204C10.88 21.2732 10.5916 20.9219 10.4213 20.5108C10.251 20.0997 10.2064 19.6473 10.2932 19.2108C10.38 18.7744 10.5942 18.3735 10.9088 18.0588Z" fill="#0A0D14" style="fill:#0A0D14;fill:color(display-p3 0.0392 0.0510 0.0784);fill-opacity:1;"/>
</svg>
