<svg width="25" height="24" viewBox="0 0 25 24" fill="none" xmlns="http://www.w3.org/2000/svg">
<path d="M15.974 17.3997L13.1363 14.562C12.9675 14.3933 12.7387 14.2985 12.5 14.2985C12.2614 14.2985 12.0325 14.3933 11.8637 14.562L9.062 17.3637C7.83214 17.2367 6.65569 16.7952 5.64597 16.0816C4.63624 15.3681 3.82725 14.4066 3.2969 13.2897C2.76655 12.1728 2.53272 10.9382 2.61792 9.7047C2.70312 8.47124 3.10448 7.28049 3.78334 6.24713C4.46221 5.21376 5.39572 4.37261 6.49396 3.80467C7.59221 3.23672 8.81818 2.96113 10.0538 3.00442C11.2895 3.04771 12.4932 3.40843 13.549 4.05184C14.6048 4.69525 15.4771 5.59967 16.082 6.67801C16.819 6.55112 17.5743 6.57869 18.3 6.75897C19.0258 6.93925 19.7062 7.26831 20.2982 7.7253C20.8901 8.18228 21.3807 8.75724 21.7388 9.41373C22.0969 10.0702 22.3148 10.7939 22.3786 11.539C22.4424 12.2841 22.3507 13.0344 22.1094 13.7422C21.8681 14.45 21.4824 15.1 20.9768 15.6509C20.4711 16.2019 19.8566 16.6418 19.172 16.9429C18.4874 17.2439 17.7478 17.3995 17 17.3997H15.9749H15.974ZM10.9088 18.0585L12.5 16.4673L14.0912 18.0585C14.4058 18.3732 14.62 18.7741 14.7068 19.2106C14.7936 19.647 14.749 20.0994 14.5787 20.5105C14.4084 20.9216 14.12 21.2729 13.75 21.5201C13.38 21.7673 12.945 21.8993 12.5 21.8993C12.055 21.8993 11.62 21.7673 11.25 21.5201C10.88 21.2729 10.5916 20.9216 10.4213 20.5105C10.251 20.0994 10.2064 19.647 10.2932 19.2106C10.38 18.7741 10.5942 18.3732 10.9088 18.0585Z" fill="#0A0D14" style="fill:#0A0D14;fill:color(display-p3 0.0392 0.0510 0.0784);fill-opacity:1;"/>
</svg>
