<svg width="25" height="24" viewBox="0 0 25 24" fill="none" xmlns="http://www.w3.org/2000/svg">
<path d="M12.5 4.80078C17.9675 4.80078 22.4 9.23328 22.4 14.7008V19.2008H19.7V14.7008C19.7 12.8302 18.9719 11.0331 17.6701 9.68985C16.3682 8.34664 14.5946 7.56284 12.725 7.50438L12.5 7.50078C10.6294 7.5008 8.83224 8.22882 7.48904 9.5307C6.14584 10.8326 5.36203 12.6061 5.30358 14.4758L5.29998 14.7008V19.2008H2.59998V14.7008C2.59998 9.23328 7.03248 4.80078 12.5 4.80078ZM12.5 8.40078C14.1708 8.40078 15.7733 9.06453 16.9547 10.246C18.1362 11.4275 18.8 13.0299 18.8 14.7008V19.2008H16.1V14.7008C16.1 13.7772 15.745 12.8889 15.1084 12.2197C14.4719 11.5504 13.6024 11.1515 12.68 11.1053L12.5 11.1008C11.5764 11.1008 10.6881 11.4558 10.0188 12.0923C9.34962 12.7289 8.95066 13.5983 8.90448 14.5208L8.89998 14.7008V19.2008H6.19998V14.7008C6.19998 13.0299 6.86372 11.4275 8.0452 10.246C9.22668 9.06453 10.8291 8.40078 12.5 8.40078ZM12.5 12.0008C13.2161 12.0008 13.9028 12.2852 14.4092 12.7916C14.9155 13.2979 15.2 13.9847 15.2 14.7008V19.2008H9.79998V14.7008C9.79998 13.9847 10.0844 13.2979 10.5908 12.7916C11.0971 12.2852 11.7839 12.0008 12.5 12.0008Z" fill="#0A0D14" style="fill:#0A0D14;fill:color(display-p3 0.0392 0.0510 0.0784);fill-opacity:1;"/>
</svg>
