<svg width="25" height="24" viewBox="0 0 25 24" fill="none" xmlns="http://www.w3.org/2000/svg">
<path d="M14.7032 15.816C14.2213 16.5012 13.6962 17.1551 13.1309 17.7735C14.6357 19.2342 16.0361 19.9182 16.8119 19.4691C17.5895 19.0209 17.6966 17.4666 17.1845 15.4335C16.4168 15.6045 15.5825 15.7341 14.7032 15.816ZM13.5242 15.8943C12.8417 15.9225 12.1583 15.9225 11.4758 15.8943C11.8151 16.3371 12.158 16.7475 12.5 17.1219C12.842 16.7475 13.184 16.3371 13.5242 15.8943ZM18.0602 8.78965C20.4587 9.47725 22.0247 10.6203 22.0247 12C22.0247 13.3797 20.4587 14.5227 18.0602 15.2103C18.6632 17.6313 18.4571 19.5591 17.2628 20.2485C16.0676 20.9388 14.2946 20.154 12.5 18.4215C10.7054 20.154 8.93244 20.9388 7.73724 20.2485C6.54294 19.5591 6.33594 17.6313 6.93984 15.2103C4.54134 14.5227 2.97534 13.3797 2.97534 12C2.97534 10.6203 4.54134 9.47725 6.93984 8.78965C6.33684 6.36865 6.54294 4.44085 7.73724 3.75145C8.93244 3.06115 10.7054 3.84595 12.5 5.57845C14.2946 3.84595 16.0676 3.06115 17.2628 3.75145C18.4571 4.44085 18.6641 6.36865 18.0602 8.78965ZM17.1845 8.56645C17.6975 6.53245 17.5895 4.97905 16.8128 4.53085C16.0361 4.08175 14.6357 4.76575 13.1318 6.22645C13.6637 6.80515 14.1929 7.46305 14.7032 8.18395C15.5834 8.26495 16.4168 8.39455 17.1845 8.56645ZM7.81554 15.4335C7.30254 17.4675 7.41054 19.0209 8.18724 19.4691C8.96394 19.9182 10.3643 19.2342 11.8682 17.7735C11.3033 17.155 10.7785 16.5012 10.2968 15.816C9.46245 15.7414 8.63366 15.6136 7.81554 15.4335ZM11.4758 8.10565C12.1583 8.0774 12.8417 8.0774 13.5242 8.10565C13.2007 7.68217 12.859 7.27288 12.5 6.87895C12.158 7.25335 11.816 7.66375 11.4758 8.10655V8.10565ZM10.2968 8.18395C10.7791 7.49864 11.3045 6.84481 11.87 6.22645C10.3643 4.76575 8.96304 4.08175 8.18814 4.53085C7.41054 4.97905 7.30344 6.53335 7.81554 8.56645C8.58324 8.39545 9.41754 8.26585 10.2968 8.18395ZM14.2046 14.952C14.8453 14.0118 15.4148 13.025 15.9083 12C15.4148 10.9749 14.8453 9.98813 14.2046 9.04795C13.0698 8.96299 11.9303 8.96299 10.7954 9.04795C10.1548 9.98813 9.5853 10.9749 9.09174 12C9.5853 13.025 10.1548 14.0118 10.7954 14.952C11.9303 15.0369 13.0698 15.0369 14.2046 14.952ZM15.3602 14.8341C15.9137 14.7621 16.4402 14.6694 16.9352 14.5605C16.7734 14.0526 16.5896 13.5521 16.3844 13.0602C16.0676 13.665 15.7259 14.2565 15.3602 14.8332V14.8341ZM9.63984 9.16495C9.08634 9.23695 8.55984 9.32965 8.06484 9.43855C8.21784 9.92095 8.40144 10.4232 8.61564 10.9389C8.93245 10.334 9.27414 9.74248 9.63984 9.16585V9.16495ZM8.06484 14.5596C8.55984 14.6685 9.08634 14.7603 9.63984 14.8332C9.27414 14.2565 8.93245 13.665 8.61564 13.0602C8.40144 13.575 8.21784 14.0772 8.06484 14.5596ZM7.18464 14.3391C7.41954 13.5885 7.72464 12.8019 8.09364 11.9991C7.72464 11.1963 7.41954 10.4097 7.18464 9.65905C5.16684 10.2324 3.87534 11.1027 3.87534 11.9991C3.87534 12.8955 5.16684 13.7658 7.18464 14.3391ZM16.9352 9.43855C16.4402 9.32965 15.9137 9.23785 15.3602 9.16495C15.7259 9.74158 16.0676 10.3331 16.3844 10.938C16.5986 10.4232 16.7822 9.92095 16.9352 9.43855ZM17.8154 9.65905C17.5805 10.4097 17.2754 11.1963 16.9064 11.9991C17.2754 12.8019 17.5805 13.5885 17.8154 14.3391C19.8332 13.7658 21.1247 12.8955 21.1247 11.9991C21.1247 11.1027 19.8332 10.2324 17.8154 9.65905ZM12.5 13.692C12.2778 13.692 12.0578 13.6482 11.8525 13.5632C11.6473 13.4781 11.4607 13.3535 11.3036 13.1964C11.1465 13.0393 11.0219 12.8527 10.9368 12.6475C10.8518 12.4422 10.808 12.2221 10.808 12C10.808 11.7778 10.8518 11.5577 10.9368 11.3525C11.0219 11.1472 11.1465 10.9606 11.3036 10.8035C11.4607 10.6464 11.6473 10.5218 11.8525 10.4367C12.0578 10.3517 12.2778 10.308 12.5 10.308C12.9488 10.308 13.3792 10.4862 13.6965 10.8035C14.0138 11.1208 14.192 11.5512 14.192 12C14.192 12.4487 14.0138 12.8791 13.6965 13.1964C13.3792 13.5137 12.9488 13.692 12.5 13.692Z" fill="#0A0D14" style="fill:#0A0D14;fill:color(display-p3 0.0392 0.0510 0.0784);fill-opacity:1;"/>
</svg>
