<svg width="25" height="24" viewBox="0 0 25 24" fill="none" xmlns="http://www.w3.org/2000/svg">
<path d="M12.5 13.3497C12.142 13.3497 11.7986 13.2074 11.5455 12.9543C11.2923 12.7011 11.15 12.3577 11.15 11.9997C11.15 11.6416 11.2923 11.2982 11.5455 11.0451C11.7986 10.7919 12.142 10.6497 12.5 10.6497C12.8581 10.6497 13.2015 10.7919 13.4546 11.0451C13.7078 11.2982 13.85 11.6416 13.85 11.9997C13.85 12.3577 13.7078 12.7011 13.4546 12.9543C13.2015 13.2074 12.8581 13.3497 12.5 13.3497ZM12.0248 16.0443C12.1823 16.2333 12.3407 16.4169 12.5 16.5924C12.6593 16.4169 12.8177 16.2342 12.9752 16.0443C12.6585 16.051 12.3416 16.051 12.0248 16.0443ZM10.2293 15.9318C9.5382 15.8598 8.85163 15.7493 8.17285 15.6006C8.10535 15.9156 8.05405 16.2216 8.01985 16.515C7.84885 17.9397 8.08735 18.8055 8.45005 19.0143C8.81275 19.224 9.68125 18.9972 10.8305 18.1377C11.0672 17.9604 11.3057 17.7633 11.5451 17.5482C11.0767 17.0344 10.6374 16.4947 10.2293 15.9318ZM16.8272 15.6006C16.1819 15.7446 15.4925 15.8562 14.7707 15.9318C14.3627 16.4947 13.9234 17.0344 13.4549 17.5482C13.6943 17.7642 13.9328 17.9604 14.1695 18.1377C15.3188 18.9972 16.1873 19.224 16.55 19.0143C16.9127 18.8055 17.1503 17.9397 16.9811 16.515C16.944 16.208 16.8929 15.9029 16.8281 15.6006H16.8272ZM18.1322 15.2523C18.6515 17.6274 18.3788 19.5183 17.225 20.1843C16.0712 20.8503 14.2973 20.1411 12.5 18.504C10.7027 20.1411 8.92885 20.8494 7.77505 20.1834C6.62125 19.5174 6.34855 17.6274 6.86695 15.2514C4.55035 14.5143 3.05005 13.3317 3.05005 11.9997C3.05005 10.6677 4.55035 9.48597 6.86695 8.74707C6.34855 6.37197 6.62125 4.48107 7.77505 3.81507C8.92885 3.14907 10.7027 3.85827 12.5 5.49537C14.2973 3.85827 16.0712 3.14997 17.225 3.81597C18.3788 4.48197 18.6515 6.37197 18.1331 8.74797C20.4497 9.48507 21.95 10.6677 21.95 11.9997C21.95 13.3317 20.4497 14.5134 18.1331 15.2523H18.1322ZM11.5442 6.45117C11.3154 6.244 11.0772 6.04729 10.8305 5.86167C9.68125 5.00217 8.81275 4.77537 8.45005 4.98507C8.08735 5.19387 7.84975 6.05967 8.01895 7.48437C8.05495 7.77867 8.10535 8.08377 8.17195 8.39877C8.85102 8.25003 9.5379 8.13946 10.2293 8.06757C10.6568 7.47987 11.0978 6.93897 11.5451 6.45117H11.5442ZM14.7707 8.06757C15.4925 8.14317 16.1819 8.25567 16.8272 8.39877C16.8947 8.08377 16.946 7.77777 16.9802 7.48437C17.1512 6.05967 16.9127 5.19387 16.55 4.98507C16.1873 4.77537 15.3188 5.00217 14.1695 5.86167C13.9226 6.04727 13.6841 6.24397 13.4549 6.45117C13.9022 6.93897 14.3432 7.47987 14.7707 8.06757ZM12.9752 7.95507C12.8177 7.76607 12.6593 7.58247 12.5 7.40697C12.3407 7.58247 12.1823 7.76517 12.0248 7.95507C12.3416 7.94835 12.6585 7.94835 12.9752 7.95507ZM9.23485 14.4333C9.07065 14.1625 8.91221 13.8882 8.75965 13.6107C8.67415 13.842 8.59495 14.0697 8.52295 14.2956C8.75425 14.346 8.99185 14.3919 9.23395 14.4333H9.23485ZM10.9736 14.6439C11.9898 14.7193 13.0102 14.7193 14.0264 14.6439C14.5999 13.8014 15.1101 12.9176 15.5528 11.9997C15.1101 11.0817 14.5999 10.1979 14.0264 9.35547C13.0102 9.27999 11.9898 9.27999 10.9736 9.35547C10.4002 10.1979 9.88997 11.0817 9.44725 11.9997C9.88997 12.9176 10.4002 13.8014 10.9736 14.6439ZM16.2404 10.3887C16.3259 10.1574 16.4051 9.92967 16.4771 9.70377C16.2412 9.65257 16.0041 9.60666 15.7661 9.56607C15.93 9.83689 16.0882 10.1111 16.2404 10.3887ZM7.21705 10.053C6.91105 10.152 6.62125 10.26 6.34945 10.377C5.03095 10.9422 4.40005 11.5812 4.40005 11.9997C4.40005 12.4182 5.03005 13.0572 6.34945 13.6224C6.62125 13.7394 6.91105 13.8474 7.21705 13.9464C7.41685 13.3164 7.66435 12.663 7.95955 11.9997C7.67589 11.3651 7.428 10.7152 7.21705 10.053ZM8.52205 9.70377C8.59495 9.92877 8.67415 10.1574 8.75965 10.3878C8.91223 10.1105 9.07066 9.83658 9.23485 9.56607C8.99185 9.60747 8.75425 9.65337 8.52295 9.70377H8.52205ZM17.783 13.9464C18.089 13.8474 18.3788 13.7394 18.6506 13.6224C19.9691 13.0572 20.6 12.4182 20.6 11.9997C20.6 11.5812 19.97 10.9422 18.6506 10.377C18.3665 10.2559 18.077 10.1478 17.783 10.053C17.5832 10.683 17.3357 11.3364 17.0405 11.9997C17.3357 12.663 17.5832 13.3155 17.783 13.9464ZM16.478 14.2956C16.4051 14.0706 16.3259 13.842 16.2404 13.6116C16.0879 13.8888 15.9294 14.1628 15.7652 14.4333C16.0082 14.3919 16.2458 14.346 16.4771 14.2956H16.478Z" fill="#0A0D14" style="fill:#0A0D14;fill:color(display-p3 0.0392 0.0510 0.0784);fill-opacity:1;"/>
</svg>
