<svg width="25" height="24" viewBox="0 0 25 24" fill="none" xmlns="http://www.w3.org/2000/svg">
<path d="M10.4688 14.7001H14.5314C13.8156 13.8324 13.4166 12.7467 13.4003 11.6219C13.384 10.4972 13.7512 9.40038 14.4416 8.51224C15.132 7.62411 16.1042 6.99759 17.1982 6.73591C18.2923 6.47422 19.4428 6.59297 20.4603 7.07259C21.4778 7.55221 22.3016 8.3641 22.7961 9.37451C23.2905 10.3849 23.426 11.5336 23.1803 12.6313C22.9345 13.7291 22.3223 14.7104 21.4443 15.4136C20.5663 16.1168 19.475 16.5 18.3501 16.5001H6.65011C5.52522 16.5 4.4339 16.1168 3.55592 15.4136C2.67794 14.7104 2.06567 13.7291 1.81996 12.6313C1.57425 11.5336 1.70976 10.3849 2.20416 9.37451C2.69856 8.3641 3.52237 7.55221 4.53989 7.07259C5.5574 6.59297 6.70794 6.47422 7.80196 6.73591C8.89599 6.99759 9.86826 7.62411 10.5586 8.51224C11.249 9.40038 11.6162 10.4972 11.5999 11.6219C11.5836 12.7467 11.1846 13.8324 10.4688 14.7001ZM6.65011 12.9001C7.00815 12.9001 7.35153 12.7579 7.6047 12.5047C7.85787 12.2515 8.00011 11.9081 8.00011 11.5501C8.00011 11.1921 7.85787 10.8487 7.6047 10.5955C7.35153 10.3423 7.00815 10.2001 6.65011 10.2001C6.29206 10.2001 5.94869 10.3423 5.69551 10.5955C5.44234 10.8487 5.30011 11.1921 5.30011 11.5501C5.30011 11.9081 5.44234 12.2515 5.69551 12.5047C5.94869 12.7579 6.29206 12.9001 6.65011 12.9001ZM18.3501 12.9001C18.7081 12.9001 19.0515 12.7579 19.3047 12.5047C19.5579 12.2515 19.7001 11.9081 19.7001 11.5501C19.7001 11.1921 19.5579 10.8487 19.3047 10.5955C19.0515 10.3423 18.7081 10.2001 18.3501 10.2001C17.9921 10.2001 17.6487 10.3423 17.3955 10.5955C17.1423 10.8487 17.0001 11.1921 17.0001 11.5501C17.0001 11.9081 17.1423 12.2515 17.3955 12.5047C17.6487 12.7579 17.9921 12.9001 18.3501 12.9001Z" fill="#0A0D14" style="fill:#0A0D14;fill:color(display-p3 0.0392 0.0510 0.0784);fill-opacity:1;"/>
</svg>
