<svg width="25" height="24" viewBox="0 0 25 24" fill="none" xmlns="http://www.w3.org/2000/svg">
<path d="M14.5314 14.7001C13.8156 13.8324 13.4166 12.7467 13.4003 11.6219C13.384 10.4972 13.7512 9.40038 14.4416 8.51224C15.132 7.62411 16.1042 6.99759 17.1982 6.73591C18.2923 6.47422 19.4428 6.59297 20.4603 7.07259C21.4778 7.55221 22.3016 8.3641 22.7961 9.37451C23.2905 10.3849 23.426 11.5336 23.1803 12.6313C22.9345 13.7291 22.3223 14.7104 21.4443 15.4136C20.5663 16.1168 19.475 16.5 18.3501 16.5001H6.65011C5.52522 16.5 4.4339 16.1168 3.55592 15.4136C2.67794 14.7104 2.06567 13.7291 1.81996 12.6313C1.57425 11.5336 1.70976 10.3849 2.20416 9.37451C2.69856 8.3641 3.52237 7.55221 4.53989 7.07259C5.5574 6.59297 6.70794 6.47422 7.80196 6.73591C8.89599 6.99759 9.86826 7.62411 10.5586 8.51224C11.249 9.40038 11.6162 10.4972 11.5999 11.6219C11.5836 12.7467 11.1846 13.8324 10.4688 14.7001H14.5314ZM6.65011 14.7001C7.48554 14.7001 8.28675 14.3682 8.87749 13.7775C9.46823 13.1867 9.80011 12.3855 9.80011 11.5501C9.80011 10.7147 9.46823 9.91346 8.87749 9.32272C8.28675 8.73198 7.48554 8.4001 6.65011 8.4001C5.81467 8.4001 5.01346 8.73198 4.42272 9.32272C3.83198 9.91346 3.50011 10.7147 3.50011 11.5501C3.50011 12.3855 3.83198 13.1867 4.42272 13.7775C5.01346 14.3682 5.81467 14.7001 6.65011 14.7001ZM18.3501 14.7001C19.1855 14.7001 19.9868 14.3682 20.5775 13.7775C21.1682 13.1867 21.5001 12.3855 21.5001 11.5501C21.5001 10.7147 21.1682 9.91346 20.5775 9.32272C19.9868 8.73198 19.1855 8.4001 18.3501 8.4001C17.5147 8.4001 16.7135 8.73198 16.1227 9.32272C15.532 9.91346 15.2001 10.7147 15.2001 11.5501C15.2001 12.3855 15.532 13.1867 16.1227 13.7775C16.7135 14.3682 17.5147 14.7001 18.3501 14.7001Z" fill="#0A0D14" style="fill:#0A0D14;fill:color(display-p3 0.0392 0.0510 0.0784);fill-opacity:1;"/>
</svg>
