<svg width="25" height="24" viewBox="0 0 25 24" fill="none" xmlns="http://www.w3.org/2000/svg">
<path d="M12.5 21C7.5293 21 3.5 16.9707 3.5 12C3.5 7.0293 7.5293 3 12.5 3C17.4707 3 21.5 7.0293 21.5 12C21.5 16.9707 17.4707 21 12.5 21ZM12.5 14.7C13.2161 14.7 13.9028 14.4155 14.4092 13.9092C14.9155 13.4028 15.2 12.7161 15.2 12C15.2 11.2839 14.9155 10.5972 14.4092 10.0908C13.9028 9.58446 13.2161 9.3 12.5 9.3C11.7839 9.3 11.0972 9.58446 10.5908 10.0908C10.0845 10.5972 9.8 11.2839 9.8 12C9.8 12.7161 10.0845 13.4028 10.5908 13.9092C11.0972 14.4155 11.7839 14.7 12.5 14.7Z" fill="#0A0D14" style="fill:#0A0D14;fill:color(display-p3 0.0392 0.0510 0.0784);fill-opacity:1;"/>
</svg>
