<svg width="25" height="24" viewBox="0 0 25 24" fill="none" xmlns="http://www.w3.org/2000/svg">
<path d="M19.3058 12.0881L20.6837 14.4749C21.554 15.9815 21.0374 17.9084 19.5317 18.7778C19.052 19.0541 18.5093 19.1999 17.9567 19.1999H16.1V20.9999L11.6 17.8499L16.1 14.6999V16.4999H17.9558C18.035 16.4999 18.1124 16.4792 18.1808 16.4396C18.3725 16.3289 18.4517 16.0994 18.3797 15.8987L18.3455 15.8249L16.9676 13.4381L19.3058 12.0881ZM8.66332 9.64548L9.14032 15.1175L7.58332 14.2175L6.65452 15.8249C6.61492 15.8933 6.59422 15.9707 6.59422 16.0499C6.59422 16.2704 6.75352 16.4549 6.96322 16.4927L7.04422 16.4999H9.80002V19.1999H7.04422C5.30452 19.1999 3.89422 17.7896 3.89422 16.0499C3.89422 15.4973 4.04002 14.9537 4.31632 14.4749L5.24422 12.8675L3.68542 11.9675L8.66242 9.64548H8.66332ZM14.075 3.87198C14.5538 4.14828 14.9516 4.54608 15.2279 5.02488L16.1549 6.63228L17.7146 5.73228L17.2376 11.2043L12.2588 8.88228L13.8176 7.98228L12.8897 6.37488C12.8501 6.30648 12.7934 6.24888 12.725 6.21018C12.5333 6.09948 12.2948 6.14538 12.1571 6.30918L12.1103 6.37488L10.7333 8.76168L8.39422 7.41168L9.77122 5.02488C10.6415 3.51828 12.5684 3.00168 14.075 3.87198Z" fill="#0A0D14" style="fill:#0A0D14;fill:color(display-p3 0.0392 0.0510 0.0784);fill-opacity:1;"/>
</svg>
