<svg width="25" height="24" viewBox="0 0 25 24" fill="none" xmlns="http://www.w3.org/2000/svg">
<path d="M19.3058 12.0872L20.6837 14.4749C21.554 15.9815 21.0374 17.9084 19.5317 18.7778C19.052 19.0541 18.5093 19.1999 17.9567 19.1999H16.1V21.4499L11.6 18.2999L16.1 15.1499V17.3999H17.9558C18.1925 17.3999 18.4256 17.3369 18.6308 17.219C19.277 16.8464 19.4975 16.0202 19.1258 15.3749L17.747 12.9872L19.3058 12.0872ZM8.27355 9.42048L8.75055 14.8925L6.80295 13.7675L5.87505 15.3749C5.75625 15.5801 5.69415 15.8132 5.69415 16.0499C5.69415 16.7951 6.29805 17.3999 7.04415 17.3999H9.79995V19.1999H7.04415C5.30445 19.1999 3.89415 17.7896 3.89415 16.0499C3.89415 15.4973 4.03995 14.9537 4.31625 14.4749L5.24325 12.8666L3.29565 11.7425L8.27265 9.42048H8.27355ZM14.075 3.87198C14.5538 4.14828 14.9516 4.54608 15.2279 5.02488L16.1549 6.63138L18.1043 5.50638L17.6273 10.9793L12.6485 8.65728L14.597 7.53228L13.6691 5.92488C13.5503 5.71968 13.3802 5.54958 13.175 5.43078C12.5297 5.05818 11.7035 5.27958 11.3309 5.92488L9.95205 8.31258L8.39325 7.41258L9.77295 5.02488C10.6424 3.51828 12.5693 3.00168 14.0759 3.87198H14.075Z" fill="#0A0D14" style="fill:#0A0D14;fill:color(display-p3 0.0392 0.0510 0.0784);fill-opacity:1;"/>
</svg>
