<svg width="25" height="24" viewBox="0 0 25 24" fill="none" xmlns="http://www.w3.org/2000/svg">
<path d="M20.6 6.5433C19.0048 8.35495 16.8479 9.57915 14.4746 10.02C14.281 9.66547 13.9954 9.36962 13.648 9.16351C13.3005 8.9574 12.904 8.84864 12.5 8.84864C12.096 8.84864 11.6995 8.9574 11.3521 9.16351C11.0046 9.36962 10.7191 9.66547 10.5254 10.02C8.15212 9.57915 5.99528 8.35495 4.40002 6.5433V3.9C4.40002 3.66131 4.49485 3.43239 4.66363 3.2636C4.83241 3.09482 5.06133 3 5.30002 3H19.7C19.9387 3 20.1676 3.09482 20.3364 3.2636C20.5052 3.43239 20.6 3.66131 20.6 3.9V6.5433ZM20.6 9.0516V20.1C20.6 20.3387 20.5052 20.5676 20.3364 20.7364C20.1676 20.9052 19.9387 21 19.7 21H5.30002C5.06133 21 4.83241 20.9052 4.66363 20.7364C4.49485 20.5676 4.40002 20.3387 4.40002 20.1V9.0516C6.1075 10.4885 8.16726 11.4442 10.367 11.82C10.5175 12.2665 10.8043 12.6545 11.187 12.9293C11.5696 13.2041 12.0289 13.352 12.5 13.352C12.9712 13.352 13.4304 13.2041 13.8131 12.9293C14.1958 12.6545 14.4825 12.2665 14.633 11.82C16.8328 11.4442 18.8926 10.4885 20.6 9.0516Z" fill="#0A0D14" style="fill:#0A0D14;fill:color(display-p3 0.0392 0.0510 0.0784);fill-opacity:1;"/>
</svg>
