<svg width="25" height="24" viewBox="0 0 25 24" fill="none" xmlns="http://www.w3.org/2000/svg">
<path d="M14.4557 9.9867C16.0961 9.62196 17.6012 8.80439 18.8 7.6269V4.8H6.20002V7.6269C7.39887 8.80439 8.90399 9.62196 10.5443 9.9867C10.7408 9.64128 11.0253 9.35407 11.3688 9.15428C11.7123 8.95449 12.1026 8.84924 12.5 8.84924C12.8974 8.84924 13.2877 8.95449 13.6312 9.15428C13.9748 9.35407 14.2592 9.64128 14.4557 9.9867ZM14.6429 11.7867C14.4971 12.2404 14.211 12.6361 13.8259 12.9168C13.4408 13.1975 12.9766 13.3487 12.5 13.3487C12.0235 13.3487 11.5592 13.1975 11.1741 12.9168C10.789 12.6361 10.503 12.2404 10.3571 11.7867C8.85826 11.4851 7.441 10.8671 6.20002 9.9741V19.2H18.8V9.9732C17.5592 10.8669 16.1419 11.4855 14.6429 11.7876V11.7867ZM5.30002 3H19.7C19.9387 3 20.1676 3.09482 20.3364 3.2636C20.5052 3.43239 20.6 3.66131 20.6 3.9V20.1C20.6 20.3387 20.5052 20.5676 20.3364 20.7364C20.1676 20.9052 19.9387 21 19.7 21H5.30002C5.06133 21 4.83241 20.9052 4.66363 20.7364C4.49485 20.5676 4.40002 20.3387 4.40002 20.1V3.9C4.40002 3.66131 4.49485 3.43239 4.66363 3.2636C4.83241 3.09482 5.06133 3 5.30002 3Z" fill="#0A0D14" style="fill:#0A0D14;fill:color(display-p3 0.0392 0.0510 0.0784);fill-opacity:1;"/>
</svg>
