<svg width="25" height="24" viewBox="0 0 25 24" fill="none" xmlns="http://www.w3.org/2000/svg">
<path d="M12.5 21C7.5293 21 3.5 16.9707 3.5 12C3.5 7.0293 7.5293 3 12.5 3C17.4707 3 21.5 7.0293 21.5 12C21.5 16.9707 17.4707 21 12.5 21ZM18.503 12C18.4937 11.7467 18.4114 11.5014 18.2659 11.2938C18.1204 11.0862 17.918 10.9252 17.683 10.83C17.448 10.7349 17.1905 10.7098 16.9416 10.7577C16.6927 10.8056 16.4629 10.9245 16.28 11.1C15.2562 10.404 14.0527 10.0195 12.815 9.993L13.4 7.185L15.326 7.59C15.3489 7.80283 15.4469 8.00054 15.6024 8.14762C15.758 8.29471 15.9608 8.38155 16.1746 8.39255C16.3884 8.40355 16.5991 8.33799 16.7689 8.20764C16.9387 8.07729 17.0565 7.89069 17.1011 7.68133C17.1457 7.47197 17.1142 7.25356 17.0123 7.0653C16.9104 6.87705 16.7448 6.73128 16.5451 6.65417C16.3454 6.57705 16.1247 6.57363 15.9228 6.64453C15.7208 6.71543 15.5507 6.85599 15.443 7.041L13.238 6.6C13.2019 6.59209 13.1647 6.59141 13.1283 6.59801C13.092 6.60461 13.0574 6.61836 13.0264 6.63845C12.9954 6.65854 12.9687 6.68458 12.9479 6.71506C12.9271 6.74554 12.9125 6.77985 12.905 6.816L12.239 9.939C10.9861 9.95789 9.76604 10.3427 8.729 11.046C8.59026 10.9155 8.42479 10.8166 8.24406 10.7564C8.06333 10.6962 7.87167 10.6759 7.68235 10.6971C7.49303 10.7183 7.31058 10.7805 7.14766 10.8792C6.98473 10.9779 6.84521 11.1109 6.73878 11.2689C6.63235 11.4269 6.56154 11.6061 6.53127 11.7942C6.501 11.9823 6.51198 12.1747 6.56347 12.3581C6.61495 12.5415 6.7057 12.7115 6.82942 12.8564C6.95315 13.0012 7.10689 13.1175 7.28 13.197C7.26987 13.3288 7.26987 13.4612 7.28 13.593C7.28 15.609 9.629 17.247 12.527 17.247C15.425 17.247 17.774 15.609 17.774 13.593C17.7841 13.4612 17.7841 13.3288 17.774 13.197C17.9961 13.0866 18.1824 12.9156 18.3114 12.7038C18.4404 12.492 18.5068 12.248 18.503 12ZM9.503 12.9C9.503 12.6613 9.59782 12.4324 9.7666 12.2636C9.93539 12.0948 10.1643 12 10.403 12C10.6417 12 10.8706 12.0948 11.0394 12.2636C11.2082 12.4324 11.303 12.6613 11.303 12.9C11.303 13.1387 11.2082 13.3676 11.0394 13.5364C10.8706 13.7052 10.6417 13.8 10.403 13.8C10.1643 13.8 9.93539 13.7052 9.7666 13.5364C9.59782 13.3676 9.503 13.1387 9.503 12.9ZM14.732 15.375C14.0935 15.8562 13.3079 16.1011 12.509 16.068C11.7101 16.1011 10.9245 15.8562 10.286 15.375C10.2477 15.3284 10.2282 15.2692 10.2311 15.2089C10.2341 15.1487 10.2594 15.0917 10.302 15.049C10.3447 15.0064 10.4017 14.9811 10.4619 14.9781C10.5222 14.9752 10.5814 14.9947 10.628 15.033C11.1691 15.4299 11.8296 15.63 12.5 15.6C13.1712 15.6365 13.8348 15.4428 14.381 15.051C14.404 15.0252 14.4321 15.0044 14.4635 14.99C14.4949 14.9755 14.5289 14.9677 14.5634 14.9669C14.598 14.9661 14.6323 14.9725 14.6643 14.9856C14.6963 14.9986 14.7253 15.0182 14.7494 15.0429C14.7735 15.0677 14.7923 15.0971 14.8046 15.1294C14.8168 15.1617 14.8223 15.1962 14.8207 15.2307C14.8191 15.2653 14.8103 15.2991 14.7951 15.3301C14.7798 15.3611 14.7584 15.3886 14.732 15.411V15.375ZM14.57 13.836C14.392 13.836 14.218 13.7832 14.07 13.6843C13.922 13.5854 13.8066 13.4449 13.7385 13.2804C13.6704 13.116 13.6526 12.935 13.6873 12.7604C13.722 12.5858 13.8077 12.4255 13.9336 12.2996C14.0595 12.1737 14.2198 12.088 14.3944 12.0533C14.569 12.0186 14.75 12.0364 14.9144 12.1045C15.0789 12.1726 15.2194 12.288 15.3183 12.436C15.4172 12.584 15.47 12.758 15.47 12.936C15.4749 13.0579 15.4549 13.1796 15.4113 13.2936C15.3677 13.4076 15.3014 13.5115 15.2164 13.5991C15.1313 13.6866 15.0294 13.756 14.9167 13.8029C14.8041 13.8498 14.683 13.8733 14.561 13.872L14.57 13.836Z" fill="#0A0D14" style="fill:#0A0D14;fill:color(display-p3 0.0392 0.0510 0.0784);fill-opacity:1;"/>
</svg>
