<svg width="25" height="24" viewBox="0 0 25 24" fill="none" xmlns="http://www.w3.org/2000/svg">
<path d="M11.6918 8.23291L12.3677 5.05051C12.4169 4.81926 12.5112 4.59996 12.6451 4.40514C12.7791 4.21032 12.9501 4.0438 13.1484 3.91509C13.3468 3.78638 13.5685 3.69801 13.801 3.65501C14.0335 3.61202 14.2722 3.61525 14.5034 3.66451L17.3798 4.27651C17.645 3.98205 17.9999 3.78332 18.3895 3.71113C18.7791 3.63894 19.1817 3.69734 19.5347 3.87726C19.8878 4.05719 20.1716 4.34858 20.3421 4.70625C20.5127 5.06392 20.5605 5.46787 20.478 5.85546C20.3956 6.24304 20.1876 6.59259 19.8862 6.8499C19.5849 7.1072 19.207 7.25788 18.8113 7.27856C18.4156 7.29923 18.0241 7.18876 17.6976 6.96426C17.3711 6.73976 17.1278 6.4138 17.0054 6.03691L14.129 5.42491L13.5296 8.24641C15.1352 8.36971 16.7309 8.90341 18.1763 9.77641C18.6058 9.5376 19.0894 9.41296 19.5808 9.41442C20.0723 9.41588 20.5551 9.54339 20.9832 9.78475C21.4113 10.0261 21.7703 10.3732 22.0259 10.793C22.2816 11.2127 22.4252 11.691 22.4432 12.1821V12.201C22.4501 12.6412 22.3557 13.0771 22.1674 13.475C21.979 13.873 21.7017 14.2223 21.3569 14.496C21.3553 14.533 21.3529 14.5699 21.3497 14.6067C21.3497 18.2049 17.3447 20.9337 12.5306 20.9337C7.7318 20.9337 3.7934 18.2121 3.7961 14.676C3.79217 14.6218 3.78917 14.5675 3.7871 14.5131C3.2058 14.0768 2.8115 13.4363 2.68365 12.7208C2.55581 12.0054 2.70392 11.268 3.09815 10.6574C3.49238 10.0467 4.10341 9.60823 4.8081 9.43022C5.5128 9.25222 6.25878 9.34795 6.8957 9.69811C8.34929 8.82209 9.99681 8.31878 11.6918 8.23291ZM20.0492 13.2063C20.4164 13.0236 20.6468 12.6483 20.6441 12.2388C20.6347 12.0329 20.5662 11.834 20.4468 11.666C20.3274 11.498 20.1621 11.3679 19.9707 11.2914C19.7793 11.2149 19.5698 11.1951 19.3675 11.2345C19.1652 11.2739 18.9784 11.3707 18.8297 11.5134L18.3032 12.0174L17.7002 11.6079C16.2467 10.6197 14.5934 10.0554 12.9932 10.0203H12.0878C10.4003 10.0464 8.8019 10.5603 7.3745 11.5278L6.7778 11.9328L6.2522 11.4378C6.13885 11.3314 6.00374 11.2509 5.85621 11.2019C5.70868 11.1529 5.55226 11.1366 5.39779 11.154C5.24331 11.1714 5.09447 11.2222 4.96156 11.3028C4.82865 11.3834 4.71485 11.492 4.62804 11.6209C4.54123 11.7499 4.48348 11.8962 4.4588 12.0497C4.43411 12.2032 4.44308 12.3602 4.48508 12.5098C4.52707 12.6595 4.6011 12.7983 4.70203 12.9165C4.80295 13.0347 4.92837 13.1296 5.0696 13.1946L5.6393 13.4556L5.5907 14.0811C5.579 14.2341 5.579 14.3862 5.5934 14.6067C5.5934 17.0457 8.6138 19.1337 12.5306 19.1337C16.4645 19.1337 19.5497 17.0313 19.5524 14.5383C19.5641 14.3861 19.5641 14.2333 19.5524 14.0811L19.5056 13.4763L20.0492 13.2063ZM8 13.3494C8 12.9914 8.14223 12.648 8.3954 12.3948C8.64858 12.1416 8.99195 11.9994 9.35 11.9994C9.70804 11.9994 10.0514 12.1416 10.3046 12.3948C10.5578 12.648 10.7 12.9914 10.7 13.3494C10.7 13.7075 10.5578 14.0508 10.3046 14.304C10.0514 14.5572 9.70804 14.6994 9.35 14.6994C8.99195 14.6994 8.64858 14.5572 8.3954 14.304C8.14223 14.0508 8 13.7075 8 13.3494ZM14.3 13.3494C14.3 12.9914 14.4422 12.648 14.6954 12.3948C14.9486 12.1416 15.292 11.9994 15.65 11.9994C16.008 11.9994 16.3514 12.1416 16.6046 12.3948C16.8578 12.648 17 12.9914 17 13.3494C17 13.7075 16.8578 14.0508 16.6046 14.304C16.3514 14.5572 16.008 14.6994 15.65 14.6994C15.292 14.6994 14.9486 14.5572 14.6954 14.304C14.4422 14.0508 14.3 13.7075 14.3 13.3494ZM12.5144 17.9421C11.2571 17.9421 10.0241 17.6091 9.0206 16.8531C8.95998 16.7799 8.92884 16.6868 8.93329 16.5918C8.93774 16.4969 8.97745 16.4071 9.04464 16.3399C9.11184 16.2727 9.20169 16.233 9.29661 16.2285C9.39154 16.2241 9.48471 16.2552 9.5579 16.3158C10.4084 16.9395 11.4686 17.2068 12.5 17.2068C13.5314 17.2068 14.597 16.9593 15.4556 16.3437C15.5052 16.2953 15.5668 16.2608 15.634 16.2437C15.7012 16.2265 15.7718 16.2274 15.8385 16.2462C15.9053 16.265 15.9659 16.301 16.0144 16.3507C16.0628 16.4004 16.0973 16.4619 16.1144 16.5291C16.129 16.5965 16.1269 16.6664 16.1082 16.7328C16.0895 16.7991 16.0549 16.8599 16.0073 16.9098C15.3917 17.6271 13.7717 17.9421 12.5144 17.9421Z" fill="#0A0D14" style="fill:#0A0D14;fill:color(display-p3 0.0392 0.0510 0.0784);fill-opacity:1;"/>
</svg>
