<svg width="25" height="24" viewBox="0 0 25 24" fill="none" xmlns="http://www.w3.org/2000/svg">
<path d="M12.5 21C7.5293 21 3.5 16.9707 3.5 12C3.5 7.0293 7.5293 3 12.5 3C17.4707 3 21.5 7.0293 21.5 12C21.5 16.9707 17.4707 21 12.5 21ZM16.838 16.5684C17.9244 15.5387 18.6087 14.1558 18.7682 12.6674C18.9278 11.1791 18.5522 9.68259 17.7087 8.446C16.8652 7.2094 15.609 6.31353 14.1651 5.91887C12.7212 5.52421 11.184 5.65656 9.8288 6.2922L10.7063 7.8717C11.3911 7.57406 12.1393 7.45151 12.8833 7.51511C13.6273 7.57871 14.3438 7.82646 14.9681 8.23601C15.5925 8.64557 16.1052 9.20407 16.4599 9.86116C16.8146 10.5182 17.0002 11.2533 17 12H14.3L16.838 16.5684ZM15.1712 17.7078L14.2937 16.1283C13.6089 16.4259 12.8607 16.5485 12.1167 16.4849C11.3727 16.4213 10.6562 16.1735 10.0319 15.764C9.40748 15.3544 8.89483 14.7959 8.54012 14.1388C8.18541 13.4817 7.99979 12.7467 8 12H10.7L8.162 7.4316C7.0756 8.46132 6.39134 9.84422 6.23179 11.3326C6.07225 12.8209 6.44785 14.3174 7.29131 15.554C8.13477 16.7906 9.39097 17.6865 10.8349 18.0811C12.2788 18.4758 13.816 18.3434 15.1712 17.7078Z" fill="#0A0D14" style="fill:#0A0D14;fill:color(display-p3 0.0392 0.0510 0.0784);fill-opacity:1;"/>
</svg>
