<svg width="25" height="24" viewBox="0 0 25 24" fill="none" xmlns="http://www.w3.org/2000/svg">
<path d="M6.6167 5.18971C8.2498 3.7746 10.3391 2.99699 12.5 3.00001C17.4707 3.00001 21.5 7.02931 21.5 12C21.5 13.9224 20.897 15.7044 19.871 17.166L17 12H19.7C19.7001 10.5885 19.2853 9.20803 18.5072 8.03034C17.7291 6.85265 16.6219 5.92965 15.3235 5.37612C14.025 4.82259 12.5924 4.66294 11.204 4.91702C9.81548 5.17111 8.53231 5.82772 7.514 6.80521L6.6167 5.18971ZM18.3833 18.8103C16.7502 20.2254 14.6609 21.003 12.5 21C7.5293 21 3.5 16.9707 3.5 12C3.5 10.0776 4.103 8.29561 5.129 6.83401L8 12H5.3C5.29988 13.4115 5.71468 14.792 6.4928 15.9697C7.27093 17.1474 8.37806 18.0704 9.67654 18.6239C10.975 19.1774 12.4076 19.3371 13.796 19.083C15.1845 18.8289 16.4677 18.1723 17.486 17.1948L18.3833 18.8103Z" fill="#0A0D14" style="fill:#0A0D14;fill:color(display-p3 0.0392 0.0510 0.0784);fill-opacity:1;"/>
</svg>
