<svg width="25" height="24" viewBox="0 0 25 24" fill="none" xmlns="http://www.w3.org/2000/svg">
<path d="M12.5 2.40039C17.8021 2.40039 22.1 6.69831 22.1 12.0004C22.1 17.3025 17.8021 21.6004 12.5 21.6004C10.2618 21.6037 8.0933 20.8216 6.37235 19.3905L6.13811 19.1898L7.00403 17.3639C8.24049 18.6312 9.87685 19.4323 11.6361 19.6317C13.3954 19.8311 15.1696 19.4166 16.6583 18.4581C18.147 17.4997 19.2589 16.0564 19.8057 14.3724C20.3525 12.6883 20.3006 10.8671 19.6588 9.21697C19.0171 7.56681 17.8249 6.18906 16.284 5.31694C14.7432 4.44481 12.9483 4.13186 11.2032 4.43107C9.45812 4.73028 7.87001 5.62327 6.70769 6.95888C5.54536 8.2945 4.88022 9.9907 4.82483 11.7604L4.82003 12.0004H7.22003L4.62227 17.4877C3.49832 15.8789 2.897 13.963 2.90004 12.0004C2.90004 6.69831 7.19795 2.40039 12.5 2.40039ZM13.46 6.24039V8.16039H15.86V10.0804H10.58C10.4601 10.0802 10.3444 10.1249 10.2558 10.2057C10.1671 10.2865 10.1119 10.3976 10.1011 10.517C10.0903 10.6365 10.1246 10.7557 10.1972 10.8511C10.2699 10.9465 10.3756 11.0113 10.4936 11.0327L10.58 11.0404H14.42C15.0566 11.0404 15.667 11.2932 16.1171 11.7433C16.5672 12.1934 16.82 12.8039 16.82 13.4404C16.82 14.0769 16.5672 14.6874 16.1171 15.1374C15.667 15.5875 15.0566 15.8404 14.42 15.8404H13.46V17.7604H11.54V15.8404H9.14003V13.9204H14.42C14.54 13.9206 14.6557 13.8759 14.7443 13.7951C14.8329 13.7143 14.8881 13.6032 14.899 13.4838C14.9098 13.3643 14.8755 13.2451 14.8029 13.1497C14.7302 13.0542 14.6245 12.9894 14.5064 12.9681L14.42 12.9604H10.58C9.94351 12.9604 9.33306 12.7075 8.88298 12.2574C8.43289 11.8074 8.18003 11.1969 8.18003 10.5604C8.18003 9.92387 8.43289 9.31342 8.88298 8.86333C9.33306 8.41324 9.94351 8.16039 10.58 8.16039H11.54V6.24039H13.46Z" fill="#0A0D14" style="fill:#0A0D14;fill:color(display-p3 0.0392 0.0510 0.0784);fill-opacity:1;"/>
</svg>
