<svg width="25" height="24" viewBox="0 0 25 24" fill="none" xmlns="http://www.w3.org/2000/svg">
<path d="M6.42634 4.56729C10.1968 1.47704 15.7689 1.69208 19.2888 5.21241C23.0371 8.96123 23.0371 15.04 19.2888 18.7888C15.5404 22.5376 9.46245 22.5376 5.71411 18.7888C4.56382 17.6399 3.72435 16.2175 3.27453 14.6551C2.82472 13.0927 2.77931 11.4417 3.14259 9.85691L3.2165 9.55643L5.07291 10.046C4.61269 11.7954 4.78465 13.6511 5.55849 15.2861C6.33234 16.9211 7.65839 18.2304 9.30295 18.9834C10.9475 19.7363 12.805 19.8845 14.5482 19.4018C16.2913 18.9192 17.8081 17.8366 18.8313 16.345C19.8545 14.8534 20.3185 13.0484 20.1414 11.2482C19.9643 9.44798 19.1575 7.76805 17.8632 6.50449C16.5689 5.24092 14.8702 4.47481 13.0665 4.34118C11.2628 4.20755 9.46974 4.71497 8.00343 5.77402L7.7913 5.93338L8.7675 6.9097L4.35588 7.9273L5.37335 3.51513L6.42538 4.56729H6.42634ZM13.4613 6.24058V8.16058H15.861V10.0806H10.5817C10.4617 10.0804 10.3461 10.1251 10.2574 10.2059C10.1688 10.2867 10.1136 10.3978 10.1028 10.5172C10.092 10.6367 10.1263 10.7559 10.1989 10.8513C10.2715 10.9468 10.3773 11.0115 10.4953 11.0329L10.5817 11.0406H14.4212C15.0576 11.0406 15.668 11.2935 16.1181 11.7435C16.5681 12.1936 16.8209 12.8041 16.8209 13.4406C16.8209 14.0771 16.5681 14.6876 16.1181 15.1377C15.668 15.5878 15.0576 15.8406 14.4212 15.8406H13.4613V17.7606H11.5416V15.8406H9.14185V13.9206H14.4212C14.5411 13.9208 14.6568 13.8761 14.7454 13.7953C14.8341 13.7145 14.8892 13.6034 14.9001 13.484C14.9109 13.3645 14.8766 13.2453 14.804 13.1499C14.7313 13.0544 14.6256 12.9897 14.5076 12.9683L14.4212 12.9606H10.5817C9.94523 12.9606 9.33486 12.7077 8.88483 12.2577C8.43479 11.8076 8.18197 11.1971 8.18197 10.5606C8.18197 9.92407 8.43479 9.31362 8.88483 8.86353C9.33486 8.41344 9.94523 8.16058 10.5817 8.16058H11.5416V6.24058H13.4613Z" fill="#0A0D14" style="fill:#0A0D14;fill:color(display-p3 0.0392 0.0510 0.0784);fill-opacity:1;"/>
</svg>
