<svg width="25" height="24" viewBox="0 0 25 24" fill="none" xmlns="http://www.w3.org/2000/svg">
<path d="M12.5 3C17.4707 3 21.5 7.0293 21.5 12C21.5 16.9707 17.4707 21 12.5 21C7.5293 21 3.5 16.9707 3.5 12C3.5 7.0293 7.5293 3 12.5 3ZM12.95 7.5H8.9V16.5H10.7V13.8H12.6953L14.6573 16.5H16.8821L14.5871 13.341C15.162 12.9917 15.61 12.4675 15.8655 11.8451C16.121 11.2228 16.1705 10.535 16.0068 9.88251C15.8431 9.23 15.4748 8.64702 14.9559 8.21895C14.4369 7.79088 13.7945 7.54019 13.1228 7.5036L12.95 7.5ZM12.95 9.3C13.2856 9.30002 13.6092 9.42503 13.8576 9.65066C14.106 9.87629 14.2615 10.1864 14.2937 10.5204L14.3 10.65L14.2937 10.7796C14.2638 11.0916 14.1263 11.3834 13.9048 11.6051C13.6833 11.8268 13.3915 11.9645 13.0796 11.9946L12.95 12H10.7V9.3H12.95Z" fill="#0A0D14" style="fill:#0A0D14;fill:color(display-p3 0.0392 0.0510 0.0784);fill-opacity:1;"/>
</svg>
