<svg width="25" height="24" viewBox="0 0 25 24" fill="none" xmlns="http://www.w3.org/2000/svg">
<path d="M12.5 3C17.4707 3 21.5 7.0293 21.5 12C21.5 16.9707 17.4707 21 12.5 21C7.5293 21 3.5 16.9707 3.5 12C3.5 7.0293 7.5293 3 12.5 3ZM12.5 4.8C10.5904 4.8 8.75909 5.55857 7.40883 6.90883C6.05857 8.25909 5.3 10.0904 5.3 12C5.3 13.9096 6.05857 15.7409 7.40883 17.0912C8.75909 18.4414 10.5904 19.2 12.5 19.2C14.4096 19.2 16.2409 18.4414 17.5912 17.0912C18.9414 15.7409 19.7 13.9096 19.7 12C19.7 10.0904 18.9414 8.25909 17.5912 6.90883C16.2409 5.55857 14.4096 4.8 12.5 4.8ZM12.95 7.5C13.6373 7.49987 14.3057 7.7245 14.8534 8.13966C15.4011 8.55482 15.798 9.13771 15.9836 9.79945C16.1692 10.4612 16.1332 11.1655 15.8813 11.8049C15.6293 12.4443 15.1751 12.9838 14.588 13.341L16.8812 16.5H14.6564L12.6944 13.8H10.7V16.5H8.9V7.5H12.95ZM12.95 9.3H10.7V12H12.95C13.2856 12 13.6092 11.875 13.8576 11.6493C14.106 11.4237 14.2615 11.1136 14.2937 10.7796L14.3 10.65C14.3 10.292 14.1578 9.94858 13.9046 9.69541C13.6514 9.44223 13.308 9.3 12.95 9.3Z" fill="#0A0D14" style="fill:#0A0D14;fill:color(display-p3 0.0392 0.0510 0.0784);fill-opacity:1;"/>
</svg>
