<svg width="25" height="24" viewBox="0 0 25 24" fill="none" xmlns="http://www.w3.org/2000/svg">
<path d="M7.42759 6.59922L15.3332 15.2959L15.9812 15.0412C17.4977 14.4463 18.5588 13.1008 18.764 11.5348C17.3007 11.6383 15.852 11.1884 14.7047 10.2743C13.5574 9.36025 12.7953 8.04861 12.5693 6.59922H7.42669H7.42759ZM14.3 5.69922C14.2999 6.407 14.4854 7.10244 14.8378 7.71624C15.1903 8.33003 15.6974 8.84074 16.3087 9.19747C16.92 9.55421 17.6142 9.74451 18.3219 9.74941C19.0297 9.75431 19.7264 9.57365 20.3426 9.22542C20.51 9.78162 20.6 10.3693 20.6 10.9777C20.6 13.5796 18.9602 15.8053 16.64 16.717L19.7 20.0992H4.39999V4.79922H14.3999C14.3332 5.09456 14.2997 5.39643 14.3 5.69922ZM18.35 7.94922C17.7533 7.94922 17.181 7.71217 16.759 7.29021C16.337 6.86825 16.1 6.29596 16.1 5.69922C16.1 5.10248 16.337 4.53019 16.759 4.10823C17.181 3.68627 17.7533 3.44922 18.35 3.44922C18.9467 3.44922 19.519 3.68627 19.941 4.10823C20.3629 4.53019 20.6 5.10248 20.6 5.69922C20.6 6.29596 20.3629 6.86825 19.941 7.29021C19.519 7.71217 18.9467 7.94922 18.35 7.94922ZM6.19999 7.92222V18.2992H15.632L6.19999 7.92222Z" fill="#0A0D14" style="fill:#0A0D14;fill:color(display-p3 0.0392 0.0510 0.0784);fill-opacity:1;"/>
</svg>
