<svg width="20" height="20" viewBox="0 0 20 20" fill="none" xmlns="http://www.w3.org/2000/svg">
<path d="M5.773 5.5L12.361 12.7472L12.901 12.535C14.1648 12.0393 15.049 10.918 15.22 9.613C14.0006 9.69923 12.7933 9.32434 11.8373 8.5626C10.8812 7.80086 10.2461 6.70782 10.0577 5.5H5.77225H5.773ZM11.5 4.75C11.5 5.33982 11.6545 5.91935 11.9482 6.43085C12.2419 6.94234 12.6645 7.36793 13.1739 7.66521C13.6834 7.96249 14.2618 8.12107 14.8516 8.12516C15.4414 8.12925 16.022 7.97869 16.5355 7.6885C16.675 8.152 16.75 8.64175 16.75 9.14875C16.75 11.317 15.3835 13.1718 13.45 13.9315L16 16.75H3.25V4H11.5833C11.5276 4.24612 11.4997 4.49768 11.5 4.75ZM14.875 6.625C14.3777 6.625 13.9008 6.42746 13.5492 6.07583C13.1975 5.72419 13 5.24728 13 4.75C13 4.25272 13.1975 3.77581 13.5492 3.42417C13.9008 3.07254 14.3777 2.875 14.875 2.875C15.3723 2.875 15.8492 3.07254 16.2008 3.42417C16.5525 3.77581 16.75 4.25272 16.75 4.75C16.75 5.24728 16.5525 5.72419 16.2008 6.07583C15.8492 6.42746 15.3723 6.625 14.875 6.625ZM4.75 6.6025V15.25H12.61L4.75 6.6025Z" fill="#525866" style="fill:#525866;fill:color(display-p3 0.3216 0.3451 0.4000);fill-opacity:1;"/>
</svg>
