<svg width="25" height="24" viewBox="0 0 25 24" fill="none" xmlns="http://www.w3.org/2000/svg">
<path d="M16.577 16.9762L19.7 20.0992H4.39999V4.79922H14.0003V4.80642C14.1409 4.79938 14.2817 4.79698 14.4224 4.79922C14.3423 5.13222 14.3 5.48322 14.3 5.84862C14.3 7.93572 16.1135 9.74922 18.5003 9.74922C19.1519 9.74922 19.7774 9.57192 20.3291 9.26502C20.7917 10.7866 20.662 12.4268 19.9659 13.8568C19.2699 15.2868 18.059 16.4007 16.5761 16.9753L16.577 16.9762ZM18.35 7.94922C17.7533 7.94922 17.181 7.71217 16.759 7.29021C16.337 6.86825 16.1 6.29596 16.1 5.69922C16.1 5.10248 16.337 4.53019 16.759 4.10823C17.181 3.68627 17.7533 3.44922 18.35 3.44922C18.9467 3.44922 19.519 3.68627 19.941 4.10823C20.3629 4.53019 20.6 5.10248 20.6 5.69922C20.6 6.29596 20.3629 6.86825 19.941 7.29021C19.519 7.71217 18.9467 7.94922 18.35 7.94922Z" fill="#0A0D14" style="fill:#0A0D14;fill:color(display-p3 0.0392 0.0510 0.0784);fill-opacity:1;"/>
</svg>
