<svg width="32" height="32" viewBox="0 0 32 32" fill="none" xmlns="http://www.w3.org/2000/svg">
<path d="M9.23681 8.79998L19.7776 20.3956L20.6416 20.056C22.6636 19.2628 24.0784 17.4688 24.352 15.3808C22.401 15.5187 20.4693 14.9189 18.9396 13.7001C17.4099 12.4813 16.3938 10.7325 16.0924 8.79998H9.23561H9.23681ZM18.4 7.59998C18.3999 8.54369 18.6472 9.47094 19.1171 10.2893C19.5871 11.1077 20.2633 11.7887 21.0783 12.2643C21.8934 12.74 22.8189 12.9937 23.7626 13.0002C24.7063 13.0068 25.6352 12.7659 26.4568 12.3016C26.68 13.0432 26.8 13.8268 26.8 14.638C26.8 18.1072 24.6136 21.0748 21.52 22.2904L25.6 26.8H5.20001V6.39998H18.5332C18.4442 6.79376 18.3996 7.19626 18.4 7.59998ZM23.8 10.6C23.0044 10.6 22.2413 10.2839 21.6787 9.7213C21.1161 9.15869 20.8 8.39562 20.8 7.59998C20.8 6.80433 21.1161 6.04126 21.6787 5.47866C22.2413 4.91605 23.0044 4.59998 23.8 4.59998C24.5957 4.59998 25.3587 4.91605 25.9213 5.47866C26.4839 6.04126 26.8 6.80433 26.8 7.59998C26.8 8.39562 26.4839 9.15869 25.9213 9.7213C25.3587 10.2839 24.5957 10.6 23.8 10.6ZM7.60001 10.564V24.4H20.176L7.60001 10.564Z" fill="#525866" style="fill:#525866;fill:color(display-p3 0.3216 0.3451 0.4000);fill-opacity:1;"/>
</svg>
