<svg width="25" height="24" viewBox="0 0 25 24" fill="none" xmlns="http://www.w3.org/2000/svg">
<path d="M17.9 3C18.1387 3 18.3676 3.09482 18.5364 3.2636C18.7052 3.43239 18.8 3.66131 18.8 3.9V20.1C18.8 20.3387 18.7052 20.5676 18.5364 20.7364C18.3676 20.9052 18.1387 21 17.9 21H7.1C6.8613 21 6.63238 20.9052 6.4636 20.7364C6.29482 20.5676 6.2 20.3387 6.2 20.1V3.9C6.2 3.66131 6.29482 3.43239 6.4636 3.2636C6.63238 3.09482 6.8613 3 7.1 3H17.9ZM15.2 14.7H13.4V16.5H15.2V14.7ZM11.6 14.7H9.8V16.5H11.6V14.7ZM13.4 6.6H11.6V8.4H9.8V10.2H11.5991L11.6 12H13.4L13.3991 10.2H15.2V8.4H13.4V6.6Z" fill="#0A0D14" style="fill:#0A0D14;fill:color(display-p3 0.0392 0.0510 0.0784);fill-opacity:1;"/>
</svg>
