<svg width="25" height="24" viewBox="0 0 25 24" fill="none" xmlns="http://www.w3.org/2000/svg">
<path d="M17.0001 12C17.2387 12 17.4677 12.0948 17.6365 12.2636C17.8052 12.4324 17.9001 12.6613 17.9001 12.9V21H7.10005V12.9C7.10005 12.6613 7.19488 12.4324 7.36366 12.2636C7.53244 12.0948 7.76136 12 8.00005 12H17.0001ZM10.7001 13.8H8.90005V15.6H10.7001V13.8ZM12.5001 6.6C13.5031 6.5997 14.4863 6.87875 15.3396 7.40587C16.1929 7.93299 16.8826 8.68735 17.3313 9.5844L15.7203 10.3899C15.4214 9.79155 14.9618 9.28827 14.3929 8.93652C13.824 8.58477 13.1684 8.39844 12.4996 8.39844C11.8308 8.39844 11.1752 8.58477 10.6063 8.93652C10.0374 9.28827 9.5778 9.79155 9.27895 10.3899L7.66885 9.5844C8.11753 8.68735 8.80717 7.93299 9.66048 7.40587C10.5138 6.87875 11.4971 6.5997 12.5001 6.6ZM12.5001 3C14.1716 2.99964 15.8103 3.46482 17.2324 4.3434C18.6545 5.22199 19.8038 6.47926 20.5515 7.9743L18.9414 8.7798C18.3432 7.58367 17.4238 6.57776 16.2861 5.87483C15.1484 5.17189 13.8374 4.79971 12.5001 4.8C11.1627 4.79971 9.85172 5.17189 8.71402 5.87483C7.57632 6.57776 6.65688 7.58367 6.05875 8.7798L4.44775 7.9743C5.19552 6.47912 6.34496 5.22176 7.76721 4.34317C9.18946 3.46457 10.8283 2.99947 12.5001 3Z" fill="#0A0D14" style="fill:#0A0D14;fill:color(display-p3 0.0392 0.0510 0.0784);fill-opacity:1;"/>
</svg>
