<svg width="25" height="24" viewBox="0 0 25 24" fill="none" xmlns="http://www.w3.org/2000/svg">
<path d="M8.9 19.1989V20.9377C8.90014 21.0233 8.87587 21.1071 8.83004 21.1794C8.78421 21.2517 8.71872 21.3094 8.64125 21.3458C8.56378 21.3821 8.47755 21.3957 8.39266 21.3848C8.30778 21.3739 8.22776 21.339 8.162 21.2842L4.454 18.1945C4.38288 18.1352 4.33179 18.0554 4.3077 17.966C4.2836 17.8766 4.28768 17.7819 4.31938 17.6949C4.35107 17.6079 4.40884 17.5328 4.48479 17.4798C4.56075 17.4268 4.6512 17.3986 4.7438 17.3989H17.9C18.3774 17.3989 18.8352 17.2093 19.1728 16.8717C19.5104 16.5341 19.7 16.0763 19.7 15.5989V8.39891H21.5V15.5989C21.5 16.5537 21.1207 17.4694 20.4456 18.1445C19.7705 18.8196 18.8548 19.1989 17.9 19.1989H8.9ZM16.1 4.79891V3.06011C16.0999 2.97452 16.1241 2.89068 16.17 2.8184C16.2158 2.74612 16.2813 2.68841 16.3588 2.65204C16.4362 2.61567 16.5225 2.60214 16.6073 2.61304C16.6922 2.62395 16.7722 2.65883 16.838 2.71361L20.546 5.80331C20.6171 5.86257 20.6681 5.94229 20.6922 6.03161C20.7164 6.12094 20.7124 6.21553 20.6808 6.3025C20.6492 6.38947 20.5916 6.46459 20.5158 6.51763C20.4399 6.57067 20.3496 6.59905 20.2571 6.59891H7.1C6.62261 6.59891 6.16477 6.78855 5.82721 7.12611C5.48964 7.46368 5.3 7.92152 5.3 8.39891V15.5989H3.5V8.39891C3.5 7.44413 3.87928 6.52845 4.55442 5.85332C5.22955 5.17819 6.14522 4.79891 7.1 4.79891H16.1ZM11.6 8.39891H13.4V15.5989H11.6V10.1989H9.8V9.29891L11.6 8.39891Z" fill="#0A0D14" style="fill:#0A0D14;fill:color(display-p3 0.0392 0.0510 0.0784);fill-opacity:1;"/>
</svg>
