<svg width="25" height="24" viewBox="0 0 25 24" fill="none" xmlns="http://www.w3.org/2000/svg">
<path d="M12.5 4.5C16.6421 4.5 20 7.85786 20 12C20 16.1421 16.6421 19.5 12.5 19.5C8.35786 19.5 5 16.1421 5 12H6.5C6.5 15.3137 9.18629 18 12.5 18C15.8137 18 18.5 15.3137 18.5 12C18.5 8.68629 15.8137 6 12.5 6C10.6521 6 8.99932 6.83537 7.89869 8.14907L9.5 9.75H5V5.25L6.83492 7.08486C8.21001 5.50132 10.2381 4.5 12.5 4.5ZM14.375 9.1875C13.3395 9.1875 12.5 10.027 12.5 11.0625V12.9375C12.5 13.973 13.3395 14.8125 14.375 14.8125C15.4105 14.8125 16.25 13.973 16.25 12.9375V11.0625C16.25 10.027 15.4105 9.1875 14.375 9.1875ZM15.125 11.0625V12.9375C15.125 13.3517 14.7892 13.6875 14.375 13.6875C13.9608 13.6875 13.625 13.3517 13.625 12.9375V11.0625C13.625 10.6483 13.9608 10.3125 14.375 10.3125C14.7892 10.3125 15.125 10.6483 15.125 11.0625ZM11 9.375H9.875V14.625H11V9.375Z" fill="#0A0D14" style="fill:#0A0D14;fill:color(display-p3 0.0392 0.0510 0.0784);fill-opacity:1;"/>
</svg>
