<svg width="25" height="24" viewBox="0 0 25 24" fill="none" xmlns="http://www.w3.org/2000/svg">
<path d="M14.3 5.25V9.3C19.2707 9.3 23.3 13.3293 23.3 18.3C23.3 18.5457 23.291 18.7887 23.2712 19.029C21.9545 16.5324 19.3742 14.8071 16.3817 14.7045L16.1 14.7H14.3V18.75L7.10001 12L14.3 5.25ZM8.90001 5.25V7.7133L4.32801 12L8.89911 16.2849L8.90001 18.75L1.70001 12L8.90001 5.25ZM12.5 9.4044L9.73161 12L12.5 14.5947V12.9H16.1306L16.4429 12.9063C17.5994 12.945 18.7145 13.1853 19.7513 13.5957C18.431 12.0675 16.478 11.1 14.3 11.1H12.5V9.4044Z" fill="#0A0D14" style="fill:#0A0D14;fill:color(display-p3 0.0392 0.0510 0.0784);fill-opacity:1;"/>
</svg>
