<svg width="25" height="24" viewBox="0 0 25 24" fill="none" xmlns="http://www.w3.org/2000/svg">
<path d="M20 12C20 7.85786 16.6421 4.5 12.5 4.5C10.2381 4.5 8.21001 5.50132 6.83492 7.08486L5 5.25V9.75H9.5L7.89869 8.14907C8.99932 6.83537 10.6521 6 12.5 6C15.8137 6 18.5 8.68629 18.5 12C18.5 15.3137 15.8137 18 12.5 18C9.18629 18 6.5 15.3137 6.5 12H5C5 16.1421 8.35786 19.5 12.5 19.5C16.6421 19.5 20 16.1421 20 12ZM14.375 10.5V9.375H10.625V12.5625H12.9688C13.2276 12.5625 13.4375 12.7724 13.4375 13.0312C13.4375 13.2901 13.2276 13.5 12.9688 13.5H10.625V14.625H12.9688C13.849 14.625 14.5625 13.9115 14.5625 13.0312C14.5625 12.1511 13.849 11.4375 12.9688 11.4375H11.75V10.5H14.375Z" fill="#0A0D14" style="fill:#0A0D14;fill:color(display-p3 0.0392 0.0510 0.0784);fill-opacity:1;"/>
</svg>
