<svg width="25" height="24" viewBox="0 0 25 24" fill="none" xmlns="http://www.w3.org/2000/svg">
<path d="M12.5 4.5C16.6421 4.5 20 7.85786 20 12C20 16.1421 16.6421 19.5 12.5 19.5C8.35786 19.5 5 16.1421 5 12H6.5C6.5 15.3137 9.18629 18 12.5 18C15.8137 18 18.5 15.3137 18.5 12C18.5 8.68629 15.8137 6 12.5 6C10.6521 6 8.99932 6.83537 7.89869 8.14907L9.5 9.75H5V5.25L6.83492 7.08486C8.21001 5.50132 10.2381 4.5 12.5 4.5ZM9.875 9.375H11V14.625H9.875V9.375ZM16.0625 9.375H12.5V12.5625H14.6562C14.9151 12.5625 15.125 12.7724 15.125 13.0312C15.125 13.2901 14.9151 13.5 14.6562 13.5H12.5V14.625H14.6562C15.5365 14.625 16.25 13.9115 16.25 13.0312C16.25 12.1511 15.5365 11.4375 14.6562 11.4375H13.625V10.5H16.0625V9.375Z" fill="#0A0D14" style="fill:#0A0D14;fill:color(display-p3 0.0392 0.0510 0.0784);fill-opacity:1;"/>
</svg>
