<svg width="25" height="24" viewBox="0 0 25 24" fill="none" xmlns="http://www.w3.org/2000/svg">
<path d="M12.5 4.5C16.6421 4.5 20 7.85786 20 12C20 16.1421 16.6421 19.5 12.5 19.5C8.35786 19.5 5 16.1421 5 12H6.5C6.5 15.3137 9.18629 18 12.5 18C15.8137 18 18.5 15.3137 18.5 12C18.5 8.68629 15.8137 6 12.5 6C10.4377 6 8.61835 7.0405 7.53838 8.62518L9.5 8.625V10.125H5V5.625H6.5L6.49992 7.49938C7.86826 5.67806 10.0465 4.5 12.5 4.5ZM9.875 14.625V9.375H11V14.625H9.875ZM12.5 9.375H16.0625V10.5H13.625V11.4375H14.6562C15.5365 11.4375 16.25 12.1511 16.25 13.0312C16.25 13.9115 15.5365 14.625 14.6562 14.625H12.5V13.5H14.6562C14.9151 13.5 15.125 13.2901 15.125 13.0312C15.125 12.7724 14.9151 12.5625 14.6562 12.5625H12.5V9.375Z" fill="#0A0D14" style="fill:#0A0D14;fill:color(display-p3 0.0392 0.0510 0.0784);fill-opacity:1;"/>
</svg>
