<svg width="25" height="24" viewBox="0 0 25 24" fill="none" xmlns="http://www.w3.org/2000/svg">
<path d="M13.4 14.6984V18.2984H16.1V20.0984H8.90002V18.2984H11.6V14.6984H5.30002C5.06133 14.6984 4.83241 14.6036 4.66363 14.4348C4.49485 14.2661 4.40002 14.0371 4.40002 13.7984V4.79844C4.40002 4.55974 4.49485 4.33082 4.66363 4.16204C4.83241 3.99326 5.06133 3.89844 5.30002 3.89844H19.7C19.9387 3.89844 20.1676 3.99326 20.3364 4.16204C20.5052 4.33082 20.6 4.55974 20.6 4.79844V13.7984C20.6 14.0371 20.5052 14.2661 20.3364 14.4348C20.1676 14.6036 19.9387 14.6984 19.7 14.6984H13.4ZM8.90002 8.39844V10.1984H16.1V8.39844H8.90002Z" fill="#0A0D14" style="fill:#0A0D14;fill:color(display-p3 0.0392 0.0510 0.0784);fill-opacity:1;"/>
</svg>
