<svg width="25" height="24" viewBox="0 0 25 24" fill="none" xmlns="http://www.w3.org/2000/svg">
<path d="M20.6 3V21H18.8V13.8H16.1V7.5C16.1 6.30653 16.5741 5.16193 17.418 4.31802C18.262 3.47411 19.4066 3 20.6 3ZM9.80002 13.71V21H8.00002V13.71C6.98375 13.5022 6.07042 12.9498 5.41445 12.1463C4.75849 11.3427 4.40015 10.3373 4.40002 9.3V3.9H6.20002V10.2H8.00002V3.9H9.80002V10.2H11.6V3.9H13.4V9.3C13.3999 10.3373 13.0416 11.3427 12.3856 12.1463C11.7296 12.9498 10.8163 13.5022 9.80002 13.71Z" fill="#0A0D14" style="fill:#0A0D14;fill:color(display-p3 0.0392 0.0510 0.0784);fill-opacity:1;"/>
</svg>
