<svg width="25" height="24" viewBox="0 0 25 24" fill="none" xmlns="http://www.w3.org/2000/svg">
<path d="M5.49976 4.62681L11.5451 10.6721L8.99986 13.2182L5.49886 9.71721C4.82396 9.04211 4.44482 8.1266 4.44482 7.17201C4.44482 6.21742 4.82396 5.30191 5.49886 4.62681H5.49976ZM14.5412 12.131L13.7726 12.8996L20.1365 19.2635L18.8639 20.5361L12.5 14.1731L6.13606 20.5361L4.86346 19.2635L13.2686 10.8584C12.7394 9.54711 13.2866 7.65891 14.7266 6.21711C16.4843 4.46031 18.9062 4.03281 20.1365 5.26311C21.3668 6.49341 20.9393 8.91531 19.1825 10.6721C17.7407 12.1139 15.8525 12.6611 14.5412 12.131Z" fill="#0A0D14" style="fill:#0A0D14;fill:color(display-p3 0.0392 0.0510 0.0784);fill-opacity:1;"/>
</svg>
