<svg width="25" height="24" viewBox="0 0 25 24" fill="none" xmlns="http://www.w3.org/2000/svg">
<path d="M12.5 21C7.5293 21 3.5 16.9707 3.5 12C3.5 7.0293 7.5293 3 12.5 3C17.4707 3 21.5 7.0293 21.5 12C21.5 16.9707 17.4707 21 12.5 21ZM16.838 16.5684C17.985 15.4771 18.679 13.9939 18.7819 12.414C18.8849 10.8342 18.3892 9.27348 17.3936 8.04251C16.398 6.81155 14.9754 6.00057 13.4089 5.77096C11.8425 5.54135 10.247 5.90995 8.93995 6.8034C7.63294 7.69686 6.71024 9.04966 6.35546 10.5926C6.00069 12.1355 6.23985 13.7555 7.02535 15.1301C7.81085 16.5047 9.08511 17.5331 10.5945 18.0108C12.104 18.4884 13.7379 18.3803 15.1712 17.7078L14.2937 16.1283C13.4053 16.5144 12.416 16.6036 11.4729 16.3825C10.5298 16.1614 9.6832 15.6418 9.05896 14.9011C8.43473 14.1604 8.06618 13.238 8.0081 12.2711C7.95001 11.3041 8.2055 10.3443 8.73657 9.53413C9.26765 8.724 10.046 8.10688 10.9558 7.77447C11.8657 7.44207 12.8585 7.41214 13.7868 7.68913C14.715 7.96613 15.5291 8.53525 16.108 9.31192C16.6869 10.0886 16.9997 11.0313 17 12H14.3L16.838 16.5684Z" fill="#0A0D14" style="fill:#0A0D14;fill:color(display-p3 0.0392 0.0510 0.0784);fill-opacity:1;"/>
</svg>
