<svg width="25" height="24" viewBox="0 0 25 24" fill="none" xmlns="http://www.w3.org/2000/svg">
<path d="M9.8 10.0753L7.0712 12.0013L9.8 13.9273V10.0753ZM11.5172 16.792C11.4484 16.8892 11.3438 16.9552 11.2263 16.9755C11.1089 16.9957 10.9882 16.9686 10.8908 16.9L4.4711 12.3685C4.4124 12.3269 4.36453 12.2719 4.3315 12.208C4.29846 12.1441 4.28122 12.0732 4.28122 12.0013C4.28122 11.9294 4.29846 11.8585 4.3315 11.7946C4.36453 11.7307 4.4124 11.6757 4.4711 11.6341L10.8908 7.10168C10.9582 7.05418 11.0374 7.02612 11.1196 7.02056C11.2019 7.01499 11.2841 7.03214 11.3573 7.07013C11.4305 7.10811 11.4918 7.16548 11.5346 7.23596C11.5774 7.30644 11.6 7.38732 11.6 7.46978V16.5328C11.5998 16.6257 11.5709 16.7162 11.5172 16.792ZM17.9 13.9273V10.0753L15.1712 12.0013L17.9 13.9273ZM12.5711 12.3685C12.5124 12.3269 12.4645 12.2719 12.4315 12.208C12.3985 12.1441 12.3812 12.0732 12.3812 12.0013C12.3812 11.9294 12.3985 11.8585 12.4315 11.7946C12.4645 11.7307 12.5124 11.6757 12.5711 11.6341L18.9908 7.10168C19.0582 7.05418 19.1374 7.02612 19.2196 7.02056C19.3019 7.01499 19.3841 7.03214 19.4573 7.07013C19.5305 7.10811 19.5918 7.16548 19.6346 7.23596C19.6774 7.30644 19.7 7.38732 19.7 7.46978V16.5328C19.7 16.6152 19.6774 16.6961 19.6346 16.7666C19.5918 16.8371 19.5305 16.8944 19.4573 16.9324C19.3841 16.9704 19.3019 16.9876 19.2196 16.982C19.1374 16.9764 19.0582 16.9484 18.9908 16.9009L12.5711 12.3685Z" fill="#0A0D14" style="fill:#0A0D14;fill:color(display-p3 0.0392 0.0510 0.0784);fill-opacity:1;"/>
</svg>
