<svg width="25" height="24" viewBox="0 0 25 24" fill="none" xmlns="http://www.w3.org/2000/svg">
<path d="M12.5 10.8009L20.8007 5.26677C20.8685 5.22168 20.9472 5.19581 21.0285 5.19192C21.1098 5.18803 21.1906 5.20627 21.2624 5.24469C21.3342 5.28311 21.3942 5.34027 21.436 5.41009C21.4778 5.47991 21.5 5.55978 21.5 5.64117V18.36C21.5 18.4414 21.4778 18.5212 21.436 18.5911C21.3942 18.6609 21.3342 18.718 21.2624 18.7565C21.1906 18.7949 21.1098 18.8131 21.0285 18.8092C20.9472 18.8053 20.8685 18.7795 20.8007 18.7344L12.5 13.2003V18.36C12.5 18.4414 12.4778 18.5212 12.436 18.5911C12.3942 18.6609 12.3342 18.718 12.2624 18.7565C12.1906 18.7949 12.1098 18.8131 12.0285 18.8092C11.9472 18.8053 11.8685 18.7795 11.8007 18.7344L2.2616 12.375C2.19997 12.3339 2.14944 12.2782 2.11449 12.2129C2.07954 12.1476 2.06125 12.0746 2.06125 12.0006C2.06125 11.9265 2.07954 11.8536 2.11449 11.7883C2.14944 11.7229 2.19997 11.6673 2.2616 11.6262L11.8007 5.26677C11.8685 5.22168 11.9472 5.19581 12.0285 5.19192C12.1098 5.18803 12.1906 5.20627 12.2624 5.24469C12.3342 5.28311 12.3942 5.34027 12.436 5.41009C12.4778 5.47991 12.5 5.55978 12.5 5.64117V10.8009ZM10.7 15.8373V8.16387L4.9454 12.0006L10.7 15.8373ZM19.7 15.8373V8.16387L13.9454 12.0006L19.7 15.8373Z" fill="#0A0D14" style="fill:#0A0D14;fill:color(display-p3 0.0392 0.0510 0.0784);fill-opacity:1;"/>
</svg>
