<svg width="25" height="24" viewBox="0 0 25 24" fill="none" xmlns="http://www.w3.org/2000/svg">
<path d="M17.273 16.7726C19.909 14.1366 19.909 9.86271 17.273 7.22667L18.3336 6.16602C21.5554 9.38784 21.5554 14.6115 18.3336 17.8333L17.273 16.7726ZM7.72703 7.22667C5.09099 9.86271 5.09099 14.1366 7.72703 16.7726L6.66637 17.8333C3.44454 14.6115 3.44454 9.38784 6.66637 6.16602L7.72703 7.22667ZM15.1516 14.6512C16.6161 13.1868 16.6161 10.8124 15.1516 9.34791L16.2123 8.28725C18.2626 10.3375 18.2626 13.6616 16.2123 15.7119L15.1516 14.6512ZM9.84835 9.34791C8.38388 10.8124 8.38388 13.1868 9.84835 14.6512L8.78769 15.7119C6.73743 13.6616 6.73743 10.3375 8.78769 8.28725L9.84835 9.34791ZM12.5 13.4996C13.3285 13.4996 14 12.8281 14 11.9996C14 11.1712 13.3285 10.4996 12.5 10.4996C11.6715 10.4996 11 11.1712 11 11.9996C11 12.8281 11.6715 13.4996 12.5 13.4996Z" fill="#0A0D14" style="fill:#0A0D14;fill:color(display-p3 0.0392 0.0510 0.0784);fill-opacity:1;"/>
</svg>
