<svg width="25" height="24" viewBox="0 0 25 24" fill="none" xmlns="http://www.w3.org/2000/svg">
<path d="M6.65001 20.0996C6.11815 20.0996 5.59151 19.9949 5.10014 19.7913C4.60877 19.5878 4.1623 19.2895 3.78622 18.9134C3.41015 18.5373 3.11183 18.0908 2.90829 17.5995C2.70476 17.1081 2.60001 16.5815 2.60001 16.0496C2.60001 15.5178 2.70476 14.9911 2.90829 14.4997C3.11183 14.0084 3.41015 13.5619 3.78622 13.1858C4.1623 12.8097 4.60877 12.5114 5.10014 12.3079C5.59151 12.1044 6.11815 11.9996 6.65001 11.9996C7.72413 11.9996 8.75427 12.4263 9.51379 13.1858C10.2733 13.9453 10.7 14.9755 10.7 16.0496C10.7 17.1237 10.2733 18.1539 9.51379 18.9134C8.75427 19.6729 7.72413 20.0996 6.65001 20.0996ZM6.65001 17.3996C7.00805 17.3996 7.35143 17.2574 7.6046 17.0042C7.85777 16.751 8.00001 16.4077 8.00001 16.0496C8.00001 15.6916 7.85777 15.3482 7.6046 15.095C7.35143 14.8418 7.00805 14.6996 6.65001 14.6996C6.29196 14.6996 5.94859 14.8418 5.69541 15.095C5.44224 15.3482 5.30001 15.6916 5.30001 16.0496C5.30001 16.4077 5.44224 16.751 5.69541 17.0042C5.94859 17.2574 6.29196 17.3996 6.65001 17.3996ZM18.35 20.0996C17.8182 20.0996 17.2915 19.9949 16.8001 19.7913C16.3088 19.5878 15.8623 19.2895 15.4862 18.9134C15.1101 18.5373 14.8118 18.0908 14.6083 17.5995C14.4048 17.1081 14.3 16.5815 14.3 16.0496C14.3 15.5178 14.4048 14.9911 14.6083 14.4997C14.8118 14.0084 15.1101 13.5619 15.4862 13.1858C15.8623 12.8097 16.3088 12.5114 16.8001 12.3079C17.2915 12.1044 17.8182 11.9996 18.35 11.9996C19.4241 11.9996 20.4543 12.4263 21.2138 13.1858C21.9733 13.9453 22.4 14.9755 22.4 16.0496C22.4 17.1237 21.9733 18.1539 21.2138 18.9134C20.4543 19.6729 19.4241 20.0996 18.35 20.0996ZM18.35 17.3996C18.708 17.3996 19.0514 17.2574 19.3046 17.0042C19.5578 16.751 19.7 16.4077 19.7 16.0496C19.7 15.6916 19.5578 15.3482 19.3046 15.095C19.0514 14.8418 18.708 14.6996 18.35 14.6996C17.992 14.6996 17.6486 14.8418 17.3954 15.095C17.1422 15.3482 17 15.6916 17 16.0496C17 16.4077 17.1422 16.751 17.3954 17.0042C17.6486 17.2574 17.992 17.3996 18.35 17.3996ZM12.0779 10.0169L13.4 11.9996V17.3996H11.6V12.8996L9.15291 10.8602C8.93514 10.7106 8.753 10.5148 8.6194 10.2868C8.4858 10.0589 8.40403 9.8043 8.37989 9.54117C8.35575 9.27805 8.38984 9.01284 8.47973 8.76438C8.56962 8.51591 8.71311 8.29028 8.90001 8.10351L11.4452 5.55831C11.6124 5.39109 11.8108 5.25843 12.0293 5.16793C12.2477 5.07743 12.4818 5.03084 12.7183 5.03084C12.9547 5.03084 13.1888 5.07743 13.4073 5.16793C13.6257 5.25843 13.8242 5.39109 13.9913 5.55831L15.2639 6.83091C16.217 7.78745 17.4534 8.41084 18.7892 8.60841L18.7802 10.4219C16.9677 10.2133 15.2796 9.39629 13.9913 8.10441L12.077 10.0169H12.0779ZM16.1 5.69961C15.6226 5.69961 15.1648 5.50997 14.8272 5.1724C14.4896 4.83484 14.3 4.377 14.3 3.89961C14.3 3.42222 14.4896 2.96438 14.8272 2.62682C15.1648 2.28925 15.6226 2.09961 16.1 2.09961C16.5774 2.09961 17.0352 2.28925 17.3728 2.62682C17.7104 2.96438 17.9 3.42222 17.9 3.89961C17.9 4.377 17.7104 4.83484 17.3728 5.1724C17.0352 5.50997 16.5774 5.69961 16.1 5.69961Z" fill="#0A0D14" style="fill:#0A0D14;fill:color(display-p3 0.0392 0.0510 0.0784);fill-opacity:1;"/>
</svg>
