<svg width="25" height="24" viewBox="0 0 25 24" fill="none" xmlns="http://www.w3.org/2000/svg">
<path d="M5.3 6.72962V18.2712L9.8585 16.3182L15.2585 19.0182L19.7 17.1129V5.57222L20.8727 5.07002C20.9412 5.04066 21.0159 5.02877 21.0901 5.0354C21.1643 5.04204 21.2357 5.067 21.2979 5.10804C21.3601 5.14908 21.4111 5.20491 21.4464 5.27053C21.4816 5.33616 21.5001 5.40951 21.5 5.48402V18.3009L15.2 21.0009L9.8 18.3009L4.1273 20.7318C4.05882 20.7612 3.98413 20.7731 3.90992 20.7664C3.83571 20.7598 3.76431 20.7348 3.70213 20.6938C3.63995 20.6528 3.58893 20.5969 3.55365 20.5313C3.51837 20.4657 3.49993 20.3923 3.5 20.3178V7.50092L5.3 6.72962ZM16.3187 11.3196L12.5 15.1374L8.6813 11.3196C7.92619 10.5644 7.41198 9.60219 7.20369 8.55471C6.99541 7.50724 7.1024 6.42153 7.51114 5.43486C7.91988 4.44819 8.61201 3.60488 9.50002 3.01156C10.388 2.41824 11.432 2.10156 12.5 2.10156C13.568 2.10156 14.612 2.41824 15.5 3.01156C16.388 3.60488 17.0801 4.44819 17.4889 5.43486C17.8976 6.42153 18.0046 7.50724 17.7963 8.55471C17.588 9.60219 17.0738 10.5644 16.3187 11.3196ZM12.5 12.5922L15.0452 10.0461C15.5488 9.54269 15.8918 8.90123 16.0307 8.20287C16.1697 7.50451 16.0985 6.78062 15.8261 6.12274C15.5536 5.46486 15.0922 4.90255 14.5002 4.50693C13.9081 4.11131 13.2121 3.90015 12.5 3.90015C11.7879 3.90015 11.0919 4.11131 10.4998 4.50693C9.90779 4.90255 9.44637 5.46486 9.17393 6.12274C8.90149 6.78062 8.83026 7.50451 8.96925 8.20287C9.10825 8.90123 9.45122 9.54269 9.9548 10.0461L12.5 12.5922Z" fill="#0A0D14" style="fill:#0A0D14;fill:color(display-p3 0.0392 0.0510 0.0784);fill-opacity:1;"/>
</svg>
