<svg width="25" height="24" viewBox="0 0 25 24" fill="none" xmlns="http://www.w3.org/2000/svg">
<path d="M16.955 11.9551C17.7174 11.1933 18.2715 10.2486 18.5643 9.21143C18.8571 8.17422 18.8788 7.07923 18.6272 6.03126L20.8727 5.06826C20.9412 5.03891 21.0159 5.02701 21.0901 5.03365C21.1643 5.04029 21.2357 5.06524 21.2979 5.10628C21.3601 5.14732 21.4111 5.20316 21.4464 5.26878C21.4816 5.3344 21.5001 5.40776 21.5 5.48226V18.3001L15.2 21.0001L9.8 18.3001L4.1273 20.731C4.05882 20.7603 3.98413 20.7722 3.90992 20.7656C3.83571 20.7589 3.76431 20.734 3.70213 20.6929C3.63995 20.6519 3.58893 20.5961 3.55365 20.5304C3.51837 20.4648 3.49993 20.3915 3.5 20.317V7.50006L6.3161 6.29316C6.11796 7.30618 6.17202 8.35239 6.47352 9.33959C6.77501 10.3268 7.31469 11.2247 8.045 11.9542L12.5 16.4101L16.955 11.9551ZM15.6824 10.6825L12.5 13.8631L9.3176 10.6816C8.68838 10.0522 8.25992 9.25035 8.08638 8.37747C7.91284 7.50459 8.00203 6.59985 8.34266 5.77765C8.68328 4.95545 9.26006 4.25272 10.0001 3.7583C10.7401 3.26389 11.61 3 12.5 3C13.39 3 14.2599 3.26389 14.9999 3.7583C15.7399 4.25272 16.3167 4.95545 16.6573 5.77765C16.998 6.59985 17.0872 7.50459 16.9136 8.37747C16.7401 9.25035 16.3116 10.0522 15.6824 10.6816V10.6825Z" fill="#0A0D14" style="fill:#0A0D14;fill:color(display-p3 0.0392 0.0510 0.0784);fill-opacity:1;"/>
</svg>
