<svg width="25" height="24" viewBox="0 0 25 24" fill="none" xmlns="http://www.w3.org/2000/svg">
<path d="M18.8 19.2008H6.19995V20.1008C6.19995 20.3395 6.10513 20.5684 5.93635 20.7372C5.76756 20.906 5.53865 21.0008 5.29995 21.0008H4.39995C4.16126 21.0008 3.93234 20.906 3.76356 20.7372C3.59477 20.5684 3.49995 20.3395 3.49995 20.1008V13.3508L2.38125 13.0718C2.18663 13.023 2.01388 12.9106 1.89044 12.7525C1.767 12.5943 1.69996 12.3994 1.69995 12.1988V11.5508C1.69995 11.4314 1.74736 11.317 1.83175 11.2326C1.91614 11.1482 2.0306 11.1008 2.14995 11.1008H3.49995L5.73195 5.89158C5.87084 5.56758 6.10181 5.2915 6.3962 5.09758C6.69059 4.90367 7.03544 4.80047 7.38795 4.80078H17.612C17.9642 4.80082 18.3086 4.90419 18.6027 5.09808C18.8967 5.29197 19.1274 5.56786 19.2662 5.89158L21.5 11.1008H22.85C22.9693 11.1008 23.0838 11.1482 23.1681 11.2326C23.2525 11.317 23.3 11.4314 23.3 11.5508V12.1988C23.2999 12.3994 23.2329 12.5943 23.1095 12.7525C22.986 12.9106 22.8133 13.023 22.6187 13.0718L21.5 13.3508V20.1008C21.5 20.3395 21.4051 20.5684 21.2363 20.7372C21.0676 20.906 20.8386 21.0008 20.6 21.0008H19.7C19.4613 21.0008 19.2323 20.906 19.0636 20.7372C18.8948 20.5684 18.8 20.3395 18.8 20.1008V19.2008ZM19.7 17.4008V12.9008H5.29995V17.4008H19.7ZM6.62925 11.1008H18.3707C18.5177 11.1007 18.6624 11.0646 18.7922 10.9956C18.922 10.9267 19.033 10.827 19.1154 10.7053C19.1978 10.5835 19.2491 10.4435 19.2649 10.2973C19.2807 10.1512 19.2604 10.0034 19.2059 9.86688L17.9 6.60078H7.09995L5.79405 9.86688C5.73952 10.0034 5.71925 10.1512 5.73501 10.2973C5.75078 10.4435 5.80211 10.5835 5.88451 10.7053C5.96691 10.827 6.07787 10.9267 6.20769 10.9956C6.33752 11.0646 6.48225 11.1007 6.62925 11.1008ZM6.19995 13.8008C8.28525 13.8008 9.69105 14.4803 10.4174 15.8384C10.4541 15.907 10.4724 15.9839 10.4705 16.0616C10.4686 16.1394 10.4466 16.2154 10.4066 16.2821C10.3667 16.3488 10.3101 16.404 10.2424 16.4424C10.1747 16.4807 10.0982 16.5008 10.0205 16.5008H7.09995C6.86126 16.5008 6.63234 16.406 6.46356 16.2372C6.29477 16.0684 6.19995 15.8395 6.19995 15.6008V13.8008ZM18.8 13.8008V15.6008C18.8 15.8395 18.7051 16.0684 18.5363 16.2372C18.3676 16.406 18.1386 16.5008 17.9 16.5008H14.9795C14.9017 16.5007 14.8254 16.4804 14.7578 16.442C14.6903 16.4036 14.6338 16.3484 14.5939 16.2817C14.5541 16.215 14.5321 16.1391 14.5303 16.0614C14.5285 15.9837 14.5468 15.9069 14.5835 15.8384C15.308 14.4794 16.7138 13.8008 18.8 13.8008Z" fill="#0A0D14" style="fill:#0A0D14;fill:color(display-p3 0.0392 0.0510 0.0784);fill-opacity:1;"/>
</svg>
