<svg width="25" height="24" viewBox="0 0 25 24" fill="none" xmlns="http://www.w3.org/2000/svg">
<path d="M21.5 13.3508V20.1008C21.5 20.3395 21.4051 20.5684 21.2363 20.7372C21.0676 20.906 20.8386 21.0008 20.6 21.0008H19.7C19.4613 21.0008 19.2323 20.906 19.0636 20.7372C18.8948 20.5684 18.8 20.3395 18.8 20.1008V19.2008H6.19995V20.1008C6.19995 20.3395 6.10513 20.5684 5.93635 20.7372C5.76756 20.906 5.53865 21.0008 5.29995 21.0008H4.39995C4.16126 21.0008 3.93234 20.906 3.76356 20.7372C3.59477 20.5684 3.49995 20.3395 3.49995 20.1008V13.3508L2.38125 13.0718C2.18663 13.023 2.01388 12.9106 1.89044 12.7525C1.767 12.5943 1.69996 12.3994 1.69995 12.1988V11.5508C1.69995 11.4314 1.74736 11.317 1.83175 11.2326C1.91614 11.1482 2.0306 11.1008 2.14995 11.1008H3.83745L5.76165 5.96898C5.89029 5.62581 6.12062 5.33007 6.42185 5.12132C6.72308 4.91256 7.08086 4.80074 7.44735 4.80078H17.5526C17.919 4.80074 18.2768 4.91256 18.5781 5.12132C18.8793 5.33007 19.1096 5.62581 19.2383 5.96898L21.1625 11.1008H22.85C22.9693 11.1008 23.0838 11.1482 23.1681 11.2326C23.2525 11.317 23.3 11.4314 23.3 11.5508V12.1988C23.2999 12.3994 23.2329 12.5943 23.1095 12.7525C22.986 12.9106 22.8133 13.023 22.6187 13.0718L21.5 13.3508ZM5.29995 14.7008V16.5008C5.29995 16.7395 5.39477 16.9684 5.56356 17.1372C5.73234 17.306 5.96126 17.4008 6.19995 17.4008H9.12045C9.19816 17.4007 9.27451 17.3804 9.34207 17.342C9.40963 17.3036 9.4661 17.2484 9.50597 17.1817C9.54585 17.115 9.56777 17.0391 9.56961 16.9614C9.57144 16.8837 9.55313 16.8069 9.51645 16.7384C8.79195 15.3794 7.38615 14.7008 5.29995 14.7008ZM19.7 14.7008C17.6147 14.7008 16.2089 15.3803 15.4826 16.7384C15.4458 16.807 15.4275 16.8839 15.4294 16.9616C15.4313 17.0394 15.4533 17.1153 15.4933 17.1821C15.5332 17.2488 15.5898 17.304 15.6575 17.3424C15.7252 17.3807 15.8017 17.4008 15.8795 17.4008H18.8C19.0386 17.4008 19.2676 17.306 19.4363 17.1372C19.6051 16.9684 19.7 16.7395 19.7 16.5008V14.7008ZM7.09995 6.60078L5.69505 10.8164C5.65001 10.9516 5.63773 11.0956 5.65923 11.2365C5.68072 11.3774 5.73537 11.5112 5.81868 11.6268C5.90199 11.7425 6.01157 11.8367 6.13841 11.9017C6.26525 11.9667 6.40572 12.0007 6.54825 12.0008H18.4517C18.5942 12.0007 18.7346 11.9667 18.8615 11.9017C18.9883 11.8367 19.0979 11.7425 19.1812 11.6268C19.2645 11.5112 19.3192 11.3774 19.3407 11.2365C19.3622 11.0956 19.3499 10.9516 19.3049 10.8164L17.9 6.60078H7.09995Z" fill="#0A0D14" style="fill:#0A0D14;fill:color(display-p3 0.0392 0.0510 0.0784);fill-opacity:1;"/>
</svg>
