<svg width="25" height="24" viewBox="0 0 25 24" fill="none" xmlns="http://www.w3.org/2000/svg">
<path d="M13.4 4.85106C17.45 5.29836 20.6 8.73186 20.6 12.9016V21.0016H4.40002V12.9016C4.40002 8.73186 7.55002 5.29836 11.6 4.85106V2.10156H13.4V4.85106ZM12.5 17.4016C13.6935 17.4016 14.8381 16.9275 15.682 16.0835C16.5259 15.2396 17 14.095 17 12.9016C17 11.7081 16.5259 10.5635 15.682 9.71958C14.8381 8.87567 13.6935 8.40156 12.5 8.40156C11.3066 8.40156 10.162 8.87567 9.31804 9.71958C8.47413 10.5635 8.00002 11.7081 8.00002 12.9016C8.00002 14.095 8.47413 15.2396 9.31804 16.0835C10.162 16.9275 11.3066 17.4016 12.5 17.4016ZM12.5 15.6016C11.7839 15.6016 11.0972 15.3171 10.5908 14.8108C10.0845 14.3044 9.80002 13.6176 9.80002 12.9016C9.80002 12.1855 10.0845 11.4987 10.5908 10.9924C11.0972 10.486 11.7839 10.2016 12.5 10.2016C13.2161 10.2016 13.9029 10.486 14.4092 10.9924C14.9156 11.4987 15.2 12.1855 15.2 12.9016C15.2 13.6176 14.9156 14.3044 14.4092 14.8108C13.9029 15.3171 13.2161 15.6016 12.5 15.6016ZM12.5 13.8016C12.7387 13.8016 12.9676 13.7067 13.1364 13.538C13.3052 13.3692 13.4 13.1403 13.4 12.9016C13.4 12.6629 13.3052 12.4339 13.1364 12.2652C12.9676 12.0964 12.7387 12.0016 12.5 12.0016C12.2613 12.0016 12.0324 12.0964 11.8636 12.2652C11.6948 12.4339 11.6 12.6629 11.6 12.9016C11.6 13.1403 11.6948 13.3692 11.8636 13.538C12.0324 13.7067 12.2613 13.8016 12.5 13.8016Z" fill="#0A0D14" style="fill:#0A0D14;fill:color(display-p3 0.0392 0.0510 0.0784);fill-opacity:1;"/>
</svg>
