<svg width="25" height="24" viewBox="0 0 25 24" fill="none" xmlns="http://www.w3.org/2000/svg">
<path d="M13.625 4.5C13.625 4.83319 13.4802 5.13254 13.25 5.33854V6.75H17C18.2427 6.75 19.25 7.75736 19.25 9V16.5C19.25 17.7427 18.2427 18.75 17 18.75H8C6.75736 18.75 5.75 17.7427 5.75 16.5V9C5.75 7.75736 6.75736 6.75 8 6.75H11.75V5.33854C11.5198 5.13254 11.375 4.83319 11.375 4.5C11.375 3.87868 11.8787 3.375 12.5 3.375C13.1213 3.375 13.625 3.87868 13.625 4.5ZM8 8.25C7.58579 8.25 7.25 8.58579 7.25 9V16.5C7.25 16.9142 7.58579 17.25 8 17.25H17C17.4142 17.25 17.75 16.9142 17.75 16.5V9C17.75 8.58579 17.4142 8.25 17 8.25H13.25H11.75H8ZM5 10.5H3.5V15H5V10.5ZM20 10.5H21.5V15H20V10.5ZM10.25 13.875C10.8713 13.875 11.375 13.3713 11.375 12.75C11.375 12.1287 10.8713 11.625 10.25 11.625C9.62868 11.625 9.125 12.1287 9.125 12.75C9.125 13.3713 9.62868 13.875 10.25 13.875ZM14.75 13.875C15.3713 13.875 15.875 13.3713 15.875 12.75C15.875 12.1287 15.3713 11.625 14.75 11.625C14.1287 11.625 13.625 12.1287 13.625 12.75C13.625 13.3713 14.1287 13.875 14.75 13.875Z" fill="#0A0D14" style="fill:#0A0D14;fill:color(display-p3 0.0392 0.0510 0.0784);fill-opacity:1;"/>
</svg>
