<svg width="25" height="24" viewBox="0 0 25 24" fill="none" xmlns="http://www.w3.org/2000/svg">
<path d="M13.625 4.5C13.625 4.83319 13.4802 5.13254 13.25 5.33854V6.75H17C18.2427 6.75 19.25 7.75736 19.25 9V16.5C19.25 17.7427 18.2427 18.75 17 18.75H8C6.75736 18.75 5.75 17.7427 5.75 16.5V9C5.75 7.75736 6.75736 6.75 8 6.75H11.75V5.33854C11.5198 5.13254 11.375 4.83319 11.375 4.5C11.375 3.87868 11.8787 3.375 12.5 3.375C13.1213 3.375 13.625 3.87868 13.625 4.5ZM3.5 10.5H5V15H3.5V10.5ZM21.5 10.5H20V15H21.5V10.5ZM10.25 13.875C10.8713 13.875 11.375 13.3713 11.375 12.75C11.375 12.1287 10.8713 11.625 10.25 11.625C9.62868 11.625 9.125 12.1287 9.125 12.75C9.125 13.3713 9.62868 13.875 10.25 13.875ZM15.875 12.75C15.875 12.1287 15.3713 11.625 14.75 11.625C14.1287 11.625 13.625 12.1287 13.625 12.75C13.625 13.3713 14.1287 13.875 14.75 13.875C15.3713 13.875 15.875 13.3713 15.875 12.75Z" fill="#0A0D14" style="fill:#0A0D14;fill:color(display-p3 0.0392 0.0510 0.0784);fill-opacity:1;"/>
</svg>
