<svg width="25" height="24" viewBox="0 0 25 24" fill="none" xmlns="http://www.w3.org/2000/svg">
<path d="M13.4 4.85106C17.45 5.29836 20.6 8.73186 20.6 12.9016V21.0016H4.40002V12.9016C4.40002 8.73186 7.55002 5.29836 11.6 4.85106V2.10156H13.4V4.85106ZM18.8 19.2016V12.9016C18.8 11.2307 18.1363 9.62827 16.9548 8.44679C15.7733 7.26531 14.1709 6.60156 12.5 6.60156C10.8292 6.60156 9.22673 7.26531 8.04525 8.44679C6.86377 9.62827 6.20002 11.2307 6.20002 12.9016V19.2016H18.8ZM12.5 17.4016C11.3066 17.4016 10.162 16.9275 9.31804 16.0835C8.47413 15.2396 8.00002 14.095 8.00002 12.9016C8.00002 11.7081 8.47413 10.5635 9.31804 9.71958C10.162 8.87567 11.3066 8.40156 12.5 8.40156C13.6935 8.40156 14.8381 8.87567 15.682 9.71958C16.5259 10.5635 17 11.7081 17 12.9016C17 14.095 16.5259 15.2396 15.682 16.0835C14.8381 16.9275 13.6935 17.4016 12.5 17.4016ZM12.5 15.6016C13.2161 15.6016 13.9029 15.3171 14.4092 14.8108C14.9156 14.3044 15.2 13.6176 15.2 12.9016C15.2 12.1855 14.9156 11.4987 14.4092 10.9924C13.9029 10.486 13.2161 10.2016 12.5 10.2016C11.7839 10.2016 11.0972 10.486 10.5908 10.9924C10.0845 11.4987 9.80002 12.1855 9.80002 12.9016C9.80002 13.6176 10.0845 14.3044 10.5908 14.8108C11.0972 15.3171 11.7839 15.6016 12.5 15.6016ZM12.5 13.8016C12.2613 13.8016 12.0324 13.7067 11.8636 13.538C11.6948 13.3692 11.6 13.1403 11.6 12.9016C11.6 12.6629 11.6948 12.4339 11.8636 12.2652C12.0324 12.0964 12.2613 12.0016 12.5 12.0016C12.7387 12.0016 12.9676 12.0964 13.1364 12.2652C13.3052 12.4339 13.4 12.6629 13.4 12.9016C13.4 13.1403 13.3052 13.3692 13.1364 13.538C12.9676 13.7067 12.7387 13.8016 12.5 13.8016Z" fill="#0A0D14" style="fill:#0A0D14;fill:color(display-p3 0.0392 0.0510 0.0784);fill-opacity:1;"/>
</svg>
