<svg width="25" height="24" viewBox="0 0 25 24" fill="none" xmlns="http://www.w3.org/2000/svg">
<path d="M15.6518 19.2003C15.0564 20.6244 13.9241 21.7567 12.5 22.3521C11.076 21.7567 9.94365 20.6244 9.34825 19.2003H11.3822C11.6756 19.6404 12.0545 20.0211 12.5 20.319C12.9455 20.022 13.3244 19.6404 13.6187 19.2003H15.6518ZM17.9 14.5248L19.7 16.566V18.3003H5.30005V16.566L7.10005 14.5248V9.30027C7.10005 6.16557 9.35365 3.49797 12.5 2.50977C15.6464 3.49797 17.9 6.16557 17.9 9.30027V14.5248ZM17.243 16.5003L16.1 15.2043V9.30027C16.1 7.21407 14.687 5.31327 12.5 4.42227C10.313 5.31327 8.90005 7.21317 8.90005 9.30027V15.2043L7.75705 16.5003H17.243ZM12.5 11.1003C12.0227 11.1003 11.5648 10.9106 11.2273 10.5731C10.8897 10.2355 10.7 9.77766 10.7 9.30027C10.7 8.82288 10.8897 8.36504 11.2273 8.02747C11.5648 7.68991 12.0227 7.50027 12.5 7.50027C12.9774 7.50027 13.4353 7.68991 13.7728 8.02747C14.1104 8.36504 14.3 8.82288 14.3 9.30027C14.3 9.77766 14.1104 10.2355 13.7728 10.5731C13.4353 10.9106 12.9774 11.1003 12.5 11.1003Z" fill="#0A0D14" style="fill:#0A0D14;fill:color(display-p3 0.0392 0.0510 0.0784);fill-opacity:1;"/>
</svg>
