<svg width="25" height="24" viewBox="0 0 25 24" fill="none" xmlns="http://www.w3.org/2000/svg">
<path d="M6.20002 12.8997C6.20002 8.32054 8.81272 4.40734 12.5 2.83594C16.1873 4.40734 18.8 8.32054 18.8 12.8997C18.8 13.6404 18.7316 14.3631 18.602 15.0624L20.348 16.7112C20.4202 16.7796 20.4677 16.8699 20.4832 16.968C20.4987 17.0662 20.4812 17.1667 20.4335 17.2539L18.188 21.3714C18.1545 21.4329 18.1072 21.4857 18.0497 21.5257C17.9922 21.5656 17.9262 21.5916 17.8569 21.6016C17.7876 21.6116 17.7169 21.6052 17.6505 21.5831C17.5841 21.5609 17.5238 21.5236 17.4743 21.474L15.4637 19.4634C15.295 19.2946 15.0661 19.1998 14.8274 19.1997H10.1726C9.93394 19.1998 9.70506 19.2946 9.53632 19.4634L7.52572 21.474C7.47627 21.5236 7.41594 21.5609 7.34952 21.5831C7.28311 21.6052 7.21245 21.6116 7.14316 21.6016C7.07386 21.5916 7.00785 21.5656 6.95036 21.5257C6.89288 21.4857 6.84551 21.4329 6.81202 21.3714L4.56652 17.2539C4.51884 17.1667 4.50137 17.0662 4.51684 16.968C4.5323 16.8699 4.57984 16.7796 4.65202 16.7112L6.39802 15.0624C6.26932 14.3631 6.20002 13.6404 6.20002 12.8997ZM7.52842 18.9261L8.26372 18.1908C8.76995 17.6845 9.45659 17.3999 10.1726 17.3997H14.8274C15.5434 17.3999 16.2301 17.6845 16.7363 18.1908L17.4716 18.9261L18.3554 17.3061L17.3654 16.3701C17.1466 16.1635 16.9831 15.9053 16.8899 15.6191C16.7966 15.333 16.7766 15.028 16.8317 14.7321C16.9433 14.1345 17 13.5216 17 12.8997C17 9.41674 15.2045 6.32974 12.5 4.83574C9.79552 6.32974 8.00002 9.41674 8.00002 12.8997C8.00002 13.5216 8.05672 14.1345 8.16832 14.733C8.22339 15.0289 8.20339 15.3339 8.11015 15.62C8.01692 15.9062 7.85342 16.1644 7.63462 16.371L6.64462 17.3061L7.52842 18.9261ZM12.5 12.8997C12.0226 12.8997 11.5648 12.7101 11.2272 12.3725C10.8897 12.035 10.7 11.5771 10.7 11.0997C10.7 10.6223 10.8897 10.1645 11.2272 9.82695C11.5648 9.48938 12.0226 9.29974 12.5 9.29974C12.9774 9.29974 13.4352 9.48938 13.7728 9.82695C14.1104 10.1645 14.3 10.6223 14.3 11.0997C14.3 11.5771 14.1104 12.035 13.7728 12.3725C13.4352 12.7101 12.9774 12.8997 12.5 12.8997Z" fill="#0A0D14" style="fill:#0A0D14;fill:color(display-p3 0.0392 0.0510 0.0784);fill-opacity:1;"/>
</svg>
