<svg width="25" height="24" viewBox="0 0 25 24" fill="none" xmlns="http://www.w3.org/2000/svg">
<path d="M6.49702 15.5358C6.29889 14.6712 6.19926 13.7868 6.20002 12.8997C6.20002 8.32054 8.81272 4.40734 12.5 2.83594C16.1873 4.40734 18.8 8.32054 18.8 12.8997C18.8 13.8087 18.6974 14.6916 18.503 15.5358L20.321 17.1522C20.3993 17.2218 20.4508 17.3165 20.4667 17.42C20.4827 17.5235 20.462 17.6293 20.4083 17.7192L18.1961 21.4056C18.1609 21.4642 18.1128 21.514 18.0555 21.5512C17.9982 21.5884 17.9331 21.6121 17.8653 21.6204C17.7975 21.6287 17.7286 21.6215 17.664 21.5993C17.5994 21.577 17.5407 21.5404 17.4923 21.492L15.4637 19.4634C15.295 19.2946 15.0661 19.1998 14.8274 19.1997H10.1726C9.93394 19.1998 9.70506 19.2946 9.53632 19.4634L7.50772 21.492C7.45938 21.5404 7.40068 21.577 7.33605 21.5993C7.27143 21.6215 7.20259 21.6287 7.13476 21.6204C7.06692 21.6121 7.00187 21.5884 6.94455 21.5512C6.88723 21.514 6.83913 21.4642 6.80392 21.4056L4.59172 17.7201C4.53779 17.6301 4.51699 17.5241 4.53294 17.4204C4.54888 17.3167 4.60055 17.2219 4.67902 17.1522L6.49702 15.5358ZM12.5 12.8997C12.9774 12.8997 13.4352 12.7101 13.7728 12.3725C14.1104 12.035 14.3 11.5771 14.3 11.0997C14.3 10.6223 14.1104 10.1645 13.7728 9.82695C13.4352 9.48938 12.9774 9.29974 12.5 9.29974C12.0226 9.29974 11.5648 9.48938 11.2272 9.82695C10.8897 10.1645 10.7 10.6223 10.7 11.0997C10.7 11.5771 10.8897 12.035 11.2272 12.3725C11.5648 12.7101 12.0226 12.8997 12.5 12.8997Z" fill="#0A0D14" style="fill:#0A0D14;fill:color(display-p3 0.0392 0.0510 0.0784);fill-opacity:1;"/>
</svg>
