<svg width="25" height="24" viewBox="0 0 25 24" fill="none" xmlns="http://www.w3.org/2000/svg">
<path d="M12.5 3C17.4707 3 21.5 7.0293 21.5 12C21.5 13.9224 20.897 15.7044 19.8701 17.1669L17 12H19.7C19.6999 10.3406 19.1265 8.73216 18.077 7.4468C17.0275 6.16145 15.5662 5.27807 13.9403 4.94612C12.3144 4.61417 10.6238 4.85402 9.15441 5.62509C7.68502 6.39616 6.52708 7.65112 5.87647 9.17767C5.22586 10.7042 5.12252 12.4087 5.58394 14.0026C6.04536 15.5966 7.0432 16.9823 8.40867 17.9252C9.77414 18.8681 11.4234 19.3105 13.0775 19.1774C14.7315 19.0443 16.2889 18.3439 17.486 17.1948L18.3842 18.8103C16.7509 20.2256 14.6612 21.0032 12.5 21C7.5293 21 3.5 16.9707 3.5 12C3.5 7.0293 7.5293 3 12.5 3ZM12.5 7.5C13.2161 7.5 13.9028 7.78446 14.4092 8.29081C14.9155 8.79716 15.2 9.48392 15.2 10.2V11.1H16.1V15.6H8.9V11.1H9.8V10.2C9.8 9.48392 10.0845 8.79716 10.5908 8.29081C11.0972 7.78446 11.7839 7.5 12.5 7.5ZM14.3 12.9H10.7V13.8H14.3V12.9ZM12.5 9.3C12.2796 9.30003 12.0668 9.38096 11.9021 9.52744C11.7373 9.67393 11.6321 9.87577 11.6063 10.0947L11.6 10.2V11.1H13.4V10.2C13.4 9.97956 13.319 9.7668 13.1726 9.60206C13.0261 9.43733 12.8242 9.33209 12.6053 9.3063L12.5 9.3Z" fill="#0A0D14" style="fill:#0A0D14;fill:color(display-p3 0.0392 0.0510 0.0784);fill-opacity:1;"/>
</svg>
