<svg width="25" height="24" viewBox="0 0 25 24" fill="none" xmlns="http://www.w3.org/2000/svg">
<path d="M20.6 18.3004V20.1004H18.8V18.3004H20.6ZM17 18.3004V20.1004H15.2V18.3004H17ZM13.4 18.3004V20.1004H11.6V18.3004H13.4ZM9.80002 18.3004V20.1004H8.00002V18.3004H9.80002ZM6.20002 18.3004V20.1004H4.40002V18.3004H6.20002ZM20.6 14.7004V16.5004H18.8V14.7004H20.6ZM6.20002 14.7004V16.5004H4.40002V14.7004H6.20002ZM6.20002 11.1004V12.9004H4.40002V11.1004H6.20002ZM16.1 3.90039C18.5183 3.90039 20.4938 5.81199 20.5955 8.20509L20.6 8.40039V12.9004H18.8V8.40039C18.8 6.96849 17.6705 5.78769 16.2584 5.70489L16.1 5.70039H11.6V3.90039H16.1ZM6.20002 7.50039V9.30039H4.40002V7.50039H6.20002ZM6.20002 3.90039V5.70039H4.40002V3.90039H6.20002ZM9.80002 3.90039V5.70039H8.00002V3.90039H9.80002Z" fill="#0A0D14" style="fill:#0A0D14;fill:color(display-p3 0.0392 0.0510 0.0784);fill-opacity:1;"/>
</svg>
