<svg width="25" height="24" viewBox="0 0 25 24" fill="none" xmlns="http://www.w3.org/2000/svg">
<path d="M5.30001 14.7008V8.85083C5.30001 7.7767 5.7267 6.74657 6.48622 5.98705C7.24575 5.22752 8.27588 4.80083 9.35001 4.80083C10.4241 4.80083 11.4543 5.22752 12.2138 5.98705C12.9733 6.74657 13.4 7.7767 13.4 8.85083V15.1508C13.4 15.7476 13.6371 16.3199 14.059 16.7418C14.481 17.1638 15.0533 17.4008 15.65 17.4008C16.2467 17.4008 16.819 17.1638 17.241 16.7418C17.663 16.3199 17.9 15.7476 17.9 15.1508V9.14783C17.2993 8.93551 16.7929 8.51765 16.4705 7.9681C16.148 7.41856 16.0303 6.77271 16.138 6.14472C16.2457 5.51673 16.5719 4.94704 17.0591 4.53634C17.5462 4.12565 18.1628 3.90039 18.8 3.90039C19.4372 3.90039 20.0538 4.12565 20.5409 4.53634C21.0281 4.94704 21.3543 5.51673 21.462 6.14472C21.5697 6.77271 21.452 7.41856 21.1295 7.9681C20.8071 8.51765 20.3007 8.93551 19.7 9.14783V15.1508C19.7 16.225 19.2733 17.2551 18.5138 18.0146C17.7543 18.7741 16.7241 19.2008 15.65 19.2008C14.5759 19.2008 13.5457 18.7741 12.7862 18.0146C12.0267 17.2551 11.6 16.225 11.6 15.1508V8.85083C11.6 8.25409 11.363 7.6818 10.941 7.25984C10.519 6.83788 9.94674 6.60083 9.35001 6.60083C8.75327 6.60083 8.18097 6.83788 7.75902 7.25984C7.33706 7.6818 7.10001 8.25409 7.10001 8.85083V14.7008H9.80001L6.20001 19.2008L2.60001 14.7008H5.30001ZM18.8 7.50083C19.0387 7.50083 19.2676 7.40601 19.4364 7.23723C19.6052 7.06844 19.7 6.83952 19.7 6.60083C19.7 6.36213 19.6052 6.13322 19.4364 5.96443C19.2676 5.79565 19.0387 5.70083 18.8 5.70083C18.5613 5.70083 18.3324 5.79565 18.1636 5.96443C17.9948 6.13322 17.9 6.36213 17.9 6.60083C17.9 6.83952 17.9948 7.06844 18.1636 7.23723C18.3324 7.40601 18.5613 7.50083 18.8 7.50083Z" fill="#0A0D14" style="fill:#0A0D14;fill:color(display-p3 0.0392 0.0510 0.0784);fill-opacity:1;"/>
</svg>
