<svg width="25" height="24" viewBox="0 0 25 24" fill="none" xmlns="http://www.w3.org/2000/svg">
<path d="M11.6 13.8V11.1H13.4V13.8H17.9C18.1387 13.8 18.3676 13.8948 18.5364 14.0636C18.7052 14.2324 18.8 14.4613 18.8 14.7V20.1C18.8 20.3387 18.7052 20.5676 18.5364 20.7364C18.3676 20.9052 18.1387 21 17.9 21H7.09998C6.86129 21 6.63237 20.9052 6.46359 20.7364C6.29481 20.5676 6.19998 20.3387 6.19998 20.1V14.7C6.19998 14.4613 6.29481 14.2324 6.46359 14.0636C6.63237 13.8948 6.86129 13.8 7.09998 13.8H11.6ZM3.95898 9.1533C5.15148 5.5776 8.52558 3 12.5 3C16.4744 3 19.8494 5.5776 21.041 9.1533L19.3328 9.7221C18.8546 8.28816 17.9374 7.041 16.7111 6.15724C15.4848 5.27349 14.0116 4.79794 12.5 4.79794C10.9884 4.79794 9.51516 5.27349 8.28885 6.15724C7.06255 7.041 6.14536 8.28816 5.66718 9.7221L3.95988 9.1533H3.95898ZM7.37538 10.2918C7.73436 9.21667 8.42238 8.28168 9.34206 7.61915C10.2617 6.95663 11.3665 6.60014 12.5 6.60014C13.6335 6.60014 14.7382 6.95663 15.6579 7.61915C16.5776 8.28168 17.2656 9.21667 17.6246 10.2918L15.9164 10.8615C15.6771 10.1447 15.2184 9.52142 14.6053 9.07973C13.9921 8.63805 13.2556 8.40039 12.5 8.40039C11.7443 8.40039 11.0078 8.63805 10.3947 9.07973C9.78158 9.52142 9.3229 10.1447 9.08358 10.8615L7.37538 10.2918Z" fill="#0A0D14" style="fill:#0A0D14;fill:color(display-p3 0.0392 0.0510 0.0784);fill-opacity:1;"/>
</svg>
