<svg width="25" height="24" viewBox="0 0 25 24" fill="none" xmlns="http://www.w3.org/2000/svg">
<path d="M7.40869 14.3593L4.86349 16.9054L8.04499 20.0869L20.1365 7.99543L16.955 4.81393L15.0452 6.72283L16.3187 7.99543L15.0452 9.26803L13.7726 7.99543L11.8637 9.90523L13.7726 11.8132L12.5 13.0876L10.5911 11.1787L8.68129 13.0876L9.95479 14.3602L8.68129 15.6337L7.40869 14.3602V14.3593ZM17.5913 2.90413L22.0463 7.35913C22.215 7.52791 22.3098 7.75678 22.3098 7.99543C22.3098 8.23408 22.215 8.46296 22.0463 8.63173L8.68129 21.9967C8.51252 22.1655 8.28364 22.2602 8.04499 22.2602C7.80635 22.2602 7.57747 22.1655 7.40869 21.9967L2.95369 17.5417C2.78497 17.373 2.69019 17.1441 2.69019 16.9054C2.69019 16.6668 2.78497 16.4379 2.95369 16.2691L16.3187 2.90413C16.4875 2.73541 16.7163 2.64062 16.955 2.64062C17.1936 2.64062 17.4225 2.73541 17.5913 2.90413Z" fill="#0A0D14" style="fill:#0A0D14;fill:color(display-p3 0.0392 0.0510 0.0784);fill-opacity:1;"/>
</svg>
