<svg width="25" height="24" viewBox="0 0 25 24" fill="none" xmlns="http://www.w3.org/2000/svg">
<path d="M15.2 20.1004H13.4V17.4004H11.6V20.1004H9.80002V18.3004H8.00002V20.1004H5.30002C5.06133 20.1004 4.83241 20.0056 4.66363 19.8368C4.49485 19.668 4.40002 19.4391 4.40002 19.2004V16.5004H6.20002V14.7004H4.40002V12.9004H7.10002V11.1004H4.40002V9.30039H6.20002V7.50039H4.40002V4.80039C4.40002 4.5617 4.49485 4.33278 4.66363 4.16399C4.83241 3.99521 5.06133 3.90039 5.30002 3.90039H10.7C10.9387 3.90039 11.1676 3.99521 11.3364 4.16399C11.5052 4.33278 11.6 4.5617 11.6 4.80039V12.9004H19.7C19.9387 12.9004 20.1676 12.9952 20.3364 13.164C20.5052 13.3328 20.6 13.5617 20.6 13.8004V19.2004C20.6 19.4391 20.5052 19.668 20.3364 19.8368C20.1676 20.0056 19.9387 20.1004 19.7 20.1004H17V18.3004H15.2V20.1004Z" fill="#0A0D14" style="fill:#0A0D14;fill:color(display-p3 0.0392 0.0510 0.0784);fill-opacity:1;"/>
</svg>
