<svg width="25" height="24" viewBox="0 0 25 24" fill="none" xmlns="http://www.w3.org/2000/svg">
<path d="M6.13609 13.0867L8.04499 14.9956L9.31759 13.723L7.40959 11.8141L9.31759 9.90523L11.8637 12.4504L13.1363 11.1778L10.592 8.63173L12.5 6.72283L14.4089 8.63173L15.6824 7.35913L13.7726 5.45023L16.3187 2.90413C16.4875 2.73541 16.7163 2.64062 16.955 2.64062C17.1936 2.64062 17.4225 2.73541 17.5913 2.90413L22.0463 7.35913C22.215 7.52791 22.3098 7.75678 22.3098 7.99543C22.3098 8.23408 22.215 8.46296 22.0463 8.63173L8.68129 21.9967C8.51252 22.1655 8.28364 22.2602 8.04499 22.2602C7.80635 22.2602 7.57747 22.1655 7.40869 21.9967L2.95369 17.5417C2.78497 17.373 2.69019 17.1441 2.69019 16.9054C2.69019 16.6668 2.78497 16.4379 2.95369 16.2691L6.13609 13.0867Z" fill="#0A0D14" style="fill:#0A0D14;fill:color(display-p3 0.0392 0.0510 0.0784);fill-opacity:1;"/>
</svg>
