<svg width="25" height="24" viewBox="0 0 25 24" fill="none" xmlns="http://www.w3.org/2000/svg">
<path d="M10.547 9.11178L8.89999 9.71118V12.9008H7.09999V8.44578H7.11349L11.8547 6.71958C12.0743 6.63588 12.3137 6.59358 12.5585 6.60168C13.0476 6.61388 13.5209 6.77818 13.9123 7.07174C14.3038 7.3653 14.5941 7.77353 14.7428 8.23968C14.9102 8.76438 15.0632 9.11898 15.2018 9.30348C15.6207 9.86204 16.1639 10.3153 16.7885 10.6273C17.4131 10.9393 18.1018 11.1014 18.8 11.1008V12.9008C17.8706 12.9018 16.9525 12.6967 16.1118 12.3004C15.2711 11.904 14.5288 11.3262 13.9382 10.6085L13.4153 13.5758L15.2 15.3038V21.9008H13.4V16.5134L11.555 14.7251L10.7027 18.5933L4.49809 17.4998L4.81129 15.7268L9.24289 16.508L10.547 9.11178ZM13.85 6.15078C13.3726 6.15078 12.9148 5.96114 12.5772 5.62357C12.2396 5.28601 12.05 4.82817 12.05 4.35078C12.05 3.87339 12.2396 3.41555 12.5772 3.07799C12.9148 2.74042 13.3726 2.55078 13.85 2.55078C14.3274 2.55078 14.7852 2.74042 15.1228 3.07799C15.4604 3.41555 15.65 3.87339 15.65 4.35078C15.65 4.82817 15.4604 5.28601 15.1228 5.62357C14.7852 5.96114 14.3274 6.15078 13.85 6.15078Z" fill="#0A0D14" style="fill:#0A0D14;fill:color(display-p3 0.0392 0.0510 0.0784);fill-opacity:1;"/>
</svg>
