<svg width="25" height="24" viewBox="0 0 25 24" fill="none" xmlns="http://www.w3.org/2000/svg">
<path d="M17.7308 7.0527L13.7726 13.2726L7.5527 17.2308C8.66323 18.2839 10.0814 18.9543 11.6 19.1442V17.4H13.4V19.1442C14.6816 18.9846 15.8963 18.4814 16.9154 17.688L15.6824 16.455L16.955 15.1824L18.188 16.4154C18.9814 15.3963 19.4846 14.1816 19.6442 12.9H17.9V11.1H19.6442C19.4543 9.58137 18.7839 8.16323 17.7308 7.0527ZM17.4473 6.7692C16.3368 5.71611 14.9186 5.04567 13.4 4.8558V6.6H11.6V4.8558C10.3184 5.01544 9.10371 5.51859 8.0846 6.312L9.3176 7.545L8.045 8.8176L6.812 7.5846C6.01859 8.60371 5.51544 9.81836 5.3558 11.1H7.1V12.9H5.3558C5.54567 14.4186 6.21611 15.8368 7.2692 16.9473L11.2274 10.7274L17.4473 6.7692ZM12.5 21C7.5293 21 3.5 16.9707 3.5 12C3.5 7.0293 7.5293 3 12.5 3C17.4707 3 21.5 7.0293 21.5 12C21.5 16.9707 17.4707 21 12.5 21Z" fill="#0A0D14" style="fill:#0A0D14;fill:color(display-p3 0.0392 0.0510 0.0784);fill-opacity:1;"/>
</svg>
