<svg width="25" height="24" viewBox="0 0 25 24" fill="none" xmlns="http://www.w3.org/2000/svg">
<path d="M16.73 7.32L11.2274 10.7274L7.82 16.23L7.7264 16.1364L6.4529 17.409L7.0901 18.0462L8.3627 16.7727L8.27 16.68L13.7726 13.2735L17.18 7.77L17.2736 7.8636L18.5471 6.591L17.9099 5.9538L16.6373 7.2273L16.7309 7.3209L16.73 7.32ZM12.5 21C7.5293 21 3.5 16.9707 3.5 12C3.5 7.0293 7.5293 3 12.5 3C17.4707 3 21.5 7.0293 21.5 12C21.5 16.9707 17.4707 21 12.5 21ZM12.05 3.9V5.7H12.95V3.9H12.05ZM12.05 18.3V20.1H12.95V18.3H12.05ZM8.9846 4.6884L9.6731 6.3516L10.5047 6.0078L9.8162 4.3446L8.9846 4.6884ZM14.4953 17.9922L15.1838 19.6554L16.0154 19.3116L15.3269 17.6484L14.4953 17.9922ZM15.1838 4.3446L14.4953 6.0078L15.3269 6.3516L16.0154 4.6884L15.1838 4.3446ZM9.674 17.6484L8.9855 19.3116L9.8171 19.6554L10.5056 17.9922L9.674 17.6484ZM20.6 11.55H18.8V12.45H20.6V11.55ZM6.2 11.55H4.4V12.45H6.2V11.55ZM20.1122 14.8035L18.4607 14.0889L18.1034 14.9151L19.7549 15.6297L20.1122 14.8035ZM6.8966 9.0849L5.246 8.3703L4.8887 9.1965L6.5402 9.9111L6.8975 9.0849H6.8966ZM19.8116 8.4846L18.1484 9.1731L18.4922 10.0047L20.1554 9.3162L19.8116 8.4846ZM6.5078 13.9953L4.8446 14.6838L5.1884 15.5154L6.8516 14.8269L6.5078 13.9953ZM18.5462 17.409L17.2727 16.1364L16.6364 16.7727L17.909 18.0462L18.5462 17.409ZM8.3636 7.2273L7.091 5.9538L6.4538 6.591L7.7273 7.8636L8.3636 7.2273ZM11.8808 11.3808L15.1307 9.3693L13.1192 12.6183L11.8808 11.3808Z" fill="#0A0D14" style="fill:#0A0D14;fill:color(display-p3 0.0392 0.0510 0.0784);fill-opacity:1;"/>
</svg>
