<svg width="25" height="24" viewBox="0 0 25 24" fill="none" xmlns="http://www.w3.org/2000/svg">
<path d="M17.9 19.2004H7.1V21.0004H5.3V19.2004H4.4C4.16131 19.2004 3.93239 19.1056 3.7636 18.9368C3.59482 18.768 3.5 18.5391 3.5 18.3004V4.80039C3.5 4.5617 3.59482 4.33278 3.7636 4.16399C3.93239 3.99521 4.16131 3.90039 4.4 3.90039H20.6C20.8387 3.90039 21.0676 3.99521 21.2364 4.16399C21.4052 4.33278 21.5 4.5617 21.5 4.80039V18.3004C21.5 18.5391 21.4052 18.768 21.2364 18.9368C21.0676 19.1056 20.8387 19.2004 20.6 19.2004H19.7V21.0004H17.9V19.2004ZM5.3 17.4004H19.7V5.70039H5.3V17.4004ZM13.4 13.687V16.5004H11.6V13.687C10.7536 13.4658 10.0165 12.9442 9.52658 12.2194C9.03661 11.4946 8.82719 10.6163 8.93741 9.74839C9.04763 8.88051 9.46996 8.08241 10.1255 7.50312C10.7811 6.92382 11.6251 6.60294 12.5 6.60039C13.3768 6.59952 14.2238 6.91871 14.8821 7.49803C15.5403 8.07735 15.9644 8.87698 16.0749 9.74683C16.1853 10.6167 15.9745 11.497 15.4821 12.2224C14.9896 12.9479 14.2492 13.4686 13.4 13.687ZM12.5 12.0004C12.9774 12.0004 13.4352 11.8107 13.7728 11.4732C14.1104 11.1356 14.3 10.6778 14.3 10.2004C14.3 9.723 14.1104 9.26516 13.7728 8.9276C13.4352 8.59003 12.9774 8.40039 12.5 8.40039C12.0226 8.40039 11.5648 8.59003 11.2272 8.9276C10.8896 9.26516 10.7 9.723 10.7 10.2004C10.7 10.6778 10.8896 11.1356 11.2272 11.4732C11.5648 11.8107 12.0226 12.0004 12.5 12.0004Z" fill="#0A0D14" style="fill:#0A0D14;fill:color(display-p3 0.0392 0.0510 0.0784);fill-opacity:1;"/>
</svg>
