<svg width="25" height="24" viewBox="0 0 25 24" fill="none" xmlns="http://www.w3.org/2000/svg">
<path d="M19.7 19.5001V21.0004H17.9V19.8007L11.2238 20.9131C11.1594 20.9238 11.0934 20.9204 11.0304 20.903C10.9674 20.8857 10.909 20.8548 10.8591 20.8126C10.8093 20.7704 10.7692 20.7178 10.7418 20.6585C10.7143 20.5993 10.7 20.5348 10.7 20.4694V19.2004H7.1V21.0004H5.3V19.2004H4.4C4.16131 19.2004 3.93239 19.1056 3.7636 18.9368C3.59482 18.768 3.5 18.5391 3.5 18.3004V4.80043C3.5 4.56174 3.59482 4.33282 3.7636 4.16404C3.93239 3.99525 4.16131 3.90043 4.4 3.90043H10.7V2.63143C10.7 2.56611 10.7143 2.50158 10.7418 2.44232C10.7692 2.38306 10.8093 2.33049 10.8591 2.28827C10.909 2.24605 10.9674 2.21519 11.0304 2.19783C11.0934 2.18046 11.1594 2.17702 11.2238 2.18773L20.7476 3.77533C20.9578 3.81027 21.1487 3.91862 21.2865 4.08111C21.4242 4.2436 21.4999 4.4497 21.5 4.66273V6.60043H22.4V8.40043H21.5V14.7004H22.4V16.5004H21.5V18.4381C21.4999 18.6512 21.4242 18.8573 21.2865 19.0198C21.1487 19.1822 20.9578 19.2906 20.7476 19.3255L19.7 19.5001ZM5.3 5.70043V17.4004H10.7V5.70043H5.3ZM12.5 18.8764L19.7 17.6758V5.42503L12.5 4.22533V18.8755V18.8764ZM16.55 13.8004C15.8048 13.8004 15.2 12.7924 15.2 11.5504C15.2 10.3084 15.8048 9.30043 16.55 9.30043C17.2952 9.30043 17.9 10.3084 17.9 11.5504C17.9 12.7924 17.2952 13.8004 16.55 13.8004Z" fill="#0A0D14" style="fill:#0A0D14;fill:color(display-p3 0.0392 0.0510 0.0784);fill-opacity:1;"/>
</svg>
