<svg width="25" height="24" viewBox="0 0 25 24" fill="none" xmlns="http://www.w3.org/2000/svg">
<path d="M17.9 19.2004H7.1V21.0004H5.3V19.2004H4.4C4.16131 19.2004 3.93239 19.1056 3.7636 18.9368C3.59482 18.768 3.5 18.5391 3.5 18.3004V4.80039C3.5 4.5617 3.59482 4.33278 3.7636 4.16399C3.93239 3.99521 4.16131 3.90039 4.4 3.90039H20.6C20.8387 3.90039 21.0676 3.99521 21.2364 4.16399C21.4052 4.33278 21.5 4.5617 21.5 4.80039V18.3004C21.5 18.5391 21.4052 18.768 21.2364 18.9368C21.0676 19.1056 20.8387 19.2004 20.6 19.2004H19.7V21.0004H17.9V19.2004ZM11.6 13.687V16.5004H13.4V13.687C14.2464 13.4658 14.9835 12.9442 15.4734 12.2194C15.9634 11.4946 16.1728 10.6163 16.0626 9.74839C15.9524 8.88051 15.53 8.08241 14.8745 7.50312C14.2189 6.92382 13.3749 6.60294 12.5 6.60039C11.6232 6.59952 10.7762 6.91871 10.1179 7.49803C9.45974 8.07735 9.0356 8.87698 8.92513 9.74683C8.81466 10.6167 9.02545 11.497 9.51795 12.2224C10.0104 12.9479 10.7508 13.4686 11.6 13.687ZM12.5 12.0004C12.0226 12.0004 11.5648 11.8107 11.2272 11.4732C10.8896 11.1356 10.7 10.6778 10.7 10.2004C10.7 9.723 10.8896 9.26516 11.2272 8.9276C11.5648 8.59003 12.0226 8.40039 12.5 8.40039C12.9774 8.40039 13.4352 8.59003 13.7728 8.9276C14.1104 9.26516 14.3 9.723 14.3 10.2004C14.3 10.6778 14.1104 11.1356 13.7728 11.4732C13.4352 11.8107 12.9774 12.0004 12.5 12.0004Z" fill="#0A0D14" style="fill:#0A0D14;fill:color(display-p3 0.0392 0.0510 0.0784);fill-opacity:1;"/>
</svg>
