<svg width="25" height="24" viewBox="0 0 25 24" fill="none" xmlns="http://www.w3.org/2000/svg">
<path d="M4.39995 17.4003H20.6C20.6835 17.4003 20.7654 17.4236 20.8365 17.4675C20.9076 17.5114 20.9651 17.5743 21.0024 17.649C21.0398 17.7238 21.0556 17.8075 21.0481 17.8907C21.0406 17.9739 21.0101 18.0534 20.96 18.1203L19.07 20.6403C18.9861 20.7521 18.8774 20.8428 18.7524 20.9053C18.6275 20.9678 18.4897 21.0003 18.35 21.0003H6.64995C6.51023 21.0003 6.37243 20.9678 6.24746 20.9053C6.12249 20.8428 6.01378 20.7521 5.92995 20.6403L4.03995 18.1203C3.98981 18.0534 3.95927 17.9739 3.95177 17.8907C3.94426 17.8075 3.96009 17.7238 3.99746 17.649C4.03483 17.5743 4.09228 17.5114 4.16337 17.4675C4.23446 17.4236 4.31638 17.4003 4.39995 17.4003ZM15.2 3.38279V14.7003C15.2 14.939 15.1051 15.1679 14.9363 15.3367C14.7676 15.5055 14.5386 15.6003 14.3 15.6003H5.33595C5.25127 15.6002 5.16835 15.5762 5.09671 15.531C5.02507 15.4859 4.96761 15.4214 4.93095 15.3451C4.89429 15.2688 4.87991 15.1837 4.88946 15.0995C4.89902 15.0154 4.93211 14.9357 4.98495 14.8695L14.399 3.10199C14.4572 3.02936 14.5366 2.97659 14.6261 2.95096C14.7157 2.92534 14.8109 2.92812 14.8988 2.95893C14.9867 2.98974 15.0629 3.04705 15.1168 3.12297C15.1707 3.19889 15.1998 3.28967 15.2 3.38279Z" fill="#0A0D14" style="fill:#0A0D14;fill:color(display-p3 0.0392 0.0510 0.0784);fill-opacity:1;"/>
</svg>
