<svg width="25" height="24" viewBox="0 0 25 24" fill="none" xmlns="http://www.w3.org/2000/svg">
<path d="M17.9 18.3004H18.8V7.34559L17.1548 5.70039H16.1V9.30039H8.00002V5.70039H6.20002V18.3004H7.10002V12.0004H17.9V18.3004ZM5.30002 3.90039H17.9L20.3363 6.33669C20.5051 6.50543 20.6 6.73432 20.6 6.97299V19.2004C20.6 19.4391 20.5052 19.668 20.3364 19.8368C20.1676 20.0056 19.9387 20.1004 19.7 20.1004H5.30002C5.06133 20.1004 4.83241 20.0056 4.66363 19.8368C4.49485 19.668 4.40002 19.4391 4.40002 19.2004V4.80039C4.40002 4.5617 4.49485 4.33278 4.66363 4.16399C4.83241 3.99521 5.06133 3.90039 5.30002 3.90039ZM8.90002 13.8004V18.3004H16.1V13.8004H8.90002Z" fill="#0A0D14" style="fill:#0A0D14;fill:color(display-p3 0.0392 0.0510 0.0784);fill-opacity:1;"/>
</svg>
