<svg width="25" height="24" viewBox="0 0 25 24" fill="none" xmlns="http://www.w3.org/2000/svg">
<path d="M6.20002 5.70039V18.3004H18.8V8.24559L16.2548 5.70039H6.20002ZM5.30002 3.90039H17L20.3363 7.23669C20.5051 7.40543 20.6 7.63432 20.6 7.87299V19.2004C20.6 19.4391 20.5052 19.668 20.3364 19.8368C20.1676 20.0056 19.9387 20.1004 19.7 20.1004H5.30002C5.06133 20.1004 4.83241 20.0056 4.66363 19.8368C4.49485 19.668 4.40002 19.4391 4.40002 19.2004V4.80039C4.40002 4.5617 4.49485 4.33278 4.66363 4.16399C4.83241 3.99521 5.06133 3.90039 5.30002 3.90039ZM12.5 17.4004C11.7839 17.4004 11.0972 17.1159 10.5908 16.6096C10.0845 16.1032 9.80002 15.4165 9.80002 14.7004C9.80002 13.9843 10.0845 13.2976 10.5908 12.7912C11.0972 12.2849 11.7839 12.0004 12.5 12.0004C13.2161 12.0004 13.9029 12.2849 14.4092 12.7912C14.9156 13.2976 15.2 13.9843 15.2 14.7004C15.2 15.4165 14.9156 16.1032 14.4092 16.6096C13.9029 17.1159 13.2161 17.4004 12.5 17.4004ZM7.10002 6.60039H15.2V10.2004H7.10002V6.60039Z" fill="#0A0D14" style="fill:#0A0D14;fill:color(display-p3 0.0392 0.0510 0.0784);fill-opacity:1;"/>
</svg>
