<svg width="25" height="24" viewBox="0 0 25 24" fill="none" xmlns="http://www.w3.org/2000/svg">
<path d="M7.10005 3C7.10005 3.4617 7.54105 3.9 8.00005 3.9H17C17.4617 3.9 17.9 3.459 17.9 3H19.7C19.7 4.4913 18.4913 5.7 17 5.7H13.4L13.4009 7.5558C16.9523 7.9995 19.7 11.0289 19.7 14.7V20.1C19.7 20.5968 19.2968 21 18.8 21H6.20005C5.70325 21 5.30005 20.5968 5.30005 20.1V14.7C5.30005 11.028 8.04865 7.9986 11.6 7.5558V5.7H8.00005C6.50605 5.7 5.30005 4.494 5.30005 3H7.10005ZM12.5 11.1C10.511 11.1 8.90005 12.711 8.90005 14.7C8.90005 16.689 10.511 18.3 12.5 18.3C14.489 18.3 16.1 16.689 16.1 14.7C16.1 14.0322 15.9182 13.4076 15.6014 12.8712L13.1363 15.3372L13.0517 15.411C12.6989 15.6855 12.1877 15.6612 11.8637 15.3363C11.5127 14.9853 11.5127 14.4147 11.8637 14.0637L14.3288 11.5977C13.7924 11.2827 13.1678 11.1 12.5 11.1Z" fill="#0A0D14" style="fill:#0A0D14;fill:color(display-p3 0.0392 0.0510 0.0784);fill-opacity:1;"/>
</svg>
