<svg width="25" height="24" viewBox="0 0 25 24" fill="none" xmlns="http://www.w3.org/2000/svg">
<path d="M13.4 3V3.9H19.7V5.7H13.4V18.3H17V20.1H7.99998V18.3H11.6V5.7H5.29998V3.9H11.6V3H13.4ZM6.19998 6.9087L8.74518 9.4548C9.39678 10.1055 9.79998 11.0055 9.79998 12C9.79998 13.989 8.18898 15.6 6.19998 15.6C4.21098 15.6 2.59998 13.989 2.59998 12C2.59998 11.0055 3.00318 10.1055 3.65478 9.4548L6.19998 6.9087ZM18.8 6.9087L21.3452 9.4548C21.9968 10.1055 22.4 11.0055 22.4 12C22.4 13.989 20.789 15.6 18.8 15.6C16.811 15.6 15.2 13.989 15.2 12C15.2 11.0055 15.6032 10.1055 16.2548 9.4548L18.8 6.9087ZM18.8 9.4548L17.5274 10.7274C17.1908 11.064 17 11.514 17 12L20.6 12.0009C20.6 11.5149 20.4092 11.064 20.0726 10.7274L18.8 9.4548ZM6.19998 9.4548L4.92738 10.7274C4.59078 11.064 4.39998 11.514 4.39998 12L7.99998 12.0009C7.99998 11.5149 7.80918 11.064 7.47258 10.7274L6.19998 9.4548Z" fill="#0A0D14" style="fill:#0A0D14;fill:color(display-p3 0.0392 0.0510 0.0784);fill-opacity:1;"/>
</svg>
