<svg width="25" height="24" viewBox="0 0 25 24" fill="none" xmlns="http://www.w3.org/2000/svg">
<path d="M13.4 3V4.1502L17.9 5.6514L21.1688 4.5624L21.7385 6.2688L19.0097 7.1787L21.7961 14.8395C20.8133 15.8628 19.43 16.5 17.9 16.5C16.3691 16.5 14.9867 15.8628 14.0039 14.8395L16.7885 7.1787L13.4 6.0483V18.3H17V20.1H7.99996V18.3H11.6V6.0483L8.20876 7.1787L10.9952 14.8395C10.0133 15.8628 8.62996 16.5 7.09996 16.5C5.56906 16.5 4.18666 15.8628 3.20386 14.8395L5.98846 7.1787L3.26146 6.2697L3.83116 4.5615L7.09996 5.6505L11.6 4.1502V3H13.4ZM17.9 9.3927L16.1378 14.2401C16.6661 14.538 17.2691 14.7 17.9 14.7C18.53 14.7 19.133 14.538 19.6622 14.241L17.9 9.3918V9.3927ZM7.09996 9.3927L5.33776 14.2401C5.86606 14.538 6.46906 14.7 7.09996 14.7C7.72996 14.7 8.33296 14.538 8.86216 14.241L7.09996 9.3918V9.3927Z" fill="#0A0D14" style="fill:#0A0D14;fill:color(display-p3 0.0392 0.0510 0.0784);fill-opacity:1;"/>
</svg>
