<svg width="25" height="24" viewBox="0 0 25 24" fill="none" xmlns="http://www.w3.org/2000/svg">
<path d="M6.42416 4.56712L13.8574 12.0004L12.5 13.3578L9.19184 10.0497C8.76688 10.7702 8.58882 11.6098 8.68473 12.4407C8.78064 13.2717 9.14527 14.0487 9.72318 14.6534C10.3011 15.2582 11.0607 15.6577 11.8865 15.7912C12.7122 15.9248 13.559 15.785 14.2981 15.3932C15.0371 15.0013 15.628 14.3789 15.9809 13.6205C16.3338 12.8621 16.4294 12.0092 16.2532 11.1915C16.077 10.3737 15.6386 9.63593 15.0046 9.09021C14.3706 8.54448 13.5758 8.2207 12.741 8.16808L11.0082 6.43528C12.3178 6.08407 13.7094 6.20616 14.9379 6.78005C16.1664 7.35394 17.1531 8.34283 17.7242 9.57263C18.2953 10.8024 18.4143 12.1943 18.0601 13.5032C17.706 14.8121 16.9014 15.954 15.7881 16.728C14.6748 17.5021 13.3241 17.8585 11.9738 17.7346C10.6235 17.6107 9.36023 17.0144 8.40635 16.0507C7.45247 15.0871 6.86915 13.8177 6.75909 12.4663C6.64902 11.1148 7.01926 9.76782 7.80464 8.66248L6.4328 7.29064C5.28798 8.7665 4.72025 10.609 4.83587 12.4732C4.95149 14.3375 5.74253 16.0957 7.06093 17.4188C8.37934 18.7418 10.1347 19.5391 11.9985 19.6614C13.8624 19.7836 15.7068 19.2224 17.1868 18.0828C18.6667 16.9433 19.6806 15.3034 20.0387 13.4703C20.3968 11.6371 20.0745 9.73624 19.1323 8.12351C18.19 6.51078 16.6923 5.29671 14.9195 4.70854C13.1467 4.12037 11.2204 4.19842 9.50096 4.92808L8.05904 3.48712C9.42966 2.77098 10.9536 2.39807 12.5 2.4004C17.8021 2.4004 22.1 6.69832 22.1 12.0004C22.1 17.3025 17.8021 21.6004 12.5 21.6004C7.19792 21.6004 2.9 17.3025 2.9 12.0004C2.89855 10.5774 3.21408 9.17203 3.82367 7.88627C4.43326 6.6005 5.3216 5.46666 6.42416 4.56712Z" fill="#0A0D14" style="fill:#0A0D14;fill:color(display-p3 0.0392 0.0510 0.0784);fill-opacity:1;"/>
</svg>
