<svg width="25" height="24" viewBox="0 0 25 24" fill="none" xmlns="http://www.w3.org/2000/svg">
<path d="M5.66464 3.63776L14.0271 12.0002L12.5 13.5273L5.67436 6.70172C4.40232 8.3422 3.76345 10.3858 3.87461 12.4587C3.98577 14.5316 4.83953 16.4952 6.27971 17.9902C7.71989 19.4853 9.65019 20.4118 11.7175 20.6003C13.7848 20.7889 15.8508 20.2268 17.5377 19.017C19.2246 17.8071 20.4195 16.0304 20.9038 14.0118C21.3881 11.9932 21.1294 9.86773 20.1751 8.02421C19.2209 6.18069 17.6347 4.74237 15.7069 3.97239C13.7791 3.20241 11.6386 3.15225 9.67683 3.83108L8.01795 2.1722C9.42474 1.52988 10.9535 1.19835 12.5 1.2002C18.4648 1.2002 23.3 6.03536 23.3 12.0002C23.3 17.965 18.4648 22.8002 12.5 22.8002C6.53512 22.8002 1.69996 17.965 1.69996 12.0002C1.69833 10.3994 2.0533 8.81829 2.73909 7.3718C3.42488 5.92531 4.42426 4.64974 5.66464 3.63776Z" fill="#0A0D14" style="fill:#0A0D14;fill:color(display-p3 0.0392 0.0510 0.0784);fill-opacity:1;"/>
</svg>
