<svg width="25" height="24" viewBox="0 0 25 24" fill="none" xmlns="http://www.w3.org/2000/svg">
<path d="M4.13756 5.16391L6.44552 7.47187C5.3009 9.00257 4.77857 10.91 4.98363 12.8103C5.18869 14.7106 6.10593 16.4627 7.55075 17.714C8.99557 18.9653 10.8607 19.6228 12.7708 19.5544C14.6809 19.4859 16.4942 18.6965 17.8457 17.3449C19.1972 15.9934 19.9867 14.1802 20.0551 12.27C20.1236 10.3599 19.466 8.4948 18.2148 7.04998C16.9635 5.60516 15.2114 4.68792 13.3111 4.48286C11.4108 4.2778 9.50334 4.80014 7.97264 5.94475L5.6636 3.63679C7.59114 2.05672 10.0076 1.19512 12.5 1.19923C18.4648 1.19923 23.3 6.03439 23.3 11.9992C23.3 17.9641 18.4648 22.7992 12.5 22.7992C6.53516 22.7992 1.7 17.9641 1.7 11.9992C1.7 9.40615 2.61368 7.02583 4.13756 5.16391ZM7.99424 9.02167L12.5 13.5263L14.0271 11.9992L9.52244 7.49347C10.6388 6.75554 11.9894 6.45843 13.3124 6.65973C14.6354 6.86102 15.8365 7.54639 16.6829 8.58296C17.5293 9.61952 17.9606 10.9334 17.8933 12.27C17.826 13.6065 17.2648 14.8704 16.3185 15.8167C15.3722 16.7629 14.1083 17.3241 12.7718 17.3914C11.4353 17.4588 10.1214 17.0274 9.08481 16.181C8.04824 15.3347 7.36287 14.1335 7.16157 12.8106C6.96027 11.4876 7.25739 10.137 7.99532 9.02059L7.99424 9.02167Z" fill="#0A0D14" style="fill:#0A0D14;fill:color(display-p3 0.0392 0.0510 0.0784);fill-opacity:1;"/>
</svg>
