<svg width="25" height="24" viewBox="0 0 25 24" fill="none" xmlns="http://www.w3.org/2000/svg">
<path d="M12.5 13.9094L10.4147 15.9947C10.7409 16.7638 10.7893 17.6225 10.5518 18.4235C10.3143 19.2245 9.80564 19.9179 9.11292 20.385C8.42021 20.8521 7.58661 21.0636 6.755 20.9835C5.92339 20.9033 5.14555 20.5364 4.55479 19.9457C3.96403 19.3549 3.59713 18.5771 3.51698 17.7455C3.43683 16.9139 3.64841 16.0803 4.11547 15.3875C4.58253 14.6948 5.27598 14.1861 6.07698 13.9486C6.87797 13.7111 7.73663 13.7596 8.5058 14.0858L10.592 12.0005L5.489 6.90017C5.32178 6.73302 5.18913 6.53456 5.09862 6.31612C5.00812 6.09769 4.96153 5.86356 4.96153 5.62712C4.96153 5.39068 5.00812 5.15656 5.09862 4.93812C5.18913 4.71969 5.32178 4.52123 5.489 4.35407L6.1262 3.71777L12.5 10.0925L18.8729 3.71867L19.5101 4.35497C19.6773 4.52213 19.81 4.72059 19.9005 4.93902C19.991 5.15746 20.0376 5.39158 20.0376 5.62802C20.0376 5.86446 19.991 6.09859 19.9005 6.31702C19.81 6.53546 19.6773 6.73392 19.5101 6.90107L14.408 12.0005L16.4933 14.0858C17.2625 13.7596 18.1211 13.7111 18.9221 13.9486C19.7231 14.1861 20.4166 14.6948 20.8836 15.3875C21.3507 16.0803 21.5623 16.9139 21.4821 17.7455C21.402 18.5771 21.0351 19.3549 20.4443 19.9457C19.8536 20.5364 19.0757 20.9033 18.2441 20.9835C17.4125 21.0636 16.5789 20.8521 15.8862 20.385C15.1935 19.9179 14.6848 19.2245 14.4473 18.4235C14.2098 17.6225 14.2582 16.7638 14.5844 15.9947L12.5 13.9085V13.9094ZM7.1 19.2005C7.57739 19.2005 8.03523 19.0108 8.37279 18.6733C8.71036 18.3357 8.9 17.8779 8.9 17.4005C8.9 16.9231 8.71036 16.4652 8.37279 16.1277C8.03523 15.7901 7.57739 15.6005 7.1 15.6005C6.62261 15.6005 6.16477 15.7901 5.82721 16.1277C5.48964 16.4652 5.3 16.9231 5.3 17.4005C5.3 17.8779 5.48964 18.3357 5.82721 18.6733C6.16477 19.0108 6.62261 19.2005 7.1 19.2005ZM17.9 19.2005C18.3774 19.2005 18.8352 19.0108 19.1728 18.6733C19.5104 18.3357 19.7 17.8779 19.7 17.4005C19.7 16.9231 19.5104 16.4652 19.1728 16.1277C18.8352 15.7901 18.3774 15.6005 17.9 15.6005C17.4226 15.6005 16.9648 15.7901 16.6272 16.1277C16.2896 16.4652 16.1 16.9231 16.1 17.4005C16.1 17.8779 16.2896 18.3357 16.6272 18.6733C16.9648 19.0108 17.4226 19.2005 17.9 19.2005Z" fill="#0A0D14" style="fill:#0A0D14;fill:color(display-p3 0.0392 0.0510 0.0784);fill-opacity:1;"/>
</svg>
