<svg width="25" height="24" viewBox="0 0 25 24" fill="none" xmlns="http://www.w3.org/2000/svg">
<path d="M12.5 13.2728L10.2014 15.5714C10.6464 16.3261 10.8009 17.2173 10.6359 18.0779C10.4708 18.9384 9.99761 19.7092 9.30491 20.2458C8.6122 20.7824 7.74756 21.048 6.87308 20.9927C5.9986 20.9373 5.17431 20.565 4.55473 19.9454C3.93514 19.3258 3.56279 18.5015 3.50749 17.6271C3.45218 16.7526 3.71771 15.8879 4.2543 15.1952C4.79089 14.5025 5.56171 14.0293 6.42225 13.8643C7.2828 13.6992 8.17399 13.8537 8.92879 14.2988L11.2274 12.0002L5.80849 6.58216C5.64113 6.41498 5.50836 6.21646 5.41778 5.99795C5.32719 5.77943 5.28057 5.5452 5.28057 5.30866C5.28057 5.07211 5.32719 4.83788 5.41778 4.61936C5.50836 4.40085 5.64113 4.20233 5.80849 4.03516L12.5 10.7285L19.1915 4.03696C19.5289 4.37451 19.7185 4.83226 19.7185 5.30956C19.7185 5.78685 19.5289 6.24461 19.1915 6.58216L13.7735 12.0002L16.0712 14.2988C16.826 13.8537 17.7172 13.6992 18.5777 13.8643C19.4383 14.0293 20.2091 14.5025 20.7457 15.1952C21.2823 15.8879 21.5478 16.7526 21.4925 17.6271C21.4372 18.5015 21.0648 19.3258 20.4452 19.9454C19.8257 20.565 19.0014 20.9373 18.1269 20.9927C17.2524 21.048 16.3878 20.7824 15.6951 20.2458C15.0024 19.7092 14.5291 18.9384 14.3641 18.0779C14.1991 17.2173 14.3535 16.3261 14.7986 15.5714L12.5 13.2728ZM7.09999 19.2002C7.57738 19.2002 8.03521 19.0105 8.37278 18.6729C8.71034 18.3354 8.89999 17.8775 8.89999 17.4002C8.89999 16.9228 8.71034 16.4649 8.37278 16.1274C8.03521 15.7898 7.57738 15.6002 7.09999 15.6002C6.6226 15.6002 6.16476 15.7898 5.82719 16.1274C5.48963 16.4649 5.29999 16.9228 5.29999 17.4002C5.29999 17.8775 5.48963 18.3354 5.82719 18.6729C6.16476 19.0105 6.6226 19.2002 7.09999 19.2002ZM17.9 19.2002C18.3774 19.2002 18.8352 19.0105 19.1728 18.6729C19.5103 18.3354 19.7 17.8775 19.7 17.4002C19.7 16.9228 19.5103 16.4649 19.1728 16.1274C18.8352 15.7898 18.3774 15.6002 17.9 15.6002C17.4226 15.6002 16.9648 15.7898 16.6272 16.1274C16.2896 16.4649 16.1 16.9228 16.1 17.4002C16.1 17.8775 16.2896 18.3354 16.6272 18.6729C16.9648 19.0105 17.4226 19.2002 17.9 19.2002Z" fill="#0A0D14" style="fill:#0A0D14;fill:color(display-p3 0.0392 0.0510 0.0784);fill-opacity:1;"/>
</svg>
