<svg width="25" height="24" viewBox="0 0 25 24" fill="none" xmlns="http://www.w3.org/2000/svg">
<path d="M10.4147 8.00543L12.5 10.0916L18.2366 4.35413C18.4038 4.18691 18.6022 4.05426 18.8207 3.96375C19.0391 3.87325 19.2732 3.82667 19.5097 3.82667C19.7461 3.82667 19.9802 3.87325 20.1987 3.96375C20.4171 4.05426 20.6155 4.18691 20.7827 4.35413L21.419 4.99043L10.4147 15.9938C10.7409 16.763 10.7893 17.6217 10.5518 18.4227C10.3143 19.2237 9.80564 19.9171 9.11293 20.3842C8.42021 20.8512 7.58661 21.0628 6.755 20.9827C5.92339 20.9025 5.14555 20.5356 4.55479 19.9448C3.96403 19.3541 3.59713 18.5762 3.51698 17.7446C3.43683 16.913 3.64841 16.0794 4.11547 15.3867C4.58253 14.694 5.27598 14.1853 6.07698 13.9478C6.87797 13.7103 7.73663 13.7588 8.5058 14.0849L10.592 11.9996L8.5058 9.91433C7.73663 10.2405 6.87797 10.289 6.07698 10.0515C5.27598 9.81398 4.58253 9.30527 4.11547 8.61256C3.64841 7.91984 3.43683 7.08625 3.51698 6.25464C3.59713 5.42303 3.96403 4.64518 4.55479 4.05442C5.14555 3.46366 5.92339 3.09676 6.755 3.01661C7.58661 2.93646 8.42021 3.14805 9.11293 3.6151C9.80564 4.08216 10.3143 4.77562 10.5518 5.57661C10.7893 6.3776 10.7409 7.23627 10.4147 8.00543ZM7.1 8.39963C7.57739 8.39963 8.03523 8.20999 8.37279 7.87243C8.71036 7.53486 8.9 7.07702 8.9 6.59963C8.9 6.12224 8.71036 5.66441 8.37279 5.32684C8.03523 4.98928 7.57739 4.79963 7.1 4.79963C6.62261 4.79963 6.16477 4.98928 5.82721 5.32684C5.48964 5.66441 5.3 6.12224 5.3 6.59963C5.3 7.07702 5.48964 7.53486 5.82721 7.87243C6.16477 8.20999 6.62261 8.39963 7.1 8.39963ZM7.1 19.1996C7.57739 19.1996 8.03523 19.01 8.37279 18.6724C8.71036 18.3349 8.9 17.877 8.9 17.3996C8.9 16.9222 8.71036 16.4644 8.37279 16.1268C8.03523 15.7893 7.57739 15.5996 7.1 15.5996C6.62261 15.5996 6.16477 15.7893 5.82721 16.1268C5.48964 16.4644 5.3 16.9222 5.3 17.3996C5.3 17.877 5.48964 18.3349 5.82721 18.6724C6.16477 19.01 6.62261 19.1996 7.1 19.1996ZM15.6815 13.2713L21.419 19.0097L20.7827 19.646C20.6155 19.8133 20.4171 19.9459 20.1987 20.0364C19.9802 20.1269 19.7461 20.1735 19.5097 20.1735C19.2732 20.1735 19.0391 20.1269 18.8207 20.0364C18.6022 19.9459 18.4038 19.8133 18.2366 19.646L13.7726 15.1811L15.6806 13.2713H15.6815Z" fill="#0A0D14" style="fill:#0A0D14;fill:color(display-p3 0.0392 0.0510 0.0784);fill-opacity:1;"/>
</svg>
