<svg width="25" height="24" viewBox="0 0 25 24" fill="none" xmlns="http://www.w3.org/2000/svg">
<path d="M10.7 6.60046C10.7 7.25926 10.5227 7.87756 10.214 8.40946L12.5 10.727L18.5552 4.67176C18.8928 4.33432 19.3505 4.14475 19.8278 4.14475C20.3051 4.14475 20.7629 4.33432 21.1004 4.67176L10.2014 15.5708C10.6465 16.3256 10.8009 17.2168 10.6359 18.0773C10.4709 18.9378 9.99763 19.7087 9.30492 20.2452C8.61222 20.7818 7.74758 21.0474 6.8731 20.9921C5.99862 20.9368 5.17433 20.5644 4.55474 19.9448C3.93516 19.3252 3.56281 18.5009 3.50751 17.6265C3.4522 16.752 3.71773 15.8874 4.25432 15.1946C4.79091 14.5019 5.56173 14.0287 6.42227 13.8637C7.28282 13.6986 8.17401 13.8531 8.9288 14.2982L11.2274 12.0005L8.9288 9.70186C8.24498 10.1052 7.44703 10.2711 6.65912 10.1739C5.8712 10.0767 5.13753 9.72171 4.57226 9.16428C4.00699 8.60684 3.64183 7.8782 3.53361 7.09172C3.42539 6.30524 3.58018 5.50505 3.97388 4.81566C4.36759 4.12627 4.97813 3.58636 5.7105 3.27994C6.44287 2.97352 7.25599 2.91778 8.02333 3.1214C8.79066 3.32501 9.46917 3.77656 9.95326 4.40577C10.4374 5.03499 10.6999 5.80657 10.7 6.60046ZM8.9 6.60046C8.9 6.12307 8.71036 5.66524 8.3728 5.32767C8.03523 4.99011 7.57739 4.80046 7.1 4.80046C6.62262 4.80046 6.16478 4.99011 5.82721 5.32767C5.48965 5.66524 5.3 6.12307 5.3 6.60046C5.3 7.07785 5.48965 7.53569 5.82721 7.87326C6.16478 8.21082 6.62262 8.40046 7.1 8.40046C7.57739 8.40046 8.03523 8.21082 8.3728 7.87326C8.71036 7.53569 8.9 7.07785 8.9 6.60046ZM21.1004 19.3283C20.7629 19.6657 20.3051 19.8553 19.8278 19.8553C19.3505 19.8553 18.8928 19.6657 18.5552 19.3283L13.7699 14.5439L15.0434 13.2704L21.1004 19.3283ZM16.1 11.1005H17.9V12.9005H16.1V11.1005ZM19.7 11.1005H21.5V12.9005H19.7V11.1005ZM7.1 11.1005H8.9V12.9005H7.1V11.1005ZM3.50001 11.1005H5.3V12.9005H3.50001V11.1005ZM7.1 19.2005C7.57739 19.2005 8.03523 19.0108 8.3728 18.6733C8.71036 18.3357 8.9 17.8779 8.9 17.4005C8.9 16.9231 8.71036 16.4652 8.3728 16.1277C8.03523 15.7901 7.57739 15.6005 7.1 15.6005C6.62262 15.6005 6.16478 15.7901 5.82721 16.1277C5.48965 16.4652 5.3 16.9231 5.3 17.4005C5.3 17.8779 5.48965 18.3357 5.82721 18.6733C6.16478 19.0108 6.62262 19.2005 7.1 19.2005Z" fill="#0A0D14" style="fill:#0A0D14;fill:color(display-p3 0.0392 0.0510 0.0784);fill-opacity:1;"/>
</svg>
