<svg width="25" height="24" viewBox="0 0 25 24" fill="none" xmlns="http://www.w3.org/2000/svg">
<path d="M10.2014 8.42848L12.5 10.7271L18.5552 4.67188C18.8927 4.33443 19.3505 4.14487 19.8278 4.14487C20.3051 4.14487 20.7628 4.33443 21.1004 4.67188L10.2014 15.5709C10.6464 16.3257 10.8009 17.2169 10.6359 18.0774C10.4708 18.938 9.99761 19.7088 9.30491 20.2454C8.6122 20.782 7.74756 21.0475 6.87308 20.9922C5.9986 20.9369 5.17431 20.5645 4.55473 19.9449C3.93514 19.3254 3.56279 18.5011 3.50749 17.6266C3.45218 16.7521 3.71771 15.8875 4.2543 15.1948C4.79089 14.5021 5.56171 14.0288 6.42225 13.8638C7.2828 13.6988 8.17399 13.8532 8.92879 14.2983L11.2274 11.9997L8.92879 9.70108C8.17399 10.1461 7.2828 10.3006 6.42225 10.1356C5.56171 9.97053 4.79089 9.49731 4.2543 8.8046C3.71771 8.11189 3.45218 7.24726 3.50749 6.37278C3.56279 5.4983 3.93514 4.67401 4.55473 4.05442C5.17431 3.43483 5.9986 3.06249 6.87308 3.00718C7.74756 2.95188 8.6122 3.21741 9.30491 3.754C9.99761 4.29059 10.4708 5.0614 10.6359 5.92195C10.8009 6.78249 10.6464 7.67369 10.2014 8.42848ZM15.0434 13.2705L21.1004 19.3275C20.7628 19.6649 20.3051 19.8545 19.8278 19.8545C19.3505 19.8545 18.8927 19.6649 18.5552 19.3275L13.7699 14.5431L15.0434 13.2696V13.2705ZM8.37259 16.1271C8.20654 15.9552 8.00792 15.818 7.78831 15.7237C7.56871 15.6294 7.33251 15.5797 7.09351 15.5776C6.85451 15.5756 6.61748 15.6211 6.39627 15.7116C6.17506 15.8021 5.97408 15.9358 5.80507 16.1048C5.63607 16.2738 5.50241 16.4747 5.41191 16.696C5.3214 16.9172 5.27586 17.1542 5.27794 17.3932C5.28001 17.6322 5.32967 17.8684 5.424 18.088C5.51834 18.3076 5.65547 18.5062 5.82739 18.6723C6.16687 19.0002 6.62155 19.1816 7.09351 19.1775C7.56546 19.1734 8.01692 18.9841 8.35066 18.6504C8.68439 18.3166 8.8737 17.8652 8.8778 17.3932C8.8819 16.9212 8.70047 16.4666 8.37259 16.1271ZM8.37259 7.87228C8.5445 7.70624 8.68163 7.50762 8.77597 7.28801C8.8703 7.0684 8.91996 6.83221 8.92204 6.5932C8.92411 6.3542 8.87857 6.11718 8.78806 5.89596C8.69756 5.67475 8.5639 5.47378 8.3949 5.30477C8.22589 5.13576 8.02492 5.00211 7.8037 4.9116C7.58249 4.8211 7.34547 4.77555 7.10646 4.77763C6.86746 4.77971 6.63126 4.82936 6.41166 4.9237C6.19205 5.01803 5.99343 5.15516 5.82739 5.32708C5.4995 5.66656 5.31807 6.12125 5.32217 6.5932C5.32627 7.06516 5.51558 7.51662 5.84931 7.85035C6.18305 8.18409 6.63451 8.37339 7.10646 8.37749C7.57842 8.3816 8.0331 8.20017 8.37259 7.87228Z" fill="#0A0D14" style="fill:#0A0D14;fill:color(display-p3 0.0392 0.0510 0.0784);fill-opacity:1;"/>
</svg>
