<svg width="25" height="24" viewBox="0 0 25 24" fill="none" xmlns="http://www.w3.org/2000/svg">
<path d="M4.39999 3.90039H6.19999V5.70039H4.39999V3.90039ZM7.99999 3.90039H9.79999V5.70039H7.99999V3.90039ZM11.6 3.90039H13.4V5.70039H11.6V3.90039ZM15.2 3.90039H17V5.70039H15.2V3.90039ZM18.8 3.90039H20.6V5.70039H18.8V3.90039ZM18.8 7.50039H20.6V9.30039H18.8V7.50039ZM4.39999 18.3004H6.19999V20.1004H4.39999V18.3004ZM4.39999 14.7004H6.19999V16.5004H4.39999V14.7004ZM4.39999 11.1004H6.19999V12.9004H4.39999V11.1004ZM4.39999 7.50039H6.19999V9.30039H4.39999V7.50039ZM11.3003 11.1004L12.2327 9.70089C12.3149 9.57767 12.4263 9.47664 12.5569 9.40678C12.6875 9.33691 12.8334 9.30037 12.9815 9.30039H15.6185C15.7666 9.30037 15.9125 9.33691 16.0431 9.40678C16.1737 9.47664 16.2851 9.57767 16.3673 9.70089L17.2997 11.1004H19.7C19.9387 11.1004 20.1676 11.1952 20.3364 11.364C20.5052 11.5328 20.6 11.7617 20.6 12.0004V19.2004C20.6 19.4391 20.5052 19.668 20.3364 19.8368C20.1676 20.0056 19.9387 20.1004 19.7 20.1004H8.89999C8.6613 20.1004 8.43238 20.0056 8.2636 19.8368C8.09482 19.668 7.99999 19.4391 7.99999 19.2004V12.0004C7.99999 11.7617 8.09482 11.5328 8.2636 11.364C8.43238 11.1952 8.6613 11.1004 8.89999 11.1004H11.3003ZM9.79999 18.3004H18.8V12.9004H16.3367L15.137 11.1004H13.463L12.2633 12.9004H9.79999V18.3004ZM14.3 17.4004C13.8226 17.4004 13.3648 17.2107 13.0272 16.8732C12.6896 16.5356 12.5 16.0778 12.5 15.6004C12.5 15.123 12.6896 14.6652 13.0272 14.3276C13.3648 13.99 13.8226 13.8004 14.3 13.8004C14.7774 13.8004 15.2352 13.99 15.5728 14.3276C15.9104 14.6652 16.1 15.123 16.1 15.6004C16.1 16.0778 15.9104 16.5356 15.5728 16.8732C15.2352 17.2107 14.7774 17.4004 14.3 17.4004Z" fill="#0A0D14" style="fill:#0A0D14;fill:color(display-p3 0.0392 0.0510 0.0784);fill-opacity:1;"/>
</svg>
