<svg width="25" height="24" viewBox="0 0 25 24" fill="none" xmlns="http://www.w3.org/2000/svg">
<path d="M12.4937 14.1667L11.0969 15.5635C11.5441 16.317 11.7011 17.2078 11.5385 18.0688C11.3759 18.9298 10.9048 19.7019 10.2136 20.2405C9.52245 20.779 8.65857 21.047 7.78394 20.9942C6.9093 20.9413 6.08396 20.5713 5.46263 19.9535C4.84129 19.3357 4.46662 18.5124 4.40884 17.6381C4.35106 16.7638 4.61414 15.8984 5.14877 15.2042C5.6834 14.51 6.45287 14.0346 7.31294 13.8671C8.17302 13.6996 9.06465 13.8516 9.82069 14.2945L11.2202 12.8941L8.40859 10.0816C8.15551 9.82843 8.01333 9.48511 8.01333 9.12714C8.01333 8.76917 8.15551 8.42585 8.40859 8.17269L8.72719 7.85409L12.4937 11.6206L16.2638 7.85049L16.5815 8.16909C16.8343 8.42222 16.9763 8.76534 16.9763 9.12309C16.9763 9.48084 16.8343 9.82397 16.5815 10.0771L13.7663 12.8941L15.1712 14.2981C15.926 13.853 16.8172 13.6986 17.6777 13.8636C18.5383 14.0286 19.3091 14.5019 19.8457 15.1946C20.3823 15.8873 20.6478 16.7519 20.5925 17.6264C20.5372 18.5009 20.1648 19.3252 19.5453 19.9448C18.9257 20.5643 18.1014 20.9367 17.2269 20.992C16.3524 21.0473 15.4878 20.7818 14.7951 20.2452C14.1024 19.7086 13.6291 18.9378 13.4641 18.0772C13.2991 17.2167 13.4535 16.3255 13.8986 15.5707L12.4937 14.1667ZM18.8 12.9004V5.70039H6.19999V12.9004H4.39999V4.80039C4.39999 4.5617 4.49482 4.33278 4.6636 4.16399C4.83238 3.99521 5.0613 3.90039 5.29999 3.90039H19.7C19.9387 3.90039 20.1676 3.99521 20.3364 4.16399C20.5052 4.33278 20.6 4.5617 20.6 4.80039V12.9004H18.8ZM7.99999 19.2004C8.47738 19.2004 8.93522 19.0107 9.27279 18.6732C9.61035 18.3356 9.79999 17.8778 9.79999 17.4004C9.79999 16.923 9.61035 16.4652 9.27279 16.1276C8.93522 15.79 8.47738 15.6004 7.99999 15.6004C7.5226 15.6004 7.06477 15.79 6.7272 16.1276C6.38964 16.4652 6.19999 16.923 6.19999 17.4004C6.19999 17.8778 6.38964 18.3356 6.7272 18.6732C7.06477 19.0107 7.5226 19.2004 7.99999 19.2004ZM17 19.2004C17.4774 19.2004 17.9352 19.0107 18.2728 18.6732C18.6104 18.3356 18.8 17.8778 18.8 17.4004C18.8 16.923 18.6104 16.4652 18.2728 16.1276C17.9352 15.79 17.4774 15.6004 17 15.6004C16.5226 15.6004 16.0648 15.79 15.7272 16.1276C15.3896 16.4652 15.2 16.923 15.2 17.4004C15.2 17.8778 15.3896 18.3356 15.7272 18.6732C16.0648 19.0107 16.5226 19.2004 17 19.2004Z" fill="#0A0D14" style="fill:#0A0D14;fill:color(display-p3 0.0392 0.0510 0.0784);fill-opacity:1;"/>
</svg>
