<svg width="25" height="24" viewBox="0 0 25 24" fill="none" xmlns="http://www.w3.org/2000/svg">
<path d="M5.56375 7.2363L9.80005 3H18.8C19.0387 3 19.2677 3.09482 19.4364 3.2636C19.6052 3.43239 19.7 3.66131 19.7 3.9V20.1C19.7 20.3387 19.6052 20.5676 19.4364 20.7364C19.2677 20.9052 19.0387 21 18.8 21H6.20005C5.96135 21 5.73244 20.9052 5.56365 20.7364C5.39487 20.5676 5.30005 20.3387 5.30005 20.1V7.8726C5.3001 7.63392 5.39495 7.40504 5.56375 7.2363ZM15.2 5.7V9.3H17V5.7H15.2ZM12.5 5.7V9.3H14.3V5.7H12.5ZM9.80005 5.7V9.3H11.6V5.7H9.80005Z" fill="#0A0D14" style="fill:#0A0D14;fill:color(display-p3 0.0392 0.0510 0.0784);fill-opacity:1;"/>
</svg>
