<svg width="25" height="24" viewBox="0 0 25 24" fill="none" xmlns="http://www.w3.org/2000/svg">
<path d="M8.00005 3H18.8C19.0387 3 19.2677 3.09482 19.4364 3.2636C19.6052 3.43239 19.7 3.66131 19.7 3.9V20.1C19.7 20.3387 19.6052 20.5676 19.4364 20.7364C19.2677 20.9052 19.0387 21 18.8 21H6.20005C5.96135 21 5.73244 20.9052 5.56365 20.7364C5.39487 20.5676 5.30005 20.3387 5.30005 20.1V12.378C5.3001 12.1398 5.3946 11.9113 5.56285 11.7426L6.96865 10.3314C7.05277 10.2471 7.10002 10.1328 7.10005 10.0137V3.9C7.10005 3.66131 7.19487 3.43239 7.36365 3.2636C7.53244 3.09482 7.76135 3 8.00005 3ZM15.2 4.8V8.4H17V4.8H15.2ZM12.5 4.8V8.4H14.3V4.8H12.5ZM9.80005 4.8V8.4H11.6V4.8H9.80005Z" fill="#0A0D14" style="fill:#0A0D14;fill:color(display-p3 0.0392 0.0510 0.0784);fill-opacity:1;"/>
</svg>
