<svg width="25" height="24" viewBox="0 0 25 24" fill="none" xmlns="http://www.w3.org/2000/svg">
<path d="M17.9279 16.1553L21.7826 20.0091L20.5091 21.2826L16.6553 17.4279C15.2214 18.5774 13.4378 19.2026 11.6 19.2C7.1288 19.2 3.5 15.5712 3.5 11.1C3.5 6.6288 7.1288 3 11.6 3C16.0712 3 19.7 6.6288 19.7 11.1C19.7026 12.9378 19.0774 14.7214 17.9279 16.1553ZM12.6602 7.6593C11.8919 7.42278 11.0666 7.45019 10.3157 7.73717C9.56487 8.02415 8.93165 8.55417 8.51696 9.2428C8.10228 9.93143 7.93 10.739 8.02758 11.5369C8.12516 12.3348 8.48697 13.0771 9.05537 13.6455C9.62378 14.2139 10.3661 14.5757 11.164 14.6733C11.9619 14.7709 12.7695 14.5986 13.4581 14.1839C14.1467 13.7693 14.6768 13.136 14.9637 12.3852C15.2507 11.6343 15.2781 10.809 15.0416 10.0407C14.9216 10.3059 14.739 10.5381 14.5095 10.7173C14.2801 10.8964 14.0106 11.0173 13.7242 11.0695C13.4378 11.1216 13.143 11.1035 12.8651 11.0167C12.5872 10.9299 12.3345 10.777 12.1287 10.5711C11.9229 10.3652 11.77 10.1125 11.6834 9.83456C11.5967 9.55664 11.5787 9.26184 11.6309 8.97544C11.6832 8.68904 11.8042 8.41959 11.9834 8.1902C12.1627 7.96081 12.3949 7.77833 12.6602 7.6584V7.6593Z" fill="#0A0D14" style="fill:#0A0D14;fill:color(display-p3 0.0392 0.0510 0.0784);fill-opacity:1;"/>
</svg>
