<svg width="25" height="24" viewBox="0 0 25 24" fill="none" xmlns="http://www.w3.org/2000/svg">
<path d="M17.9279 16.1553L21.7826 20.0091L20.5091 21.2826L16.6553 17.4279C15.2214 18.5774 13.4378 19.2026 11.6 19.2C7.1288 19.2 3.5 15.5712 3.5 11.1C3.5 6.6288 7.1288 3 11.6 3C16.0712 3 19.7 6.6288 19.7 11.1C19.7026 12.9378 19.0774 14.7214 17.9279 16.1553ZM16.1225 15.4875C17.2647 14.3129 17.9026 12.7384 17.9 11.1C17.9 7.6188 15.0803 4.8 11.6 4.8C8.1188 4.8 5.3 7.6188 5.3 11.1C5.3 14.5803 8.1188 17.4 11.6 17.4C13.2384 17.4026 14.8129 16.7647 15.9875 15.6225L16.1225 15.4875ZM12.6602 7.6584C12.3948 7.77828 12.1625 7.96075 11.9831 8.19017C11.8038 8.41959 11.6828 8.68909 11.6305 8.97556C11.5782 9.26203 11.5962 9.55691 11.6829 9.8349C11.7696 10.1129 11.9225 10.3657 12.1284 10.5716C12.3343 10.7775 12.5871 10.9304 12.8651 11.0171C13.1431 11.1038 13.438 11.1218 13.7244 11.0695C14.0109 11.0172 14.2804 10.8962 14.5098 10.7169C14.7392 10.5375 14.9217 10.3052 15.0416 10.0398C15.2781 10.8081 15.2507 11.6334 14.9637 12.3843C14.6768 13.1351 14.1467 13.7684 13.4581 14.183C12.7695 14.5977 11.9619 14.77 11.164 14.6724C10.3661 14.5748 9.62378 14.213 9.05537 13.6446C8.48697 13.0762 8.12516 12.3339 8.02758 11.536C7.93 10.7381 8.10228 9.93053 8.51696 9.2419C8.93165 8.55327 9.56487 8.02325 10.3157 7.73627C11.0666 7.44929 11.8919 7.42188 12.6602 7.6584Z" fill="#0A0D14" style="fill:#0A0D14;fill:color(display-p3 0.0392 0.0510 0.0784);fill-opacity:1;"/>
</svg>
