<svg width="25" height="24" viewBox="0 0 25 24" fill="none" xmlns="http://www.w3.org/2000/svg">
<path d="M11.6 3L18.1682 5.052C18.3514 5.10919 18.5115 5.22343 18.6252 5.37806C18.7388 5.53268 18.8001 5.71959 18.8 5.9115V7.5H20.6C20.8387 7.5 21.0676 7.59482 21.2364 7.7636C21.4052 7.93239 21.5 8.1613 21.5 8.4V10.2H9.80002V8.4C9.80002 8.1613 9.89485 7.93239 10.0636 7.7636C10.2324 7.59482 10.4613 7.5 10.7 7.5H17V6.573L11.6 4.8846L6.20002 6.573V13.2366C6.1999 13.7876 6.32625 14.3313 6.56935 14.8258C6.81246 15.3202 7.16582 15.7523 7.60222 16.0887L7.77232 16.2111L11.6 18.822L15.0038 16.5H10.7C10.4613 16.5 10.2324 16.4052 10.0636 16.2364C9.89485 16.0676 9.80002 15.8387 9.80002 15.6V12H21.5V15.6C21.5 15.8387 21.4052 16.0676 21.2364 16.2364C21.0676 16.4052 20.8387 16.5 20.6 16.5L17.702 16.5009C17.3537 16.9599 16.9307 17.3649 16.442 17.6979L11.6 21L6.75802 17.6988C6.03129 17.2033 5.4366 16.5378 5.02565 15.7601C4.6147 14.9825 4.39993 14.1162 4.40002 13.2366V5.9115C4.40013 5.71975 4.46148 5.53304 4.57513 5.3786C4.68878 5.22415 4.84878 5.11004 5.03182 5.0529L11.6 3Z" fill="#0A0D14" style="fill:#0A0D14;fill:color(display-p3 0.0392 0.0510 0.0784);fill-opacity:1;"/>
</svg>
