<svg width="25" height="24" viewBox="0 0 25 24" fill="none" xmlns="http://www.w3.org/2000/svg">
<path d="M7.1 3.89844C10.241 3.89844 12.8447 6.19704 13.3217 9.20394C14.3792 8.15004 15.839 7.49844 17.45 7.49844H21.5V9.74844C21.5 12.9794 18.881 15.5984 15.65 15.5984H13.4V20.0984H11.6V12.8984H9.8C6.3206 12.8984 3.5 10.0778 3.5 6.59844V3.89844H7.1ZM19.7 9.29844H17.45C15.2135 9.29844 13.4 11.1119 13.4 13.3484V13.7984H15.65C17.8865 13.7984 19.7 11.9849 19.7 9.74844V9.29844ZM7.1 5.69844H5.3V6.59844C5.3 9.08334 7.3151 11.0984 9.8 11.0984H11.6V10.1984C11.6 7.71354 9.5849 5.69844 7.1 5.69844Z" fill="#0A0D14" style="fill:#0A0D14;fill:color(display-p3 0.0392 0.0510 0.0784);fill-opacity:1;"/>
</svg>
