<svg width="25" height="24" viewBox="0 0 25 24" fill="none" xmlns="http://www.w3.org/2000/svg">
<path d="M8 7.5V3.9C8 3.66131 8.09482 3.43239 8.2636 3.2636C8.43239 3.09482 8.66131 3 8.9 3H20.6C20.8387 3 21.0676 3.09482 21.2364 3.2636C21.4052 3.43239 21.5 3.66131 21.5 3.9V15.6C21.5 15.8387 21.4052 16.0676 21.2364 16.2364C21.0676 16.4052 20.8387 16.5 20.6 16.5H17V20.0937C17 20.5941 16.5959 21 16.0937 21H4.4063C4.28725 21.0001 4.16935 20.9768 4.05933 20.9313C3.94932 20.8857 3.84937 20.819 3.76519 20.7348C3.681 20.6506 3.61425 20.5507 3.56875 20.4407C3.52324 20.3307 3.49988 20.2127 3.5 20.0937L3.5027 8.4063C3.5027 7.9059 3.9068 7.5 4.409 7.5H8ZM9.8 7.5H16.0937C16.5941 7.5 17 7.9041 17 8.4063V14.7H19.7V4.8H9.8V7.5ZM5.3027 9.3L5.3 19.2H15.2V9.3H5.3027Z" fill="#0A0D14" style="fill:#0A0D14;fill:color(display-p3 0.0392 0.0510 0.0784);fill-opacity:1;"/>
</svg>
