<svg width="25" height="24" viewBox="0 0 25 24" fill="none" xmlns="http://www.w3.org/2000/svg">
<path d="M6.5 6.75V17.25H13.25V18.75H5.75C5.33579 18.75 5 18.4142 5 18V6C5 5.58579 5.33579 5.25 5.75 5.25H19.25C19.6642 5.25 20 5.58579 20 6V9.75H18.5V6.75H6.5ZM18.2803 11.4697L17.75 10.9394L17.2197 11.4697L14.9697 13.7197L16.0303 14.7803L17.75 13.0606L19.4697 14.7803L20.5303 13.7197L18.2803 11.4697ZM16.0303 15.9697L17.75 17.6894L19.4697 15.9697L20.5303 17.0303L18.2803 19.2803L17.75 19.8106L17.2197 19.2803L14.9697 17.0303L16.0303 15.9697Z" fill="#0A0D14" style="fill:#0A0D14;fill:color(display-p3 0.0392 0.0510 0.0784);fill-opacity:1;"/>
</svg>
