<svg width="25" height="24" viewBox="0 0 25 24" fill="none" xmlns="http://www.w3.org/2000/svg">
<path d="M4.40002 12.9001H9.80002V11.1001H4.40002V2.86154C4.40004 2.78335 4.42043 2.7065 4.45918 2.63859C4.49794 2.57067 4.55373 2.51403 4.62104 2.47424C4.68836 2.43445 4.76488 2.41288 4.84307 2.41167C4.92126 2.41047 4.99841 2.42965 5.06692 2.46734L21.6827 11.6059C21.7533 11.6448 21.8121 11.7019 21.8531 11.7712C21.8941 11.8405 21.9157 11.9196 21.9157 12.0001C21.9157 12.0807 21.8941 12.1598 21.8531 12.2291C21.8121 12.2984 21.7533 12.3555 21.6827 12.3943L5.06692 21.5329C4.99841 21.5706 4.92126 21.5898 4.84307 21.5886C4.76488 21.5874 4.68836 21.5658 4.62104 21.5261C4.55373 21.4863 4.49794 21.4296 4.45918 21.3617C4.42043 21.2938 4.40004 21.2169 4.40002 21.1387V12.9001Z" fill="#0A0D14" style="fill:#0A0D14;fill:color(display-p3 0.0392 0.0510 0.0784);fill-opacity:1;"/>
</svg>
