<svg width="25" height="24" viewBox="0 0 25 24" fill="none" xmlns="http://www.w3.org/2000/svg">
<path d="M9.5 5.25C6.60051 5.25 4.25 7.60051 4.25 10.5C4.25 13.3995 6.60051 15.75 9.5 15.75H10.3032C10.2681 15.505 10.25 15.2546 10.25 15C10.25 14.7454 10.2681 14.495 10.3032 14.25H9.5C7.42894 14.25 5.75 12.5711 5.75 10.5C5.75 8.42894 7.42894 6.75 9.5 6.75H15.5C17.571 6.75 19.25 8.42894 19.25 10.5C19.25 10.7571 19.2241 11.0081 19.1748 11.2506C19.614 11.6811 19.9778 12.1881 20.2448 12.75C20.5687 12.068 20.75 11.3052 20.75 10.5C20.75 7.60051 18.3995 5.25 15.5 5.25H9.5ZM11.75 15C11.75 12.9289 13.429 11.25 15.5 11.25C17.571 11.25 19.25 12.9289 19.25 15C19.25 15.7643 19.0213 16.4753 18.6287 17.0681L20.5303 18.9697L19.4697 20.0303L17.5681 18.1287C16.9753 18.5213 16.2643 18.75 15.5 18.75C13.429 18.75 11.75 17.071 11.75 15Z" fill="#0A0D14" style="fill:#0A0D14;fill:color(display-p3 0.0392 0.0510 0.0784);fill-opacity:1;"/>
</svg>
