<svg width="25" height="24" viewBox="0 0 25 24" fill="none" xmlns="http://www.w3.org/2000/svg">
<path d="M14.4089 10.6321C14.2401 10.4634 14.0112 10.3686 13.7726 10.3686C13.534 10.3686 13.3051 10.4634 13.1363 10.6321L12.5 11.2675C12.334 11.4394 12.1353 11.5765 11.9157 11.6709C11.6961 11.7652 11.4599 11.8148 11.2209 11.8169C10.9819 11.819 10.7449 11.7735 10.5237 11.683C10.3025 11.5924 10.1015 11.4588 9.93249 11.2898C9.76348 11.1208 9.62983 10.9198 9.53932 10.6986C9.44882 10.4774 9.40327 10.2404 9.40535 10.0014C9.40743 9.76235 9.45708 9.52615 9.55142 9.30655C9.64575 9.08694 9.78288 8.88832 9.9548 8.72227L15.0218 3.65348C16.2214 3.38062 17.4766 3.49291 18.6087 3.97439C19.7408 4.45587 20.6924 5.28202 21.328 6.33538C21.9636 7.38873 22.251 8.61567 22.1492 9.84172C22.0474 11.0678 21.5617 12.2305 20.7611 13.1647L18.8639 15.0862L14.4089 10.6312V10.6321ZM4.5449 5.22128C5.47618 4.29011 6.6943 3.70026 8.00231 3.54706C9.31031 3.39387 10.6318 3.6863 11.753 4.37708L8.6813 7.44967C8.01602 8.11363 7.63679 9.01145 7.62464 9.95128C7.6125 10.8911 7.9684 11.7984 8.6163 12.4794C9.2642 13.1603 10.1527 13.5608 11.092 13.5954C12.0313 13.6299 12.9468 13.2958 13.643 12.6643L13.7726 12.541L17.5913 16.3588L13.7726 20.1775C13.4351 20.5149 12.9773 20.7045 12.5 20.7045C12.0227 20.7045 11.565 20.5149 11.2274 20.1775L4.544 13.4941C3.44702 12.397 2.83075 10.9091 2.83075 9.35768C2.83075 7.80624 3.44702 6.31835 4.544 5.22128H4.5449Z" fill="#0A0D14" style="fill:#0A0D14;fill:color(display-p3 0.0392 0.0510 0.0784);fill-opacity:1;"/>
</svg>
