<svg width="25" height="24" viewBox="0 0 25 24" fill="none" xmlns="http://www.w3.org/2000/svg">
<path d="M4.5449 5.2221C5.58896 4.17786 6.9893 3.56708 8.46494 3.51233C9.94058 3.45757 11.3823 3.9629 12.5009 4.9269C13.6185 3.9645 15.0583 3.45975 16.5322 3.51369C18.0061 3.56763 19.4052 4.17628 20.4494 5.21779C21.4936 6.2593 22.106 7.6568 22.1638 9.13052C22.2216 10.6042 21.7206 12.0454 20.7611 13.1655L13.7726 20.1765C13.4515 20.4977 13.0209 20.6856 12.5671 20.7027C12.1132 20.7197 11.6697 20.5645 11.3255 20.2683L11.2265 20.1774L4.2389 13.1655C3.27994 12.0464 2.77872 10.6065 2.83546 9.13384C2.89219 7.66115 3.50269 6.26413 4.5449 5.2221ZM5.8175 6.4947C5.08152 7.23089 4.65727 8.2222 4.6328 9.26289C4.60834 10.3036 4.98553 11.3137 5.6861 12.0837L5.8175 12.2223L12.5 18.9048L17.2727 14.1312L14.0912 10.9497L13.1372 11.9037C12.8865 12.1545 12.5889 12.3535 12.2613 12.4892C11.9337 12.625 11.5826 12.6949 11.228 12.695C10.5119 12.6952 9.82501 12.4109 9.3185 11.9046C8.81199 11.3983 8.52734 10.7116 8.52717 9.99544C8.527 9.27929 8.81133 8.59241 9.3176 8.0859L11.2094 6.1932C10.4565 5.59234 9.51417 5.27942 8.55142 5.3106C7.58867 5.34177 6.66853 5.71499 5.9561 6.3633L5.8175 6.4947ZM13.4549 9.0399C13.6237 8.87118 13.8526 8.77639 14.0912 8.77639C14.3298 8.77639 14.5587 8.87118 14.7275 9.0399L18.5453 12.8577L19.1825 12.2223C19.9308 11.4745 20.3568 10.4636 20.3695 9.40581C20.3821 8.34799 19.9803 7.32722 19.25 6.5618C18.5198 5.79638 17.519 5.34708 16.4618 5.30999C15.4045 5.27289 14.3747 5.65095 13.5926 6.3633L13.4549 6.4947L10.5911 9.3585C10.4351 9.51439 10.3418 9.72214 10.3288 9.9423C10.3159 10.1625 10.3842 10.3797 10.5209 10.5528L10.5911 10.6311C10.747 10.7871 10.9547 10.8804 11.1749 10.8934C11.3951 10.9063 11.6123 10.838 11.7854 10.7013L11.8637 10.6311L13.4549 9.0399Z" fill="#0A0D14" style="fill:#0A0D14;fill:color(display-p3 0.0392 0.0510 0.0784);fill-opacity:1;"/>
</svg>
