<svg width="25" height="24" viewBox="0 0 25 24" fill="none" xmlns="http://www.w3.org/2000/svg">
<path d="M12.5 2.10156L21.05 7.05156V16.9516L12.5 21.9016L3.95001 16.9516V7.05156L12.5 2.10156ZM12.5 4.18146L5.75001 8.08926V15.9139L12.5 19.8217L19.25 15.9139V8.08926L12.5 4.18146ZM12.5 15.6016C11.5452 15.6016 10.6296 15.2223 9.95443 14.5471C9.2793 13.872 8.90001 12.9563 8.90001 12.0016C8.90001 11.0468 9.2793 10.1311 9.95443 9.45598C10.6296 8.78085 11.5452 8.40156 12.5 8.40156C13.4548 8.40156 14.3705 8.78085 15.0456 9.45598C15.7207 10.1311 16.1 11.0468 16.1 12.0016C16.1 12.9563 15.7207 13.872 15.0456 14.5471C14.3705 15.2223 13.4548 15.6016 12.5 15.6016ZM12.5 13.8016C12.9774 13.8016 13.4352 13.6119 13.7728 13.2744C14.1104 12.9368 14.3 12.479 14.3 12.0016C14.3 11.5242 14.1104 11.0663 13.7728 10.7288C13.4352 10.3912 12.9774 10.2016 12.5 10.2016C12.0226 10.2016 11.5648 10.3912 11.2272 10.7288C10.8897 11.0663 10.7 11.5242 10.7 12.0016C10.7 12.479 10.8897 12.9368 11.2272 13.2744C11.5648 13.6119 12.0226 13.8016 12.5 13.8016Z" fill="#0A0D14" style="fill:#0A0D14;fill:color(display-p3 0.0392 0.0510 0.0784);fill-opacity:1;"/>
</svg>
