<svg width="25" height="24" viewBox="0 0 25 24" fill="none" xmlns="http://www.w3.org/2000/svg">
<path d="M3.5 11.9984C3.5 11.2199 3.599 10.4657 3.7844 9.74482C4.28162 9.77096 4.77638 9.65909 5.214 9.4216C5.65161 9.18411 6.01503 8.83023 6.26409 8.39909C6.51314 7.96795 6.63813 7.47634 6.62523 6.9786C6.61233 6.48086 6.46205 5.99638 6.191 5.57872C7.27905 4.50823 8.62171 3.73236 10.0925 3.32422C10.3184 3.76834 10.6628 4.1413 11.0875 4.4018C11.5123 4.6623 12.0008 4.80018 12.4991 4.80018C12.9974 4.80018 13.4859 4.6623 13.9107 4.4018C14.3354 4.1413 14.6798 3.76834 14.9057 3.32422C16.3765 3.73236 17.7192 4.50823 18.8072 5.57872C18.5358 5.99646 18.3853 6.48112 18.3723 6.97909C18.3594 7.47705 18.4844 7.96891 18.7336 8.40023C18.9828 8.83155 19.3464 9.18553 19.7843 9.42299C20.2222 9.66046 20.7173 9.77215 21.2147 9.74572C21.4001 10.4657 21.4991 11.2199 21.4991 11.9984C21.4991 12.7769 21.4001 13.5311 21.2147 14.252C20.7174 14.2257 20.2225 14.3374 19.7848 14.5749C19.347 14.8123 18.9835 15.1661 18.7343 15.5973C18.4851 16.0285 18.3601 16.5202 18.3729 17.018C18.3858 17.5158 18.5361 18.0004 18.8072 18.4181C17.7192 19.4886 16.3765 20.2645 14.9057 20.6726C14.6798 20.2285 14.3354 19.8555 13.9107 19.595C13.4859 19.3345 12.9974 19.1967 12.4991 19.1967C12.0008 19.1967 11.5123 19.3345 11.0875 19.595C10.6628 19.8555 10.3184 20.2285 10.0925 20.6726C8.62171 20.2645 7.27905 19.4886 6.191 18.4181C6.46236 18.0004 6.61286 17.5157 6.62585 17.0178C6.63885 16.5198 6.51383 16.0279 6.26463 15.5966C6.01543 15.1653 5.65177 14.8113 5.21388 14.5738C4.77598 14.3364 4.28093 14.2247 3.7835 14.2511C3.599 13.532 3.5 12.7778 3.5 11.9984ZM7.8236 14.6984C8.3906 15.6803 8.5526 16.8098 8.3312 17.87C8.6984 18.131 9.089 18.3569 9.4985 18.545C10.3235 17.806 11.3924 17.3976 12.5 17.3984C13.634 17.3984 14.6942 17.8223 15.5015 18.545C15.911 18.3569 16.3016 18.131 16.6688 17.87C16.4415 16.7864 16.6222 15.657 17.1764 14.6984C17.7296 13.7394 18.6173 13.0183 19.6694 12.6734C19.711 12.2244 19.711 11.7725 19.6694 11.3234C18.617 10.9788 17.7289 10.2577 17.1755 9.29842C16.6213 8.33986 16.4406 7.21045 16.6679 6.12682C16.3008 5.86575 15.91 5.63976 15.5006 5.45182C14.6758 6.19066 13.6073 6.59897 12.5 6.59842C11.3924 6.59919 10.3235 6.19087 9.4985 5.45182C9.08912 5.63976 8.6983 5.86575 8.3312 6.12682C8.55851 7.21045 8.37775 8.33986 7.8236 9.29842C7.27043 10.2575 6.38268 10.9786 5.3306 11.3234C5.28898 11.7725 5.28898 12.2244 5.3306 12.6734C6.38302 13.0181 7.27112 13.7392 7.8245 14.6984H7.8236ZM12.5 14.6984C11.7839 14.6984 11.0972 14.414 10.5908 13.9076C10.0845 13.4013 9.8 12.7145 9.8 11.9984C9.8 11.2823 10.0845 10.5956 10.5908 10.0892C11.0972 9.58288 11.7839 9.29842 12.5 9.29842C13.2161 9.29842 13.9028 9.58288 14.4092 10.0892C14.9155 10.5956 15.2 11.2823 15.2 11.9984C15.2 12.7145 14.9155 13.4013 14.4092 13.9076C13.9028 14.414 13.2161 14.6984 12.5 14.6984ZM12.5 12.8984C12.7387 12.8984 12.9676 12.8036 13.1364 12.6348C13.3052 12.466 13.4 12.2371 13.4 11.9984C13.4 11.7597 13.3052 11.5308 13.1364 11.362C12.9676 11.1932 12.7387 11.0984 12.5 11.0984C12.2613 11.0984 12.0324 11.1932 11.8636 11.362C11.6948 11.5308 11.6 11.7597 11.6 11.9984C11.6 12.2371 11.6948 12.466 11.8636 12.6348C12.0324 12.8036 12.2613 12.8984 12.5 12.8984Z" fill="#0A0D14" style="fill:#0A0D14;fill:color(display-p3 0.0392 0.0510 0.0784);fill-opacity:1;"/>
</svg>
