<svg width="25" height="24" viewBox="0 0 25 24" fill="none" xmlns="http://www.w3.org/2000/svg">
<path d="M6.50062 5.29242C7.42468 4.46467 8.51004 3.83711 9.68842 3.44922C10.0254 3.87134 10.4531 4.21208 10.9399 4.44612C11.4267 4.68015 11.9599 4.80146 12.5 4.80102C13.0401 4.80146 13.5734 4.68015 14.0602 4.44612C14.5469 4.21208 14.9747 3.87134 15.3116 3.44922C16.49 3.83711 17.5754 4.46467 18.4994 5.29242C18.3028 5.79502 18.2219 6.33546 18.2627 6.87362C18.3035 7.41178 18.465 7.93383 18.7352 8.40102C19.0049 8.8691 19.3766 9.27037 19.8227 9.575C20.2688 9.87962 20.7778 10.0798 21.3119 10.1605C21.5644 11.3745 21.5644 12.6275 21.3119 13.8415C20.2679 14.0017 19.3049 14.6155 18.7352 15.601C18.4649 16.0683 18.3033 16.5905 18.2625 17.1289C18.2216 17.6672 18.3026 18.2078 18.4994 18.7105C17.5753 19.5379 16.4899 20.1652 15.3116 20.5528C14.9746 20.1309 14.5468 19.7903 14.06 19.5564C13.5733 19.3225 13.0401 19.2014 12.5 19.2019C11.9599 19.2015 11.4267 19.3228 10.9399 19.5568C10.4531 19.7909 10.0254 20.1316 9.68842 20.5537C8.51011 20.1661 7.42476 19.5388 6.50062 18.7114C6.69741 18.2087 6.7784 17.6681 6.73757 17.1298C6.69675 16.5914 6.53517 16.0692 6.26482 15.6019C5.99508 15.134 5.62334 14.7329 5.17724 14.4284C4.73115 14.124 4.22216 13.924 3.68812 13.8433C3.4355 12.629 3.4355 11.3757 3.68812 10.1614C4.22224 10.0807 4.73128 9.88052 5.17738 9.5759C5.62349 9.27127 5.99518 8.87 6.26482 8.40192C6.53503 7.93473 6.69654 7.41268 6.73736 6.87452C6.77818 6.33636 6.69726 5.79592 6.50062 5.29332V5.29242ZM13.85 14.3392C14.1596 14.1632 14.4312 13.9277 14.6494 13.6463C14.8676 13.3649 15.0279 13.0431 15.1212 12.6995C15.2145 12.3559 15.2389 11.9972 15.193 11.644C15.1471 11.2909 15.0318 10.9504 14.8538 10.642C14.6757 10.3337 14.4385 10.0636 14.1556 9.84727C13.8727 9.63097 13.5499 9.47277 13.2057 9.38175C12.8614 9.29074 12.5026 9.26872 12.1498 9.31695C11.797 9.36519 11.4572 9.48274 11.15 9.66282C10.5349 10.0234 10.0875 10.6126 9.90522 11.3019C9.72298 11.9912 9.82078 12.7246 10.1773 13.3421C10.5338 13.9595 11.12 14.4109 11.8081 14.5977C12.4962 14.7845 13.2302 14.6916 13.85 14.3392Z" fill="#0A0D14" style="fill:#0A0D14;fill:color(display-p3 0.0392 0.0510 0.0784);fill-opacity:1;"/>
</svg>
