<svg width="25" height="24" viewBox="0 0 25 24" fill="none" xmlns="http://www.w3.org/2000/svg">
<path d="M3.69168 13.8525C3.43285 12.6301 3.43285 11.367 3.69168 10.1445C4.69068 10.2615 5.56368 9.93122 5.84808 9.24362C6.13338 8.55512 5.75088 7.70462 4.96068 7.08092C5.64202 6.03361 6.53507 5.14055 7.58238 4.45922C8.20518 5.24852 9.05658 5.63192 9.74508 5.34662C10.4336 5.06132 10.7639 4.18922 10.646 3.19022C11.8684 2.93139 13.1315 2.93139 14.354 3.19022C14.237 4.18922 14.5673 5.06222 15.2549 5.34662C15.9434 5.63192 16.7939 5.24942 17.4176 4.45922C18.4649 5.14055 19.3579 6.03361 20.0393 7.08092C19.25 7.70372 18.8666 8.55512 19.1519 9.24362C19.4372 9.93212 20.3093 10.2624 21.3083 10.1445C21.5671 11.367 21.5671 12.6301 21.3083 13.8525C20.3093 13.7355 19.4363 14.0658 19.1519 14.7534C18.8666 15.4419 19.2491 16.2924 20.0393 16.9161C19.3579 17.9634 18.4649 18.8565 17.4176 19.5378C16.7948 18.7485 15.9434 18.3651 15.2549 18.6504C14.5664 18.9357 14.2361 19.8078 14.354 20.8068C13.1315 21.0656 11.8684 21.0656 10.646 20.8068C10.763 19.8078 10.4327 18.9348 9.74508 18.6504C9.05658 18.3651 8.20608 18.7476 7.58238 19.5378C6.53507 18.8565 5.64202 17.9634 4.96068 16.9161C5.74998 16.2933 6.13338 15.4419 5.84808 14.7534C5.56278 14.0649 4.69068 13.7346 3.69168 13.8525ZM5.29998 12.1875C6.28998 12.462 7.10628 13.0893 7.51128 14.0649C7.91538 15.0414 7.78128 16.0629 7.27548 16.9557C7.36188 17.0475 7.45098 17.1366 7.54278 17.223C8.43648 16.7172 9.45708 16.584 10.4336 16.9872C11.4092 17.3922 12.0365 18.2085 12.311 19.1985C12.437 19.2021 12.563 19.2021 12.689 19.1985C12.9635 18.2085 13.5908 17.3922 14.5664 16.9872C15.5429 16.5831 16.5644 16.7172 17.4572 17.223C17.549 17.1366 17.6381 17.0475 17.7245 16.9557C17.2187 16.062 17.0855 15.0414 17.4887 14.0649C17.8937 13.0893 18.71 12.462 19.7 12.1875C19.7036 12.0615 19.7036 11.9355 19.7 11.8095C18.71 11.535 17.8937 10.9077 17.4887 9.93212C17.0846 8.95562 17.2187 7.93412 17.7245 7.04132C17.6378 6.94987 17.5486 6.86074 17.4572 6.77402C16.5635 7.27982 15.5429 7.41302 14.5664 7.00982C13.5908 6.60482 12.9635 5.78852 12.689 4.79852C12.563 4.79518 12.437 4.79518 12.311 4.79852C12.0365 5.78852 11.4092 6.60482 10.4336 7.00982C9.45708 7.41392 8.43558 7.27982 7.54278 6.77402C7.45098 6.86042 7.36188 6.94952 7.27548 7.04132C7.78128 7.93502 7.91448 8.95562 7.51128 9.93212C7.10628 10.9077 6.28998 11.535 5.29998 11.8095C5.29638 11.9355 5.29638 12.0615 5.29998 12.1875ZM12.5 14.6985C11.7839 14.6985 11.0971 14.4141 10.5908 13.9077C10.0844 13.4014 9.79998 12.7146 9.79998 11.9985C9.79998 11.2824 10.0844 10.5957 10.5908 10.0893C11.0971 9.58298 11.7839 9.29852 12.5 9.29852C13.2161 9.29852 13.9028 9.58298 14.4092 10.0893C14.9155 10.5957 15.2 11.2824 15.2 11.9985C15.2 12.7146 14.9155 13.4014 14.4092 13.9077C13.9028 14.4141 13.2161 14.6985 12.5 14.6985ZM12.5 12.8985C12.7387 12.8985 12.9676 12.8037 13.1364 12.6349C13.3052 12.4661 13.4 12.2372 13.4 11.9985C13.4 11.7598 13.3052 11.5309 13.1364 11.3621C12.9676 11.1933 12.7387 11.0985 12.5 11.0985C12.2613 11.0985 12.0324 11.1933 11.8636 11.3621C11.6948 11.5309 11.6 11.7598 11.6 11.9985C11.6 12.2372 11.6948 12.4661 11.8636 12.6349C12.0324 12.8037 12.2613 12.8985 12.5 12.8985Z" fill="#0A0D14" style="fill:#0A0D14;fill:color(display-p3 0.0392 0.0510 0.0784);fill-opacity:1;"/>
</svg>
