<svg width="25" height="24" viewBox="0 0 25 24" fill="none" xmlns="http://www.w3.org/2000/svg">
<path d="M10.6586 3.18748C11.8727 2.9329 13.1263 2.93229 14.3405 3.18568C14.4214 3.71964 14.6216 4.2285 14.9262 4.67445C15.2309 5.12039 15.6321 5.49194 16.1 5.76148C16.5676 6.03196 17.0902 6.19354 17.6289 6.23421C18.1675 6.27488 18.7084 6.19359 19.2113 5.99638C20.0378 6.92164 20.6638 8.00792 21.05 9.18688C20.6283 9.524 20.2878 9.95184 20.0541 10.4386C19.8204 10.9254 19.6994 11.4585 19.7 11.9985C19.7 13.1361 20.2274 14.1504 21.0518 14.8101C20.6633 15.9881 20.0365 17.0735 19.2104 17.9988C18.7077 17.8017 18.1669 17.7205 17.6284 17.7612C17.0899 17.8018 16.5675 17.9633 16.1 18.2337C15.6325 18.5031 15.2316 18.8745 14.9271 19.3201C14.6227 19.7657 14.4225 20.2741 14.3414 20.8077C13.1275 21.0629 11.8739 21.0641 10.6595 20.8113C10.579 20.2768 10.379 19.7674 10.0744 19.321C9.76975 18.8746 9.36834 18.5026 8.90004 18.2328C8.43237 17.9625 7.90977 17.801 7.37111 17.7605C6.83245 17.72 6.29159 17.8014 5.78874 17.9988C4.96218 17.0733 4.33615 15.9867 3.95004 14.8074C4.3716 14.4705 4.71185 14.0429 4.94556 13.5565C5.17927 13.0701 5.30043 12.5372 5.30004 11.9976C5.30048 11.4575 5.17918 10.9242 4.94514 10.4374C4.71111 9.95068 4.37036 9.52292 3.94824 9.18598C4.33674 8.00799 4.96355 6.92257 5.78964 5.99728C6.29243 6.19435 6.83316 6.27556 7.37166 6.23489C7.91015 6.19423 8.43255 6.03272 8.90004 5.76238C9.36763 5.49292 9.76853 5.12161 10.073 4.676C10.3774 4.23039 10.5776 3.72194 10.6586 3.18838V3.18748ZM12.5 14.6985C13.2161 14.6985 13.9029 14.414 14.4092 13.9077C14.9156 13.4013 15.2 12.7146 15.2 11.9985C15.2 11.2824 14.9156 10.5956 14.4092 10.0893C13.9029 9.58295 13.2161 9.29848 12.5 9.29848C11.784 9.29848 11.0972 9.58295 10.5909 10.0893C10.0845 10.5956 9.80004 11.2824 9.80004 11.9985C9.80004 12.7146 10.0845 13.4013 10.5909 13.9077C11.0972 14.414 11.784 14.6985 12.5 14.6985Z" fill="#0A0D14" style="fill:#0A0D14;fill:color(display-p3 0.0392 0.0510 0.0784);fill-opacity:1;"/>
</svg>
