<svg width="25" height="24" viewBox="0 0 25 24" fill="none" xmlns="http://www.w3.org/2000/svg">
<path d="M9.51739 4.80121L11.8637 2.45491C12.0325 2.28619 12.2613 2.19141 12.5 2.19141C12.7386 2.19141 12.9675 2.28619 13.1363 2.45491L15.4826 4.80121H18.8C19.0387 4.80121 19.2676 4.89604 19.4364 5.06482C19.6052 5.2336 19.7 5.46252 19.7 5.70121V9.01861L22.0463 11.3649C22.215 11.5337 22.3098 11.7626 22.3098 12.0012C22.3098 12.2399 22.215 12.4687 22.0463 12.6375L19.7 14.9838V18.3012C19.7 18.5399 19.6052 18.7688 19.4364 18.9376C19.2676 19.1064 19.0387 19.2012 18.8 19.2012H15.4826L13.1363 21.5475C12.9675 21.7162 12.7386 21.811 12.5 21.811C12.2613 21.811 12.0325 21.7162 11.8637 21.5475L9.51739 19.2012H6.19999C5.9613 19.2012 5.73238 19.1064 5.5636 18.9376C5.39481 18.7688 5.29999 18.5399 5.29999 18.3012V14.9838L2.95369 12.6375C2.78497 12.4687 2.69019 12.2399 2.69019 12.0012C2.69019 11.7626 2.78497 11.5337 2.95369 11.3649L5.29999 9.01861V5.70121C5.29999 5.46252 5.39481 5.2336 5.5636 5.06482C5.73238 4.89604 5.9613 4.80121 6.19999 4.80121H9.51739ZM12.5 14.7012C13.2161 14.7012 13.9028 14.4167 14.4092 13.9104C14.9155 13.4041 15.2 12.7173 15.2 12.0012C15.2 11.2851 14.9155 10.5984 14.4092 10.092C13.9028 9.58568 13.2161 9.30121 12.5 9.30121C11.7839 9.30121 11.0972 9.58568 10.5908 10.092C10.0845 10.5984 9.79999 11.2851 9.79999 12.0012C9.79999 12.7173 10.0845 13.4041 10.5908 13.9104C11.0972 14.4167 11.7839 14.7012 12.5 14.7012Z" fill="#0A0D14" style="fill:#0A0D14;fill:color(display-p3 0.0392 0.0510 0.0784);fill-opacity:1;"/>
</svg>
