<svg width="25" height="24" viewBox="0 0 25 24" fill="none" xmlns="http://www.w3.org/2000/svg">
<path d="M12.5 2.10156L21.05 7.05156V16.9516L12.5 21.9016L3.95001 16.9516V7.05156L12.5 2.10156ZM12.5 14.7016C13.2161 14.7016 13.9029 14.4171 14.4092 13.9108C14.9155 13.4044 15.2 12.7176 15.2 12.0016C15.2 11.2855 14.9155 10.5987 14.4092 10.0924C13.9029 9.58603 13.2161 9.30156 12.5 9.30156C11.7839 9.30156 11.0972 9.58603 10.5908 10.0924C10.0845 10.5987 9.80001 11.2855 9.80001 12.0016C9.80001 12.7176 10.0845 13.4044 10.5908 13.9108C11.0972 14.4171 11.7839 14.7016 12.5 14.7016Z" fill="#0A0D14" style="fill:#0A0D14;fill:color(display-p3 0.0392 0.0510 0.0784);fill-opacity:1;"/>
</svg>
