<svg width="25" height="24" viewBox="0 0 25 24" fill="none" xmlns="http://www.w3.org/2000/svg">
<path d="M9.51739 4.80121L11.8637 2.45491C12.0325 2.28619 12.2613 2.19141 12.5 2.19141C12.7386 2.19141 12.9675 2.28619 13.1363 2.45491L15.4826 4.80121H18.8C19.0387 4.80121 19.2676 4.89604 19.4364 5.06482C19.6052 5.2336 19.7 5.46252 19.7 5.70121V9.01861L22.0463 11.3649C22.215 11.5337 22.3098 11.7626 22.3098 12.0012C22.3098 12.2399 22.215 12.4687 22.0463 12.6375L19.7 14.9838V18.3012C19.7 18.5399 19.6052 18.7688 19.4364 18.9376C19.2676 19.1064 19.0387 19.2012 18.8 19.2012H15.4826L13.1363 21.5475C12.9675 21.7162 12.7386 21.811 12.5 21.811C12.2613 21.811 12.0325 21.7162 11.8637 21.5475L9.51739 19.2012H6.19999C5.9613 19.2012 5.73238 19.1064 5.5636 18.9376C5.39481 18.7688 5.29999 18.5399 5.29999 18.3012V14.9838L2.95369 12.6375C2.78497 12.4687 2.69019 12.2399 2.69019 12.0012C2.69019 11.7626 2.78497 11.5337 2.95369 11.3649L5.29999 9.01861V5.70121C5.29999 5.46252 5.39481 5.2336 5.5636 5.06482C5.73238 4.89604 5.9613 4.80121 6.19999 4.80121H9.51739ZM7.09999 6.60121V9.76471L4.86349 12.0012L7.09999 14.2377V17.4012H10.2635L12.5 19.6377L14.7365 17.4012H17.9V14.2377L20.1365 12.0012L17.9 9.76471V6.60121H14.7365L12.5 4.36471L10.2635 6.60121H7.09999ZM12.5 15.6012C11.5452 15.6012 10.6295 15.2219 9.95441 14.5468C9.27928 13.8717 8.89999 12.956 8.89999 12.0012C8.89999 11.0464 9.27928 10.1308 9.95441 9.45563C10.6295 8.7805 11.5452 8.40121 12.5 8.40121C13.4548 8.40121 14.3704 8.7805 15.0456 9.45563C15.7207 10.1308 16.1 11.0464 16.1 12.0012C16.1 12.956 15.7207 13.8717 15.0456 14.5468C14.3704 15.2219 13.4548 15.6012 12.5 15.6012ZM12.5 13.8012C12.9774 13.8012 13.4352 13.6116 13.7728 13.274C14.1103 12.9364 14.3 12.4786 14.3 12.0012C14.3 11.5238 14.1103 11.066 13.7728 10.7284C13.4352 10.3909 12.9774 10.2012 12.5 10.2012C12.0226 10.2012 11.5648 10.3909 11.2272 10.7284C10.8896 11.066 10.7 11.5238 10.7 12.0012C10.7 12.4786 10.8896 12.9364 11.2272 13.274C11.5648 13.6116 12.0226 13.8012 12.5 13.8012Z" fill="#0A0D14" style="fill:#0A0D14;fill:color(display-p3 0.0392 0.0510 0.0784);fill-opacity:1;"/>
</svg>
