<svg width="25" height="24" viewBox="0 0 25 24" fill="none" xmlns="http://www.w3.org/2000/svg">
<path d="M3.61876 13.4655C3.45732 12.4942 3.45732 11.5029 3.61876 10.5315C4.61056 10.5549 5.50156 10.0797 5.84806 9.24362C6.19456 8.40662 5.90026 7.44002 5.18206 6.75692C5.75483 5.95528 6.45607 5.25374 7.25746 4.68062C7.94146 5.39882 8.90806 5.69312 9.74506 5.34662C10.5821 5.00012 11.0564 4.10822 11.0321 3.11732C12.004 2.95568 12.9959 2.95568 13.9679 3.11732C13.9436 4.10912 14.4188 5.00012 15.2549 5.34662C16.0919 5.69312 17.0585 5.39882 17.7416 4.68062C18.5432 5.25339 19.2447 5.95463 19.8179 6.75602C19.0997 7.44002 18.8054 8.40662 19.1519 9.24362C19.4984 10.0806 20.3903 10.5549 21.3812 10.5306C21.5428 11.5025 21.5428 12.4945 21.3812 13.4664C20.3894 13.4421 19.4984 13.9173 19.1519 14.7534C18.8054 15.5904 19.0997 16.557 19.8179 17.2401C19.2451 18.0418 18.5438 18.7433 17.7425 19.3164C17.0585 18.5982 16.0919 18.3039 15.2549 18.6504C14.4179 18.9969 13.9436 19.8888 13.9679 20.8797C12.9959 21.0414 12.004 21.0414 11.0321 20.8797C11.0564 19.8879 10.5812 18.9969 9.74506 18.6504C8.90806 18.3039 7.94146 18.5982 7.25836 19.3164C6.45672 18.7436 5.75518 18.0424 5.18206 17.241C5.90026 16.557 6.19456 15.5904 5.84806 14.7534C5.50156 13.9164 4.60966 13.4421 3.61876 13.4664V13.4655ZM12.5 14.6985C13.216 14.6985 13.9028 14.4141 14.4091 13.9077C14.9155 13.4014 15.2 12.7146 15.2 11.9985C15.2 11.2824 14.9155 10.5957 14.4091 10.0893C13.9028 9.58298 13.216 9.29852 12.5 9.29852C11.7839 9.29852 11.0971 9.58298 10.5908 10.0893C10.0844 10.5957 9.79996 11.2824 9.79996 11.9985C9.79996 12.7146 10.0844 13.4014 10.5908 13.9077C11.0971 14.4141 11.7839 14.6985 12.5 14.6985Z" fill="#0A0D14" style="fill:#0A0D14;fill:color(display-p3 0.0392 0.0510 0.0784);fill-opacity:1;"/>
</svg>
