<svg width="25" height="24" viewBox="0 0 25 24" fill="none" xmlns="http://www.w3.org/2000/svg">
<path d="M17.9686 7.49995H18.5002C18.9144 7.49995 19.2502 7.83574 19.2502 8.24995V13.4999C19.2502 13.9141 18.9144 14.2499 18.5002 14.2499H17.0002L13.8739 9.8732C13.5009 9.35098 12.837 9.12391 12.2223 9.30832L10.3583 9.86751C9.82978 10.0261 9.25685 9.88163 8.86665 9.49143L8.64708 9.27185C8.31241 8.93719 8.36758 8.38002 8.76138 8.11749L12.8122 5.41696C13.3064 5.0875 13.9484 5.08066 14.4495 5.39955L17.566 7.3827C17.6863 7.45928 17.826 7.49995 17.9686 7.49995ZM7.27031 13.721L6.05849 14.7814C5.70493 15.0907 5.71959 15.6452 6.08901 15.9355L9.94458 18.9649C10.3046 19.2478 10.8319 19.1448 11.0591 18.7472L11.587 17.8234C11.9095 17.259 11.8318 16.5511 11.3946 16.0702L9.36798 13.8409C8.81818 13.2361 7.88542 13.1828 7.27031 13.721ZM8.78418 6.75H5.75C5.33579 6.75 5 7.08579 5 7.5V13.1368C5 13.4431 5.09356 13.738 5.26264 13.9848C5.28057 13.9678 5.29892 13.9511 5.31768 13.9347L6.5295 12.8743C7.60593 11.9325 9.23827 12.0257 10.2004 13.0841L12.2271 15.3134C12.9922 16.1551 13.1282 17.3938 12.5638 18.3815L12.0731 19.2403C12.4953 19.4003 12.9762 19.3642 13.3767 19.1239L16.6836 17.1398C17.0589 16.9146 17.1624 16.4172 16.9082 16.0609L12.9582 10.5271C12.8649 10.3965 12.6989 10.3398 12.5452 10.3859L10.6813 10.945C9.75632 11.2225 8.75369 10.9698 8.07085 10.2869L7.85127 10.0673C7.01461 9.23069 7.15254 7.83776 8.13703 7.18143L8.78418 6.75Z" fill="#0A0D14" style="fill:#0A0D14;fill:color(display-p3 0.0392 0.0510 0.0784);fill-opacity:1;"/>
</svg>
