<svg width="25" height="24" viewBox="0 0 25 24" fill="none" xmlns="http://www.w3.org/2000/svg">
<path d="M12.3958 4.79293C13.1371 4.29872 14.1002 4.28848 14.8519 4.7668L17.9683 6.74996H19.2498C19.6641 6.74996 19.9998 7.08575 19.9998 7.49996V14.2499C19.9998 14.6642 19.6641 14.9999 19.2498 14.9999H18.1101C18.1547 15.7104 17.82 16.4327 17.1466 16.8367L13.3266 19.1288C12.8443 19.418 12.2457 19.4113 11.7736 19.1231C11.2483 19.5875 10.4398 19.6387 9.85328 19.1778L5.99771 16.1484C5.4229 15.6968 5.27755 14.9252 5.57434 14.3135C5.21186 14.0293 5 13.5941 5 13.1332V7.5C5 7.08579 5.33579 6.75 5.75 6.75H9.4602L12.3958 4.79293ZM6.62948 13.2339L7.1485 12.7798C8.07116 11.9724 9.47031 12.0524 10.295 12.9596L12.3217 15.1889C12.9738 15.9062 13.0927 16.9601 12.6184 17.8043L16.3749 15.5504C16.5859 15.4238 16.6623 15.1707 16.5836 14.9575L13.2633 10.3091C13.0767 10.048 12.7448 9.93449 12.4375 10.0267L10.5735 10.5859C9.78069 10.8237 8.92128 10.607 8.33599 10.0218L8.11642 9.80219C7.69041 9.37618 7.58024 8.76989 7.75951 8.25H6.5V13.1332L6.62948 13.2339ZM14.0466 6.0323C13.796 5.87285 13.475 5.87627 13.2279 6.041L9.17707 8.74153L9.39665 8.96111C9.59175 9.1562 9.87822 9.22842 10.1425 9.14914L12.0064 8.58995C12.9285 8.31334 13.9244 8.65394 14.4839 9.43727L17.3858 13.4999H18.4998V8.24996H17.9683C17.683 8.24996 17.4036 8.16861 17.1629 8.01545L14.0466 6.0323ZM8.13626 13.9086L6.92445 14.969L10.78 17.9984L11.308 17.0744C11.4692 16.7923 11.4303 16.4383 11.2117 16.1978L9.1851 13.9685C8.9102 13.6661 8.44381 13.6395 8.13626 13.9086Z" fill="#0A0D14" style="fill:#0A0D14;fill:color(display-p3 0.0392 0.0510 0.0784);fill-opacity:1;"/>
</svg>
