<svg width="25" height="24" viewBox="0 0 25 24" fill="none" xmlns="http://www.w3.org/2000/svg">
<path d="M12.4998 3.75L8 11.25H17L12.4998 3.75ZM12.4998 6.66547L14.3507 9.75H10.6492L12.4998 6.66547ZM8.5625 18C7.42341 18 6.5 17.0766 6.5 15.9375C6.5 14.7984 7.42341 13.875 8.5625 13.875C9.70158 13.875 10.625 14.7984 10.625 15.9375C10.625 17.0766 9.70158 18 8.5625 18ZM8.5625 19.5C10.53 19.5 12.125 17.9051 12.125 15.9375C12.125 13.9699 10.53 12.375 8.5625 12.375C6.59499 12.375 5 13.9699 5 15.9375C5 17.9051 6.59499 19.5 8.5625 19.5ZM14.75 14.625V17.625H17.75V14.625H14.75ZM13.25 19.125V13.125H19.25V19.125H13.25Z" fill="#0A0D14" style="fill:#0A0D14;fill:color(display-p3 0.0392 0.0510 0.0784);fill-opacity:1;"/>
</svg>
