<svg width="25" height="24" viewBox="0 0 25 24" fill="none" xmlns="http://www.w3.org/2000/svg">
<path d="M8.747 19.2002C8.59486 19.6303 8.33626 20.0148 7.99531 20.318C7.65437 20.6211 7.24219 20.8329 6.79725 20.9337C6.3523 21.0344 5.88908 21.0208 5.45081 20.8942C5.01253 20.7675 4.61348 20.5319 4.29089 20.2093C3.9683 19.8867 3.73268 19.4877 3.60601 19.0494C3.47934 18.6111 3.46576 18.1479 3.56652 17.7029C3.66728 17.258 3.8791 16.8458 4.18223 16.5049C4.48536 16.1639 4.86991 15.9053 5.3 15.7532V8.24719C4.86991 8.09505 4.48536 7.83644 4.18223 7.49549C3.8791 7.15455 3.66728 6.74238 3.56652 6.29743C3.46576 5.85248 3.47934 5.38926 3.60601 4.95099C3.73268 4.51271 3.9683 4.11367 4.29089 3.79108C4.61348 3.46848 5.01253 3.23286 5.45081 3.10619C5.88908 2.97953 6.3523 2.96594 6.79725 3.0667C7.24219 3.16746 7.65437 3.37929 7.99531 3.68241C8.33626 3.98554 8.59486 4.37009 8.747 4.80019H16.253C16.4051 4.37009 16.6638 3.98554 17.0047 3.68241C17.3456 3.37929 17.7578 3.16746 18.2028 3.0667C18.6477 2.96594 19.1109 2.97953 19.5492 3.10619C19.9875 3.23286 20.3865 3.46848 20.7091 3.79108C21.0317 4.11367 21.2673 4.51271 21.394 4.95099C21.5207 5.38926 21.5343 5.85248 21.4335 6.29743C21.3327 6.74238 21.1209 7.15455 20.8178 7.49549C20.5147 7.83644 20.1301 8.09505 19.7 8.24719V15.7532C20.1301 15.9053 20.5147 16.1639 20.8178 16.5049C21.1209 16.8458 21.3327 17.258 21.4335 17.7029C21.5343 18.1479 21.5207 18.6111 21.394 19.0494C21.2673 19.4877 21.0317 19.8867 20.7091 20.2093C20.3865 20.5319 19.9875 20.7675 19.5492 20.8942C19.1109 21.0208 18.6477 21.0344 18.2028 20.9337C17.7578 20.8329 17.3456 20.6211 17.0047 20.318C16.6638 20.0148 16.4051 19.6303 16.253 19.2002H8.747ZM8.747 17.4002H16.253C16.3877 17.0204 16.6054 16.6754 16.8903 16.3905C17.1753 16.1056 17.5202 15.8878 17.9 15.7532V8.24719C17.5202 8.11254 17.1753 7.89481 16.8903 7.60987C16.6054 7.32493 16.3877 6.97998 16.253 6.60019H8.747C8.61236 6.97998 8.39462 7.32493 8.10969 7.60987C7.82475 7.89481 7.4798 8.11254 7.1 8.24719V15.7532C7.4798 15.8878 7.82475 16.1056 8.10969 16.3905C8.39462 16.6754 8.61236 17.0204 8.747 17.4002ZM6.2 6.60019C6.4387 6.60019 6.66762 6.50537 6.8364 6.33658C7.00518 6.1678 7.1 5.93888 7.1 5.70019C7.1 5.46149 7.00518 5.23257 6.8364 5.06379C6.66762 4.89501 6.4387 4.80019 6.2 4.80019C5.96131 4.80019 5.73239 4.89501 5.56361 5.06379C5.39483 5.23257 5.3 5.46149 5.3 5.70019C5.3 5.93888 5.39483 6.1678 5.56361 6.33658C5.73239 6.50537 5.96131 6.60019 6.2 6.60019ZM18.8 6.60019C19.0387 6.60019 19.2676 6.50537 19.4364 6.33658C19.6052 6.1678 19.7 5.93888 19.7 5.70019C19.7 5.46149 19.6052 5.23257 19.4364 5.06379C19.2676 4.89501 19.0387 4.80019 18.8 4.80019C18.5613 4.80019 18.3324 4.89501 18.1636 5.06379C17.9948 5.23257 17.9 5.46149 17.9 5.70019C17.9 5.93888 17.9948 6.1678 18.1636 6.33658C18.3324 6.50537 18.5613 6.60019 18.8 6.60019ZM18.8 19.2002C19.0387 19.2002 19.2676 19.1054 19.4364 18.9366C19.6052 18.7678 19.7 18.5389 19.7 18.3002C19.7 18.0615 19.6052 17.8326 19.4364 17.6638C19.2676 17.495 19.0387 17.4002 18.8 17.4002C18.5613 17.4002 18.3324 17.495 18.1636 17.6638C17.9948 17.8326 17.9 18.0615 17.9 18.3002C17.9 18.5389 17.9948 18.7678 18.1636 18.9366C18.3324 19.1054 18.5613 19.2002 18.8 19.2002ZM6.2 19.2002C6.4387 19.2002 6.66762 19.1054 6.8364 18.9366C7.00518 18.7678 7.1 18.5389 7.1 18.3002C7.1 18.0615 7.00518 17.8326 6.8364 17.6638C6.66762 17.495 6.4387 17.4002 6.2 17.4002C5.96131 17.4002 5.73239 17.495 5.56361 17.6638C5.39483 17.8326 5.3 18.0615 5.3 18.3002C5.3 18.5389 5.39483 18.7678 5.56361 18.9366C5.73239 19.1054 5.96131 19.2002 6.2 19.2002Z" fill="#0A0D14" style="fill:#0A0D14;fill:color(display-p3 0.0392 0.0510 0.0784);fill-opacity:1;"/>
</svg>
