<svg width="25" height="24" viewBox="0 0 25 24" fill="none" xmlns="http://www.w3.org/2000/svg">
<path d="M6.2 8.4C5.48392 8.4 4.79716 8.11554 4.29081 7.60919C3.78446 7.10284 3.5 6.41608 3.5 5.7C3.5 4.98392 3.78446 4.29716 4.29081 3.79081C4.79716 3.28446 5.48392 3 6.2 3C6.91608 3 7.60284 3.28446 8.10919 3.79081C8.61554 4.29716 8.9 4.98392 8.9 5.7C8.9 6.41608 8.61554 7.10284 8.10919 7.60919C7.60284 8.11554 6.91608 8.4 6.2 8.4ZM18.8 8.4C18.0839 8.4 17.3972 8.11554 16.8908 7.60919C16.3845 7.10284 16.1 6.41608 16.1 5.7C16.1 4.98392 16.3845 4.29716 16.8908 3.79081C17.3972 3.28446 18.0839 3 18.8 3C19.5161 3 20.2028 3.28446 20.7092 3.79081C21.2155 4.29716 21.5 4.98392 21.5 5.7C21.5 6.41608 21.2155 7.10284 20.7092 7.60919C20.2028 8.11554 19.5161 8.4 18.8 8.4ZM18.8 21C18.0839 21 17.3972 20.7155 16.8908 20.2092C16.3845 19.7028 16.1 19.0161 16.1 18.3C16.1 17.5839 16.3845 16.8972 16.8908 16.3908C17.3972 15.8845 18.0839 15.6 18.8 15.6C19.5161 15.6 20.2028 15.8845 20.7092 16.3908C21.2155 16.8972 21.5 17.5839 21.5 18.3C21.5 19.0161 21.2155 19.7028 20.7092 20.2092C20.2028 20.7155 19.5161 21 18.8 21ZM6.2 21C5.48392 21 4.79716 20.7155 4.29081 20.2092C3.78446 19.7028 3.5 19.0161 3.5 18.3C3.5 17.5839 3.78446 16.8972 4.29081 16.3908C4.79716 15.8845 5.48392 15.6 6.2 15.6C6.91608 15.6 7.60284 15.8845 8.10919 16.3908C8.61554 16.8972 8.9 17.5839 8.9 18.3C8.9 19.0161 8.61554 19.7028 8.10919 20.2092C7.60284 20.7155 6.91608 21 6.2 21ZM9.8 4.8H15.2V6.6H9.8V4.8ZM9.8 17.4H15.2V19.2H9.8V17.4ZM5.3 9.3H7.1V14.7H5.3V9.3ZM17.9 9.3H19.7V14.7H17.9V9.3Z" fill="#0A0D14" style="fill:#0A0D14;fill:color(display-p3 0.0392 0.0510 0.0784);fill-opacity:1;"/>
</svg>
