<svg width="25" height="24" viewBox="0 0 25 24" fill="none" xmlns="http://www.w3.org/2000/svg">
<path d="M13.5079 16.5222L9.72884 14.4612C9.23546 14.9887 8.59483 15.3555 7.89021 15.5141C7.18559 15.6727 6.44956 15.6157 5.77777 15.3504C5.10598 15.0852 4.52951 14.6241 4.12325 14.0269C3.717 13.4297 3.49976 12.7242 3.49976 12.002C3.49976 11.2797 3.717 10.5742 4.12325 9.977C4.52951 9.37984 5.10598 8.91869 5.77777 8.65347C6.44956 8.38824 7.18559 8.33122 7.89021 8.4898C8.59483 8.64839 9.23546 9.01524 9.72884 9.5427L13.5088 7.4817C13.2942 6.63217 13.3968 5.73353 13.7974 4.95423C14.198 4.17494 14.869 3.56848 15.6847 3.24855C16.5005 2.92862 17.4049 2.91718 18.2284 3.21636C19.052 3.51555 19.7382 4.10483 20.1583 4.87374C20.5785 5.64265 20.7038 6.5384 20.5108 7.39309C20.3177 8.24778 19.8196 9.00273 19.1098 9.51643C18.3999 10.0301 17.5271 10.2673 16.6549 10.1835C15.7827 10.0997 14.971 9.70066 14.3719 9.0612L10.5919 11.1222C10.737 11.6994 10.737 12.3036 10.5919 12.8808L14.371 14.9418C14.9701 14.3023 15.7818 13.9033 16.654 13.8195C17.5262 13.7357 18.399 13.9729 19.1089 14.4866C19.8187 15.0003 20.3168 15.7552 20.5099 16.6099C20.7029 17.4646 20.5776 18.3604 20.1574 19.1293C19.7373 19.8982 19.0511 20.4875 18.2275 20.7866C17.404 21.0858 16.4996 21.0744 15.6838 20.7544C14.8681 20.4345 14.1971 19.8281 13.7965 19.0488C13.3959 18.2695 13.2933 17.3708 13.5079 16.5213V16.5222ZM7.09994 13.8015C7.57733 13.8015 8.03517 13.6119 8.37273 13.2743C8.7103 12.9367 8.89994 12.4789 8.89994 12.0015C8.89994 11.5241 8.7103 11.0663 8.37273 10.7287C8.03517 10.3911 7.57733 10.2015 7.09994 10.2015C6.62255 10.2015 6.16471 10.3911 5.82715 10.7287C5.48958 11.0663 5.29994 11.5241 5.29994 12.0015C5.29994 12.4789 5.48958 12.9367 5.82715 13.2743C6.16471 13.6119 6.62255 13.8015 7.09994 13.8015ZM16.9999 8.4015C17.4773 8.4015 17.9352 8.21186 18.2727 7.87429C18.6103 7.53673 18.7999 7.07889 18.7999 6.6015C18.7999 6.12411 18.6103 5.66627 18.2727 5.32871C17.9352 4.99114 17.4773 4.8015 16.9999 4.8015C16.5226 4.8015 16.0647 4.99114 15.7271 5.32871C15.3896 5.66627 15.1999 6.12411 15.1999 6.6015C15.1999 7.07889 15.3896 7.53673 15.7271 7.87429C16.0647 8.21186 16.5226 8.4015 16.9999 8.4015ZM16.9999 19.2015C17.4773 19.2015 17.9352 19.0119 18.2727 18.6743C18.6103 18.3367 18.7999 17.8789 18.7999 17.4015C18.7999 16.9241 18.6103 16.4663 18.2727 16.1287C17.9352 15.7911 17.4773 15.6015 16.9999 15.6015C16.5226 15.6015 16.0647 15.7911 15.7271 16.1287C15.3896 16.4663 15.1999 16.9241 15.1999 17.4015C15.1999 17.8789 15.3896 18.3367 15.7271 18.6743C16.0647 19.0119 16.5226 19.2015 16.9999 19.2015Z" fill="#0A0D14" style="fill:#0A0D14;fill:color(display-p3 0.0392 0.0510 0.0784);fill-opacity:1;"/>
</svg>
