<svg width="25" height="24" viewBox="0 0 25 24" fill="none" xmlns="http://www.w3.org/2000/svg">
<path d="M5.3 18.3H19.7V13.8H21.5V19.2C21.5 19.4387 21.4052 19.6676 21.2364 19.8364C21.0676 20.0052 20.8387 20.1 20.6 20.1H4.4C4.16131 20.1 3.93239 20.0052 3.7636 19.8364C3.59482 19.6676 3.5 19.4387 3.5 19.2V13.8H5.3V18.3ZM12.5 10.2H9.8C8.94776 10.1994 8.10751 10.4008 7.34814 10.7877C6.58877 11.1746 5.93191 11.7359 5.4314 12.4257C5.75088 10.7854 6.63076 9.30727 7.92033 8.24445C9.2099 7.18164 10.8289 6.60029 12.5 6.6V3L19.7 8.4L12.5 13.8V10.2Z" fill="#0A0D14" style="fill:#0A0D14;fill:color(display-p3 0.0392 0.0510 0.0784);fill-opacity:1;"/>
</svg>
