<svg width="25" height="24" viewBox="0 0 25 24" fill="none" xmlns="http://www.w3.org/2000/svg">
<path d="M10.7 3.89844V5.69844H6.20002V18.2984H18.8V13.7984H20.6V19.1984C20.6 19.4371 20.5052 19.6661 20.3364 19.8348C20.1676 20.0036 19.9387 20.0984 19.7 20.0984H5.30002C5.06133 20.0984 4.83241 20.0036 4.66363 19.8348C4.49485 19.6661 4.40002 19.4371 4.40002 19.1984V4.79844C4.40002 4.55974 4.49485 4.33082 4.66363 4.16204C4.83241 3.99326 5.06133 3.89844 5.30002 3.89844H10.7ZM17.6363 8.13474L12.5 13.271L11.2274 11.9984L16.3637 6.86214L13.4 3.89844H20.6V11.0984L17.6363 8.13474Z" fill="#0A0D14" style="fill:#0A0D14;fill:color(display-p3 0.0392 0.0510 0.0784);fill-opacity:1;"/>
</svg>
