<svg width="25" height="24" viewBox="0 0 25 24" fill="none" xmlns="http://www.w3.org/2000/svg">
<path d="M13.4 13.7992H11.6C10.1237 13.7987 8.67523 14.2016 7.41131 14.9646C6.14739 15.7276 5.11607 16.8216 4.42883 18.1282C4.40951 17.8857 4.3999 17.6425 4.40003 17.3992C4.40003 12.4285 8.42933 8.39922 13.4 8.39922V3.44922L22.85 11.0992L13.4 18.7492V13.7992ZM11.6 11.9992H15.2V14.9764L19.9889 11.0992L15.2 7.22202V10.1992H13.4C12.3653 10.1981 11.3424 10.4205 10.4016 10.8512C9.46071 11.2819 8.62401 11.9109 7.94873 12.6949C9.11091 12.2343 10.3499 11.9982 11.6 11.9992Z" fill="#0A0D14" style="fill:#0A0D14;fill:color(display-p3 0.0392 0.0510 0.0784);fill-opacity:1;"/>
</svg>
