<svg width="25" height="24" viewBox="0 0 25 24" fill="none" xmlns="http://www.w3.org/2000/svg">
<path d="M13.9185 16.7437L9.31946 14.2354C8.878 14.6736 8.31669 14.9713 7.70629 15.0909C7.09589 15.2106 6.46372 15.1468 5.88949 14.9077C5.31526 14.6686 4.82467 14.2649 4.47957 13.7474C4.13447 13.2299 3.95032 12.6218 3.95032 11.9998C3.95032 11.3777 4.13447 10.7696 4.47957 10.2521C4.82467 9.73462 5.31526 9.33087 5.88949 9.09177C6.46372 8.85267 7.09589 8.78893 7.70629 8.90859C8.31669 9.02825 8.878 9.32595 9.31946 9.76416L13.9185 7.25586C13.7607 6.51582 13.8747 5.74373 14.2394 5.08079C14.6041 4.41784 15.1953 3.90834 15.9048 3.64545C16.6144 3.38256 17.3948 3.38385 18.1035 3.6491C18.8121 3.91434 19.4016 4.4258 19.7641 5.08995C20.1267 5.7541 20.238 6.52657 20.0779 7.26608C19.9177 8.00559 19.4967 8.66273 18.8918 9.11733C18.2869 9.57193 17.5386 9.79361 16.7837 9.74184C16.0288 9.69006 15.3178 9.36829 14.7807 8.83536L10.1817 11.3437C10.2734 11.7762 10.2734 12.2233 10.1817 12.6559L14.7807 15.1642C15.3178 14.6312 16.0288 14.3095 16.7837 14.2577C17.5386 14.2059 18.2869 14.4276 18.8918 14.8822C19.4967 15.3368 19.9177 15.9939 20.0779 16.7334C20.238 17.4729 20.1267 18.2454 19.7641 18.9096C19.4016 19.5737 18.8121 20.0852 18.1035 20.3504C17.3948 20.6157 16.6144 20.617 15.9048 20.3541C15.1953 20.0912 14.6041 19.5817 14.2394 18.9187C13.8747 18.2558 13.7607 17.4837 13.9185 16.7437Z" fill="#0A0D14" style="fill:#0A0D14;fill:color(display-p3 0.0392 0.0510 0.0784);fill-opacity:1;"/>
</svg>
