<svg width="25" height="24" viewBox="0 0 25 24" fill="none" xmlns="http://www.w3.org/2000/svg">
<path d="M9.8 3.90104V5.70104H5.3V18.301H19.7V10.201H21.5V19.201C21.5 19.4397 21.4052 19.6687 21.2364 19.8374C21.0676 20.0062 20.8387 20.101 20.6 20.101H4.4C4.16131 20.101 3.93239 20.0062 3.7636 19.8374C3.59482 19.6687 3.5 19.4397 3.5 19.201V4.80104C3.5 4.56234 3.59482 4.33342 3.7636 4.16464C3.93239 3.99586 4.16131 3.90104 4.4 3.90104H9.8ZM18.755 5.70104L16.1 3.04604L17.3726 1.77344L22.1786 6.57944C22.254 6.65496 22.3054 6.75113 22.3262 6.85582C22.347 6.96051 22.3363 7.06901 22.2954 7.16762C22.2546 7.26624 22.1855 7.35054 22.0968 7.40988C22.008 7.46922 21.9037 7.50094 21.797 7.50104H14.3C13.8226 7.50104 13.3648 7.69068 13.0272 8.02825C12.6896 8.36581 12.5 8.82365 12.5 9.30104V14.701H10.7V9.30104C10.7 8.34626 11.0793 7.43058 11.7544 6.75545C12.4295 6.08032 13.3452 5.70104 14.3 5.70104H18.755Z" fill="#0A0D14" style="fill:#0A0D14;fill:color(display-p3 0.0392 0.0510 0.0784);fill-opacity:1;"/>
</svg>
