<svg width="25" height="24" viewBox="0 0 25 24" fill="none" xmlns="http://www.w3.org/2000/svg">
<path d="M9.8 3.90156V5.70156H5.3V18.3016H19.7V10.2016H21.5V19.2016C21.5 19.4403 21.4052 19.6692 21.2364 19.838C21.0676 20.0067 20.8387 20.1016 20.6 20.1016H4.4C4.16131 20.1016 3.93239 20.0067 3.7636 19.838C3.59482 19.6692 3.5 19.4403 3.5 19.2016V4.80156C3.5 4.56287 3.59482 4.33395 3.7636 4.16517C3.93239 3.99638 4.16131 3.90156 4.4 3.90156H9.8ZM16.1 5.70156V2.10156L22.4 7.50156H14.3C13.8226 7.50156 13.3648 7.6912 13.0272 8.02877C12.6896 8.36634 12.5 8.82417 12.5 9.30156V14.7016H10.7V9.30156C10.7 8.34678 11.0793 7.43111 11.7544 6.75598C12.4295 6.08085 13.3452 5.70156 14.3 5.70156H16.1Z" fill="#0A0D14" style="fill:#0A0D14;fill:color(display-p3 0.0392 0.0510 0.0784);fill-opacity:1;"/>
</svg>
