<svg width="25" height="24" viewBox="0 0 25 24" fill="none" xmlns="http://www.w3.org/2000/svg">
<path d="M11.6 3.045V4.8558C9.78444 5.08681 8.12497 6.00048 6.95887 7.4111C5.79277 8.82171 5.20755 10.6234 5.32216 12.45C5.43677 14.2766 6.2426 15.9911 7.57587 17.2449C8.90914 18.4987 10.6698 19.1977 12.5 19.2C14.2537 19.2 15.9472 18.5599 17.2626 17.4C18.5779 16.2401 19.4248 14.64 19.6442 12.9H21.4559C21.0041 17.4477 17.1665 21 12.5 21C7.5293 21 3.5 16.9707 3.5 12C3.5 7.3335 7.0523 3.4959 11.6 3.045ZM19.7 6.0726L12.5 13.2726L11.2274 12L18.4274 4.8H14.3V3H21.5V10.2H19.7V6.0726Z" fill="#0A0D14" style="fill:#0A0D14;fill:color(display-p3 0.0392 0.0510 0.0784);fill-opacity:1;"/>
</svg>
