<svg width="25" height="24" viewBox="0 0 25 24" fill="none" xmlns="http://www.w3.org/2000/svg">
<path d="M5.10469 3.74496L12.5 2.10156L19.8953 3.74496C20.0951 3.78939 20.2739 3.90063 20.402 4.06033C20.5301 4.22002 20.6 4.41863 20.6 4.62336V13.6117C20.5999 14.5006 20.3804 15.3758 19.9609 16.1596C19.5414 16.9433 18.9349 17.6114 18.1952 18.1045L12.5 21.9016L6.80479 18.1045C6.06524 17.6115 5.45881 16.9436 5.03931 16.16C4.61981 15.3764 4.40021 14.5014 4.39999 13.6126V4.62336C4.40003 4.41863 4.46987 4.22002 4.59798 4.06033C4.7261 3.90063 4.90484 3.78939 5.10469 3.74496ZM13.4 10.2016V5.70156L8.89999 12.0016H11.6V16.5016L16.1 10.2016H13.4Z" fill="#0A0D14" style="fill:#0A0D14;fill:color(display-p3 0.0392 0.0510 0.0784);fill-opacity:1;"/>
</svg>
