<svg width="25" height="24" viewBox="0 0 25 24" fill="none" xmlns="http://www.w3.org/2000/svg">
<path d="M5.10472 3.74496L12.5 2.10156L19.8953 3.74496C20.0952 3.78939 20.2739 3.90063 20.402 4.06033C20.5302 4.22002 20.6 4.41863 20.6 4.62336V13.6117C20.6 14.5006 20.3804 15.3758 19.9609 16.1596C19.5414 16.9433 18.9349 17.6114 18.1952 18.1045L12.5 21.9016L6.80482 18.1045C6.06527 17.6115 5.45884 16.9436 5.03934 16.16C4.61984 15.3764 4.40024 14.5014 4.40002 13.6126V4.62336C4.40006 4.41863 4.4699 4.22002 4.59802 4.06033C4.72613 3.90063 4.90487 3.78939 5.10472 3.74496ZM6.20002 5.34516V13.6117C6.20003 14.2043 6.34634 14.7877 6.62596 15.3102C6.90558 15.8327 7.30986 16.2781 7.80292 16.6069L12.5 19.7389L17.1971 16.6069C17.6901 16.2782 18.0943 15.8329 18.3739 15.3106C18.6535 14.7883 18.7999 14.205 18.8 13.6126V5.34516L12.5 3.94656L6.20002 5.34516ZM12.5 11.1016C11.9033 11.1016 11.331 10.8645 10.909 10.4426C10.4871 10.0206 10.25 9.4483 10.25 8.85156C10.25 8.25483 10.4871 7.68253 10.909 7.26057C11.331 6.83862 11.9033 6.60156 12.5 6.60156C13.0968 6.60156 13.6691 6.83862 14.091 7.26057C14.513 7.68253 14.75 8.25483 14.75 8.85156C14.75 9.4483 14.513 10.0206 14.091 10.4426C13.6691 10.8645 13.0968 11.1016 12.5 11.1016ZM8.47432 15.6016C8.58342 14.6101 9.05454 13.6938 9.7974 13.0282C10.5403 12.3626 11.5026 11.9946 12.5 11.9946C13.4974 11.9946 14.4598 12.3626 15.2027 13.0282C15.9455 13.6938 16.4166 14.6101 16.5257 15.6016H8.47432Z" fill="#0A0D14" style="fill:#0A0D14;fill:color(display-p3 0.0392 0.0510 0.0784);fill-opacity:1;"/>
</svg>
