<svg width="25" height="24" viewBox="0 0 25 24" fill="none" xmlns="http://www.w3.org/2000/svg">
<path d="M5.10472 3.74496L12.5 2.10156L19.8953 3.74496C20.0952 3.78939 20.2739 3.90063 20.402 4.06033C20.5302 4.22002 20.6 4.41863 20.6 4.62336V13.6117C20.6 14.5006 20.3804 15.3758 19.9609 16.1596C19.5414 16.9433 18.9349 17.6114 18.1952 18.1045L12.5 21.9016L6.80482 18.1045C6.06527 17.6115 5.45884 16.9436 5.03934 16.16C4.61984 15.3764 4.40024 14.5014 4.40002 13.6126V4.62336C4.40006 4.41863 4.4699 4.22002 4.59802 4.06033C4.72613 3.90063 4.90487 3.78939 5.10472 3.74496Z" fill="#0A0D14" style="fill:#0A0D14;fill:color(display-p3 0.0392 0.0510 0.0784);fill-opacity:1;"/>
</svg>
