<svg width="25" height="24" viewBox="0 0 25 24" fill="none" xmlns="http://www.w3.org/2000/svg">
<path d="M5.10469 3.74496L12.5 2.10156L19.8953 3.74496C20.0951 3.78939 20.2739 3.90063 20.402 4.06033C20.5301 4.22002 20.6 4.41863 20.6 4.62336V13.6117C20.5999 14.5006 20.3804 15.3758 19.9609 16.1596C19.5414 16.9433 18.9349 17.6114 18.1952 18.1045L12.5 21.9016L6.80479 18.1045C6.06524 17.6115 5.45881 16.9436 5.03931 16.16C4.61981 15.3764 4.40021 14.5014 4.39999 13.6126V4.62336C4.40003 4.41863 4.46987 4.22002 4.59798 4.06033C4.7261 3.90063 4.90484 3.78939 5.10469 3.74496ZM6.19999 5.34516V13.6117C6.2 14.2043 6.34631 14.7877 6.62593 15.3102C6.90555 15.8327 7.30983 16.2781 7.80289 16.6069L12.5 19.7389L17.1971 16.6069C17.69 16.2782 18.0942 15.8329 18.3738 15.3106C18.6535 14.7883 18.7998 14.205 18.8 13.6126V5.34516L12.5 3.94656L6.19999 5.34516ZM13.4 10.2016H16.1L11.6 16.5016V12.0016H8.89999L13.4 5.70156V10.2016Z" fill="#0A0D14" style="fill:#0A0D14;fill:color(display-p3 0.0392 0.0510 0.0784);fill-opacity:1;"/>
</svg>
