<svg width="25" height="24" viewBox="0 0 25 24" fill="none" xmlns="http://www.w3.org/2000/svg">
<path d="M12.5 2.10156L19.8953 3.74496C20.0952 3.78939 20.2739 3.90063 20.402 4.06033C20.5302 4.22002 20.6 4.41863 20.6 4.62336V13.6117C20.6 14.5006 20.3804 15.3758 19.9609 16.1596C19.5414 16.9433 18.9349 17.6114 18.1952 18.1045L12.5 21.9016L6.80482 18.1045C6.06527 17.6115 5.45884 16.9436 5.03934 16.16C4.61984 15.3764 4.40024 14.5014 4.40002 13.6126V4.62336C4.40006 4.41863 4.4699 4.22002 4.59802 4.06033C4.72613 3.90063 4.90487 3.78939 5.10472 3.74496L12.5 2.10156ZM12.5 3.94566L6.20002 5.34516V13.6117C6.20003 14.2043 6.34634 14.7877 6.62596 15.3102C6.90558 15.8327 7.30986 16.2781 7.80292 16.6069L12.5 19.7389L17.1971 16.6069C17.6901 16.2782 18.0943 15.8329 18.3739 15.3106C18.6535 14.7883 18.7999 14.205 18.8 13.6126V5.34516L12.5 3.94656V3.94566ZM12.5 7.50156C12.8963 7.50138 13.2816 7.63199 13.5961 7.87314C13.9106 8.11428 14.1367 8.45247 14.2394 8.83525C14.3421 9.21802 14.3155 9.62398 14.1639 9.99014C14.0123 10.3563 13.7441 10.6622 13.4009 10.8604L13.4 14.7016H11.6V10.8604C11.2569 10.6622 10.9887 10.3564 10.8371 9.99035C10.6855 9.62428 10.6589 9.21841 10.7614 8.83568C10.864 8.45296 11.09 8.11476 11.4043 7.87355C11.7186 7.63233 12.1038 7.50158 12.5 7.50156Z" fill="#0A0D14" style="fill:#0A0D14;fill:color(display-p3 0.0392 0.0510 0.0784);fill-opacity:1;"/>
</svg>
