<svg width="25" height="24" viewBox="0 0 25 24" fill="none" xmlns="http://www.w3.org/2000/svg">
<path d="M12.5 2.10156L19.8953 3.74496C20.3066 3.83676 20.6 4.20126 20.6 4.62336V13.6117C20.6 15.4171 19.6973 17.1037 18.1952 18.1045L12.5 21.9016L6.80482 18.1045C5.30182 17.1028 4.40002 15.4171 4.40002 13.6126V4.62336C4.40002 4.20126 4.69342 3.83676 5.10472 3.74496L12.5 2.10156ZM12.5 3.94566L6.20002 5.34516V13.6117C6.20002 14.815 6.80122 15.9391 7.80292 16.6069L12.5 19.7389L17.1971 16.6069C18.1988 15.9391 18.8 14.8159 18.8 13.6126V5.34516L12.5 3.94656V3.94566ZM16.5068 8.60136L17.7803 9.87396L12.0527 15.6016L8.23402 11.7829L9.50662 10.5103L12.0518 13.0555L16.5068 8.60046V8.60136Z" fill="#0A0D14" style="fill:#0A0D14;fill:color(display-p3 0.0392 0.0510 0.0784);fill-opacity:1;"/>
</svg>
