<svg width="25" height="24" viewBox="0 0 25 24" fill="none" xmlns="http://www.w3.org/2000/svg">
<path d="M9.80001 4.79961H14.7014C14.8541 4.79961 15.0042 4.83843 15.1377 4.91243C15.2712 4.98643 15.3837 5.09317 15.4646 5.22261L18.575 10.1996H22.5422C22.6203 10.1996 22.6972 10.2198 22.7651 10.2585C22.833 10.2971 22.8897 10.3528 22.9296 10.42C22.9694 10.4872 22.9911 10.5637 22.9925 10.6418C22.9938 10.7199 22.9748 10.7971 22.9373 10.8656L19.394 17.3609C18.6014 17.4671 17.7949 17.3599 17.0576 17.0503C16.3204 16.7406 15.6791 16.2399 15.2 15.5996C14.7812 16.1589 14.2378 16.6128 13.6128 16.9253C12.9879 17.2378 12.2987 17.4002 11.6 17.3996C10.9013 17.4002 10.2121 17.2378 9.58716 16.9253C8.96223 16.6128 8.41878 16.1589 8.00001 15.5996C7.53101 16.2262 6.90645 16.7195 6.18819 17.0304C5.46992 17.3414 4.68288 17.4594 3.90501 17.3726L2.79261 11.2607C2.76901 11.131 2.77419 10.9977 2.8078 10.8702C2.84141 10.7427 2.90262 10.6241 2.9871 10.5229C3.07159 10.4217 3.17727 10.3403 3.2967 10.2844C3.41612 10.2285 3.54636 10.1996 3.67821 10.1996H4.40001V5.69961C4.40001 5.46091 4.49483 5.232 4.66361 5.06321C4.83239 4.89443 5.06131 4.79961 5.30001 4.79961H6.20001V2.09961H9.80001V4.79961ZM6.20001 10.1996H16.4528L14.2028 6.59961H6.20001V10.1996ZM4.40001 19.1996C5.72864 19.2014 7.01097 18.7116 8.00001 17.8244C8.98904 18.7116 10.2714 19.2014 11.6 19.1996C12.9286 19.2014 14.211 18.7116 15.2 17.8244C16.189 18.7116 17.4714 19.2014 18.8 19.1996H20.6V20.9996H18.8C17.5361 21.0017 16.2941 20.6694 15.2 20.0366C14.1059 20.6694 12.8639 21.0017 11.6 20.9996C10.3361 21.0017 9.09409 20.6694 8.00001 20.0366C6.90592 20.6694 5.66393 21.0017 4.40001 20.9996H2.60001V19.1996H4.40001Z" fill="#0A0D14" style="fill:#0A0D14;fill:color(display-p3 0.0392 0.0510 0.0784);fill-opacity:1;"/>
</svg>
