<svg width="25" height="24" viewBox="0 0 25 24" fill="none" xmlns="http://www.w3.org/2000/svg">
<path d="M5.3 10.5596V4.79961C5.3 4.56091 5.39482 4.332 5.5636 4.16321C5.73239 3.99443 5.96131 3.89961 6.2 3.89961H10.7V2.09961H14.3V3.89961H18.8C19.0387 3.89961 19.2676 3.99443 19.4364 4.16321C19.6052 4.332 19.7 4.56091 19.7 4.79961V10.5596L20.6774 10.853C20.8989 10.9197 21.0862 11.069 21.2005 11.2701C21.3148 11.4712 21.3473 11.7086 21.2912 11.933L19.9268 17.3942C19.1907 17.4319 18.4565 17.288 17.7892 16.975C17.1218 16.6621 16.5417 16.1897 16.1 15.5996C15.6812 16.1589 15.1378 16.6128 14.5128 16.9253C13.8879 17.2378 13.1987 17.4002 12.5 17.3996C11.8013 17.4002 11.1121 17.2378 10.4872 16.9253C9.86222 16.6128 9.31877 16.1589 8.9 15.5996C8.45829 16.1897 7.87818 16.6621 7.21082 16.975C6.54345 17.288 5.80934 17.4319 5.0732 17.3942L3.7088 11.933C3.65273 11.7086 3.6852 11.4712 3.79949 11.2701C3.91378 11.069 4.10111 10.9197 4.3226 10.853L5.3 10.5596ZM7.1 10.0196L12.5 8.39961L14.9786 9.14301L16.6067 9.63171L17.9 10.0196V5.69961H7.1V10.0196ZM5.3 19.1996C6.62864 19.2014 7.91097 18.7116 8.9 17.8244C9.88903 18.7116 11.1714 19.2014 12.5 19.1996C13.8286 19.2014 15.111 18.7116 16.1 17.8244C17.089 18.7116 18.3714 19.2014 19.7 19.1996H21.5V20.9996H19.7C18.4361 21.0017 17.1941 20.6694 16.1 20.0366C15.0059 20.6694 13.7639 21.0017 12.5 20.9996C11.2361 21.0017 9.99409 20.6694 8.9 20.0366C7.80591 20.6694 6.56392 21.0017 5.3 20.9996H3.5V19.1996H5.3Z" fill="#0A0D14" style="fill:#0A0D14;fill:color(display-p3 0.0392 0.0510 0.0784);fill-opacity:1;"/>
</svg>
