<svg width="25" height="24" viewBox="0 0 25 24" fill="none" xmlns="http://www.w3.org/2000/svg">
<path d="M9.80001 4.79961H14.7014C14.8541 4.79961 15.0042 4.83843 15.1377 4.91243C15.2712 4.98643 15.3837 5.09317 15.4646 5.22261L18.575 10.1996H22.5422C22.6203 10.1996 22.6972 10.2198 22.7651 10.2585C22.833 10.2971 22.8897 10.3528 22.9296 10.42C22.9694 10.4872 22.9911 10.5637 22.9925 10.6418C22.9938 10.7199 22.9748 10.7971 22.9373 10.8656L19.3733 17.3996H18.8C18.3337 17.4 17.8694 17.3401 17.4185 17.2214L20.267 11.9996H4.76001L5.70321 17.2412C5.27684 17.3467 4.83922 17.3999 4.40001 17.3996H3.90951L2.79351 11.2607C2.76993 11.1311 2.77508 10.998 2.80859 10.8706C2.84209 10.7433 2.90314 10.6248 2.98743 10.5236C3.07171 10.4224 3.17717 10.341 3.29637 10.285C3.41558 10.229 3.54561 10.1999 3.67731 10.1996H4.40001V5.69961C4.40001 5.46091 4.49483 5.232 4.66361 5.06321C4.83239 4.89443 5.06131 4.79961 5.30001 4.79961H6.20001V2.09961H9.80001V4.79961ZM6.20001 10.1996H16.4528L14.2028 6.59961H6.20001V10.1996ZM4.40001 19.1996C5.72864 19.2014 7.01097 18.7116 8.00001 17.8244C8.98904 18.7116 10.2714 19.2014 11.6 19.1996C12.9286 19.2014 14.211 18.7116 15.2 17.8244C16.189 18.7116 17.4714 19.2014 18.8 19.1996H20.6V20.9996H18.8C17.5361 21.0017 16.2941 20.6694 15.2 20.0366C14.1059 20.6694 12.8639 21.0017 11.6 20.9996C10.3361 21.0017 9.09409 20.6694 8.00001 20.0366C6.90592 20.6694 5.66393 21.0017 4.40001 20.9996H2.60001V19.1996H4.40001Z" fill="#0A0D14" style="fill:#0A0D14;fill:color(display-p3 0.0392 0.0510 0.0784);fill-opacity:1;"/>
</svg>
