<svg width="25" height="24" viewBox="0 0 25 24" fill="none" xmlns="http://www.w3.org/2000/svg">
<path d="M13.4 19.1984H18.8V15.5984H15.2V13.7984H18.8V6.59844H17V11.0984L13.4 9.65844V19.1984ZM11.6 19.1984V9.65844L7.99999 11.0984V6.59844H6.19999V19.1984H11.6ZM7.99999 4.79844V3.89844H17V4.79844H19.7C19.9387 4.79844 20.1676 4.89326 20.3364 5.06204C20.5052 5.23082 20.6 5.45974 20.6 5.69844V20.0984C20.6 20.3371 20.5052 20.5661 20.3364 20.7348C20.1676 20.9036 19.9387 20.9984 19.7 20.9984H5.29999C5.0613 20.9984 4.83238 20.9036 4.6636 20.7348C4.49482 20.5661 4.39999 20.3371 4.39999 20.0984V5.69844C4.39999 5.45974 4.49482 5.23082 4.6636 5.06204C4.83238 4.89326 5.0613 4.79844 5.29999 4.79844H7.99999ZM12.5 8.39844L15.65 5.69844H9.34999L12.5 8.39844Z" fill="#0A0D14" style="fill:#0A0D14;fill:color(display-p3 0.0392 0.0510 0.0784);fill-opacity:1;"/>
</svg>
