<svg width="25" height="24" viewBox="0 0 25 24" fill="none" xmlns="http://www.w3.org/2000/svg">
<path d="M12.5 2.09961C13.091 2.09961 13.6761 2.21601 14.2221 2.44215C14.7681 2.6683 15.2641 2.99977 15.682 3.41763C16.0999 3.83549 16.4313 4.33157 16.6575 4.87753C16.8836 5.4235 17 6.00866 17 6.59961V8.39961H19.7C19.9387 8.39961 20.1676 8.49443 20.3364 8.66321C20.5052 8.832 20.6 9.06091 20.6 9.29961V20.0996C20.6 20.3383 20.5052 20.5672 20.3364 20.736C20.1676 20.9048 19.9387 20.9996 19.7 20.9996H5.30002C5.06133 20.9996 4.83241 20.9048 4.66363 20.736C4.49485 20.5672 4.40002 20.3383 4.40002 20.0996V9.29961C4.40002 9.06091 4.49485 8.832 4.66363 8.66321C4.83241 8.49443 5.06133 8.39961 5.30002 8.39961H8.00002V6.59961C8.00002 5.40614 8.47413 4.26154 9.31804 3.41763C10.162 2.57372 11.3066 2.09961 12.5 2.09961ZM17 11.0996H15.2V11.9996C15.2003 12.229 15.2881 12.4496 15.4456 12.6164C15.6031 12.7832 15.8183 12.8836 16.0473 12.8971C16.2763 12.9105 16.5018 12.836 16.6777 12.6888C16.8536 12.5415 16.9666 12.3327 16.9937 12.1049L17 11.9996V11.0996ZM9.80002 11.0996H8.00002V11.9996C8.00028 12.229 8.08812 12.4496 8.24559 12.6164C8.40306 12.7832 8.61828 12.8836 8.84728 12.8971C9.07628 12.9105 9.30177 12.836 9.47767 12.6888C9.65358 12.5415 9.76663 12.3327 9.79372 12.1049L9.80002 11.9996V11.0996ZM12.5 3.89961C11.8113 3.89957 11.1487 4.1627 10.6476 4.63516C10.1465 5.10763 9.84493 5.75371 9.80452 6.44121L9.80002 6.59961V8.39961H15.2V6.59961C15.2001 5.91092 14.9369 5.24825 14.4645 4.74717C13.992 4.2461 13.3459 3.94451 12.6584 3.90411L12.5 3.89961Z" fill="#0A0D14" style="fill:#0A0D14;fill:color(display-p3 0.0392 0.0510 0.0784);fill-opacity:1;"/>
</svg>
