<svg width="25" height="24" viewBox="0 0 25 24" fill="none" xmlns="http://www.w3.org/2000/svg">
<path d="M15.5294 4.29492L18.4193 9.30072H21.5V11.1007H20.4497L19.7684 19.2754C19.7497 19.5003 19.6471 19.71 19.4811 19.8628C19.3151 20.0157 19.0977 20.1006 18.872 20.1007H6.128C5.90232 20.1006 5.68493 20.0157 5.5189 19.8628C5.35287 19.71 5.25033 19.5003 5.2316 19.2754L4.5494 11.1007H3.5V9.30072H6.5798L9.4706 4.29492L11.0294 5.19492L8.6588 9.30072H16.3403L13.9706 5.19492L15.5294 4.29492ZM13.4 12.9007H11.6V16.5007H13.4V12.9007ZM9.8 12.9007H8V16.5007H9.8V12.9007ZM17 12.9007H15.2V16.5007H17V12.9007Z" fill="#0A0D14" style="fill:#0A0D14;fill:color(display-p3 0.0392 0.0510 0.0784);fill-opacity:1;"/>
</svg>
