<svg width="25" height="24" viewBox="0 0 25 24" fill="none" xmlns="http://www.w3.org/2000/svg">
<path d="M7.1 9.3H19.6442L20.0942 7.5H8.9V5.7H21.248C21.3848 5.7 21.5198 5.73119 21.6428 5.7912C21.7657 5.85121 21.8733 5.93846 21.9575 6.04631C22.0417 6.15416 22.1001 6.27978 22.1285 6.41362C22.1568 6.54746 22.1542 6.686 22.121 6.8187L19.871 15.8187C19.8222 16.0133 19.7099 16.1861 19.5517 16.3095C19.3935 16.4329 19.1986 16.5 18.998 16.5H6.2C5.96131 16.5 5.73239 16.4052 5.5636 16.2364C5.39482 16.0676 5.3 15.8387 5.3 15.6V4.8H3.5V3H6.2C6.43869 3 6.66761 3.09482 6.8364 3.2636C7.00518 3.43239 7.1 3.66131 7.1 3.9V9.3ZM7.1 21.9C6.62261 21.9 6.16477 21.7104 5.82721 21.3728C5.48964 21.0352 5.3 20.5774 5.3 20.1C5.3 19.6226 5.48964 19.1648 5.82721 18.8272C6.16477 18.4896 6.62261 18.3 7.1 18.3C7.57739 18.3 8.03523 18.4896 8.37279 18.8272C8.71036 19.1648 8.9 19.6226 8.9 20.1C8.9 20.5774 8.71036 21.0352 8.37279 21.3728C8.03523 21.7104 7.57739 21.9 7.1 21.9ZM17.9 21.9C17.4226 21.9 16.9648 21.7104 16.6272 21.3728C16.2896 21.0352 16.1 20.5774 16.1 20.1C16.1 19.6226 16.2896 19.1648 16.6272 18.8272C16.9648 18.4896 17.4226 18.3 17.9 18.3C18.3774 18.3 18.8352 18.4896 19.1728 18.8272C19.5104 19.1648 19.7 19.6226 19.7 20.1C19.7 20.5774 19.5104 21.0352 19.1728 21.3728C18.8352 21.7104 18.3774 21.9 17.9 21.9Z" fill="#0A0D14" style="fill:#0A0D14;fill:color(display-p3 0.0392 0.0510 0.0784);fill-opacity:1;"/>
</svg>
