<svg width="25" height="24" viewBox="0 0 25 24" fill="none" xmlns="http://www.w3.org/2000/svg">
<path d="M7.55002 3H17.45C17.5897 3 17.7275 3.03253 17.8525 3.09502C17.9775 3.1575 18.0862 3.24822 18.17 3.36L20.6 6.6V20.1C20.6 20.3387 20.5052 20.5676 20.3364 20.7364C20.1676 20.9052 19.9387 21 19.7 21H5.30002C5.06133 21 4.83241 20.9052 4.66363 20.7364C4.49485 20.5676 4.40002 20.3387 4.40002 20.1V6.6L6.83002 3.36C6.91386 3.24822 7.02256 3.1575 7.14753 3.09502C7.2725 3.03253 7.4103 3 7.55002 3ZM18.35 6.6L17 4.8H8.00002L6.65002 6.6H18.35ZM9.80002 10.2H8.00002V12C8.00002 13.1935 8.47413 14.3381 9.31804 15.182C10.162 16.0259 11.3066 16.5 12.5 16.5C13.6935 16.5 14.8381 16.0259 15.682 15.182C16.5259 14.3381 17 13.1935 17 12V10.2H15.2V12C15.2 12.7161 14.9156 13.4028 14.4092 13.9092C13.9029 14.4155 13.2161 14.7 12.5 14.7C11.7839 14.7 11.0972 14.4155 10.5908 13.9092C10.0845 13.4028 9.80002 12.7161 9.80002 12V10.2Z" fill="#0A0D14" style="fill:#0A0D14;fill:color(display-p3 0.0392 0.0510 0.0784);fill-opacity:1;"/>
</svg>
