<svg width="25" height="24" viewBox="0 0 25 24" fill="none" xmlns="http://www.w3.org/2000/svg">
<path d="M19.7 21H5.30002C5.06133 21 4.83241 20.9052 4.66363 20.7364C4.49485 20.5676 4.40002 20.3387 4.40002 20.1V3.9C4.40002 3.66131 4.49485 3.43239 4.66363 3.2636C4.83241 3.09482 5.06133 3 5.30002 3H19.7C19.9387 3 20.1676 3.09482 20.3364 3.2636C20.5052 3.43239 20.6 3.66131 20.6 3.9V20.1C20.6 20.3387 20.5052 20.5676 20.3364 20.7364C20.1676 20.9052 19.9387 21 19.7 21ZM9.80002 6.6H8.00002V8.4C8.00002 9.59347 8.47413 10.7381 9.31804 11.582C10.162 12.4259 11.3066 12.9 12.5 12.9C13.6935 12.9 14.8381 12.4259 15.682 11.582C16.5259 10.7381 17 9.59347 17 8.4V6.6H15.2V8.4C15.2 9.11608 14.9156 9.80284 14.4092 10.3092C13.9029 10.8155 13.2161 11.1 12.5 11.1C11.7839 11.1 11.0972 10.8155 10.5908 10.3092C10.0845 9.80284 9.80002 9.11608 9.80002 8.4V6.6Z" fill="#0A0D14" style="fill:#0A0D14;fill:color(display-p3 0.0392 0.0510 0.0784);fill-opacity:1;"/>
</svg>
