<svg width="25" height="24" viewBox="0 0 25 24" fill="none" xmlns="http://www.w3.org/2000/svg">
<path d="M12.5 3C13.9322 3 15.3057 3.56893 16.3184 4.58162C17.3311 5.59432 17.9 6.96783 17.9 8.4V9.3H21.5V11.1H20.4497L19.7684 19.2747C19.7497 19.4996 19.6471 19.7093 19.4811 19.8621C19.3151 20.015 19.0977 20.0999 18.872 20.1H6.128C5.90232 20.0999 5.68493 20.015 5.5189 19.8621C5.35287 19.7093 5.25033 19.4996 5.2316 19.2747L4.5494 11.1H3.5V9.3H7.1V8.4C7.1 6.96783 7.66893 5.59432 8.68162 4.58162C9.69432 3.56893 11.0678 3 12.5 3ZM13.4 12.9H11.6V16.5H13.4V12.9ZM9.8 12.9H8V16.5H9.8V12.9ZM17 12.9H15.2V16.5H17V12.9ZM12.5 4.8C11.5764 4.8 10.6881 5.15499 10.0189 5.79155C9.34964 6.42811 8.95068 7.29754 8.9045 8.22L8.9 8.4V9.3H16.1V8.4C16.1 7.47638 15.745 6.58809 15.1084 5.91887C14.4719 5.24964 13.6025 4.85068 12.68 4.8045L12.5 4.8Z" fill="#0A0D14" style="fill:#0A0D14;fill:color(display-p3 0.0392 0.0510 0.0784);fill-opacity:1;"/>
</svg>
