<svg width="25" height="24" viewBox="0 0 25 24" fill="none" xmlns="http://www.w3.org/2000/svg">
<path d="M8.00002 8.39961V6.59961C8.00002 5.40614 8.47413 4.26154 9.31804 3.41763C10.162 2.57372 11.3066 2.09961 12.5 2.09961C13.6935 2.09961 14.8381 2.57372 15.682 3.41763C16.5259 4.26154 17 5.40614 17 6.59961V8.39961H19.7C19.9387 8.39961 20.1676 8.49443 20.3364 8.66321C20.5052 8.832 20.6 9.06091 20.6 9.29961V20.0996C20.6 20.3383 20.5052 20.5672 20.3364 20.736C20.1676 20.9048 19.9387 20.9996 19.7 20.9996H5.30002C5.06133 20.9996 4.83241 20.9048 4.66363 20.736C4.49485 20.5672 4.40002 20.3383 4.40002 20.0996V9.29961C4.40002 9.06091 4.49485 8.832 4.66363 8.66321C4.83241 8.49443 5.06133 8.39961 5.30002 8.39961H8.00002ZM8.00002 10.1996H6.20002V19.1996H18.8V10.1996H17V11.9996H15.2V10.1996H9.80002V11.9996H8.00002V10.1996ZM9.80002 8.39961H15.2V6.59961C15.2 5.88352 14.9156 5.19677 14.4092 4.69042C13.9029 4.18407 13.2161 3.89961 12.5 3.89961C11.7839 3.89961 11.0972 4.18407 10.5908 4.69042C10.0845 5.19677 9.80002 5.88352 9.80002 6.59961V8.39961Z" fill="#0A0D14" style="fill:#0A0D14;fill:color(display-p3 0.0392 0.0510 0.0784);fill-opacity:1;"/>
</svg>
