<svg width="25" height="24" viewBox="0 0 25 24" fill="none" xmlns="http://www.w3.org/2000/svg">
<path d="M19.7 21H5.30002C5.06133 21 4.83241 20.9052 4.66363 20.7364C4.49485 20.5676 4.40002 20.3387 4.40002 20.1V3.9C4.40002 3.66131 4.49485 3.43239 4.66363 3.2636C4.83241 3.09482 5.06133 3 5.30002 3H19.7C19.9387 3 20.1676 3.09482 20.3364 3.2636C20.5052 3.43239 20.6 3.66131 20.6 3.9V20.1C20.6 20.3387 20.5052 20.5676 20.3364 20.7364C20.1676 20.9052 19.9387 21 19.7 21ZM18.8 19.2V4.8H6.20002V19.2H18.8ZM9.80002 6.6V8.4C9.80002 9.11608 10.0845 9.80284 10.5908 10.3092C11.0972 10.8155 11.7839 11.1 12.5 11.1C13.2161 11.1 13.9029 10.8155 14.4092 10.3092C14.9156 9.80284 15.2 9.11608 15.2 8.4V6.6H17V8.4C17 9.59347 16.5259 10.7381 15.682 11.582C14.8381 12.4259 13.6935 12.9 12.5 12.9C11.3066 12.9 10.162 12.4259 9.31804 11.582C8.47413 10.7381 8.00002 9.59347 8.00002 8.4V6.6H9.80002Z" fill="#0A0D14" style="fill:#0A0D14;fill:color(display-p3 0.0392 0.0510 0.0784);fill-opacity:1;"/>
</svg>
