<svg width="25" height="24" viewBox="0 0 25 24" fill="none" xmlns="http://www.w3.org/2000/svg">
<path d="M6.20002 16.4371C5.20407 15.8613 4.3606 15.0552 3.74025 14.0864C3.1199 13.1176 2.74074 12.0142 2.63452 10.8687C2.5283 9.72317 2.69812 8.56889 3.12975 7.50251C3.56138 6.43613 4.24226 5.4887 5.11535 4.73958C5.98845 3.99046 7.02834 3.46147 8.14793 3.19689C9.26752 2.93232 10.4342 2.93988 11.5503 3.21894C12.6663 3.498 13.6993 4.04043 14.5626 4.8008C15.4259 5.56117 16.0944 6.51734 16.5122 7.58923C17.768 7.34099 19.0711 7.58889 20.148 8.28088C21.225 8.97287 21.9919 10.0551 22.288 11.3005C22.584 12.5459 22.3861 13.8575 21.7357 14.9601C21.0854 16.0627 20.0332 16.8704 18.8 17.2138V15.2968C19.216 15.0995 19.5836 14.8133 19.8771 14.4585C20.1705 14.1037 20.3826 13.6889 20.4984 13.2433C20.6142 12.7977 20.6309 12.3321 20.5473 11.8793C20.4638 11.4265 20.282 10.9976 20.0148 10.6227C19.7475 10.2477 19.4014 9.93594 19.0006 9.70925C18.5999 9.48255 18.1543 9.34646 17.6953 9.31055C17.2363 9.27465 16.775 9.3398 16.3439 9.50143C15.9127 9.66305 15.5223 9.91722 15.2 10.246V10.2001C15.2 9.29937 14.9747 8.41291 14.5446 7.62148C14.1145 6.83005 13.4932 6.15878 12.7374 5.6688C11.9816 5.17883 11.1152 4.88571 10.2171 4.81614C9.31903 4.74657 8.41782 4.90276 7.59554 5.27048C6.77326 5.6382 6.05602 6.20578 5.50915 6.92153C4.96228 7.63728 4.60314 8.47846 4.46443 9.36848C4.32572 10.2585 4.41186 11.1691 4.715 12.0173C5.01813 12.8655 5.52864 13.6244 6.20002 14.2249V16.4371ZM8.00002 15.6001H9.80002V19.2001H8.00002V15.6001ZM15.2 15.6001H17V19.2001H15.2V15.6001ZM11.6 18.3001H13.4V21.9001H11.6V18.3001Z" fill="#0A0D14" style="fill:#0A0D14;fill:color(display-p3 0.0392 0.0510 0.0784);fill-opacity:1;"/>
</svg>
