<svg width="25" height="24" viewBox="0 0 25 24" fill="none" xmlns="http://www.w3.org/2000/svg">
<path d="M15.2 17.4011H9.8V20.1011H8V17.1743C6.80634 16.8654 5.71199 16.2552 4.82183 15.4021C3.93166 14.5489 3.27549 13.4815 2.91619 12.302C2.55689 11.1226 2.5065 9.87061 2.76984 8.66609C3.03319 7.46156 3.60145 6.34485 4.42018 5.42294C5.2389 4.50103 6.28066 3.80481 7.44564 3.401C8.61061 2.99719 9.85977 2.89931 11.0734 3.11675C12.2871 3.33419 13.4246 3.85965 14.3769 4.64279C15.3292 5.42593 16.0645 6.44051 16.5122 7.58932C17.189 7.45982 17.8855 7.47306 18.5569 7.62821C19.2283 7.78336 19.8599 8.07699 20.4114 8.49031C20.9628 8.90364 21.4218 9.42754 21.7591 10.0285C22.0963 10.6294 22.3044 11.2942 22.37 11.9802C22.4355 12.6661 22.3572 13.3583 22.1398 14.0122C21.9225 14.6662 21.571 15.2675 21.1079 15.7778C20.6448 16.2881 20.0802 16.6961 19.4503 16.9756C18.8204 17.2551 18.1391 17.4001 17.45 17.4011L17 17.402V20.102H15.2V17.402V17.4011ZM11.6 19.2011H13.4V21.9011H11.6V19.2011Z" fill="#0A0D14" style="fill:#0A0D14;fill:color(display-p3 0.0392 0.0510 0.0784);fill-opacity:1;"/>
</svg>
