<svg width="25" height="24" viewBox="0 0 25 24" fill="none" xmlns="http://www.w3.org/2000/svg">
<path d="M17.9 17.2947V15.6L22.4 18.3L17.9 21V19.119C16.5243 18.922 15.2224 18.3744 14.1196 17.5287C13.0167 16.6831 12.15 15.5679 11.6027 14.2905L11.6 14.286L11.5973 14.2914C10.9728 15.7483 9.93452 16.9899 8.61118 17.8624C7.28785 18.7349 5.73759 19.2 4.1525 19.2H3.5V17.4H4.1525C5.38548 17.4 6.59135 17.0381 7.62067 16.3593C8.64998 15.6805 9.45748 14.7146 9.9431 13.5813L10.6208 12L9.9431 10.4187C9.45748 9.28538 8.64998 8.31946 7.62067 7.64067C6.59135 6.96187 5.38548 6.60004 4.1525 6.6H3.5V4.8H4.1525C5.73769 4.80007 7.28802 5.26528 8.61137 6.13797C9.93471 7.01065 10.9729 8.25246 11.5973 9.7095L11.6 9.714L11.6027 9.7086C12.1501 8.43132 13.0169 7.31635 14.1197 6.47089C15.2226 5.62543 16.5244 5.07792 17.9 4.881V3L22.4 5.7L17.9 8.4V6.7053C16.8802 6.89425 15.9228 7.33205 15.1129 7.97984C14.3029 8.62763 13.6654 9.46537 13.2569 10.4187L12.5792 12L13.2569 13.5813C13.6654 14.5346 14.3029 15.3724 15.1129 16.0202C15.9228 16.668 16.8802 17.1058 17.9 17.2947Z" fill="#0A0D14" style="fill:#0A0D14;fill:color(display-p3 0.0392 0.0510 0.0784);fill-opacity:1;"/>
</svg>
