<svg width="25" height="24" viewBox="0 0 25 24" fill="none" xmlns="http://www.w3.org/2000/svg">
<path d="M7.3385 4.6263L8.3708 6.1014C7.11637 6.97959 6.17458 8.23485 5.68227 9.68484C5.18995 11.1348 5.17274 12.704 5.63314 14.1644C6.09354 15.6249 7.00756 16.9005 8.24244 17.806C9.47731 18.7115 10.9687 19.1997 12.5 19.1997C14.0313 19.1997 15.5227 18.7115 16.7576 17.806C17.9924 16.9005 18.9065 15.6249 19.3669 14.1644C19.8273 12.704 19.8101 11.1348 19.3177 9.68484C18.8254 8.23485 17.8836 6.97959 16.6292 6.1014L17.6615 4.6263C18.8477 5.45558 19.816 6.55901 20.4843 7.84278C21.1526 9.12655 21.501 10.5527 21.5 12C21.5 16.9707 17.4707 21 12.5 21C7.5293 21 3.5 16.9707 3.5 12C3.49896 10.5527 3.84739 9.12655 4.51568 7.84278C5.18397 6.55901 6.15235 5.45558 7.3385 4.6263ZM11.6 12V3H13.4V12H11.6Z" fill="#0A0D14" style="fill:#0A0D14;fill:color(display-p3 0.0392 0.0510 0.0784);fill-opacity:1;"/>
</svg>
