<svg width="25" height="24" viewBox="0 0 25 24" fill="none" xmlns="http://www.w3.org/2000/svg">
<path d="M7.2044 19.2783C6.05603 18.4439 5.12164 17.3493 4.47775 16.0842C3.83387 14.8191 3.49881 13.4195 3.5 12C3.5 7.0293 7.5293 3 12.5 3C17.4707 3 21.5 7.0293 21.5 12C21.5012 13.4195 21.1661 14.8191 20.5223 16.0842C19.8784 17.3493 18.944 18.4439 17.7956 19.2783L16.8821 17.7132C18.0759 16.7975 18.9528 15.5309 19.3897 14.0912C19.8266 12.6516 19.8016 11.1112 19.3181 9.68652C18.8346 8.26183 17.917 7.02438 16.6941 6.14799C15.4712 5.2716 14.0045 4.8003 12.5 4.8003C10.9955 4.8003 9.5288 5.2716 8.30591 6.14799C7.08302 7.02438 6.16539 8.26183 5.68191 9.68652C5.19842 11.1112 5.17338 12.6516 5.6103 14.0912C6.04722 15.5309 6.92415 16.7975 8.1179 17.7132L7.2044 19.2783ZM9.035 16.1418C8.18453 15.4303 7.57371 14.4742 7.28554 13.4034C6.99737 12.3327 7.04582 11.1992 7.42431 10.1569C7.8028 9.11463 8.49298 8.21415 9.40107 7.5778C10.3092 6.94145 11.3911 6.60009 12.5 6.60009C13.6089 6.60009 14.6908 6.94145 15.5989 7.5778C16.507 8.21415 17.1972 9.11463 17.5757 10.1569C17.9542 11.1992 18.0026 12.3327 17.7145 13.4034C17.4263 14.4742 16.8155 15.4303 15.965 16.1418L15.038 14.5524C15.5436 14.0498 15.8886 13.4084 16.0293 12.7095C16.1699 12.0105 16.0999 11.2856 15.828 10.6265C15.5562 9.96748 15.0948 9.40397 14.5023 9.00745C13.9098 8.61093 13.2129 8.39925 12.5 8.39925C11.7871 8.39925 11.0902 8.61093 10.4977 9.00745C9.90524 9.40397 9.44384 9.96748 9.17199 10.6265C8.90015 11.2856 8.83011 12.0105 8.97075 12.7095C9.1114 13.4084 9.45639 14.0498 9.962 14.5524L9.035 16.1418ZM11.6 12.9H13.4V21H11.6V12.9Z" fill="#0A0D14" style="fill:#0A0D14;fill:color(display-p3 0.0392 0.0510 0.0784);fill-opacity:1;"/>
</svg>
