<svg width="25" height="24" viewBox="0 0 25 24" fill="none" xmlns="http://www.w3.org/2000/svg">
<path d="M12.5 3.90039C16.3556 3.90039 19.898 5.24769 22.679 7.49679L12.5 20.1004L2.32101 7.49769C5.10201 5.24769 8.64262 3.90039 12.5 3.90039ZM12.5 14.7004C11.8763 14.7004 11.2697 14.8057 10.7 15.0064L12.5 17.2357L14.3 15.0064C13.733 14.8084 13.1237 14.7004 12.5 14.7004ZM12.5 5.70039C9.77482 5.70039 7.16931 6.45819 4.92201 7.85319L9.51921 13.5448C10.4282 13.1308 11.4362 12.9004 12.5 12.9004C13.5629 12.9004 14.5727 13.1308 15.4808 13.5448L20.078 7.85139C17.8298 6.45729 15.2243 5.70039 12.5 5.70039Z" fill="#0A0D14" style="fill:#0A0D14;fill:color(display-p3 0.0392 0.0510 0.0784);fill-opacity:1;"/>
</svg>
