<svg width="25" height="24" viewBox="0 0 25 24" fill="none" xmlns="http://www.w3.org/2000/svg">
<path d="M4.22724 2.4541L20.1365 18.3643L18.8639 19.6369L15.5492 16.3231L12.5 20.1004L2.32104 7.4977C3.14364 6.8317 4.03285 6.2458 4.97605 5.7499L2.95464 3.7276L4.22815 2.4541H4.22724ZM4.92114 7.8532L12.5 17.2357L14.2703 15.0424L6.31885 7.09C5.84004 7.3186 5.37384 7.5724 4.92204 7.8532H4.92114ZM12.5 3.9004C16.3556 3.9004 19.898 5.2477 22.679 7.4968L17.8127 13.5205L16.5329 12.2407L20.078 7.8523C17.8298 6.4573 15.2243 5.7004 12.5 5.7004C11.7143 5.7004 10.9385 5.7634 10.178 5.8867L8.65254 4.3594C9.88464 4.0597 11.1743 3.9004 12.5 3.9004Z" fill="#0A0D14" style="fill:#0A0D14;fill:color(display-p3 0.0392 0.0510 0.0784);fill-opacity:1;"/>
</svg>
