<svg width="25" height="24" viewBox="0 0 25 24" fill="none" xmlns="http://www.w3.org/2000/svg">
<path d="M7.1 4.8V19.2H17.9V8.2452L14.4548 4.8H7.1ZM6.2 3H15.2L19.4363 7.2363C19.6051 7.40504 19.7 7.63392 19.7 7.8726V20.1C19.7 20.3387 19.6052 20.5676 19.4364 20.7364C19.2676 20.9052 19.0387 21 18.8 21H6.2C5.96131 21 5.73239 20.9052 5.56361 20.7364C5.39482 20.5676 5.3 20.3387 5.3 20.1V3.9C5.3 3.66131 5.39482 3.43239 5.56361 3.2636C5.73239 3.09482 5.96131 3 6.2 3ZM8.9 12H16.1V17.4H8.9V12Z" fill="#0A0D14" style="fill:#0A0D14;fill:color(display-p3 0.0392 0.0510 0.0784);fill-opacity:1;"/>
</svg>
