<svg width="25" height="24" viewBox="0 0 25 24" fill="none" xmlns="http://www.w3.org/2000/svg">
<path d="M12.5 21C7.5293 21 3.5 16.9707 3.5 12C3.5 7.0293 7.5293 3 12.5 3C17.4707 3 21.5 7.0293 21.5 12C21.5 16.9707 17.4707 21 12.5 21ZM12.5 15.6C13.4548 15.6 14.3705 15.2207 15.0456 14.5456C15.7207 13.8705 16.1 12.9548 16.1 12C16.1 11.0452 15.7207 10.1295 15.0456 9.45442C14.3705 8.77928 13.4548 8.4 12.5 8.4C11.5452 8.4 10.6295 8.77928 9.95442 9.45442C9.27928 10.1295 8.9 11.0452 8.9 12C8.9 12.9548 9.27928 13.8705 9.95442 14.5456C10.6295 15.2207 11.5452 15.6 12.5 15.6Z" fill="#0A0D14" style="fill:#0A0D14;fill:color(display-p3 0.0392 0.0510 0.0784);fill-opacity:1;"/>
</svg>
