<svg width="25" height="24" viewBox="0 0 25 24" fill="none" xmlns="http://www.w3.org/2000/svg">
<path d="M7.51132 18.2615L15.2189 10.5539L13.9463 9.28132L6.23872 16.9889L7.51132 18.2615ZM12.6728 8.00872L11.4002 6.73612L12.6728 5.46352L14.264 7.05383L16.8101 4.50863C16.9789 4.3399 17.2078 4.24512 17.4464 4.24512C17.6851 4.24512 17.9139 4.3399 18.0827 4.50863L19.9916 6.41752C20.1603 6.5863 20.2551 6.81518 20.2551 7.05383C20.2551 7.29247 20.1603 7.52135 19.9916 7.69012L17.4464 10.2362L19.0367 11.8274L17.7641 13.1L16.4915 11.8274L8.21872 20.1002H4.40002V16.2815L12.6728 8.00872Z" fill="#0A0D14" style="fill:#0A0D14;fill:color(display-p3 0.0392 0.0510 0.0784);fill-opacity:1;"/>
</svg>
