<svg width="25" height="24" viewBox="0 0 25 24" fill="none" xmlns="http://www.w3.org/2000/svg">
<path d="M11.0268 8.77351C9.78869 10.1695 8.38505 12.1831 7.17099 14.6113C6.98575 14.9818 6.53524 15.1319 6.16476 14.9467C5.79427 14.7614 5.6441 14.3109 5.82934 13.9405C7.09804 11.4031 8.57371 9.27878 9.90457 7.77821C10.5688 7.02926 11.2098 6.42121 11.7837 5.99348C12.0704 5.77972 12.3537 5.60104 12.6258 5.47317C12.8895 5.34925 13.1908 5.25 13.5002 5.25C13.6622 5.25 13.8404 5.29013 14.0053 5.39607C14.1675 5.50028 14.2722 5.63944 14.3371 5.76812C14.455 6.00161 14.468 6.25105 14.4651 6.41954C14.4589 6.77738 14.3635 7.2246 14.2412 7.67981C13.9906 8.61239 13.5496 9.84828 13.1112 11.0683L13.0497 11.2393C12.6253 12.4198 12.2076 13.582 11.936 14.5099C11.8629 14.76 11.803 14.9844 11.7571 15.181C12.2776 14.7626 12.9186 14.134 13.5995 13.465L13.6217 13.4432C14.2829 12.7936 14.9824 12.1063 15.5725 11.6345C15.8654 11.4005 16.1812 11.178 16.4854 11.0491C16.7408 10.9408 17.3257 10.7649 17.7805 11.2197C18.0688 11.508 18.1489 11.8829 18.1696 12.1623C18.1912 12.4548 18.1572 12.77 18.1044 13.0696C17.9986 13.6693 17.7862 14.3693 17.5921 15.0007L17.5609 15.102C17.3874 15.6656 17.2327 16.1683 17.1445 16.5724C17.3397 16.3764 17.5801 16.0662 17.8606 15.6083C18.077 15.255 18.5388 15.1441 18.892 15.3605C19.2451 15.5768 19.3561 16.0386 19.1397 16.3918C18.7324 17.0566 18.311 17.5967 17.8639 17.9319C17.3962 18.2828 16.7841 18.4805 16.1647 18.1709C15.7084 17.9426 15.6049 17.488 15.5818 17.2364C15.5569 16.9644 15.5963 16.6675 15.6484 16.4C15.7466 15.8958 15.9372 15.2774 16.1173 14.693L16.1583 14.5597C16.3585 13.9088 16.5405 13.3005 16.6271 12.8092C16.6338 12.7713 16.6397 12.7352 16.645 12.7006C16.6023 12.7327 16.5571 12.7679 16.5091 12.8062C15.9858 13.2246 15.3388 13.8591 14.6508 14.535L14.6286 14.5568C13.9675 15.2064 13.268 15.8936 12.6778 16.3654C12.385 16.5996 12.0691 16.822 11.765 16.9509C11.5096 17.0591 10.9246 17.2351 10.4698 16.7803C10.2382 16.5487 10.1789 16.2565 10.1598 16.0786C10.1386 15.8816 10.1518 15.6728 10.177 15.4763C10.228 15.0802 10.347 14.5992 10.4964 14.0887C10.7812 13.1154 11.2132 11.9139 11.6308 10.7521L11.6995 10.561C12.1447 9.32198 12.5615 8.15055 12.7926 7.29056C12.8129 7.21476 12.8314 7.14326 12.8479 7.07601C12.7943 7.11271 12.7384 7.15271 12.6801 7.19617C12.213 7.5443 11.647 8.07419 11.0268 8.77351Z" fill="#0A0D14" style="fill:#0A0D14;fill:color(display-p3 0.0392 0.0510 0.0784);fill-opacity:1;"/>
</svg>
