<svg width="25" height="24" viewBox="0 0 25 24" fill="none" xmlns="http://www.w3.org/2000/svg">
<path d="M8.89998 11.4005L18.1007 5.26698C18.1684 5.22189 18.2472 5.19602 18.3285 5.19213C18.4098 5.18824 18.4906 5.20647 18.5624 5.24489C18.6341 5.28331 18.6941 5.34048 18.736 5.4103C18.7778 5.48012 18.7999 5.55998 18.8 5.64138V18.3602C18.7999 18.4416 18.7778 18.5214 18.736 18.5913C18.6941 18.6611 18.6341 18.7182 18.5624 18.7567C18.4906 18.7951 18.4098 18.8133 18.3285 18.8094C18.2472 18.8055 18.1684 18.7797 18.1007 18.7346L8.89998 12.6011V18.3008C8.89998 18.5395 8.80515 18.7684 8.63637 18.9372C8.46759 19.106 8.23867 19.2008 7.99998 19.2008C7.76128 19.2008 7.53236 19.106 7.36358 18.9372C7.1948 18.7684 7.09998 18.5395 7.09998 18.3008V5.70078C7.09998 5.46209 7.1948 5.23317 7.36358 5.06439C7.53236 4.8956 7.76128 4.80078 7.99998 4.80078C8.23867 4.80078 8.46759 4.8956 8.63637 5.06439C8.80515 5.23317 8.89998 5.46209 8.89998 5.70078V11.4005Z" fill="#0A0D14" style="fill:#0A0D14;fill:color(display-p3 0.0392 0.0510 0.0784);fill-opacity:1;"/>
</svg>
