<svg width="25" height="24" viewBox="0 0 25 24" fill="none" xmlns="http://www.w3.org/2000/svg">
<path d="M16.1 12.6011L6.89925 18.7346C6.83149 18.7797 6.75276 18.8055 6.67145 18.8094C6.59015 18.8133 6.50931 18.7951 6.43755 18.7567C6.36579 18.7182 6.30579 18.6611 6.26395 18.5913C6.22211 18.5214 6.19999 18.4416 6.19995 18.3602V5.64138C6.19999 5.55998 6.22211 5.48012 6.26395 5.4103C6.30579 5.34048 6.36579 5.28331 6.43755 5.24489C6.50931 5.20647 6.59015 5.18824 6.67145 5.19213C6.75276 5.19602 6.83149 5.22189 6.89925 5.26698L16.1 11.4005V5.70078C16.1 5.46209 16.1948 5.23317 16.3636 5.06439C16.5323 4.8956 16.7613 4.80078 17 4.80078C17.2386 4.80078 17.4676 4.8956 17.6363 5.06439C17.8051 5.23317 17.9 5.46209 17.9 5.70078V18.3008C17.9 18.5395 17.8051 18.7684 17.6363 18.9372C17.4676 19.106 17.2386 19.2008 17 19.2008C16.7613 19.2008 16.5323 19.106 16.3636 18.9372C16.1948 18.7684 16.1 18.5395 16.1 18.3008V12.6011Z" fill="#0A0D14" style="fill:#0A0D14;fill:color(display-p3 0.0392 0.0510 0.0784);fill-opacity:1;"/>
</svg>
