<svg width="25" height="24" viewBox="0 0 25 24" fill="none" xmlns="http://www.w3.org/2000/svg">
<path d="M8.7092 16.9012C8.6418 16.9487 8.56264 16.9767 8.48037 16.9823C8.3981 16.9878 8.31588 16.9707 8.24269 16.9327C8.16951 16.8947 8.10817 16.8374 8.06537 16.7669C8.02257 16.6964 7.99995 16.6155 8 16.5331V7.47006C7.99995 7.38761 8.02257 7.30672 8.06537 7.23624C8.10817 7.16576 8.16951 7.1084 8.24269 7.07041C8.31588 7.03242 8.3981 7.01528 8.48037 7.02084C8.56264 7.02641 8.6418 7.05447 8.7092 7.10196L15.1289 11.6344C15.1876 11.6759 15.2355 11.731 15.2685 11.7949C15.3015 11.8588 15.3188 11.9296 15.3188 12.0016C15.3188 12.0735 15.3015 12.1444 15.2685 12.2083C15.2355 12.2721 15.1876 12.3272 15.1289 12.3688L8.7092 16.9012ZM16.1 7.50156C16.1 7.26287 16.1948 7.03395 16.3636 6.86517C16.5324 6.69638 16.7613 6.60156 17 6.60156C17.2387 6.60156 17.4676 6.69638 17.6364 6.86517C17.8052 7.03395 17.9 7.26287 17.9 7.50156V16.5016C17.9 16.7403 17.8052 16.9692 17.6364 17.138C17.4676 17.3067 17.2387 17.4016 17 17.4016C16.7613 17.4016 16.5324 17.3067 16.3636 17.138C16.1948 16.9692 16.1 16.7403 16.1 16.5016V7.50156Z" fill="#0A0D14" style="fill:#0A0D14;fill:color(display-p3 0.0392 0.0510 0.0784);fill-opacity:1;"/>
</svg>
