<svg width="25" height="24" viewBox="0 0 25 24" fill="none" xmlns="http://www.w3.org/2000/svg">
<path d="M7.99998 6.60156C8.23867 6.60156 8.46759 6.69638 8.63637 6.86517C8.80515 7.03395 8.89998 7.26287 8.89998 7.50156V16.5016C8.89998 16.7403 8.80515 16.9692 8.63637 17.138C8.46759 17.3067 8.23867 17.4016 7.99998 17.4016C7.76128 17.4016 7.53236 17.3067 7.36358 17.138C7.1948 16.9692 7.09998 16.7403 7.09998 16.5016V7.50156C7.09998 7.26287 7.1948 7.03395 7.36358 6.86517C7.53236 6.69638 7.76128 6.60156 7.99998 6.60156ZM9.87108 12.3688C9.81238 12.3272 9.76451 12.2721 9.73148 12.2083C9.69844 12.1444 9.6812 12.0735 9.6812 12.0016C9.6812 11.9296 9.69844 11.8588 9.73148 11.7949C9.76451 11.731 9.81238 11.6759 9.87108 11.6344L16.2908 7.10196C16.3582 7.05447 16.4373 7.02641 16.5196 7.02084C16.6019 7.01528 16.6841 7.03242 16.7573 7.07041C16.8305 7.1084 16.8918 7.16576 16.9346 7.23624C16.9774 7.30672 17 7.38761 17 7.47006V16.5331C17 16.6155 16.9774 16.6964 16.9346 16.7669C16.8918 16.8374 16.8305 16.8947 16.7573 16.9327C16.6841 16.9707 16.6019 16.9878 16.5196 16.9823C16.4373 16.9767 16.3582 16.9487 16.2908 16.9012L9.87108 12.3688Z" fill="#0A0D14" style="fill:#0A0D14;fill:color(display-p3 0.0392 0.0510 0.0784);fill-opacity:1;"/>
</svg>
