<svg width="25" height="24" viewBox="0 0 25 24" fill="none" xmlns="http://www.w3.org/2000/svg">
<path d="M12.5 3C17.4707 3 21.5 7.0293 21.5 12V15.3876C21.5 15.7219 21.4069 16.0497 21.231 16.3341C21.0552 16.6184 20.8037 16.8482 20.5046 16.9977L17.9 18.3V19.2C17.9 19.8887 17.6369 20.5514 17.1644 21.0524C16.692 21.5535 16.0459 21.8551 15.3584 21.8955L15.155 21.9C15.1748 21.802 15.188 21.7028 15.1946 21.603L15.2 21.45V21C15.2001 20.5459 15.0286 20.1085 14.7199 19.7755C14.4111 19.4425 13.9878 19.2386 13.535 19.2045L13.4 19.2H11.6C11.1459 19.1999 10.7085 19.3714 10.3755 19.6801C10.0425 19.9889 9.83856 20.4122 9.8045 20.865L9.8 21V21.45C9.8 21.6039 9.8153 21.7551 9.845 21.9H9.8C9.08392 21.9 8.39716 21.6155 7.89081 21.1092C7.38446 20.6028 7.1 19.9161 7.1 19.2V18.3L4.4954 16.9977C4.19618 16.8482 3.94454 16.6182 3.76872 16.3337C3.5929 16.0491 3.49984 15.7212 3.5 15.3867V12C3.5 7.0293 7.5293 3 12.5 3ZM12.5 4.8C10.6294 4.80002 8.83227 5.52804 7.48907 6.82992C6.14586 8.1318 5.36206 9.90533 5.3036 11.775L5.3 12V15.3876L8.9 17.1876V18.6195L8.9675 18.5439C9.60497 17.8596 10.4841 17.4509 11.4182 17.4045L11.6 17.4L13.4657 17.4009L13.6664 17.4099C14.5655 17.4765 15.3674 17.8689 15.9614 18.4692L16.1 18.6195V17.1876L19.7 15.3876V12C19.7 10.0904 18.9414 8.25909 17.5912 6.90883C16.2409 5.55857 14.4096 4.8 12.5 4.8ZM8.9 11.1C9.37739 11.1 9.83523 11.2896 10.1728 11.6272C10.5104 11.9648 10.7 12.4226 10.7 12.9C10.7 13.3774 10.5104 13.8352 10.1728 14.1728C9.83523 14.5104 9.37739 14.7 8.9 14.7C8.42261 14.7 7.96477 14.5104 7.62721 14.1728C7.28964 13.8352 7.1 13.3774 7.1 12.9C7.1 12.4226 7.28964 11.9648 7.62721 11.6272C7.96477 11.2896 8.42261 11.1 8.9 11.1ZM16.1 11.1C16.5774 11.1 17.0352 11.2896 17.3728 11.6272C17.7104 11.9648 17.9 12.4226 17.9 12.9C17.9 13.3774 17.7104 13.8352 17.3728 14.1728C17.0352 14.5104 16.5774 14.7 16.1 14.7C15.6226 14.7 15.1648 14.5104 14.8272 14.1728C14.4896 13.8352 14.3 13.3774 14.3 12.9C14.3 12.4226 14.4896 11.9648 14.8272 11.6272C15.1648 11.2896 15.6226 11.1 16.1 11.1Z" fill="#0A0D14" style="fill:#0A0D14;fill:color(display-p3 0.0392 0.0510 0.0784);fill-opacity:1;"/>
</svg>
