<svg width="25" height="24" viewBox="0 0 25 24" fill="none" xmlns="http://www.w3.org/2000/svg">
<path d="M19.7 12C19.7 10.0904 18.9414 8.25909 17.5912 6.90883C16.2409 5.55857 14.4096 4.8 12.5 4.8C10.5904 4.8 8.75909 5.55857 7.40883 6.90883C6.05857 8.25909 5.3 10.0904 5.3 12V15.6H8C8.23869 15.6 8.46761 15.6948 8.6364 15.8636C8.80518 16.0324 8.9 16.2613 8.9 16.5V19.2H16.1V16.5C16.1 16.2613 16.1948 16.0324 16.3636 15.8636C16.5324 15.6948 16.7613 15.6 17 15.6H19.7V12ZM17.9 17.4V20.1C17.9 20.3387 17.8052 20.5676 17.6364 20.7364C17.4676 20.9052 17.2387 21 17 21H8C7.7613 21 7.53239 20.9052 7.3636 20.7364C7.19482 20.5676 7.1 20.3387 7.1 20.1V17.4H4.4C4.16131 17.4 3.93239 17.3052 3.7636 17.1364C3.59482 16.9676 3.5 16.7387 3.5 16.5V12C3.5 7.0293 7.5293 3 12.5 3C17.4707 3 21.5 7.0293 21.5 12V16.5C21.5 16.7387 21.4052 16.9676 21.2364 17.1364C21.0676 17.3052 20.8387 17.4 20.6 17.4H17.9ZM8.45 13.8C8.27272 13.8 8.09717 13.7651 7.93338 13.6972C7.76959 13.6294 7.62076 13.53 7.49541 13.4046C7.37005 13.2792 7.27061 13.1304 7.20276 12.9666C7.13492 12.8028 7.1 12.6273 7.1 12.45C7.1 12.2727 7.13492 12.0972 7.20276 11.9334C7.27061 11.7696 7.37005 11.6208 7.49541 11.4954C7.62076 11.37 7.76959 11.2706 7.93338 11.2028C8.09717 11.1349 8.27272 11.1 8.45 11.1C8.80804 11.1 9.15142 11.2422 9.40459 11.4954C9.65777 11.7486 9.8 12.092 9.8 12.45C9.8 12.808 9.65777 13.1514 9.40459 13.4046C9.15142 13.6578 8.80804 13.8 8.45 13.8ZM16.55 13.8C16.3727 13.8 16.1972 13.7651 16.0334 13.6972C15.8696 13.6294 15.7208 13.53 15.5954 13.4046C15.47 13.2792 15.3706 13.1304 15.3028 12.9666C15.2349 12.8028 15.2 12.6273 15.2 12.45C15.2 12.2727 15.2349 12.0972 15.3028 11.9334C15.3706 11.7696 15.47 11.6208 15.5954 11.4954C15.7208 11.37 15.8696 11.2706 16.0334 11.2028C16.1972 11.1349 16.3727 11.1 16.55 11.1C16.908 11.1 17.2514 11.2422 17.5046 11.4954C17.7578 11.7486 17.9 12.092 17.9 12.45C17.9 12.808 17.7578 13.1514 17.5046 13.4046C17.2514 13.6578 16.908 13.8 16.55 13.8Z" fill="#0A0D14" style="fill:#0A0D14;fill:color(display-p3 0.0392 0.0510 0.0784);fill-opacity:1;"/>
</svg>
