<svg width="25" height="24" viewBox="0 0 25 24" fill="none" xmlns="http://www.w3.org/2000/svg">
<path d="M17.9 17.4V20.1C17.9 20.3387 17.8052 20.5676 17.6364 20.7364C17.4676 20.9052 17.2387 21 17 21H8C7.7613 21 7.53239 20.9052 7.3636 20.7364C7.19482 20.5676 7.1 20.3387 7.1 20.1V17.4H4.4C4.16131 17.4 3.93239 17.3052 3.7636 17.1364C3.59482 16.9676 3.5 16.7387 3.5 16.5V12C3.5 7.0293 7.5293 3 12.5 3C17.4707 3 21.5 7.0293 21.5 12V16.5C21.5 16.7387 21.4052 16.9676 21.2364 17.1364C21.0676 17.3052 20.8387 17.4 20.6 17.4H17.9ZM8.45 13.8C8.62728 13.8 8.80283 13.7651 8.96662 13.6972C9.13041 13.6294 9.27923 13.53 9.40459 13.4046C9.52995 13.2792 9.62939 13.1304 9.69724 12.9666C9.76508 12.8028 9.8 12.6273 9.8 12.45C9.8 12.2727 9.76508 12.0972 9.69724 11.9334C9.62939 11.7696 9.52995 11.6208 9.40459 11.4954C9.27923 11.37 9.13041 11.2706 8.96662 11.2028C8.80283 11.1349 8.62728 11.1 8.45 11.1C8.09196 11.1 7.74858 11.2422 7.49541 11.4954C7.24223 11.7486 7.1 12.092 7.1 12.45C7.1 12.808 7.24223 13.1514 7.49541 13.4046C7.74858 13.6578 8.09196 13.8 8.45 13.8ZM16.55 13.8C16.7273 13.8 16.9028 13.7651 17.0666 13.6972C17.2304 13.6294 17.3792 13.53 17.5046 13.4046C17.63 13.2792 17.7294 13.1304 17.7972 12.9666C17.8651 12.8028 17.9 12.6273 17.9 12.45C17.9 12.2727 17.8651 12.0972 17.7972 11.9334C17.7294 11.7696 17.63 11.6208 17.5046 11.4954C17.3792 11.37 17.2304 11.2706 17.0666 11.2028C16.9028 11.1349 16.7273 11.1 16.55 11.1C16.192 11.1 15.8486 11.2422 15.5954 11.4954C15.3422 11.7486 15.2 12.092 15.2 12.45C15.2 12.808 15.3422 13.1514 15.5954 13.4046C15.8486 13.6578 16.192 13.8 16.55 13.8Z" fill="#0A0D14" style="fill:#0A0D14;fill:color(display-p3 0.0392 0.0510 0.0784);fill-opacity:1;"/>
</svg>
