<svg width="25" height="24" viewBox="0 0 25 24" fill="none" xmlns="http://www.w3.org/2000/svg">
<path d="M13.4036 17.78C13.7851 17.7211 14.1754 17.7864 14.5169 17.9663C15.0693 18.2567 15.7001 18.3628 16.3171 18.2691C16.9341 18.1754 17.505 17.8868 17.9462 17.4455C18.3875 17.0042 18.6761 16.4334 18.7698 15.8164C18.8635 15.1994 18.7574 14.5686 18.467 14.0162C18.2871 13.6746 18.2218 13.2843 18.2807 12.9029C18.4232 11.9925 18.3486 11.0614 18.0631 10.1854C17.7776 9.30935 17.2892 8.51314 16.6376 7.86161C15.9861 7.21008 15.1899 6.72167 14.3139 6.43615C13.4378 6.15062 12.5067 6.07607 11.5964 6.21856C11.2149 6.27744 10.8246 6.21212 10.4831 6.03226C9.93061 5.74164 9.29964 5.63541 8.68245 5.72909C8.06526 5.82276 7.49423 6.11144 7.05286 6.55291C6.6115 6.99438 6.32295 7.56548 6.22941 8.18269C6.13587 8.7999 6.24225 9.43084 6.533 9.98326C6.71286 10.3248 6.77817 10.7151 6.7193 11.0966C6.57681 12.0069 6.65136 12.938 6.93688 13.814C7.2224 14.6901 7.71082 15.4863 8.36235 16.1378C9.01387 16.7893 9.81009 17.2778 10.6861 17.5633C11.5622 17.8488 12.4933 17.9234 13.4036 17.7809V17.78ZM12.5 19.6493C11.3956 19.6495 10.3042 19.4105 9.30088 18.9489C8.29756 18.4872 7.40611 17.8138 6.68778 16.9749C5.96945 16.136 5.44128 15.1515 5.13957 14.0891C4.83787 13.0266 4.76978 11.9115 4.94 10.8203C4.47085 9.92792 4.29943 8.90892 4.45076 7.9122C4.6021 6.91547 5.06827 5.99328 5.78114 5.28041C6.49401 4.56754 7.4162 4.10137 8.41293 3.95003C9.40965 3.79869 10.4287 3.97012 11.321 4.43926C12.5111 4.25337 13.7282 4.35111 14.8734 4.72454C16.0185 5.09797 17.0593 5.73653 17.911 6.58824C18.7627 7.43995 19.4013 8.48074 19.7747 9.62589C20.1481 10.771 20.2459 11.9882 20.06 13.1783C20.5291 14.0706 20.7006 15.0896 20.5492 16.0863C20.3979 17.0831 19.9317 18.0052 19.2188 18.7181C18.506 19.431 17.5838 19.8972 16.5871 20.0485C15.5903 20.1998 14.5713 20.0284 13.679 19.5593C13.2947 19.6187 12.9005 19.6493 12.5 19.6493ZM12.5477 16.4993C10.025 16.4993 8.9 15.2573 8.9 14.3267C8.9 13.8479 9.251 13.5149 9.7352 13.5149C10.8152 13.5149 10.5335 15.0674 12.5477 15.0674C13.5764 15.0674 14.1461 14.5058 14.1461 13.9325C14.1461 13.5869 13.9769 13.2053 13.2974 13.0361L11.0564 12.4754C9.251 12.0218 8.9234 11.0426 8.9234 10.1246C8.9234 8.21656 10.7162 7.49926 12.401 7.49926C13.949 7.49926 15.7814 8.35966 15.7814 9.50446C15.7814 9.99496 15.3494 10.2812 14.8706 10.2812C13.9499 10.2812 14.1191 9.00496 12.2606 9.00496C11.3399 9.00496 10.8242 9.42076 10.8242 10.0184C10.8242 10.6151 11.5469 10.8068 12.176 10.9499L13.8284 11.318C15.641 11.7248 16.1 12.7877 16.1 13.7894C16.1 15.341 14.9075 16.4993 12.5135 16.4993H12.5477Z" fill="#0A0D14" style="fill:#0A0D14;fill:color(display-p3 0.0392 0.0510 0.0784);fill-opacity:1;"/>
</svg>
