<svg width="25" height="24" viewBox="0 0 25 24" fill="none" xmlns="http://www.w3.org/2000/svg">
<path d="M13.679 19.5593C12.4889 19.7452 11.2718 19.6474 10.1266 19.274C8.98147 18.9006 7.94068 18.262 7.08897 17.4103C6.23726 16.5586 5.5987 15.5178 5.22527 14.3726C4.85184 13.2275 4.7541 12.0103 4.94 10.8203C4.47085 9.92792 4.29943 8.90892 4.45076 7.9122C4.6021 6.91547 5.06827 5.99328 5.78114 5.28041C6.49401 4.56754 7.4162 4.10137 8.41293 3.95003C9.40965 3.79869 10.4287 3.97012 11.321 4.43926C12.5111 4.25337 13.7282 4.35111 14.8734 4.72454C16.0185 5.09797 17.0593 5.73653 17.911 6.58824C18.7627 7.43995 19.4013 8.48074 19.7747 9.62589C20.1481 10.771 20.2459 11.9882 20.06 13.1783C20.5291 14.0706 20.7006 15.0896 20.5492 16.0863C20.3979 17.0831 19.9317 18.0052 19.2188 18.7181C18.506 19.431 17.5838 19.8972 16.5871 20.0485C15.5903 20.1998 14.5713 20.0284 13.679 19.5593ZM12.5468 16.6397H12.5108C15.0956 16.6397 16.3835 15.3923 16.3835 13.721C16.3835 12.6428 15.8876 11.4971 13.9301 11.0588L12.1454 10.6628C11.4659 10.508 10.6856 10.3028 10.6856 9.65926C10.6856 9.01576 11.2436 8.56756 12.2372 8.56756C14.2442 8.56756 14.0615 9.94276 15.0551 9.94276C15.5735 9.94276 16.0388 9.63496 16.0388 9.10576C16.0388 7.87276 14.0615 6.94576 12.3884 6.94576C10.5695 6.94576 8.6327 7.71886 8.6327 9.77536C8.6327 10.7636 8.9873 11.8184 10.9367 12.3071L13.3568 12.911C14.0912 13.0928 14.273 13.5041 14.273 13.8758C14.273 14.4941 13.6574 15.098 12.5468 15.098C10.3715 15.098 10.6766 13.4267 9.5102 13.4267C8.9882 13.4267 8.6075 13.7849 8.6075 14.3006C8.6075 15.3032 9.8243 16.6388 12.5468 16.6388V16.6397Z" fill="#0A0D14" style="fill:#0A0D14;fill:color(display-p3 0.0392 0.0510 0.0784);fill-opacity:1;"/>
</svg>
