<svg width="25" height="24" viewBox="0 0 25 24" fill="none" xmlns="http://www.w3.org/2000/svg">
<path d="M7.57429 14.2621C7.57263 14.731 7.38555 15.1802 7.05389 15.5117C6.72223 15.8432 6.27291 16.0301 5.80399 16.0315C5.33492 16.0301 4.88546 15.8431 4.55377 15.5114C4.22209 15.1797 4.03512 14.7303 4.03369 14.2612C4.03369 13.2865 4.82929 12.49 5.80399 12.49H7.57519V14.2612L7.57429 14.2621ZM8.46709 14.2621C8.46709 13.2874 9.26269 12.4909 10.2374 12.4909C11.2121 12.4909 12.0086 13.2874 12.0086 14.2621V18.6964C12.0072 19.1656 11.8201 19.6152 11.4882 19.9469C11.1563 20.2787 10.7066 20.4655 10.2374 20.4667C9.76832 20.4653 9.31886 20.2783 8.98717 19.9466C8.65549 19.6149 8.46852 19.1655 8.46709 18.6964V14.2621ZM10.2374 7.0738C9.76847 7.07214 9.31925 6.88507 8.98775 6.5534C8.65626 6.22174 8.46941 5.77242 8.46799 5.3035C8.46799 4.3288 9.26359 3.5332 10.2383 3.5332C11.213 3.5332 12.0095 4.3288 12.0095 5.3035V7.0747H10.2374V7.0738ZM10.2374 7.9666C11.2121 7.9666 12.0086 8.7622 12.0086 9.7369C12.0074 10.2063 11.8204 10.6561 11.4885 10.988C11.1566 11.3199 10.7068 11.5069 10.2374 11.5081H5.80399C5.33476 11.5067 4.88517 11.3196 4.55346 10.9877C4.22174 10.6558 4.03488 10.2061 4.03369 9.7369C4.03369 8.7622 4.82929 7.9666 5.80399 7.9666H10.2383H10.2374ZM17.4257 9.7369C17.4257 8.7622 18.2222 7.9666 19.1969 7.9666C20.1716 7.9666 20.9672 8.7622 20.9672 9.7369C20.966 10.2061 20.7791 10.6558 20.4474 10.9877C20.1157 11.3196 19.6661 11.5067 19.1969 11.5081H17.4257V9.7369ZM16.5329 9.7369C16.5317 10.2061 16.3448 10.6558 16.0131 10.9877C15.6814 11.3196 15.2318 11.5067 14.7626 11.5081C14.2932 11.5069 13.8434 11.3199 13.5115 10.988C13.1796 10.6561 12.9926 10.2063 12.9914 9.7369V5.3035C12.9914 4.3288 13.7879 3.5332 14.7626 3.5332C15.7373 3.5332 16.5329 4.3288 16.5329 5.3035V9.7378V9.7369ZM14.7626 16.9252C15.7373 16.9252 16.5329 17.7217 16.5329 18.6964C16.5315 19.1655 16.3445 19.6149 16.0128 19.9466C15.6811 20.2783 15.2317 20.4653 14.7626 20.4667C14.2934 20.4655 13.8437 20.2787 13.5118 19.9469C13.1799 19.6152 12.9928 19.1656 12.9914 18.6964V16.9252H14.7626ZM14.7626 16.0324C14.2934 16.0312 13.8437 15.8443 13.5118 15.5126C13.1799 15.1809 12.9928 14.7313 12.9914 14.2621C12.9914 13.2874 13.7879 12.4909 14.7626 12.4909H19.1969C20.1716 12.4909 20.9672 13.2874 20.9672 14.2621C20.9658 14.7312 20.7788 15.1806 20.4471 15.5123C20.1154 15.844 19.666 16.031 19.1969 16.0324H14.7626Z" fill="#0A0D14" style="fill:#0A0D14;fill:color(display-p3 0.0392 0.0510 0.0784);fill-opacity:1;"/>
</svg>
