<svg width="25" height="24" viewBox="0 0 25 24" fill="none" xmlns="http://www.w3.org/2000/svg">
<path d="M14.75 3.90039C15.1081 3.90039 15.4514 4.04262 15.7046 4.2958C15.9578 4.54897 16.1 4.89235 16.1 5.25039V9.75039C16.1 10.1084 15.9578 10.4518 15.7046 10.705C15.4514 10.9582 15.1081 11.1004 14.75 11.1004C14.392 11.1004 14.0486 10.9582 13.7954 10.705C13.5423 10.4518 13.4 10.1084 13.4 9.75039V5.25039C13.4 4.89235 13.5423 4.54897 13.7954 4.2958C14.0486 4.04262 14.392 3.90039 14.75 3.90039ZM5.75003 12.9004H7.10002V14.2504C7.10002 14.5174 7.02085 14.7784 6.87251 15.0004C6.72417 15.2224 6.51333 15.3955 6.26665 15.4976C6.01997 15.5998 5.74853 15.6265 5.48665 15.5745C5.22478 15.5224 4.98423 15.3938 4.79543 15.205C4.60663 15.0162 4.47805 14.7756 4.42596 14.5138C4.37387 14.2519 4.40061 13.9804 4.50279 13.7338C4.60497 13.4871 4.778 13.2762 5.00001 13.1279C5.22201 12.9796 5.48302 12.9004 5.75003 12.9004ZM13.4 17.4004H14.75C15.017 17.4004 15.278 17.4796 15.5 17.6279C15.7221 17.7762 15.8951 17.9871 15.9973 18.2338C16.0994 18.4804 16.1262 18.7519 16.0741 19.0138C16.022 19.2756 15.8934 19.5162 15.7046 19.705C15.5158 19.8938 15.2753 20.0224 15.0134 20.0745C14.7515 20.1265 14.4801 20.0998 14.2334 19.9976C13.9867 19.8954 13.7759 19.7224 13.6275 19.5004C13.4792 19.2784 13.4 19.0174 13.4 18.7504V17.4004ZM14.75 12.9004H19.25C19.6081 12.9004 19.9514 13.0426 20.2046 13.2958C20.4578 13.549 20.6 13.8923 20.6 14.2504C20.6 14.6084 20.4578 14.9518 20.2046 15.205C19.9514 15.4582 19.6081 15.6004 19.25 15.6004H14.75C14.392 15.6004 14.0486 15.4582 13.7954 15.205C13.5423 14.9518 13.4 14.6084 13.4 14.2504C13.4 13.8923 13.5423 13.549 13.7954 13.2958C14.0486 13.0426 14.392 12.9004 14.75 12.9004ZM19.25 8.40039C19.6081 8.40039 19.9514 8.54262 20.2046 8.7958C20.4578 9.04897 20.6 9.39235 20.6 9.75039C20.6 10.1084 20.4578 10.4518 20.2046 10.705C19.9514 10.9582 19.6081 11.1004 19.25 11.1004H17.9V9.75039C17.9 9.39235 18.0423 9.04897 18.2954 8.7958C18.5486 8.54262 18.892 8.40039 19.25 8.40039ZM5.75003 8.40039H10.25C10.6081 8.40039 10.9514 8.54262 11.2046 8.7958C11.4578 9.04897 11.6 9.39235 11.6 9.75039C11.6 10.1084 11.4578 10.4518 11.2046 10.705C10.9514 10.9582 10.6081 11.1004 10.25 11.1004H5.75003C5.39198 11.1004 5.0486 10.9582 4.79543 10.705C4.54226 10.4518 4.40002 10.1084 4.40002 9.75039C4.40002 9.39235 4.54226 9.04897 4.79543 8.7958C5.0486 8.54262 5.39198 8.40039 5.75003 8.40039ZM10.25 3.90039C10.6081 3.90039 10.9514 4.04262 11.2046 4.2958C11.4578 4.54897 11.6 4.89235 11.6 5.25039V6.60039H10.25C9.89198 6.60039 9.5486 6.45816 9.29543 6.20499C9.04226 5.95181 8.90002 5.60843 8.90002 5.25039C8.90002 4.89235 9.04226 4.54897 9.29543 4.2958C9.5486 4.04262 9.89198 3.90039 10.25 3.90039ZM10.25 12.9004C10.6081 12.9004 10.9514 13.0426 11.2046 13.2958C11.4578 13.549 11.6 13.8923 11.6 14.2504V18.7504C11.6 19.1084 11.4578 19.4518 11.2046 19.705C10.9514 19.9582 10.6081 20.1004 10.25 20.1004C9.89198 20.1004 9.5486 19.9582 9.29543 19.705C9.04226 19.4518 8.90002 19.1084 8.90002 18.7504V14.2504C8.90002 13.8923 9.04226 13.549 9.29543 13.2958C9.5486 13.0426 9.89198 12.9004 10.25 12.9004Z" fill="#0A0D14" style="fill:#0A0D14;fill:color(display-p3 0.0392 0.0510 0.0784);fill-opacity:1;"/>
</svg>
