<svg width="25" height="24" viewBox="0 0 25 24" fill="none" xmlns="http://www.w3.org/2000/svg">
<path d="M7.25 4.5C6.00736 4.5 5 5.50736 5 6.75V17.25C5 18.4927 6.00736 19.5 7.25 19.5H17.75C18.9927 19.5 20 18.4927 20 17.25V6.75C20 5.50736 18.9927 4.5 17.75 4.5H7.25ZM6.5 6.75C6.5 6.33579 6.83579 6 7.25 6H17.75C18.1642 6 18.5 6.33579 18.5 6.75V17.25C18.5 17.6642 18.1642 18 17.75 18H7.25C6.83579 18 6.5 17.6642 6.5 17.25V6.75ZM10.7924 16.5L15.9352 7.5H14.2076L9.06476 16.5H10.7924Z" fill="#0A0D14" style="fill:#0A0D14;fill:color(display-p3 0.0392 0.0510 0.0784);fill-opacity:1;"/>
</svg>
