<svg width="25" height="24" viewBox="0 0 25 24" fill="none" xmlns="http://www.w3.org/2000/svg">
<path d="M8.89998 5.69922H16.1C17.7708 5.69922 19.3733 6.36297 20.5547 7.54445C21.7362 8.72593 22.4 10.3284 22.4 11.9992C22.4 13.6701 21.7362 15.2725 20.5547 16.454C19.3733 17.6355 17.7708 18.2992 16.1 18.2992H8.89998C7.22911 18.2992 5.62668 17.6355 4.4452 16.454C3.26372 15.2725 2.59998 13.6701 2.59998 11.9992C2.59998 10.3284 3.26372 8.72593 4.4452 7.54445C5.62668 6.36297 7.22911 5.69922 8.89998 5.69922ZM16.1 14.6992C16.8161 14.6992 17.5028 14.4148 18.0092 13.9084C18.5155 13.4021 18.8 12.7153 18.8 11.9992C18.8 11.2831 18.5155 10.5964 18.0092 10.09C17.5028 9.58368 16.8161 9.29922 16.1 9.29922C15.3839 9.29922 14.6971 9.58368 14.1908 10.09C13.6844 10.5964 13.4 11.2831 13.4 11.9992C13.4 12.7153 13.6844 13.4021 14.1908 13.9084C14.6971 14.4148 15.3839 14.6992 16.1 14.6992Z" fill="#0A0D14" style="fill:#0A0D14;fill:color(display-p3 0.0392 0.0510 0.0784);fill-opacity:1;"/>
</svg>
