<svg width="25" height="24" viewBox="0 0 25 24" fill="none" xmlns="http://www.w3.org/2000/svg">
<path d="M9.053 3.9001C9.23931 3.37353 9.58429 2.91768 10.0404 2.59531C10.4966 2.27295 11.0414 2.09994 11.6 2.1001H13.4C14.5754 2.1001 15.5753 2.8516 15.947 3.9001H20.6C20.8387 3.9001 21.0676 3.99492 21.2364 4.1637C21.4052 4.33248 21.5 4.5614 21.5 4.8001V19.2001C21.5 19.4388 21.4052 19.6677 21.2364 19.8365C21.0676 20.0053 20.8387 20.1001 20.6 20.1001H4.4C4.16131 20.1001 3.93239 20.0053 3.7636 19.8365C3.59482 19.6677 3.5 19.4388 3.5 19.2001V4.8001C3.5 4.5614 3.59482 4.33248 3.7636 4.1637C3.93239 3.99492 4.16131 3.9001 4.4 3.9001H9.053ZM10.7 9.3001V14.7001L15.2 12.0001L10.7 9.3001ZM11.6 3.9001C11.3613 3.9001 11.1324 3.99492 10.9636 4.1637C10.7948 4.33248 10.7 4.5614 10.7 4.8001C10.7 5.03879 10.7948 5.26771 10.9636 5.43649C11.1324 5.60528 11.3613 5.7001 11.6 5.7001H13.4C13.6387 5.7001 13.8676 5.60528 14.0364 5.43649C14.2052 5.26771 14.3 5.03879 14.3 4.8001C14.3 4.5614 14.2052 4.33248 14.0364 4.1637C13.8676 3.99492 13.6387 3.9001 13.4 3.9001H11.6Z" fill="#0A0D14" style="fill:#0A0D14;fill:color(display-p3 0.0392 0.0510 0.0784);fill-opacity:1;"/>
</svg>
