<svg width="25" height="24" viewBox="0 0 25 24" fill="none" xmlns="http://www.w3.org/2000/svg">
<path d="M13.4 17.3999V19.1999H17V20.9999H8V19.1999H11.6V17.3999H4.4C4.16131 17.3999 3.93239 17.3051 3.7636 17.1363C3.59482 16.9675 3.5 16.7386 3.5 16.4999V4.7999C3.5 4.56121 3.59482 4.33229 3.7636 4.16351C3.93239 3.99472 4.16131 3.8999 4.4 3.8999H20.6C20.8387 3.8999 21.0676 3.99472 21.2364 4.16351C21.4052 4.33229 21.5 4.56121 21.5 4.7999V16.4999C21.5 16.7386 21.4052 16.9675 21.2364 17.1363C21.0676 17.3051 20.8387 17.3999 20.6 17.3999H13.4ZM5.3 5.6999V15.5999H19.7V5.6999H5.3ZM10.7 7.9499L15.2 10.6499L10.7 13.3499V7.9499Z" fill="#0A0D14" style="fill:#0A0D14;fill:color(display-p3 0.0392 0.0510 0.0784);fill-opacity:1;"/>
</svg>
