<svg width="25" height="24" viewBox="0 0 25 24" fill="none" xmlns="http://www.w3.org/2000/svg">
<path d="M13.4 20.0999V21.8999H11.6V20.0999H4.4C4.16131 20.0999 3.93239 20.0051 3.7636 19.8363C3.59482 19.6675 3.5 19.4386 3.5 19.1999V6.5999H21.5V19.1999C21.5 19.4386 21.4052 19.6675 21.2364 19.8363C21.0676 20.0051 20.8387 20.0999 20.6 20.0999H13.4ZM5.3 18.2999H19.7V8.3999H5.3V18.2999ZM13.4 10.1999H17.9V11.9999H13.4V10.1999ZM13.4 13.7999H17.9V15.5999H13.4V13.7999ZM9.8 10.1999V12.8999H12.5C12.5 13.4339 12.3416 13.9559 12.045 14.3999C11.7483 14.844 11.3266 15.19 10.8332 15.3944C10.3399 15.5987 9.797 15.6522 9.27326 15.548C8.74951 15.4438 8.26841 15.1867 7.89081 14.8091C7.51321 14.4315 7.25606 13.9504 7.15188 13.4266C7.0477 12.9029 7.10117 12.36 7.30553 11.8667C7.50988 11.3733 7.85595 10.9516 8.29996 10.6549C8.74397 10.3583 9.26599 10.1999 9.8 10.1999ZM3.5 3.8999H21.5V5.6999H3.5V3.8999Z" fill="#0A0D14" style="fill:#0A0D14;fill:color(display-p3 0.0392 0.0510 0.0784);fill-opacity:1;"/>
</svg>
