<svg width="25" height="24" viewBox="0 0 25 24" fill="none" xmlns="http://www.w3.org/2000/svg">
<path d="M13.4 20.0999V21.8999H11.6V20.0999H4.4C4.16131 20.0999 3.93239 20.0051 3.7636 19.8363C3.59482 19.6675 3.5 19.4386 3.5 19.1999V6.5999H21.5V19.1999C21.5 19.4386 21.4052 19.6675 21.2364 19.8363C21.0676 20.0051 20.8387 20.0999 20.6 20.0999H13.4ZM8.9 10.1999C8.36599 10.1999 7.84397 10.3583 7.39996 10.6549C6.95595 10.9516 6.60988 11.3733 6.40553 11.8667C6.20117 12.36 6.1477 12.9029 6.25188 13.4266C6.35606 13.9504 6.61321 14.4315 6.99081 14.8091C7.36841 15.1867 7.84951 15.4438 8.37326 15.548C8.897 15.6522 9.43988 15.5987 9.93325 15.3944C10.4266 15.19 10.8483 14.844 11.145 14.3999C11.4416 13.9559 11.6 13.4339 11.6 12.8999H8.9V10.1999ZM13.4 10.1999V11.9999H18.8V10.1999H13.4ZM13.4 13.7999V15.5999H18.8V13.7999H13.4ZM3.5 3.8999H21.5V5.6999H3.5V3.8999Z" fill="#0A0D14" style="fill:#0A0D14;fill:color(display-p3 0.0392 0.0510 0.0784);fill-opacity:1;"/>
</svg>
