<svg width="25" height="24" viewBox="0 0 25 24" fill="none" xmlns="http://www.w3.org/2000/svg">
<path d="M8.89998 7.49922C7.7065 7.49922 6.56191 7.97332 5.71799 8.81724C4.87408 9.66115 4.39998 10.8057 4.39998 11.9992C4.39998 13.1927 4.87408 14.3373 5.71799 15.1812C6.56191 16.0251 7.7065 16.4992 8.89998 16.4992H16.1C17.2934 16.4992 18.438 16.0251 19.282 15.1812C20.1259 14.3373 20.6 13.1927 20.6 11.9992C20.6 10.8057 20.1259 9.66115 19.282 8.81724C18.438 7.97332 17.2934 7.49922 16.1 7.49922H8.89998ZM8.89998 5.69922H16.1C17.7708 5.69922 19.3733 6.36297 20.5547 7.54445C21.7362 8.72593 22.4 10.3284 22.4 11.9992C22.4 13.6701 21.7362 15.2725 20.5547 16.454C19.3733 17.6355 17.7708 18.2992 16.1 18.2992H8.89998C7.22911 18.2992 5.62668 17.6355 4.4452 16.454C3.26372 15.2725 2.59998 13.6701 2.59998 11.9992C2.59998 10.3284 3.26372 8.72593 4.4452 7.54445C5.62668 6.36297 7.22911 5.69922 8.89998 5.69922ZM8.89998 14.6992C8.18389 14.6992 7.49714 14.4148 6.99079 13.9084C6.48444 13.4021 6.19998 12.7153 6.19998 11.9992C6.19998 11.2831 6.48444 10.5964 6.99079 10.09C7.49714 9.58368 8.18389 9.29922 8.89998 9.29922C9.61606 9.29922 10.3028 9.58368 10.8092 10.09C11.3155 10.5964 11.6 11.2831 11.6 11.9992C11.6 12.7153 11.3155 13.4021 10.8092 13.9084C10.3028 14.4148 9.61606 14.6992 8.89998 14.6992Z" fill="#0A0D14" style="fill:#0A0D14;fill:color(display-p3 0.0392 0.0510 0.0784);fill-opacity:1;"/>
</svg>
