<svg width="25" height="24" viewBox="0 0 25 24" fill="none" xmlns="http://www.w3.org/2000/svg">
<path d="M5.7 13.2439C5.7 15.1203 6.46109 16.819 7.69163 18.0488L6.48956 19.25C4.9514 17.7129 4 15.5894 4 13.2439C4 8.55284 7.80562 4.75 12.5 4.75C17.1944 4.75 21 8.55284 21 13.2439C21 15.5894 20.0486 17.7129 18.5104 19.25L17.3083 18.0488C18.5389 16.819 19.3 15.1203 19.3 13.2439C19.3 9.49105 16.2555 6.44878 12.5 6.44878C8.74444 6.44878 5.7 9.49105 5.7 13.2439ZM9.70095 9.24579L13.5259 13.0681L12.3239 14.2693L8.49888 10.447L9.70095 9.24579Z" fill="#0A0D14" style="fill:#0A0D14;fill:color(display-p3 0.0392 0.0510 0.0784);fill-opacity:1;"/>
</svg>
