<svg width="25" height="24" viewBox="0 0 25 24" fill="none" xmlns="http://www.w3.org/2000/svg">
<path d="M7.99995 4.8V19.2H17V4.8H7.99995ZM7.09995 3H17.9C18.1386 3 18.3676 3.09482 18.5363 3.2636C18.7051 3.43239 18.8 3.66131 18.8 3.9V20.1C18.8 20.3387 18.7051 20.5676 18.5363 20.7364C18.3676 20.9052 18.1386 21 17.9 21H7.09995C6.86126 21 6.63234 20.9052 6.46356 20.7364C6.29477 20.5676 6.19995 20.3387 6.19995 20.1V3.9C6.19995 3.66131 6.29477 3.43239 6.46356 3.2636C6.63234 3.09482 6.86126 3 7.09995 3ZM12.5 16.5C12.7386 16.5 12.9676 16.5948 13.1363 16.7636C13.3051 16.9324 13.4 17.1613 13.4 17.4C13.4 17.6387 13.3051 17.8676 13.1363 18.0364C12.9676 18.2052 12.7386 18.3 12.5 18.3C12.2613 18.3 12.0323 18.2052 11.8636 18.0364C11.6948 17.8676 11.6 17.6387 11.6 17.4C11.6 17.1613 11.6948 16.9324 11.8636 16.7636C12.0323 16.5948 12.2613 16.5 12.5 16.5Z" fill="#0A0D14" style="fill:#0A0D14;fill:color(display-p3 0.0392 0.0510 0.0784);fill-opacity:1;"/>
</svg>
