<svg width="25" height="24" viewBox="0 0 25 24" fill="none" xmlns="http://www.w3.org/2000/svg">
<path d="M15.5565 10.7224L15.5745 10.4983C15.6244 9.80161 15.6493 9.10336 15.6492 8.40489C15.6492 7.62189 15.3846 7.06749 14.8266 6.54819C14.2326 5.99559 13.5135 5.70039 12.4956 5.70039C11.4723 5.70039 10.7334 6.00189 10.2366 6.49959C9.61016 7.12509 9.37436 7.59579 9.37436 8.38959C9.37436 8.85849 9.42926 10.1842 9.46076 10.7458C9.48638 11.2049 9.33535 11.6563 9.03866 12.0076C9.08816 12.0958 9.13316 12.1912 9.17636 12.2929C9.44636 12.9868 9.35456 13.6816 9.03956 14.3368C8.68676 15.073 8.38166 15.5905 7.77056 16.2754C7.58911 16.4791 7.3962 16.6723 7.19276 16.8541C7.34527 17.0005 7.47079 17.1726 7.56356 17.3626C8.03988 17.3203 8.51974 17.3427 8.99006 17.4292C9.71906 17.5606 10.1817 17.8198 10.9647 18.3841L10.9791 18.394L11.1708 18.5308C11.7279 18.9268 11.9601 19.0222 12.4965 19.0222C13.0446 19.0222 13.3155 18.9133 13.8672 18.5254L14.0535 18.394C14.8419 17.8252 15.3198 17.5588 16.0614 17.4256C16.5248 17.3485 16.9958 17.3262 17.4645 17.359C17.5584 17.168 17.6855 16.9953 17.8398 16.8487C17.6455 16.6736 17.4605 16.4885 17.2854 16.2943C16.7618 15.7109 16.3233 15.0565 15.9831 14.3503C15.6564 13.6762 15.5601 12.9643 15.8598 12.2614C15.8958 12.1732 15.9363 12.0904 15.9786 12.013C15.6745 11.6542 15.523 11.1906 15.5565 10.7215V10.7224ZM6.27296 10.6306C6.65006 10.6306 6.81296 10.9051 7.37006 10.9051C7.51136 10.9051 7.60406 10.8736 7.66346 10.8457C7.65536 10.7053 7.57436 9.05829 7.57436 8.38959C7.57436 6.87039 8.22236 5.96859 8.96306 5.22699C9.70376 4.48539 10.8576 3.90039 12.4965 3.90039C14.1345 3.90039 15.2559 4.48809 16.0533 5.23059C16.8507 5.97309 17.4492 6.96759 17.4492 8.40579C17.4492 9.80529 17.3601 10.7404 17.352 10.8502C17.4296 10.89 17.5158 10.9101 17.6031 10.9087C18.1701 10.9087 18.1701 10.6297 18.8001 10.6297C19.4166 10.6297 19.6848 11.1427 19.6848 11.3704C19.6848 11.9293 18.9351 12.2407 18.4878 12.3838C18.1557 12.4891 17.6499 12.6457 17.5203 12.9553C17.4537 13.1119 17.4816 13.3153 17.6031 13.5655C17.6058 13.5727 18.7371 16.1602 21.1401 16.5589C21.3516 16.5904 21.492 16.7758 21.492 16.9936C21.492 17.2924 21.159 17.5489 20.8386 17.6974C20.4399 17.8774 19.8567 18.0304 19.0818 18.1519C19.0431 18.2221 18.9612 18.5884 18.8703 18.9502C18.7488 19.438 18.1494 19.2796 17.9784 19.2436C17.4466 19.1317 16.8989 19.117 16.362 19.2004C15.9282 19.2787 15.5403 19.5406 15.1065 19.8538C14.4648 20.3074 13.788 20.8222 12.4965 20.8222C11.2041 20.8222 10.5669 20.3074 9.92516 19.8538C9.49136 19.5406 9.11066 19.2805 8.66876 19.2004C7.86056 19.0537 7.25576 19.2328 7.05326 19.2517C6.84986 19.2697 6.29546 19.4713 6.15686 18.9574C6.11636 18.808 5.98496 18.2302 5.94536 18.1519C5.17496 18.0304 4.58816 17.8702 4.18856 17.6902C3.86006 17.5417 3.53516 17.2915 3.53516 16.9891C3.53516 16.7776 3.67736 16.5931 3.88706 16.5553C6.26666 16.1206 7.27646 13.8508 7.41686 13.5583C7.53566 13.3099 7.56176 13.1083 7.49876 12.9472C7.37006 12.6385 6.86516 12.4855 6.53306 12.3757C6.43856 12.3451 5.33066 12.04 5.33066 11.3704C5.33066 11.1544 5.51516 10.8547 5.85446 10.7134C5.98803 10.6615 6.12968 10.6335 6.27296 10.6306Z" fill="#0A0D14" style="fill:#0A0D14;fill:color(display-p3 0.0392 0.0510 0.0784);fill-opacity:1;"/>
</svg>
