<svg width="25" height="24" viewBox="0 0 25 24" fill="none" xmlns="http://www.w3.org/2000/svg">
<path d="M12.3839 20.788C11.3129 20.788 10.5983 20.2831 9.96023 19.8376C9.50753 19.5163 9.08183 19.2112 8.58053 19.1266C8.34185 19.0855 8.10001 19.0657 7.85783 19.0672C7.43303 19.0672 7.09553 19.1311 6.85523 19.1797C6.70223 19.2067 6.57443 19.2319 6.47363 19.2319C6.36923 19.2319 6.23693 19.2031 6.18563 19.0267C6.14063 18.8827 6.11273 18.7459 6.08483 18.6136C6.01283 18.2806 5.95253 18.0763 5.82743 18.0556C4.48733 17.8513 3.68543 17.5426 3.52883 17.1772C3.51623 17.1376 3.50093 17.0962 3.50093 17.0647C3.49193 16.9522 3.57293 16.8604 3.68543 16.8397C4.74833 16.6633 5.70323 16.0981 6.50963 15.1675C7.13603 14.4448 7.44113 13.7464 7.46903 13.6708C7.46903 13.6618 7.47713 13.6618 7.47713 13.6618C7.63013 13.3459 7.66163 13.0768 7.56893 12.8563C7.39703 12.4423 6.82643 12.2659 6.43763 12.1453C6.33773 12.1183 6.25313 12.0859 6.18113 12.0616C5.84813 11.9293 5.29373 11.6476 5.36663 11.2588C5.41883 10.978 5.79143 10.7773 6.09653 10.7773C6.18113 10.7773 6.25313 10.7899 6.31253 10.8223C6.65453 10.978 6.96323 11.0581 7.22783 11.0581C7.55723 11.0581 7.71383 10.9339 7.75343 10.8943C7.74505 10.7163 7.73455 10.5384 7.72193 10.3606C7.64093 9.13209 7.54913 7.60749 7.93793 6.73359C9.10613 4.11729 11.5856 3.90759 12.32 3.90759L12.6404 3.90039H12.6854C13.4189 3.90039 15.8984 4.10469 17.0666 6.72549C17.4599 7.59939 17.3636 9.12849 17.2826 10.3525L17.2754 10.4128C17.2664 10.5766 17.2547 10.7332 17.2466 10.8943C17.2871 10.9258 17.4311 11.0464 17.7281 11.05C17.9855 11.0428 18.2663 10.9582 18.5867 10.8133C18.6754 10.7749 18.7709 10.7547 18.8675 10.7539C18.98 10.7539 19.0925 10.7809 19.1888 10.8133H19.1969C19.466 10.9141 19.6424 11.1022 19.6424 11.2993C19.6505 11.4838 19.5056 11.7646 18.8198 12.0418C18.7478 12.0688 18.6632 12.1021 18.5633 12.1255C18.1817 12.2425 17.612 12.427 17.4311 12.8365C17.3312 13.0525 17.3717 13.3297 17.5238 13.642C17.5238 13.651 17.5319 13.651 17.5319 13.651C17.576 13.7626 18.7352 16.3951 21.3155 16.8244C21.3683 16.8333 21.416 16.861 21.4499 16.9023C21.4838 16.9437 21.5016 16.9959 21.5 17.0494C21.5 17.089 21.4919 17.1295 21.4721 17.1655C21.3155 17.5345 20.5208 17.8351 19.1726 18.0439C19.0484 18.0637 18.9881 18.2689 18.9161 18.6019C18.8873 18.7407 18.8537 18.8785 18.8153 19.015C18.7757 19.1473 18.6911 19.2193 18.5471 19.2193H18.5264C18.4346 19.2193 18.3104 19.2076 18.1457 19.1752C17.8159 19.1049 17.4795 19.0699 17.1422 19.0708C16.9055 19.0708 16.6607 19.0915 16.4204 19.1311C15.9227 19.2121 15.4934 19.5208 15.0398 19.8421C14.3945 20.2831 13.6763 20.788 12.6125 20.788H12.3839Z" fill="#0A0D14" style="fill:#0A0D14;fill:color(display-p3 0.0392 0.0510 0.0784);fill-opacity:1;"/>
</svg>
