<svg width="25" height="24" viewBox="0 0 25 24" fill="none" xmlns="http://www.w3.org/2000/svg">
<path d="M7.12436 16.887C5.57219 16.264 4.28524 15.1202 3.48431 13.6519C2.68337 12.1836 2.4184 10.4823 2.73484 8.83997C3.05127 7.19764 3.9294 5.71662 5.21856 4.65103C6.50771 3.58545 8.12752 3.00172 9.80006 3C11.2509 2.99992 12.668 3.43798 13.8656 4.25683C15.0633 5.07568 15.9858 6.23714 16.5123 7.5891C17.7791 7.4702 19.043 7.84368 20.0417 8.63201C21.0405 9.42034 21.6973 10.563 21.8758 11.8228C22.0544 13.0825 21.741 14.3627 21.0007 15.3975C20.2604 16.4324 19.15 17.1424 17.9001 17.3802C17.8956 15.9939 17.3581 14.6623 16.3989 13.6614C15.4398 12.6604 14.1323 12.0667 12.7474 12.0032C11.3625 11.9397 10.0063 12.4113 8.9595 13.3202C7.91273 14.2292 7.25566 15.506 7.12436 16.8861V16.887ZM13.4001 15.8403L15.1677 14.8197L16.0677 16.3785L14.3001 17.4L16.0677 18.4206L15.1677 19.9794L13.4001 18.9588V21H11.6001V18.9588L9.83246 19.9794L8.93246 18.4206L10.7001 17.4L8.93246 16.3794L9.83246 14.8206L11.6001 15.8412V13.8H13.4001V15.8412V15.8403Z" fill="#0A0D14" style="fill:#0A0D14;fill:color(display-p3 0.0392 0.0510 0.0784);fill-opacity:1;"/>
</svg>
