<svg width="25" height="24" viewBox="0 0 25 24" fill="none" xmlns="http://www.w3.org/2000/svg">
<path d="M5.29995 10.1996C5.53865 10.1996 5.76756 10.2944 5.93635 10.4632C6.10513 10.632 6.19995 10.8609 6.19995 11.0996V17.3996C6.19995 17.6383 6.10513 17.8672 5.93635 18.036C5.76756 18.2048 5.53865 18.2996 5.29995 18.2996C5.06126 18.2996 4.83234 18.2048 4.66356 18.036C4.49477 17.8672 4.39995 17.6383 4.39995 17.3996V11.0996C4.39995 10.8609 4.49477 10.632 4.66356 10.4632C4.83234 10.2944 5.06126 10.1996 5.29995 10.1996ZM7.99995 11.0996C8.23865 11.0996 8.46756 11.1944 8.63635 11.3632C8.80513 11.532 8.89995 11.7609 8.89995 11.9996V17.3996C8.89995 17.6383 8.80513 17.8672 8.63635 18.036C8.46756 18.2048 8.23865 18.2996 7.99995 18.2996C7.76126 18.2996 7.53234 18.2048 7.36356 18.036C7.19477 17.8672 7.09995 17.6383 7.09995 17.3996V11.9996C7.09995 11.7609 7.19477 11.532 7.36356 11.3632C7.53234 11.1944 7.76126 11.0996 7.99995 11.0996ZM10.7 7.49962C10.9386 7.49962 11.1676 7.59444 11.3363 7.76322C11.5051 7.932 11.6 8.16092 11.6 8.39962V17.3996C11.6 17.6383 11.5051 17.8672 11.3363 18.036C11.1676 18.2048 10.9386 18.2996 10.7 18.2996C10.4613 18.2996 10.2323 18.2048 10.0636 18.036C9.89477 17.8672 9.79995 17.6383 9.79995 17.3996V8.39962C9.79995 8.16092 9.89477 7.932 10.0636 7.76322C10.2323 7.59444 10.4613 7.49962 10.7 7.49962ZM15.2 6.59962C16.5971 6.59957 17.9399 7.14103 18.9462 8.11024C19.9525 9.07945 20.544 10.401 20.5964 11.7971L20.5991 12.0311C21.3736 12.1415 22.0793 12.5362 22.5789 13.1383C23.0784 13.7404 23.336 14.5068 23.3016 15.2884C23.2671 16.07 22.943 16.8108 22.3924 17.3666C21.8417 17.9224 21.104 18.2534 20.3228 18.2951L20.15 18.2996H16.9991C16.7697 18.2994 16.549 18.2115 16.3822 18.0541C16.2154 17.8966 16.115 17.6814 16.1016 17.4524C16.0882 17.2234 16.1627 16.9979 16.3099 16.822C16.4571 16.6461 16.666 16.533 16.8938 16.5059L17 16.4996H20.1023L20.2265 16.4978C20.5505 16.4804 20.8574 16.3468 21.091 16.1215C21.3246 15.8963 21.4693 15.5944 21.4984 15.2712C21.5276 14.948 21.4394 14.6251 21.2499 14.3616C21.0605 14.0981 20.7824 13.9117 20.4668 13.8365L20.3453 13.8131L18.7523 13.5863L18.8 11.978L18.7964 11.8196C18.7517 10.9281 18.3774 10.0849 17.7461 9.45374C17.1148 8.8226 16.2715 8.44853 15.38 8.40412L15.2 8.39962C14.9588 8.39962 14.7221 8.42302 14.4908 8.46892L14.3 8.51302V17.3996C14.2999 17.6201 14.219 17.8328 14.0725 17.9976C13.926 18.1623 13.7242 18.2675 13.5053 18.2933L13.4 18.2996C13.1613 18.2996 12.9323 18.2048 12.7636 18.036C12.5948 17.8672 12.5 17.6383 12.5 17.3996L12.4991 7.32232C13.3198 6.84737 14.2517 6.59804 15.2 6.59962ZM2.59995 11.9996C2.83865 11.9996 3.06756 12.0944 3.23635 12.2632C3.40513 12.432 3.49995 12.6609 3.49995 12.8996V16.4996C3.49995 16.7383 3.40513 16.9672 3.23635 17.136C3.06756 17.3048 2.83865 17.3996 2.59995 17.3996C2.36126 17.3996 2.13234 17.3048 1.96356 17.136C1.79477 16.9672 1.69995 16.7383 1.69995 16.4996V12.8996C1.69995 12.6609 1.79477 12.432 1.96356 12.2632C2.13234 12.0944 2.36126 11.9996 2.59995 11.9996Z" fill="#0A0D14" style="fill:#0A0D14;fill:color(display-p3 0.0392 0.0510 0.0784);fill-opacity:1;"/>
</svg>
