<svg width="25" height="24" viewBox="0 0 25 24" fill="none" xmlns="http://www.w3.org/2000/svg">
<path d="M11.1176 8.93709C11.3561 8.93709 11.5496 10.8325 11.5496 13.1707L11.5487 13.4866C11.5316 15.6772 11.3453 17.4043 11.1176 17.4043C10.8872 17.4043 10.6991 15.6358 10.6856 13.4083V13.0915C10.6901 10.7893 10.8818 8.93709 11.1176 8.93709ZM9.61995 9.80109C9.85305 9.80109 10.043 11.4211 10.052 13.4497V13.7557C10.043 15.7843 9.85305 17.4043 9.61995 17.4043C9.39045 17.4043 9.20235 15.8248 9.18795 13.8313V13.5253L9.18975 13.2193C9.21225 11.2996 9.39675 9.80109 9.61995 9.80109ZM8.12235 9.80109C8.35185 9.80109 8.53995 11.3806 8.55435 13.3741V13.6801L8.55255 13.9861C8.53005 15.9058 8.34555 17.4043 8.12235 17.4043C7.88925 17.4043 7.69935 15.7843 7.69035 13.7557V13.4497C7.69935 11.4211 7.88925 9.80109 8.12235 9.80109ZM6.62475 10.3195C6.86325 10.3195 7.05675 11.9053 7.05675 13.8619L7.05495 14.1634C7.03695 15.9787 6.85065 17.4043 6.62475 17.4043C6.38895 17.4043 6.19815 15.859 6.19275 13.9375V13.7863C6.19815 11.8648 6.38895 10.3195 6.62475 10.3195ZM5.12715 11.8747C5.36565 11.8747 5.55915 13.1122 5.55915 14.6395V14.7817C5.54745 16.2424 5.35845 17.4043 5.12715 17.4043C4.88865 17.4043 4.69515 16.1668 4.69515 14.6395V14.4973C4.70685 13.0366 4.89585 11.8747 5.12715 11.8747ZM14.8328 7.55469C17.1548 7.55469 19.0808 9.25209 19.439 11.4733C19.8525 11.3546 20.2865 11.3256 20.7121 11.388C21.1378 11.4505 21.5452 11.603 21.9072 11.8355C22.2691 12.068 22.5773 12.375 22.8112 12.7361C23.0451 13.0971 23.1992 13.5039 23.2633 13.9293C23.3274 14.3547 23.3 14.7889 23.183 15.2028C23.0659 15.6168 22.8619 16.001 22.5845 16.3298C22.3071 16.6587 21.9627 16.9245 21.5744 17.1096C21.1861 17.2948 20.7628 17.3949 20.3327 17.4034L20.276 17.4043H12.932C12.7486 17.4043 12.5728 17.3315 12.4432 17.2018C12.3136 17.0722 12.2408 16.8964 12.2408 16.7131V8.34039C13.0075 7.82676 13.9099 7.55323 14.8328 7.55469ZM3.62955 11.7019C3.86805 11.7019 4.06155 12.9007 4.06155 14.3803V14.5207C4.04895 15.9337 3.86085 17.0587 3.62955 17.0587C3.39555 17.0587 3.20385 15.8977 3.19755 14.4505V14.3803C3.19755 12.9007 3.39105 11.7019 3.62955 11.7019ZM2.13195 12.5659C2.37045 12.5659 2.56395 13.4173 2.56395 14.4667V14.5846C2.54955 15.5791 2.36145 16.3675 2.13195 16.3675C1.89345 16.3675 1.69995 15.5161 1.69995 14.4667V14.3488C1.71435 13.3543 1.90245 12.5659 2.13195 12.5659Z" fill="#0A0D14" style="fill:#0A0D14;fill:color(display-p3 0.0392 0.0510 0.0784);fill-opacity:1;"/>
</svg>
