<svg width="25" height="24" viewBox="0 0 25 24" fill="none" xmlns="http://www.w3.org/2000/svg">
<path d="M4.29199 17.4481C5.53056 11.9678 8.17694 6.90519 11.9699 2.76011C12.0373 2.68674 12.1193 2.62817 12.2105 2.5881C12.3018 2.54803 12.4003 2.52734 12.5 2.52734C12.5996 2.52734 12.6982 2.54803 12.7895 2.5881C12.8807 2.62817 12.9627 2.68674 13.0301 2.76011C13.1795 2.92211 13.3037 3.05891 13.4018 3.16961C16.9987 7.2393 19.5115 12.1501 20.708 17.4481C18.7811 17.854 16.802 18.1204 14.7824 18.2347L12.9023 21.9949C12.8649 22.0696 12.8074 22.1323 12.7364 22.1762C12.6653 22.2201 12.5835 22.2433 12.5 22.2433C12.4165 22.2433 12.3346 22.2201 12.2636 22.1762C12.1925 22.1323 12.1351 22.0696 12.0977 21.9949L10.2176 18.2347C8.2254 18.1221 6.24456 17.8592 4.29199 17.4481ZM12.5 14.6995C13.2161 14.6995 13.9028 14.415 14.4092 13.9087C14.9155 13.4024 15.2 12.7156 15.2 11.9995C15.2 11.2834 14.9155 10.5967 14.4092 10.0903C13.9028 9.58398 13.2161 9.29951 12.5 9.29951C11.7839 9.29951 11.0972 9.58398 10.5908 10.0903C10.0845 10.5967 9.79999 11.2834 9.79999 11.9995C9.79999 12.7156 10.0845 13.4024 10.5908 13.9087C11.0972 14.415 11.7839 14.6995 12.5 14.6995Z" fill="#0A0D14" style="fill:#0A0D14;fill:color(display-p3 0.0392 0.0510 0.0784);fill-opacity:1;"/>
</svg>
