<svg width="25" height="24" viewBox="0 0 25 24" fill="none" xmlns="http://www.w3.org/2000/svg">
<path d="M4.29199 17.4481C5.53056 11.9678 8.17694 6.90519 11.9699 2.76011C12.0373 2.68674 12.1193 2.62817 12.2105 2.5881C12.3018 2.54803 12.4003 2.52734 12.5 2.52734C12.5996 2.52734 12.6982 2.54803 12.7895 2.5881C12.8807 2.62817 12.9627 2.68674 13.0301 2.76011C13.1795 2.92211 13.3037 3.05891 13.4018 3.16961C16.9987 7.2393 19.5115 12.1501 20.708 17.4481C18.7811 17.854 16.802 18.1204 14.7824 18.2347L12.9023 21.9949C12.8649 22.0696 12.8074 22.1323 12.7364 22.1762C12.6653 22.2201 12.5835 22.2433 12.5 22.2433C12.4165 22.2433 12.3346 22.2201 12.2636 22.1762C12.1925 22.1323 12.1351 22.0696 12.0977 21.9949L10.2176 18.2347C8.2254 18.1221 6.24456 17.8592 4.29199 17.4481ZM10.3202 16.4374L11.3615 16.4968L12.5 18.7738L13.6385 16.4968L14.6798 16.4374C15.954 16.3653 17.2237 16.2289 18.4841 16.0288C17.29 11.9355 15.2515 8.13783 12.5 4.88051C9.74848 8.13783 7.70998 11.9355 6.51589 16.0288C7.77139 16.2286 9.04039 16.3654 10.3202 16.4374ZM12.5 14.6995C11.7839 14.6995 11.0972 14.415 10.5908 13.9087C10.0845 13.4024 9.79999 12.7156 9.79999 11.9995C9.79999 11.2834 10.0845 10.5967 10.5908 10.0903C11.0972 9.58398 11.7839 9.29951 12.5 9.29951C13.2161 9.29951 13.9028 9.58398 14.4092 10.0903C14.9155 10.5967 15.2 11.2834 15.2 11.9995C15.2 12.7156 14.9155 13.4024 14.4092 13.9087C13.9028 14.415 13.2161 14.6995 12.5 14.6995ZM12.5 12.8995C12.7387 12.8995 12.9676 12.8047 13.1364 12.6359C13.3052 12.4671 13.4 12.2382 13.4 11.9995C13.4 11.7608 13.3052 11.5319 13.1364 11.3631C12.9676 11.1943 12.7387 11.0995 12.5 11.0995C12.2613 11.0995 12.0324 11.1943 11.8636 11.3631C11.6948 11.5319 11.6 11.7608 11.6 11.9995C11.6 12.2382 11.6948 12.4671 11.8636 12.6359C12.0324 12.8047 12.2613 12.8995 12.5 12.8995Z" fill="#0A0D14" style="fill:#0A0D14;fill:color(display-p3 0.0392 0.0510 0.0784);fill-opacity:1;"/>
</svg>
