<svg width="25" height="24" viewBox="0 0 25 24" fill="none" xmlns="http://www.w3.org/2000/svg">
<path d="M14 6.32812C15.0097 6.32812 15.8281 5.50964 15.8281 4.5H16.6719C16.6719 5.50964 17.4903 6.32812 18.5 6.32812V7.17188C17.4903 7.17188 16.6719 7.99036 16.6719 9H15.8281C15.8281 7.99036 15.0097 7.17188 14 7.17188V6.32812ZM4.25 11.25C6.73528 11.25 8.75 9.23528 8.75 6.75H10.25C10.25 9.23528 12.2647 11.25 14.75 11.25V12.75C12.2647 12.75 10.25 14.7647 10.25 17.25H8.75C8.75 14.7647 6.73528 12.75 4.25 12.75V11.25ZM7.15701 12C8.14038 12.5457 8.95432 13.3596 9.5 14.343C10.0457 13.3596 10.8596 12.5457 11.843 12C10.8596 11.4543 10.0457 10.6404 9.5 9.65701C8.95432 10.6404 8.14038 11.4543 7.15701 12ZM16.4375 13.5C16.4375 14.8462 15.3462 15.9375 14 15.9375V17.0625C15.3462 17.0625 16.4375 18.1538 16.4375 19.5H17.5625C17.5625 18.1538 18.6538 17.0625 20 17.0625V15.9375C18.6538 15.9375 17.5625 14.8462 17.5625 13.5H16.4375Z" fill="#0A0D14" style="fill:#0A0D14;fill:color(display-p3 0.0392 0.0510 0.0784);fill-opacity:1;"/>
</svg>
