<svg width="25" height="24" viewBox="0 0 25 24" fill="none" xmlns="http://www.w3.org/2000/svg">
<path d="M6.19999 5.69844V18.2984H18.8V5.69844H6.19999ZM5.29999 3.89844H19.7C19.9387 3.89844 20.1676 3.99326 20.3364 4.16204C20.5052 4.33082 20.6 4.55974 20.6 4.79844V19.1984C20.6 19.4371 20.5052 19.6661 20.3364 19.8348C20.1676 20.0036 19.9387 20.0984 19.7 20.0984H5.29999C5.0613 20.0984 4.83238 20.0036 4.6636 19.8348C4.49482 19.6661 4.39999 19.4371 4.39999 19.1984V4.79844C4.39999 4.55974 4.49482 4.33082 4.6636 4.16204C4.83238 3.99326 5.0613 3.89844 5.29999 3.89844ZM7.99999 8.39844C7.7613 8.39844 7.53238 8.30362 7.3636 8.13483C7.19482 7.96605 7.09999 7.73713 7.09999 7.49844C7.09999 7.25974 7.19482 7.03082 7.3636 6.86204C7.53238 6.69326 7.7613 6.59844 7.99999 6.59844C8.23869 6.59844 8.46761 6.69326 8.63639 6.86204C8.80517 7.03082 8.89999 7.25974 8.89999 7.49844C8.89999 7.73713 8.80517 7.96605 8.63639 8.13483C8.46761 8.30362 8.23869 8.39844 7.99999 8.39844ZM17 8.39844C16.7613 8.39844 16.5324 8.30362 16.3636 8.13483C16.1948 7.96605 16.1 7.73713 16.1 7.49844C16.1 7.25974 16.1948 7.03082 16.3636 6.86204C16.5324 6.69326 16.7613 6.59844 17 6.59844C17.2387 6.59844 17.4676 6.69326 17.6364 6.86204C17.8052 7.03082 17.9 7.25974 17.9 7.49844C17.9 7.73713 17.8052 7.96605 17.6364 8.13483C17.4676 8.30362 17.2387 8.39844 17 8.39844ZM17 17.3984C16.7613 17.3984 16.5324 17.3036 16.3636 17.1348C16.1948 16.9661 16.1 16.7371 16.1 16.4984C16.1 16.2597 16.1948 16.0308 16.3636 15.862C16.5324 15.6933 16.7613 15.5984 17 15.5984C17.2387 15.5984 17.4676 15.6933 17.6364 15.862C17.8052 16.0308 17.9 16.2597 17.9 16.4984C17.9 16.7371 17.8052 16.9661 17.6364 17.1348C17.4676 17.3036 17.2387 17.3984 17 17.3984ZM7.99999 17.3984C7.7613 17.3984 7.53238 17.3036 7.3636 17.1348C7.19482 16.9661 7.09999 16.7371 7.09999 16.4984C7.09999 16.2597 7.19482 16.0308 7.3636 15.862C7.53238 15.6933 7.7613 15.5984 7.99999 15.5984C8.23869 15.5984 8.46761 15.6933 8.63639 15.862C8.80517 16.0308 8.89999 16.2597 8.89999 16.4984C8.89999 16.7371 8.80517 16.9661 8.63639 17.1348C8.46761 17.3036 8.23869 17.3984 7.99999 17.3984ZM12.5 14.6984C13.2161 14.6984 13.9028 14.414 14.4092 13.9076C14.9155 13.4013 15.2 12.7145 15.2 11.9984C15.2 11.2824 14.9155 10.5956 14.4092 10.0892C13.9028 9.5829 13.2161 9.29844 12.5 9.29844C11.7839 9.29844 11.0972 9.5829 10.5908 10.0892C10.0845 10.5956 9.79999 11.2824 9.79999 11.9984C9.79999 12.7145 10.0845 13.4013 10.5908 13.9076C11.0972 14.414 11.7839 14.6984 12.5 14.6984ZM12.5 16.4984C11.3065 16.4984 10.1619 16.0243 9.31801 15.1804C8.4741 14.3365 7.99999 13.1919 7.99999 11.9984C7.99999 10.805 8.4741 9.66037 9.31801 8.81646C10.1619 7.97254 11.3065 7.49844 12.5 7.49844C13.6935 7.49844 14.8381 7.97254 15.682 8.81646C16.5259 9.66037 17 10.805 17 11.9984C17 13.1919 16.5259 14.3365 15.682 15.1804C14.8381 16.0243 13.6935 16.4984 12.5 16.4984ZM12.5 12.8984C12.2613 12.8984 12.0324 12.8036 11.8636 12.6348C11.6948 12.4661 11.6 12.2371 11.6 11.9984C11.6 11.7597 11.6948 11.5308 11.8636 11.362C12.0324 11.1933 12.2613 11.0984 12.5 11.0984C12.7387 11.0984 12.9676 11.1933 13.1364 11.362C13.3052 11.5308 13.4 11.7597 13.4 11.9984C13.4 12.2371 13.3052 12.4661 13.1364 12.6348C12.9676 12.8036 12.7387 12.8984 12.5 12.8984Z" fill="#0A0D14" style="fill:#0A0D14;fill:color(display-p3 0.0392 0.0510 0.0784);fill-opacity:1;"/>
</svg>
