<svg width="25" height="24" viewBox="0 0 25 24" fill="none" xmlns="http://www.w3.org/2000/svg">
<path d="M6.20002 4.8V19.2H18.8V4.8H6.20002ZM5.30002 3H19.7C19.9387 3 20.1676 3.09482 20.3364 3.2636C20.5052 3.43239 20.6 3.66131 20.6 3.9V20.1C20.6 20.3387 20.5052 20.5676 20.3364 20.7364C20.1676 20.9052 19.9387 21 19.7 21H5.30002C5.06133 21 4.83241 20.9052 4.66363 20.7364C4.49485 20.5676 4.40002 20.3387 4.40002 20.1V3.9C4.40002 3.66131 4.49485 3.43239 4.66363 3.2636C4.83241 3.09482 5.06133 3 5.30002 3ZM12.5 16.5C13.0968 16.5 13.6691 16.2629 14.091 15.841C14.513 15.419 14.75 14.8467 14.75 14.25C14.75 13.6533 14.513 13.081 14.091 12.659C13.6691 12.2371 13.0968 12 12.5 12C11.9033 12 11.331 12.2371 10.909 12.659C10.4871 13.081 10.25 13.6533 10.25 14.25C10.25 14.8467 10.4871 15.419 10.909 15.841C11.331 16.2629 11.9033 16.5 12.5 16.5ZM12.5 18.3C11.4259 18.3 10.3958 17.8733 9.63624 17.1138C8.87672 16.3543 8.45002 15.3241 8.45002 14.25C8.45002 13.1759 8.87672 12.1457 9.63624 11.3862C10.3958 10.6267 11.4259 10.2 12.5 10.2C13.5742 10.2 14.6043 10.6267 15.3638 11.3862C16.1233 12.1457 16.55 13.1759 16.55 14.25C16.55 15.3241 16.1233 16.3543 15.3638 17.1138C14.6043 17.8733 13.5742 18.3 12.5 18.3ZM12.5 8.85C12.3227 8.85 12.1472 8.81508 11.9834 8.74724C11.8196 8.67939 11.6708 8.57995 11.5454 8.45459C11.4201 8.32924 11.3206 8.18041 11.2528 8.01662C11.1849 7.85283 11.15 7.67728 11.15 7.5C11.15 7.32272 11.1849 7.14717 11.2528 6.98338C11.3206 6.81959 11.4201 6.67076 11.5454 6.54541C11.6708 6.42005 11.8196 6.32061 11.9834 6.25276C12.1472 6.18492 12.3227 6.15 12.5 6.15C12.8581 6.15 13.2014 6.29223 13.4546 6.54541C13.7078 6.79858 13.85 7.14196 13.85 7.5C13.85 7.85804 13.7078 8.20142 13.4546 8.45459C13.2014 8.70777 12.8581 8.85 12.5 8.85Z" fill="#0A0D14" style="fill:#0A0D14;fill:color(display-p3 0.0392 0.0510 0.0784);fill-opacity:1;"/>
</svg>
