<svg width="25" height="24" viewBox="0 0 25 24" fill="none" xmlns="http://www.w3.org/2000/svg">
<path d="M16.2003 9.72371C15.8195 6.77672 13.3006 4.5 10.25 4.5C6.93629 4.5 4.25 7.18629 4.25 10.5C4.25 11.9193 4.7428 13.2235 5.56663 14.2508C6.17263 15.0065 6.50025 15.8439 6.50019 16.7296L6.5 19.5H13.25L13.2508 17.25H14.75C15.5785 17.25 16.25 16.5785 16.25 15.75V13.5533L17.7195 12.9238C17.9769 12.8135 17.9993 12.5525 17.8882 12.3778L16.2003 9.72371ZM5.75 10.5C5.75 8.01472 7.76472 6 10.25 6C12.5182 6 14.4249 7.68856 14.7126 9.91588L14.7554 10.247L15.9123 12.0661L14.75 12.5639V15.75H11.7513L11.7505 18H8.0001L8.00019 16.7297C8.00027 15.5004 7.55724 14.3355 6.73684 13.3124C6.10114 12.5197 5.75 11.5387 5.75 10.5ZM19.3651 16.5768L18.117 15.7447C18.8327 14.6732 19.25 13.3853 19.25 12.0001C19.25 10.6147 18.8327 9.32692 18.117 8.25541L19.3651 7.42328C20.24 8.73289 20.75 10.3069 20.75 12.0001C20.75 13.6932 20.24 15.2671 19.3651 16.5768Z" fill="#0A0D14" style="fill:#0A0D14;fill:color(display-p3 0.0392 0.0510 0.0784);fill-opacity:1;"/>
</svg>
