<svg width="25" height="24" viewBox="0 0 25 24" fill="none" xmlns="http://www.w3.org/2000/svg">
<path d="M10.25 4.5C13.3006 4.5 15.8195 6.77672 16.2003 9.72371L17.8882 12.3778C17.9993 12.5525 17.9769 12.8135 17.7195 12.9238L16.25 13.5533V15.75C16.25 16.5785 15.5785 17.25 14.75 17.25H13.2508L13.25 19.5H6.5L6.50019 16.7296C6.50025 15.8439 6.17263 15.0065 5.56663 14.2508C4.7428 13.2235 4.25 11.9193 4.25 10.5C4.25 7.18629 6.93629 4.5 10.25 4.5ZM19.3651 16.5768L18.117 15.7447C18.8327 14.6732 19.25 13.3853 19.25 12.0001C19.25 10.6147 18.8327 9.32692 18.117 8.25541L19.3651 7.42328C20.24 8.73289 20.75 10.3069 20.75 12.0001C20.75 13.6932 20.24 15.2671 19.3651 16.5768Z" fill="#0A0D14" style="fill:#0A0D14;fill:color(display-p3 0.0392 0.0510 0.0784);fill-opacity:1;"/>
</svg>
