<svg width="25" height="24" viewBox="0 0 25 24" fill="none" xmlns="http://www.w3.org/2000/svg">
<path d="M5.29999 3.89844H19.7C19.9387 3.89844 20.1676 3.99326 20.3364 4.16204C20.5052 4.33082 20.6 4.55974 20.6 4.79844V19.1984C20.6 19.4371 20.5052 19.6661 20.3364 19.8348C20.1676 20.0036 19.9387 20.0984 19.7 20.0984H5.29999C5.0613 20.0984 4.83238 20.0036 4.6636 19.8348C4.49482 19.6661 4.39999 19.4371 4.39999 19.1984V4.79844C4.39999 4.55974 4.49482 4.33082 4.6636 4.16204C4.83238 3.99326 5.0613 3.89844 5.29999 3.89844ZM12.5 16.4984C11.3065 16.4984 10.1619 16.0243 9.31801 15.1804C8.4741 14.3365 7.99999 13.1919 7.99999 11.9984C7.99999 10.805 8.4741 9.66037 9.31801 8.81646C10.1619 7.97254 11.3065 7.49844 12.5 7.49844C13.6935 7.49844 14.8381 7.97254 15.682 8.81646C16.5259 9.66037 17 10.805 17 11.9984C17 13.1919 16.5259 14.3365 15.682 15.1804C14.8381 16.0243 13.6935 16.4984 12.5 16.4984ZM12.5 18.2984C13.3273 18.2984 14.1465 18.1355 14.9109 17.8189C15.6753 17.5023 16.3698 17.0382 16.9548 16.4532C17.5398 15.8682 18.0038 15.1737 18.3204 14.4093C18.637 13.645 18.8 12.8258 18.8 11.9984C18.8 11.1711 18.637 10.3519 18.3204 9.58753C18.0038 8.82318 17.5398 8.12867 16.9548 7.54366C16.3698 6.95866 15.6753 6.4946 14.9109 6.178C14.1465 5.86139 13.3273 5.69844 12.5 5.69844C10.8291 5.69844 9.2267 6.36219 8.04522 7.54366C6.86374 8.72514 6.19999 10.3276 6.19999 11.9984C6.19999 13.6693 6.86374 15.2717 8.04522 16.4532C9.2267 17.6347 10.8291 18.2984 12.5 18.2984ZM12.5 13.7984C12.9774 13.7984 13.4352 13.6088 13.7728 13.2712C14.1104 12.9337 14.3 12.4758 14.3 11.9984C14.3 11.521 14.1104 11.0632 13.7728 10.7256C13.4352 10.3881 12.9774 10.1984 12.5 10.1984C12.0226 10.1984 11.5648 10.3881 11.2272 10.7256C10.8896 11.0632 10.7 11.521 10.7 11.9984C10.7 12.4758 10.8896 12.9337 11.2272 13.2712C11.5648 13.6088 12.0226 13.7984 12.5 13.7984Z" fill="#0A0D14" style="fill:#0A0D14;fill:color(display-p3 0.0392 0.0510 0.0784);fill-opacity:1;"/>
</svg>
