<svg width="25" height="24" viewBox="0 0 25 24" fill="none" xmlns="http://www.w3.org/2000/svg">
<path d="M5.30002 3H19.7C19.9387 3 20.1676 3.09482 20.3364 3.2636C20.5052 3.43239 20.6 3.66131 20.6 3.9V20.1C20.6 20.3387 20.5052 20.5676 20.3364 20.7364C20.1676 20.9052 19.9387 21 19.7 21H5.30002C5.06133 21 4.83241 20.9052 4.66363 20.7364C4.49485 20.5676 4.40002 20.3387 4.40002 20.1V3.9C4.40002 3.66131 4.49485 3.43239 4.66363 3.2636C4.83241 3.09482 5.06133 3 5.30002 3ZM12.5 19.2C13.6935 19.2 14.8381 18.7259 15.682 17.882C16.5259 17.0381 17 15.8935 17 14.7C17 13.5065 16.5259 12.3619 15.682 11.518C14.8381 10.6741 13.6935 10.2 12.5 10.2C11.3066 10.2 10.162 10.6741 9.31804 11.518C8.47413 12.3619 8.00002 13.5065 8.00002 14.7C8.00002 15.8935 8.47413 17.0381 9.31804 17.882C10.162 18.7259 11.3066 19.2 12.5 19.2ZM12.5 8.4C12.8581 8.4 13.2014 8.25777 13.4546 8.00459C13.7078 7.75142 13.85 7.40804 13.85 7.05C13.85 6.69196 13.7078 6.34858 13.4546 6.09541C13.2014 5.84223 12.8581 5.7 12.5 5.7C12.142 5.7 11.7986 5.84223 11.5454 6.09541C11.2923 6.34858 11.15 6.69196 11.15 7.05C11.15 7.40804 11.2923 7.75142 11.5454 8.00459C11.7986 8.25777 12.142 8.4 12.5 8.4ZM12.5 17.4C11.7839 17.4 11.0972 17.1155 10.5908 16.6092C10.0845 16.1028 9.80002 15.4161 9.80002 14.7C9.80002 13.9839 10.0845 13.2972 10.5908 12.7908C11.0972 12.2845 11.7839 12 12.5 12C13.2161 12 13.9029 12.2845 14.4092 12.7908C14.9156 13.2972 15.2 13.9839 15.2 14.7C15.2 15.4161 14.9156 16.1028 14.4092 16.6092C13.9029 17.1155 13.2161 17.4 12.5 17.4Z" fill="#0A0D14" style="fill:#0A0D14;fill:color(display-p3 0.0392 0.0510 0.0784);fill-opacity:1;"/>
</svg>
