<svg width="25" height="24" viewBox="0 0 25 24" fill="none" xmlns="http://www.w3.org/2000/svg">
<path d="M5.29999 3.89844H19.7C19.9387 3.89844 20.1676 3.99326 20.3364 4.16204C20.5052 4.33082 20.6 4.55974 20.6 4.79844V19.1984C20.6 19.4371 20.5052 19.6661 20.3364 19.8348C20.1676 20.0036 19.9387 20.0984 19.7 20.0984H5.29999C5.0613 20.0984 4.83238 20.0036 4.6636 19.8348C4.49482 19.6661 4.39999 19.4371 4.39999 19.1984V4.79844C4.39999 4.55974 4.49482 4.33082 4.6636 4.16204C4.83238 3.99326 5.0613 3.89844 5.29999 3.89844ZM12.5 15.5984C11.5452 15.5984 10.6295 15.2192 9.95441 14.544C9.27928 13.8689 8.89999 12.9532 8.89999 11.9984C8.89999 11.0437 9.27928 10.128 9.95441 9.45285C10.6295 8.77772 11.5452 8.39844 12.5 8.39844C13.4548 8.39844 14.3704 8.77772 15.0456 9.45285C15.7207 10.128 16.1 11.0437 16.1 11.9984C16.1 12.9532 15.7207 13.8689 15.0456 14.544C14.3704 15.2192 13.4548 15.5984 12.5 15.5984ZM12.5 17.3984C13.9322 17.3984 15.3057 16.8295 16.3184 15.8168C17.3311 14.8041 17.9 13.4306 17.9 11.9984C17.9 10.5663 17.3311 9.19276 16.3184 8.18006C15.3057 7.16736 13.9322 6.59844 12.5 6.59844C11.0678 6.59844 9.69431 7.16736 8.68162 8.18006C7.66892 9.19276 7.09999 10.5663 7.09999 11.9984C7.09999 13.4306 7.66892 14.8041 8.68162 15.8168C9.69431 16.8295 11.0678 17.3984 12.5 17.3984ZM7.09999 7.49844C7.33869 7.49844 7.56761 7.40362 7.73639 7.23483C7.90517 7.06605 7.99999 6.83713 7.99999 6.59844C7.99999 6.35974 7.90517 6.13082 7.73639 5.96204C7.56761 5.79326 7.33869 5.69844 7.09999 5.69844C6.8613 5.69844 6.63238 5.79326 6.4636 5.96204C6.29482 6.13082 6.19999 6.35974 6.19999 6.59844C6.19999 6.83713 6.29482 7.06605 6.4636 7.23483C6.63238 7.40362 6.8613 7.49844 7.09999 7.49844ZM17.9 7.49844C18.1387 7.49844 18.3676 7.40362 18.5364 7.23483C18.7052 7.06605 18.8 6.83713 18.8 6.59844C18.8 6.35974 18.7052 6.13082 18.5364 5.96204C18.3676 5.79326 18.1387 5.69844 17.9 5.69844C17.6613 5.69844 17.4324 5.79326 17.2636 5.96204C17.0948 6.13082 17 6.35974 17 6.59844C17 6.83713 17.0948 7.06605 17.2636 7.23483C17.4324 7.40362 17.6613 7.49844 17.9 7.49844ZM17.9 18.2984C18.1387 18.2984 18.3676 18.2036 18.5364 18.0348C18.7052 17.8661 18.8 17.6371 18.8 17.3984C18.8 17.1597 18.7052 16.9308 18.5364 16.762C18.3676 16.5933 18.1387 16.4984 17.9 16.4984C17.6613 16.4984 17.4324 16.5933 17.2636 16.762C17.0948 16.9308 17 17.1597 17 17.3984C17 17.6371 17.0948 17.8661 17.2636 18.0348C17.4324 18.2036 17.6613 18.2984 17.9 18.2984ZM7.09999 18.2984C7.33869 18.2984 7.56761 18.2036 7.73639 18.0348C7.90517 17.8661 7.99999 17.6371 7.99999 17.3984C7.99999 17.1597 7.90517 16.9308 7.73639 16.762C7.56761 16.5933 7.33869 16.4984 7.09999 16.4984C6.8613 16.4984 6.63238 16.5933 6.4636 16.762C6.29482 16.9308 6.19999 17.1597 6.19999 17.3984C6.19999 17.6371 6.29482 17.8661 6.4636 18.0348C6.63238 18.2036 6.8613 18.2984 7.09999 18.2984ZM12.5 13.3484C12.858 13.3484 13.2014 13.2062 13.4546 12.953C13.7078 12.6999 13.85 12.3565 13.85 11.9984C13.85 11.6404 13.7078 11.297 13.4546 11.0438C13.2014 10.7907 12.858 10.6484 12.5 10.6484C12.142 10.6484 11.7986 10.7907 11.5454 11.0438C11.2922 11.297 11.15 11.6404 11.15 11.9984C11.15 12.3565 11.2922 12.6999 11.5454 12.953C11.7986 13.2062 12.142 13.3484 12.5 13.3484Z" fill="#0A0D14" style="fill:#0A0D14;fill:color(display-p3 0.0392 0.0510 0.0784);fill-opacity:1;"/>
</svg>
