<svg width="25" height="24" viewBox="0 0 25 24" fill="none" xmlns="http://www.w3.org/2000/svg">
<path d="M6.19999 5.69844V18.2984H18.8V5.69844H6.19999ZM5.29999 3.89844H19.7C19.9387 3.89844 20.1676 3.99326 20.3364 4.16204C20.5052 4.33082 20.6 4.55974 20.6 4.79844V19.1984C20.6 19.4371 20.5052 19.6661 20.3364 19.8348C20.1676 20.0036 19.9387 20.0984 19.7 20.0984H5.29999C5.0613 20.0984 4.83238 20.0036 4.6636 19.8348C4.49482 19.6661 4.39999 19.4371 4.39999 19.1984V4.79844C4.39999 4.55974 4.49482 4.33082 4.6636 4.16204C4.83238 3.99326 5.0613 3.89844 5.29999 3.89844ZM12.5 15.5984C13.4548 15.5984 14.3704 15.2192 15.0456 14.544C15.7207 13.8689 16.1 12.9532 16.1 11.9984C16.1 11.0437 15.7207 10.128 15.0456 9.45285C14.3704 8.77772 13.4548 8.39844 12.5 8.39844C11.5452 8.39844 10.6295 8.77772 9.95441 9.45285C9.27928 10.128 8.89999 11.0437 8.89999 11.9984C8.89999 12.9532 9.27928 13.8689 9.95441 14.544C10.6295 15.2192 11.5452 15.5984 12.5 15.5984ZM12.5 17.3984C11.0678 17.3984 9.69431 16.8295 8.68162 15.8168C7.66892 14.8041 7.09999 13.4306 7.09999 11.9984C7.09999 10.5663 7.66892 9.19276 8.68162 8.18006C9.69431 7.16736 11.0678 6.59844 12.5 6.59844C13.9322 6.59844 15.3057 7.16736 16.3184 8.18006C17.3311 9.19276 17.9 10.5663 17.9 11.9984C17.9 13.4306 17.3311 14.8041 16.3184 15.8168C15.3057 16.8295 13.9322 17.3984 12.5 17.3984ZM12.5 13.3484C12.142 13.3484 11.7986 13.2062 11.5454 12.953C11.2922 12.6999 11.15 12.3565 11.15 11.9984C11.15 11.6404 11.2922 11.297 11.5454 11.0438C11.7986 10.7907 12.142 10.6484 12.5 10.6484C12.858 10.6484 13.2014 10.7907 13.4546 11.0438C13.7078 11.297 13.85 11.6404 13.85 11.9984C13.85 12.3565 13.7078 12.6999 13.4546 12.953C13.2014 13.2062 12.858 13.3484 12.5 13.3484Z" fill="#0A0D14" style="fill:#0A0D14;fill:color(display-p3 0.0392 0.0510 0.0784);fill-opacity:1;"/>
</svg>
