<svg width="25" height="24" viewBox="0 0 25 24" fill="none" xmlns="http://www.w3.org/2000/svg">
<path d="M11.9492 3L13.5791 3.0045L14.3387 3.0171C20.7836 3.1647 21.4829 4.3779 21.5 11.7174L21.4946 13.0782L21.482 13.8378C21.3344 20.2827 20.1212 20.982 12.7817 20.9991L11.4209 20.9937L10.6217 20.9802C4.454 20.8335 3.5774 19.695 3.5054 13.0782L3.5 11.721L3.5054 10.92L3.518 10.1415C3.6665 3.7938 4.8563 3.0342 11.9492 3ZM14.408 4.8081L11.4938 4.7991L10.304 4.8081C5.3639 4.8819 5.3144 5.5461 5.3009 11.4708L5.3018 13.4283L5.3108 14.3643C5.3909 18.8481 6.0245 19.173 11.0708 19.1964L14.1794 19.1946L14.8778 19.1865C19.475 19.1046 19.6901 18.4332 19.7 12.9972L19.6973 10.5285L19.6865 9.579C19.6019 5.2626 18.98 4.854 14.408 4.8063V4.8081ZM9.125 7.4991C11.2136 7.4991 13.2166 8.32878 14.6935 9.80563C16.1703 11.2825 17 13.2855 17 15.3741V15.8988C17 15.9776 16.9845 16.0557 16.9543 16.1285C16.9241 16.2014 16.8799 16.2675 16.8242 16.3233C16.7684 16.379 16.7023 16.4232 16.6294 16.4534C16.5566 16.4836 16.4785 16.4991 16.3997 16.4991H13.1003C13.0215 16.4991 12.9434 16.4836 12.8706 16.4534C12.7977 16.4232 12.7316 16.379 12.6758 16.3233C12.6201 16.2675 12.5759 16.2014 12.5457 16.1285C12.5155 16.0557 12.5 15.9776 12.5 15.8988V15.3741C12.5 14.479 12.1444 13.6205 11.5115 12.9876C10.8786 12.3547 10.0201 11.9991 9.125 11.9991H8.6003C8.44109 11.9991 8.2884 11.9359 8.17582 11.8233C8.06325 11.7107 8 11.558 8 11.3988V8.0994C8 7.7682 8.2691 7.4991 8.6003 7.4991H9.125Z" fill="#0A0D14" style="fill:#0A0D14;fill:color(display-p3 0.0392 0.0510 0.0784);fill-opacity:1;"/>
</svg>
