<svg width="25" height="24" viewBox="0 0 25 24" fill="none" xmlns="http://www.w3.org/2000/svg">
<path d="M13.58 3.0045C20.816 3.0828 21.5 4.1241 21.5 11.9991L21.4946 13.0791C21.4163 20.3151 20.375 20.9991 12.5 20.9991L11.42 20.9937C4.5278 20.919 3.5801 19.9713 3.5054 13.0782L3.5 11.721L3.5054 10.92C3.5819 3.855 4.5764 3.036 11.9492 3L13.5791 3.0045H13.58ZM9.125 7.4991H8.6003C8.45647 7.49902 8.31739 7.55058 8.20837 7.6444C8.09936 7.73822 8.02765 7.86806 8.0063 8.0103L8 8.0994V11.3988C8 11.7003 8.2223 11.9496 8.5112 11.9928L8.6003 11.9991H9.125C9.989 11.999 10.8201 12.3303 11.4472 12.9247C12.0742 13.5191 12.4494 14.3313 12.4955 15.1941L12.5 15.3741V15.8988C12.5 16.2003 12.7223 16.4496 13.0112 16.4928L13.1003 16.4991H16.3997C16.5435 16.4992 16.6826 16.4476 16.7916 16.3538C16.9006 16.26 16.9724 16.1301 16.9937 15.9879L17 15.8988V15.3741C17 13.3258 16.2018 11.358 14.7749 9.88846C13.348 8.41888 11.4047 7.5631 9.3572 7.5027L9.125 7.4991Z" fill="#0A0D14" style="fill:#0A0D14;fill:color(display-p3 0.0392 0.0510 0.0784);fill-opacity:1;"/>
</svg>
