<svg width="25" height="24" viewBox="0 0 25 24" fill="none" xmlns="http://www.w3.org/2000/svg">
<path d="M9.82879 12.0013L7.09999 10.0753V13.9273L9.82879 12.0013ZM6.00919 16.9009C5.94178 16.9484 5.86262 16.9764 5.78035 16.982C5.69809 16.9876 5.61587 16.9704 5.54268 16.9324C5.4695 16.8944 5.40815 16.8371 5.36535 16.7666C5.32255 16.6961 5.29994 16.6152 5.29999 16.5328V7.46978C5.29994 7.38732 5.32255 7.30644 5.36535 7.23596C5.40815 7.16548 5.4695 7.10811 5.54268 7.07013C5.61587 7.03214 5.69809 7.01499 5.78035 7.02056C5.86262 7.02612 5.94178 7.05418 6.00919 7.10168L12.4289 11.6341C12.4876 11.6757 12.5354 11.7307 12.5685 11.7946C12.6015 11.8585 12.6188 11.9294 12.6188 12.0013C12.6188 12.0732 12.6015 12.1441 12.5685 12.208C12.5354 12.2719 12.4876 12.3269 12.4289 12.3685L6.00919 16.9009ZM15.2 13.9273L17.9288 12.0013L15.2 10.0753V13.9273ZM13.4 7.46978C13.3999 7.38732 13.4226 7.30644 13.4654 7.23596C13.5082 7.16548 13.5695 7.10811 13.6427 7.07013C13.7159 7.03214 13.7981 7.01499 13.8804 7.02056C13.9626 7.02612 14.0418 7.05418 14.1092 7.10168L20.5289 11.6341C20.5876 11.6757 20.6354 11.7307 20.6685 11.7946C20.7015 11.8585 20.7188 11.9294 20.7188 12.0013C20.7188 12.0732 20.7015 12.1441 20.6685 12.208C20.6354 12.2719 20.5876 12.3269 20.5289 12.3685L14.1092 16.9009C14.0418 16.9484 13.9626 16.9764 13.8804 16.982C13.7981 16.9876 13.7159 16.9704 13.6427 16.9324C13.5695 16.8944 13.5082 16.8371 13.4654 16.7666C13.4226 16.6961 13.3999 16.6152 13.4 16.5328V7.46978Z" fill="#0A0D14" style="fill:#0A0D14;fill:color(display-p3 0.0392 0.0510 0.0784);fill-opacity:1;"/>
</svg>
