<svg width="25" height="24" viewBox="0 0 25 24" fill="none" xmlns="http://www.w3.org/2000/svg">
<path d="M12.5 13.2003L4.1993 18.7344C4.13153 18.7795 4.05281 18.8053 3.9715 18.8092C3.8902 18.8131 3.80936 18.7949 3.7376 18.7565C3.66584 18.718 3.60584 18.6609 3.564 18.5911C3.52216 18.5212 3.50004 18.4414 3.5 18.36V5.64117C3.50004 5.55978 3.52216 5.47991 3.564 5.41009C3.60584 5.34027 3.66584 5.28311 3.7376 5.24469C3.80936 5.20627 3.8902 5.18803 3.9715 5.19192C4.05281 5.19581 4.13153 5.22168 4.1993 5.26677L12.5 10.8009V5.64117C12.5 5.55978 12.5222 5.47991 12.564 5.41009C12.6058 5.34027 12.6658 5.28311 12.7376 5.24469C12.8094 5.20627 12.8902 5.18803 12.9715 5.19192C13.0528 5.19581 13.1315 5.22168 13.1993 5.26677L22.7384 11.6262C22.8 11.6673 22.8506 11.7229 22.8855 11.7883C22.9205 11.8536 22.9388 11.9265 22.9388 12.0006C22.9388 12.0746 22.9205 12.1476 22.8855 12.2129C22.8506 12.2782 22.8 12.3339 22.7384 12.375L13.1993 18.7344C13.1315 18.7795 13.0528 18.8053 12.9715 18.8092C12.8902 18.8131 12.8094 18.7949 12.7376 18.7565C12.6658 18.718 12.6058 18.6609 12.564 18.5911C12.5222 18.5212 12.5 18.4414 12.5 18.36V13.2003Z" fill="#0A0D14" style="fill:#0A0D14;fill:color(display-p3 0.0392 0.0510 0.0784);fill-opacity:1;"/>
</svg>
