<svg width="25" height="24" viewBox="0 0 25 24" fill="none" xmlns="http://www.w3.org/2000/svg">
<path d="M19.7 3.90039C20.1968 3.90039 20.6 4.30359 20.6 4.80039V19.2004C20.6 19.6972 20.1968 20.1004 19.7 20.1004H5.30002C4.80322 20.1004 4.40002 19.6972 4.40002 19.2004V4.80039C4.40002 4.30359 4.80322 3.90039 5.30002 3.90039H19.7ZM18.8 5.70039H6.20002V11.0995L9.80002 11.1004V12.9004H6.20002V18.3004H18.8V12.9004H15.2V11.1004L18.8 11.0995V5.70039ZM12.5 6.60039L15.2 9.30039H13.4V14.7004H15.2L12.5 17.4004L9.80002 14.7004H11.6V9.30039H9.80002L12.5 6.60039Z" fill="#0A0D14" style="fill:#0A0D14;fill:color(display-p3 0.0392 0.0510 0.0784);fill-opacity:1;"/>
</svg>
