<svg width="25" height="24" viewBox="0 0 25 24" fill="none" xmlns="http://www.w3.org/2000/svg">
<path d="M12.5 3C17.495 3 21.5 7.05 21.5 12C21.5 16.95 17.45 21 12.5 21C7.55 21 3.5 16.95 3.5 12C3.5 7.05 7.55 3 12.5 3ZM12.5 4.8C8.5445 4.8 5.3 8.0445 5.3 12C5.3 15.9555 8.5445 19.2 12.5 19.2C16.4555 19.2 19.7 15.9555 19.7 12C19.7 8.0274 16.4843 4.8 12.5 4.8ZM15.875 16.185C13.76 14.88 11.105 14.61 7.955 15.33C7.64 15.42 7.37 15.195 7.28 14.925C7.19 14.61 7.415 14.34 7.685 14.25C11.105 13.485 14.075 13.8 16.415 15.24C16.73 15.375 16.775 15.735 16.64 16.005C16.46 16.275 16.145 16.365 15.875 16.185ZM16.775 13.755C14.345 12.27 10.655 11.82 7.82 12.72C7.46 12.81 7.055 12.63 6.965 12.27C6.875 11.91 7.055 11.505 7.415 11.415C10.7 10.425 14.75 10.92 17.54 12.63C17.81 12.765 17.945 13.215 17.72 13.53C17.495 13.845 17.09 13.98 16.775 13.755ZM7.37 9.975C6.92 10.11 6.47 9.84 6.335 9.435C6.2 8.985 6.47 8.535 6.875 8.4C10.07 7.455 15.335 7.635 18.665 9.615C19.07 9.84 19.205 10.38 18.98 10.785C18.755 11.1 18.215 11.235 17.81 11.01C14.93 9.3 10.115 9.12 7.37 9.975Z" fill="#0A0D14" style="fill:#0A0D14;fill:color(display-p3 0.0392 0.0510 0.0784);fill-opacity:1;"/>
</svg>
