<svg width="25" height="24" viewBox="0 0 25 24" fill="none" xmlns="http://www.w3.org/2000/svg">
<path d="M17 12.8984C17.712 12.8984 18.408 13.1096 19.0001 13.5051C19.5921 13.9007 20.0535 14.463 20.326 15.1208C20.5984 15.7786 20.6697 16.5024 20.5308 17.2008C20.3919 17.8991 20.0491 18.5406 19.5456 19.044C19.0421 19.5475 18.4007 19.8904 17.7023 20.0293C17.004 20.1682 16.2802 20.0969 15.6223 19.8244C14.9645 19.5519 14.4023 19.0905 14.0067 18.4985C13.6111 17.9065 13.4 17.2105 13.4 16.4984H11.6C11.5997 17.3718 11.2818 18.2153 10.7057 18.8718C10.1295 19.5282 9.33442 19.9528 8.46845 20.0664C7.60248 20.1801 6.72472 19.975 5.99872 19.4895C5.27271 19.004 4.74798 18.2711 4.52228 17.4273C4.29658 16.5836 4.38531 15.6866 4.77194 14.9034C5.15857 14.1203 5.81672 13.5044 6.62378 13.1705C7.43084 12.8366 8.33176 12.8075 9.15869 13.0886C9.98561 13.3697 10.6821 13.9419 11.1185 14.6984H13.8815C14.1974 14.1509 14.6519 13.6963 15.1994 13.3803C15.7469 13.0643 16.3679 12.8981 17 12.8984ZM8 14.6984C7.52261 14.6984 7.06477 14.8881 6.72721 15.2256C6.38964 15.5632 6.2 16.021 6.2 16.4984C6.2 16.9758 6.38964 17.4337 6.72721 17.7712C7.06477 18.1088 7.52261 18.2984 8 18.2984C8.47739 18.2984 8.93523 18.1088 9.27279 17.7712C9.61036 17.4337 9.8 16.9758 9.8 16.4984C9.8 16.021 9.61036 15.5632 9.27279 15.2256C8.93523 14.8881 8.47739 14.6984 8 14.6984ZM17 14.6984C16.5226 14.6984 16.0648 14.8881 15.7272 15.2256C15.3896 15.5632 15.2 16.021 15.2 16.4984C15.2 16.9758 15.3896 17.4337 15.7272 17.7712C16.0648 18.1088 16.5226 18.2984 17 18.2984C17.4774 18.2984 17.9352 18.1088 18.2728 17.7712C18.6104 17.4337 18.8 16.9758 18.8 16.4984C18.8 16.021 18.6104 15.5632 18.2728 15.2256C17.9352 14.8881 17.4774 14.6984 17 14.6984ZM16.1 3.89844C17.0548 3.89844 17.9705 4.27772 18.6456 4.95285C19.3207 5.62798 19.7 6.54366 19.7 7.49844V10.1984H21.5V11.9984H3.5V10.1984H5.3V7.49844C5.3 6.54366 5.67928 5.62798 6.35442 4.95285C7.02955 4.27772 7.94522 3.89844 8.9 3.89844H16.1ZM16.1 5.69844H8.9C7.9514 5.69844 7.1 6.55344 7.1 7.49844V10.1984H17.9V7.49844C17.9 6.54984 17.045 5.69844 16.1 5.69844Z" fill="#0A0D14" style="fill:#0A0D14;fill:color(display-p3 0.0392 0.0510 0.0784);fill-opacity:1;"/>
</svg>
