<svg width="25" height="24" viewBox="0 0 25 24" fill="none" xmlns="http://www.w3.org/2000/svg">
<path d="M17 12.8984C17.9548 12.8984 18.8705 13.2777 19.5456 13.9529C20.2207 14.628 20.6 15.5437 20.6 16.4984C20.6 17.4532 20.2207 18.3689 19.5456 19.044C18.8705 19.7192 17.9548 20.0984 17 20.0984C15.0722 20.0984 13.4 18.4874 13.4 16.4984H11.6C11.5997 17.3718 11.2818 18.2153 10.7057 18.8718C10.1295 19.5282 9.33442 19.9528 8.46845 20.0664C7.60248 20.1801 6.72472 19.975 5.99872 19.4895C5.27271 19.004 4.74798 18.2711 4.52228 17.4273C4.29658 16.5836 4.38531 15.6866 4.77194 14.9034C5.15857 14.1203 5.81672 13.5044 6.62378 13.1705C7.43084 12.8366 8.33176 12.8075 9.15869 13.0886C9.98561 13.3697 10.6821 13.9419 11.1185 14.6984H13.8815C14.1974 14.1509 14.6519 13.6963 15.1994 13.3803C15.7469 13.0643 16.3679 12.8981 17 12.8984ZM3.5 11.9984V10.1984H5.3V7.49844C5.3 6.54366 5.67928 5.62798 6.35442 4.95285C7.02955 4.27772 7.94522 3.89844 8.9 3.89844H16.1C17.0548 3.89844 17.9705 4.27772 18.6456 4.95285C19.3207 5.62798 19.7 6.54366 19.7 7.49844V10.1984H21.5V11.9984H3.5Z" fill="#0A0D14" style="fill:#0A0D14;fill:color(display-p3 0.0392 0.0510 0.0784);fill-opacity:1;"/>
</svg>
