<svg width="25" height="24" viewBox="0 0 25 24" fill="none" xmlns="http://www.w3.org/2000/svg">
<path d="M20.6 3.90039C21.0968 3.90039 21.5 4.30359 21.5 4.80039V19.2004C21.5 19.6972 21.0968 20.1004 20.6 20.1004H4.4C3.9032 20.1004 3.5 19.6972 3.5 19.2004V4.80039C3.5 4.30359 3.9032 3.90039 4.4 3.90039H20.6ZM16.8128 6.25929C15.9029 6.25929 15.1352 6.86769 14.8931 7.69929H13.0949L10.8809 11.4658H9.5867C9.3455 10.6333 8.5778 10.0258 7.667 10.0258C6.5636 10.0258 5.6681 10.9204 5.6681 12.0238C5.6681 13.129 6.5636 14.0236 7.667 14.0236C8.5778 14.0236 9.3455 13.4152 9.5867 12.5836H10.9106L13.0859 16.3033H14.9021C15.1433 17.1358 15.911 17.7433 16.8209 17.7433C17.9252 17.7433 18.8207 16.8487 18.8207 15.7444C18.8207 14.6401 17.9252 13.7446 16.8209 13.7446C15.9119 13.7446 15.1433 14.353 14.9021 15.1846H13.7168L11.8664 12.0022L13.7141 8.81799H14.8931C15.1361 9.65049 15.9029 10.258 16.8128 10.258C17.9171 10.258 18.8126 9.36339 18.8126 8.25909C18.8126 7.15479 17.9171 6.25929 16.8128 6.25929ZM16.8227 14.7436C17.4023 14.7436 17.8739 15.2152 17.8739 15.7948C17.8739 16.3744 17.4023 16.8451 16.8227 16.8451C16.3133 16.8451 15.8885 16.4806 15.7931 15.9991C15.7931 15.9991 15.7652 15.7948 15.7931 15.5905C15.8885 15.109 16.3133 14.7445 16.8227 14.7445V14.7436ZM7.6859 10.9546C8.2655 10.9546 8.7371 11.4262 8.7371 12.0058C8.7371 12.5845 8.2655 13.0561 7.6859 13.0561C7.1063 13.0561 6.6356 12.5845 6.6356 12.0058C6.6356 11.4262 7.1063 10.9555 7.6859 10.9555V10.9546ZM16.8209 7.16649C17.4005 7.16649 17.8721 7.63719 17.8721 8.21679C17.8721 8.79639 17.4005 9.26799 16.8209 9.26799C16.3124 9.26799 15.8867 8.90259 15.7913 8.42109C15.7679 8.23569 15.7913 8.01969 15.7913 8.01969C15.8867 7.53099 16.3124 7.16649 16.8209 7.16649Z" fill="#0A0D14" style="fill:#0A0D14;fill:color(display-p3 0.0392 0.0510 0.0784);fill-opacity:1;"/>
</svg>
