<svg width="25" height="24" viewBox="0 0 25 24" fill="none" xmlns="http://www.w3.org/2000/svg">
<path d="M19.7747 14.8799L20.8565 15.5288C20.9233 15.5688 20.9785 15.6254 21.0169 15.693C21.0552 15.7607 21.0754 15.8372 21.0754 15.9149C21.0754 15.9927 21.0552 16.0692 21.0169 16.1368C20.9785 16.2045 20.9233 16.2611 20.8565 16.301L12.9635 21.0368C12.8236 21.1209 12.6633 21.1654 12.5 21.1654C12.3367 21.1654 12.1765 21.1209 12.0365 21.0368L4.14354 16.301C4.0768 16.2611 4.02156 16.2045 3.9832 16.1368C3.94484 16.0692 3.92468 15.9927 3.92468 15.9149C3.92468 15.8372 3.94484 15.7607 3.9832 15.693C4.02156 15.6254 4.0768 15.5688 4.14354 15.5288L5.22534 14.8799L12.5 19.2449L19.7747 14.8799ZM19.7747 10.6499L20.8565 11.2988C20.9233 11.3388 20.9785 11.3954 21.0169 11.463C21.0552 11.5307 21.0754 11.6072 21.0754 11.6849C21.0754 11.7627 21.0552 11.8392 21.0169 11.9068C20.9785 11.9745 20.9233 12.0311 20.8565 12.071L12.5 17.0849L4.14354 12.071C4.0768 12.0311 4.02156 11.9745 3.9832 11.9068C3.94484 11.8392 3.92468 11.7627 3.92468 11.6849C3.92468 11.6072 3.94484 11.5307 3.9832 11.463C4.02156 11.3954 4.0768 11.3388 4.14354 11.2988L5.22534 10.6499L12.5 15.0149L19.7747 10.6499ZM12.9626 2.37804L20.8565 7.11384C20.9233 7.15379 20.9785 7.21036 21.0169 7.27803C21.0552 7.3457 21.0754 7.42216 21.0754 7.49994C21.0754 7.57772 21.0552 7.65418 21.0169 7.72185C20.9785 7.78952 20.9233 7.84609 20.8565 7.88604L12.5 12.8999L4.14354 7.88604C4.0768 7.84609 4.02156 7.78952 3.9832 7.72185C3.94484 7.65418 3.92468 7.57772 3.92468 7.49994C3.92468 7.42216 3.94484 7.3457 3.9832 7.27803C4.02156 7.21036 4.0768 7.15379 4.14354 7.11384L12.0365 2.37804C12.1765 2.29394 12.3367 2.24951 12.5 2.24951C12.6633 2.24951 12.8236 2.29394 12.9635 2.37804H12.9626ZM12.5 4.19874L6.99834 7.49994L12.5 10.8011L18.0017 7.49994L12.5 4.19874Z" fill="#0A0D14" style="fill:#0A0D14;fill:color(display-p3 0.0392 0.0510 0.0784);fill-opacity:1;"/>
</svg>
