<svg width="25" height="24" viewBox="0 0 25 24" fill="none" xmlns="http://www.w3.org/2000/svg">
<path d="M17.9 19.2028V14.404H19.7V21.0037H5.29999V14.404H7.09999V19.2037H17.9V19.2028ZM8.53909 14.4634L8.82079 12.6814L16.7741 14.2114L16.6724 15.6388L8.53909 14.4634ZM9.61909 10.3846L10.2779 8.94455L17.4761 12.3043L16.8164 13.7434L9.61819 10.3846H9.61909ZM11.6576 6.84575L12.6773 5.64605L18.7955 10.7446L17.7758 11.9443L11.6576 6.84575ZM15.5564 3.12695L20.2949 9.48455L19.0349 10.4449L14.2973 4.08635L15.5573 3.12695H15.5564ZM8.29879 18.0022V16.2022H16.6958V18.0022H8.29879Z" fill="#0A0D14" style="fill:#0A0D14;fill:color(display-p3 0.0392 0.0510 0.0784);fill-opacity:1;"/>
</svg>
