<svg width="25" height="24" viewBox="0 0 25 24" fill="none" xmlns="http://www.w3.org/2000/svg">
<path d="M10.2824 12.9004H8.29609C7.92529 13.9498 6.92539 14.7004 5.74999 14.7004C4.25869 14.7004 3.04999 13.4917 3.04999 12.0004C3.04999 10.5091 4.25869 9.30039 5.74999 9.30039C6.92539 9.30039 7.92619 10.0519 8.29699 11.1004H10.2824L13.4 5.70039H16.253C16.6238 4.65189 17.6246 3.90039 18.8 3.90039C20.2913 3.90039 21.5 5.10909 21.5 6.60039C21.5 8.09169 20.2913 9.30039 18.8 9.30039C17.6246 9.30039 16.6247 8.54979 16.2539 7.50039H14.4386L11.8412 11.9995L14.4395 16.5004H16.2539C16.6238 15.4519 17.6246 14.7004 18.8 14.7004C20.2913 14.7004 21.5 15.9091 21.5 17.4004C21.5 18.8917 20.2913 20.1004 18.8 20.1004C17.6246 20.1004 16.6247 19.3498 16.2539 18.3004H13.4L10.2824 12.9004ZM18.8 16.5004C18.3032 16.5004 17.9 16.9036 17.9 17.4004C17.9 17.8972 18.3032 18.3004 18.8 18.3004C19.2968 18.3004 19.7 17.8972 19.7 17.4004C19.7 16.9036 19.2968 16.5004 18.8 16.5004ZM5.74999 11.1004C5.25319 11.1004 4.84999 11.5036 4.84999 12.0004C4.84999 12.4972 5.25319 12.9004 5.74999 12.9004C6.24679 12.9004 6.64999 12.4972 6.64999 12.0004C6.64999 11.5036 6.24679 11.1004 5.74999 11.1004ZM18.8 5.70039C18.3032 5.70039 17.9 6.10359 17.9 6.60039C17.9 7.09719 18.3032 7.50039 18.8 7.50039C19.2968 7.50039 19.7 7.09719 19.7 6.60039C19.7 6.10359 19.2968 5.70039 18.8 5.70039Z" fill="#0A0D14" style="fill:#0A0D14;fill:color(display-p3 0.0392 0.0510 0.0784);fill-opacity:1;"/>
</svg>
