<svg width="25" height="24" viewBox="0 0 25 24" fill="none" xmlns="http://www.w3.org/2000/svg">
<path d="M12.5 1.64844L16.3034 7.21314L22.7717 9.11124L18.6542 14.4482L18.8477 21.1856L12.5 18.9194L6.15227 21.1856L6.34577 14.4482L2.22827 9.11124L8.69657 7.21314L12.5 1.64844ZM12.5 4.83804L9.81977 8.76024L5.26127 10.0967L8.16377 13.8569L8.02607 18.6044L12.5 17.0078L16.973 18.6044L16.8362 13.8569L19.7378 10.0967L15.1802 8.76024L12.5 4.83804ZM10.7 11.9984C10.7 12.4758 10.8896 12.9337 11.2272 13.2712C11.5647 13.6088 12.0226 13.7984 12.5 13.7984C12.9774 13.7984 13.4352 13.6088 13.7728 13.2712C14.1103 12.9337 14.3 12.4758 14.3 11.9984H16.1C16.1 12.9532 15.7207 13.8689 15.0456 14.544C14.3704 15.2192 13.4548 15.5984 12.5 15.5984C11.5452 15.5984 10.6295 15.2192 9.95439 14.544C9.27926 13.8689 8.89997 12.9532 8.89997 11.9984H10.7Z" fill="#0A0D14" style="fill:#0A0D14;fill:color(display-p3 0.0392 0.0510 0.0784);fill-opacity:1;"/>
</svg>
