<svg width="32" height="32" viewBox="0 0 32 32" fill="none" xmlns="http://www.w3.org/2000/svg">
<path d="M16 2.19995L21.0712 9.61955L29.6956 12.1504L24.2056 19.2664L24.4636 28.2496L16 25.228L7.53644 28.2496L7.79444 19.2664L2.30444 12.1504L10.9288 9.61955L16 2.19995ZM16 6.45275L12.4264 11.6824L6.34844 13.4644L10.2184 18.478L10.0348 24.808L16 22.6792L21.964 24.808L21.7816 18.478L25.6504 13.4644L19.5736 11.6824L16 6.45275ZM13.6 16C13.6 16.6365 13.8529 17.2469 14.303 17.697C14.7531 18.1471 15.3635 18.4 16 18.4C16.6366 18.4 17.247 18.1471 17.6971 17.697C18.1472 17.2469 18.4 16.6365 18.4 16H20.8C20.8 17.273 20.2943 18.4939 19.3942 19.3941C18.494 20.2942 17.2731 20.8 16 20.8C14.727 20.8 13.5061 20.2942 12.6059 19.3941C11.7058 18.4939 11.2 17.273 11.2 16H13.6Z" fill="#525866" style="fill:#525866;fill:color(display-p3 0.3216 0.3451 0.4000);fill-opacity:1;"/>
</svg>
