<svg width="25" height="24" viewBox="0 0 25 24" fill="none" xmlns="http://www.w3.org/2000/svg">
<path d="M12.5 1.64844L16.3034 7.21314L22.7717 9.11124L18.6542 14.4482L18.8477 21.1856L12.5 18.9194L6.15227 21.1856L6.34577 14.4482L2.22827 9.11124L8.69657 7.21314L12.5 1.64844ZM10.7 11.9984H8.89997C8.89996 12.9376 9.26698 13.8397 9.92273 14.512C10.5785 15.1844 11.471 15.5739 12.4099 15.5974C13.3488 15.6209 14.2598 15.2765 14.9483 14.6377C15.6369 13.999 16.0485 13.1165 16.0955 12.1784L16.1 11.9984H14.3C14.3021 12.4655 14.1225 12.9151 13.7992 13.2523C13.476 13.5894 13.0343 13.7877 12.5675 13.8052C12.1008 13.8228 11.6455 13.6581 11.2978 13.3462C10.9502 13.0342 10.7374 12.5994 10.7045 12.1334L10.7 11.9984Z" fill="#0A0D14" style="fill:#0A0D14;fill:color(display-p3 0.0392 0.0510 0.0784);fill-opacity:1;"/>
</svg>
