<svg width="25" height="24" viewBox="0 0 25 24" fill="none" xmlns="http://www.w3.org/2000/svg">
<path d="M12.5036 3C7.77861 3 3.90321 6.645 3.53601 11.2773L8.36001 13.2717C8.76861 12.9927 9.26181 12.8289 9.79371 12.8289C9.84141 12.8289 9.88731 12.8316 9.93501 12.8334L12.0806 9.7266V9.6825C12.0806 7.8105 13.6016 6.2895 15.4736 6.2895C17.3447 6.2895 18.8666 7.8123 18.8666 9.6843C18.8666 11.5563 17.3438 13.0782 15.4736 13.0782H15.3953L12.338 15.2616C12.338 15.3003 12.3407 15.3408 12.3407 15.3813C12.3407 16.7871 11.2049 17.9283 9.79821 17.9283C8.57241 17.9283 7.53651 17.0481 7.30071 15.8826L3.84651 14.4525C4.91571 18.2298 8.38431 21 12.5045 21C17.4743 21 21.5027 16.9707 21.5027 12C21.5027 7.0302 17.4734 3 12.5036 3ZM8.07021 16.2003C8.26641 16.6071 8.60571 16.9491 9.05481 17.1372C10.0277 17.5422 11.15 17.0805 11.5541 16.1067C11.7521 15.6342 11.7521 15.1167 11.5577 14.6442C11.3642 14.1717 10.9952 13.8036 10.5254 13.6074C10.0574 13.4121 9.55791 13.4202 9.11691 13.5849L10.259 14.0574C10.9763 14.3571 11.3156 15.1824 11.015 15.8988C10.718 16.6161 9.89271 16.9563 9.17541 16.6575L8.07021 16.2003ZM17.7362 9.6798C17.7362 8.4333 16.721 7.419 15.4745 7.419C14.2262 7.419 13.2137 8.4333 13.2137 9.6798C13.2137 10.929 14.2262 11.9415 15.4745 11.9415C16.7219 11.9415 17.7353 10.929 17.7353 9.6798H17.7362ZM15.479 7.977C16.415 7.977 17.1782 8.7375 17.1782 9.6762C17.1782 10.6149 16.4159 11.3754 15.479 11.3754C14.5394 11.3754 13.7798 10.6149 13.7798 9.6762C13.7798 8.7375 14.5403 7.977 15.479 7.977Z" fill="#0A0D14" style="fill:#0A0D14;fill:color(display-p3 0.0392 0.0510 0.0784);fill-opacity:1;"/>
</svg>
