<svg width="25" height="24" viewBox="0 0 25 24" fill="none" xmlns="http://www.w3.org/2000/svg">
<path d="M17 4.80078C19.4849 4.80078 21.5 6.81588 21.5 9.30078C21.5 11.7857 19.4849 13.8008 17 13.8008C16.7264 13.8008 16.4573 13.7765 16.1972 13.7288L13.8113 15.5189C13.8365 15.6926 13.85 15.8699 13.85 16.0508C13.85 18.0398 12.239 19.6508 10.25 19.6508C8.26098 19.6508 6.64998 18.0398 6.64998 16.0508C6.64998 15.8915 6.66078 15.734 6.68058 15.5792L3.23718 14.1878L3.91218 12.5192L7.35558 13.9097C8.01168 13.025 9.06378 12.4508 10.25 12.4508C10.3967 12.4508 10.5407 12.4598 10.682 12.4769L12.5198 9.72198C12.5063 9.58338 12.5 9.44298 12.5 9.30078C12.5 6.81588 14.5151 4.80078 17 4.80078ZM10.25 14.2508C9.83238 14.2508 9.44718 14.393 9.14208 14.6324L10.5875 15.2165C11.0483 15.4028 11.2715 15.9275 11.0843 16.3883C10.898 16.8491 10.3733 17.0723 9.91248 16.8851L8.46798 16.3028C8.59038 17.1776 9.34188 17.8517 10.2509 17.8517C11.2454 17.8517 12.0509 17.0462 12.0509 16.0517C12.0509 15.0572 11.2454 14.2517 10.2509 14.2517L10.25 14.2508ZM13.2776 11.8298L12.3929 13.1582C12.6485 13.3472 12.8789 13.5704 13.0751 13.8197L14.2991 12.9017C13.9031 12.6029 13.5566 12.2402 13.2776 11.8298ZM17 6.60078C15.5087 6.60078 14.3 7.80948 14.3 9.30078C14.3 10.7921 15.5087 12.0008 17 12.0008C18.4913 12.0008 19.7 10.7921 19.7 9.30078C19.7 7.80948 18.4913 6.60078 17 6.60078ZM17 7.50078C17.9945 7.50078 18.8 8.30628 18.8 9.30078C18.8 10.2953 17.9945 11.1008 17 11.1008C16.0055 11.1008 15.2 10.2953 15.2 9.30078C15.2 8.30628 16.0055 7.50078 17 7.50078Z" fill="#0A0D14" style="fill:#0A0D14;fill:color(display-p3 0.0392 0.0510 0.0784);fill-opacity:1;"/>
</svg>
