<svg width="25" height="24" viewBox="0 0 25 24" fill="none" xmlns="http://www.w3.org/2000/svg">
<path d="M12.5 3C17.4707 3 21.5 7.0293 21.5 12C21.5 16.9707 17.4707 21 12.5 21C7.5293 21 3.5 16.9707 3.5 12C3.5 7.0293 7.5293 3 12.5 3ZM8.9 12.9L5.3558 12.9009C5.55631 14.4869 6.27869 15.9611 7.40916 17.0914C8.53964 18.2218 10.014 18.9439 11.6 19.1442V15.6C10.8839 15.6 10.1972 15.3155 9.69081 14.8092C9.18446 14.3028 8.9 13.6161 8.9 12.9ZM19.6442 12.9009L16.1 12.9C16.1 13.6161 15.8155 14.3028 15.3092 14.8092C14.8028 15.3155 14.1161 15.6 13.4 15.6L13.4009 19.1442C14.9868 18.9437 16.4609 18.2215 17.5912 17.0912C18.7215 15.9609 19.4437 14.4868 19.6442 12.9009ZM12.5 4.8C10.7463 4.80003 9.05279 5.44007 7.73743 6.6C6.42206 7.75994 5.57521 9.36003 5.3558 11.1H8.9C8.9 10.8613 8.99482 10.6324 9.1636 10.4636C9.33239 10.2948 9.56131 10.2 9.8 10.2H15.2C15.4387 10.2 15.6676 10.2948 15.8364 10.4636C16.0052 10.6324 16.1 10.8613 16.1 11.1H19.6442C19.4248 9.36003 18.5779 7.75994 17.2626 6.6C15.9472 5.44007 14.2537 4.80003 12.5 4.8Z" fill="#0A0D14" style="fill:#0A0D14;fill:color(display-p3 0.0392 0.0510 0.0784);fill-opacity:1;"/>
</svg>
