<svg width="25" height="24" viewBox="0 0 25 24" fill="none" xmlns="http://www.w3.org/2000/svg">
<path d="M21.32 13.8009C20.9472 15.6213 20.0206 17.2819 18.6672 18.5551C17.3138 19.8283 15.5997 20.6518 13.76 20.9127V19.0902C15.1188 18.8479 16.3795 18.2205 17.3922 17.2828C18.405 16.345 19.1272 15.1362 19.4732 13.8L21.32 13.8009ZM5.52677 13.8009C5.86896 15.1217 6.57893 16.3182 7.57417 17.2515C8.56941 18.1847 9.80906 18.8164 11.1491 19.0731V20.9001C9.32739 20.6225 7.63464 19.793 6.29908 18.5235C4.96352 17.2539 4.04939 15.6053 3.67997 13.8H5.52677V13.8009ZM17.9 11.1V12.9H17C16.0763 12.9 15.1881 13.255 14.5188 13.8916C13.8496 14.5281 13.4506 15.3975 13.4045 16.32L13.4 16.5V17.4H11.6V16.5C11.6 15.5764 11.245 14.6881 10.6084 14.0189C9.97186 13.3496 9.10243 12.9507 8.17997 12.9045L7.99997 12.9H7.09997V11.1H17.9ZM12.5 3C17.1665 3 21.0041 6.5523 21.455 11.1H19.6442C19.4245 9.36021 18.5776 7.76035 17.2622 6.60061C15.9469 5.44087 14.2536 4.80097 12.5 4.80097C10.7464 4.80097 9.05303 5.44087 7.73768 6.60061C6.42234 7.76035 5.5754 9.36021 5.35577 11.1H3.54407C3.99587 6.5523 7.83347 3 12.5 3Z" fill="#0A0D14" style="fill:#0A0D14;fill:color(display-p3 0.0392 0.0510 0.0784);fill-opacity:1;"/>
</svg>
