<svg width="25" height="24" viewBox="0 0 25 24" fill="none" xmlns="http://www.w3.org/2000/svg">
<path d="M8.90005 3.90039V5.70039H7.10005V9.30039C7.10005 11.2894 8.71105 12.9004 10.7 12.9004C12.689 12.9004 14.3 11.2894 14.3 9.30039V5.70039H12.5V3.90039H15.2C15.6968 3.90039 16.1 4.30359 16.1 4.80039V9.30039C16.1 11.9761 14.1542 14.1964 11.6 14.6257V16.0504C11.6 17.7901 13.0103 19.2004 14.75 19.2004C16.0973 19.2004 17.2475 18.3544 17.6975 17.1637C16.7552 16.7434 16.1 15.7984 16.1 14.7004C16.1 13.2091 17.3087 12.0004 18.8 12.0004C20.2913 12.0004 21.5 13.2091 21.5 14.7004C21.5 15.9343 20.672 16.9747 19.5416 17.2969C18.989 19.4272 17.0531 21.0004 14.75 21.0004C12.0158 21.0004 9.80005 18.7846 9.80005 16.0504V14.6257C7.24585 14.1973 5.30005 11.9761 5.30005 9.30039V4.80039C5.30005 4.30359 5.70325 3.90039 6.20005 3.90039H8.90005ZM18.8 13.8004C18.3032 13.8004 17.9 14.2036 17.9 14.7004C17.9 15.1972 18.3032 15.6004 18.8 15.6004C19.2968 15.6004 19.7 15.1972 19.7 14.7004C19.7 14.2036 19.2968 13.8004 18.8 13.8004Z" fill="#0A0D14" style="fill:#0A0D14;fill:color(display-p3 0.0392 0.0510 0.0784);fill-opacity:1;"/>
</svg>
