<svg width="25" height="24" viewBox="0 0 25 24" fill="none" xmlns="http://www.w3.org/2000/svg">
<path d="M20.6 14.7004L15.2 20.0968L5.30182 20.1004C5.06376 20.1013 4.83506 20.0078 4.66596 19.8402C4.49687 19.6726 4.40122 19.4448 4.40002 19.2067V4.79409C4.40002 4.30089 4.80052 3.90039 5.29372 3.90039H19.7063C20.1995 3.90039 20.6 4.31079 20.6 4.80219V14.7004ZM18.8 5.70039H6.20002V18.3004H13.4V13.8004C13.4001 13.58 13.481 13.3672 13.6275 13.2025C13.774 13.0377 13.9758 12.9325 14.1947 12.9067L14.3 12.9004L18.8 12.8995V5.70039ZM18.0539 14.6995L15.2 14.7004V17.5525L18.0539 14.6995Z" fill="#0A0D14" style="fill:#0A0D14;fill:color(display-p3 0.0392 0.0510 0.0784);fill-opacity:1;"/>
</svg>
