<svg width="25" height="24" viewBox="0 0 25 24" fill="none" xmlns="http://www.w3.org/2000/svg">
<path d="M8.89998 8.40156V15.6016H16.1V8.40156H8.89998ZM7.09998 7.50156C7.09998 7.26287 7.1948 7.03395 7.36358 6.86517C7.53236 6.69638 7.76128 6.60156 7.99998 6.60156H17C17.2387 6.60156 17.4676 6.69638 17.6364 6.86517C17.8052 7.03395 17.9 7.26287 17.9 7.50156V16.5016C17.9 16.7403 17.8052 16.9692 17.6364 17.138C17.4676 17.3067 17.2387 17.4016 17 17.4016H7.99998C7.76128 17.4016 7.53236 17.3067 7.36358 17.138C7.1948 16.9692 7.09998 16.7403 7.09998 16.5016V7.50156Z" fill="#0A0D14" style="fill:#0A0D14;fill:color(display-p3 0.0392 0.0510 0.0784);fill-opacity:1;"/>
</svg>
