<svg width="25" height="24" viewBox="0 0 25 24" fill="none" xmlns="http://www.w3.org/2000/svg">
<path d="M8 7.49922V16.4992H17V7.49922H8ZM7.1 5.69922H17.9C18.1387 5.69922 18.3676 5.79404 18.5364 5.96282C18.7052 6.13161 18.8 6.36052 18.8 6.59922V17.3992C18.8 17.6379 18.7052 17.8668 18.5364 18.0356C18.3676 18.2044 18.1387 18.2992 17.9 18.2992H7.1C6.8613 18.2992 6.63238 18.2044 6.4636 18.0356C6.29482 17.8668 6.2 17.6379 6.2 17.3992V6.59922C6.2 6.36052 6.29482 6.13161 6.4636 5.96282C6.63238 5.79404 6.8613 5.69922 7.1 5.69922Z" fill="#0A0D14" style="fill:#0A0D14;fill:color(display-p3 0.0392 0.0510 0.0784);fill-opacity:1;"/>
</svg>
