<svg width="25" height="24" viewBox="0 0 25 24" fill="none" xmlns="http://www.w3.org/2000/svg">
<path d="M20.6 11.6814V20.1C20.6 20.3387 20.5052 20.5676 20.3364 20.7364C20.1676 20.9052 19.9387 21 19.7 21H5.3C5.06131 21 4.83239 20.9052 4.66361 20.7364C4.49483 20.5676 4.4 20.3387 4.4 20.1V11.6814C3.81889 11.0244 3.4987 10.1771 3.5 9.3V3.9C3.5 3.66131 3.59483 3.43239 3.76361 3.2636C3.93239 3.09482 4.16131 3 4.4 3H20.6C20.8387 3 21.0676 3.09482 21.2364 3.2636C21.4052 3.43239 21.5 3.66131 21.5 3.9V9.3C21.5 10.2126 21.1598 11.046 20.6 11.6814ZM18.8 12.7866C18.1564 12.952 17.4796 12.9362 16.8443 12.7412C16.209 12.5462 15.64 12.1794 15.2 11.6814C14.8625 12.0649 14.4471 12.3719 13.9815 12.5821C13.5159 12.7922 13.0108 12.9006 12.5 12.9C11.9892 12.9006 11.4841 12.7922 11.0185 12.5821C10.5529 12.3719 10.1375 12.0649 9.8 11.6814C9.36109 12.1808 8.79212 12.5486 8.1565 12.7438C7.52088 12.9389 6.84356 12.9537 6.2 12.7866V19.2H18.8V12.7866ZM14.3 9.3C14.3 9.06131 14.3948 8.83239 14.5636 8.6636C14.7324 8.49482 14.9613 8.4 15.2 8.4C15.4387 8.4 15.6676 8.49482 15.8364 8.6636C16.0052 8.83239 16.1 9.06131 16.1 9.3C16.1 9.77739 16.2896 10.2352 16.6272 10.5728C16.9648 10.9104 17.4226 11.1 17.9 11.1C18.3774 11.1 18.8352 10.9104 19.1728 10.5728C19.5104 10.2352 19.7 9.77739 19.7 9.3V4.8H5.3V9.3C5.3 9.77739 5.48965 10.2352 5.82721 10.5728C6.16478 10.9104 6.62261 11.1 7.1 11.1C7.57739 11.1 8.03523 10.9104 8.3728 10.5728C8.71036 10.2352 8.9 9.77739 8.9 9.3C8.9 9.06131 8.99483 8.83239 9.16361 8.6636C9.33239 8.49482 9.56131 8.4 9.8 8.4C10.0387 8.4 10.2676 8.49482 10.4364 8.6636C10.6052 8.83239 10.7 9.06131 10.7 9.3C10.7 9.77739 10.8896 10.2352 11.2272 10.5728C11.5648 10.9104 12.0226 11.1 12.5 11.1C12.9774 11.1 13.4352 10.9104 13.7728 10.5728C14.1104 10.2352 14.3 9.77739 14.3 9.3Z" fill="#0A0D14" style="fill:#0A0D14;fill:color(display-p3 0.0392 0.0510 0.0784);fill-opacity:1;"/>
</svg>
