<svg width="25" height="24" viewBox="0 0 25 24" fill="none" xmlns="http://www.w3.org/2000/svg">
<path d="M21.5 19.2V21H3.50001V19.2H4.40001V13.1178C3.84594 12.748 3.39175 12.2471 3.07774 11.6596C2.76374 11.0721 2.59964 10.4161 2.60001 9.75C2.60001 9.0057 2.80161 8.2884 3.16971 7.6773L5.61051 3.45C5.6895 3.31319 5.80311 3.19957 5.93992 3.12058C6.07673 3.04159 6.23193 3 6.38991 3H18.611C18.769 3 18.9242 3.04159 19.061 3.12058C19.1978 3.19957 19.3114 3.31319 19.3904 3.45L21.8222 7.6638C22.3591 8.55558 22.5317 9.61998 22.3041 10.6357C22.0765 11.6515 21.4661 12.5404 20.6 13.1178V19.2H21.5ZM6.91011 4.8L4.72041 8.5917C4.50763 9.11743 4.50124 9.70412 4.70252 10.2344C4.90381 10.7646 5.29792 11.1993 5.80597 11.4514C6.31402 11.7034 6.89854 11.7544 7.44253 11.5939C7.98652 11.4335 8.44986 11.0735 8.73981 10.5861C9.04131 9.8328 10.1078 9.8328 10.4102 10.5861C10.577 11.0041 10.8652 11.3624 11.2378 11.6149C11.6103 11.8673 12.05 12.0023 12.5 12.0023C12.95 12.0023 13.3897 11.8673 13.7622 11.6149C14.1348 11.3624 14.423 11.0041 14.5898 10.5861C14.8913 9.8328 15.9578 9.8328 16.2602 10.5861C16.377 10.8736 16.552 11.1338 16.7742 11.3504C16.9964 11.5671 17.2611 11.7354 17.5515 11.8448C17.8419 11.9542 18.1518 12.0023 18.4617 11.9862C18.7716 11.9701 19.0748 11.89 19.3523 11.7511C19.6297 11.6121 19.8755 11.4173 20.074 11.1788C20.2725 10.9403 20.4196 10.6633 20.5059 10.3652C20.5923 10.0671 20.616 9.75444 20.5757 9.44675C20.5353 9.13906 20.4318 8.84304 20.2715 8.5773L18.089 4.8H6.91101H6.91011Z" fill="#0A0D14" style="fill:#0A0D14;fill:color(display-p3 0.0392 0.0510 0.0784);fill-opacity:1;"/>
</svg>
