<svg width="25" height="24" viewBox="0 0 25 24" fill="none" xmlns="http://www.w3.org/2000/svg">
<path d="M17.1386 13.8008C17.3456 14.2652 17.45 14.7818 17.45 15.3488C17.45 16.5566 16.9784 17.5016 16.0361 18.1811C15.092 18.8606 13.7897 19.2008 12.1274 19.2008C10.6514 19.2008 9.19072 18.8579 7.74442 18.1712V16.1408C9.11242 16.9301 10.5119 17.3252 11.9438 17.3252C14.2397 17.3252 15.3908 16.6664 15.3989 15.3479C15.4037 15.0806 15.3545 14.815 15.2543 14.5671C15.1541 14.3192 15.0049 14.0941 14.8157 13.9052L14.7077 13.7999H4.40002V11.9999H20.6V13.7999H17.1386V13.8008ZM13.4684 11.1008H8.56612C8.40847 10.957 8.26362 10.7998 8.13322 10.631C7.74442 10.1288 7.55002 9.52218 7.55002 8.80758C7.55002 7.69518 7.96942 6.74928 8.80732 5.96988C9.64702 5.19048 10.9439 4.80078 12.6998 4.80078C14.0237 4.80078 15.2909 5.09598 16.4996 5.68638V7.62318C15.4196 7.00488 14.2361 6.69618 12.9482 6.69618C10.7162 6.69618 9.60112 7.39998 9.60112 8.80758C9.60112 9.18558 9.79732 9.51498 10.1897 9.79668C10.5821 10.0784 11.0663 10.3025 11.6414 10.4717C12.1994 10.6337 12.8087 10.8443 13.4684 11.1008Z" fill="#0A0D14" style="fill:#0A0D14;fill:color(display-p3 0.0392 0.0510 0.0784);fill-opacity:1;"/>
</svg>
