<svg width="25" height="24" viewBox="0 0 25 24" fill="none" xmlns="http://www.w3.org/2000/svg">
<path d="M6.73642 4.80078L11.15 10.136L15.5636 4.80078H17.9L12.3182 11.5481L17.9 18.2954V18.3008H15.569L11.15 12.9602L6.73102 18.3008H4.40002V18.2954L9.98182 11.5481L4.40002 4.80078H6.73642ZM21.095 16.1228C21.1876 16.0349 21.2552 15.9239 21.2907 15.8012C21.3263 15.6786 21.3286 15.5487 21.2974 15.4249C21.2663 15.3011 21.2027 15.1877 21.1133 15.0966C21.0239 15.0054 20.9119 14.9396 20.7887 14.906C20.6655 14.8724 20.5356 14.8722 20.4123 14.9054C20.289 14.9385 20.1767 15.0039 20.0869 15.0947C19.9972 15.1856 19.9333 15.2987 19.9017 15.4224C19.87 15.5461 19.8719 15.676 19.907 15.7988L18.8675 16.0958C18.791 15.8277 18.7778 15.5456 18.8289 15.2716C18.88 14.9975 18.994 14.7391 19.162 14.5166C19.3299 14.2942 19.5472 14.1137 19.7968 13.9895C20.0463 13.8653 20.3213 13.8007 20.6 13.8008C20.9604 13.8008 21.3124 13.909 21.6106 14.1114C21.9088 14.3138 22.1394 14.601 22.2725 14.9359C22.4056 15.2707 22.4351 15.6379 22.3573 15.9897C22.2794 16.3416 22.0977 16.6619 21.8357 16.9094L20.3696 18.3008H22.4V19.2008H18.8V18.3008L21.095 16.1228Z" fill="#0A0D14" style="fill:#0A0D14;fill:color(display-p3 0.0392 0.0510 0.0784);fill-opacity:1;"/>
</svg>
