<svg width="25" height="24" viewBox="0 0 25 24" fill="none" xmlns="http://www.w3.org/2000/svg">
<path d="M11.6 6.60078V18.3008H9.80002V6.60078H4.40002V4.80078H17V6.60078H11.6ZM19.295 16.1228C19.3876 16.0349 19.4552 15.9239 19.4907 15.8012C19.5263 15.6786 19.5286 15.5487 19.4974 15.4249C19.4663 15.3011 19.4027 15.1877 19.3133 15.0966C19.2239 15.0054 19.1119 14.9396 18.9887 14.906C18.8655 14.8724 18.7356 14.8722 18.6123 14.9054C18.489 14.9385 18.3767 15.0039 18.287 15.0947C18.1972 15.1856 18.1333 15.2987 18.1017 15.4224C18.07 15.5461 18.0719 15.676 18.107 15.7988L17.0684 16.0958C16.992 15.8278 16.9787 15.5457 17.0298 15.2718C17.0808 14.9978 17.1948 14.7395 17.3626 14.517C17.5305 14.2945 17.7476 14.1141 17.9971 13.9898C18.2465 13.8655 18.5214 13.8008 18.8 13.8008C19.1604 13.8008 19.5124 13.909 19.8106 14.1114C20.1088 14.3138 20.3394 14.601 20.4725 14.9359C20.6056 15.2707 20.6351 15.6379 20.5573 15.9897C20.4794 16.3416 20.2977 16.6619 20.0357 16.9094L18.5696 18.3008H20.6V19.2008H17V18.3008L19.295 16.1228Z" fill="#0A0D14" style="fill:#0A0D14;fill:color(display-p3 0.0392 0.0510 0.0784);fill-opacity:1;"/>
</svg>
