<svg width="25" height="24" viewBox="0 0 25 24" fill="none" xmlns="http://www.w3.org/2000/svg">
<path d="M17.18 19.2004L18.8 20.5504V21.0004H6.19999V20.5504L7.81999 19.2004H6.19999C5.7226 19.2004 5.26477 19.0107 4.9272 18.6732C4.58964 18.3356 4.39999 17.8778 4.39999 17.4004V7.50039C4.39999 6.54561 4.77928 5.62994 5.45441 4.95481C6.12954 4.27968 7.04521 3.90039 7.99999 3.90039H17C17.9548 3.90039 18.8704 4.27968 19.5456 4.95481C20.2207 5.62994 20.6 6.54561 20.6 7.50039V17.4004C20.6 17.8778 20.4104 18.3356 20.0728 18.6732C19.7352 19.0107 19.2774 19.2004 18.8 19.2004H17.18ZM13.4 5.70039V11.1004H18.8V7.50039C18.8 7.023 18.6104 6.56516 18.2728 6.2276C17.9352 5.89003 17.4774 5.70039 17 5.70039H13.4ZM11.6 5.70039H7.99999C7.5226 5.70039 7.06477 5.89003 6.7272 6.2276C6.38964 6.56516 6.19999 7.023 6.19999 7.50039V11.1004H11.6V5.70039ZM18.8 12.9004H6.19999V17.4004H18.8V12.9004ZM8.44999 16.5004C8.09195 16.5004 7.74857 16.3582 7.4954 16.105C7.24223 15.8518 7.09999 15.5084 7.09999 15.1504C7.09999 14.7923 7.24223 14.449 7.4954 14.1958C7.74857 13.9426 8.09195 13.8004 8.44999 13.8004C8.80804 13.8004 9.15141 13.9426 9.40459 14.1958C9.65776 14.449 9.79999 14.7923 9.79999 15.1504C9.79999 15.5084 9.65776 15.8518 9.40459 16.105C9.15141 16.3582 8.80804 16.5004 8.44999 16.5004ZM16.55 16.5004C16.192 16.5004 15.8486 16.3582 15.5954 16.105C15.3422 15.8518 15.2 15.5084 15.2 15.1504C15.2 14.7923 15.3422 14.449 15.5954 14.1958C15.8486 13.9426 16.192 13.8004 16.55 13.8004C16.908 13.8004 17.2514 13.9426 17.5046 14.1958C17.7578 14.449 17.9 14.7923 17.9 15.1504C17.9 15.5084 17.7578 15.8518 17.5046 16.105C17.2514 16.3582 16.908 16.5004 16.55 16.5004Z" fill="#0A0D14" style="fill:#0A0D14;fill:color(display-p3 0.0392 0.0510 0.0784);fill-opacity:1;"/>
</svg>
