<svg width="25" height="24" viewBox="0 0 25 24" fill="none" xmlns="http://www.w3.org/2000/svg">
<path d="M20.6 17.3996C20.6 17.877 20.4104 18.3348 20.0728 18.6724C19.7353 19.01 19.2774 19.1996 18.8 19.1996H17.18L18.8 20.5496V20.9996H6.20002V20.5496L7.82002 19.1996H6.20002C5.72263 19.1996 5.2648 19.01 4.92723 18.6724C4.58967 18.3348 4.40002 17.877 4.40002 17.3996V7.49961C4.40002 6.54483 4.77931 5.62916 5.45444 4.95402C6.12957 4.27889 7.04524 3.89961 8.00002 3.89961H13.4V11.0996H20.6V17.3996ZM18.8 12.8996H6.20002V17.3996H18.8V12.8996ZM8.45002 13.7996C8.80807 13.7996 9.15144 13.9418 9.40462 14.195C9.65779 14.4482 9.80002 14.7916 9.80002 15.1496C9.80002 15.5077 9.65779 15.851 9.40462 16.1042C9.15144 16.3574 8.80807 16.4996 8.45002 16.4996C8.09198 16.4996 7.7486 16.3574 7.49543 16.1042C7.24226 15.851 7.10002 15.5077 7.10002 15.1496C7.10002 14.7916 7.24226 14.4482 7.49543 14.195C7.7486 13.9418 8.09198 13.7996 8.45002 13.7996ZM16.55 13.7996C16.9081 13.7996 17.2514 13.9418 17.5046 14.195C17.7578 14.4482 17.9 14.7916 17.9 15.1496C17.9 15.5077 17.7578 15.851 17.5046 16.1042C17.2514 16.3574 16.9081 16.4996 16.55 16.4996C16.192 16.4996 15.8486 16.3574 15.5954 16.1042C15.3423 15.851 15.2 15.5077 15.2 15.1496C15.2 14.7916 15.3423 14.4482 15.5954 14.195C15.8486 13.9418 16.192 13.7996 16.55 13.7996ZM11.6 5.69961H8.00002C7.54591 5.69947 7.10851 5.87098 6.77553 6.17976C6.44255 6.48854 6.23858 6.91177 6.20452 7.36461L6.20002 7.49961V11.0996H11.6V5.69961ZM18.35 2.09961C19.4242 2.09961 20.4543 2.5263 21.2138 3.28583C21.9733 4.04535 22.4 5.07548 22.4 6.14961C22.4 7.22374 21.9733 8.25387 21.2138 9.01339C20.4543 9.77291 19.4242 10.1996 18.35 10.1996C17.2759 10.1996 16.2458 9.77291 15.4862 9.01339C14.7267 8.25387 14.3 7.22374 14.3 6.14961C14.3 5.07548 14.7267 4.04535 15.4862 3.28583C16.2458 2.5263 17.2759 2.09961 18.35 2.09961ZM18.35 6.74991C17.9081 6.74991 17.504 6.90921 17.1899 7.17291L17.0774 7.27641L18.35 8.54991L19.6217 7.27551C19.4548 7.10855 19.2565 6.97617 19.0383 6.88598C18.82 6.79579 18.5862 6.74955 18.35 6.74991ZM18.35 4.34961C17.3097 4.34805 16.306 4.73404 15.5348 5.43231L15.3791 5.58081L16.2287 6.42861C16.5069 6.14951 16.8376 5.92815 17.2016 5.77725C17.5657 5.62635 17.9559 5.54889 18.35 5.54931C19.0794 5.54821 19.7839 5.8139 20.3309 6.29631L20.4713 6.42861L21.32 5.57991C20.9304 5.18927 20.4675 4.87948 19.9578 4.66835C19.4481 4.45721 18.9017 4.34889 18.35 4.34961Z" fill="#0A0D14" style="fill:#0A0D14;fill:color(display-p3 0.0392 0.0510 0.0784);fill-opacity:1;"/>
</svg>
