<svg width="25" height="24" viewBox="0 0 25 24" fill="none" xmlns="http://www.w3.org/2000/svg">
<path d="M17.18 19.2004L18.8 20.5504V21.0004H6.19999V20.5504L7.81999 19.2004H6.19999C5.7226 19.2004 5.26477 19.0107 4.9272 18.6732C4.58964 18.3356 4.39999 17.8778 4.39999 17.4004V7.50039C4.39999 6.54561 4.77928 5.62994 5.45441 4.95481C6.12954 4.27968 7.04521 3.90039 7.99999 3.90039H17C17.9548 3.90039 18.8704 4.27968 19.5456 4.95481C20.2207 5.62994 20.6 6.54561 20.6 7.50039V17.4004C20.6 17.8778 20.4104 18.3356 20.0728 18.6732C19.7352 19.0107 19.2774 19.2004 18.8 19.2004H17.18ZM11.6 12.0004V5.70039H7.99999C7.5226 5.70039 7.06477 5.89003 6.7272 6.2276C6.38964 6.56516 6.19999 7.023 6.19999 7.50039V12.0004H11.6ZM13.4 12.0004H18.8V7.50039C18.8 7.023 18.6104 6.56516 18.2728 6.2276C17.9352 5.89003 17.4774 5.70039 17 5.70039H13.4V12.0004ZM8.44999 17.4004C8.80804 17.4004 9.15141 17.2582 9.40459 17.005C9.65776 16.7518 9.79999 16.4084 9.79999 16.0504C9.79999 15.6923 9.65776 15.349 9.40459 15.0958C9.15141 14.8426 8.80804 14.7004 8.44999 14.7004C8.09195 14.7004 7.74857 14.8426 7.4954 15.0958C7.24223 15.349 7.09999 15.6923 7.09999 16.0504C7.09999 16.4084 7.24223 16.7518 7.4954 17.005C7.74857 17.2582 8.09195 17.4004 8.44999 17.4004ZM16.55 17.4004C16.908 17.4004 17.2514 17.2582 17.5046 17.005C17.7578 16.7518 17.9 16.4084 17.9 16.0504C17.9 15.6923 17.7578 15.349 17.5046 15.0958C17.2514 14.8426 16.908 14.7004 16.55 14.7004C16.192 14.7004 15.8486 14.8426 15.5954 15.0958C15.3422 15.349 15.2 15.6923 15.2 16.0504C15.2 16.4084 15.3422 16.7518 15.5954 17.005C15.8486 17.2582 16.192 17.4004 16.55 17.4004Z" fill="#0A0D14" style="fill:#0A0D14;fill:color(display-p3 0.0392 0.0510 0.0784);fill-opacity:1;"/>
</svg>
