<svg width="25" height="24" viewBox="0 0 25 24" fill="none" xmlns="http://www.w3.org/2000/svg">
<path d="M13.4 3.89961V11.9996H20.6V17.3996C20.6 17.877 20.4104 18.3348 20.0728 18.6724C19.7353 19.01 19.2774 19.1996 18.8 19.1996H17.18L18.8 20.5496V20.9996H6.20002V20.5496L7.82002 19.1996H6.20002C5.72263 19.1996 5.2648 19.01 4.92723 18.6724C4.58967 18.3348 4.40002 17.877 4.40002 17.3996V7.49961C4.40002 6.54483 4.77931 5.62916 5.45444 4.95402C6.12957 4.27889 7.04524 3.89961 8.00002 3.89961H13.4ZM8.45002 14.6996C8.09198 14.6996 7.7486 14.8418 7.49543 15.095C7.24226 15.3482 7.10002 15.6916 7.10002 16.0496C7.10002 16.4077 7.24226 16.751 7.49543 17.0042C7.7486 17.2574 8.09198 17.3996 8.45002 17.3996C8.80807 17.3996 9.15144 17.2574 9.40462 17.0042C9.65779 16.751 9.80002 16.4077 9.80002 16.0496C9.80002 15.6916 9.65779 15.3482 9.40462 15.095C9.15144 14.8418 8.80807 14.6996 8.45002 14.6996ZM16.55 14.6996C16.192 14.6996 15.8486 14.8418 15.5954 15.095C15.3423 15.3482 15.2 15.6916 15.2 16.0496C15.2 16.4077 15.3423 16.751 15.5954 17.0042C15.8486 17.2574 16.192 17.3996 16.55 17.3996C16.9081 17.3996 17.2514 17.2574 17.5046 17.0042C17.7578 16.751 17.9 16.4077 17.9 16.0496C17.9 15.6916 17.7578 15.3482 17.5046 15.095C17.2514 14.8418 16.9081 14.6996 16.55 14.6996ZM11.6 5.69961H8.00002C7.54591 5.69947 7.10851 5.87098 6.77553 6.17976C6.44255 6.48854 6.23858 6.91177 6.20452 7.36461L6.20002 7.49961V11.9996H11.6V5.69961ZM18.35 2.09961C19.4242 2.09961 20.4543 2.5263 21.2138 3.28583C21.9733 4.04535 22.4 5.07548 22.4 6.14961C22.4 7.22374 21.9733 8.25387 21.2138 9.01339C20.4543 9.77291 19.4242 10.1996 18.35 10.1996C17.2759 10.1996 16.2458 9.77291 15.4862 9.01339C14.7267 8.25387 14.3 7.22374 14.3 6.14961C14.3 5.07548 14.7267 4.04535 15.4862 3.28583C16.2458 2.5263 17.2759 2.09961 18.35 2.09961ZM18.35 6.74991C17.9081 6.74991 17.504 6.90921 17.1899 7.17291L17.0774 7.27641L18.35 8.54991L19.6217 7.27551C19.4548 7.10855 19.2565 6.97617 19.0383 6.88598C18.82 6.79579 18.5862 6.74955 18.35 6.74991ZM18.35 4.34961C17.3097 4.34805 16.306 4.73404 15.5348 5.43231L15.3791 5.58081L16.2287 6.42861C16.5069 6.14951 16.8376 5.92815 17.2016 5.77725C17.5657 5.62635 17.9559 5.54889 18.35 5.54931C19.0794 5.54821 19.7839 5.8139 20.3309 6.29631L20.4713 6.42861L21.32 5.57991C20.9304 5.18927 20.4675 4.87948 19.9578 4.66835C19.4481 4.45721 18.9017 4.34889 18.35 4.34961Z" fill="#0A0D14" style="fill:#0A0D14;fill:color(display-p3 0.0392 0.0510 0.0784);fill-opacity:1;"/>
</svg>
