<svg width="25" height="24" viewBox="0 0 25 24" fill="none" xmlns="http://www.w3.org/2000/svg">
<path d="M17.9 21.9H16.1V21H8.90002V21.9H7.10002V21H6.20002C5.20552 21 4.40002 20.1945 4.40002 19.2V7.5C4.40002 6.5055 5.20552 5.7 6.20002 5.7H8.90002V3.9C8.90002 3.4032 9.30322 3 9.80002 3H15.2C15.6968 3 16.1 3.4032 16.1 3.9V5.7H18.8C19.7945 5.7 20.6 6.5055 20.6 7.5V19.2C20.6 20.1945 19.7945 21 18.8 21H17.9V21.9ZM18.8 7.5H6.20002V19.2H18.8V7.5ZM10.7 9.3V17.4H8.90002V9.3H10.7ZM16.1 9.3V17.4H14.3V9.3H16.1ZM14.3 4.8H10.7V5.7H14.3V4.8Z" fill="#0A0D14" style="fill:#0A0D14;fill:color(display-p3 0.0392 0.0510 0.0784);fill-opacity:1;"/>
</svg>
