<svg width="25" height="24" viewBox="0 0 25 24" fill="none" xmlns="http://www.w3.org/2000/svg">
<path d="M15.2 2.09961C15.6968 2.09961 16.1 2.50281 16.1 2.99961V7.49961H17V6.59961H18.8V7.49961H19.7C20.1968 7.49961 20.6 7.90281 20.6 8.39961V19.1996C20.6 19.6964 20.1968 20.0996 19.7 20.0996H18.8V20.9996H17V20.0996H8.00002V20.9996H6.20002V20.0996H5.30002C4.80322 20.0996 4.40002 19.6964 4.40002 19.1996V8.39961C4.40002 7.90281 4.80322 7.49961 5.30002 7.49961H6.20002V6.59961H8.00002V7.49961H8.90002V2.99961C8.90002 2.50281 9.30322 2.09961 9.80002 2.09961H15.2ZM18.8 9.29961H6.20002V18.2996H18.8V9.29961ZM9.80002 10.1996V17.3996H8.00002V10.1996H9.80002ZM13.4 10.1996V17.3996H11.6V10.1996H13.4ZM17 10.1996V17.3996H15.2V10.1996H17ZM14.3 3.89961H10.7V7.49961H14.3V3.89961Z" fill="#0A0D14" style="fill:#0A0D14;fill:color(display-p3 0.0392 0.0510 0.0784);fill-opacity:1;"/>
</svg>
