<svg width="25" height="24" viewBox="0 0 25 24" fill="none" xmlns="http://www.w3.org/2000/svg">
<path d="M15.2 3.90039C15.6968 3.90039 16.1 4.30359 16.1 4.80039V6.60039H20.6C21.0968 6.60039 21.5 7.00359 21.5 7.50039V19.2004C21.5 19.6972 21.0968 20.1004 20.6 20.1004H4.4C3.9032 20.1004 3.5 19.6972 3.5 19.2004V7.50039C3.5 7.00359 3.9032 6.60039 4.4 6.60039H8.9V4.80039C8.9 4.30359 9.3032 3.90039 9.8 3.90039H15.2ZM8.9 8.40039H7.1V18.3004H8.9V8.40039ZM17.9 8.40039H16.1V18.3004H17.9V8.40039ZM14.3 5.70039H10.7V6.60039H14.3V5.70039Z" fill="#0A0D14" style="fill:#0A0D14;fill:color(display-p3 0.0392 0.0510 0.0784);fill-opacity:1;"/>
</svg>
