<svg width="25" height="24" viewBox="0 0 25 24" fill="none" xmlns="http://www.w3.org/2000/svg">
<path d="M10.6856 5.7554C11.0507 5.06008 11.5521 4.44539 12.1598 3.94798C12.7675 3.45056 13.4692 3.08061 14.223 2.86017C14.9768 2.63974 15.7672 2.57333 16.5472 2.66491C17.3272 2.75649 18.0807 3.00419 18.763 3.39323C19.4452 3.78227 20.0421 4.3047 20.5181 4.92936C20.9941 5.55401 21.3394 6.26812 21.5335 7.0291C21.7276 7.79008 21.7665 8.58236 21.6479 9.35869C21.5292 10.135 21.2555 10.8795 20.843 11.5478C21.5649 12.2276 22.066 13.1086 22.2813 14.0766C22.4966 15.0445 22.4162 16.0548 22.0506 16.9766C21.685 17.8983 21.0509 18.689 20.2306 19.2462C19.4103 19.8033 18.4416 20.1013 17.45 20.1014L9.8 20.1005C8.81758 20.0998 7.8457 19.898 6.94418 19.5076C6.04266 19.1171 5.23058 18.5464 4.55792 17.8304C3.88525 17.1143 3.36623 16.2682 3.03281 15.3441C2.69938 14.42 2.5586 13.4374 2.61913 12.4569C2.67966 11.4763 2.94023 10.5185 3.38478 9.64245C3.82934 8.76636 4.44848 7.99052 5.2041 7.36268C5.95973 6.73483 6.83584 6.26827 7.77853 5.9917C8.72123 5.71513 9.71054 5.63441 10.6856 5.7545V5.7554ZM12.5495 6.24501C13.4485 6.61763 14.2629 7.16805 14.9438 7.86324C15.6248 8.55842 16.1582 9.38403 16.5122 10.2905C17.4553 10.1098 18.4305 10.2057 19.3202 10.5668C19.7374 9.67649 19.8165 8.6648 19.5427 7.72048C19.2689 6.77615 18.6609 5.96367 17.8322 5.4346C17.0034 4.90554 16.0105 4.69602 15.0387 4.84514C14.0668 4.99425 13.1824 5.49181 12.5504 6.24501H12.5495ZM17.45 18.3014C17.9693 18.3013 18.4806 18.1729 18.9383 17.9274C19.3959 17.682 19.7858 17.3272 20.0732 16.8946C20.3606 16.4621 20.5366 15.9651 20.5855 15.4481C20.6345 14.9311 20.5548 14.41 20.3536 13.9312C20.1524 13.4524 19.836 13.0308 19.4325 12.7039C19.029 12.3769 18.5509 12.1549 18.0408 12.0574C17.5307 11.9599 17.0044 11.9901 16.5088 12.1452C16.0131 12.3003 15.5635 12.5755 15.2 12.9464V12.9014C15.2 11.8334 14.8833 10.7894 14.2899 9.90133C13.6966 9.0133 12.8532 8.32117 11.8665 7.91246C10.8798 7.50374 9.79401 7.3968 8.74651 7.60516C7.69901 7.81352 6.73683 8.32783 5.98162 9.08303C5.22642 9.83823 4.71212 10.8004 4.50376 11.8479C4.2954 12.8954 4.40234 13.9812 4.81105 14.9679C5.21976 15.9546 5.91189 16.798 6.79992 17.3913C7.68794 17.9847 8.73198 18.3014 9.8 18.3014H17.45Z" fill="#0A0D14" style="fill:#0A0D14;fill:color(display-p3 0.0392 0.0510 0.0784);fill-opacity:1;"/>
</svg>
