<svg width="25" height="24" viewBox="0 0 25 24" fill="none" xmlns="http://www.w3.org/2000/svg">
<path d="M12.5 17.4016C11.0678 17.4016 9.69433 16.8326 8.68163 15.8199C7.66893 14.8072 7.10001 13.4337 7.10001 12.0016C7.10001 10.5694 7.66893 9.19588 8.68163 8.18319C9.69433 7.17049 11.0678 6.60156 12.5 6.60156C13.9322 6.60156 15.3057 7.17049 16.3184 8.18319C17.3311 9.19588 17.9 10.5694 17.9 12.0016C17.9 13.4337 17.3311 14.8072 16.3184 15.8199C15.3057 16.8326 13.9322 17.4016 12.5 17.4016ZM12.5 15.6016C13.4548 15.6016 14.3705 15.2223 15.0456 14.5471C15.7207 13.872 16.1 12.9563 16.1 12.0016C16.1 11.0468 15.7207 10.1311 15.0456 9.45598C14.3705 8.78085 13.4548 8.40156 12.5 8.40156C11.5452 8.40156 10.6296 8.78085 9.95442 9.45598C9.27929 10.1311 8.90001 11.0468 8.90001 12.0016C8.90001 12.9563 9.27929 13.872 9.95442 14.5471C10.6296 15.2223 11.5452 15.6016 12.5 15.6016ZM11.6 2.10156H13.4V4.80156H11.6V2.10156ZM11.6 19.2016H13.4V21.9016H11.6V19.2016ZM4.86351 5.63766L6.13611 4.36506L8.04501 6.27396L6.77241 7.54656L4.86351 5.63856V5.63766ZM16.955 17.7292L18.2276 16.4566L20.1365 18.3655L18.8639 19.6381L16.955 17.7292ZM18.8639 4.36416L20.1365 5.63766L18.2276 7.54656L16.955 6.27396L18.8639 4.36506V4.36416ZM6.77241 16.4566L8.04501 17.7292L6.13611 19.6381L4.86351 18.3655L6.77241 16.4566ZM22.4 11.1016V12.9016H19.7V11.1016H22.4ZM5.30001 11.1016V12.9016H2.60001V11.1016H5.30001Z" fill="#0A0D14" style="fill:#0A0D14;fill:color(display-p3 0.0392 0.0510 0.0784);fill-opacity:1;"/>
</svg>
