<svg width="25" height="24" viewBox="0 0 25 24" fill="none" xmlns="http://www.w3.org/2000/svg">
<path d="M8.9 12.0016H10.7V13.8016H5.3V12.0016H7.1C7.1 10.9335 7.4167 9.88951 8.01006 9.00148C8.60342 8.11346 9.44679 7.42133 10.4335 7.01261C11.4202 6.6039 12.506 6.49696 13.5535 6.70532C14.601 6.91368 15.5632 7.42798 16.3184 8.18319C17.0736 8.93839 17.5879 9.90058 17.7962 10.9481C18.0046 11.9956 17.8977 13.0813 17.4889 14.0681C17.0802 15.0548 16.3881 15.8981 15.5001 16.4915C14.6121 17.0849 13.568 17.4016 12.5 17.4016V15.6016C13.212 15.6016 13.908 15.3904 14.5001 14.9949C15.0921 14.5993 15.5535 14.037 15.826 13.3792C16.0984 12.7214 16.1697 11.9976 16.0308 11.2992C15.8919 10.6009 15.5491 9.95945 15.0456 9.45598C14.5421 8.95251 13.9007 8.60964 13.2023 8.47074C12.504 8.33183 11.7802 8.40312 11.1223 8.6756C10.4645 8.94807 9.90228 9.40949 9.50671 10.0015C9.11114 10.5935 8.9 11.2895 8.9 12.0016ZM7.1 19.2016H15.2V21.0016H7.1V19.2016ZM3.5 15.6016H10.7V17.4016H3.5V15.6016ZM11.6 2.10156H13.4V4.80156H11.6V2.10156ZM4.8635 5.63766L6.1361 4.36506L8.045 6.27396L6.7724 7.54656L4.8635 5.63856V5.63766ZM16.955 17.7292L18.2276 16.4566L20.1365 18.3655L18.8639 19.6381L16.955 17.7292ZM18.8639 4.36416L20.1365 5.63766L18.2276 7.54656L16.955 6.27396L18.8639 4.36506V4.36416ZM22.4 11.1016V12.9016H19.7V11.1016H22.4Z" fill="#0A0D14" style="fill:#0A0D14;fill:color(display-p3 0.0392 0.0510 0.0784);fill-opacity:1;"/>
</svg>
