<svg width="25" height="24" viewBox="0 0 25 24" fill="none" xmlns="http://www.w3.org/2000/svg">
<path d="M7.40688 13.8016C7.02481 12.7209 6.99651 11.5467 7.32608 10.4489C7.65565 9.3511 8.32598 8.38663 9.24008 7.69509C10.1542 7.00356 11.2646 6.62082 12.4107 6.60227C13.5567 6.58372 14.679 6.93033 15.6149 7.59192C16.5509 8.25352 17.2521 9.19579 17.6171 10.2824C17.982 11.3689 17.9917 12.5434 17.6448 13.6359C17.2979 14.7283 16.6124 15.6821 15.6875 16.359C14.7625 17.036 13.6462 17.4012 12.5 17.4016V13.8016H7.40688ZM7.09998 19.2016H15.2V21.0016H7.09998V19.2016ZM2.59998 11.1016H5.29998V12.9016H2.59998V11.1016ZM3.49998 15.6016H10.7V17.4016H3.49998V15.6016ZM11.6 2.10156H13.4V4.80156H11.6V2.10156ZM4.86348 5.63766L6.13608 4.36506L8.04498 6.27396L6.77238 7.54656L4.86348 5.63856V5.63766ZM16.955 17.7292L18.2276 16.4566L20.1365 18.3655L18.8639 19.6381L16.955 17.7292ZM18.8639 4.36416L20.1365 5.63766L18.2276 7.54656L16.955 6.27396L18.8639 4.36506V4.36416ZM22.4 11.1016V12.9016H19.7V11.1016H22.4Z" fill="#0A0D14" style="fill:#0A0D14;fill:color(display-p3 0.0392 0.0510 0.0784);fill-opacity:1;"/>
</svg>
