<svg width="25" height="24" viewBox="0 0 25 24" fill="none" xmlns="http://www.w3.org/2000/svg">
<path d="M11.7498 4.94865V13.477H6.4251C5.92291 13.477 5.62297 12.8883 5.9424 12.4744L11.7498 4.94865ZM13.2498 9.02287V4.74963C13.2498 3.39104 11.5275 2.78133 10.6865 3.8713L4.75487 11.558C3.68464 12.9449 4.66076 14.977 6.4251 14.977H11.7498V19.2502C11.7498 20.6088 13.472 21.2185 14.3131 20.1286L20.2446 12.4418C21.3149 11.0549 20.3388 9.02287 18.5745 9.02287H13.2498ZM13.2498 10.5229H18.5745C19.0766 10.5229 19.3766 11.1115 19.0572 11.5255L13.2498 19.0512V10.5229Z" fill="#0A0D14" style="fill:#0A0D14;fill:color(display-p3 0.0392 0.0510 0.0784);fill-opacity:1;"/>
</svg>
