<svg width="25" height="24" viewBox="0 0 25 24" fill="none" xmlns="http://www.w3.org/2000/svg">
<path d="M11.6 7.50078V19.2008H9.79999V7.50078H4.39999V5.70078H15.2V7.50078H11.6ZM19.295 7.12278C19.3876 7.03485 19.4551 6.92388 19.4907 6.80124C19.5263 6.6786 19.5286 6.54871 19.4974 6.42488C19.4662 6.30106 19.4027 6.18775 19.3133 6.09657C19.2239 6.0054 19.1118 5.93965 18.9886 5.90605C18.8655 5.87245 18.7355 5.87222 18.6122 5.90538C18.4889 5.93854 18.3766 6.0039 18.2869 6.09475C18.1972 6.1856 18.1332 6.29869 18.1016 6.4224C18.07 6.54612 18.0719 6.67602 18.107 6.79878L17.0684 7.09578C16.9919 6.8278 16.9787 6.54574 17.0298 6.27178C17.0808 5.99782 17.1947 5.73945 17.3626 5.517C17.5304 5.29454 17.7476 5.11407 17.997 4.98979C18.2465 4.86551 18.5213 4.80081 18.8 4.80078C19.1604 4.80083 19.5124 4.90904 19.8106 5.11141C20.1088 5.31378 20.3393 5.601 20.4724 5.93587C20.6056 6.27074 20.6351 6.63787 20.5572 6.98972C20.4794 7.34156 20.2977 7.66194 20.0357 7.90938L18.5696 9.30078H20.6V10.2008H17V9.30078L19.295 7.12278Z" fill="#0A0D14" style="fill:#0A0D14;fill:color(display-p3 0.0392 0.0510 0.0784);fill-opacity:1;"/>
</svg>
