<svg width="25" height="24" viewBox="0 0 25 24" fill="none" xmlns="http://www.w3.org/2000/svg">
<path d="M6.73642 5.70078L11.15 11.036L15.5636 5.70078H17.9L12.3182 12.4481L17.9 19.1954V19.2008H15.569L11.15 13.8602L6.73102 19.2008H4.40002V19.1954L9.98182 12.4481L4.40002 5.70078H6.73642ZM21.095 7.12278C21.1876 7.03485 21.2552 6.92388 21.2907 6.80124C21.3263 6.6786 21.3286 6.54871 21.2974 6.42488C21.2663 6.30106 21.2027 6.18775 21.1133 6.09657C21.0239 6.0054 20.9119 5.93965 20.7887 5.90605C20.6655 5.87245 20.5356 5.87222 20.4123 5.90538C20.289 5.93854 20.1767 6.0039 20.0869 6.09475C19.9972 6.1856 19.9333 6.29869 19.9017 6.4224C19.87 6.54612 19.8719 6.67602 19.907 6.79878L18.8675 7.09578C18.791 6.82773 18.7778 6.54558 18.8289 6.27156C18.88 5.99753 18.994 5.73911 19.162 5.51664C19.3299 5.29416 19.5472 5.11371 19.7968 4.98949C20.0463 4.86527 20.3213 4.80067 20.6 4.80078C20.9604 4.80083 21.3124 4.90904 21.6106 5.11141C21.9088 5.31379 22.1394 5.601 22.2725 5.93587C22.4056 6.27074 22.4351 6.63787 22.3573 6.98972C22.2794 7.34156 22.0977 7.66194 21.8357 7.90938L20.3696 9.30078H22.4V10.2008H18.8V9.30078L21.095 7.12278Z" fill="#0A0D14" style="fill:#0A0D14;fill:color(display-p3 0.0392 0.0510 0.0784);fill-opacity:1;"/>
</svg>
