<svg width="25" height="24" viewBox="0 0 25 24" fill="none" xmlns="http://www.w3.org/2000/svg">
<path d="M12.9365 4.00908L19.9187 5.75508C20.3192 5.85408 20.6 6.21408 20.6 6.62808V7.50018H21.5C22.49 7.50018 23.3 8.31018 23.3 9.30018V12.0002C23.3 13.4915 22.0913 14.7002 20.6 14.7002H20.2211C19.7396 15.9152 18.8243 16.9376 17.6147 17.5424L13.3046 19.6979C12.7979 19.9508 12.2021 19.9508 11.6954 19.6979L7.38441 17.5424C6.17661 16.9376 5.26131 15.9152 4.77981 14.7002H4.40001C2.90871 14.7002 1.70001 13.4915 1.70001 12.0002V9.30018C1.70001 8.30568 2.50551 7.50018 3.50001 7.50018H4.40001V6.62718C4.40001 6.21498 4.68081 5.85498 5.08131 5.75418L12.0635 4.00908C12.3497 3.93708 12.6503 3.93708 12.9365 4.00908ZM4.40001 9.30018H3.50001V12.0002C3.50001 12.497 3.90321 12.9002 4.40001 12.9002V9.30018ZM21.5 9.30018H20.6V12.9002C21.0968 12.9002 21.5 12.497 21.5 12.0002V9.30018Z" fill="#0A0D14" style="fill:#0A0D14;fill:color(display-p3 0.0392 0.0510 0.0784);fill-opacity:1;"/>
</svg>
