<svg width="25" height="24" viewBox="0 0 25 24" fill="none" xmlns="http://www.w3.org/2000/svg">
<path d="M5.3 5.69844V18.2984H19.7V5.69844H5.3ZM4.4 3.89844H20.6C20.8387 3.89844 21.0676 3.99326 21.2364 4.16204C21.4052 4.33082 21.5 4.55974 21.5 4.79844V19.1984C21.5 19.4371 21.4052 19.6661 21.2364 19.8348C21.0676 20.0036 20.8387 20.0984 20.6 20.0984H4.4C4.16131 20.0984 3.93239 20.0036 3.7636 19.8348C3.59482 19.6661 3.5 19.4371 3.5 19.1984V4.79844C3.5 4.55974 3.59482 4.33082 3.7636 4.16204C3.93239 3.99326 4.16131 3.89844 4.4 3.89844ZM8.045 7.60734L9.3176 8.88084C8.89934 9.2981 8.56763 9.79388 8.34151 10.3397C8.1154 10.8855 7.99934 11.4706 8 12.0614C8 13.3034 8.504 14.4284 9.3176 15.2438L8.045 16.5164C7.45913 15.932 6.99453 15.2376 6.6779 14.4731C6.36127 13.7085 6.19886 12.8889 6.2 12.0614C6.2 10.3217 6.9056 8.74674 8.045 7.60644V7.60734ZM16.955 7.60734C17.5409 8.19174 18.0055 8.88617 18.3221 9.65071C18.6387 10.4152 18.8011 11.2348 18.8 12.0623C18.8011 12.8898 18.6387 13.7094 18.3221 14.474C18.0055 15.2385 17.5409 15.9329 16.955 16.5173L15.6824 15.2447C16.101 14.8272 16.4329 14.3309 16.659 13.7846C16.8851 13.2383 17.001 12.6527 17 12.0614C17 10.8194 16.496 9.69444 15.6824 8.87994L16.955 7.60644V7.60734ZM12.5 12.9623C12.7387 12.9623 12.9676 12.8675 13.1364 12.6987C13.3052 12.53 13.4 12.301 13.4 12.0623C13.4 11.8236 13.3052 11.5947 13.1364 11.4259C12.9676 11.2572 12.7387 11.1623 12.5 11.1623C12.2613 11.1623 12.0324 11.2572 11.8636 11.4259C11.6948 11.5947 11.6 11.8236 11.6 12.0623C11.6 12.301 11.6948 12.53 11.8636 12.6987C12.0324 12.8675 12.2613 12.9623 12.5 12.9623ZM12.5 14.7623C11.7839 14.7623 11.0972 14.4779 10.5908 13.9715C10.0845 13.4652 9.8 12.7784 9.8 12.0623C9.8 11.3463 10.0845 10.6595 10.5908 10.1531C11.0972 9.6468 11.7839 9.36234 12.5 9.36234C13.2161 9.36234 13.9028 9.6468 14.4092 10.1531C14.9155 10.6595 15.2 11.3463 15.2 12.0623C15.2 12.7784 14.9155 13.4652 14.4092 13.9715C13.9028 14.4779 13.2161 14.7623 12.5 14.7623Z" fill="#0A0D14" style="fill:#0A0D14;fill:color(display-p3 0.0392 0.0510 0.0784);fill-opacity:1;"/>
</svg>
