<svg width="25" height="24" viewBox="0 0 25 24" fill="none" xmlns="http://www.w3.org/2000/svg">
<path d="M17 3V4.8H19.7063C20.1995 4.8 20.6 5.2005 20.6 5.6937V20.1063C20.6 20.5995 20.1995 21 19.7063 21H5.29372C4.80052 21 4.40002 20.5995 4.40002 20.1063V5.6937C4.40002 5.2005 4.80052 4.8 5.29372 4.8H8.00002V3H17ZM8.00002 6.6H6.20002V19.2H18.8V6.6H17V8.4H8.00002V6.6ZM9.80002 15.6V17.4H8.00002V15.6H9.80002ZM9.80002 12.9V14.7H8.00002V12.9H9.80002ZM9.80002 10.2V12H8.00002V10.2H9.80002ZM15.2 4.8H9.80002V6.6H15.2V4.8Z" fill="#0A0D14" style="fill:#0A0D14;fill:color(display-p3 0.0392 0.0510 0.0784);fill-opacity:1;"/>
</svg>
