<svg width="25" height="24" viewBox="0 0 25 24" fill="none" xmlns="http://www.w3.org/2000/svg">
<path d="M7.10002 4.8V8.4H17.9V4.8H19.7063C20.1995 4.8 20.6 5.2005 20.6 5.6937V20.1063C20.6 20.5995 20.1995 21 19.7063 21H5.29372C4.80052 21 4.40002 20.5995 4.40002 20.1063V5.6937C4.40002 5.2005 4.80052 4.8 5.29372 4.8H7.10002ZM9.80002 16.5H8.00002V18.3H9.80002V16.5ZM9.80002 13.8H8.00002V15.6H9.80002V13.8ZM9.80002 11.1H8.00002V12.9H9.80002V11.1ZM16.1 3V6.6H8.90002V3H16.1Z" fill="#0A0D14" style="fill:#0A0D14;fill:color(display-p3 0.0392 0.0510 0.0784);fill-opacity:1;"/>
</svg>
