<svg width="25" height="24" viewBox="0 0 25 24" fill="none" xmlns="http://www.w3.org/2000/svg">
<path d="M13.9571 20.1004C13.8806 20.1004 13.8302 20.0491 13.8428 19.9861V4.01469C13.8428 3.96429 13.8806 3.91299 13.9445 3.91299H16.451C17.5514 3.91299 18.6067 4.35012 19.3848 5.1282C20.1629 5.90629 20.6 6.96161 20.6 8.06199V15.9514C20.6 17.0518 20.1629 18.1071 19.3848 18.8852C18.6067 19.6633 17.5514 20.1004 16.451 20.1004H13.958H13.9571ZM17.0369 11.167C16.1333 11.167 15.3953 11.905 15.3953 12.8086C15.3953 13.7122 16.1333 14.4502 17.0369 14.4502C17.9405 14.4502 18.6785 13.7122 18.6785 12.8086C18.6785 11.905 17.9405 11.167 17.0369 11.167ZM6.92002 8.76039C6.92002 7.92069 7.60672 7.23399 8.44642 7.23399C9.28702 7.23399 9.97372 7.92069 9.97372 8.76039C9.97372 9.60099 9.28702 10.2877 8.44642 10.2877C8.04204 10.2863 7.65462 10.125 7.36867 9.83905C7.08272 9.5531 6.92145 9.16568 6.92002 8.76129V8.76039ZM12.086 3.90039C12.1625 3.90039 12.2138 3.95169 12.2012 4.01469V19.9744C12.2012 20.0374 12.1499 20.0887 12.086 20.0887H8.54902C8.00409 20.0887 7.4645 19.9813 6.96106 19.7728C6.45762 19.5642 6.0002 19.2585 5.61492 18.8732C5.22964 18.4878 4.92404 18.0303 4.71559 17.5268C4.50714 17.0233 4.39991 16.4837 4.40002 15.9388V8.04939C4.40002 6.94901 4.83715 5.89369 5.61524 5.1156C6.39333 4.33752 7.44864 3.90039 8.54902 3.90039H12.086ZM10.9025 18.79V5.19819H8.54902C7.78492 5.19819 7.07302 5.50419 6.53752 6.03789C6.26923 6.29928 6.05654 6.61222 5.91224 6.95788C5.76795 7.30355 5.69501 7.67482 5.69782 8.04939V15.9388C5.69782 16.7029 6.00382 17.4148 6.53752 17.9494C6.79884 18.2178 7.11174 18.4307 7.45741 18.5752C7.80308 18.7196 8.17439 18.7927 8.54902 18.79H10.9025Z" fill="#0A0D14" style="fill:#0A0D14;fill:color(display-p3 0.0392 0.0510 0.0784);fill-opacity:1;"/>
</svg>
