<svg width="25" height="24" viewBox="0 0 25 24" fill="none" xmlns="http://www.w3.org/2000/svg">
<path d="M12.5 3.90039V20.1004H8.54002C7.44203 20.1004 6.389 19.6642 5.6126 18.8878C4.8362 18.1114 4.40002 17.0584 4.40002 15.9604V8.04039C4.40002 6.94239 4.8362 5.88937 5.6126 5.11297C6.389 4.33657 7.44203 3.90039 8.54002 3.90039H12.5ZM10.7 5.70039H8.54002C7.91942 5.70039 7.32423 5.94693 6.88539 6.38576C6.44656 6.8246 6.20002 7.41978 6.20002 8.04039V15.9604C6.20002 16.581 6.44656 17.1762 6.88539 17.615C7.32423 18.0539 7.91942 18.3004 8.54002 18.3004H10.7V5.70039ZM8.45002 10.2004C8.09198 10.2004 7.7486 10.0582 7.49543 9.80499C7.24226 9.55181 7.10002 9.20843 7.10002 8.85039C7.10002 8.49235 7.24226 8.14897 7.49543 7.8958C7.7486 7.64262 8.09198 7.50039 8.45002 7.50039C8.80807 7.50039 9.15144 7.64262 9.40462 7.8958C9.65779 8.14897 9.80002 8.49235 9.80002 8.85039C9.80002 9.20843 9.65779 9.55181 9.40462 9.80499C9.15144 10.0582 8.80807 10.2004 8.45002 10.2004ZM14.3 3.90039H16.46C17.0037 3.90039 17.542 4.00747 18.0443 4.21553C18.5466 4.42358 19.003 4.72853 19.3874 5.11297C19.7719 5.4974 20.0768 5.95379 20.2849 6.45608C20.4929 6.95837 20.6 7.49672 20.6 8.04039V15.9604C20.6 16.5041 20.4929 17.0424 20.2849 17.5447C20.0768 18.047 19.7719 18.5034 19.3874 18.8878C19.003 19.2722 18.5466 19.5772 18.0443 19.7853C17.542 19.9933 17.0037 20.1004 16.46 20.1004H14.3V3.90039ZM17 14.4304C17.2128 14.4304 17.4234 14.3885 17.62 14.3071C17.8165 14.2257 17.9951 14.1063 18.1455 13.9559C18.296 13.8055 18.4153 13.6269 18.4967 13.4303C18.5781 13.2338 18.62 13.0231 18.62 12.8104C18.62 12.5976 18.5781 12.387 18.4967 12.1904C18.4153 11.9939 18.296 11.8153 18.1455 11.6649C17.9951 11.5144 17.8165 11.3951 17.62 11.3137C17.4234 11.2323 17.2128 11.1904 17 11.1904C16.5704 11.1904 16.1583 11.3611 15.8545 11.6649C15.5507 11.9687 15.38 12.3807 15.38 12.8104C15.38 13.24 15.5507 13.6521 15.8545 13.9559C16.1583 14.2597 16.5704 14.4304 17 14.4304Z" fill="#0A0D14" style="fill:#0A0D14;fill:color(display-p3 0.0392 0.0510 0.0784);fill-opacity:1;"/>
</svg>
