<svg width="25" height="24" viewBox="0 0 25 24" fill="none" xmlns="http://www.w3.org/2000/svg">
<path d="M8.045 13.2638L11.2256 16.4462L9.9539 17.7188L11.2274 18.9923L9.9548 20.2649L7.7273 18.0374L5.1812 20.5835L3.9086 19.3109L6.4547 16.7639L4.2272 14.5373L5.4998 13.2647L6.7724 14.5364L8.0441 13.2638H8.045ZM4.4 3.89844L7.5914 3.90114L18.2267 14.5373L19.5002 13.2647L20.7728 14.5373L18.5462 16.7648L21.0914 19.3109L19.8188 20.5835L17.2727 18.0374L15.0452 20.2649L13.7726 18.9923L15.0452 17.7188L4.4027 7.07634L4.4 3.89844ZM17.4113 3.89844L20.6 3.90114L20.6018 7.07184L16.9541 10.7186L13.7717 7.53714L17.4113 3.89844Z" fill="#0A0D14" style="fill:#0A0D14;fill:color(display-p3 0.0392 0.0510 0.0784);fill-opacity:1;"/>
</svg>
