<svg width="25" height="24" viewBox="0 0 25 24" fill="none" xmlns="http://www.w3.org/2000/svg">
<path d="M21.2102 8.38126L19.9367 9.65296L18.0287 7.74496L16.1189 9.65296L19.3004 12.8354L18.0278 14.108L17.3915 13.4717L11.6639 19.1993H6.57261L4.66371 21.1082L3.39111 19.8356L5.30001 17.9267V12.8354L11.0276 7.10776L10.3913 6.47146L11.6639 5.19886L14.8463 8.38036L16.7543 6.47146L14.8463 4.56256L16.1189 3.28906L21.2102 8.38036V8.38126ZM16.1189 12.1991L12.3002 8.38036L11.0276 9.65296L12.9365 11.5628L11.6639 12.8354L9.75501 10.9265L8.48241 12.1991L10.3904 14.108L9.11871 15.3806L7.20891 13.4717L7.10001 13.5806V17.3993H10.9187L16.1189 12.1991Z" fill="#0A0D14" style="fill:#0A0D14;fill:color(display-p3 0.0392 0.0510 0.0784);fill-opacity:1;"/>
</svg>
