<svg width="25" height="24" viewBox="0 0 25 24" fill="none" xmlns="http://www.w3.org/2000/svg">
<path d="M21.2102 8.38126L19.9367 9.65296L18.0287 7.74496L16.1189 9.65296L19.3004 12.8354L18.0278 14.108L17.3915 13.4717L11.6639 19.1993H6.57261L4.66371 21.1082L3.39111 19.8356L5.30001 17.9267V12.8354L11.0276 7.10776L10.3913 6.47146L11.6639 5.19886L14.8463 8.38036L16.7543 6.47146L14.8463 4.56256L16.1189 3.28906L21.2102 8.38036V8.38126ZM10.3913 14.1071L7.84521 11.5619L6.57261 12.8345L9.11871 15.3797L10.3913 14.1071ZM12.9365 11.5619L10.3913 9.01666L9.11871 10.2902L11.6639 12.8354L12.9365 11.5628V11.5619Z" fill="#0A0D14" style="fill:#0A0D14;fill:color(display-p3 0.0392 0.0510 0.0784);fill-opacity:1;"/>
</svg>
