<svg width="25" height="24" viewBox="0 0 25 24" fill="none" xmlns="http://www.w3.org/2000/svg">
<path d="M20.6 3.89844C20.8387 3.89844 21.0676 3.99326 21.2364 4.16204C21.4052 4.33082 21.5 4.55974 21.5 4.79844V11.0984C21.5 11.3371 21.4052 11.5661 21.2364 11.7348C21.0676 11.9036 20.8387 11.9984 20.6 11.9984H18.7991L18.8 19.1984C18.8 19.4371 18.7052 19.6661 18.5364 19.8348C18.3676 20.0036 18.1387 20.0984 17.9 20.0984H7.1C6.8613 20.0984 6.63239 20.0036 6.4636 19.8348C6.29482 19.6661 6.2 19.4371 6.2 19.1984L6.1991 11.9975L4.4 11.9984C4.16131 11.9984 3.93239 11.9036 3.7636 11.7348C3.59482 11.5661 3.5 11.3371 3.5 11.0984V4.79844C3.5 4.55974 3.59482 4.33082 3.7636 4.16204C3.93239 3.99326 4.16131 3.89844 4.4 3.89844H9.8C9.8 4.61452 10.0845 5.30128 10.5908 5.80763C11.0972 6.31397 11.7839 6.59844 12.5 6.59844C13.2161 6.59844 13.9028 6.31397 14.4092 5.80763C14.9155 5.30128 15.2 4.61452 15.2 3.89844H20.6Z" fill="#0A0D14" style="fill:#0A0D14;fill:color(display-p3 0.0392 0.0510 0.0784);fill-opacity:1;"/>
</svg>
