<svg width="25" height="24" viewBox="0 0 25 24" fill="none" xmlns="http://www.w3.org/2000/svg">
<path d="M13.1363 17.2121C13.8806 17.9564 14.5655 18.2984 15.2 18.2984C15.5402 18.2984 15.812 18.2381 16.3133 18.05L16.6661 17.9132C17.6111 17.5334 18.0881 17.3984 18.8 17.3984C19.8926 17.3984 20.9411 17.8889 21.9374 18.8204L22.1363 19.0121L20.8637 20.2847C20.1194 19.5404 19.4345 19.1984 18.8 19.1984C18.4598 19.1984 18.188 19.2587 17.6867 19.4468L17.3339 19.5836C16.3889 19.9625 15.9119 20.0984 15.2 20.0984C14.1074 20.0984 13.0589 19.6079 12.0626 18.6764L11.8637 18.4847L13.1363 17.2121ZM9.8 3.89844C9.8 4.61452 10.0845 5.30128 10.5908 5.80763C11.0972 6.31397 11.7839 6.59844 12.5 6.59844C13.2161 6.59844 13.9028 6.31397 14.4092 5.80763C14.9155 5.30128 15.2 4.61452 15.2 3.89844H20.6C20.8387 3.89844 21.0676 3.99326 21.2364 4.16204C21.4052 4.33082 21.5 4.55974 21.5 4.79844V11.0984C21.5 11.3371 21.4052 11.5661 21.2364 11.7348C21.0676 11.9036 20.8387 11.9984 20.6 11.9984H16.9982V10.1984L19.7 10.1975V5.69754H16.6247L16.6094 5.73444C16.2681 6.4975 15.7211 7.15047 15.0296 7.62019C14.3381 8.08991 13.5295 8.35783 12.6944 8.39394L12.5 8.39844C11.631 8.39851 10.7805 8.147 10.0513 7.67427C9.32204 7.20154 8.74527 6.52781 8.3906 5.73444L8.3744 5.69844H5.3V10.1984L7.9991 10.1975V18.2984H10.7V20.0984H7.1C6.86131 20.0984 6.63239 20.0036 6.4636 19.8348C6.29482 19.6661 6.2 19.4371 6.2 19.1984L6.1991 11.9975L4.4 11.9984C4.16131 11.9984 3.93239 11.9036 3.7636 11.7348C3.59482 11.5661 3.5 11.3371 3.5 11.0984V4.79844C3.5 4.55974 3.59482 4.33082 3.7636 4.16204C3.93239 3.99326 4.16131 3.89844 4.4 3.89844H9.8ZM13.1363 13.6121C13.8806 14.3564 14.5655 14.6984 15.2 14.6984C15.5402 14.6984 15.812 14.6381 16.3133 14.45L16.6661 14.3132C17.6111 13.9334 18.0881 13.7984 18.8 13.7984C19.8926 13.7984 20.9411 14.2889 21.9374 15.2204L22.1363 15.4121L20.8637 16.6847C20.1194 15.9404 19.4345 15.5984 18.8 15.5984C18.4598 15.5984 18.188 15.6587 17.6867 15.8468L17.3339 15.9836C16.3889 16.3625 15.9119 16.4984 15.2 16.4984C14.1074 16.4984 13.0589 16.0079 12.0626 15.0764L11.8637 14.8847L13.1363 13.6121Z" fill="#0A0D14" style="fill:#0A0D14;fill:color(display-p3 0.0392 0.0510 0.0784);fill-opacity:1;"/>
</svg>
