<svg width="25" height="24" viewBox="0 0 25 24" fill="none" xmlns="http://www.w3.org/2000/svg">
<path d="M14.7635 5.7001L17.1089 3.3538C17.1925 3.27012 17.2918 3.20374 17.401 3.15845C17.5103 3.11316 17.6274 3.08984 17.7457 3.08984C17.8639 3.08984 17.9811 3.11316 18.0903 3.15845C18.1996 3.20374 18.2988 3.27012 18.3824 3.3538L22.2002 7.1725C22.3689 7.34128 22.4637 7.57015 22.4637 7.8088C22.4637 8.04745 22.3689 8.27633 22.2002 8.4451L18.8 11.8453V20.1001C18.8 20.3388 18.7052 20.5677 18.5364 20.7365C18.3676 20.9053 18.1387 21.0001 17.9 21.0001H7.10002C6.86133 21.0001 6.63241 20.9053 6.46363 20.7365C6.29484 20.5677 6.20002 20.3388 6.20002 20.1001V11.8453L2.79982 8.4451C2.6311 8.27633 2.53632 8.04745 2.53632 7.8088C2.53632 7.57015 2.6311 7.34128 2.79982 7.1725L6.61762 3.3538C6.70121 3.27012 6.80047 3.20374 6.90973 3.15845C7.01899 3.11316 7.1361 3.08984 7.25437 3.08984C7.37265 3.08984 7.48976 3.11316 7.59902 3.15845C7.70828 3.20374 7.80754 3.27012 7.89112 3.3538L10.2365 5.7001H14.7635ZM15.5087 7.5001H9.49132L7.25482 5.2636L4.70872 7.8088L8.00002 11.1001V19.2001H17V11.1001L20.2913 7.8088L17.7452 5.2636L15.5087 7.5001Z" fill="#0A0D14" style="fill:#0A0D14;fill:color(display-p3 0.0392 0.0510 0.0784);fill-opacity:1;"/>
</svg>
