<svg width="25" height="24" viewBox="0 0 25 24" fill="none" xmlns="http://www.w3.org/2000/svg">
<path d="M6.20005 3H18.8C19.0387 3 19.2677 3.09482 19.4364 3.2636C19.6052 3.43239 19.7 3.66131 19.7 3.9V20.1C19.7 20.3387 19.6052 20.5676 19.4364 20.7364C19.2677 20.9052 19.0387 21 18.8 21H6.20005C5.96135 21 5.73244 20.9052 5.56365 20.7364C5.39487 20.5676 5.30005 20.3387 5.30005 20.1V3.9C5.30005 3.66131 5.39487 3.43239 5.56365 3.2636C5.73244 3.09482 5.96135 3 6.20005 3ZM12.5 16.5C12.2614 16.5 12.0324 16.5948 11.8637 16.7636C11.6949 16.9324 11.6 17.1613 11.6 17.4C11.6 17.6387 11.6949 17.8676 11.8637 18.0364C12.0324 18.2052 12.2614 18.3 12.5 18.3C12.7387 18.3 12.9677 18.2052 13.1364 18.0364C13.3052 17.8676 13.4 17.6387 13.4 17.4C13.4 17.1613 13.3052 16.9324 13.1364 16.7636C12.9677 16.5948 12.7387 16.5 12.5 16.5Z" fill="#0A0D14" style="fill:#0A0D14;fill:color(display-p3 0.0392 0.0510 0.0784);fill-opacity:1;"/>
</svg>
