<svg width="25" height="24" viewBox="0 0 25 24" fill="none" xmlns="http://www.w3.org/2000/svg">
<path d="M8 13.8004V3.90039H4.4C4.16131 3.90039 3.93239 3.99521 3.7636 4.16399C3.59482 4.33278 3.5 4.5617 3.5 4.80039V13.8004H8ZM15.2 13.8004V3.90039H9.8V13.8004H15.2ZM21.5 13.8004V4.80039C21.5 4.5617 21.4052 4.33278 21.2364 4.16399C21.0676 3.99521 20.8387 3.90039 20.6 3.90039H17V13.8004H21.5ZM20.6 20.1004C20.8387 20.1004 21.0676 20.0056 21.2364 19.8368C21.4052 19.668 21.5 19.4391 21.5 19.2004V15.6004H3.5V19.2004C3.5 19.4391 3.59482 19.668 3.7636 19.8368C3.93239 20.0056 4.16131 20.1004 4.4 20.1004H20.6Z" fill="#0A0D14" style="fill:#0A0D14;fill:color(display-p3 0.0392 0.0510 0.0784);fill-opacity:1;"/>
</svg>
