<svg width="25" height="24" viewBox="0 0 25 24" fill="none" xmlns="http://www.w3.org/2000/svg">
<path d="M16.1 2.09961C16.5971 2.09961 17 2.50255 17 2.99961V3.89871L21.5 3.89961V9.29961L19.682 9.29871L22.1721 16.1353C22.3194 16.5284 22.4 16.9542 22.4 17.3987C22.4 19.3869 20.7882 20.9987 18.8 20.9987C17.1231 20.9987 15.714 19.8522 15.3138 18.3003L11.4864 18.3003C11.0865 19.8526 9.67721 20.9996 8 20.9996C6.24962 20.9996 4.79101 19.7504 4.46708 18.0949C3.89202 17.7947 3.5 17.193 3.5 16.4996V4.79961C3.5 4.30255 3.90294 3.89961 4.4 3.89961H10.7C11.1971 3.89961 11.6 4.30255 11.6 4.79961V11.9996C11.6 12.4612 11.9474 12.8416 12.395 12.8936L12.5 12.8996H14.3C14.7616 12.8996 15.142 12.5522 15.1939 12.1046L15.2 11.9996V3.89961H12.5V2.09961H16.1ZM8 15.5996C7.00589 15.5996 6.2 16.4055 6.2 17.3996C6.2 18.3937 7.00589 19.1996 8 19.1996C8.99411 19.1996 9.8 18.3937 9.8 17.3996C9.8 16.4055 8.99411 15.5996 8 15.5996ZM18.8 15.5987C17.8059 15.5987 17 16.4046 17 17.3987C17 18.3928 17.8059 19.1987 18.8 19.1987C19.7941 19.1987 20.6 18.3928 20.6 17.3987C20.6 16.4046 19.7941 15.5987 18.8 15.5987ZM17.7668 9.29871H17V11.9996C17 13.4908 15.7912 14.6996 14.3 14.6996H12.5C11.3247 14.6996 10.3248 13.9487 9.95392 12.9004L5.29995 12.8996V15.0184C5.9596 14.271 6.92475 13.7996 8 13.7996C9.67753 13.7996 11.0871 14.947 11.4866 16.4998H15.3131C15.7124 14.9466 17.1221 13.7987 18.8 13.7987C19.0136 13.7987 19.2228 13.8173 19.4261 13.853L17.7668 9.29871ZM9.8 8.39961H5.3V11.0996H9.8V8.39961ZM19.7 5.69961H17V7.49961H19.7V5.69961ZM9.8 5.69961H5.3V6.59961H9.8V5.69961Z" fill="#0A0D14" style="fill:#0A0D14;fill:color(display-p3 0.0392 0.0510 0.0784);fill-opacity:1;"/>
</svg>
