<svg width="25" height="24" viewBox="0 0 25 24" fill="none" xmlns="http://www.w3.org/2000/svg">
<path d="M4.91845 8.64886L3.84475 10.3067L5.82475 11.5406C5.82475 11.5406 7.14235 12.2192 6.51145 13.4927C5.92645 14.6969 3.05005 17.3357 3.05005 17.3357L5.62585 18.9539C7.41145 15.0605 7.29085 15.5789 7.73815 14.1785C8.19895 12.7565 8.29975 11.6639 7.52035 10.8692C6.51865 9.85666 6.40615 9.76216 4.91845 8.64886ZM6.32605 8.02426C7.26205 8.02426 8.02075 7.34206 8.02075 6.50056C8.02075 5.65186 7.26205 4.96966 6.32605 4.96966C5.38285 4.96966 4.62775 5.65546 4.62775 6.50056C4.63225 7.33846 5.38375 8.02426 6.32605 8.02426ZM21.6305 8.21326C21.6305 8.21326 21.0689 3.83026 11.5442 6.54466C11.9537 5.82916 12.1463 5.36836 12.1463 5.36836L9.77035 4.69336C9.77035 4.69336 8.80735 7.85056 7.09555 9.31936C7.09555 9.31936 8.75695 10.2851 8.73895 10.2554C9.19051 9.80336 9.61343 9.32362 10.0052 8.81896C10.3868 8.64796 10.7522 8.49226 11.1086 8.34736C10.6658 9.14566 9.95845 10.3436 9.24745 11.0978L10.2482 11.9834C10.2482 11.9834 10.934 11.3192 11.6783 10.5254H12.527V11.9978H9.21055V13.1732H12.527V15.9929L12.401 15.9893C12.0338 15.9713 11.4677 15.9092 11.2427 15.5537C10.9745 15.1181 11.1734 14.3306 11.1851 13.841H8.89555L8.81185 13.8878C8.81185 13.8878 7.97035 17.6723 11.2319 17.5895C14.2793 17.6723 16.0289 16.7291 16.8704 16.0802L17.2034 17.3348L19.0844 16.541L17.81 13.4054L16.2863 13.8878L16.5689 14.9588C16.1846 15.2558 15.7319 15.4736 15.2486 15.6374V13.1732H18.4814V11.9942H15.2486V10.5209H18.4922V9.34546H12.7232C13.1408 8.83336 13.463 8.36536 13.5512 8.07196L12.5414 7.79566C16.8596 6.23596 19.2644 6.50416 19.2464 9.05836V15.7859C19.2464 15.7859 19.5011 18.0935 16.874 17.9306L15.452 17.6219L15.1217 18.9827C15.1217 18.9827 21.257 20.753 21.7583 16.0001C22.2551 11.2463 21.6305 8.21326 21.6305 8.21326Z" fill="#0A0D14" style="fill:#0A0D14;fill:color(display-p3 0.0392 0.0510 0.0784);fill-opacity:1;"/>
</svg>
