<svg width="25" height="24" viewBox="0 0 25 24" fill="none" xmlns="http://www.w3.org/2000/svg">
<path d="M17.1548 13.8004H14.75V15.0379C15.245 14.839 15.7877 14.5969 16.3808 14.3089L16.307 14.0947L17.1548 13.8004ZM17.9 13.5421L18.008 13.5043C18.5849 15.1702 18.9386 16.2151 19.0745 16.6543L17.3537 17.1853C17.2871 16.9693 17.1593 16.5805 16.9694 16.0216C11.4965 18.6181 9.16554 17.8702 8.86224 14.3053L10.6559 14.1523C10.7459 15.2008 10.9655 15.6121 11.4632 15.7291C11.8169 15.8128 12.3092 15.7858 12.95 15.6355V13.8004H9.80004V12.0004H10.2617L9.21144 10.7494C10.1501 9.96104 10.8836 9.10244 11.4146 8.17184C10.9484 8.29334 10.4813 8.42384 10.0187 8.56334C9.55615 9.24635 9.02739 9.88212 8.44014 10.4614L7.18014 9.17624C8.32494 8.05304 9.27984 6.55724 10.0385 4.68164L11.7071 5.35664C11.5723 5.69086 11.4282 6.02129 11.2751 6.34754C14.6069 5.50514 17.8226 5.16224 19.4993 5.73554C20.6 6.11174 21.2264 6.98744 21.4676 8.06114C21.6206 8.74154 21.7493 10.4812 21.7493 12.6718C21.7493 15.1981 21.6989 16.0648 21.4433 16.8316C21.176 17.6326 20.8169 18.1078 20.177 18.6172C19.5857 19.0879 18.7793 19.3039 17.7965 19.3579C17.1908 19.3912 16.5653 19.3606 15.911 19.2859C15.7319 19.2662 15.5531 19.2437 15.3746 19.2184L15.6122 17.4346C15.7789 17.4565 15.9457 17.4775 16.1126 17.4976C16.6751 17.5606 17.207 17.5876 17.6984 17.5606C18.341 17.5246 18.8189 17.3977 19.0556 17.2096C19.439 16.9036 19.5875 16.7074 19.736 16.261C19.9034 15.7624 19.9493 14.9578 19.9493 12.6718C19.9493 10.6027 19.8296 8.98004 19.7117 8.45714C19.5947 7.93784 19.3427 7.58414 18.917 7.43834C17.8307 7.06754 15.4961 7.26374 12.9302 7.81364L13.4837 8.04944C13.3667 8.32124 13.238 8.58944 13.0967 8.85044H17.9V10.6504H14.75V12.0004H17.9V13.5421ZM12.95 10.6504H11.8628C11.4502 11.1345 11.0006 11.5858 10.5182 12.0004H12.95V10.6504ZM3.91494 10.2562L4.88604 8.73974C5.84184 9.35084 7.52754 10.924 7.89024 11.5846C9.00534 13.6186 8.06754 15.343 5.08044 18.7819L3.72144 17.602C6.13974 14.8174 6.87144 13.471 6.31164 12.4504C6.11904 12.0994 4.64034 10.7188 3.91584 10.2562H3.91494ZM6.32694 8.02514C5.38284 8.02514 4.63224 7.33934 4.62774 6.50144C4.62774 5.65544 5.38374 4.97054 6.32604 4.97054C7.26204 4.97054 8.02074 5.65274 8.02074 6.50144C8.02074 7.34294 7.26204 8.02514 6.32604 8.02514H6.32694Z" fill="#0A0D14" style="fill:#0A0D14;fill:color(display-p3 0.0392 0.0510 0.0784);fill-opacity:1;"/>
</svg>
