<svg width="25" height="24" viewBox="0 0 25 24" fill="none" xmlns="http://www.w3.org/2000/svg">
<path d="M11.447 12.8984H13.553C13.362 12.3581 13.3478 11.771 13.5126 11.2222C13.6774 10.6733 14.0125 10.191 14.4695 9.84527C14.9265 9.4995 15.4817 9.3081 16.0547 9.29879C16.6277 9.28949 17.1888 9.46274 17.6569 9.79349C18.1249 10.1242 18.4755 10.5953 18.658 11.1386C18.8405 11.6818 18.8454 12.269 18.6721 12.8153C18.4987 13.3615 18.156 13.8384 17.6936 14.1769C17.2312 14.5155 16.6731 14.6981 16.1 14.6984H8.9C8.32691 14.6981 7.76879 14.5155 7.30639 14.1769C6.844 13.8384 6.50131 13.3615 6.32794 12.8153C6.15456 12.269 6.15949 11.6818 6.342 11.1386C6.52451 10.5953 6.87514 10.1242 7.34315 9.79349C7.81116 9.46274 8.37227 9.28949 8.94527 9.29879C9.51828 9.3081 10.0735 9.4995 10.5305 9.84527C10.9875 10.191 11.3226 10.6733 11.4874 11.2222C11.6522 11.771 11.638 12.3581 11.447 12.8984ZM5.3 5.69844V18.2984H19.7V5.69844H5.3ZM4.4 3.89844H20.6C20.8387 3.89844 21.0676 3.99326 21.2364 4.16204C21.4052 4.33082 21.5 4.55974 21.5 4.79844V19.1984C21.5 19.4371 21.4052 19.6661 21.2364 19.8348C21.0676 20.0036 20.8387 20.0984 20.6 20.0984H4.4C4.16131 20.0984 3.93239 20.0036 3.7636 19.8348C3.59482 19.6661 3.5 19.4371 3.5 19.1984V4.79844C3.5 4.55974 3.59482 4.33082 3.7636 4.16204C3.93239 3.99326 4.16131 3.89844 4.4 3.89844ZM8.9 12.8984C9.13869 12.8984 9.36761 12.8036 9.5364 12.6348C9.70518 12.4661 9.8 12.2371 9.8 11.9984C9.8 11.7597 9.70518 11.5308 9.5364 11.362C9.36761 11.1933 9.13869 11.0984 8.9 11.0984C8.6613 11.0984 8.43239 11.1933 8.2636 11.362C8.09482 11.5308 8 11.7597 8 11.9984C8 12.2371 8.09482 12.4661 8.2636 12.6348C8.43239 12.8036 8.6613 12.8984 8.9 12.8984ZM16.1 12.8984C16.3387 12.8984 16.5676 12.8036 16.7364 12.6348C16.9052 12.4661 17 12.2371 17 11.9984C17 11.7597 16.9052 11.5308 16.7364 11.362C16.5676 11.1933 16.3387 11.0984 16.1 11.0984C15.8613 11.0984 15.6324 11.1933 15.4636 11.362C15.2948 11.5308 15.2 11.7597 15.2 11.9984C15.2 12.2371 15.2948 12.4661 15.4636 12.6348C15.6324 12.8036 15.8613 12.8984 16.1 12.8984Z" fill="#0A0D14" style="fill:#0A0D14;fill:color(display-p3 0.0392 0.0510 0.0784);fill-opacity:1;"/>
</svg>
