<svg width="25" height="24" viewBox="0 0 25 24" fill="none" xmlns="http://www.w3.org/2000/svg">
<path d="M11.447 12.8984C11.638 12.3581 11.6522 11.771 11.4874 11.2222C11.3226 10.6733 10.9875 10.191 10.5305 9.84527C10.0735 9.4995 9.51828 9.3081 8.94527 9.29879C8.37227 9.28949 7.81116 9.46274 7.34315 9.79349C6.87514 10.1242 6.52451 10.5953 6.342 11.1386C6.15949 11.6818 6.15456 12.269 6.32794 12.8153C6.50131 13.3615 6.844 13.8384 7.30639 14.1769C7.76879 14.5155 8.32691 14.6981 8.9 14.6984H16.1C16.6731 14.6981 17.2312 14.5155 17.6936 14.1769C18.156 13.8384 18.4987 13.3615 18.6721 12.8153C18.8454 12.269 18.8405 11.6818 18.658 11.1386C18.4755 10.5953 18.1249 10.1242 17.6569 9.79349C17.1888 9.46274 16.6277 9.28949 16.0547 9.29879C15.4817 9.3081 14.9265 9.4995 14.4695 9.84527C14.0125 10.191 13.6774 10.6733 13.5126 11.2222C13.3478 11.771 13.362 12.3581 13.553 12.8984H11.447ZM4.4 3.89844H20.6C20.8387 3.89844 21.0676 3.99326 21.2364 4.16204C21.4052 4.33082 21.5 4.55974 21.5 4.79844V19.1984C21.5 19.4371 21.4052 19.6661 21.2364 19.8348C21.0676 20.0036 20.8387 20.0984 20.6 20.0984H4.4C4.16131 20.0984 3.93239 20.0036 3.7636 19.8348C3.59482 19.6661 3.5 19.4371 3.5 19.1984V4.79844C3.5 4.55974 3.59482 4.33082 3.7636 4.16204C3.93239 3.99326 4.16131 3.89844 4.4 3.89844ZM16.1 12.8984C15.8613 12.8984 15.6324 12.8036 15.4636 12.6348C15.2948 12.4661 15.2 12.2371 15.2 11.9984C15.2 11.7597 15.2948 11.5308 15.4636 11.362C15.6324 11.1933 15.8613 11.0984 16.1 11.0984C16.3387 11.0984 16.5676 11.1933 16.7364 11.362C16.9052 11.5308 17 11.7597 17 11.9984C17 12.2371 16.9052 12.4661 16.7364 12.6348C16.5676 12.8036 16.3387 12.8984 16.1 12.8984ZM8.9 12.8984C8.6613 12.8984 8.43239 12.8036 8.2636 12.6348C8.09482 12.4661 8 12.2371 8 11.9984C8 11.7597 8.09482 11.5308 8.2636 11.362C8.43239 11.1933 8.6613 11.0984 8.9 11.0984C9.13869 11.0984 9.36761 11.1933 9.5364 11.362C9.70518 11.5308 9.8 11.7597 9.8 11.9984C9.8 12.2371 9.70518 12.4661 9.5364 12.6348C9.36761 12.8036 9.13869 12.8984 8.9 12.8984Z" fill="#0A0D14" style="fill:#0A0D14;fill:color(display-p3 0.0392 0.0510 0.0784);fill-opacity:1;"/>
</svg>
