<svg width="25" height="24" viewBox="0 0 25 24" fill="none" xmlns="http://www.w3.org/2000/svg">
<path d="M20.6 3.8928V20.1072C20.5981 20.3436 20.5033 20.5697 20.3361 20.7367C20.1689 20.9038 19.9427 20.9984 19.7063 21H5.29372C5.05686 21 4.82968 20.906 4.6621 20.7386C4.49453 20.5712 4.40026 20.3441 4.40002 20.1072V3.8928C4.40191 3.65644 4.4967 3.43031 4.66392 3.26326C4.83114 3.09621 5.05736 3.00165 5.29372 3H19.7063C20.1995 3 20.6 3.3996 20.6 3.8928ZM18.8 4.8H6.20002V19.2H18.8V4.8ZM11.8637 13.0089L15.6824 9.1911L16.955 10.4637L11.8637 15.555L8.36272 12.054L9.63622 10.7814L11.8637 13.0089Z" fill="#0A0D14" style="fill:#0A0D14;fill:color(display-p3 0.0392 0.0510 0.0784);fill-opacity:1;"/>
</svg>
