<svg width="25" height="24" viewBox="0 0 25 24" fill="none" xmlns="http://www.w3.org/2000/svg">
<path d="M21.5 12.0004V20.1004C21.5 20.3391 21.4052 20.568 21.2364 20.7368C21.0676 20.9056 20.8387 21.0004 20.6 21.0004H19.7C19.4613 21.0004 19.2324 20.9056 19.0636 20.7368C18.8948 20.568 18.8 20.3391 18.8 20.1004V19.2004H6.2V20.1004C6.2 20.3391 6.10518 20.568 5.9364 20.7368C5.76761 20.9056 5.53869 21.0004 5.3 21.0004H4.4C4.16131 21.0004 3.93239 20.9056 3.7636 20.7368C3.59482 20.568 3.5 20.3391 3.5 20.1004V12.0004L5.732 6.79119C5.87089 6.46719 6.10186 6.1911 6.39625 5.99719C6.69064 5.80328 7.03549 5.70008 7.388 5.70039H9.8V3.90039H15.2V5.70039H17.6129C17.9651 5.70043 18.3096 5.8038 18.6036 5.99769C18.8976 6.19158 19.1283 6.46747 19.2671 6.79119L21.5 12.0004ZM5.4584 12.0004H19.5416L17.6129 7.50039H7.388L5.4593 12.0004H5.4584ZM7.55 16.5004C7.90804 16.5004 8.25142 16.3582 8.50459 16.105C8.75777 15.8518 8.9 15.5084 8.9 15.1504C8.9 14.7923 8.75777 14.449 8.50459 14.1958C8.25142 13.9426 7.90804 13.8004 7.55 13.8004C7.19196 13.8004 6.84858 13.9426 6.59541 14.1958C6.34223 14.449 6.2 14.7923 6.2 15.1504C6.2 15.5084 6.34223 15.8518 6.59541 16.105C6.84858 16.3582 7.19196 16.5004 7.55 16.5004ZM17.45 16.5004C17.808 16.5004 18.1514 16.3582 18.4046 16.105C18.6578 15.8518 18.8 15.5084 18.8 15.1504C18.8 14.7923 18.6578 14.449 18.4046 14.1958C18.1514 13.9426 17.808 13.8004 17.45 13.8004C17.092 13.8004 16.7486 13.9426 16.4954 14.1958C16.2422 14.449 16.1 14.7923 16.1 15.1504C16.1 15.5084 16.2422 15.8518 16.4954 16.105C16.7486 16.3582 17.092 16.5004 17.45 16.5004Z" fill="#0A0D14" style="fill:#0A0D14;fill:color(display-p3 0.0392 0.0510 0.0784);fill-opacity:1;"/>
</svg>
