<svg width="25" height="24" viewBox="0 0 25 24" fill="none" xmlns="http://www.w3.org/2000/svg">
<path d="M12.5 3.89961V7.49961H7.3124L5.5115 11.0996H21.5V20.0996C21.5 20.3383 21.4052 20.5672 21.2364 20.736C21.0676 20.9048 20.8387 20.9996 20.6 20.9996H19.7C19.4613 20.9996 19.2324 20.9048 19.0636 20.736C18.8948 20.5672 18.8 20.3383 18.8 20.0996V19.1996H6.2V20.0996C6.2 20.3383 6.10518 20.5672 5.9364 20.736C5.76761 20.9048 5.53869 20.9996 5.3 20.9996H4.4C4.16131 20.9996 3.93239 20.9048 3.7636 20.736C3.59482 20.5672 3.5 20.3383 3.5 20.0996V11.0996L5.7023 6.69501C5.85182 6.39579 6.08176 6.14415 6.36632 5.96833C6.65088 5.79251 6.9788 5.69945 7.3133 5.69961H9.8V3.89961H12.5ZM19.7 12.8996H5.3V17.3996H19.7V12.8996ZM7.55 13.7996C7.90804 13.7996 8.25142 13.9418 8.50459 14.195C8.75777 14.4482 8.9 14.7916 8.9 15.1496C8.9 15.5077 8.75777 15.851 8.50459 16.1042C8.25142 16.3574 7.90804 16.4996 7.55 16.4996C7.19196 16.4996 6.84858 16.3574 6.59541 16.1042C6.34223 15.851 6.2 15.5077 6.2 15.1496C6.2 14.7916 6.34223 14.4482 6.59541 14.195C6.84858 13.9418 7.19196 13.7996 7.55 13.7996ZM17.45 13.7996C17.808 13.7996 18.1514 13.9418 18.4046 14.195C18.6578 14.4482 18.8 14.7916 18.8 15.1496C18.8 15.5077 18.6578 15.851 18.4046 16.1042C18.1514 16.3574 17.808 16.4996 17.45 16.4996C17.092 16.4996 16.7486 16.3574 16.4954 16.1042C16.2422 15.851 16.1 15.5077 16.1 15.1496C16.1 14.7916 16.2422 14.4482 16.4954 14.195C16.7486 13.9418 17.092 13.7996 17.45 13.7996ZM18.35 2.09961C19.4241 2.09961 20.4543 2.5263 21.2138 3.28583C21.9733 4.04535 22.4 5.07548 22.4 6.14961C22.4 7.22374 21.9733 8.25387 21.2138 9.01339C20.4543 9.77291 19.4241 10.1996 18.35 10.1996C17.2759 10.1996 16.2457 9.77291 15.4862 9.01339C14.7267 8.25387 14.3 7.22374 14.3 6.14961C14.3 5.07548 14.7267 4.04535 15.4862 3.28583C16.2457 2.5263 17.2759 2.09961 18.35 2.09961ZM18.35 6.74991C17.9081 6.74991 17.504 6.90921 17.1899 7.17291L17.0774 7.27641L18.35 8.54991L19.6217 7.27551C19.4547 7.10855 19.2565 6.97617 19.0382 6.88598C18.82 6.79579 18.5861 6.74955 18.35 6.74991ZM18.35 4.34961C17.3096 4.34805 16.306 4.73404 15.5348 5.43231L15.3791 5.58081L16.2287 6.42861C16.5069 6.14951 16.8375 5.92815 17.2016 5.77725C17.5656 5.62635 17.9559 5.54889 18.35 5.54931C19.0793 5.54821 19.7839 5.8139 20.3309 6.29631L20.4713 6.42861L21.32 5.57991C20.9304 5.18927 20.4675 4.87948 19.9578 4.66835C19.4481 4.45721 18.9017 4.34889 18.35 4.34961Z" fill="#0A0D14" style="fill:#0A0D14;fill:color(display-p3 0.0392 0.0510 0.0784);fill-opacity:1;"/>
</svg>
