<svg width="25" height="24" viewBox="0 0 25 24" fill="none" xmlns="http://www.w3.org/2000/svg">
<path d="M12.5 11.1C13.6935 11.1 14.8381 11.5741 15.682 12.418C16.5259 13.2619 17 14.4065 17 15.6V21H8V15.6C8 14.4065 8.47411 13.2619 9.31802 12.418C10.1619 11.5741 11.3065 11.1 12.5 11.1ZM6.4592 13.8054C6.31597 14.2885 6.23136 14.7871 6.2072 15.2904L6.2 15.6V21H3.5V16.95C3.49982 16.1738 3.78623 15.4249 4.30427 14.8469C4.82232 14.2689 5.53553 13.9025 6.3071 13.818L6.4601 13.8054H6.4592ZM18.5408 13.8054C19.3417 13.8542 20.0938 14.2068 20.6437 14.7911C21.1936 15.3755 21.4999 16.1476 21.5 16.95V21H18.8V15.6C18.8 14.9763 18.71 14.3742 18.5408 13.8054ZM6.65 8.4C7.24674 8.4 7.81903 8.63705 8.24099 9.05901C8.66295 9.48097 8.9 10.0533 8.9 10.65C8.9 11.2467 8.66295 11.819 8.24099 12.241C7.81903 12.6629 7.24674 12.9 6.65 12.9C6.05326 12.9 5.48097 12.6629 5.05901 12.241C4.63705 11.819 4.4 11.2467 4.4 10.65C4.4 10.0533 4.63705 9.48097 5.05901 9.05901C5.48097 8.63705 6.05326 8.4 6.65 8.4ZM18.35 8.4C18.9467 8.4 19.519 8.63705 19.941 9.05901C20.3629 9.48097 20.6 10.0533 20.6 10.65C20.6 11.2467 20.3629 11.819 19.941 12.241C19.519 12.6629 18.9467 12.9 18.35 12.9C17.7533 12.9 17.181 12.6629 16.759 12.241C16.3371 11.819 16.1 11.2467 16.1 10.65C16.1 10.0533 16.3371 9.48097 16.759 9.05901C17.181 8.63705 17.7533 8.4 18.35 8.4ZM12.5 3C13.4548 3 14.3705 3.37928 15.0456 4.05442C15.7207 4.72955 16.1 5.64522 16.1 6.6C16.1 7.55478 15.7207 8.47045 15.0456 9.14558C14.3705 9.82072 13.4548 10.2 12.5 10.2C11.5452 10.2 10.6295 9.82072 9.95442 9.14558C9.27928 8.47045 8.9 7.55478 8.9 6.6C8.9 5.64522 9.27928 4.72955 9.95442 4.05442C10.6295 3.37928 11.5452 3 12.5 3Z" fill="#0A0D14" style="fill:#0A0D14;fill:color(display-p3 0.0392 0.0510 0.0784);fill-opacity:1;"/>
</svg>
