<svg width="25" height="24" viewBox="0 0 25 24" fill="none" xmlns="http://www.w3.org/2000/svg">
<path d="M12.5 19.2C14.4096 19.2 16.2409 18.4414 17.5912 17.0912C18.9414 15.7409 19.7 13.9096 19.7 12C19.7 10.0904 18.9414 8.25909 17.5912 6.90883C16.2409 5.55857 14.4096 4.8 12.5 4.8C10.5904 4.8 8.75909 5.55857 7.40883 6.90883C6.05857 8.25909 5.3 10.0904 5.3 12C5.3 13.9096 6.05857 15.7409 7.40883 17.0912C8.75909 18.4414 10.5904 19.2 12.5 19.2ZM12.5 21C7.5293 21 3.5 16.9707 3.5 12C3.5 7.0293 7.5293 3 12.5 3C17.4707 3 21.5 7.0293 21.5 12C21.5 16.9707 17.4707 21 12.5 21ZM9.701 13.053L7.4528 12.3519C6.9668 12.2034 6.9641 11.8686 7.5617 11.6283L16.3214 8.2443C16.8299 8.0373 17.1179 8.2992 16.9532 8.9553L15.4619 15.9933C15.3575 16.4946 15.056 16.6143 14.6375 16.383L12.3416 14.6838L11.2715 15.717C11.1617 15.8232 11.0726 15.9141 10.9034 15.9366C10.7351 15.96 10.5965 15.9096 10.4948 15.6306L9.7118 13.0467L9.701 13.0539V13.053Z" fill="#0A0D14" style="fill:#0A0D14;fill:color(display-p3 0.0392 0.0510 0.0784);fill-opacity:1;"/>
</svg>
