<svg width="25" height="24" viewBox="0 0 25 24" fill="none" xmlns="http://www.w3.org/2000/svg">
<path d="M12.5 21C7.5293 21 3.5 16.9707 3.5 12C3.5 7.0293 7.5293 3 12.5 3C17.4707 3 21.5 7.0293 21.5 12C21.5 16.9707 17.4707 21 12.5 21ZM9.701 13.053L9.7127 13.0467L10.4957 15.6297C10.5965 15.9096 10.7351 15.96 10.9034 15.9366C11.0726 15.9141 11.1617 15.8232 11.2724 15.717L12.3416 14.6838L14.6366 16.383C15.056 16.6143 15.3575 16.4946 15.4619 15.9942L16.9532 8.9544C17.1179 8.2992 16.8299 8.0364 16.3214 8.2452L7.5617 11.6292C6.9641 11.8686 6.9677 12.2034 7.4537 12.3519L9.701 13.0539V13.053Z" fill="#0A0D14" style="fill:#0A0D14;fill:color(display-p3 0.0392 0.0510 0.0784);fill-opacity:1;"/>
</svg>
