<svg width="25" height="24" viewBox="0 0 25 24" fill="none" xmlns="http://www.w3.org/2000/svg">
<path d="M8.90001 10.4311V5.70156C8.90001 4.74678 9.2793 3.83111 9.95443 3.15598C10.6296 2.48085 11.5452 2.10156 12.5 2.10156C13.4548 2.10156 14.3705 2.48085 15.0456 3.15598C15.7207 3.83111 16.1 4.74678 16.1 5.70156V10.4311C17.2007 11.1975 18.0281 12.2952 18.4617 13.5644C18.8953 14.8336 18.9125 16.2081 18.5109 17.4877C18.1093 18.7674 17.3097 19.8855 16.2286 20.6793C15.1475 21.4731 13.8412 21.9012 12.5 21.9012C11.1588 21.9012 9.85255 21.4731 8.77144 20.6793C7.69032 19.8855 6.89076 18.7674 6.48912 17.4877C6.08748 16.2081 6.10472 14.8336 6.53834 13.5644C6.97196 12.2952 7.79933 11.1975 8.90001 10.4311ZM8.90001 15.6016C8.90001 16.5563 9.2793 17.472 9.95443 18.1471C10.6296 18.8223 11.5452 19.2016 12.5 19.2016C13.4548 19.2016 14.3705 18.8223 15.0456 18.1471C15.7207 17.472 16.1 16.5563 16.1 15.6016H8.90001Z" fill="#0A0D14" style="fill:#0A0D14;fill:color(display-p3 0.0392 0.0510 0.0784);fill-opacity:1;"/>
</svg>
