<svg width="25" height="24" viewBox="0 0 25 24" fill="none" xmlns="http://www.w3.org/2000/svg">
<path d="M8.90001 5.70156C8.90001 4.74678 9.2793 3.83111 9.95443 3.15598C10.6296 2.48085 11.5452 2.10156 12.5 2.10156C13.4548 2.10156 14.3705 2.48085 15.0456 3.15598C15.7207 3.83111 16.1 4.74678 16.1 5.70156V10.4311C17.2007 11.1975 18.0281 12.2952 18.4617 13.5644C18.8953 14.8336 18.9125 16.2081 18.5109 17.4877C18.1093 18.7674 17.3097 19.8855 16.2286 20.6793C15.1475 21.4731 13.8412 21.9012 12.5 21.9012C11.1588 21.9012 9.85255 21.4731 8.77144 20.6793C7.69032 19.8855 6.89076 18.7674 6.48912 17.4877C6.08748 16.2081 6.10472 14.8336 6.53834 13.5644C6.97196 12.2952 7.79933 11.1975 8.90001 10.4311V5.70156ZM9.92961 11.9071C9.14317 12.4543 8.55193 13.2384 8.24198 14.145C7.93203 15.0516 7.91954 16.0335 8.20633 16.9477C8.49312 17.8619 9.06422 18.6607 9.83649 19.2278C10.6088 19.7949 11.5419 20.1007 12.5 20.1007C13.4581 20.1007 14.3913 19.7949 15.1635 19.2278C15.9358 18.6607 16.5069 17.8619 16.7937 16.9477C17.0805 16.0335 17.068 15.0516 16.758 14.145C16.4481 13.2384 15.8569 12.4543 15.0704 11.9071L14.3 11.3698V5.70156C14.3 5.22417 14.1104 4.76634 13.7728 4.42877C13.4352 4.0912 12.9774 3.90156 12.5 3.90156C12.0226 3.90156 11.5648 4.0912 11.2272 4.42877C10.8897 4.76634 10.7 5.22417 10.7 5.70156V11.3698L9.92961 11.9071ZM8.90001 15.6016H16.1C16.1 16.5563 15.7207 17.472 15.0456 18.1471C14.3705 18.8223 13.4548 19.2016 12.5 19.2016C11.5452 19.2016 10.6296 18.8223 9.95443 18.1471C9.2793 17.472 8.90001 16.5563 8.90001 15.6016Z" fill="#0A0D14" style="fill:#0A0D14;fill:color(display-p3 0.0392 0.0510 0.0784);fill-opacity:1;"/>
</svg>
