<svg width="25" height="24" viewBox="0 0 25 24" fill="none" xmlns="http://www.w3.org/2000/svg">
<path d="M8.90001 10.4311V5.70156C8.90001 4.74678 9.2793 3.83111 9.95443 3.15598C10.6296 2.48085 11.5452 2.10156 12.5 2.10156C13.4548 2.10156 14.3705 2.48085 15.0456 3.15598C15.7207 3.83111 16.1 4.74678 16.1 5.70156V10.4311C17.2007 11.1975 18.0281 12.2952 18.4617 13.5644C18.8953 14.8336 18.9125 16.2081 18.5109 17.4877C18.1093 18.7674 17.3097 19.8855 16.2286 20.6793C15.1475 21.4731 13.8412 21.9012 12.5 21.9012C11.1588 21.9012 9.85255 21.4731 8.77144 20.6793C7.69032 19.8855 6.89076 18.7674 6.48912 17.4877C6.08748 16.2081 6.10472 14.8336 6.53834 13.5644C6.97196 12.2952 7.79933 11.1975 8.90001 10.4311ZM11.6 12.115C10.7536 12.3361 10.0166 12.8578 9.52659 13.5826C9.03662 14.3073 8.8272 15.1857 8.93742 16.0536C9.04764 16.9214 9.46997 17.7195 10.1256 18.2988C10.7811 18.8781 11.6252 19.199 12.5 19.2016C13.3769 19.2024 14.2239 18.8832 14.8821 18.3039C15.5403 17.7246 15.9644 16.925 16.0749 16.0551C16.1854 15.1853 15.9746 14.305 15.4821 13.5795C14.9896 12.8541 14.2492 12.3333 13.4 12.115V5.70156H11.6V12.115Z" fill="#0A0D14" style="fill:#0A0D14;fill:color(display-p3 0.0392 0.0510 0.0784);fill-opacity:1;"/>
</svg>
