<svg width="25" height="24" viewBox="0 0 25 24" fill="none" xmlns="http://www.w3.org/2000/svg">
<path d="M15.2 17.4008H16.55C17.1468 17.4008 17.7191 17.1637 18.141 16.7418C18.563 16.3198 18.8 15.7475 18.8 15.1508C18.8 14.554 18.563 13.9817 18.141 13.5598C17.7191 13.1378 17.1468 12.9008 16.55 12.9008H4.40002V11.1008H16.55C17.6242 11.1008 18.6543 11.5275 19.4138 12.287C20.1733 13.0465 20.6 14.0767 20.6 15.1508C20.6 16.2249 20.1733 17.255 19.4138 18.0146C18.6543 18.7741 17.6242 19.2008 16.55 19.2008H15.2V21.0008L11.6 18.3008L15.2 15.6008V17.4008ZM4.40002 4.80078H20.6V6.60078H4.40002V4.80078ZM9.80002 17.4008V19.2008H4.40002V17.4008H9.80002Z" fill="#0A0D14" style="fill:#0A0D14;fill:color(display-p3 0.0392 0.0510 0.0784);fill-opacity:1;"/>
</svg>
