<svg width="25" height="24" viewBox="0 0 25 24" fill="none" xmlns="http://www.w3.org/2000/svg">
<path d="M11.6 5.70039V14.7004H9.80001V11.1004C8.84523 11.1004 7.92956 10.7211 7.25443 10.046C6.5793 9.37084 6.20001 8.45517 6.20001 7.50039C6.20001 6.54561 6.5793 5.62994 7.25443 4.95481C7.92956 4.27968 8.84523 3.90039 9.80001 3.90039H17V5.70039H15.2V14.7004H13.4V5.70039H11.6ZM9.80001 5.70039C9.32262 5.70039 8.86479 5.89003 8.52722 6.2276C8.18965 6.56516 8.00001 7.023 8.00001 7.50039C8.00001 7.97778 8.18965 8.43562 8.52722 8.77318C8.86479 9.11075 9.32262 9.30039 9.80001 9.30039V5.70039ZM17 16.5004V14.2504L20.6 17.4004L17 20.5504V18.3004H6.20001V16.5004H17Z" fill="#0A0D14" style="fill:#0A0D14;fill:color(display-p3 0.0392 0.0510 0.0784);fill-opacity:1;"/>
</svg>
