<svg width="25" height="24" viewBox="0 0 25 24" fill="none" xmlns="http://www.w3.org/2000/svg">
<path d="M11.6 5.70039V14.7004H9.80002V11.1004C8.84524 11.1004 7.92957 10.7211 7.25444 10.046C6.57931 9.37084 6.20002 8.45517 6.20002 7.50039C6.20002 6.54561 6.57931 5.62994 7.25444 4.95481C7.92957 4.27968 8.84524 3.90039 9.80002 3.90039H17V5.70039H15.2V14.7004H13.4V5.70039H11.6ZM9.80002 5.70039C9.32263 5.70039 8.8648 5.89003 8.52723 6.2276C8.18967 6.56516 8.00002 7.023 8.00002 7.50039C8.00002 7.97778 8.18967 8.43562 8.52723 8.77318C8.8648 9.11075 9.32263 9.30039 9.80002 9.30039V5.70039ZM8.00002 16.5004H18.8V18.3004H8.00002V20.5504L4.40002 17.4004L8.00002 14.2504V16.5004Z" fill="#0A0D14" style="fill:#0A0D14;fill:color(display-p3 0.0392 0.0510 0.0784);fill-opacity:1;"/>
</svg>
