<svg width="25" height="24" viewBox="0 0 25 24" fill="none" xmlns="http://www.w3.org/2000/svg">
<path d="M20.2004 4.30044C21.6062 5.70624 21.6062 7.98504 20.2004 9.39174L12.8204 16.7717C12.2426 17.3495 11.4848 17.714 10.6721 17.804L7.63188 18.1406L5.56368 20.2106C5.21268 20.5616 4.64208 20.5616 4.29108 20.2106C3.94008 19.8587 3.94008 19.289 4.29108 18.9371L6.35928 16.868L6.69678 13.8287C6.78678 13.016 7.15128 12.2582 7.72908 11.6804L15.1091 4.30044C16.5158 2.89464 18.7946 2.89464 20.2004 4.30044ZM11.9276 12.5732L10.655 13.8458L12.5639 15.7556L13.8365 14.4821L11.9276 12.5732ZM14.4728 10.028L13.2002 11.3006L15.1091 13.2095L16.3826 11.9369L14.4728 10.028ZM17.0189 7.48194L15.7463 8.75454L17.6543 10.6643L18.9287 9.39084L17.0198 7.48104L17.0189 7.48194Z" fill="#0A0D14" style="fill:#0A0D14;fill:color(display-p3 0.0392 0.0510 0.0784);fill-opacity:1;"/>
</svg>
