<svg width="25" height="24" viewBox="0 0 25 24" fill="none" xmlns="http://www.w3.org/2000/svg">
<path d="M20.2004 4.30044C21.6062 5.70624 21.6062 7.98504 20.2004 9.39174L12.8204 16.7717C12.2426 17.3495 11.4848 17.714 10.6721 17.804L7.63188 18.1406L5.56368 20.2106C5.21268 20.5616 4.64208 20.5616 4.29108 20.2106C3.94008 19.8587 3.94008 19.289 4.29108 18.9371L6.35928 16.868L6.69678 13.8287C6.78678 13.016 7.15128 12.2582 7.72908 11.6804L15.1091 4.30044C16.5158 2.89464 18.7946 2.89464 20.2004 4.30044ZM16.3826 5.57304L9.00258 12.953C8.71278 13.2419 8.53098 13.6208 8.48598 14.0267L8.23758 16.2632L10.4741 16.0148C10.8791 15.9698 11.2589 15.788 11.5478 15.4991L11.9276 15.1184L10.655 13.8458L11.9276 12.5732L13.2002 13.8458L14.4728 12.5732L13.2002 11.3006L14.4728 10.028L15.7463 11.3006L17.0189 10.0271L15.7463 8.75454L17.018 7.48284L18.2906 8.75544L18.9269 8.11914C19.6298 7.41714 19.6298 6.27684 18.9269 5.57394C18.2249 4.87104 17.0846 4.87104 16.3817 5.57394L16.3826 5.57304Z" fill="#0A0D14" style="fill:#0A0D14;fill:color(display-p3 0.0392 0.0510 0.0784);fill-opacity:1;"/>
</svg>
