<svg width="25" height="24" viewBox="0 0 25 24" fill="none" xmlns="http://www.w3.org/2000/svg">
<path d="M16.0288 11.3311C15.9072 9.09103 14.6832 7.80861 12.6281 7.79549C11.3895 7.78785 10.3533 8.31292 9.71924 9.27498L10.8496 10.0503C11.325 9.32889 12.0756 9.18011 12.6195 9.18514C13.2962 9.18945 13.8069 9.38621 14.1374 9.7699C14.3778 10.0492 14.5387 10.4353 14.6184 10.9224C14.0184 10.8205 13.3695 10.7891 12.6759 10.8289C10.7219 10.9415 9.46569 12.0811 9.55006 13.6646C9.59288 14.4678 9.99304 15.1588 10.6768 15.6103C11.2549 15.9919 11.9994 16.1785 12.7733 16.1362C13.7952 16.0802 14.5969 15.6904 15.1562 14.9774C15.5809 14.436 15.8496 13.7344 15.9682 12.8503C16.4553 13.1443 16.8162 13.531 17.0155 13.996C17.3544 14.7863 17.3742 16.0852 16.3145 17.144C15.386 18.0716 14.2698 18.4729 12.5831 18.4853C10.712 18.4715 9.29693 17.8714 8.37689 16.7017C7.51535 15.6066 7.0701 14.0247 7.05349 12C7.0701 9.97529 7.51535 8.39338 8.37689 7.29819C9.29693 6.1286 10.712 5.52856 12.583 5.51465C14.4677 5.52866 15.9075 6.1316 16.8627 7.30683C17.3311 7.88315 17.6842 8.60791 17.917 9.45296L19.2416 9.09956C18.9594 8.0594 18.5154 7.16308 17.9111 6.41974C16.6865 4.91305 14.8862 4.14101 12.5784 4.125C10.2754 4.14095 8.50437 4.91593 7.3146 6.42838C6.25588 7.77427 5.70975 9.65806 5.69141 12.0055C5.70975 14.353 6.25588 16.2257 7.3146 17.5717C8.50437 19.0841 10.2846 19.8591 12.5877 19.875C14.6352 19.8608 16.0785 19.3247 17.2674 18.1369C18.823 16.5827 18.7761 14.6348 18.2634 13.4389C17.8696 12.5207 17.0856 11.7847 16.0288 11.3311ZM12.7002 14.7486C11.8437 14.7968 10.954 14.4124 10.9101 13.5891C10.8776 12.9786 11.3446 12.2975 12.7527 12.2163C13.4445 12.1764 14.0853 12.2232 14.6526 12.3472C14.4903 14.3736 13.5386 14.7026 12.7002 14.7486Z" fill="#0A0D14" style="fill:#0A0D14;fill:color(display-p3 0.0392 0.0510 0.0784);fill-opacity:1;"/>
</svg>
