<svg width="25" height="24" viewBox="0 0 25 24" fill="none" xmlns="http://www.w3.org/2000/svg">
<path d="M12.6376 4.05859H12.6366C10.3176 4.07466 8.52527 4.85592 7.32026 6.38774C6.24935 7.74913 5.70104 9.64924 5.68262 12.0061V12.0071C5.70104 14.3641 6.24939 16.2532 7.32026 17.6145C8.52532 19.1463 10.3269 19.9276 12.6459 19.9436H12.6468C14.708 19.9293 16.1697 19.3888 17.3739 18.1857C18.9525 16.6085 18.9056 14.6296 18.3842 13.4134C17.9872 12.4879 17.2032 11.7473 16.1526 11.2867C16.0168 9.04856 14.7573 7.74231 12.6872 7.72909C11.4643 7.72154 10.3609 8.26881 9.68513 9.29425L10.9268 10.146C11.3265 9.53961 11.9592 9.24709 12.6778 9.25373C13.7183 9.26037 14.4021 9.83443 14.5941 10.8415C14.015 10.7509 13.3926 10.7246 12.7307 10.7626C10.7513 10.8766 9.45492 12.0467 9.54137 13.6693C9.63178 15.3656 11.2752 16.2899 12.8357 16.2047C14.7049 16.1023 15.8157 14.7229 16.0791 12.9637C16.512 13.2441 16.8313 13.6018 17.0122 14.0236C17.3419 14.7926 17.3628 16.0609 16.3254 17.0974C15.4128 18.0091 14.3158 18.4065 12.6418 18.4189C10.7857 18.4051 9.39273 17.8105 8.48865 16.6612C7.63979 15.5821 7.19632 14.0171 7.1797 12.0011C7.19632 9.98506 7.63979 8.42009 8.48865 7.34102C9.39273 6.19172 10.7857 5.59714 12.6417 5.58325C14.5114 5.59725 15.9296 6.19475 16.869 7.3505C17.3871 7.98798 17.7117 8.75002 17.9284 9.53653L19.3832 9.14839C19.1111 8.14535 18.681 7.18876 18.0222 6.37826C16.7823 4.85286 14.9612 4.07472 12.6376 4.05859ZM12.8153 12.2846C13.4783 12.2464 14.0929 12.2885 14.6391 12.4018C14.5335 13.5847 14.0442 14.6114 12.7551 14.6822C11.9211 14.7292 11.0773 14.3569 11.0363 13.5865C11.0058 13.0137 11.4294 12.3645 12.8153 12.2846Z" fill="#0A0D14" style="fill:#0A0D14;fill:color(display-p3 0.0392 0.0510 0.0784);fill-opacity:1;"/>
</svg>
