<svg width="25" height="24" viewBox="0 0 25 24" fill="none" xmlns="http://www.w3.org/2000/svg">
<path d="M14.84 8.39899H20.6C21.0774 8.39899 21.5352 8.58863 21.8728 8.92619C22.2103 9.26376 22.4 9.7216 22.4 10.199V12.0926C22.4002 12.3278 22.3544 12.5608 22.265 12.7784L19.4795 19.5419C19.4115 19.7068 19.2961 19.8478 19.1479 19.947C18.9997 20.0461 18.8253 20.0991 18.647 20.099H3.49998C3.26128 20.099 3.03236 20.0042 2.86358 19.8354C2.6948 19.6666 2.59998 19.4377 2.59998 19.199V10.199C2.59998 9.96029 2.6948 9.73137 2.86358 9.56259C3.03236 9.39381 3.26128 9.29899 3.49998 9.29899H6.63378C6.77786 9.29902 6.91985 9.26446 7.04781 9.19822C7.17576 9.13197 7.28594 9.03597 7.36908 8.91828L12.2768 1.96399C12.3388 1.87607 12.4303 1.81329 12.5347 1.78704C12.639 1.76078 12.7493 1.77279 12.8456 1.82089L14.4782 2.63719C14.9376 2.86683 15.3047 3.24677 15.5183 3.71387C15.732 4.18097 15.7794 4.70712 15.6527 5.20489L14.84 8.39899ZM7.99998 10.7282V18.299H18.044L20.6 12.0926V10.199H14.84C14.5658 10.1989 14.2953 10.1363 14.0491 10.0158C13.8028 9.8953 13.5874 9.72016 13.4191 9.50372C13.2509 9.28729 13.1343 9.03528 13.0782 8.76693C13.0222 8.49857 13.0282 8.22097 13.0958 7.95529L13.9085 4.76209C13.9339 4.66248 13.9245 4.55717 13.8817 4.46367C13.839 4.37017 13.7655 4.29413 13.6736 4.24819L13.0787 3.95119L8.83968 9.95599C8.61468 10.2746 8.32668 10.5356 7.99998 10.7282ZM6.19998 11.099H4.39998V18.299H6.19998V11.099Z" fill="#0A0D14" style="fill:#0A0D14;fill:color(display-p3 0.0392 0.0510 0.0784);fill-opacity:1;"/>
</svg>
