<svg width="25" height="24" viewBox="0 0 25 24" fill="none" xmlns="http://www.w3.org/2000/svg">
<path d="M3.4999 14.6984L6.1999 14.6984L6.1999 3.89844L3.4999 3.89844C3.26121 3.89844 3.03229 3.99326 2.8635 4.16204C2.69472 4.33082 2.5999 4.55974 2.5999 4.79844L2.5999 13.7984C2.5999 14.0371 2.69472 14.266 2.8635 14.4348C3.03228 14.6036 3.2612 14.6984 3.4999 14.6984ZM8.2636 15.8621L14.0236 21.6221C14.1002 21.6989 14.2019 21.7455 14.31 21.7532C14.4181 21.761 14.5255 21.7295 14.6122 21.6644L15.3799 21.0884C15.5931 20.9284 15.7542 20.7088 15.8427 20.4573C15.9313 20.2058 15.9434 19.9338 15.8776 19.6754L14.8399 15.5984L20.5999 15.5984C21.0773 15.5984 21.5351 15.4088 21.8727 15.0712C22.2103 14.7337 22.3999 14.2758 22.3999 13.7984L22.3999 11.9048C22.4001 11.6696 22.3543 11.4366 22.2649 11.219L19.4785 4.45644C19.4107 4.29151 19.2955 4.15043 19.1475 4.05109C18.9994 3.95174 18.8252 3.89861 18.6469 3.89844L8.8999 3.89844C8.66121 3.89844 8.43229 3.99326 8.2635 4.16204C8.09472 4.33082 7.9999 4.55974 7.9999 4.79844L7.9999 15.2258C7.99995 15.4645 8.0948 15.6934 8.2636 15.8621Z" fill="#0A0D14" style="fill:#0A0D14;fill:color(display-p3 0.0392 0.0510 0.0784);fill-opacity:1;"/>
</svg>
