<svg width="25" height="24" viewBox="0 0 25 24" fill="none" xmlns="http://www.w3.org/2000/svg">
<path d="M3.49998 9.29815H6.19998V20.0981H3.49998C3.26128 20.0981 3.03236 20.0033 2.86358 19.8345C2.6948 19.6658 2.59998 19.4368 2.59998 19.1981V10.1981C2.59998 9.95945 2.6948 9.73053 2.86358 9.56175C3.03236 9.39297 3.26128 9.29815 3.49998 9.29815ZM8.26368 8.13445L14.0237 2.37445C14.1002 2.29767 14.2019 2.25112 14.3101 2.24335C14.4182 2.23557 14.5255 2.26711 14.6123 2.33215L15.38 2.90815C15.5932 3.06821 15.7542 3.28781 15.8428 3.53928C15.9314 3.79074 15.9435 4.0628 15.8777 4.32115L14.84 8.39815H20.6C21.0774 8.39815 21.5352 8.58779 21.8728 8.92536C22.2103 9.26292 22.4 9.72076 22.4 10.1981V12.0917C22.4002 12.327 22.3544 12.56 22.265 12.7775L19.4795 19.541C19.4115 19.7059 19.2961 19.8469 19.1479 19.9461C18.9997 20.0453 18.8253 20.0982 18.647 20.0981H8.89998C8.66128 20.0981 8.43236 20.0033 8.26358 19.8345C8.0948 19.6658 7.99998 19.4368 7.99998 19.1981V8.77075C8.00003 8.53207 8.09488 8.30319 8.26368 8.13445Z" fill="#0A0D14" style="fill:#0A0D14;fill:color(display-p3 0.0392 0.0510 0.0784);fill-opacity:1;"/>
</svg>
