<svg width="25" height="24" viewBox="0 0 25 24" fill="none" xmlns="http://www.w3.org/2000/svg">
<path d="M14.84 15.5984L20.6 15.5984C21.0774 15.5984 21.5352 15.4088 21.8728 15.0712C22.2104 14.7337 22.4 14.2758 22.4 13.7984L22.4 11.9048C22.4003 11.6696 22.3544 11.4366 22.265 11.219L19.4786 4.45644C19.4109 4.29151 19.2957 4.15043 19.1476 4.05109C18.9995 3.95174 18.8253 3.89861 18.647 3.89844L3.50002 3.89844C3.26133 3.89844 3.03241 3.99326 2.86362 4.16204C2.69484 4.33082 2.60002 4.55974 2.60002 4.79844L2.60002 13.7984C2.60002 14.0371 2.69484 14.266 2.86362 14.4348C3.03241 14.6036 3.26133 14.6984 3.50002 14.6984L6.63382 14.6984C6.77791 14.6984 6.9199 14.733 7.04785 14.7992C7.17581 14.8655 7.28598 14.9615 7.36912 15.0791L12.2768 22.0325C12.3389 22.1205 12.4304 22.1832 12.5347 22.2095C12.6391 22.2357 12.7494 22.2237 12.8456 22.1756L14.4782 21.3584C14.9377 21.1288 15.3047 20.7489 15.5184 20.2818C15.732 19.8147 15.7794 19.2885 15.6527 18.7907L14.84 15.5984ZM8.00002 13.2692L8.00002 5.69844L18.044 5.69844L20.6 11.9048L20.6 13.7984L14.84 13.7984C14.5659 13.7985 14.2954 13.8611 14.0491 13.9816C13.8029 14.1021 13.5874 14.2773 13.4192 14.4937C13.2509 14.7101 13.1343 14.9621 13.0783 15.2305C13.0222 15.4988 13.0282 15.7765 13.0958 16.0421L13.9085 19.2353C13.934 19.3349 13.9245 19.4403 13.8818 19.5338C13.839 19.6272 13.7656 19.7033 13.6736 19.7492L13.0787 20.0462L8.83972 14.0414C8.61472 13.7228 8.32672 13.4618 8.00002 13.2692ZM6.20002 12.8984L4.40002 12.8984L4.40002 5.69844L6.20002 5.69844L6.20002 12.8984Z" fill="#0A0D14" style="fill:#0A0D14;fill:color(display-p3 0.0392 0.0510 0.0784);fill-opacity:1;"/>
</svg>
