<svg width="25" height="24" viewBox="0 0 25 24" fill="none" xmlns="http://www.w3.org/2000/svg">
<path d="M16.9892 17.4L18.0836 15.978C18.2375 15.7782 18.3322 15.5392 18.3572 15.2883C18.3822 15.0374 18.3364 14.7844 18.225 14.5582C18.1137 14.3319 17.9411 14.1414 17.727 14.0082C17.5129 13.875 17.2657 13.8044 17.0135 13.8045H15.2V10.2261C15.2002 9.94397 15.1119 9.66888 14.9477 9.43948C14.7835 9.21008 14.5515 9.0379 14.2843 8.94713C14.0172 8.85637 13.7283 8.85157 13.4583 8.93343C13.1884 9.01529 12.9508 9.17967 12.779 9.4035L7.05053 16.8564C5.51106 16.2194 4.24008 15.0683 3.4541 13.5993C2.66812 12.1303 2.41576 10.4343 2.74003 8.80009C3.0643 7.1659 3.94513 5.69469 5.23246 4.63709C6.51979 3.5795 8.13398 3.00094 9.80003 3C11.2509 2.99992 12.6679 3.43798 13.8656 4.25683C15.0633 5.07568 15.9858 6.23714 16.5122 7.5891C17.1893 7.45886 17.8862 7.47153 18.5581 7.62627C19.23 7.78102 19.8622 8.07445 20.4142 8.48774C20.9661 8.90103 21.4256 9.42507 21.7632 10.0263C22.1008 10.6275 22.3091 11.2926 22.3747 11.979C22.4403 12.6654 22.3618 13.3579 22.1442 14.0122C21.9266 14.6665 21.5747 15.2681 21.1111 15.7784C20.6474 16.2888 20.0823 16.6967 19.4518 16.9759C18.8214 17.2552 18.1395 17.3996 17.45 17.4H16.9892ZM13.4 15.6045H16.1L11.6 21.4545V17.4045H8.90003L13.4 11.55V15.6045Z" fill="#0A0D14" style="fill:#0A0D14;fill:color(display-p3 0.0392 0.0510 0.0784);fill-opacity:1;"/>
</svg>
