<svg width="25" height="24" viewBox="0 0 25 24" fill="none" xmlns="http://www.w3.org/2000/svg">
<path d="M17.0001 17.4011V15.6011H17.4501C17.9694 15.601 18.4806 15.4726 18.9383 15.2271C19.396 14.9817 19.7859 14.6269 20.0733 14.1943C20.3607 13.7618 20.5367 13.2649 20.5856 12.7478C20.6345 12.2308 20.5548 11.7097 20.3537 11.2309C20.1525 10.7521 19.8361 10.3305 19.4326 10.0036C19.029 9.67666 18.5509 9.45458 18.0408 9.3571C17.5307 9.25963 17.0044 9.28979 16.5088 9.44489C16.0132 9.6 15.5636 9.87524 15.2001 10.2461V10.2011C15.1997 9.21121 14.9272 8.24044 14.4125 7.39491C13.8977 6.54938 13.1604 5.86161 12.2812 5.40679C11.4019 4.95196 10.4146 4.74757 9.42703 4.81595C8.43948 4.88433 7.48973 5.22286 6.68158 5.79453C5.87342 6.3662 5.23795 7.14902 4.84463 8.05743C4.4513 8.96584 4.31524 9.9649 4.45133 10.9454C4.58742 11.9259 4.99041 12.8502 5.61627 13.6171C6.24212 14.3841 7.06676 14.9643 8.00006 15.2942V17.1743C6.8064 16.8654 5.71206 16.2552 4.82189 15.4021C3.93172 14.5489 3.27555 13.4815 2.91625 12.302C2.55695 11.1226 2.50656 9.87061 2.76991 8.66609C3.03325 7.46156 3.60151 6.34485 4.42024 5.42294C5.23896 4.50103 6.28072 3.80481 7.4457 3.401C8.61067 2.99719 9.85983 2.89931 11.0735 3.11675C12.2871 3.33419 13.4246 3.85965 14.3769 4.64279C15.3293 5.42593 16.0645 6.44051 16.5123 7.58932C17.1891 7.45982 17.8855 7.47306 18.5569 7.62821C19.2284 7.78336 19.86 8.07699 20.4114 8.49031C20.9628 8.90364 21.4219 9.42754 21.7591 10.0285C22.0964 10.6294 22.3045 11.2942 22.37 11.9802C22.4356 12.6661 22.3572 13.3583 22.1399 14.0122C21.9226 14.6662 21.5711 15.2675 21.1079 15.7778C20.6448 16.2881 20.0802 16.6961 19.4504 16.9756C18.8205 17.2551 18.1392 17.4001 17.4501 17.4011L17.0001 17.402V17.4011ZM13.4001 15.6056H16.1001L11.6001 21.4556V17.4056H8.90006L13.4001 11.5511V15.6056Z" fill="#0A0D14" style="fill:#0A0D14;fill:color(display-p3 0.0392 0.0510 0.0784);fill-opacity:1;"/>
</svg>
