<svg width="25" height="24" viewBox="0 0 25 24" fill="none" xmlns="http://www.w3.org/2000/svg">
<path d="M15.5 9.18403V14.625C15.5 17.3174 13.3174 19.5 10.625 19.5C7.93261 19.5 5.75 17.3174 5.75 14.625C5.75 11.9326 7.93261 9.75 10.625 9.75C11.0122 9.75 11.3889 9.79514 11.75 9.88045V12.2526C11.409 12.0906 11.0276 12 10.625 12C9.17525 12 8 13.1753 8 14.625C8 16.0747 9.17525 17.25 10.625 17.25C12.0747 17.25 13.25 16.0747 13.25 14.625V4.5H15.5C15.5 6.57106 17.179 8.25 19.25 8.25V10.5C17.8311 10.5 16.5272 10.0075 15.5 9.18403Z" fill="#0A0D14" style="fill:#0A0D14;fill:color(display-p3 0.0392 0.0510 0.0784);fill-opacity:1;"/>
</svg>
