<svg width="25" height="24" viewBox="0 0 25 24" fill="none" xmlns="http://www.w3.org/2000/svg">
<path d="M11.7503 4.5V9.31047C11.446 9.25432 11.1326 9.225 10.8128 9.225C7.97543 9.225 5.67529 11.5251 5.67529 14.3625C5.67529 17.1999 7.97543 19.5 10.8128 19.5C13.6501 19.5 15.9503 17.1999 15.9503 14.3625V11.5602C16.7275 11.8904 17.5746 12.075 18.5004 12.075H19.2504V7.875H18.5004C17.0724 7.875 15.9503 6.72194 15.9503 5.25V4.5H11.7503ZM13.2503 6H14.516C14.8114 7.66507 16.0755 8.99705 17.7504 9.30682V10.5212C16.9718 10.407 16.269 10.1148 15.6175 9.67875L14.4503 8.89745V14.3625C14.4503 16.3714 12.8218 18 10.8128 18C8.80386 18 7.17529 16.3714 7.17529 14.3625C7.17529 12.3535 8.80386 10.725 10.8128 10.725C10.8757 10.725 10.9383 10.7266 11.0004 10.7297V11.9321C10.9385 11.9274 10.8759 11.925 10.8128 11.925C9.4666 11.925 8.37529 13.0163 8.37529 14.3625C8.37529 15.7087 9.4666 16.8 10.8128 16.8C12.159 16.8 13.2503 15.7087 13.2503 14.3625C13.2503 11.575 13.2494 8.78749 13.2503 6ZM9.87529 14.3625C9.87529 13.8447 10.295 13.425 10.8128 13.425C11.3305 13.425 11.7503 13.8447 11.7503 14.3625C11.7503 14.8803 11.3305 15.3 10.8128 15.3C10.295 15.3 9.87529 14.8803 9.87529 14.3625Z" fill="#0A0D14" style="fill:#0A0D14;fill:color(display-p3 0.0392 0.0510 0.0784);fill-opacity:1;"/>
</svg>
