<svg width="25" height="24" viewBox="0 0 25 24" fill="none" xmlns="http://www.w3.org/2000/svg">
<path d="M3.54497 12.9H5.35577C5.5754 14.6398 6.42234 16.2397 7.73768 17.3994C9.05303 18.5591 10.7464 19.199 12.5 19.199C14.2536 19.199 15.9469 18.5591 17.2622 17.3994C18.5776 16.2397 19.4245 14.6398 19.6442 12.9H21.4559C21.0041 17.4477 17.1665 21 12.5 21C7.83347 21 3.99587 17.4477 3.54497 12.9ZM3.54497 11.1C3.99497 6.5523 7.83257 3 12.5 3C17.1674 3 21.0041 6.5523 21.455 11.1H19.6442C19.4245 9.36021 18.5776 7.76035 17.2622 6.60061C15.9469 5.44087 14.2536 4.80097 12.5 4.80097C10.7464 4.80097 9.05303 5.44087 7.73768 6.60061C6.42234 7.76035 5.5754 9.36021 5.35577 11.1H3.54407H3.54497ZM12.5 13.8C12.0226 13.8 11.5647 13.6104 11.2272 13.2728C10.8896 12.9352 10.7 12.4774 10.7 12C10.7 11.5226 10.8896 11.0648 11.2272 10.7272C11.5647 10.3896 12.0226 10.2 12.5 10.2C12.9774 10.2 13.4352 10.3896 13.7728 10.7272C14.1103 11.0648 14.3 11.5226 14.3 12C14.3 12.4774 14.1103 12.9352 13.7728 13.2728C13.4352 13.6104 12.9774 13.8 12.5 13.8Z" fill="#0A0D14" style="fill:#0A0D14;fill:color(display-p3 0.0392 0.0510 0.0784);fill-opacity:1;"/>
</svg>
