<svg width="25" height="24" viewBox="0 0 25 24" fill="none" xmlns="http://www.w3.org/2000/svg">
<path d="M12.5 21C7.5293 21 3.5 16.9707 3.5 12C3.5 7.0293 7.5293 3 12.5 3C17.4707 3 21.5 7.0293 21.5 12C21.5 16.9707 17.4707 21 12.5 21ZM9.0134 11.1H5.3558C5.28125 11.6977 5.28125 12.3023 5.3558 12.9H9.0134C8.86126 12.3096 8.86126 11.6904 9.0134 11.1ZM15.9866 11.1C16.1387 11.6904 16.1387 12.3096 15.9866 12.9H19.6442C19.7188 12.3023 19.7188 11.6977 19.6442 11.1H15.9866ZM12.5 13.8C12.9774 13.8 13.4352 13.6104 13.7728 13.2728C14.1104 12.9352 14.3 12.4774 14.3 12C14.3 11.5226 14.1104 11.0648 13.7728 10.7272C13.4352 10.3896 12.9774 10.2 12.5 10.2C12.0226 10.2 11.5648 10.3896 11.2272 10.7272C10.8896 11.0648 10.7 11.5226 10.7 12C10.7 12.4774 10.8896 12.9352 11.2272 13.2728C11.5648 13.6104 12.0226 13.8 12.5 13.8Z" fill="#0A0D14" style="fill:#0A0D14;fill:color(display-p3 0.0392 0.0510 0.0784);fill-opacity:1;"/>
</svg>
