<svg width="25" height="24" viewBox="0 0 25 24" fill="none" xmlns="http://www.w3.org/2000/svg">
<path d="M7.44383 6.57276C8.8782 5.42352 10.6621 4.79863 12.5 4.80156C14.4125 4.80156 16.1702 5.46396 17.5562 6.57276L18.8639 5.26506L20.1365 6.53766L18.8288 7.84536C19.7808 9.0371 20.3769 10.4734 20.5486 11.989C20.7202 13.5045 20.4605 15.0378 19.7993 16.4122C19.138 17.7867 18.1022 18.9465 16.8109 19.7583C15.5195 20.57 14.0253 21.0007 12.5 21.0007C10.9748 21.0007 9.48051 20.57 8.1892 19.7583C6.89789 18.9465 5.86201 17.7867 5.20078 16.4122C4.53954 15.0378 4.27982 13.5045 4.4515 11.989C4.62319 10.4734 5.2193 9.0371 6.17123 7.84536L4.86353 6.53856L6.13613 5.26596L7.44383 6.57366V6.57276ZM12.5 19.2016C13.3274 19.2016 14.1466 19.0386 14.9109 18.722C15.6753 18.4054 16.3698 17.9413 16.9548 17.3563C17.5398 16.7713 18.0039 16.0768 18.3205 15.3125C18.6371 14.5481 18.8 13.7289 18.8 12.9016C18.8 12.0742 18.6371 11.255 18.3205 10.4907C18.0039 9.72631 17.5398 9.0318 16.9548 8.44679C16.3698 7.86178 15.6753 7.39773 14.9109 7.08112C14.1466 6.76452 13.3274 6.60156 12.5 6.60156C10.8292 6.60156 9.22674 7.26531 8.04526 8.44679C6.86378 9.62827 6.20003 11.2307 6.20003 12.9016C6.20003 14.5724 6.86378 16.1749 8.04526 17.3563C9.22674 18.5378 10.8292 19.2016 12.5 19.2016ZM13.4 12.0016H16.1L11.6 17.8516V13.8016H8.90003L13.4 7.94706V12.0016ZM8.90003 2.10156H16.1V3.90156H8.90003V2.10156Z" fill="#0A0D14" style="fill:#0A0D14;fill:color(display-p3 0.0392 0.0510 0.0784);fill-opacity:1;"/>
</svg>
