<svg width="25" height="24" viewBox="0 0 25 24" fill="none" xmlns="http://www.w3.org/2000/svg">
<path d="M17.5562 6.57276L18.8639 5.26506L20.1365 6.53766L18.8288 7.84536C20.121 9.46281 20.7448 11.5136 20.5722 13.5767C20.3995 15.6397 19.4435 17.5583 17.9004 18.9385C16.3574 20.3187 14.3444 21.0556 12.275 20.998C10.2055 20.9404 8.23671 20.0926 6.77283 18.6287C5.30895 17.1649 4.46114 15.196 4.40353 13.1266C4.34592 11.0571 5.08288 9.04418 6.46306 7.50112C7.84323 5.95807 9.76185 5.00204 11.8249 4.82939C13.8879 4.65674 15.9388 5.28057 17.5562 6.57276ZM12.5 19.2016C13.3273 19.2016 14.1466 19.0386 14.9109 18.722C15.6753 18.4054 16.3698 17.9413 16.9548 17.3563C17.5398 16.7713 18.0038 16.0768 18.3204 15.3125C18.6371 14.5481 18.8 13.7289 18.8 12.9016C18.8 12.0742 18.6371 11.255 18.3204 10.4907C18.0038 9.7263 17.5398 9.0318 16.9548 8.44679C16.3698 7.86178 15.6753 7.39773 14.9109 7.08112C14.1466 6.76452 13.3273 6.60156 12.5 6.60156C10.8291 6.60156 9.22671 7.26531 8.04523 8.44679C6.86375 9.62827 6.2 11.2307 6.2 12.9016C6.2 14.5724 6.86375 16.1749 8.04523 17.3563C9.22671 18.5378 10.8291 19.2016 12.5 19.2016ZM11.6 8.40156H13.4V13.8016H11.6V8.40156ZM8.9 2.10156H16.1V3.90156H8.9V2.10156Z" fill="#0A0D14" style="fill:#0A0D14;fill:color(display-p3 0.0392 0.0510 0.0784);fill-opacity:1;"/>
</svg>
