<svg width="25" height="24" viewBox="0 0 25 24" fill="none" xmlns="http://www.w3.org/2000/svg">
<path d="M17.5562 6.57276L18.8639 5.26506L20.1365 6.53766L18.8288 7.84536C20.121 9.46281 20.7448 11.5136 20.5722 13.5767C20.3995 15.6397 19.4435 17.5583 17.9004 18.9385C16.3574 20.3187 14.3444 21.0556 12.275 20.998C10.2055 20.9404 8.23671 20.0926 6.77283 18.6287C5.30895 17.1649 4.46114 15.196 4.40353 13.1266C4.34592 11.0571 5.08288 9.04418 6.46306 7.50112C7.84323 5.95807 9.76185 5.00204 11.8249 4.82939C13.8879 4.65674 15.9388 5.28057 17.5562 6.57276ZM11.6 8.40156V13.8016H13.4V8.40156H11.6ZM8.9 2.10156H16.1V3.90156H8.9V2.10156Z" fill="#0A0D14" style="fill:#0A0D14;fill:color(display-p3 0.0392 0.0510 0.0784);fill-opacity:1;"/>
</svg>
