<svg width="25" height="24" viewBox="0 0 25 24" fill="none" xmlns="http://www.w3.org/2000/svg">
<path d="M7.44383 6.57276C8.8782 5.42352 10.6621 4.79863 12.5 4.80156C14.4125 4.80156 16.1702 5.46396 17.5562 6.57276L18.8639 5.26506L20.1365 6.53766L18.8288 7.84536C19.7808 9.0371 20.3769 10.4734 20.5486 11.989C20.7202 13.5045 20.4605 15.0378 19.7993 16.4122C19.138 17.7867 18.1022 18.9465 16.8109 19.7583C15.5195 20.57 14.0253 21.0007 12.5 21.0007C10.9748 21.0007 9.48051 20.57 8.1892 19.7583C6.89789 18.9465 5.86201 17.7867 5.20078 16.4122C4.53954 15.0378 4.27982 13.5045 4.4515 11.989C4.62319 10.4734 5.2193 9.0371 6.17123 7.84536L4.86353 6.53856L6.13613 5.26596L7.44383 6.57366V6.57276ZM13.4 12.0016V7.94706L8.90003 13.8016H11.6V17.8516L16.1 12.0016H13.4ZM8.90003 2.10156H16.1V3.90156H8.90003V2.10156Z" fill="#0A0D14" style="fill:#0A0D14;fill:color(display-p3 0.0392 0.0510 0.0784);fill-opacity:1;"/>
</svg>
