<svg width="25" height="24" viewBox="0 0 25 24" fill="none" xmlns="http://www.w3.org/2000/svg">
<path d="M17 2.99922H19.7C19.9387 2.99922 20.1676 3.09404 20.3364 3.26282C20.5052 3.43161 20.6 3.66052 20.6 3.89922V20.0992C20.6 20.3379 20.5052 20.5668 20.3364 20.7356C20.1676 20.9044 19.9387 20.9992 19.7 20.9992H5.29999C5.0613 20.9992 4.83238 20.9044 4.6636 20.7356C4.49482 20.5668 4.39999 20.3379 4.39999 20.0992V3.89922C4.39999 3.66052 4.49482 3.43161 4.6636 3.26282C4.83238 3.09404 5.0613 2.99922 5.29999 2.99922H7.99999V1.19922H9.79999V2.99922H15.2V1.19922H17V2.99922ZM7.99999 8.39922V10.1992H17V8.39922H7.99999ZM7.99999 11.9992V13.7992H17V11.9992H7.99999Z" fill="#0A0D14" style="fill:#0A0D14;fill:color(display-p3 0.0392 0.0510 0.0784);fill-opacity:1;"/>
</svg>
