<svg width="25" height="24" viewBox="0 0 25 24" fill="none" xmlns="http://www.w3.org/2000/svg">
<path d="M19.625 9.75C19.625 11.7779 18.3868 13.5167 16.625 14.2513V14.25C16.625 10.7292 13.7708 7.875 10.25 7.875H10.2486C10.9833 6.11329 12.7221 4.875 14.75 4.875C17.4424 4.875 19.625 7.05761 19.625 9.75ZM8.75 5.25C7.09314 5.25 5.75 6.59314 5.75 8.25V9.375H7.25V8.25C7.25 7.42157 7.92157 6.75 8.75 6.75H9.875V5.25H8.75ZM17.75 14.625V15.75C17.75 16.5785 17.0785 17.25 16.25 17.25H15.125V18.75H16.25C17.9068 18.75 19.25 17.4068 19.25 15.75V14.625H17.75ZM10.25 19.125C12.9424 19.125 15.125 16.9424 15.125 14.25C15.125 11.5576 12.9424 9.375 10.25 9.375C7.55761 9.375 5.375 11.5576 5.375 14.25C5.375 16.9424 7.55761 19.125 10.25 19.125ZM10.25 12.375L12.125 14.25L10.25 16.125L8.375 14.25L10.25 12.375Z" fill="#0A0D14" style="fill:#0A0D14;fill:color(display-p3 0.0392 0.0510 0.0784);fill-opacity:1;"/>
</svg>
