<svg width="25" height="24" viewBox="0 0 25 24" fill="none" xmlns="http://www.w3.org/2000/svg">
<path d="M6.49699 4.14415C7.09732 3.92994 7.74852 3.90289 8.36455 4.06658C8.98058 4.23027 9.53245 4.57699 9.94727 5.06095C10.3621 5.5449 10.6203 6.14331 10.6879 6.77713C10.7554 7.41095 10.6291 8.05035 10.3256 8.61085L19.9637 18.2499L18.6911 19.5225L9.05209 9.88345C8.49145 10.1858 7.85238 10.3111 7.21909 10.243C6.58579 10.1749 5.988 9.91649 5.50448 9.50186C5.02096 9.08724 4.67441 8.53585 4.5105 7.92035C4.34659 7.30485 4.37302 6.65414 4.58629 6.05395L6.59959 8.06725C6.72412 8.19619 6.87309 8.29904 7.03779 8.36979C7.2025 8.44054 7.37964 8.47778 7.5589 8.47934C7.73815 8.4809 7.91592 8.44674 8.08183 8.37886C8.24774 8.31098 8.39847 8.21074 8.52522 8.08399C8.65198 7.95723 8.75222 7.8065 8.8201 7.64059C8.88798 7.47468 8.92213 7.29691 8.92058 7.11766C8.91902 6.93841 8.88178 6.76126 8.81103 6.59656C8.74027 6.43185 8.63743 6.28289 8.50849 6.15835L6.49609 4.14325L6.49699 4.14415ZM15.8273 5.83975L18.6911 4.24855L19.9637 5.52115L18.3725 8.38495L16.7813 8.70355L14.8733 10.6125L13.5998 9.33985L15.5087 7.43095L15.8273 5.83975ZM9.78109 13.1586L11.0537 14.4312L6.28099 19.2039C6.11872 19.3666 5.90034 19.4611 5.67064 19.468C5.44093 19.4748 5.21729 19.3936 5.04557 19.2408C4.87385 19.0881 4.76707 18.8755 4.7471 18.6465C4.72713 18.4176 4.7955 18.1897 4.93819 18.0096L5.00839 17.9313L9.78109 13.1586Z" fill="#0A0D14" style="fill:#0A0D14;fill:color(display-p3 0.0392 0.0510 0.0784);fill-opacity:1;"/>
</svg>
