<svg width="25" height="24" viewBox="0 0 25 24" fill="none" xmlns="http://www.w3.org/2000/svg">
<path d="M6.49698 4.14408C7.05862 3.94371 7.6656 3.90689 8.24735 4.03788C8.8291 4.16887 9.36171 4.4623 9.78328 4.88405C10.2048 5.3058 10.498 5.83855 10.6288 6.42035C10.7595 7.00216 10.7224 7.60912 10.5218 8.17068L20.2823 17.9312L18.3725 19.8401L8.61198 10.0805C8.05033 10.2808 7.44335 10.3177 6.86161 10.1867C6.27986 10.0557 5.74724 9.76226 5.32568 9.34051C4.90412 8.91875 4.61093 8.38601 4.4802 7.8042C4.34947 7.22239 4.38656 6.61543 4.58718 6.05388L6.59958 8.06718C6.72411 8.19612 6.87308 8.29896 7.03778 8.36971C7.20249 8.44047 7.37963 8.47771 7.55889 8.47927C7.73814 8.48082 7.91591 8.44667 8.08182 8.37879C8.24773 8.31091 8.39846 8.21067 8.52521 8.08391C8.65197 7.95716 8.75221 7.80643 8.82009 7.64052C8.88797 7.47461 8.92212 7.29684 8.92057 7.11759C8.91901 6.93833 8.88177 6.76119 8.81102 6.59648C8.74026 6.43178 8.63742 6.28281 8.50848 6.15828L6.49608 4.14318L6.49698 4.14408ZM15.8273 5.83968L18.6911 4.24848L19.9637 5.52108L18.3725 8.38488L16.7813 8.70348L14.8733 10.6124L13.5998 9.33978L15.5087 7.43088L15.8273 5.83968ZM9.46338 12.8399L11.3723 14.7497L6.91728 19.2047C6.67161 19.448 6.34192 19.5879 5.9962 19.5953C5.65048 19.6027 5.31509 19.4772 5.05919 19.2446C4.80329 19.012 4.6464 18.6901 4.62087 18.3453C4.59534 18.0004 4.70312 17.6589 4.92198 17.3912L5.00928 17.2949L9.46428 12.8399H9.46338Z" fill="#0A0D14" style="fill:#0A0D14;fill:color(display-p3 0.0392 0.0510 0.0784);fill-opacity:1;"/>
</svg>
