<svg width="25" height="24" viewBox="0 0 25 24" fill="none" xmlns="http://www.w3.org/2000/svg">
<path d="M8.00005 4.8V3.9C8.00005 3.66131 8.09487 3.43239 8.26365 3.2636C8.43244 3.09482 8.66135 3 8.90005 3H16.1C16.3387 3 16.5677 3.09482 16.7364 3.2636C16.9052 3.43239 17 3.66131 17 3.9V4.8H19.7C19.7 7.05 17.45 7.95 17 7.95V10.2H19.7C19.7 12.45 17.45 13.35 17 13.35V15.6H19.7C19.7 17.85 17.45 18.75 17 18.75V20.1C17 20.3387 16.9052 20.5676 16.7364 20.7364C16.5677 20.9052 16.3387 21 16.1 21H8.90005C8.66135 21 8.43244 20.9052 8.26365 20.7364C8.09487 20.5676 8.00005 20.3387 8.00005 20.1V18.75C7.55005 18.75 5.30005 17.85 5.30005 15.6H8.00005V13.35C7.55005 13.35 5.30005 12.45 5.30005 10.2H8.00005V7.95C7.55005 7.95 5.30005 7.05 5.30005 4.8H8.00005ZM12.5 19.2C12.9774 19.2 13.4353 19.0104 13.7728 18.6728C14.1104 18.3352 14.3 17.8774 14.3 17.4C14.3 16.9226 14.1104 16.4648 13.7728 16.1272C13.4353 15.7896 12.9774 15.6 12.5 15.6C12.0227 15.6 11.5648 15.7896 11.2273 16.1272C10.8897 16.4648 10.7 16.9226 10.7 17.4C10.7 17.8774 10.8897 18.3352 11.2273 18.6728C11.5648 19.0104 12.0227 19.2 12.5 19.2ZM12.5 13.8C12.9774 13.8 13.4353 13.6104 13.7728 13.2728C14.1104 12.9352 14.3 12.4774 14.3 12C14.3 11.5226 14.1104 11.0648 13.7728 10.7272C13.4353 10.3896 12.9774 10.2 12.5 10.2C12.0227 10.2 11.5648 10.3896 11.2273 10.7272C10.8897 11.0648 10.7 11.5226 10.7 12C10.7 12.4774 10.8897 12.9352 11.2273 13.2728C11.5648 13.6104 12.0227 13.8 12.5 13.8ZM12.5 8.4C12.9774 8.4 13.4353 8.21036 13.7728 7.87279C14.1104 7.53523 14.3 7.07739 14.3 6.6C14.3 6.12261 14.1104 5.66477 13.7728 5.32721C13.4353 4.98964 12.9774 4.8 12.5 4.8C12.0227 4.8 11.5648 4.98964 11.2273 5.32721C10.8897 5.66477 10.7 6.12261 10.7 6.6C10.7 7.07739 10.8897 7.53523 11.2273 7.87279C11.5648 8.21036 12.0227 8.4 12.5 8.4Z" fill="#0A0D14" style="fill:#0A0D14;fill:color(display-p3 0.0392 0.0510 0.0784);fill-opacity:1;"/>
</svg>
