<svg width="25" height="24" viewBox="0 0 25 24" fill="none" xmlns="http://www.w3.org/2000/svg">
<path d="M17.18 19.2004L18.8 20.5504V21.0004H6.20002V20.5504L7.82002 19.2004H6.20002C5.72263 19.2004 5.2648 19.0107 4.92723 18.6732C4.58967 18.3356 4.40002 17.8778 4.40002 17.4004V7.50039C4.40002 6.54561 4.77931 5.62994 5.45444 4.95481C6.12957 4.27968 7.04525 3.90039 8.00002 3.90039H17C17.9548 3.90039 18.8705 4.27968 19.5456 4.95481C20.2207 5.62994 20.6 6.54561 20.6 7.50039V17.4004C20.6 17.8778 20.4104 18.3356 20.0728 18.6732C19.7353 19.0107 19.2774 19.2004 18.8 19.2004H17.18ZM6.20002 7.50039V11.1004H18.8V7.50039H6.20002ZM12.5 17.4004C12.9774 17.4004 13.4353 17.2107 13.7728 16.8732C14.1104 16.5356 14.3 16.0778 14.3 15.6004C14.3 15.123 14.1104 14.6652 13.7728 14.3276C13.4353 13.99 12.9774 13.8004 12.5 13.8004C12.0226 13.8004 11.5648 13.99 11.2272 14.3276C10.8897 14.6652 10.7 15.123 10.7 15.6004C10.7 16.0778 10.8897 16.5356 11.2272 16.8732C11.5648 17.2107 12.0226 17.4004 12.5 17.4004Z" fill="#0A0D14" style="fill:#0A0D14;fill:color(display-p3 0.0392 0.0510 0.0784);fill-opacity:1;"/>
</svg>
