<svg width="25" height="24" viewBox="0 0 25 24" fill="none" xmlns="http://www.w3.org/2000/svg">
<path d="M12.9482 3.89961C12.7094 4.47276 12.5638 5.08045 12.5171 5.69961H7.99999C7.54588 5.69947 7.10848 5.87098 6.7755 6.17976C6.44252 6.48854 6.23855 6.91177 6.20449 7.36461L6.19999 7.49961V17.3996H18.8V11.9825C19.4192 11.9355 20.0269 11.7897 20.6 11.5505V17.3996C20.6 17.877 20.4104 18.3348 20.0728 18.6724C19.7352 19.01 19.2774 19.1996 18.8 19.1996H17.18L18.8 20.5496V20.9996H6.19999V20.5496L7.81999 19.1996H6.19999C5.7226 19.1996 5.26477 19.01 4.9272 18.6724C4.58964 18.3348 4.39999 17.877 4.39999 17.3996V7.49961C4.39999 6.54483 4.77928 5.62916 5.45441 4.95402C6.12954 4.27889 7.04521 3.89961 7.99999 3.89961H12.9482ZM12.5 12.8996C12.9774 12.8996 13.4352 13.0893 13.7728 13.4268C14.1104 13.7644 14.3 14.2222 14.3 14.6996C14.3 15.177 14.1104 15.6348 13.7728 15.9724C13.4352 16.31 12.9774 16.4996 12.5 16.4996C12.0226 16.4996 11.5648 16.31 11.2272 15.9724C10.8896 15.6348 10.7 15.177 10.7 14.6996C10.7 14.2222 10.8896 13.7644 11.2272 13.4268C11.5648 13.0893 12.0226 12.8996 12.5 12.8996ZM12.6566 7.49961C13.0112 8.9906 13.9359 10.2833 15.2324 11.1005L7.09999 11.0996V7.49961H12.6566ZM18.35 2.09961C19.4241 2.09961 20.4543 2.5263 21.2138 3.28583C21.9733 4.04535 22.4 5.07548 22.4 6.14961C22.4 7.22374 21.9733 8.25387 21.2138 9.01339C20.4543 9.77291 19.4241 10.1996 18.35 10.1996C17.2759 10.1996 16.2457 9.77291 15.4862 9.01339C14.7267 8.25387 14.3 7.22374 14.3 6.14961C14.3 5.07548 14.7267 4.04535 15.4862 3.28583C16.2457 2.5263 17.2759 2.09961 18.35 2.09961ZM18.35 6.74991C17.9081 6.74991 17.504 6.90921 17.1899 7.17291L17.0774 7.27641L18.35 8.54991L19.6217 7.27551C19.4547 7.10855 19.2564 6.97617 19.0382 6.88598C18.82 6.79579 18.5861 6.74955 18.35 6.74991ZM18.35 4.34961C17.3096 4.34805 16.306 4.73404 15.5348 5.43231L15.3791 5.58081L16.2287 6.42861C16.5069 6.14951 16.8375 5.92815 17.2016 5.77725C17.5656 5.62635 17.9559 5.54889 18.35 5.54931C19.0793 5.54821 19.7839 5.8139 20.3309 6.29631L20.4713 6.42861L21.32 5.57991C20.9304 5.18927 20.4675 4.87948 19.9578 4.66835C19.4481 4.45721 18.9017 4.34889 18.35 4.34961Z" fill="#0A0D14" style="fill:#0A0D14;fill:color(display-p3 0.0392 0.0510 0.0784);fill-opacity:1;"/>
</svg>
