<svg width="25" height="24" viewBox="0 0 25 24" fill="none" xmlns="http://www.w3.org/2000/svg">
<path d="M17.18 19.2004L18.8 20.5504V21.0004H6.20002V20.5504L7.82002 19.2004H6.20002C5.72263 19.2004 5.2648 19.0107 4.92723 18.6732C4.58967 18.3356 4.40002 17.8778 4.40002 17.4004V7.50039C4.40002 6.54561 4.77931 5.62994 5.45444 4.95481C6.12957 4.27968 7.04525 3.90039 8.00002 3.90039H17C17.9548 3.90039 18.8705 4.27968 19.5456 4.95481C20.2207 5.62994 20.6 6.54561 20.6 7.50039V17.4004C20.6 17.8778 20.4104 18.3356 20.0728 18.6732C19.7353 19.0107 19.2774 19.2004 18.8 19.2004H17.18ZM8.00002 5.70039C7.52263 5.70039 7.0648 5.89003 6.72723 6.2276C6.38967 6.56516 6.20002 7.023 6.20002 7.50039V17.4004H18.8V7.50039C18.8 7.023 18.6104 6.56516 18.2728 6.2276C17.9353 5.89003 17.4774 5.70039 17 5.70039H8.00002ZM12.5 16.5004C12.0226 16.5004 11.5648 16.3107 11.2272 15.9732C10.8897 15.6356 10.7 15.1778 10.7 14.7004C10.7 14.223 10.8897 13.7652 11.2272 13.4276C11.5648 13.09 12.0226 12.9004 12.5 12.9004C12.9774 12.9004 13.4353 13.09 13.7728 13.4276C14.1104 13.7652 14.3 14.223 14.3 14.7004C14.3 15.1778 14.1104 15.6356 13.7728 15.9732C13.4353 16.3107 12.9774 16.5004 12.5 16.5004ZM7.10002 7.50039H17.9V11.1004H7.10002V7.50039Z" fill="#0A0D14" style="fill:#0A0D14;fill:color(display-p3 0.0392 0.0510 0.0784);fill-opacity:1;"/>
</svg>
