<svg width="25" height="24" viewBox="0 0 25 24" fill="none" xmlns="http://www.w3.org/2000/svg">
<path d="M18.35 10.2L22.31 20.1H20.3705L19.2896 17.4H15.6086L14.5295 20.1H12.5909L16.55 10.2H18.35ZM10.7 3V4.8H16.1V6.6H14.3288C13.6346 8.68987 12.5265 10.6185 11.0708 12.2709C11.72 12.8501 12.4241 13.3647 13.1732 13.8072L12.4973 15.4974C11.5303 14.9489 10.6258 14.2968 9.8 13.5525C8.19222 15.0076 6.28824 16.097 4.2191 16.7457L3.7367 15.0096C5.50955 14.4443 7.14322 13.5114 8.531 12.2718C7.50382 11.1089 6.64826 9.80514 5.9903 8.4H8.0063C8.50792 9.32597 9.1094 10.1942 9.8 10.9893C10.9251 9.69249 11.8118 8.20677 12.419 6.6009L3.5 6.6V4.8H8.9V3H10.7ZM17.45 12.7965L16.3277 15.6H18.5705L17.45 12.7965Z" fill="#0A0D14" style="fill:#0A0D14;fill:color(display-p3 0.0392 0.0510 0.0784);fill-opacity:1;"/>
</svg>
