<svg width="25" height="24" viewBox="0 0 25 24" fill="none" xmlns="http://www.w3.org/2000/svg">
<path d="M6.2 14.7V16.5C6.19986 16.9541 6.37137 17.3915 6.68015 17.7245C6.98893 18.0575 7.41216 18.2614 7.865 18.2955L8 18.3H10.7V20.1H8C7.04522 20.1 6.12955 19.7207 5.45442 19.0456C4.77928 18.3705 4.4 17.4548 4.4 16.5V14.7H6.2ZM17.9 10.2L21.86 20.1H19.9205L18.8396 17.4H15.1586L14.0795 20.1H12.1409L16.1 10.2H17.9ZM17 12.7965L15.8777 15.6H18.1205L17 12.7965ZM8.9 3V4.8H12.5V11.1H8.9V13.8H7.1V11.1H3.5V4.8H7.1V3H8.9ZM17 3.9C17.9548 3.9 18.8705 4.27928 19.5456 4.95442C20.2207 5.62955 20.6 6.54522 20.6 7.5V9.3H18.8V7.5C18.8 7.02261 18.6104 6.56477 18.2728 6.22721C17.9352 5.88964 17.4774 5.7 17 5.7H14.3V3.9H17ZM7.1 6.6H5.3V9.3H7.1V6.6ZM10.7 6.6H8.9V9.3H10.7V6.6Z" fill="#0A0D14" style="fill:#0A0D14;fill:color(display-p3 0.0392 0.0510 0.0784);fill-opacity:1;"/>
</svg>
