<svg width="25" height="24" viewBox="0 0 25 24" fill="none" xmlns="http://www.w3.org/2000/svg">
<path d="M9.75501 8.88147C11.1162 7.84284 12.8213 7.36031 14.5249 7.53161C16.2285 7.70291 17.8034 8.51522 18.9305 9.80406C20.0577 11.0929 20.653 12.7619 20.5958 14.4732C20.5386 16.1844 19.8333 17.81 18.6226 19.0207C17.4118 20.2314 15.7863 20.9368 14.075 20.994C12.3638 21.0512 10.6947 20.4559 9.4059 19.3287C8.11706 18.2015 7.30475 16.6267 7.13345 14.923C6.96215 13.2194 7.44467 11.5144 8.48331 10.1532L5.89581 7.56567L3.66741 9.79317L2.39481 8.52057L8.12241 2.79297L9.39501 4.06557L7.16751 6.29307L9.75591 8.88147H9.75501ZM13.85 19.1982C15.1628 19.1982 16.4219 18.6767 17.3502 17.7483C18.2785 16.82 18.8 15.561 18.8 14.2482C18.8 12.9353 18.2785 11.6763 17.3502 10.748C16.4219 9.81968 15.1628 9.29817 13.85 9.29817C12.5372 9.29817 11.2781 9.81968 10.3498 10.748C9.42152 11.6763 8.90001 12.9353 8.90001 14.2482C8.90001 15.561 9.42152 16.82 10.3498 17.7483C11.2781 18.6767 12.5372 19.1982 13.85 19.1982Z" fill="#0A0D14" style="fill:#0A0D14;fill:color(display-p3 0.0392 0.0510 0.0784);fill-opacity:1;"/>
</svg>
