<svg width="25" height="24" viewBox="0 0 25 24" fill="none" xmlns="http://www.w3.org/2000/svg">
<path d="M8.48331 10.1532L5.89401 7.56657L3.66741 9.79317L2.39481 8.52057L8.12241 2.79297L9.39501 4.06557L7.16751 6.29307L9.75591 8.88147C11.1175 7.8434 12.8227 7.36156 14.5262 7.53352C16.2298 7.70548 17.8043 8.51838 18.931 9.80762C20.0576 11.0969 20.6523 12.7661 20.5945 14.4773C20.5367 16.1885 19.8307 17.8138 18.6196 19.024C17.4085 20.2343 15.7827 20.9391 14.0715 20.9957C12.3602 21.0523 10.6914 20.4565 9.40297 19.3289C8.11452 18.2013 7.30273 16.6262 7.13198 14.9226C6.96123 13.2189 7.44428 11.514 8.48331 10.1532Z" fill="#0A0D14" style="fill:#0A0D14;fill:color(display-p3 0.0392 0.0510 0.0784);fill-opacity:1;"/>
</svg>
