<svg width="25" height="24" viewBox="0 0 25 24" fill="none" xmlns="http://www.w3.org/2000/svg">
<path d="M15.1415 7.6836L9.7415 4.9836L5.3 6.8871V18.2703L9.8585 16.3173L15.2585 19.0173L19.7 17.112V5.7297L15.1415 7.6827V7.6836ZM3.5 5.7L9.8 3L15.2 5.7L20.8727 3.2691C20.9412 3.23975 21.0159 3.22785 21.0901 3.23449C21.1643 3.24112 21.2357 3.26608 21.2979 3.30712C21.3601 3.34816 21.4111 3.404 21.4464 3.46962C21.4816 3.53524 21.5001 3.6086 21.5 3.6831V18.3L15.2 21L9.8 18.3L4.1273 20.7309C4.05882 20.7603 3.98413 20.7721 3.90992 20.7655C3.83571 20.7589 3.76431 20.7339 3.70213 20.6929C3.63995 20.6518 3.58893 20.596 3.55365 20.5304C3.51837 20.4648 3.49993 20.3914 3.5 20.3169V5.7ZM7.1 11.1H8.9V12.9H7.1V11.1ZM10.7 11.1H12.5V12.9H10.7V11.1ZM16.0982 11.0433L17.2124 9.93L18.1664 10.884L17.0531 11.9982L18.1664 13.1124L17.2124 14.0664L16.0982 12.9531L14.9849 14.0664L14.03 13.1124L15.1433 11.9982L14.03 10.8849L14.984 9.93L16.0982 11.0433Z" fill="#0A0D14" style="fill:#0A0D14;fill:color(display-p3 0.0392 0.0510 0.0784);fill-opacity:1;"/>
</svg>
