<svg width="25" height="24" viewBox="0 0 25 24" fill="none" xmlns="http://www.w3.org/2000/svg">
<path d="M17 8.25C17 8.4468 16.9874 8.64065 16.9629 8.83078C18.3284 9.60343 19.25 11.0691 19.25 12.75C19.25 15.2353 17.2353 17.25 14.75 17.25C14.224 17.25 13.7192 17.1598 13.25 16.9939V19.5H11.75V16.8002C11.1874 17.0878 10.5502 17.25 9.875 17.25C7.59682 17.25 5.75 15.4032 5.75 13.125C5.75 12.0356 6.17234 11.0447 6.86223 10.3074C7.15794 11.1174 7.62308 11.8458 8.21432 12.4492L9.28568 11.3993C8.74303 10.8455 8.34279 10.1533 8.14295 9.38016C8.04955 9.01906 8 8.6403 8 8.25C8 5.76472 10.0147 3.75 12.5 3.75C14.9853 3.75 17 5.76472 17 8.25Z" fill="#0A0D14" style="fill:#0A0D14;fill:color(display-p3 0.0392 0.0510 0.0784);fill-opacity:1;"/>
</svg>
