<svg width="25" height="24" viewBox="0 0 25 24" fill="none" xmlns="http://www.w3.org/2000/svg">
<path d="M8 8.25C8 5.76472 10.0147 3.75 12.5 3.75C14.9853 3.75 17 5.76472 17 8.25C17 8.44661 16.9873 8.64052 16.9628 8.83093C18.3275 9.6031 19.25 11.0681 19.25 12.75C19.25 15.2353 17.2353 17.25 14.75 17.25H13.25V19.5H11.75V17.25H9.875C7.59682 17.25 5.75 15.4032 5.75 13.125C5.75 11.4647 6.73034 10.0347 8.14323 9.38028C8.04976 9.01913 8 8.64029 8 8.25ZM8.75723 10.7489C7.86632 11.1688 7.25 12.0756 7.25 13.125C7.25 14.5747 8.42525 15.75 9.875 15.75H14.75C16.4068 15.75 17.75 14.4068 17.75 12.75C17.75 11.4792 16.9596 10.3912 15.8408 9.95426L15.2097 9.70779C15.343 9.22753 15.5 8.75387 15.5 8.25C15.5 6.59314 14.1568 5.25 12.5 5.25C10.8431 5.25 9.5 6.59314 9.5 8.25C9.5 9.23087 9.96995 10.1018 10.7001 10.6504L9.79913 11.8496C9.39325 11.5447 9.04037 11.1722 8.75723 10.7489Z" fill="#0A0D14" style="fill:#0A0D14;fill:color(display-p3 0.0392 0.0510 0.0784);fill-opacity:1;"/>
</svg>
