<svg width="25" height="24" viewBox="0 0 25 24" fill="none" xmlns="http://www.w3.org/2000/svg">
<path d="M6.20002 5.70039V18.3004H18.8V5.70039H6.20002ZM6.20002 3.90039H18.8C19.2774 3.90039 19.7353 4.09003 20.0728 4.4276C20.4104 4.76516 20.6 5.223 20.6 5.70039V18.3004C20.6 18.7778 20.4104 19.2356 20.0728 19.5732C19.7353 19.9107 19.2774 20.1004 18.8 20.1004H6.20002C5.72263 20.1004 5.2648 19.9107 4.92723 19.5732C4.58967 19.2356 4.40002 18.7778 4.40002 18.3004V5.70039C4.40002 5.223 4.58967 4.76516 4.92723 4.4276C5.2648 4.09003 5.72263 3.90039 6.20002 3.90039ZM8.90002 7.50039H10.7C10.9387 7.50039 11.1676 7.59521 11.3364 7.76399C11.5052 7.93278 11.6 8.1617 11.6 8.40039V15.6004C11.6 15.8391 11.5052 16.068 11.3364 16.2368C11.1676 16.4056 10.9387 16.5004 10.7 16.5004H8.90002C8.66133 16.5004 8.43241 16.4056 8.26363 16.2368C8.09485 16.068 8.00002 15.8391 8.00002 15.6004V8.40039C8.00002 8.1617 8.09485 7.93278 8.26363 7.76399C8.43241 7.59521 8.66133 7.50039 8.90002 7.50039ZM14.3 7.50039H16.1C16.3387 7.50039 16.5676 7.59521 16.7364 7.76399C16.9052 7.93278 17 8.1617 17 8.40039V12.0004C17 12.2391 16.9052 12.468 16.7364 12.6368C16.5676 12.8056 16.3387 12.9004 16.1 12.9004H14.3C14.0613 12.9004 13.8324 12.8056 13.6636 12.6368C13.4948 12.468 13.4 12.2391 13.4 12.0004V8.40039C13.4 8.1617 13.4948 7.93278 13.6636 7.76399C13.8324 7.59521 14.0613 7.50039 14.3 7.50039Z" fill="#0A0D14" style="fill:#0A0D14;fill:color(display-p3 0.0392 0.0510 0.0784);fill-opacity:1;"/>
</svg>
