<svg width="25" height="24" viewBox="0 0 25 24" fill="none" xmlns="http://www.w3.org/2000/svg">
<path d="M6.42502 3.90039H18.575C19.1121 3.90039 19.6272 4.11374 20.0069 4.4935C20.3867 4.87326 20.6 5.38833 20.6 5.92539V18.0754C20.6 18.6125 20.3867 19.1275 20.0069 19.5073C19.6272 19.887 19.1121 20.1004 18.575 20.1004H6.42502C5.88796 20.1004 5.37289 19.887 4.99313 19.5073C4.61337 19.1275 4.40002 18.6125 4.40002 18.0754V5.92539C4.40002 5.38833 4.61337 4.87326 4.99313 4.4935C5.37289 4.11374 5.88796 3.90039 6.42502 3.90039ZM13.553 6.97839V12.1624C13.553 12.6988 13.9886 13.1344 14.525 13.1344H17.522C17.7798 13.1344 18.027 13.032 18.2093 12.8497C18.3916 12.6674 18.494 12.4202 18.494 12.1624V6.97839C18.494 6.7206 18.3916 6.47337 18.2093 6.29108C18.027 6.1088 17.7798 6.00639 17.522 6.00639H14.525C14.2672 6.00639 14.02 6.1088 13.8377 6.29108C13.6554 6.47337 13.553 6.7206 13.553 6.97839ZM6.50602 6.97839V16.2124C6.50602 16.7488 6.94162 17.1844 7.47802 17.1844H10.475C10.7328 17.1844 10.98 17.082 11.1623 16.8997C11.3446 16.7174 11.447 16.4702 11.447 16.2124V6.97839C11.447 6.7206 11.3446 6.47337 11.1623 6.29108C10.98 6.1088 10.7328 6.00639 10.475 6.00639H7.47802C7.22023 6.00639 6.973 6.1088 6.79072 6.29108C6.60843 6.47337 6.50602 6.7206 6.50602 6.97839Z" fill="#0A0D14" style="fill:#0A0D14;fill:color(display-p3 0.0392 0.0510 0.0784);fill-opacity:1;"/>
</svg>
