<svg width="25" height="24" viewBox="0 0 25 24" fill="none" xmlns="http://www.w3.org/2000/svg">
<path d="M9.76848 17.3992C9.66148 18.1501 9.28717 18.8371 8.71429 19.3342C8.1414 19.8312 7.40842 20.1049 6.64998 20.1049C5.89153 20.1049 5.15855 19.8312 4.58566 19.3342C4.01278 18.8371 3.63847 18.1501 3.53148 17.3992H2.59998V6.59922C2.59998 6.36052 2.6948 6.13161 2.86358 5.96282C3.03236 5.79404 3.26128 5.69922 3.49998 5.69922H16.1C16.3387 5.69922 16.5676 5.79404 16.7364 5.96282C16.9052 6.13161 17 6.36052 17 6.59922V8.39922H19.7L22.4 12.0496V17.3992H20.5685C20.4615 18.1501 20.0872 18.8371 19.5143 19.3342C18.9414 19.8312 18.2084 20.1049 17.45 20.1049C16.6915 20.1049 15.9585 19.8312 15.3857 19.3342C14.8128 18.8371 14.4385 18.1501 14.3315 17.3992H9.76848ZM15.2 7.49922H4.39998V14.7442C4.75508 14.3817 5.19252 14.1103 5.67505 13.9532C6.15759 13.7961 6.67094 13.7579 7.17141 13.8419C7.67189 13.9258 8.14467 14.1295 8.54952 14.4354C8.95438 14.7414 9.27931 15.1407 9.49668 15.5992H14.6033C14.7545 15.2815 14.957 14.9926 15.2 14.7442V7.49922ZM17 12.8992H20.6V12.6427L18.7928 10.1992H17V12.8992ZM17.45 18.2992C17.8081 18.2992 18.1516 18.1569 18.4049 17.9037C18.6581 17.6504 18.8004 17.3069 18.8004 16.9488C18.8004 16.5906 18.6581 16.2471 18.4049 15.9939C18.1516 15.7406 17.8081 15.5983 17.45 15.5983C17.0918 15.5983 16.7483 15.7406 16.4951 15.9939C16.2418 16.2471 16.0995 16.5906 16.0995 16.9488C16.0995 17.3069 16.2418 17.6504 16.4951 17.9037C16.7483 18.1569 17.0918 18.2992 17.45 18.2992ZM7.99998 16.9492C7.99998 16.7719 7.96506 16.5964 7.89721 16.4326C7.82937 16.2688 7.72993 16.12 7.60457 15.9946C7.47921 15.8693 7.33039 15.7698 7.1666 15.702C7.00281 15.6341 6.82726 15.5992 6.64998 15.5992C6.47269 15.5992 6.29714 15.6341 6.13335 15.702C5.96956 15.7698 5.82074 15.8693 5.69538 15.9946C5.57002 16.12 5.47058 16.2688 5.40274 16.4326C5.33489 16.5964 5.29998 16.7719 5.29998 16.9492C5.29998 17.3073 5.44221 17.6506 5.69538 17.9038C5.94856 18.157 6.29193 18.2992 6.64998 18.2992C7.00802 18.2992 7.3514 18.157 7.60457 17.9038C7.85774 17.6506 7.99998 17.3073 7.99998 16.9492Z" fill="#0A0D14" style="fill:#0A0D14;fill:color(display-p3 0.0392 0.0510 0.0784);fill-opacity:1;"/>
</svg>
