<svg width="25" height="24" viewBox="0 0 25 24" fill="none" xmlns="http://www.w3.org/2000/svg">
<path d="M17 8.39922H19.7L22.4 12.0496V17.3992H20.5685C20.4615 18.1501 20.0872 18.8371 19.5143 19.3342C18.9414 19.8312 18.2084 20.1049 17.45 20.1049C16.6915 20.1049 15.9585 19.8312 15.3857 19.3342C14.8128 18.8371 14.4385 18.1501 14.3315 17.3992H9.76848C9.66148 18.1501 9.28717 18.8371 8.71429 19.3342C8.1414 19.8312 7.40842 20.1049 6.64998 20.1049C5.89153 20.1049 5.15855 19.8312 4.58566 19.3342C4.01278 18.8371 3.63847 18.1501 3.53148 17.3992H2.59998V6.59922C2.59998 6.36052 2.6948 6.13161 2.86358 5.96282C3.03236 5.79404 3.26128 5.69922 3.49998 5.69922H16.1C16.3387 5.69922 16.5676 5.79404 16.7364 5.96282C16.9052 6.13161 17 6.36052 17 6.59922V8.39922ZM17 10.1992V12.8992H20.6V12.6427L18.7928 10.1992H17Z" fill="#0A0D14" style="fill:#0A0D14;fill:color(display-p3 0.0392 0.0510 0.0784);fill-opacity:1;"/>
</svg>
