<svg width="25" height="24" viewBox="0 0 25 24" fill="none" xmlns="http://www.w3.org/2000/svg">
<path d="M7.34302 8.067C8.50124 7.81706 9.53889 7.1779 10.2832 6.25594C11.0275 5.33399 11.4334 4.18489 11.4335 3H14.1605V7.6368H17.4338V10.9092H14.1614V15.8178C14.1614 16.2813 14.3387 16.9041 14.9795 17.3181C15.4061 17.5944 16.3151 17.7303 17.7065 17.7276V21H13.8887C13.3515 21.0001 12.8195 20.8944 12.3231 20.6889C11.8267 20.4834 11.3756 20.1821 10.9957 19.8022C10.6158 19.4224 10.3144 18.9714 10.1088 18.4751C9.90315 17.9787 9.79732 17.4467 9.79732 16.9095V10.9092H7.34302V8.067Z" fill="#0A0D14" style="fill:#0A0D14;fill:color(display-p3 0.0392 0.0510 0.0784);fill-opacity:1;"/>
</svg>
