<svg width="25" height="24" viewBox="0 0 25 24" fill="none" xmlns="http://www.w3.org/2000/svg">
<path d="M15.5726 5.69953H20.6072C21.1004 5.69953 21.5 6.10003 21.5 6.59953V19.1995C21.5 19.6963 21.0905 20.0995 20.6072 20.0995H4.3928C4.27502 20.0993 4.15844 20.0758 4.04975 20.0304C3.94107 19.985 3.84242 19.9186 3.75947 19.835C3.67652 19.7513 3.6109 19.6522 3.56637 19.5431C3.52184 19.4341 3.49929 19.3173 3.5 19.1995V6.59953C3.5 6.10273 3.9095 5.69953 4.3928 5.69953H9.4274L7.145 3.41713L8.4176 2.14453L11.9726 5.69953H13.0274L16.5824 2.14453L17.855 3.41713L15.5726 5.69953ZM5.3 7.49953V18.2995H19.7V7.49953H5.3Z" fill="#0A0D14" style="fill:#0A0D14;fill:color(display-p3 0.0392 0.0510 0.0784);fill-opacity:1;"/>
</svg>
