<svg width="25" height="24" viewBox="0 0 25 24" fill="none" xmlns="http://www.w3.org/2000/svg">
<path d="M21.6458 6.29024C20.9587 6.59416 20.2301 6.79376 19.484 6.88244C20.2704 6.41213 20.859 5.67195 21.14 4.79984C20.402 5.23904 19.5929 5.54684 18.7496 5.71334C18.1832 5.10726 17.4324 4.7053 16.6139 4.56996C15.7954 4.43462 14.9552 4.57348 14.2238 4.96494C13.4924 5.35641 12.9108 5.97855 12.5695 6.73465C12.2281 7.49075 12.1461 8.33844 12.3362 9.14594C10.8396 9.07092 9.37555 8.68201 8.03901 8.00443C6.70247 7.32686 5.52336 6.37578 4.57825 5.21294C4.24371 5.78754 4.06791 6.44074 4.06885 7.10564C4.06885 8.41064 4.73305 9.56354 5.74285 10.2385C5.14526 10.2197 4.56082 10.0583 4.03825 9.76784V9.81464C4.03843 10.6838 4.33918 11.5261 4.88951 12.1988C5.43984 12.8715 6.20588 13.3332 7.05775 13.5055C6.503 13.6559 5.92132 13.678 5.35675 13.5703C5.59693 14.3184 6.06505 14.9727 6.69558 15.4415C7.32611 15.9104 8.08746 16.1703 8.87305 16.1848C8.09228 16.798 7.19831 17.2513 6.24224 17.5188C5.28617 17.7863 4.28676 17.8627 3.30115 17.7436C5.02168 18.8501 7.02453 19.4375 9.07015 19.4356C15.9938 19.4356 19.7801 13.6999 19.7801 8.72564C19.7801 8.56364 19.7756 8.39984 19.7684 8.23964C20.5054 7.70699 21.1415 7.04715 21.6467 6.29114L21.6458 6.29024Z" fill="#0A0D14" style="fill:#0A0D14;fill:color(display-p3 0.0392 0.0510 0.0784);fill-opacity:1;"/>
</svg>
