<svg width="25" height="24" viewBox="0 0 25 24" fill="none" xmlns="http://www.w3.org/2000/svg">
<path d="M15.4699 6.19569C14.7859 6.19557 14.1292 6.464 13.6411 6.9432C13.1529 7.4224 12.8724 8.07407 12.8599 8.75799L12.8347 10.1755C12.8333 10.2516 12.8157 10.3265 12.7832 10.3954C12.7508 10.4642 12.7041 10.5254 12.6463 10.575C12.5885 10.6245 12.5209 10.6613 12.4479 10.6829C12.3749 10.7045 12.2982 10.7104 12.2227 10.7002L10.8178 10.5094C8.96924 10.2574 7.19804 9.40599 5.49884 7.99029C4.96064 10.9693 6.01184 13.033 8.54354 14.6251L10.1158 15.6133C10.1906 15.6602 10.2526 15.7248 10.2966 15.8013C10.3406 15.8777 10.3652 15.9638 10.3682 16.052C10.3712 16.1402 10.3526 16.2278 10.3139 16.3071C10.2753 16.3864 10.2178 16.455 10.1464 16.507L8.71364 17.5537C9.56594 17.6068 10.375 17.569 11.0464 17.4358C15.2926 16.588 18.1159 13.393 18.1159 8.12259C18.1159 7.69239 17.2051 6.19569 15.4699 6.19569ZM11.0599 8.72469C11.0757 7.85713 11.3469 7.01349 11.8398 6.29939C12.3328 5.58529 13.0254 5.03246 13.831 4.71012C14.6366 4.38778 15.5194 4.31026 16.3688 4.48726C17.2183 4.66426 17.9966 5.08792 18.6064 5.70519C19.2463 5.70069 19.7908 5.86269 21.0085 5.12469C20.707 6.60069 20.5585 7.24149 19.9159 8.12259C19.9159 15.0004 15.6886 18.3448 11.3992 19.2007C8.45804 19.7875 4.18124 18.8236 2.95544 17.5438C3.58004 17.4952 6.11804 17.2225 7.58504 16.1488C6.34394 15.3307 1.40384 12.4237 4.65014 4.60809C6.17384 6.38739 7.71914 7.59879 9.28514 8.24139C10.3273 8.66889 10.5829 8.65989 11.0608 8.72559L11.0599 8.72469Z" fill="#0A0D14" style="fill:#0A0D14;fill:color(display-p3 0.0392 0.0510 0.0784);fill-opacity:1;"/>
</svg>
