<svg width="25" height="24" viewBox="0 0 25 24" fill="none" xmlns="http://www.w3.org/2000/svg">
<path d="M17.5886 2.73047L15.0848 5.01017C16.2503 5.36224 17.3231 5.96874 18.2258 6.78587C21.3866 9.66587 21.3866 14.3351 18.2258 17.2151C15.893 19.3391 12.2876 20.6909 7.41138 21.2705L9.91518 18.9908C8.74963 18.6387 7.67681 18.0322 6.77418 17.2151C3.61338 14.3351 3.59448 9.68297 6.77418 6.78587C9.10698 4.66187 12.7133 3.31007 17.5895 2.73047H17.5886ZM12.5 8.40047C10.2635 8.40047 8.44998 10.0115 8.44998 12.0005C8.44998 13.9895 10.2635 15.6005 12.5 15.6005C14.7365 15.6005 16.55 13.9895 16.55 12.0005C16.55 10.0115 14.7365 8.40047 12.5 8.40047Z" fill="#0A0D14" style="fill:#0A0D14;fill:color(display-p3 0.0392 0.0510 0.0784);fill-opacity:1;"/>
</svg>
