<svg width="25" height="24" viewBox="0 0 25 24" fill="none" xmlns="http://www.w3.org/2000/svg">
<path d="M17.5886 2.73047L15.0848 5.01017C16.2503 5.36224 17.3231 5.96874 18.2258 6.78587C21.3866 9.66587 21.3866 14.3351 18.2258 17.2151C15.893 19.3391 12.2876 20.6909 7.41138 21.2705L9.91518 18.9908C8.74963 18.6387 7.67681 18.0322 6.77418 17.2151C3.61338 14.3351 3.59448 9.68297 6.77418 6.78587C9.10698 4.66187 12.7133 3.31007 17.5895 2.73047H17.5886ZM12.5 6.60047C9.02058 6.60047 6.19998 9.01787 6.19998 12.0005C6.19998 14.9831 9.02058 17.4005 12.5 17.4005C15.9794 17.4005 18.8 14.9831 18.8 12.0005C18.8 9.01787 15.9794 6.60047 12.5 6.60047ZM12.5 8.67047C14.489 8.67047 16.1 10.1618 16.1 12.0005C16.1 13.8392 14.489 15.3305 12.5 15.3305C10.511 15.3305 8.89998 13.8392 8.89998 12.0005C8.89998 10.1618 10.511 8.67047 12.5 8.67047ZM12.5 10.4705C11.4758 10.4705 10.7 11.1878 10.7 12.0005C10.7 12.8132 11.4758 13.5305 12.5 13.5305C13.5242 13.5305 14.3 12.8132 14.3 12.0005C14.3 11.1878 13.5242 10.4705 12.5 10.4705Z" fill="#0A0D14" style="fill:#0A0D14;fill:color(display-p3 0.0392 0.0510 0.0784);fill-opacity:1;"/>
</svg>
