<svg width="25" height="24" viewBox="0 0 25 24" fill="none" xmlns="http://www.w3.org/2000/svg">
<path d="M5.30002 12H19.7C19.9387 12 20.1676 12.0948 20.3364 12.2636C20.5052 12.4324 20.6 12.6613 20.6 12.9V20.1C20.6 20.3387 20.5052 20.5676 20.3364 20.7364C20.1676 20.9052 19.9387 21 19.7 21H5.30002C5.06133 21 4.83241 20.9052 4.66363 20.7364C4.49485 20.5676 4.40002 20.3387 4.40002 20.1V12.9C4.40002 12.6613 4.49485 12.4324 4.66363 12.2636C4.83241 12.0948 5.06133 12 5.30002 12ZM6.20002 3H18.8V10.2H6.20002V3ZM9.80002 5.7V7.5H11.6V5.7H9.80002ZM13.4 5.7V7.5H15.2V5.7H13.4Z" fill="#0A0D14" style="fill:#0A0D14;fill:color(display-p3 0.0392 0.0510 0.0784);fill-opacity:1;"/>
</svg>
