<svg width="25" height="24" viewBox="0 0 25 24" fill="none" xmlns="http://www.w3.org/2000/svg">
<path d="M18.8 12H6.20002V19.2H18.8V12ZM6.20002 10.2V3H18.8V10.2H19.7C19.9387 10.2 20.1676 10.2948 20.3364 10.4636C20.5052 10.6324 20.6 10.8613 20.6 11.1V20.1C20.6 20.3387 20.5052 20.5676 20.3364 20.7364C20.1676 20.9052 19.9387 21 19.7 21H5.30002C5.06133 21 4.83241 20.9052 4.66363 20.7364C4.49485 20.5676 4.40002 20.3387 4.40002 20.1V11.1C4.40002 10.8613 4.49485 10.6324 4.66363 10.4636C4.83241 10.2948 5.06133 10.2 5.30002 10.2H6.20002ZM8.00002 10.2H17V4.8H8.00002V10.2ZM9.80002 6.6H11.6V8.4H9.80002V6.6ZM13.4 6.6H15.2V8.4H13.4V6.6Z" fill="#0A0D14" style="fill:#0A0D14;fill:color(display-p3 0.0392 0.0510 0.0784);fill-opacity:1;"/>
</svg>
