<svg width="25" height="24" viewBox="0 0 25 24" fill="none" xmlns="http://www.w3.org/2000/svg">
<path d="M9.50028 18.5467L10.4057 16.9789C11.174 17.3022 12.0067 17.4434 12.8386 17.3913C13.6706 17.3392 14.4792 17.0952 15.2011 16.6784C15.923 16.2617 16.5387 15.6835 16.9999 14.9891C17.4611 14.2947 17.7553 13.503 17.8595 12.676H19.6703C19.5734 13.707 19.2544 14.7049 18.7352 15.601C18.3829 16.2125 17.9426 16.769 17.4284 17.2525C17.1338 17.1626 16.8239 17.1344 16.5179 17.1696C16.212 17.2047 15.9165 17.3025 15.65 17.4568C15.3834 17.6103 15.1512 17.8171 14.9679 18.0642C14.7845 18.3113 14.654 18.5935 14.5844 18.8932C12.904 19.4033 11.095 19.28 9.49938 18.5467H9.50028ZM8.33028 17.8717C6.89827 16.8562 5.88782 15.3514 5.48988 13.6417C5.92638 13.2313 6.19998 12.649 6.19998 12.001C6.19998 11.353 5.92638 10.7689 5.48808 10.3585C5.64963 9.67142 5.91133 9.01187 6.26478 8.40096C6.78125 7.50356 7.48589 6.72861 8.33028 6.12936L9.23568 7.69717C8.57148 8.20087 8.0329 8.85149 7.6621 9.59807C7.2913 10.3446 7.09835 11.1669 7.09835 12.0005C7.09835 12.8341 7.2913 13.6564 7.6621 14.403C8.0329 15.1495 8.57148 15.8002 9.23568 16.3039L8.33118 17.8717H8.33028ZM9.50028 5.45527C11.0957 4.72405 12.9032 4.60021 14.5835 5.10697C14.7203 5.69197 15.0893 6.22117 15.65 6.54517C16.2107 6.86917 16.8533 6.92316 17.4284 6.74946C18.7078 7.95113 19.5047 9.57845 19.6694 11.326H17.8577C17.7541 10.4989 17.4603 9.70718 16.9991 9.01289C16.538 8.3186 15.9221 7.74069 15.2 7.32456C14.4785 6.9071 13.6701 6.66261 12.8383 6.6103C12.0064 6.55798 11.1737 6.69927 10.4057 7.02306L9.50028 5.45527ZM16.1 5.76576C15.9452 5.67777 15.8094 5.56003 15.7003 5.41932C15.5912 5.27861 15.511 5.11772 15.4644 4.9459C15.4177 4.77408 15.4055 4.59473 15.4285 4.41818C15.4514 4.24163 15.5091 4.07136 15.5981 3.91717C15.6871 3.76299 15.8058 3.62794 15.9472 3.51979C16.0886 3.41164 16.25 3.33254 16.4222 3.28703C16.5943 3.24152 16.7737 3.23051 16.9501 3.25463C17.1265 3.27875 17.2964 3.33752 17.45 3.42757C17.7575 3.60786 17.9813 3.90248 18.0724 4.24713C18.1635 4.59177 18.1146 4.95847 17.9363 5.2672C17.7581 5.57593 17.465 5.80162 17.1209 5.89503C16.7769 5.98843 16.4099 5.94196 16.1 5.76576ZM5.29998 12.001C5.29998 12.359 5.15774 12.7024 4.90457 12.9556C4.6514 13.2087 4.30802 13.351 3.94998 13.351C3.59193 13.351 3.24856 13.2087 2.99538 12.9556C2.74221 12.7024 2.59998 12.359 2.59998 12.001C2.59998 11.6429 2.74221 11.2995 2.99538 11.0464C3.24856 10.7932 3.59193 10.651 3.94998 10.651C4.30802 10.651 4.6514 10.7932 4.90457 11.0464C5.15774 11.2995 5.29998 11.6429 5.29998 12.001ZM16.1 18.2362C16.2536 18.1461 16.4234 18.0874 16.5998 18.0632C16.7762 18.0391 16.9557 18.0501 17.1278 18.0956C17.2999 18.1411 17.4613 18.2202 17.6028 18.3284C17.7442 18.4365 17.8628 18.5716 17.9519 18.7258C18.0409 18.88 18.0985 19.0502 18.1215 19.2268C18.1444 19.4033 18.1322 19.5827 18.0856 19.7545C18.0389 19.9263 17.9587 20.0872 17.8497 20.2279C17.7406 20.3686 17.6047 20.4864 17.45 20.5744C17.1401 20.7506 16.7731 20.797 16.429 20.7036C16.085 20.6102 15.7919 20.3845 15.6136 20.0758C15.4354 19.7671 15.3865 19.4004 15.4776 19.0557C15.5687 18.7111 15.7924 18.4165 16.1 18.2362Z" fill="#0A0D14" style="fill:#0A0D14;fill:color(display-p3 0.0392 0.0510 0.0784);fill-opacity:1;"/>
</svg>
