<svg width="25" height="24" viewBox="0 0 25 24" fill="none" xmlns="http://www.w3.org/2000/svg">
<path d="M21.5 12C21.5 16.9698 17.4707 21 12.5 21C7.5293 21 3.5 16.9698 3.5 12C3.5 7.0293 7.5293 3 12.5 3C17.4707 3 21.5 7.0293 21.5 12ZM6.38 10.7976C6.06134 10.7976 5.75574 10.9242 5.53041 11.1495C5.30509 11.3748 5.1785 11.6804 5.1785 11.9991C5.1785 12.3178 5.30509 12.6234 5.53041 12.8487C5.75574 13.074 6.06134 13.2006 6.38 13.2006C6.69866 13.2006 7.00426 13.074 7.22959 12.8487C7.45491 12.6234 7.5815 12.3178 7.5815 11.9991C7.5815 11.6804 7.45491 11.3748 7.22959 11.1495C7.00426 10.9242 6.69866 10.7976 6.38 10.7976ZM14.9597 16.2597C14.82 16.3369 14.6971 16.4411 14.5982 16.5663C14.4993 16.6915 14.4263 16.8352 14.3835 16.989C14.3408 17.1427 14.3291 17.3035 14.3492 17.4618C14.3693 17.6201 14.4208 17.7728 14.5006 17.911C14.5804 18.0492 14.6869 18.1701 14.814 18.2666C14.9411 18.3632 15.0861 18.4334 15.2407 18.4732C15.3952 18.513 15.5561 18.5217 15.714 18.4986C15.8719 18.4755 16.0236 18.4211 16.1603 18.3387C16.4296 18.1763 16.6244 17.9147 16.7029 17.6102C16.7813 17.3057 16.7372 16.9825 16.5799 16.7102C16.4227 16.4379 16.1648 16.2381 15.8619 16.1539C15.5589 16.0696 15.235 16.1076 14.9597 16.2597ZM8.99 12C8.99 10.812 9.5804 9.7635 10.4831 9.129L9.6047 7.6566C8.53727 8.36888 7.76886 9.44863 7.4456 10.6905C7.64027 10.8487 7.79722 11.0484 7.90501 11.2749C8.01281 11.5014 8.06874 11.7491 8.06874 12C8.06874 12.2509 8.01281 12.4986 7.90501 12.7251C7.79722 12.9516 7.64027 13.1513 7.4456 13.3095C7.76863 14.5512 8.53671 15.631 9.6038 16.3434L10.4831 14.871C10.0217 14.5478 9.64506 14.1181 9.38514 13.6183C9.12521 13.1185 8.98967 12.5633 8.99 12ZM12.5 8.49C13.3769 8.49014 14.222 8.81851 14.8689 9.41049C15.5159 10.0025 15.9178 10.8152 15.9956 11.6886L17.7083 11.6634C17.6268 10.3821 17.0745 9.17622 16.1576 8.2776C15.9236 8.36659 15.6728 8.40233 15.4232 8.38221C15.1737 8.36209 14.9318 8.28663 14.7151 8.1613C14.4984 8.03597 14.3124 7.86393 14.1705 7.65769C14.0287 7.45145 13.9345 7.21618 13.895 6.969C12.6577 6.62853 11.3385 6.75341 10.187 7.32L11.0213 8.8167C11.4844 8.60109 11.9892 8.48957 12.5 8.49ZM12.5 15.51C11.9717 15.51 11.4713 15.393 11.0213 15.1833L10.187 16.6791C11.3372 17.2502 12.6581 17.3753 13.895 17.0301C13.9345 16.7829 14.0287 16.5477 14.1705 16.3414C14.3124 16.1352 14.4984 15.9631 14.7151 15.8378C14.9318 15.7125 15.1737 15.637 15.4232 15.6169C15.6728 15.5968 15.9236 15.6325 16.1576 15.7215C17.0745 14.8228 17.6268 13.6169 17.7083 12.3357L15.9956 12.3114C15.9182 13.185 15.5164 13.9979 14.8694 14.59C14.2223 15.182 13.377 15.5103 12.5 15.51ZM14.9588 7.7403C15.0955 7.82177 15.2471 7.87525 15.4047 7.89765C15.5623 7.92005 15.7227 7.91092 15.8767 7.87078C16.0308 7.83065 16.1753 7.76031 16.3019 7.66386C16.4285 7.5674 16.5347 7.44675 16.6143 7.30892C16.6939 7.17108 16.7453 7.0188 16.7655 6.86093C16.7858 6.70306 16.7744 6.54274 16.7322 6.38928C16.69 6.23582 16.6177 6.09228 16.5195 5.967C16.4213 5.84172 16.2992 5.7372 16.1603 5.6595C15.8847 5.50533 15.5594 5.46588 15.2549 5.54968C14.9504 5.63349 14.6912 5.83381 14.5333 6.1073C14.3753 6.3808 14.3315 6.70547 14.4111 7.01108C14.4907 7.31669 14.6875 7.57866 14.9588 7.7403Z" fill="#0A0D14" style="fill:#0A0D14;fill:color(display-p3 0.0392 0.0510 0.0784);fill-opacity:1;"/>
</svg>
