<svg width="25" height="24" viewBox="0 0 25 24" fill="none" xmlns="http://www.w3.org/2000/svg">
<path d="M13.4 3.04656C17.9477 3.49746 21.5 7.33506 21.5 12.0016V12.9016H13.4V18.3016C13.4 18.779 13.5896 19.2368 13.9272 19.5744C14.2648 19.9119 14.7226 20.1016 15.2 20.1016C15.6774 20.1016 16.1352 19.9119 16.4728 19.5744C16.8104 19.2368 17 18.779 17 18.3016V17.4016H18.8V18.3016C18.8 19.2563 18.4207 20.172 17.7456 20.8471C17.0705 21.5223 16.1548 21.9016 15.2 21.9016C14.2452 21.9016 13.3295 21.5223 12.6544 20.8471C11.9793 20.172 11.6 19.2563 11.6 18.3016V12.9016H3.5V12.0016C3.5 7.33506 7.0523 3.49746 11.6 3.04656V3.00156C11.6 2.76287 11.6948 2.53395 11.8636 2.36517C12.0324 2.19638 12.2613 2.10156 12.5 2.10156C12.7387 2.10156 12.9676 2.19638 13.1364 2.36517C13.3052 2.53395 13.4 2.76287 13.4 3.00156V3.04656ZM19.6442 11.1016C19.4246 9.36177 18.5776 7.76191 17.2623 6.60217C15.9469 5.44243 14.2536 4.80253 12.5 4.80253C10.7464 4.80253 9.05306 5.44243 7.73772 6.60217C6.42237 7.76191 5.57543 9.36177 5.3558 11.1016H19.6442Z" fill="#0A0D14" style="fill:#0A0D14;fill:color(display-p3 0.0392 0.0510 0.0784);fill-opacity:1;"/>
</svg>
