<svg width="25" height="24" viewBox="0 0 25 24" fill="none" xmlns="http://www.w3.org/2000/svg">
<path d="M8.89999 3.90039V12.0004C8.89999 12.9552 9.27927 13.8708 9.9544 14.546C10.6295 15.2211 11.5452 15.6004 12.5 15.6004C13.4548 15.6004 14.3704 15.2211 15.0456 14.546C15.7207 13.8708 16.1 12.9552 16.1 12.0004V3.90039H17.9V12.0004C17.9 13.4326 17.3311 14.8061 16.3184 15.8188C15.3057 16.8315 13.9322 17.4004 12.5 17.4004C11.0678 17.4004 9.69431 16.8315 8.68161 15.8188C7.66891 14.8061 7.09999 13.4326 7.09999 12.0004V3.90039H8.89999ZM5.29999 19.2004H19.7V21.0004H5.29999V19.2004Z" fill="#0A0D14" style="fill:#0A0D14;fill:color(display-p3 0.0392 0.0510 0.0784);fill-opacity:1;"/>
</svg>
