<svg width="25" height="24" viewBox="0 0 25 24" fill="none" xmlns="http://www.w3.org/2000/svg">
<path d="M19.2276 15.8787L18.1669 16.9395L15.516 14.2886L15.4607 14.3439L14.9304 16.9955L13.8697 18.0561L10.6878 14.8742L6.97545 18.5865L5.91479 17.5258L9.6271 13.8135L6.44512 10.6315L7.50579 9.57088L10.1574 9.04055L10.2127 8.98527L7.5603 6.33284L8.62095 5.27218L19.2276 15.8787ZM11.2734 10.0459L10.897 10.4224L8.78054 10.8456L13.6557 15.7207L14.0789 13.6043L14.4553 13.2279L11.2734 10.0459ZM17.5821 10.1012L16.5767 11.1066L17.6373 12.1672L18.6427 11.1618L19.173 11.6922L20.2337 10.6315L13.8697 4.26758L12.8091 5.32824L13.3394 5.85857L12.334 6.86394L13.3947 7.9246L14.4 6.91923L17.5821 10.1012Z" fill="#0A0D14" style="fill:#0A0D14;fill:color(display-p3 0.0392 0.0510 0.0784);fill-opacity:1;"/>
</svg>
