<svg width="25" height="24" viewBox="0 0 25 24" fill="none" xmlns="http://www.w3.org/2000/svg">
<path d="M8.00004 20.081C6.77068 19.9866 5.60258 19.5062 4.66253 18.7084C3.72247 17.9105 3.05853 16.8361 2.76551 15.6384C2.47249 14.4408 2.56536 13.1812 3.03087 12.0395C3.49639 10.8977 4.31073 9.9323 5.35764 9.28098C5.5804 7.54406 6.42846 5.94783 7.7431 4.79102C9.05775 3.63421 10.7489 2.99609 12.5 2.99609C14.2512 2.99609 15.9423 3.63421 17.257 4.79102C18.5716 5.94783 19.4197 7.54406 19.6424 9.28098C20.6893 9.9323 21.5037 10.8977 21.9692 12.0395C22.4347 13.1812 22.5276 14.4408 22.2346 15.6384C21.9415 16.8361 21.2776 17.9105 20.3375 18.7084C19.3975 19.5062 18.2294 19.9866 17 20.081V20.0981H8.00004V20.081ZM13.4 12.8981H16.1L12.5 8.39808L8.90004 12.8981H11.6V16.4981H13.4V12.8981Z" fill="#0A0D14" style="fill:#0A0D14;fill:color(display-p3 0.0392 0.0510 0.0784);fill-opacity:1;"/>
</svg>
