<svg width="25" height="24" viewBox="0 0 25 24" fill="none" xmlns="http://www.w3.org/2000/svg">
<path d="M12.5001 12.5274L16.3188 16.3452L15.0452 17.6187L13.4001 15.9735V21H11.6V15.9717L9.95485 17.6187L8.68135 16.3452L12.5001 12.5274ZM12.5001 3C14.0453 3.00007 15.5367 3.568 16.6906 4.59581C17.8445 5.62361 18.5805 7.03962 18.7587 8.5746C19.8785 8.87998 20.8554 9.56919 21.5186 10.5218C22.1819 11.4744 22.4893 12.6297 22.3871 13.786C22.2849 14.9422 21.7797 16.0257 20.9597 16.8472C20.1396 17.6687 19.057 18.1759 17.901 18.2802L17.9001 16.5C17.9015 15.0844 17.347 13.7249 16.356 12.7141C15.3649 11.7033 14.0166 11.1221 12.6013 11.0955C11.186 11.069 9.81685 11.5992 8.78862 12.5722C7.76039 13.5451 7.15531 14.8829 7.10365 16.2975L7.10005 16.5V18.2802C5.94396 18.1761 4.86122 17.669 4.04107 16.8476C3.22093 16.0261 2.71555 14.9426 2.61326 13.7863C2.51097 12.6301 2.81828 11.4747 3.48148 10.522C4.14468 9.56934 5.12159 8.88005 6.24145 8.5746C6.41939 7.03954 7.15532 5.62342 8.30927 4.59558C9.46323 3.56774 10.9547 2.99988 12.5001 3Z" fill="#0A0D14" style="fill:#0A0D14;fill:color(display-p3 0.0392 0.0510 0.0784);fill-opacity:1;"/>
</svg>
