<svg width="25" height="24" viewBox="0 0 25 24" fill="none" xmlns="http://www.w3.org/2000/svg">
<path d="M12.5 2.09961L15.2 6.59961H13.4V13.2425L16.1 11.8934L16.0991 11.0996H15.2V7.49961H18.8V11.0996H17.8991L17.9 13.0058L13.4 15.2558V16.6535C14.4494 17.0243 15.2 18.0242 15.2 19.1996C15.2 20.6909 13.9913 21.8996 12.5 21.8996C11.0087 21.8996 9.80001 20.6909 9.80001 19.1996C9.80001 18.1313 10.421 17.2079 11.321 16.7696L7.10001 13.7996L7.09911 11.7584C6.56181 11.447 6.20001 10.8656 6.20001 10.1996C6.20001 9.20511 7.00551 8.39961 8.00001 8.39961C8.99451 8.39961 9.80001 9.20511 9.80001 10.1996C9.80001 10.8656 9.43821 11.4479 8.90001 11.7584V12.8996L11.6 14.777V6.59961H9.80001L12.5 2.09961ZM12.5 18.2996C12.0032 18.2996 11.6 18.7028 11.6 19.1996C11.6 19.6964 12.0032 20.0996 12.5 20.0996C12.9968 20.0996 13.4 19.6964 13.4 19.1996C13.4 18.7028 12.9968 18.2996 12.5 18.2996Z" fill="#0A0D14" style="fill:#0A0D14;fill:color(display-p3 0.0392 0.0510 0.0784);fill-opacity:1;"/>
</svg>
