<svg width="25" height="24" viewBox="0 0 25 24" fill="none" xmlns="http://www.w3.org/2000/svg">
<path d="M12.5 13.8016V21.0016H5.29999C5.29999 19.092 6.05856 17.2607 7.40882 15.9104C8.75908 14.5601 10.5904 13.8016 12.5 13.8016ZM12.5 12.9016C9.51649 12.9016 7.09999 10.4851 7.09999 7.50156C7.09999 4.51806 9.51649 2.10156 12.5 2.10156C15.4835 2.10156 17.9 4.51806 17.9 7.50156C17.9 10.4851 15.4835 12.9016 12.5 12.9016ZM21.0014 19.2304L22.355 20.584L21.0824 21.8566L19.7288 20.503C18.974 20.948 18.0828 21.1025 17.2223 20.9375C16.3617 20.7724 15.5909 20.2992 15.0543 19.6065C14.5177 18.9138 14.2522 18.0491 14.3075 17.1747C14.3628 16.3002 14.7351 15.4759 15.3547 14.8563C15.9743 14.2367 16.7986 13.8644 17.6731 13.8091C18.5476 13.7538 19.4122 14.0193 20.1049 14.5559C20.7976 15.0925 21.2708 15.8633 21.4359 16.7238C21.6009 17.5844 21.4464 18.4756 21.0014 19.2304ZM17.9 19.2016C18.3774 19.2016 18.8352 19.0119 19.1728 18.6744C19.5103 18.3368 19.7 17.879 19.7 17.4016C19.7 16.9242 19.5103 16.4663 19.1728 16.1288C18.8352 15.7912 18.3774 15.6016 17.9 15.6016C17.4226 15.6016 16.9648 15.7912 16.6272 16.1288C16.2896 16.4663 16.1 16.9242 16.1 17.4016C16.1 17.879 16.2896 18.3368 16.6272 18.6744C16.9648 19.0119 17.4226 19.2016 17.9 19.2016Z" fill="#0A0D14" style="fill:#0A0D14;fill:color(display-p3 0.0392 0.0510 0.0784);fill-opacity:1;"/>
</svg>
