<svg width="25" height="24" viewBox="0 0 25 24" fill="none" xmlns="http://www.w3.org/2000/svg">
<path d="M12.5 13.8016V21.0016H5.30005C5.30005 19.092 6.05862 17.2607 7.40888 15.9104C8.75914 14.5601 10.5905 13.8016 12.5 13.8016ZM17.9 20.5516L15.2549 21.9421L15.7598 18.9973L13.6205 16.9111L16.5779 16.4809L17.9 13.8016L19.223 16.4809L22.1795 16.9111L20.0402 18.9973L20.5442 21.9421L17.9 20.5516ZM12.5 12.9016C9.51655 12.9016 7.10005 10.4851 7.10005 7.50156C7.10005 4.51806 9.51655 2.10156 12.5 2.10156C15.4835 2.10156 17.9 4.51806 17.9 7.50156C17.9 10.4851 15.4835 12.9016 12.5 12.9016Z" fill="#0A0D14" style="fill:#0A0D14;fill:color(display-p3 0.0392 0.0510 0.0784);fill-opacity:1;"/>
</svg>
