<svg width="25" height="24" viewBox="0 0 25 24" fill="none" xmlns="http://www.w3.org/2000/svg">
<path d="M14.3 14.0284V21.0016H5.3C5.29972 19.9026 5.55103 18.8181 6.03467 17.8312C6.51831 16.8444 7.22145 15.9813 8.0902 15.3082C8.95895 14.6351 9.97026 14.1698 11.0466 13.9479C12.123 13.7261 13.2359 13.7536 14.3 14.0284ZM12.5 12.9016C9.5165 12.9016 7.1 10.4851 7.1 7.50156C7.1 4.51806 9.5165 2.10156 12.5 2.10156C15.4835 2.10156 17.9 4.51806 17.9 7.50156C17.9 10.4851 15.4835 12.9016 12.5 12.9016ZM19.1762 16.5016H22.4036V18.3016H19.1762L20.8223 19.9468L19.5497 21.2203L15.731 17.4016L19.5497 13.5829L20.8223 14.8564L19.1762 16.5016Z" fill="#0A0D14" style="fill:#0A0D14;fill:color(display-p3 0.0392 0.0510 0.0784);fill-opacity:1;"/>
</svg>
