<svg width="25" height="24" viewBox="0 0 25 24" fill="none" xmlns="http://www.w3.org/2000/svg">
<path d="M12.5 16.5C15.7958 16.5 18.6785 17.9175 20.2463 20.0325L18.5885 20.8164C17.3123 19.3044 15.0623 18.3 12.5 18.3C9.93774 18.3 7.68774 19.3044 6.41154 20.8164L4.75464 20.0316C6.32244 17.9166 9.20424 16.5 12.5 16.5ZM12.5 3C13.6935 3 14.8381 3.47411 15.682 4.31802C16.5259 5.16193 17 6.30653 17 7.5V10.2C17 11.3596 16.5523 12.4744 15.7502 13.312C14.9482 14.1496 13.8539 14.6452 12.6953 14.6955L12.5 14.7C11.3066 14.7 10.162 14.2259 9.31806 13.382C8.47414 12.5381 8.00004 11.3935 8.00004 10.2V7.5C8.00011 6.34038 8.44783 5.22555 9.24983 4.388C10.0518 3.55045 11.1462 3.05483 12.3047 3.0045L12.5 3ZM12.5 4.8C11.8113 4.79996 11.1487 5.06309 10.6476 5.53556C10.1465 6.00802 9.84494 6.6541 9.80454 7.3416L9.80004 7.5V10.2C9.79936 10.9028 10.0728 11.5782 10.5621 12.0826C11.0515 12.5871 11.7183 12.8808 12.4208 12.9014C13.1233 12.9221 13.8062 12.6679 14.3243 12.1931C14.8424 11.7182 15.155 11.06 15.1955 10.3584L15.2 10.2V7.5C15.2 6.78392 14.9156 6.09716 14.4092 5.59081C13.9029 5.08446 13.2161 4.8 12.5 4.8Z" fill="#0A0D14" style="fill:#0A0D14;fill:color(display-p3 0.0392 0.0510 0.0784);fill-opacity:1;"/>
</svg>
