<svg width="25" height="24" viewBox="0 0 25 24" fill="none" xmlns="http://www.w3.org/2000/svg">
<path d="M19.7 21.0016H17.9V19.2016C17.9 18.4855 17.6155 17.7987 17.1092 17.2924C16.6028 16.786 15.9161 16.5016 15.2 16.5016H9.79999C9.0839 16.5016 8.39715 16.786 7.8908 17.2924C7.38445 17.7987 7.09999 18.4855 7.09999 19.2016V21.0016H5.29999V19.2016C5.29999 18.0081 5.77409 16.8635 6.61801 16.0196C7.46192 15.1757 8.60651 14.7016 9.79999 14.7016H15.2C16.3935 14.7016 17.5381 15.1757 18.382 16.0196C19.2259 16.8635 19.7 18.0081 19.7 19.2016V21.0016ZM12.5 12.9016C11.7908 12.9016 11.0887 12.7619 10.4335 12.4905C9.77834 12.2191 9.18305 11.8214 8.68161 11.3199C8.18017 10.8185 7.78241 10.2232 7.51104 9.56805C7.23966 8.91289 7.09999 8.2107 7.09999 7.50156C7.09999 6.79242 7.23966 6.09023 7.51104 5.43507C7.78241 4.77991 8.18017 4.18462 8.68161 3.68319C9.18305 3.18175 9.77834 2.78399 10.4335 2.51261C11.0887 2.24124 11.7908 2.10156 12.5 2.10156C13.9322 2.10156 15.3057 2.67049 16.3184 3.68319C17.3311 4.69588 17.9 6.06939 17.9 7.50156C17.9 8.93373 17.3311 10.3072 16.3184 11.3199C15.3057 12.3326 13.9322 12.9016 12.5 12.9016ZM12.5 11.1016C13.4548 11.1016 14.3704 10.7223 15.0456 10.0471C15.7207 9.37202 16.1 8.45634 16.1 7.50156C16.1 6.54678 15.7207 5.63111 15.0456 4.95598C14.3704 4.28085 13.4548 3.90156 12.5 3.90156C11.5452 3.90156 10.6295 4.28085 9.9544 4.95598C9.27927 5.63111 8.89999 6.54678 8.89999 7.50156C8.89999 8.45634 9.27927 9.37202 9.9544 10.0471C10.6295 10.7223 11.5452 11.1016 12.5 11.1016Z" fill="#0A0D14" style="fill:#0A0D14;fill:color(display-p3 0.0392 0.0510 0.0784);fill-opacity:1;"/>
</svg>
