<svg width="25" height="24" viewBox="0 0 25 24" fill="none" xmlns="http://www.w3.org/2000/svg">
<path d="M5.3 21.0016C5.3 19.092 6.05857 17.2607 7.40883 15.9104C8.7591 14.5601 10.5904 13.8016 12.5 13.8016C14.4096 13.8016 16.2409 14.5601 17.5912 15.9104C18.9414 17.2607 19.7 19.092 19.7 21.0016H17.9C17.9 19.5694 17.3311 18.1959 16.3184 17.1832C15.3057 16.1705 13.9322 15.6016 12.5 15.6016C11.0678 15.6016 9.69432 16.1705 8.68163 17.1832C7.66893 18.1959 7.1 19.5694 7.1 21.0016H5.3ZM12.5 12.9016C9.5165 12.9016 7.1 10.4851 7.1 7.50156C7.1 4.51806 9.5165 2.10156 12.5 2.10156C15.4835 2.10156 17.9 4.51806 17.9 7.50156C17.9 10.4851 15.4835 12.9016 12.5 12.9016ZM12.5 11.1016C14.489 11.1016 16.1 9.49056 16.1 7.50156C16.1 5.51256 14.489 3.90156 12.5 3.90156C10.511 3.90156 8.9 5.51256 8.9 7.50156C8.9 9.49056 10.511 11.1016 12.5 11.1016Z" fill="#0A0D14" style="fill:#0A0D14;fill:color(display-p3 0.0392 0.0510 0.0784);fill-opacity:1;"/>
</svg>
