<svg width="25" height="24" viewBox="0 0 25 24" fill="none" xmlns="http://www.w3.org/2000/svg">
<path d="M12.5 13.8016V15.6016C11.0679 15.6016 9.69437 16.1705 8.68167 17.1832C7.66898 18.1959 7.10005 19.5694 7.10005 21.0016H5.30005C5.30005 19.092 6.05862 17.2607 7.40888 15.9104C8.75914 14.5601 10.5905 13.8016 12.5 13.8016ZM12.5 12.9016C9.51655 12.9016 7.10005 10.4851 7.10005 7.50156C7.10005 4.51806 9.51655 2.10156 12.5 2.10156C15.4835 2.10156 17.9 4.51806 17.9 7.50156C17.9 10.4851 15.4835 12.9016 12.5 12.9016ZM12.5 11.1016C14.489 11.1016 16.1 9.49056 16.1 7.50156C16.1 5.51256 14.489 3.90156 12.5 3.90156C10.511 3.90156 8.90005 5.51256 8.90005 7.50156C8.90005 9.49056 10.511 11.1016 12.5 11.1016ZM14.8355 18.1324C14.7214 17.6522 14.7214 17.1519 14.8355 16.6717L13.9427 16.156L14.8427 14.5972L15.7355 15.1129C16.0939 14.7735 16.5271 14.5231 17 14.3821V13.3516H18.8V14.3821C19.2788 14.5243 19.7108 14.7781 20.0645 15.1129L20.9573 14.5972L21.8573 16.156L20.9645 16.6717C21.0785 17.1516 21.0785 17.6515 20.9645 18.1315L21.8573 18.6472L20.9573 20.206L20.0645 19.6903C19.7062 20.0297 19.273 20.28 18.8 20.4211V21.4516H17V20.4211C16.5271 20.28 16.0939 20.0297 15.7355 19.6903L14.8427 20.206L13.9427 18.6472L14.8355 18.1324ZM17.9 18.7516C18.2581 18.7516 18.6015 18.6093 18.8546 18.3562C19.1078 18.103 19.25 17.7596 19.25 17.4016C19.25 17.0435 19.1078 16.7001 18.8546 16.447C18.6015 16.1938 18.2581 16.0516 17.9 16.0516C17.542 16.0516 17.1986 16.1938 16.9455 16.447C16.6923 16.7001 16.55 17.0435 16.55 17.4016C16.55 17.7596 16.6923 18.103 16.9455 18.3562C17.1986 18.6093 17.542 18.7516 17.9 18.7516Z" fill="#0A0D14" style="fill:#0A0D14;fill:color(display-p3 0.0392 0.0510 0.0784);fill-opacity:1;"/>
</svg>
