<svg width="25" height="24" viewBox="0 0 25 24" fill="none" xmlns="http://www.w3.org/2000/svg">
<path d="M13.4 13.8574V21.0016H5.30005C5.29995 19.98 5.51725 18.9701 5.93749 18.039C6.35773 17.1079 6.97131 16.2768 7.73744 15.6011C8.50358 14.9254 9.40475 14.4204 10.3811 14.1198C11.3574 13.8191 12.3865 13.7297 13.4 13.8574ZM12.5 12.9016C9.51655 12.9016 7.10005 10.4851 7.10005 7.50156C7.10005 4.51806 9.51655 2.10156 12.5 2.10156C15.4835 2.10156 17.9 4.51806 17.9 7.50156C17.9 10.4851 15.4835 12.9016 12.5 12.9016ZM17.7137 19.1242L20.8952 15.9427L22.1687 17.2153L17.7137 21.6703L14.5313 18.4879L15.8048 17.2153L17.7128 19.1242H17.7137Z" fill="#0A0D14" style="fill:#0A0D14;fill:color(display-p3 0.0392 0.0510 0.0784);fill-opacity:1;"/>
</svg>
