<svg width="25" height="24" viewBox="0 0 25 24" fill="none" xmlns="http://www.w3.org/2000/svg">
<path d="M8.35096 16.0841C7.10128 15.2028 6.16464 13.9465 5.67674 12.4973C5.18883 11.048 5.17501 9.48106 5.63728 8.02344C6.09955 6.56582 7.01389 5.29322 8.24784 4.39004C9.48179 3.48686 10.9712 3 12.5004 3C14.0296 3 15.519 3.48686 16.753 4.39004C17.9869 5.29322 18.9013 6.56582 19.3635 8.02344C19.8258 9.48106 19.812 11.048 19.3241 12.4973C18.8362 13.9465 17.8995 15.2028 16.6499 16.0841L18.5246 20.368C18.5547 20.4366 18.5672 20.5116 18.561 20.5863C18.5548 20.6609 18.53 20.7328 18.489 20.7955C18.448 20.8581 18.392 20.9095 18.326 20.9451C18.2601 20.9806 18.1864 20.9991 18.1115 20.999H6.88846C6.81369 20.9991 6.74006 20.9805 6.67424 20.9451C6.60842 20.9096 6.55249 20.8582 6.51148 20.7957C6.47048 20.7332 6.44571 20.6614 6.4394 20.5869C6.43309 20.5124 6.44545 20.4375 6.47537 20.3689L8.35006 16.0841H8.35096ZM14.4125 15.4604L15.6113 14.6135C16.5488 13.9527 17.2516 13.0105 17.6178 11.9236C17.984 10.8366 17.9946 9.66123 17.648 8.56784C17.3014 7.47445 16.6157 6.51982 15.6902 5.8423C14.7646 5.16477 13.6474 4.79954 12.5004 4.79954C11.3534 4.79954 10.2362 5.16477 9.31068 5.8423C8.38516 6.51982 7.69942 7.47445 7.35284 8.56784C7.00625 9.66123 7.01682 10.8366 7.38302 11.9236C7.74921 13.0105 8.45201 13.9527 9.38956 14.6135L10.5875 15.4604L8.95216 19.1989H16.0478L14.4125 15.4604ZM9.00707 11.072L10.7531 10.6355C10.85 11.0255 11.0746 11.3719 11.3912 11.6194C11.7078 11.867 12.0981 12.0015 12.5 12.0015C12.9018 12.0015 13.2922 11.867 13.6088 11.6194C13.9253 11.3719 14.15 11.0255 14.2469 10.6355L15.9929 11.072C15.7971 11.85 15.3471 12.5404 14.7144 13.0336C14.0816 13.5269 13.3023 13.7948 12.5 13.7948C11.6977 13.7948 10.9183 13.5269 10.2856 13.0336C9.65282 12.5404 9.20286 11.85 9.00707 11.072Z" fill="#0A0D14" style="fill:#0A0D14;fill:color(display-p3 0.0392 0.0510 0.0784);fill-opacity:1;"/>
</svg>
