<svg width="25" height="24" viewBox="0 0 25 24" fill="none" xmlns="http://www.w3.org/2000/svg">
<path d="M14.3 14.0284V21.0016H5.30005C5.29977 19.9026 5.55108 18.8181 6.03472 17.8312C6.51836 16.8444 7.22149 15.9813 8.09024 15.3082C8.959 14.6351 9.97031 14.1698 11.0467 13.9479C12.1231 13.7261 13.2359 13.7536 14.3 14.0284ZM12.5 12.9016C9.51655 12.9016 7.10005 10.4851 7.10005 7.50156C7.10005 4.51806 9.51655 2.10156 12.5 2.10156C15.4835 2.10156 17.9 4.51806 17.9 7.50156C17.9 10.4851 15.4835 12.9016 12.5 12.9016ZM18.8 16.129L20.709 14.2192L21.9824 15.4927L20.0726 17.4016L21.9824 19.3105L20.709 20.584L18.8 18.6742L16.8911 20.584L15.6176 19.3105L17.5274 17.4016L15.6176 15.4927L16.8911 14.2192L18.8 16.129Z" fill="#0A0D14" style="fill:#0A0D14;fill:color(display-p3 0.0392 0.0510 0.0784);fill-opacity:1;"/>
</svg>
