<svg width="25" height="24" viewBox="0 0 25 24" fill="none" xmlns="http://www.w3.org/2000/svg">
<path d="M6.19999 19.2H18.8V21H6.19999V19.2ZM12.5 17.4C10.5904 17.4 8.75908 16.6414 7.40882 15.2912C6.05856 13.9409 5.29999 12.1096 5.29999 10.2C5.29999 8.29044 6.05856 6.45909 7.40882 5.10883C8.75908 3.75857 10.5904 3 12.5 3C14.4095 3 16.2409 3.75857 17.5912 5.10883C18.9414 6.45909 19.7 8.29044 19.7 10.2C19.7 12.1096 18.9414 13.9409 17.5912 15.2912C16.2409 16.6414 14.4095 17.4 12.5 17.4ZM12.5 15.6C13.9322 15.6 15.3057 15.0311 16.3184 14.0184C17.3311 13.0057 17.9 11.6322 17.9 10.2C17.9 8.76783 17.3311 7.39432 16.3184 6.38162C15.3057 5.36893 13.9322 4.8 12.5 4.8C11.0678 4.8 9.69431 5.36893 8.68161 6.38162C7.66891 7.39432 7.09999 8.76783 7.09999 10.2C7.09999 11.6322 7.66891 13.0057 8.68161 14.0184C9.69431 15.0311 11.0678 15.6 12.5 15.6Z" fill="#0A0D14" style="fill:#0A0D14;fill:color(display-p3 0.0392 0.0510 0.0784);fill-opacity:1;"/>
</svg>
