<svg width="25" height="24" viewBox="0 0 25 24" fill="none" xmlns="http://www.w3.org/2000/svg">
<path d="M12.5 13.8016V21.0016H5.30005C5.30005 19.092 6.05862 17.2607 7.40888 15.9104C8.75914 14.5601 10.5905 13.8016 12.5 13.8016ZM12.5 12.9016C9.51655 12.9016 7.10005 10.4851 7.10005 7.50156C7.10005 4.51806 9.51655 2.10156 12.5 2.10156C15.4835 2.10156 17.9 4.51806 17.9 7.50156C17.9 10.4851 15.4835 12.9016 12.5 12.9016ZM14.8355 18.1324C14.7214 17.6522 14.7214 17.1519 14.8355 16.6717L13.9427 16.156L14.8427 14.5972L15.7355 15.1129C16.0939 14.7735 16.5271 14.5231 17 14.3821V13.3516H18.8V14.3821C19.2788 14.5243 19.7108 14.7781 20.0645 15.1129L20.9573 14.5972L21.8573 16.156L20.9645 16.6717C21.0785 17.1516 21.0785 17.6515 20.9645 18.1315L21.8573 18.6472L20.9573 20.206L20.0645 19.6903C19.7062 20.0297 19.273 20.28 18.8 20.4211V21.4516H17V20.4211C16.5271 20.28 16.0939 20.0297 15.7355 19.6903L14.8427 20.206L13.9427 18.6472L14.8355 18.1324ZM17.9 16.5016C17.6614 16.5016 17.4324 16.5964 17.2637 16.7652C17.0949 16.9339 17 17.1629 17 17.4016C17 17.6403 17.0949 17.8692 17.2637 18.038C17.4324 18.2067 17.6614 18.3016 17.9 18.3016C18.1387 18.3016 18.3677 18.2067 18.5364 18.038C18.7052 17.8692 18.8 17.6403 18.8 17.4016C18.8 17.1629 18.7052 16.9339 18.5364 16.7652C18.3677 16.5964 18.1387 16.5016 17.9 16.5016Z" fill="#0A0D14" style="fill:#0A0D14;fill:color(display-p3 0.0392 0.0510 0.0784);fill-opacity:1;"/>
</svg>
