<svg width="25" height="24" viewBox="0 0 25 24" fill="none" xmlns="http://www.w3.org/2000/svg">
<path d="M2.59998 21.0007C2.59998 19.0911 3.35855 17.2597 4.70881 15.9095C6.05907 14.5592 7.89042 13.8006 9.79998 13.8006C11.7095 13.8006 13.5409 14.5592 14.8911 15.9095C16.2414 17.2597 17 19.0911 17 21.0007H2.59998ZM9.79998 12.9007C6.81648 12.9007 4.39998 10.4842 4.39998 7.50065C4.39998 4.51715 6.81648 2.10065 9.79998 2.10065C12.7835 2.10065 15.2 4.51715 15.2 7.50065C15.2 10.4842 12.7835 12.9007 9.79998 12.9007ZM18.1214 4.06625C18.5709 5.15539 18.8015 6.3224 18.8 7.50065C18.8015 8.6789 18.5709 9.84591 18.1214 10.9351L16.6121 9.83705C16.8696 9.08504 17.0007 8.29554 17 7.50065C17.001 6.70581 16.8702 5.91631 16.613 5.16425L18.1214 4.06625ZM21.0932 1.90625C21.9556 3.64489 22.4029 5.55988 22.4 7.50065C22.4 9.51035 21.9293 11.4102 21.0932 13.095L19.6127 12.0187C20.2654 10.602 20.6022 9.06041 20.6 7.50065C20.6 5.88785 20.2463 4.35695 19.6127 2.98265L21.0932 1.90625Z" fill="#0A0D14" style="fill:#0A0D14;fill:color(display-p3 0.0392 0.0510 0.0784);fill-opacity:1;"/>
</svg>
