<svg width="25" height="24" viewBox="0 0 25 24" fill="none" xmlns="http://www.w3.org/2000/svg">
<path d="M14.3 14.0284V15.9094C13.4855 15.6214 12.6137 15.533 11.7579 15.6518C10.9021 15.7705 10.0873 16.0929 9.38194 16.5917C8.67655 17.0906 8.10116 17.7515 7.7041 18.5188C7.30703 19.2862 7.09988 20.1376 7.10005 21.0016L5.30005 21.0007C5.29977 19.9017 5.55108 18.8172 6.03472 17.8303C6.51836 16.8435 7.22149 15.9804 8.09024 15.3073C8.959 14.6342 9.97031 14.1689 11.0467 13.947C12.1231 13.7252 13.2359 13.7527 14.3 14.0275V14.0284ZM12.5 12.9016C9.51655 12.9016 7.10005 10.4851 7.10005 7.50156C7.10005 4.51806 9.51655 2.10156 12.5 2.10156C15.4835 2.10156 17.9 4.51806 17.9 7.50156C17.9 10.4851 15.4835 12.9016 12.5 12.9016ZM12.5 11.1016C14.489 11.1016 16.1 9.49056 16.1 7.50156C16.1 5.51256 14.489 3.90156 12.5 3.90156C10.511 3.90156 8.90005 5.51256 8.90005 7.50156C8.90005 9.49056 10.511 11.1016 12.5 11.1016ZM18.8 17.029L20.709 15.1192L21.9824 16.3927L20.0726 18.3016L21.9824 20.2105L20.709 21.484L18.8 19.5742L16.8911 21.484L15.6176 20.2105L17.5274 18.3016L15.6176 16.3927L16.8911 15.1192L18.8 17.029Z" fill="#0A0D14" style="fill:#0A0D14;fill:color(display-p3 0.0392 0.0510 0.0784);fill-opacity:1;"/>
</svg>
