<svg width="25" height="24" viewBox="0 0 25 24" fill="none" xmlns="http://www.w3.org/2000/svg">
<path d="M12.5 21C7.5293 21 3.5 16.9707 3.5 12C3.5 7.0293 7.5293 3 12.5 3C17.4707 3 21.5 7.0293 21.5 12C21.5 16.9707 17.4707 21 12.5 21ZM8 12C8 13.1935 8.47411 14.3381 9.31802 15.182C10.1619 16.0259 11.3065 16.5 12.5 16.5C13.6935 16.5 14.8381 16.0259 15.682 15.182C16.5259 14.3381 17 13.1935 17 12H15.2C15.2 12.7161 14.9155 13.4028 14.4092 13.9092C13.9028 14.4155 13.2161 14.7 12.5 14.7C11.7839 14.7 11.0972 14.4155 10.5908 13.9092C10.0845 13.4028 9.8 12.7161 9.8 12H8Z" fill="#0A0D14" style="fill:#0A0D14;fill:color(display-p3 0.0392 0.0510 0.0784);fill-opacity:1;"/>
</svg>
