<svg width="25" height="24" viewBox="0 0 25 24" fill="none" xmlns="http://www.w3.org/2000/svg">
<path d="M14.3 14.0284V15.9094C13.4854 15.6214 12.6137 15.533 11.7579 15.6518C10.9021 15.7705 10.0873 16.0929 9.38189 16.5917C8.6765 17.0906 8.10111 17.7515 7.70405 18.5188C7.30699 19.2862 7.09984 20.1376 7.1 21.0016L5.3 21.0007C5.29972 19.9017 5.55103 18.8172 6.03467 17.8303C6.51831 16.8435 7.22145 15.9804 8.0902 15.3073C8.95895 14.6342 9.97026 14.1689 11.0466 13.947C12.123 13.7252 13.2359 13.7527 14.3 14.0275V14.0284ZM12.5 12.9016C9.5165 12.9016 7.1 10.4851 7.1 7.50156C7.1 4.51806 9.5165 2.10156 12.5 2.10156C15.4835 2.10156 17.9 4.51806 17.9 7.50156C17.9 10.4851 15.4835 12.9016 12.5 12.9016ZM12.5 11.1016C14.489 11.1016 16.1 9.49056 16.1 7.50156C16.1 5.51256 14.489 3.90156 12.5 3.90156C10.511 3.90156 8.9 5.51256 8.9 7.50156C8.9 9.49056 10.511 11.1016 12.5 11.1016ZM19.1762 16.5016H22.4036V18.3016H19.1762L20.8223 19.9468L19.5497 21.2203L15.731 17.4016L19.5497 13.5829L20.8223 14.8564L19.1762 16.5016Z" fill="#0A0D14" style="fill:#0A0D14;fill:color(display-p3 0.0392 0.0510 0.0784);fill-opacity:1;"/>
</svg>
