<svg width="25" height="24" viewBox="0 0 25 24" fill="none" xmlns="http://www.w3.org/2000/svg">
<path d="M5.29999 21.0016C5.29999 19.092 6.05856 17.2607 7.40882 15.9104C8.75908 14.5601 10.5904 13.8016 12.5 13.8016C14.4095 13.8016 16.2409 14.5601 17.5912 15.9104C18.9414 17.2607 19.7 19.092 19.7 21.0016H5.29999ZM13.4 15.6763V19.2016H17.5931C17.2714 18.2938 16.7131 17.4885 15.9759 16.8687C15.2388 16.249 14.3495 15.8373 13.4 15.6763ZM11.6 19.2016V15.6763C10.6505 15.8373 9.76121 16.249 9.02405 16.8687C8.2869 17.4885 7.72861 18.2938 7.40689 19.2016H11.6ZM12.5 12.9016C9.51649 12.9016 7.09999 10.4851 7.09999 7.50156C7.09999 4.51806 9.51649 2.10156 12.5 2.10156C15.4835 2.10156 17.9 4.51806 17.9 7.50156C17.9 10.4851 15.4835 12.9016 12.5 12.9016ZM12.5 11.1016C14.489 11.1016 16.1 9.49056 16.1 7.50156C16.1 5.51256 14.489 3.90156 12.5 3.90156C10.511 3.90156 8.89999 5.51256 8.89999 7.50156C8.89999 9.49056 10.511 11.1016 12.5 11.1016Z" fill="#0A0D14" style="fill:#0A0D14;fill:color(display-p3 0.0392 0.0510 0.0784);fill-opacity:1;"/>
</svg>
