<svg width="25" height="24" viewBox="0 0 25 24" fill="none" xmlns="http://www.w3.org/2000/svg">
<path d="M12.5 16.5C15.7958 16.5 18.6785 17.9175 20.2463 20.0325L18.5885 20.8164C17.3123 19.3044 15.0623 18.3 12.5 18.3C9.93774 18.3 7.68774 19.3044 6.41154 20.8164L4.75464 20.0316C6.32244 17.9166 9.20424 16.5 12.5 16.5ZM12.5 3C13.6935 3 14.8381 3.47411 15.682 4.31802C16.5259 5.16193 17 6.30653 17 7.5V10.2C17 11.3935 16.5259 12.5381 15.682 13.382C14.8381 14.2259 13.6935 14.7 12.5 14.7C11.3066 14.7 10.162 14.2259 9.31806 13.382C8.47414 12.5381 8.00004 11.3935 8.00004 10.2V7.5C8.00004 6.30653 8.47414 5.16193 9.31806 4.31802C10.162 3.47411 11.3066 3 12.5 3Z" fill="#0A0D14" style="fill:#0A0D14;fill:color(display-p3 0.0392 0.0510 0.0784);fill-opacity:1;"/>
</svg>
