<svg width="25" height="24" viewBox="0 0 25 24" fill="none" xmlns="http://www.w3.org/2000/svg">
<path d="M14.3 14.0284V21.0016H5.29999C5.29971 19.9026 5.55102 18.8181 6.03466 17.8312C6.5183 16.8444 7.22143 15.9813 8.09018 15.3082C8.95894 14.6351 9.97025 14.1698 11.0466 13.9479C12.123 13.7261 13.2359 13.7536 14.3 14.0284ZM12.5 12.9016C9.51649 12.9016 7.09999 10.4851 7.09999 7.50156C7.09999 4.51806 9.51649 2.10156 12.5 2.10156C15.4835 2.10156 17.9 4.51806 17.9 7.50156C17.9 10.4851 15.4835 12.9016 12.5 12.9016ZM19.7 16.5016H22.4V18.3016H19.7V21.4516L15.2 17.4016L19.7 13.3516V16.5016Z" fill="#0A0D14" style="fill:#0A0D14;fill:color(display-p3 0.0392 0.0510 0.0784);fill-opacity:1;"/>
</svg>
