<svg width="25" height="24" viewBox="0 0 25 24" fill="none" xmlns="http://www.w3.org/2000/svg">
<path d="M12.5 12.75C14.9853 12.75 17 10.7353 17 8.25C17 5.76472 14.9853 3.75 12.5 3.75C10.0147 3.75 8 5.76472 8 8.25C8 10.7353 10.0147 12.75 12.5 12.75ZM14.75 16.5C14.75 15.2573 15.7573 14.25 17 14.25C17.3473 14.25 17.6763 14.3288 17.97 14.4693L14.9693 17.47C14.8288 17.1763 14.75 16.8473 14.75 16.5ZM16.03 18.5307L19.0307 15.53C19.1712 15.8237 19.25 16.1527 19.25 16.5C19.25 17.7427 18.2427 18.75 17 18.75C16.6527 18.75 16.3237 18.6712 16.03 18.5307ZM17 12.75C14.929 12.75 13.25 14.429 13.25 16.5C13.25 18.571 14.929 20.25 17 20.25C19.071 20.25 20.75 18.571 20.75 16.5C20.75 14.429 19.071 12.75 17 12.75ZM12.5 13.5C12.5632 13.5 12.6262 13.501 12.689 13.5029C12.0971 14.3527 11.75 15.3859 11.75 16.5C11.75 17.6154 12.0978 18.6496 12.691 19.5H6.5C6.5 16.1863 9.18629 13.5 12.5 13.5Z" fill="#0A0D14" style="fill:#0A0D14;fill:color(display-p3 0.0392 0.0510 0.0784);fill-opacity:1;"/>
</svg>
