<svg width="25" height="24" viewBox="0 0 25 24" fill="none" xmlns="http://www.w3.org/2000/svg">
<path d="M8.35096 16.0841C7.10128 15.2028 6.16464 13.9465 5.67674 12.4973C5.18883 11.048 5.17501 9.48106 5.63728 8.02344C6.09955 6.56582 7.01389 5.29322 8.24784 4.39004C9.48179 3.48686 10.9712 3 12.5004 3C14.0296 3 15.519 3.48686 16.753 4.39004C17.9869 5.29322 18.9013 6.56582 19.3635 8.02344C19.8258 9.48106 19.812 11.048 19.3241 12.4973C18.8362 13.9465 17.8995 15.2028 16.6499 16.0841L18.5246 20.368C18.5547 20.4366 18.5672 20.5116 18.561 20.5863C18.5548 20.6609 18.53 20.7328 18.489 20.7955C18.448 20.8581 18.392 20.9095 18.326 20.9451C18.2601 20.9806 18.1864 20.9991 18.1115 20.999H6.88846C6.81369 20.9991 6.74006 20.9805 6.67424 20.9451C6.60842 20.9096 6.55249 20.8582 6.51148 20.7957C6.47048 20.7332 6.44571 20.6614 6.4394 20.5869C6.43309 20.5124 6.44545 20.4375 6.47537 20.3689L8.35006 16.0841H8.35096ZM9.00707 11.072C9.20286 11.85 9.65282 12.5404 10.2856 13.0336C10.9183 13.5269 11.6977 13.7948 12.5 13.7948C13.3023 13.7948 14.0816 13.5269 14.7144 13.0336C15.3471 12.5404 15.7971 11.85 15.9929 11.072L14.2469 10.6355C14.15 11.0255 13.9253 11.3719 13.6088 11.6194C13.2922 11.867 12.9018 12.0015 12.5 12.0015C12.0981 12.0015 11.7078 11.867 11.3912 11.6194C11.0746 11.3719 10.85 11.0255 10.7531 10.6355L9.00707 11.072Z" fill="#0A0D14" style="fill:#0A0D14;fill:color(display-p3 0.0392 0.0510 0.0784);fill-opacity:1;"/>
</svg>
