<svg width="25" height="24" viewBox="0 0 25 24" fill="none" xmlns="http://www.w3.org/2000/svg">
<path d="M12.5 13.8016V21.0016H5.29999C5.29999 19.092 6.05856 17.2607 7.40882 15.9104C8.75908 14.5601 10.5904 13.8016 12.5 13.8016ZM12.5 12.9016C9.51649 12.9016 7.09999 10.4851 7.09999 7.50156C7.09999 4.51806 9.51649 2.10156 12.5 2.10156C15.4835 2.10156 17.9 4.51806 17.9 7.50156C17.9 10.4851 15.4835 12.9016 12.5 12.9016ZM20.4452 19.9468L17.9 22.4929L15.3548 19.9468C14.8512 19.4433 14.5082 18.8019 14.3692 18.1035C14.2302 17.4052 14.3015 16.6813 14.5739 16.0234C14.8464 15.3655 15.3078 14.8032 15.8998 14.4076C16.4919 14.012 17.1879 13.8008 17.9 13.8008C18.612 13.8008 19.3081 14.012 19.9002 14.4076C20.4922 14.8032 20.9536 15.3655 21.2261 16.0234C21.4985 16.6813 21.5697 17.4052 21.4307 18.1035C21.2917 18.8019 20.9488 19.4433 20.4452 19.9468ZM17.9 16.5016C17.6613 16.5016 17.4324 16.5964 17.2636 16.7652C17.0948 16.9339 17 17.1629 17 17.4016C17 17.6403 17.0948 17.8692 17.2636 18.038C17.4324 18.2067 17.6613 18.3016 17.9 18.3016C18.1387 18.3016 18.3676 18.2067 18.5364 18.038C18.7052 17.8692 18.8 17.6403 18.8 17.4016C18.8 17.1629 18.7052 16.9339 18.5364 16.7652C18.3676 16.5964 18.1387 16.5016 17.9 16.5016Z" fill="#0A0D14" style="fill:#0A0D14;fill:color(display-p3 0.0392 0.0510 0.0784);fill-opacity:1;"/>
</svg>
