<svg width="25" height="24" viewBox="0 0 25 24" fill="none" xmlns="http://www.w3.org/2000/svg">
<path d="M12.5 13.8016V15.6016C11.0678 15.6016 9.69431 16.1705 8.68161 17.1832C7.66891 18.1959 7.09999 19.5694 7.09999 21.0016H5.29999C5.29999 19.092 6.05856 17.2607 7.40882 15.9104C8.75908 14.5601 10.5904 13.8016 12.5 13.8016ZM12.5 12.9016C9.51649 12.9016 7.09999 10.4851 7.09999 7.50156C7.09999 4.51806 9.51649 2.10156 12.5 2.10156C15.4835 2.10156 17.9 4.51806 17.9 7.50156C17.9 10.4851 15.4835 12.9016 12.5 12.9016ZM12.5 11.1016C14.489 11.1016 16.1 9.49056 16.1 7.50156C16.1 5.51256 14.489 3.90156 12.5 3.90156C10.511 3.90156 8.89999 5.51256 8.89999 7.50156C8.89999 9.49056 10.511 11.1016 12.5 11.1016ZM20.4452 20.1655L17.9 22.8016L15.3548 20.1655C13.9481 18.7093 13.9481 16.3495 15.3548 14.8933C15.683 14.5484 16.0778 14.2739 16.5153 14.0863C16.9529 13.8987 17.4239 13.8019 17.9 13.8019C18.376 13.8019 18.8471 13.8987 19.2846 14.0863C19.7222 14.2739 20.117 14.5484 20.4452 14.8933C21.8519 16.3495 21.8519 18.7093 20.4452 20.1655ZM19.151 18.9145C19.8827 18.1567 19.8827 16.9021 19.151 16.1443C18.9907 15.973 18.797 15.8365 18.5818 15.7432C18.3666 15.6499 18.1345 15.6017 17.9 15.6017C17.6654 15.6017 17.4334 15.6499 17.2182 15.7432C17.003 15.8365 16.8093 15.973 16.649 16.1443C15.9173 16.9021 15.9173 18.1567 16.649 18.9154L17.9 20.2096L19.151 18.9136V18.9145Z" fill="#0A0D14" style="fill:#0A0D14;fill:color(display-p3 0.0392 0.0510 0.0784);fill-opacity:1;"/>
</svg>
