<svg width="25" height="24" viewBox="0 0 25 24" fill="none" xmlns="http://www.w3.org/2000/svg">
<path d="M17.7569 15.2947L17.9153 15.454L18.0755 15.2947C18.2636 15.1066 18.4868 14.9575 18.7325 14.8557C18.9782 14.7539 19.2415 14.7016 19.5074 14.7016C19.7734 14.7016 20.0367 14.7539 20.2824 14.8557C20.5281 14.9575 20.7513 15.1066 20.9393 15.2947C21.1274 15.4827 21.2766 15.7059 21.3783 15.9516C21.4801 16.1973 21.5325 16.4606 21.5325 16.7266C21.5325 16.9925 21.4801 17.2558 21.3783 17.5015C21.2766 17.7472 21.1274 17.9704 20.9393 18.1585L17.9153 21.1816L14.8931 18.1585C14.5134 17.7787 14.3 17.2636 14.3 16.7266C14.3 16.1895 14.5134 15.6744 14.8931 15.2947C15.2729 14.9149 15.788 14.7016 16.325 14.7016C16.8621 14.7016 17.3772 14.9149 17.7569 15.2947ZM12.5 13.8016V21.0016H5.30005C5.30007 19.131 6.02809 17.3338 7.32997 15.9906C8.63185 14.6474 10.4054 13.8636 12.275 13.8052L12.5 13.8016ZM12.5 2.10156C15.4835 2.10156 17.9 4.51806 17.9 7.50156C17.9 10.4851 15.4835 12.9016 12.5 12.9016C9.51655 12.9016 7.10005 10.4851 7.10005 7.50156C7.10005 4.51806 9.51655 2.10156 12.5 2.10156Z" fill="#0A0D14" style="fill:#0A0D14;fill:color(display-p3 0.0392 0.0510 0.0784);fill-opacity:1;"/>
</svg>
