<svg width="25" height="24" viewBox="0 0 25 24" fill="none" xmlns="http://www.w3.org/2000/svg">
<path d="M11.0052 4.57795C9.95408 4.23767 8.81136 4.71099 8.30867 5.69492L7.70433 6.87779C7.63253 7.01834 7.51822 7.13265 7.37767 7.20446L6.19479 7.80879C5.21087 8.31148 4.73754 9.4542 5.07783 10.5054L5.48692 11.7691C5.53553 11.9193 5.53553 12.081 5.48692 12.2311L5.07783 13.4949C4.73754 14.5461 5.21087 15.6888 6.19479 16.1915L7.37767 16.7958C7.51822 16.8676 7.63253 16.9819 7.70433 17.1225L8.30867 18.3054C8.81136 19.2893 9.95408 19.7626 11.0052 19.4223L12.269 19.0132C12.4191 18.9646 12.5808 18.9646 12.731 19.0132L13.9947 19.4223C15.0459 19.7626 16.1886 19.2893 16.6914 18.3054L17.2956 17.1225C17.3675 16.9819 17.4818 16.8676 17.6223 16.7958L18.8052 16.1915C19.7892 15.6888 20.2625 14.5461 19.9222 13.4949L19.5131 12.2311C19.4645 12.081 19.4645 11.9193 19.5131 11.7691L19.9222 10.5054C20.2625 9.4542 19.7892 8.31148 18.8052 7.80879L17.6223 7.20446C17.4818 7.13265 17.3675 7.01834 17.2956 6.87779L16.6914 5.69492C16.1886 4.71099 15.0459 4.23767 13.9947 4.57795L12.731 4.98704C12.5808 5.03564 12.4191 5.03565 12.269 4.98704L11.0052 4.57795ZM8.56983 11.8181L9.63049 10.7574L11.7518 12.8787L15.9945 8.63611L17.0551 9.69677L11.7518 15L8.56983 11.8181Z" fill="#0A0D14" style="fill:#0A0D14;fill:color(display-p3 0.0392 0.0510 0.0784);fill-opacity:1;"/>
</svg>
