<svg width="25" height="24" viewBox="0 0 25 24" fill="none" xmlns="http://www.w3.org/2000/svg">
<path d="M11.0052 4.57795C9.95408 4.23767 8.81136 4.71099 8.30867 5.69492L7.70433 6.87779C7.63253 7.01834 7.51822 7.13265 7.37767 7.20446L6.19479 7.80879C5.21087 8.31148 4.73754 9.4542 5.07783 10.5054L5.48692 11.7691C5.53552 11.9193 5.53552 12.081 5.48692 12.2311L5.07783 13.4949C4.73754 14.5461 5.21087 15.6888 6.19479 16.1915L7.37767 16.7958C7.51822 16.8676 7.63253 16.9819 7.70433 17.1225L8.30867 18.3054C8.81136 19.2893 9.95408 19.7626 11.0052 19.4223L12.269 19.0132C12.4191 18.9646 12.5808 18.9646 12.731 19.0132L13.9947 19.4223C15.0459 19.7626 16.1886 19.2893 16.6914 18.3054L17.2956 17.1225C17.3675 16.9819 17.4818 16.8676 17.6223 16.7958L18.8052 16.1915C19.7892 15.6888 20.2625 14.5461 19.9222 13.4949L19.5131 12.2311C19.4645 12.081 19.4645 11.9193 19.5131 11.7691L19.9222 10.5054C20.2625 9.4542 19.7892 8.31148 18.8052 7.80879L17.6223 7.20446C17.4818 7.13265 17.3675 7.01834 17.2956 6.87779L16.6914 5.69492C16.1886 4.71099 15.0459 4.23767 13.9947 4.57795L12.731 4.98704C12.5808 5.03564 12.4191 5.03565 12.269 4.98704L11.0052 4.57795ZM9.64443 6.37736C9.812 6.04939 10.1929 5.89161 10.5433 6.00504L11.8071 6.41413C12.2575 6.55995 12.7425 6.55995 13.1929 6.41413L14.4567 6.00504C14.8071 5.89161 15.188 6.04939 15.3555 6.37736L15.9599 7.56024C16.1753 7.98188 16.5183 8.32481 16.9399 8.54022L18.1227 9.14456C18.4507 9.31212 18.6085 9.69303 18.4951 10.0434L18.086 11.3072C17.9402 11.7576 17.9402 12.2426 18.086 12.693L18.4951 13.9569C18.6085 14.3072 18.4507 14.6881 18.1227 14.8557L16.9399 15.46C16.5183 15.6754 16.1753 16.0184 15.9599 16.44L15.3555 17.6229C15.188 17.9508 14.8071 18.1086 14.4567 17.9952L13.1929 17.5861C12.7425 17.4403 12.2575 17.4403 11.8071 17.5861L10.5433 17.9952C10.1929 18.1086 9.812 17.9508 9.64443 17.6229L9.0401 16.44C8.82468 16.0184 8.48175 15.6754 8.06012 15.46L6.87724 14.8557C6.54927 14.6881 6.39149 14.3072 6.50492 13.9569L6.91401 12.693C7.05983 12.2426 7.05983 11.7576 6.91401 11.3072L6.50492 10.0434C6.39149 9.69303 6.54927 9.31212 6.87724 9.14456L8.06012 8.54022C8.48175 8.32481 8.82468 7.98188 9.0401 7.56024L9.64443 6.37736ZM8.5697 11.8182L11.7516 15.0001L17.055 9.69685L15.9943 8.63619L11.7516 12.8788L9.63036 10.7574L8.5697 11.8182Z" fill="#0A0D14" style="fill:#0A0D14;fill:color(display-p3 0.0392 0.0510 0.0784);fill-opacity:1;"/>
</svg>
