<svg width="25" height="24" viewBox="0 0 25 24" fill="none" xmlns="http://www.w3.org/2000/svg">
<path d="M4.40002 4.79214C4.40002 4.29894 4.80052 3.89844 5.29372 3.89844H19.7063C20.1995 3.89844 20.6 4.29894 20.6 4.79214V19.2047C20.5998 19.4417 20.5056 19.6689 20.338 19.8364C20.1705 20.004 19.9433 20.0982 19.7063 20.0984H5.29372C5.05677 20.0982 4.8296 20.004 4.66205 19.8364C4.4945 19.6689 4.40026 19.4417 4.40002 19.2047V4.79214ZM6.20002 5.69844V18.2984H18.8V5.69844H6.20002ZM11.2598 8.77194L15.6509 11.6987C15.7003 11.7316 15.7408 11.7762 15.7688 11.8284C15.7968 11.8807 15.8115 11.9391 15.8115 11.9984C15.8115 12.0578 15.7968 12.1161 15.7688 12.1684C15.7408 12.2207 15.7003 12.2653 15.6509 12.2981L11.2589 15.2249C11.2048 15.2608 11.1419 15.2814 11.077 15.2845C11.0121 15.2875 10.9476 15.273 10.8903 15.2424C10.833 15.2117 10.7851 15.1662 10.7516 15.1105C10.7181 15.0548 10.7003 14.9911 10.7 14.9261V9.07074C10.7001 9.00562 10.7179 8.94176 10.7515 8.88595C10.785 8.83014 10.8331 8.78447 10.8905 8.75381C10.9479 8.72315 11.0126 8.70864 11.0777 8.71184C11.1427 8.71503 11.2057 8.7358 11.2598 8.77194Z" fill="#0A0D14" style="fill:#0A0D14;fill:color(display-p3 0.0392 0.0510 0.0784);fill-opacity:1;"/>
</svg>
