<svg width="25" height="24" viewBox="0 0 25 24" fill="none" xmlns="http://www.w3.org/2000/svg">
<path d="M16.1 4.80078C16.5968 4.80078 17 5.20398 17 5.70078V9.48078L21.6917 6.19578C21.8951 6.05358 22.1759 6.10308 22.319 6.30738C22.3712 6.38298 22.4 6.47298 22.4 6.56478V17.4368C22.4 17.6852 22.1984 17.8868 21.95 17.8868C21.8573 17.8868 21.7673 17.858 21.6917 17.8058L17 14.5208V18.3008C17 18.7976 16.5968 19.2008 16.1 19.2008H3.49998C3.00318 19.2008 2.59998 18.7976 2.59998 18.3008V5.70078C2.59998 5.20398 3.00318 4.80078 3.49998 4.80078H16.1ZM8.89998 8.40078V11.1008H6.19998V12.9008H8.89908L8.89998 15.6008H10.7L10.6991 12.9008H13.4V11.1008H10.7V8.40078H8.89998Z" fill="#0A0D14" style="fill:#0A0D14;fill:color(display-p3 0.0392 0.0510 0.0784);fill-opacity:1;"/>
</svg>
