<svg width="25" height="24" viewBox="0 0 25 24" fill="none" xmlns="http://www.w3.org/2000/svg">
<path d="M13.4 6.6V4.8H6.19998V3H15.2V6.6H16.1C16.3387 6.6 16.5676 6.69482 16.7364 6.8636C16.9052 7.03239 17 7.26131 17 7.5V9.48L21.6917 6.195C21.7591 6.14771 21.8383 6.11985 21.9205 6.11445C22.0027 6.10905 22.0848 6.12633 22.1579 6.1644C22.231 6.20246 22.2922 6.25985 22.3349 6.33032C22.3775 6.40078 22.4001 6.48161 22.4 6.564V17.436C22.4001 17.5184 22.3775 17.5992 22.3349 17.6697C22.2922 17.7401 22.231 17.7975 22.1579 17.8356C22.0848 17.8737 22.0027 17.8909 21.9205 17.8855C21.8383 17.8802 21.7591 17.8523 21.6917 17.805L17 14.52V18.3C17 18.5387 16.9052 18.7676 16.7364 18.9364C16.5676 19.1052 16.3387 19.2 16.1 19.2H3.49998C3.26128 19.2 3.03236 19.1052 2.86358 18.9364C2.6948 18.7676 2.59998 18.5387 2.59998 18.3V7.5C2.59998 7.26131 2.6948 7.03239 2.86358 6.8636C3.03236 6.69482 3.26128 6.6 3.49998 6.6H13.4ZM15.2 8.4H4.39998V17.4H15.2V8.4ZM17 12.3231L20.6 14.8431V9.156L17 11.676V12.3222V12.3231ZM6.19998 10.2H7.99998V12H6.19998V10.2Z" fill="#0A0D14" style="fill:#0A0D14;fill:color(display-p3 0.0392 0.0510 0.0784);fill-opacity:1;"/>
</svg>
