<svg width="25" height="24" viewBox="0 0 25 24" fill="none" xmlns="http://www.w3.org/2000/svg">
<path d="M17 9.48078L21.6917 6.19578C21.7591 6.14849 21.8383 6.12063 21.9205 6.11523C22.0027 6.10984 22.0848 6.12711 22.1579 6.16518C22.231 6.20324 22.2922 6.26063 22.3349 6.3311C22.3775 6.40156 22.4001 6.48239 22.4 6.56478V17.4368C22.4001 17.5192 22.3775 17.6 22.3349 17.6705C22.2922 17.7409 22.231 17.7983 22.1579 17.8364C22.0848 17.8745 22.0027 17.8917 21.9205 17.8863C21.8383 17.8809 21.7591 17.8531 21.6917 17.8058L17 14.5208V18.3008C17 18.5395 16.9052 18.7684 16.7364 18.9372C16.5676 19.106 16.3387 19.2008 16.1 19.2008H3.49998C3.26128 19.2008 3.03236 19.106 2.86358 18.9372C2.6948 18.7684 2.59998 18.5395 2.59998 18.3008V5.70078C2.59998 5.46209 2.6948 5.23317 2.86358 5.06439C3.03236 4.8956 3.26128 4.80078 3.49998 4.80078H16.1C16.3387 4.80078 16.5676 4.8956 16.7364 5.06439C16.9052 5.23317 17 5.46209 17 5.70078V9.48078ZM17 12.3239L20.6 14.8439V9.15678L17 11.6768V12.323V12.3239ZM4.39998 6.60078V17.4008H15.2V6.60078H4.39998ZM6.19998 8.40078H7.99998V10.2008H6.19998V8.40078Z" fill="#0A0D14" style="fill:#0A0D14;fill:color(display-p3 0.0392 0.0510 0.0784);fill-opacity:1;"/>
</svg>
