<svg width="25" height="24" viewBox="0 0 25 24" fill="none" xmlns="http://www.w3.org/2000/svg">
<path d="M17.8937 3.9043C20.0834 3.9043 21.4982 5.2651 21.4982 7.9507C21.4982 9.4987 20.6 11.4967 19.8494 12.6622C17.3393 16.5619 14.2397 20.5282 11.1707 20.5282C7.83529 20.5282 6.96769 14.3803 6.58789 12.9394C6.20809 11.4985 6.10819 10.9504 5.53489 10.0297C5.24959 10.2277 4.85089 10.5058 4.33789 10.8667C4.13629 11.008 3.85819 10.9612 3.71419 10.7614L2.53249 9.127C2.41009 8.9587 2.41999 8.7274 2.55679 8.569C5.10109 5.6242 7.21519 4.1509 8.89999 4.1509C11.0528 4.1509 11.7116 6.6853 11.8916 7.9516C12.1616 9.8569 12.5126 12.2158 13.0112 13.2364C13.5125 12.5236 14.9732 10.6372 14.7815 9.6454C14.6969 9.208 13.5962 9.8101 13.0832 9.7156C12.7007 9.6436 12.3578 9.3538 12.3578 8.7922C12.3578 7.6132 14.0246 3.9052 17.8937 3.9052V3.9043ZM17.9 5.7043C15.9245 5.7043 14.9741 7.084 14.6123 7.6915C15.7373 7.7329 16.3853 8.4277 16.532 9.3142C16.8821 11.4112 14.8076 13.7422 14.4269 14.3227C14.0705 14.8654 11.672 17.3179 10.6019 11.2987C10.5011 10.7326 10.2716 9.352 10.0034 7.5313C9.85039 6.4954 9.21769 5.9446 8.89639 5.9446C8.13859 5.9446 7.16839 6.5296 5.42689 8.2081C7.14139 8.1046 7.71739 10.2565 8.05129 11.4778C8.7857 14.1634 9.46519 18.7282 11.3093 18.7282C12.8636 18.7282 15.3044 16.3468 17.9423 12.3922C18.1304 12.1123 19.7117 9.6706 19.7117 7.8598C19.7117 5.7043 18.3896 5.7043 17.9 5.7043Z" fill="#0A0D14" style="fill:#0A0D14;fill:color(display-p3 0.0392 0.0510 0.0784);fill-opacity:1;"/>
</svg>
