<svg width="25" height="24" viewBox="0 0 25 24" fill="none" xmlns="http://www.w3.org/2000/svg">
<path d="M2.75571 8.67096C2.50281 8.29926 2.52891 8.29926 3.05091 7.84116C4.15971 6.86736 5.20551 5.80176 6.41331 4.95036C7.50681 4.18356 8.95671 3.68856 9.94761 4.90806C10.8602 6.03216 10.8818 7.73586 11.1131 9.09306C11.3444 10.5007 11.5658 11.9407 12.059 13.2871C12.1958 13.666 12.4577 14.3824 12.9302 14.4427C13.5404 14.5264 14.1614 13.4563 14.4449 13.0567C15.1802 11.9947 16.1774 10.5646 16.0514 9.19926C15.9272 7.74846 14.3612 8.02116 13.382 8.36766C13.5395 6.73956 15.0542 4.90896 16.514 4.29066C18.062 3.64806 20.3624 3.65886 21.14 5.40396C21.9707 7.29576 21.2237 9.49266 20.3192 11.2072C19.3319 13.0684 18.0611 14.791 16.703 16.4002C15.5051 17.8294 14.0876 19.3972 12.302 20.0803C10.2617 20.8579 9.05301 19.3423 8.35821 17.5873C7.59951 15.6766 7.22241 13.5319 6.67521 11.542C6.44481 10.7014 6.17121 9.74466 5.62491 9.05076C4.91211 8.15526 4.10211 8.99676 3.39831 9.48006C3.15621 9.23976 2.95641 8.93376 2.75571 8.67096Z" fill="#0A0D14" style="fill:#0A0D14;fill:color(display-p3 0.0392 0.0510 0.0784);fill-opacity:1;"/>
</svg>
