<svg width="25" height="24" viewBox="0 0 25 24" fill="none" xmlns="http://www.w3.org/2000/svg">
<path d="M6.08571 3.90039H18.9143C19.0563 3.90037 19.1963 3.93396 19.3229 3.9984C19.4494 4.06285 19.5589 4.15632 19.6424 4.27119L23.0831 9.00159C23.1443 9.08576 23.1744 9.18852 23.1683 9.29239C23.1622 9.39626 23.1204 9.49482 23.0498 9.57129L12.8303 20.6422C12.7493 20.7297 12.637 20.7815 12.5178 20.7862C12.3987 20.791 12.2825 20.7482 12.1949 20.6674C12.1886 20.662 8.77491 16.9639 1.95021 9.57129C1.87965 9.49482 1.83777 9.39626 1.8317 9.29239C1.82563 9.18852 1.85574 9.08576 1.91691 9.00159L5.35761 4.27119C5.44111 4.15632 5.55061 4.06285 5.67715 3.9984C5.8037 3.93396 5.9437 3.90037 6.08571 3.90039ZM6.54471 5.70039L4.02471 9.16539L12.5 18.3454L20.9753 9.16539L18.4553 5.70039H6.54471Z" fill="#0A0D14" style="fill:#0A0D14;fill:color(display-p3 0.0392 0.0510 0.0784);fill-opacity:1;"/>
</svg>
