<svg width="25" height="24" viewBox="0 0 25 24" fill="none" xmlns="http://www.w3.org/2000/svg">
<path d="M4.4 3.90039H20.6C20.8387 3.90039 21.0676 3.99521 21.2364 4.16399C21.4052 4.33278 21.5 4.5617 21.5 4.80039V19.2004C21.5 19.4391 21.4052 19.668 21.2364 19.8368C21.0676 20.0056 20.8387 20.1004 20.6 20.1004H4.4C4.16131 20.1004 3.93239 20.0056 3.7636 19.8368C3.59482 19.668 3.5 19.4391 3.5 19.2004V4.80039C3.5 4.5617 3.59482 4.33278 3.7636 4.16399C3.93239 3.99521 4.16131 3.90039 4.4 3.90039ZM11.6 8.85039V15.1504H13.4V8.85039H11.6ZM11.3435 8.85039H9.4409L8.0936 12.5521L6.7463 8.85039H4.8437L7.1936 15.118H8.9936L11.3435 8.85039ZM16.1 13.3504H17.45C18.0467 13.3504 18.619 13.1133 19.041 12.6914C19.4629 12.2694 19.7 11.6971 19.7 11.1004C19.7 10.5037 19.4629 9.93136 19.041 9.5094C18.619 9.08744 18.0467 8.85039 17.45 8.85039H14.3V15.1504H16.1V13.3504ZM16.1 11.5504V10.6504H17.45C17.5693 10.6504 17.6838 10.6978 17.7682 10.7822C17.8526 10.8666 17.9 10.981 17.9 11.1004C17.9 11.2197 17.8526 11.3342 17.7682 11.4186C17.6838 11.503 17.5693 11.5504 17.45 11.5504H16.1Z" fill="#0A0D14" style="fill:#0A0D14;fill:color(display-p3 0.0392 0.0510 0.0784);fill-opacity:1;"/>
</svg>
