<svg width="25" height="24" viewBox="0 0 25 24" fill="none" xmlns="http://www.w3.org/2000/svg">
<path d="M6.08571 3.90039H18.9143C19.0563 3.90037 19.1963 3.93396 19.3229 3.9984C19.4494 4.06285 19.5589 4.15632 19.6424 4.27119L23.0831 9.00159C23.1443 9.08576 23.1744 9.18852 23.1683 9.29239C23.1622 9.39627 23.1204 9.49482 23.0498 9.57129L12.8303 20.6422C12.7882 20.6877 12.7371 20.7241 12.6802 20.7489C12.6234 20.7737 12.562 20.7866 12.5 20.7866C12.438 20.7866 12.3766 20.7737 12.3198 20.7489C12.2629 20.7241 12.2118 20.6877 12.1697 20.6422L1.95021 9.57219C1.87942 9.49566 1.8374 9.39693 1.83133 9.29286C1.82526 9.18879 1.8555 9.08584 1.91691 9.00159L5.35761 4.27119C5.44111 4.15632 5.55061 4.06285 5.67715 3.9984C5.8037 3.93396 5.9437 3.90037 6.08571 3.90039Z" fill="#0A0D14" style="fill:#0A0D14;fill:color(display-p3 0.0392 0.0510 0.0784);fill-opacity:1;"/>
</svg>
