<svg width="25" height="24" viewBox="0 0 25 24" fill="none" xmlns="http://www.w3.org/2000/svg">
<path d="M3.5 18.3004H21.5V20.1004H3.5V18.3004ZM11.6 8.40039H13.4V15.6004H11.6V8.40039ZM8.8685 8.40039H10.781L8.0936 15.568H6.2936L3.6062 8.40039H5.5187L7.1936 13.0021L8.8685 8.40039ZM17 13.8004V15.6004H15.2V8.40039H18.8C19.5161 8.40039 20.2028 8.68485 20.7092 9.1912C21.2155 9.69755 21.5 10.3843 21.5 11.1004C21.5 11.8165 21.2155 12.5032 20.7092 13.0096C20.2028 13.5159 19.5161 13.8004 18.8 13.8004H17ZM17 10.2004V12.0004H18.8C19.0387 12.0004 19.2676 11.9056 19.4364 11.7368C19.6052 11.568 19.7 11.3391 19.7 11.1004C19.7 10.8617 19.6052 10.6328 19.4364 10.464C19.2676 10.2952 19.0387 10.2004 18.8 10.2004H17ZM3.5 3.90039H21.5V5.70039H3.5V3.90039Z" fill="#0A0D14" style="fill:#0A0D14;fill:color(display-p3 0.0392 0.0510 0.0784);fill-opacity:1;"/>
</svg>
