<svg width="25" height="24" viewBox="0 0 25 24" fill="none" xmlns="http://www.w3.org/2000/svg">
<path d="M4.84275 8.45777L6.00015 18.2993H18.9997L20.1571 8.45777L16.5481 10.8635L12.4999 5.19617L8.45175 10.8635L4.84275 8.45777ZM4.22085 5.87927L7.99995 8.39927L11.7673 3.12527C11.8506 3.0086 11.9605 2.9135 12.0879 2.84789C12.2154 2.78228 12.3566 2.74805 12.4999 2.74805C12.6433 2.74805 12.7845 2.78228 12.912 2.84789C13.0394 2.9135 13.1493 3.0086 13.2325 3.12527L16.9999 8.39927L20.7799 5.87927C20.923 5.78409 21.0903 5.73185 21.2621 5.72873C21.4339 5.72561 21.603 5.77173 21.7494 5.86165C21.8959 5.95156 22.0135 6.08152 22.0884 6.23615C22.1633 6.39078 22.1924 6.56363 22.1722 6.73427L20.6935 19.3046C20.6678 19.5235 20.5625 19.7253 20.3978 19.8718C20.233 20.0183 20.0203 20.0992 19.7998 20.0993H5.20005C4.97961 20.0992 4.76684 20.0183 4.60211 19.8718C4.43738 19.7253 4.33214 19.5235 4.30635 19.3046L2.82765 6.73337C2.80767 6.5628 2.8369 6.39008 2.9119 6.23559C2.98691 6.08111 3.10454 5.9513 3.25093 5.8615C3.39731 5.7717 3.56633 5.72566 3.73803 5.72881C3.90973 5.73196 4.07695 5.78416 4.21995 5.87927H4.22085ZM12.4999 14.6993C12.0226 14.6993 11.5647 14.5096 11.2272 14.1721C10.8896 13.8345 10.6999 13.3767 10.6999 12.8993C10.6999 12.4219 10.8896 11.964 11.2272 11.6265C11.5647 11.2889 12.0226 11.0993 12.4999 11.0993C12.9773 11.0993 13.4352 11.2889 13.7727 11.6265C14.1103 11.964 14.2999 12.4219 14.2999 12.8993C14.2999 13.3767 14.1103 13.8345 13.7727 14.1721C13.4352 14.5096 12.9773 14.6993 12.4999 14.6993Z" fill="#0A0D14" style="fill:#0A0D14;fill:color(display-p3 0.0392 0.0510 0.0784);fill-opacity:1;"/>
</svg>
