<svg width="25" height="24" viewBox="0 0 25 24" fill="none" xmlns="http://www.w3.org/2000/svg">
<path d="M14.0453 2.95312L17.4059 4.24373L16.7606 5.92403L15.92 5.60092L15.2486 7.35143C15.9497 7.76723 16.5482 8.33603 16.9991 9.01283L18.7118 8.25053L18.3455 7.42793L19.9898 6.69623L21.4541 9.98483L19.8098 10.7165L19.4435 9.89482L17.7317 10.6571C17.8415 11.0864 17.9 11.5373 17.9 12.0008C17.9 12.3662 17.864 12.7235 17.7947 13.0691L19.5443 13.7405L19.8665 12.9008L21.5477 13.5461L20.2571 16.9067L18.5768 16.2614L18.899 15.4217L17.1494 14.7494C16.7336 15.4505 16.1648 16.049 15.488 16.4999L16.2503 18.2126L17.0729 17.8463L17.8046 19.4906L14.516 20.9549L13.7843 19.3106L14.606 18.9443L13.8437 17.2325C13.4144 17.3423 12.9635 17.4008 12.5 17.4008C12.1337 17.4008 11.7764 17.3648 11.4308 17.2946L10.7594 19.0451L11.6 19.3673L10.9547 21.0485L7.59407 19.7579L8.23937 18.0776L9.07817 18.3998L9.75137 16.6502C9.05027 16.2344 8.45177 15.6656 7.99997 14.9888L6.28727 15.7511L6.65357 16.5737L5.00927 17.3054L3.54497 14.0168L5.18927 13.2851L5.55467 14.1077L7.26737 13.3445C7.15847 12.9152 7.09997 12.4643 7.09997 12.0008C7.09997 11.6354 7.13597 11.2781 7.20527 10.9325L5.45477 10.2611L5.13347 11.1008L3.45227 10.4555L4.74287 7.09583L6.42317 7.74113L6.10007 8.58082L7.85057 9.25312C8.26637 8.55113 8.83517 7.95263 9.51197 7.50082L8.74967 5.78813L7.92707 6.15443L7.19537 4.51013L10.484 3.04673L11.2157 4.69103L10.394 5.05732L11.1563 6.76912C11.5856 6.65932 12.0365 6.60083 12.5 6.60083C12.8654 6.60083 13.2227 6.63683 13.5683 6.70613L14.2388 4.95563L13.4 4.63433L14.0453 2.95312ZM12.5 8.40083C10.511 8.40083 8.89997 10.0118 8.89997 12.0008C8.89997 13.9898 10.511 15.6008 12.5 15.6008C14.489 15.6008 16.1 13.9898 16.1 12.0008C16.1 10.0118 14.489 8.40083 12.5 8.40083ZM12.05 12.7802C12.4802 13.0286 12.6278 13.5794 12.3794 14.0096C12.131 14.4398 11.5802 14.5874 11.15 14.339C10.7198 14.0906 10.5722 13.5398 10.8206 13.1096C11.069 12.6794 11.6198 12.5318 12.05 12.7802ZM14.3 11.1008C14.7968 11.1008 15.2 11.504 15.2 12.0008C15.2 12.4976 14.7968 12.9008 14.3 12.9008C13.8032 12.9008 13.4 12.4976 13.4 12.0008C13.4 11.504 13.8032 11.1008 14.3 11.1008ZM12.3794 9.99202C12.6278 10.4222 12.4802 10.973 12.05 11.2214C11.6198 11.4698 11.069 11.3222 10.8206 10.892C10.5722 10.4618 10.7198 9.91103 11.15 9.66263C11.5802 9.41423 12.131 9.56182 12.3794 9.99202Z" fill="#0A0D14" style="fill:#0A0D14;fill:color(display-p3 0.0392 0.0510 0.0784);fill-opacity:1;"/>
</svg>
