<svg width="25" height="24" viewBox="0 0 25 24" fill="none" xmlns="http://www.w3.org/2000/svg">
<path d="M21.6998 15.391L21.4973 14.3785H19.2347L18.8747 15.3838L17.0612 15.3874C17.9246 13.3112 18.7898 11.2358 19.6568 9.16121C19.8044 8.80931 20.0663 8.63021 20.4524 8.63201C20.7476 8.63471 21.2291 8.63471 21.8978 8.63291L23.3 15.3883L21.6998 15.391ZM19.7441 12.9916H21.2021L20.6576 10.4536L19.7441 12.9916ZM8.05401 8.63111L9.87741 8.63291L7.05861 15.3919L5.21271 15.3901C4.74854 13.6048 4.29013 11.818 3.83751 10.0297C3.74751 9.67331 3.56931 9.42401 3.22641 9.30611C2.92131 9.20081 2.41281 9.03881 1.70001 8.81831V8.63381H4.61331C5.11731 8.63381 5.41161 8.87771 5.50611 9.37811C5.60151 9.87941 5.84091 11.1556 6.22611 13.2067L8.05401 8.63111ZM12.383 8.63291L10.9412 15.3901L9.20601 15.3883L10.646 8.63111L12.383 8.63291ZM15.902 8.50781C16.4213 8.50781 17.0756 8.66981 17.4518 8.81831L17.1476 10.2196C16.8074 10.0828 16.2476 9.89831 15.7769 9.90461C15.0929 9.91631 14.6699 10.2034 14.6699 10.4788C14.6699 10.927 15.4043 11.1529 16.1603 11.6425C17.0234 12.2005 17.1368 12.7018 17.126 13.2463C17.1143 14.3767 16.1603 15.4918 14.1479 15.4918C13.2299 15.4783 12.8987 15.4009 12.1499 15.1354L12.4667 13.6729C13.229 13.9924 13.5521 14.0941 14.2037 14.0941C14.8004 14.0941 15.3125 13.8529 15.317 13.4326C15.3206 13.1338 15.137 12.9853 14.4674 12.6163C13.7978 12.2464 12.8582 11.7343 12.8708 10.7065C12.8861 9.39071 14.1326 8.50781 15.9029 8.50781H15.902Z" fill="#0A0D14" style="fill:#0A0D14;fill:color(display-p3 0.0392 0.0510 0.0784);fill-opacity:1;"/>
</svg>
