<svg width="25" height="24" viewBox="0 0 25 24" fill="none" xmlns="http://www.w3.org/2000/svg">
<path d="M2.59998 4.80078H22.4V6.60078H2.59998V4.80078ZM2.59998 17.4008H22.4V19.2008H2.59998V17.4008ZM19.3598 14.6234L19.2032 13.8404H17.4491L17.1701 14.6171L15.7643 14.6198C16.6688 12.4544 17.3393 10.8488 17.7767 9.80658C17.891 9.53388 18.0944 9.39528 18.3932 9.39708C18.6218 9.39888 18.9953 9.39888 19.5137 9.39708L20.6 14.6216L19.3598 14.6243V14.6234ZM17.8442 12.7676H18.9746L18.5516 10.8056L17.8442 12.7676ZM8.78478 9.39618L10.1978 9.39798L8.01348 14.6234L6.58248 14.6225C6.09918 12.7595 5.74368 11.3771 5.51688 10.478C5.44758 10.2017 5.30988 10.0091 5.04348 9.91818C4.80678 9.83718 4.41258 9.71118 3.85998 9.54108V9.39708H6.11808C6.50868 9.39708 6.73638 9.58608 6.81018 9.97308L7.36818 12.9332L8.78478 9.39618ZM12.1391 9.39798L11.0231 14.6225L9.67758 14.6207L10.7936 9.39618L12.1391 9.39798ZM14.8679 9.30078C15.2693 9.30078 15.7769 9.42498 16.0685 9.54108L15.8327 10.6247C15.569 10.5185 15.1352 10.3754 14.7707 10.3817C14.2397 10.3898 13.9121 10.6121 13.9121 10.8254C13.9121 11.171 14.4809 11.3456 15.0677 11.7245C15.7364 12.1565 15.8237 12.5435 15.8156 12.9647C15.8066 13.8386 15.0677 14.7008 13.508 14.7008C12.7961 14.69 12.5396 14.6306 11.96 14.4254L12.2048 13.295C12.7952 13.5416 13.0463 13.6199 13.5503 13.6199C14.0138 13.6199 14.4107 13.4336 14.4143 13.1087C14.4161 12.8774 14.2748 12.7631 13.7555 12.4769C13.2362 12.1916 12.509 11.7965 12.518 11.0009C12.5297 9.98388 13.4963 9.30078 14.867 9.30078H14.8679Z" fill="#0A0D14" style="fill:#0A0D14;fill:color(display-p3 0.0392 0.0510 0.0784);fill-opacity:1;"/>
</svg>
