<svg width="25" height="24" viewBox="0 0 25 24" fill="none" xmlns="http://www.w3.org/2000/svg">
<path d="M19.1509 4.04426L20.4226 5.31686L18.1951 7.54436L20.4226 9.77186L18.1951 11.9994L20.4226 14.2278L18.1951 16.4553L20.4226 18.6828L19.15 19.9554L15.6499 16.4544L17.8774 14.2278L15.6499 11.9994L17.8774 9.77186L15.6499 7.54436L19.1509 4.04426ZM13.3999 19.1499C13.4 19.2351 13.3758 19.3186 13.3303 19.3907C13.2847 19.4627 13.2196 19.5204 13.1426 19.5568C13.0655 19.5933 12.9797 19.6072 12.8951 19.5968C12.8105 19.5864 12.7306 19.5522 12.6646 19.4982L7.90095 15.5985L4.39995 15.5994C4.16125 15.5994 3.93234 15.5045 3.76355 15.3358C3.59477 15.167 3.49995 14.9381 3.49995 14.6994V9.29936C3.49995 9.06067 3.59477 8.83175 3.76355 8.66297C3.93234 8.49418 4.16125 8.39936 4.39995 8.39936L6.72555 8.39756L3.32715 4.99916L4.59975 3.72656L13.3999 12.5268V19.1499ZM13.2982 4.56446C13.3639 4.64472 13.3998 4.74518 13.3999 4.84886V9.98066L10.0537 6.63536L12.6646 4.50056C12.7104 4.46307 12.763 4.43495 12.8196 4.41782C12.8762 4.4007 12.9357 4.39489 12.9945 4.40074C13.0533 4.40659 13.1105 4.42399 13.1626 4.45192C13.2147 4.47986 13.2608 4.5178 13.2982 4.56356V4.56446Z" fill="#0A0D14" style="fill:#0A0D14;fill:color(display-p3 0.0392 0.0510 0.0784);fill-opacity:1;"/>
</svg>
