<svg width="25" height="24" viewBox="0 0 25 24" fill="none" xmlns="http://www.w3.org/2000/svg">
<path d="M10.7 7.69724L7.64268 10.1992H4.39998V13.7992H7.64268L10.7 16.3012V7.69724ZM7.00008 15.5992H3.49998C3.26128 15.5992 3.03236 15.5044 2.86358 15.3356C2.6948 15.1669 2.59998 14.9379 2.59998 14.6992V9.29924C2.59998 9.06054 2.6948 8.83162 2.86358 8.66284C3.03236 8.49406 3.26128 8.39924 3.49998 8.39924H7.00008L11.7647 4.50044C11.8306 4.44639 11.9105 4.41218 11.9951 4.40179C12.0797 4.3914 12.1656 4.40526 12.2426 4.44176C12.3197 4.47825 12.3847 4.53588 12.4303 4.60793C12.4759 4.67998 12.5 4.76349 12.5 4.84874V19.1497C12.5 19.235 12.4759 19.3185 12.4303 19.3905C12.3847 19.4626 12.3197 19.5202 12.2426 19.5567C12.1656 19.5932 12.0797 19.6071 11.9951 19.5967C11.9105 19.5863 11.8306 19.5521 11.7647 19.498L7.00098 15.5992H7.00008ZM19.1654 19.3198L17.891 18.0454C18.7441 17.2863 19.4267 16.3549 19.8937 15.3128C20.3606 14.2706 20.6013 13.1412 20.6 11.9992C20.6011 10.7987 20.3348 9.61302 19.8204 8.52827C19.3061 7.44352 18.5566 6.48695 17.6264 5.72804L18.9044 4.45004C20.001 5.37843 20.8819 6.53487 21.4856 7.83871C22.0894 9.14255 22.4014 10.5624 22.4 11.9992C22.4 14.8999 21.1526 17.509 19.1654 19.3198ZM15.9767 16.1311L14.6969 14.8513C15.1338 14.5154 15.4876 14.0834 15.7309 13.5888C15.9742 13.0943 16.1005 12.5504 16.1 11.9992C16.1 10.7122 15.425 9.58274 14.408 8.94644L15.7031 7.65134C16.3848 8.15281 16.9389 8.8077 17.3205 9.56304C17.7022 10.3184 17.9007 11.153 17.9 11.9992C17.9 13.657 17.153 15.1402 15.9767 16.1311Z" fill="#0A0D14" style="fill:#0A0D14;fill:color(display-p3 0.0392 0.0510 0.0784);fill-opacity:1;"/>
</svg>
