<svg width="25" height="24" viewBox="0 0 25 24" fill="none" xmlns="http://www.w3.org/2000/svg">
<path d="M19.151 4.04297L20.4227 5.31557L18.1952 7.54307L20.4227 9.77057L18.1952 11.9981L20.4227 14.2265L18.1952 16.454L20.4227 18.6815L19.1501 19.9541L15.65 16.4531L17.8775 14.2265L15.65 11.9981L17.8775 9.77057L15.65 7.54307L19.151 4.04297ZM13.2983 4.56317C13.364 4.64342 13.3999 4.74388 13.4 4.84757V19.1486C13.4001 19.2338 13.3759 19.3173 13.3303 19.3894C13.2848 19.4614 13.2197 19.5191 13.1426 19.5556C13.0656 19.592 12.9798 19.6059 12.8952 19.5955C12.8105 19.5851 12.7306 19.5509 12.6647 19.4969L7.901 15.5972L4.4 15.5981C4.16131 15.5981 3.93239 15.5032 3.7636 15.3345C3.59482 15.1657 3.5 14.9368 3.5 14.6981V9.29807C3.5 9.05937 3.59482 8.83046 3.7636 8.66167C3.93239 8.49289 4.16131 8.39807 4.4 8.39807H7.9001L12.6647 4.49927C12.7104 4.46177 12.7631 4.43366 12.8197 4.41653C12.8763 4.3994 12.9357 4.3936 12.9946 4.39945C13.0534 4.4053 13.1105 4.42269 13.1626 4.45063C13.2148 4.47857 13.2609 4.5165 13.2983 4.56227V4.56317ZM11.6 7.69607L8.5427 10.1972H5.3V13.7981L8.5427 13.7972L11.6 16.2992V7.69607Z" fill="#0A0D14" style="fill:#0A0D14;fill:color(display-p3 0.0392 0.0510 0.0784);fill-opacity:1;"/>
</svg>
