<svg width="25" height="24" viewBox="0 0 25 24" fill="none" xmlns="http://www.w3.org/2000/svg">
<path d="M13.4 7.69724L10.3427 10.1992H7.09999V13.7992H10.3427L13.4 16.3012V7.69724ZM9.70009 15.5992H6.19999C5.96129 15.5992 5.73237 15.5044 5.56359 15.3356C5.39481 15.1669 5.29999 14.9379 5.29999 14.6992V9.29924C5.29999 9.06054 5.39481 8.83162 5.56359 8.66284C5.73237 8.49406 5.96129 8.39924 6.19999 8.39924H9.70009L14.4647 4.50044C14.5306 4.44639 14.6105 4.41218 14.6951 4.40179C14.7798 4.3914 14.8656 4.40526 14.9426 4.44176C15.0197 4.47825 15.0848 4.53588 15.1303 4.60793C15.1759 4.67998 15.2 4.76349 15.2 4.84874V19.1497C15.2 19.235 15.1759 19.3185 15.1303 19.3905C15.0848 19.4626 15.0197 19.5202 14.9426 19.5567C14.8656 19.5932 14.7798 19.6071 14.6951 19.5967C14.6105 19.5863 14.5306 19.5521 14.4647 19.498L9.70099 15.5992H9.70009ZM18.6767 16.1311L17.3969 14.8513C17.8338 14.5154 18.1876 14.0834 18.4309 13.5888C18.6742 13.0943 18.8005 12.5504 18.8 11.9992C18.8 10.7122 18.125 9.58274 17.108 8.94644L18.4031 7.65134C19.0848 8.15281 19.6389 8.8077 20.0205 9.56304C20.4022 10.3184 20.6007 11.153 20.6 11.9992C20.6 13.657 19.853 15.1402 18.6767 16.1311Z" fill="#0A0D14" style="fill:#0A0D14;fill:color(display-p3 0.0392 0.0510 0.0784);fill-opacity:1;"/>
</svg>
