<svg width="25" height="24" viewBox="0 0 25 24" fill="none" xmlns="http://www.w3.org/2000/svg">
<path d="M10.7 7.69724L7.64268 10.1992H4.39998V13.7992H7.64268L10.7 16.3012V7.69724ZM7.00008 15.5992H3.49998C3.26128 15.5992 3.03236 15.5044 2.86358 15.3356C2.6948 15.1669 2.59998 14.9379 2.59998 14.6992V9.29924C2.59998 9.06054 2.6948 8.83162 2.86358 8.66284C3.03236 8.49406 3.26128 8.39924 3.49998 8.39924H7.00008L11.7647 4.50044C11.8306 4.44639 11.9105 4.41218 11.9951 4.40179C12.0798 4.3914 12.1656 4.40526 12.2426 4.44176C12.3197 4.47825 12.3847 4.53588 12.4303 4.60793C12.4759 4.67998 12.5 4.76349 12.5 4.84874V19.1497C12.5 19.235 12.4759 19.3185 12.4303 19.3905C12.3847 19.4626 12.3197 19.5202 12.2426 19.5567C12.1656 19.5932 12.0798 19.6071 11.9951 19.5967C11.9105 19.5863 11.8306 19.5521 11.7647 19.498L7.00098 15.5992H7.00008ZM20.0726 11.9992L23.255 15.1816L21.9824 16.4542L18.8 13.2718L15.6176 16.4542L14.345 15.1816L17.5274 11.9992L14.345 8.81684L15.6176 7.54424L18.8 10.7266L21.9824 7.54424L23.255 8.81684L20.0726 11.9992Z" fill="#0A0D14" style="fill:#0A0D14;fill:color(display-p3 0.0392 0.0510 0.0784);fill-opacity:1;"/>
</svg>
