<svg width="25" height="24" viewBox="0 0 25 24" fill="none" xmlns="http://www.w3.org/2000/svg">
<path d="M8.55527 9.04158L11.4398 6.94638C11.7636 6.70942 12.1574 6.58774 12.5585 6.60078C13.0476 6.61298 13.5208 6.77728 13.9123 7.07084C14.3038 7.3644 14.594 7.77263 14.7428 8.23878C14.9102 8.76348 15.0632 9.11808 15.2018 9.30258C15.6206 9.8613 16.1638 10.3147 16.7884 10.6269C17.413 10.939 18.1017 11.1013 18.8 11.1008V12.9008C17.8705 12.9018 16.9524 12.6967 16.1118 12.3004C15.2711 11.904 14.5287 11.3262 13.9382 10.6085L13.3109 14.168L15.1658 15.725L17.1665 21.2222L15.4745 21.8378L13.6385 16.7942L10.5875 14.2337C10.3371 14.0315 10.1455 13.7659 10.0326 13.4645C9.91978 13.1631 9.88978 12.837 9.94577 12.5201L10.4039 9.92358L9.79457 10.3664L7.88027 13.0016L6.42407 11.9432L8.53997 9.03078L8.55527 9.04158ZM13.85 6.15078C13.3726 6.15078 12.9147 5.96114 12.5772 5.62357C12.2396 5.28601 12.05 4.82817 12.05 4.35078C12.05 3.87339 12.2396 3.41555 12.5772 3.07799C12.9147 2.74042 13.3726 2.55078 13.85 2.55078C14.3274 2.55078 14.7852 2.74042 15.1228 3.07799C15.4603 3.41555 15.65 3.87339 15.65 4.35078C15.65 4.82817 15.4603 5.28601 15.1228 5.62357C14.7852 5.96114 14.3274 6.15078 13.85 6.15078ZM11.1752 18.0137L8.28257 21.4607L6.90377 20.3042L9.58217 17.1128L10.2536 15.1508L11.8655 16.5008L11.1752 18.0137Z" fill="#0A0D14" style="fill:#0A0D14;fill:color(display-p3 0.0392 0.0510 0.0784);fill-opacity:1;"/>
</svg>
