<svg width="25" height="24" viewBox="0 0 25 24" fill="none" xmlns="http://www.w3.org/2000/svg">
<path d="M17.9 7.50039H20.6C20.8387 7.50039 21.0676 7.59521 21.2364 7.76399C21.4052 7.93278 21.5 8.1617 21.5 8.40039V19.2004C21.5 19.4391 21.4052 19.668 21.2364 19.8368C21.0676 20.0056 20.8387 20.1004 20.6 20.1004H4.4C4.16131 20.1004 3.93239 20.0056 3.7636 19.8368C3.59482 19.668 3.5 19.4391 3.5 19.2004V4.80039C3.5 4.5617 3.59482 4.33278 3.7636 4.16399C3.93239 3.99521 4.16131 3.90039 4.4 3.90039H17.9V7.50039ZM5.3 9.30039V18.3004H19.7V9.30039H5.3ZM5.3 5.70039V7.50039H16.1V5.70039H5.3ZM15.2 12.9004H17.9V14.7004H15.2V12.9004Z" fill="#0A0D14" style="fill:#0A0D14;fill:color(display-p3 0.0392 0.0510 0.0784);fill-opacity:1;"/>
</svg>
