<svg width="25" height="24" viewBox="0 0 25 24" fill="none" xmlns="http://www.w3.org/2000/svg">
<path d="M21.5 7.50039H22.4V16.5004H21.5V19.2004C21.5 19.4391 21.4052 19.668 21.2364 19.8368C21.0676 20.0056 20.8387 20.1004 20.6 20.1004H4.4C4.16131 20.1004 3.93239 20.0056 3.7636 19.8368C3.59482 19.668 3.5 19.4391 3.5 19.2004V4.80039C3.5 4.5617 3.59482 4.33278 3.7636 4.16399C3.93239 3.99521 4.16131 3.90039 4.4 3.90039H20.6C20.8387 3.90039 21.0676 3.99521 21.2364 4.16399C21.4052 4.33278 21.5 4.5617 21.5 4.80039V7.50039ZM19.7 16.5004H14.3C13.1065 16.5004 11.9619 16.0263 11.118 15.1824C10.2741 14.3385 9.8 13.1939 9.8 12.0004C9.8 10.8069 10.2741 9.66232 11.118 8.81841C11.9619 7.9745 13.1065 7.50039 14.3 7.50039H19.7V5.70039H5.3V18.3004H19.7V16.5004ZM20.6 14.7004V9.30039H14.3C13.5839 9.30039 12.8972 9.58485 12.3908 10.0912C11.8845 10.5976 11.6 11.2843 11.6 12.0004C11.6 12.7165 11.8845 13.4032 12.3908 13.9096C12.8972 14.4159 13.5839 14.7004 14.3 14.7004H20.6ZM14.3 11.1004H17V12.9004H14.3V11.1004Z" fill="#0A0D14" style="fill:#0A0D14;fill:color(display-p3 0.0392 0.0510 0.0784);fill-opacity:1;"/>
</svg>
