<svg width="25" height="24" viewBox="0 0 25 24" fill="none" xmlns="http://www.w3.org/2000/svg">
<path d="M21.5 6.60039H15.2C13.7678 6.60039 12.3943 7.16932 11.3816 8.18201C10.3689 9.19471 9.8 10.5682 9.8 12.0004C9.8 13.4326 10.3689 14.8061 11.3816 15.8188C12.3943 16.8315 13.7678 17.4004 15.2 17.4004H21.5V19.2004C21.5 19.4391 21.4052 19.668 21.2364 19.8368C21.0676 20.0056 20.8387 20.1004 20.6 20.1004H4.4C4.16131 20.1004 3.93239 20.0056 3.7636 19.8368C3.59482 19.668 3.5 19.4391 3.5 19.2004V4.80039C3.5 4.5617 3.59482 4.33278 3.7636 4.16399C3.93239 3.99521 4.16131 3.90039 4.4 3.90039H20.6C20.8387 3.90039 21.0676 3.99521 21.2364 4.16399C21.4052 4.33278 21.5 4.5617 21.5 4.80039V6.60039ZM15.2 8.40039H22.4V15.6004H15.2C14.2452 15.6004 13.3295 15.2211 12.6544 14.546C11.9793 13.8708 11.6 12.9552 11.6 12.0004C11.6 11.0456 11.9793 10.1299 12.6544 9.45481C13.3295 8.77968 14.2452 8.40039 15.2 8.40039ZM15.2 11.1004V12.9004H17.9V11.1004H15.2Z" fill="#0A0D14" style="fill:#0A0D14;fill:color(display-p3 0.0392 0.0510 0.0784);fill-opacity:1;"/>
</svg>
