<svg width="25" height="24" viewBox="0 0 25 24" fill="none" xmlns="http://www.w3.org/2000/svg">
<path d="M12.5 3.99051L8.04503 8.44551C7.16402 9.32661 6.56407 10.4492 6.32103 11.6712C6.078 12.8933 6.2028 14.16 6.67965 15.3111C7.1565 16.4622 7.96399 17.4461 9 18.1384C10.036 18.8306 11.254 19.2001 12.5 19.2001C13.746 19.2001 14.964 18.8306 16.0001 18.1384C17.0361 17.4461 17.8436 16.4622 18.3204 15.3111C18.7973 14.16 18.9221 12.8933 18.679 11.6712C18.436 10.4492 17.836 9.32661 16.955 8.44551L12.5 3.99051ZM12.5 1.44531L18.2276 7.17291C19.3604 8.30572 20.1319 9.749 20.4444 11.3202C20.7569 12.8915 20.5965 14.5201 19.9834 16.0002C19.3704 17.4803 18.3322 18.7453 17.0001 19.6354C15.6681 20.5254 14.1021 21.0004 12.5 21.0004C10.898 21.0004 9.33196 20.5254 7.99992 19.6354C6.66788 18.7453 5.62969 17.4803 5.01661 16.0002C4.40354 14.5201 4.24313 12.8915 4.55566 11.3202C4.86819 9.749 5.63963 8.30572 6.77243 7.17291L12.5 1.44531ZM13.4 11.1005H15.65L11.6 16.9505V12.9005H9.35003L13.4 7.05051V11.1005Z" fill="#0A0D14" style="fill:#0A0D14;fill:color(display-p3 0.0392 0.0510 0.0784);fill-opacity:1;"/>
</svg>
