<svg width="25" height="24" viewBox="0 0 25 24" fill="none" xmlns="http://www.w3.org/2000/svg">
<path d="M6.77243 7.17291L12.5 1.44531L18.2276 7.17291C19.3604 8.30572 20.1319 9.749 20.4444 11.3202C20.7569 12.8915 20.5965 14.5201 19.9834 16.0002C19.3704 17.4803 18.3322 18.7453 17.0001 19.6354C15.6681 20.5254 14.1021 21.0004 12.5 21.0004C10.898 21.0004 9.33196 20.5254 7.99992 19.6354C6.66788 18.7453 5.62969 17.4803 5.01661 16.0002C4.40354 14.5201 4.24313 12.8915 4.55566 11.3202C4.86819 9.749 5.63963 8.30572 6.77243 7.17291ZM13.4 11.1005V7.05051L9.35003 12.9005H11.6V16.9505L15.65 11.1005H13.4Z" fill="#0A0D14" style="fill:#0A0D14;fill:color(display-p3 0.0392 0.0510 0.0784);fill-opacity:1;"/>
</svg>
