<svg width="25" height="24" viewBox="0 0 25 24" fill="none" xmlns="http://www.w3.org/2000/svg">
<path d="M8.78769 9.03676L12.5 5.32444L16.2123 9.03676C18.2625 11.087 18.2625 14.4112 16.2123 16.4614C14.1621 18.5116 10.8379 18.5116 8.78769 16.4614C6.73744 14.4112 6.73744 11.087 8.78769 9.03676ZM17.273 7.9761L12.5 3.20312L7.72703 7.9761C5.09099 10.6121 5.09099 14.886 7.72703 17.522C10.3631 20.1581 14.6369 20.1581 17.273 17.522C19.909 14.886 19.909 10.6121 17.273 7.9761ZM15.682 10.6303L14.6214 9.56959L9.31805 14.8729L10.3787 15.9336L15.682 10.6303ZM9.58321 11.4257C10.0226 11.8651 10.7349 11.8651 11.1742 11.4257C11.6136 10.9864 11.6136 10.2741 11.1742 9.83476C10.7349 9.39541 10.0226 9.39541 9.58321 9.83476C9.14387 10.2741 9.14387 10.9864 9.58321 11.4257ZM15.4168 15.6684C14.9775 16.1077 14.2652 16.1077 13.8259 15.6684C13.3865 15.229 13.3865 14.5168 13.8259 14.0774C14.2652 13.6381 14.9775 13.6381 15.4168 14.0774C15.8562 14.5168 15.8562 15.229 15.4168 15.6684Z" fill="#0A0D14" style="fill:#0A0D14;fill:color(display-p3 0.0392 0.0510 0.0784);fill-opacity:1;"/>
</svg>
