<svg width="25" height="24" viewBox="0 0 25 24" fill="none" xmlns="http://www.w3.org/2000/svg">
<path d="M12.5 3.20312L7.72703 7.97609C5.09099 10.6121 5.09099 14.886 7.72703 17.522C10.3631 20.158 14.6369 20.158 17.273 17.522C19.909 14.886 19.909 10.6121 17.273 7.97609L12.5 3.20312ZM15.682 10.6299L10.3787 15.9332L9.31805 14.8725L14.6214 9.56923L15.682 10.6299ZM9.58321 9.83439C10.0226 9.39505 10.7349 9.39505 11.1742 9.83439C11.6136 10.2737 11.6136 10.9861 11.1742 11.4253C10.7349 11.8647 10.0226 11.8647 9.58321 11.4253C9.14387 10.9861 9.14387 10.2737 9.58321 9.83439ZM15.4168 15.668C14.9775 16.1074 14.2652 16.1074 13.8259 15.668C13.3865 15.2287 13.3865 14.5164 13.8259 14.077C14.2652 13.6377 14.9775 13.6377 15.4168 14.077C15.8562 14.5164 15.8562 15.2287 15.4168 15.668Z" fill="#0A0D14" style="fill:#0A0D14;fill:color(display-p3 0.0392 0.0510 0.0784);fill-opacity:1;"/>
</svg>
