<svg width="25" height="24" viewBox="0 0 25 24" fill="none" xmlns="http://www.w3.org/2000/svg">
<path d="M11.6 20.1016V19.1386C10.1004 18.9217 8.72923 18.1719 7.73751 17.0265C6.74579 15.8811 6.19994 14.4167 6.19995 12.9016V8.40156C6.19995 7.57423 6.36291 6.75501 6.67951 5.99066C6.99611 5.22631 7.46017 4.5318 8.04518 3.94679C8.63019 3.36178 9.32469 2.89773 10.089 2.58112C10.8534 2.26452 11.6726 2.10156 12.5 2.10156C13.3273 2.10156 14.1465 2.26452 14.9109 2.58112C15.6752 2.89773 16.3697 3.36178 16.9547 3.94679C17.5397 4.5318 18.0038 5.22631 18.3204 5.99066C18.637 6.75501 18.8 7.57423 18.8 8.40156V12.9016C18.8 14.4167 18.2541 15.8811 17.2624 17.0265C16.2707 18.1719 14.8995 18.9217 13.4 19.1386V20.1016H17V21.9016H7.99995V20.1016H11.6ZM12.5 9.30156C12.2613 9.30156 12.0323 9.20674 11.8636 9.03796C11.6948 8.86918 11.6 8.64026 11.6 8.40156C11.6 8.16287 11.6948 7.93395 11.8636 7.76517C12.0323 7.59638 12.2613 7.50156 12.5 7.50156C12.7386 7.50156 12.9676 7.59638 13.1363 7.76517C13.3051 7.93395 13.4 8.16287 13.4 8.40156C13.4 8.64026 13.3051 8.86918 13.1363 9.03796C12.9676 9.20674 12.7386 9.30156 12.5 9.30156ZM12.5 11.1016C13.216 11.1016 13.9028 10.8171 14.4091 10.3108C14.9155 9.8044 15.2 9.11765 15.2 8.40156C15.2 7.68548 14.9155 6.99872 14.4091 6.49237C13.9028 5.98603 13.216 5.70156 12.5 5.70156C11.7839 5.70156 11.0971 5.98603 10.5908 6.49237C10.0844 6.99872 9.79995 7.68548 9.79995 8.40156C9.79995 9.11765 10.0844 9.8044 10.5908 10.3108C11.0971 10.8171 11.7839 11.1016 12.5 11.1016Z" fill="#0A0D14" style="fill:#0A0D14;fill:color(display-p3 0.0392 0.0510 0.0784);fill-opacity:1;"/>
</svg>
