<svg width="25" height="24" viewBox="0 0 25 24" fill="none" xmlns="http://www.w3.org/2000/svg">
<path d="M9.50027 11.56C9.34809 11.5611 9.19722 11.5319 9.05642 11.4741C8.91562 11.4164 8.7877 11.3313 8.6801 11.2236C8.57249 11.116 8.48734 10.9881 8.42961 10.8473C8.37187 10.7065 8.34269 10.5557 8.34377 10.4035C8.34377 9.75728 8.85407 9.24608 9.50027 9.24608C10.1456 9.24608 10.6568 9.75728 10.6568 10.4035C10.6568 11.0488 10.1456 11.56 9.50027 11.56ZM15.4997 11.56C15.3475 11.5611 15.1966 11.5319 15.0558 11.4741C14.915 11.4164 14.7871 11.3313 14.6795 11.2236C14.5719 11.116 14.4867 10.9881 14.429 10.8473C14.3713 10.7065 14.3421 10.5557 14.3432 10.4035C14.3432 9.75728 14.8544 9.24608 15.4997 9.24608C16.1459 9.24608 16.6562 9.75728 16.6562 10.4035C16.6562 11.0488 16.1459 11.56 15.4997 11.56ZM7.84067 18.4936L8.48417 18.1012C9.21283 17.6569 10.0756 17.4859 10.9187 17.6188C11.1095 17.6485 11.2661 17.6719 11.3867 17.6872C11.7521 17.7358 12.1247 17.7601 12.5 17.7601C16.478 17.7601 19.61 15.0403 19.61 11.8201C19.61 8.59988 16.478 5.88008 12.5 5.88008C8.52197 5.88008 5.38997 8.59988 5.38997 11.8201C5.38997 13.0495 5.83997 14.2258 6.67877 15.223C6.72197 15.2743 6.78677 15.3463 6.87137 15.4345C7.22513 15.8029 7.49645 16.2424 7.66729 16.7237C7.83814 17.2051 7.9046 17.7173 7.86227 18.2263L7.83977 18.4936H7.84067ZM7.27367 20.9479C7.13211 21.0364 6.9687 21.0839 6.80173 21.0849C6.63475 21.0859 6.47079 21.0404 6.32817 20.9536C6.18556 20.8667 6.06992 20.7419 5.99419 20.5931C5.91847 20.4442 5.88563 20.2773 5.89937 20.1109L6.06857 18.0769C6.08979 17.8224 6.05663 17.5663 5.97129 17.3257C5.88594 17.085 5.75037 16.8652 5.57357 16.681C5.47917 16.584 5.38792 16.4841 5.29997 16.3813C4.22537 15.1024 3.58997 13.5256 3.58997 11.8201C3.58997 7.54508 7.57877 4.08008 12.5 4.08008C17.4212 4.08008 21.41 7.54508 21.41 11.8201C21.41 16.0951 17.4212 19.5601 12.5 19.5601C12.041 19.5601 11.591 19.5304 11.1509 19.4719C10.9799 19.4488 10.8092 19.4236 10.6388 19.3963C10.2171 19.3297 9.78552 19.4152 9.42107 19.6375L7.27277 20.9479H7.27367Z" fill="#0A0D14" style="fill:#0A0D14;fill:color(display-p3 0.0392 0.0510 0.0784);fill-opacity:1;"/>
</svg>
