<svg width="25" height="24" viewBox="0 0 25 24" fill="none" xmlns="http://www.w3.org/2000/svg">
<path d="M17.8953 5.38588C18.7666 5.03342 19.5115 5.37154 19.8997 6.3433C20.9444 8.95774 18.4991 18.85 16.5805 18.85C15.9598 18.85 15.3377 18.3335 14.613 17.4051C14.2864 16.9867 13.9454 16.4878 13.5948 15.925C13.3144 15.4746 13.0387 15.0011 12.7738 14.5219L12.5001 14.0176L12.4869 14.0415C12.1443 14.6829 11.7789 15.3245 11.4049 15.925C11.0544 16.4878 10.7134 16.9867 10.3867 17.4051C9.66199 18.3335 9.0399 18.85 8.41916 18.85C6.50065 18.85 4.05531 8.95774 5.09995 6.34333C5.48818 5.37153 6.23311 5.03342 7.10442 5.38588C7.73615 5.64142 8.43337 6.25245 9.21249 7.16777C9.67615 7.71248 10.1612 8.35752 10.6604 9.08266C11.2132 9.88554 11.7547 10.7441 12.2631 11.6024L12.5002 12.0064L12.7367 11.6024C13.1434 10.9158 13.5713 10.229 14.0092 9.57062L14.3393 9.08266C14.8386 8.35752 15.3236 7.71248 15.7873 7.16777C16.5664 6.25245 17.2636 5.64142 17.8953 5.38588ZM6.74311 6.26443C6.37518 6.1156 6.18559 6.20164 5.98936 6.69286C5.64646 7.55103 5.79046 9.71355 6.29879 12.1403L6.4177 12.6835L6.54831 13.2328C7.18995 15.8285 8.11308 17.9011 8.41916 17.9011C8.62867 17.9011 9.08596 17.5215 9.63027 16.8242C9.93397 16.4352 10.2568 15.963 10.591 15.4264C10.8622 14.9908 11.13 14.5309 11.3875 14.0648L11.6989 13.4894L11.9602 12.9862L11.687 12.508L11.4382 12.083C10.94 11.2419 10.4096 10.401 9.87031 9.61768C9.38813 8.91731 8.92191 8.29726 8.48147 7.77983C7.79463 6.97293 7.19458 6.44706 6.74311 6.26443ZM19.0103 6.69283C18.8141 6.20164 18.6246 6.1156 18.2566 6.26443C17.8051 6.44706 17.2051 6.97293 16.5183 7.77983C16.0778 8.29726 15.6116 8.91731 15.1294 9.61768C14.698 10.2443 14.2723 10.9078 13.8642 11.5788L13.4339 12.2998L13.0388 12.9862L13.1743 13.2485L13.3582 13.5973C13.6917 14.2216 14.0471 14.8456 14.4088 15.4264C14.743 15.963 15.0658 16.4352 15.3694 16.8242C15.9138 17.5215 16.3711 17.9011 16.5805 17.9011C16.8866 17.9011 17.8098 15.8285 18.4514 13.2328L18.5821 12.6835C19.1853 10.0411 19.3786 7.6146 19.0103 6.69283Z" fill="#0A0D14" style="fill:#0A0D14;fill:color(display-p3 0.0392 0.0510 0.0784);fill-opacity:1;"/>
</svg>
