<svg width="25" height="24" viewBox="0 0 25 24" fill="none" xmlns="http://www.w3.org/2000/svg">
<path d="M8.49553 17.2231C8.46408 17.186 8.42474 17.1348 8.37838 17.0659C8.20003 16.8007 7.99264 16.3869 7.77526 15.8455C7.34395 14.7714 6.92132 13.3164 6.62312 11.8505C6.32332 10.3767 6.1612 8.94934 6.22058 7.91812C6.2508 7.39342 6.33498 7.04665 6.43216 6.8554C6.45414 6.81216 6.4734 6.7838 6.48749 6.76624C6.49348 6.7588 6.49834 6.75354 6.50187 6.75C6.72064 6.75062 7.05613 6.87139 7.51868 7.23823C7.96878 7.59521 8.4563 8.11911 8.96406 8.76222C9.8907 9.93587 10.8115 11.4109 11.6277 12.7568C11.4931 12.9931 11.3506 13.2514 11.2041 13.517C11.1354 13.6414 11.0658 13.7676 10.9957 13.8938C10.6814 14.4601 10.3476 15.0462 10.0023 15.5774C9.65356 16.114 9.31371 16.5617 8.9948 16.8678C8.76936 17.0841 8.60406 17.182 8.49553 17.2231ZM12.5002 11.3071C11.7786 10.1352 10.9681 8.8799 10.1413 7.83271C9.60035 7.1475 9.03037 6.52267 8.45077 6.06299C7.8848 5.61413 7.21895 5.25 6.50018 5.25C5.80814 5.25 5.34835 5.67714 5.09492 6.17585C4.85863 6.64085 4.75763 7.23158 4.72306 7.83188C4.65288 9.05066 4.84277 10.6233 5.15323 12.1495C5.46529 13.6836 5.91115 15.2286 6.38329 16.4045C6.61762 16.9881 6.8707 17.5118 7.13362 17.9029C7.26421 18.0971 7.41652 18.2879 7.59331 18.4376C7.76252 18.5809 8.02981 18.75 8.37517 18.75C9.04604 18.75 9.6109 18.3556 10.0335 17.95C10.4749 17.5263 10.888 16.9671 11.26 16.3949C11.6354 15.8173 11.9902 15.1928 12.3072 14.6219C12.3713 14.5063 12.4336 14.3937 12.4939 14.2843C12.5 14.2955 12.506 14.3068 12.5121 14.318C12.5634 14.4139 12.6161 14.5123 12.6702 14.6129C12.9764 15.1827 13.3198 15.809 13.688 16.3884C14.0529 16.9626 14.4643 17.5265 14.9169 17.954C15.3587 18.3715 15.9361 18.75 16.6252 18.75C16.9705 18.75 17.2378 18.5809 17.407 18.4376C17.5838 18.2879 17.7361 18.0971 17.8667 17.9029C18.1297 17.5119 18.3827 16.9881 18.6171 16.4045C19.0892 15.2287 19.5352 13.6836 19.8472 12.1495C20.1577 10.6234 20.3476 9.05067 20.2774 7.83189C20.2429 7.23158 20.1419 6.64085 19.9056 6.17585C19.6522 5.67712 19.1923 5.25 18.5003 5.25C17.7815 5.25 17.1157 5.61411 16.5496 6.06298C15.97 6.52265 15.4 7.14749 14.859 7.8327C14.0322 8.87989 13.2217 10.1352 12.5002 11.3071ZM13.3717 12.7583C14.1881 11.4121 15.1093 9.93633 16.0363 8.76223C16.5441 8.11913 17.0316 7.59522 17.4817 7.23825C17.9443 6.8714 18.2798 6.75062 18.4987 6.75C18.5022 6.75353 18.507 6.7588 18.513 6.76625C18.5271 6.7838 18.5464 6.81216 18.5683 6.8554C18.6655 7.04664 18.7497 7.39342 18.7799 7.91811C18.8393 8.94933 18.6772 10.3767 18.3773 11.8505C18.0791 13.3164 17.6565 14.7713 17.2251 15.8455C17.0077 16.3869 16.8004 16.8006 16.622 17.0659C16.5728 17.139 16.5316 17.1922 16.4992 17.2297C16.3691 17.1911 16.1865 17.0899 15.947 16.8637C15.6272 16.5616 15.2937 16.1185 14.9539 15.5839C14.6175 15.0545 14.2964 14.4701 13.9914 13.9028C13.9411 13.8091 13.8909 13.7154 13.8411 13.6222C13.6799 13.3213 13.522 13.0262 13.3717 12.7583Z" fill="#0A0D14" style="fill:#0A0D14;fill:color(display-p3 0.0392 0.0510 0.0784);fill-opacity:1;"/>
</svg>
