<svg width="25" height="24" viewBox="0 0 25 24" fill="none" xmlns="http://www.w3.org/2000/svg">
<path d="M6.6113 17.566C4.7222 16.2088 3.5 14.1595 3.5 11.9167C3.5 7.79015 7.5275 4.43945 12.5 4.43945C17.4725 4.43945 21.5 7.79015 21.5 11.9167C21.5 16.0423 17.4725 19.393 12.5 19.393C11.5034 19.3989 10.5113 19.2591 9.5552 18.9781C9.4724 18.9511 9.3608 18.9511 9.278 18.9511C9.1115 18.9511 8.945 19.0051 8.8055 19.0888L6.8336 20.2237C6.78298 20.2545 6.72608 20.2735 6.6671 20.2795C6.5864 20.279 6.50911 20.2468 6.45187 20.1899C6.39464 20.133 6.36204 20.056 6.3611 19.9753C6.3611 19.8916 6.3881 19.8367 6.4169 19.753C6.4439 19.726 6.6941 18.8116 6.8336 18.2581C6.8336 18.2023 6.8606 18.1195 6.8606 18.0637C6.8606 17.8423 6.7778 17.6767 6.6113 17.566ZM9.5003 10.6594C10.1456 10.6594 10.6568 10.1482 10.6568 9.50285C10.6568 8.85665 10.1456 8.34545 9.5003 8.34545C8.8541 8.34545 8.3438 8.85665 8.3438 9.50285C8.3438 10.1482 8.8541 10.6594 9.5003 10.6594ZM15.4997 10.6594C16.1459 10.6594 16.6562 10.1482 16.6562 9.50285C16.6562 8.85665 16.1459 8.34545 15.4997 8.34545C14.8544 8.34545 14.3432 8.85665 14.3432 9.50285C14.3432 10.1482 14.8544 10.6594 15.4997 10.6594Z" fill="#0A0D14" style="fill:#0A0D14;fill:color(display-p3 0.0392 0.0510 0.0784);fill-opacity:1;"/>
</svg>
