<svg width="25" height="24" viewBox="0 0 25 24" fill="none" xmlns="http://www.w3.org/2000/svg">
<path d="M18.9305 9.29378L10.1114 14.341L10.0484 14.3824C9.96461 14.4242 9.87198 14.4452 9.77837 14.4436C9.67146 14.4442 9.56641 14.4157 9.47446 14.3611C9.38251 14.3066 9.30712 14.2281 9.25637 14.134L9.21497 14.0512L7.56797 10.4962C7.54637 10.4548 7.54637 10.4134 7.54637 10.372C7.54637 10.2064 7.67147 10.0831 7.83797 10.0831C7.90097 10.0831 7.96397 10.1038 8.02607 10.1452L9.96557 11.5087C10.1114 11.5915 10.2788 11.6536 10.466 11.6536C10.5734 11.653 10.6797 11.6319 10.7792 11.5915L18.2267 8.30828C16.9406 6.84578 14.8706 5.88008 12.5 5.88008C8.52197 5.88008 5.38997 8.59988 5.38997 11.8201C5.38997 13.0495 5.83997 14.2258 6.67877 15.223C6.72197 15.2743 6.78677 15.3463 6.87137 15.4345C7.22513 15.8029 7.49645 16.2424 7.66729 16.7237C7.83814 17.2051 7.9046 17.7173 7.86227 18.2263L7.83977 18.4936L8.48417 18.1012C9.21283 17.6569 10.0756 17.4859 10.9187 17.6188C11.1095 17.6485 11.2661 17.6719 11.3867 17.6872C11.7521 17.7358 12.1247 17.7601 12.5 17.7601C16.478 17.7601 19.61 15.0403 19.61 11.8201C19.61 10.9237 19.367 10.0651 18.9305 9.29378ZM7.27277 20.9488C7.13109 21.0372 6.9676 21.0845 6.80059 21.0853C6.63358 21.0861 6.46964 21.0404 6.32711 20.9534C6.18458 20.8663 6.06908 20.7413 5.99354 20.5924C5.91799 20.4434 5.88539 20.2764 5.89937 20.11L6.06857 18.0769C6.08979 17.8224 6.05663 17.5663 5.97129 17.3257C5.88594 17.085 5.75037 16.8652 5.57357 16.681C5.47917 16.584 5.38792 16.4841 5.29997 16.3813C4.22537 15.1024 3.58997 13.5256 3.58997 11.8201C3.58997 7.54508 7.57877 4.08008 12.5 4.08008C17.4212 4.08008 21.41 7.54508 21.41 11.8201C21.41 16.0951 17.4212 19.5601 12.5 19.5601C12.041 19.5601 11.591 19.5304 11.1509 19.4719C10.9799 19.4488 10.8092 19.4236 10.6388 19.3963C10.2171 19.3297 9.78552 19.4152 9.42107 19.6375L7.27277 20.9479V20.9488Z" fill="#0A0D14" style="fill:#0A0D14;fill:color(display-p3 0.0392 0.0510 0.0784);fill-opacity:1;"/>
</svg>
