<svg width="25" height="24" viewBox="0 0 25 24" fill="none" xmlns="http://www.w3.org/2000/svg">
<path d="M18.4166 13.5403C18.6301 13.5375 18.834 13.4514 18.985 13.3005C19.1359 13.1495 19.222 12.9456 19.2248 12.7321C19.2248 12.2839 18.8657 11.9239 18.4166 11.9239C17.9675 11.9239 17.6084 12.2839 17.6084 12.7321C17.6084 13.1821 17.9684 13.5403 18.4166 13.5403ZM14.4341 13.5403C14.6476 13.5375 14.8515 13.4514 15.0025 13.3005C15.1534 13.1495 15.2395 12.9456 15.2423 12.7321C15.2423 12.2839 14.8823 11.9239 14.4341 11.9239C13.9841 11.9239 13.6259 12.2839 13.6259 12.7321C13.6259 13.1821 13.985 13.5403 14.4341 13.5403ZM20.3444 18.0763C20.2867 18.1083 20.2407 18.1578 20.2129 18.2176C20.1851 18.2775 20.1769 18.3446 20.1896 18.4093C20.1896 18.4525 20.1896 18.4966 20.2121 18.5416C20.3003 18.9169 20.4767 19.5145 20.4767 19.537C20.4767 19.6027 20.4992 19.6468 20.4992 19.6918C20.4992 19.7179 20.494 19.7437 20.484 19.7678C20.474 19.7919 20.4593 19.8137 20.4409 19.8321C20.4224 19.8505 20.4004 19.8651 20.3763 19.875C20.3522 19.8849 20.3264 19.8899 20.3003 19.8898C20.2553 19.8898 20.2337 19.8682 20.1896 19.8466L18.8855 19.0942C18.7903 19.0418 18.6844 19.0116 18.5759 19.006C18.5102 19.006 18.4436 19.006 18.3995 19.0276C17.7803 19.2049 17.1395 19.2931 16.4546 19.2931C13.1606 19.2931 10.5083 17.0818 10.5083 14.3386C10.5083 11.5963 13.1606 9.38409 16.4546 9.38409C19.7477 9.38409 22.4 11.5963 22.4 14.3386C22.4 15.8209 21.6044 17.17 20.3444 18.0772V18.0763ZM16.7057 8.48949C16.6217 8.4867 16.5377 8.4852 16.4537 8.48499C12.6971 8.48499 9.60827 11.059 9.60827 14.3395C9.60827 14.8381 9.68028 15.3205 9.81348 15.7795H9.73338C8.94701 15.7715 8.1651 15.6602 7.40778 15.4483C7.34118 15.4258 7.27458 15.4258 7.20798 15.4258C7.07497 15.4286 6.94512 15.4668 6.83178 15.5365L5.25858 16.441C5.21358 16.4635 5.16948 16.486 5.12538 16.486C5.06115 16.4853 4.99974 16.4595 4.95432 16.414C4.9089 16.3686 4.88308 16.3072 4.88238 16.243C4.88238 16.1764 4.90398 16.1323 4.92648 16.0657C4.94808 16.0441 5.14788 15.3151 5.25858 14.8741C5.25858 14.8291 5.28018 14.7634 5.28018 14.7193C5.27993 14.6421 5.26185 14.5661 5.22735 14.4971C5.19285 14.4281 5.14285 14.368 5.08128 14.3215C3.55218 13.2388 2.59998 11.6278 2.59998 9.83859C2.59998 6.55089 5.81298 3.90039 9.75498 3.90039C13.1435 3.90039 15.992 5.85249 16.7057 8.48859V8.48949ZM12.0671 8.86569C12.5828 8.86569 12.9905 8.43639 12.9905 7.94229C12.9905 7.42659 12.5828 7.01889 12.0671 7.01889C11.5514 7.01889 11.1437 7.42659 11.1437 7.94229C11.1437 8.45799 11.5514 8.86569 12.0671 8.86569ZM7.33308 8.86569C7.84878 8.86569 8.25738 8.43639 8.25738 7.94229C8.25738 7.42659 7.84878 7.01889 7.33308 7.01889C6.81828 7.01889 6.40968 7.42659 6.40968 7.94229C6.40968 8.45799 6.81828 8.86569 7.33308 8.86569Z" fill="#0A0D14" style="fill:#0A0D14;fill:color(display-p3 0.0392 0.0510 0.0784);fill-opacity:1;"/>
</svg>
