<svg width="25" height="24" viewBox="0 0 25 24" fill="none" xmlns="http://www.w3.org/2000/svg">
<path d="M10.7 14.4085V14.3527C10.7 12.0955 12.5144 10.1965 14.9777 9.64298C14.6501 7.57118 12.4631 5.88008 9.70998 5.88008C6.72198 5.88008 4.39998 7.87178 4.39998 10.1821C4.39998 11.0542 4.72398 11.8921 5.33598 12.6103C5.36478 12.6445 5.41068 12.6949 5.47278 12.7588C6.00189 13.3026 6.32137 14.0161 6.37458 14.773C7.01726 14.4014 7.76775 14.2611 8.50128 14.3752C8.65068 14.3986 8.77308 14.4166 8.86578 14.4292C9.47514 14.5083 10.0926 14.5011 10.7 14.4076V14.4085ZM11.1113 16.1644C10.2925 16.305 9.45729 16.3216 8.63358 16.2139C8.49714 16.1954 8.36093 16.1753 8.22498 16.1536C7.88862 16.1012 7.54456 16.1687 7.25298 16.3444L5.53938 17.3776C5.4074 17.4589 5.25285 17.4958 5.09838 17.4829C5.00495 17.4758 4.91383 17.4504 4.83025 17.4081C4.74667 17.3657 4.67227 17.3073 4.61132 17.2361C4.55036 17.165 4.50406 17.0825 4.47505 16.9934C4.44604 16.9043 4.4349 16.8104 4.44228 16.717L4.57728 15.1141C4.5941 14.913 4.56753 14.7107 4.49936 14.5208C4.4312 14.3309 4.32303 14.1578 4.18218 14.0134C4.10737 13.9371 4.03503 13.8585 3.96528 13.7776C3.10668 12.7696 2.59998 11.5258 2.59998 10.1812C2.59998 6.81158 5.78328 4.08008 9.70998 4.08008C13.364 4.08008 16.3727 6.44438 16.775 9.48728C19.8098 9.62498 22.22 11.7508 22.22 14.3527C22.22 15.4264 21.8096 16.4191 21.1139 17.2237C21.068 17.2777 21.0095 17.3407 20.9384 17.4127C20.8246 17.5272 20.7371 17.6651 20.6817 17.8167C20.6264 17.9684 20.6047 18.1302 20.618 18.2911L20.7269 19.5718C20.7324 19.6469 20.723 19.7223 20.6993 19.7938C20.6755 19.8652 20.6379 19.9313 20.5886 19.9881C20.5392 20.045 20.4791 20.0916 20.4117 20.1251C20.3444 20.1587 20.271 20.1786 20.1959 20.1838C20.0708 20.194 19.9458 20.1644 19.8386 20.0992L18.4499 19.2739C18.2131 19.1338 17.9352 19.08 17.6633 19.1218C17.531 19.1425 17.4203 19.1578 17.3321 19.1695C17.0477 19.2055 16.7561 19.2253 16.46 19.2253C14.0354 19.2253 11.9618 17.9581 11.1113 16.1644ZM17.3906 17.3434C17.8985 17.2652 18.418 17.3191 18.899 17.5C19.0252 16.9895 19.2867 16.5226 19.6559 16.1482C19.7009 16.1032 19.7342 16.0672 19.7513 16.0474C20.1914 15.5389 20.42 14.9557 20.42 14.3527C20.42 12.7291 18.7073 11.2801 16.46 11.2801C14.2127 11.2801 12.5 12.7291 12.5 14.3527C12.5 15.9763 14.2127 17.4253 16.46 17.4253C16.6769 17.4253 16.892 17.4109 17.1026 17.3839C17.1746 17.3749 17.2718 17.3614 17.3906 17.3425V17.3434Z" fill="#0A0D14" style="fill:#0A0D14;fill:color(display-p3 0.0392 0.0510 0.0784);fill-opacity:1;"/>
</svg>
