<svg width="25" height="24" viewBox="0 0 25 24" fill="none" xmlns="http://www.w3.org/2000/svg">
<path d="M10.043 14.4019C9.90536 14.4721 9.74582 14.4861 9.59806 14.4409C9.45029 14.3958 9.32585 14.295 9.251 14.1598L9.2123 14.0743L7.5761 10.4761C7.56939 10.4328 7.56939 10.3888 7.5761 10.3456C7.57597 10.3062 7.58372 10.2673 7.59891 10.231C7.61409 10.1947 7.6364 10.1618 7.66451 10.1343C7.69261 10.1068 7.72595 10.0852 7.76255 10.0708C7.79916 10.0564 7.83827 10.0494 7.8776 10.0504C7.94152 10.049 8.00391 10.07 8.054 10.1098L10.016 11.4841C10.1615 11.5814 10.3324 11.6337 10.5074 11.6344C10.6129 11.635 10.7175 11.6148 10.8152 11.575L19.8575 7.52498C18.9301 6.50072 17.7937 5.68739 16.5251 5.13994C15.2564 4.59248 13.885 4.32365 12.5036 4.35158C7.5302 4.35158 3.5 7.70858 3.5 11.8828C3.52914 13.0073 3.82703 14.1084 4.36878 15.0942C4.91053 16.08 5.68039 16.9218 6.614 17.5492C6.71334 17.6224 6.78748 17.7247 6.82618 17.8419C6.86487 17.9592 6.86621 18.0855 6.83 18.2035L6.425 19.7344C6.40038 19.8041 6.38495 19.8767 6.3791 19.9504C6.37824 19.9901 6.38543 20.0296 6.40023 20.0664C6.41503 20.1033 6.43714 20.1368 6.46523 20.1649C6.49332 20.1929 6.5268 20.2151 6.56366 20.2299C6.60051 20.2447 6.63999 20.2518 6.6797 20.251C6.74009 20.2477 6.79878 20.2298 6.8507 20.1988L8.8127 19.0603C8.9567 18.9721 9.1214 18.9244 9.2906 18.9235C9.3797 18.9235 9.4679 18.9361 9.5516 18.9622C10.5083 19.2322 11.4965 19.369 12.4901 19.3672C17.4626 19.3672 21.4991 16.0111 21.4991 11.8702C21.5085 10.6352 21.1661 9.423 20.5118 8.37548L10.115 14.3623L10.043 14.4019Z" fill="#0A0D14" style="fill:#0A0D14;fill:color(display-p3 0.0392 0.0510 0.0784);fill-opacity:1;"/>
</svg>
