<svg width="25" height="24" viewBox="0 0 25 24" fill="none" xmlns="http://www.w3.org/2000/svg">
<path d="M17.4725 11.4398C18.6092 11.7926 19.8746 12.6422 19.8746 14.1434C19.8746 16.6301 16.2926 19.7585 10.907 19.7585C6.79851 19.7585 2.60001 17.7668 2.60001 14.4917C2.60001 12.7799 3.68361 10.7999 5.54931 8.93235C8.04501 6.43935 10.9529 5.30265 12.0464 6.39795C12.5297 6.88125 12.5756 7.71555 12.266 8.71275C12.1058 9.21405 12.7385 8.93775 12.7385 8.93775C14.7545 8.09355 16.5149 8.04315 17.1566 8.96205C17.4986 9.45075 17.4653 10.1375 17.1494 10.9331C17.0027 11.2994 17.1926 11.357 17.4734 11.4398H17.4725ZM10.9187 18.5849C14.1956 18.2591 16.6796 16.2521 16.469 14.1002C16.2557 11.9483 13.4252 10.466 10.1483 10.7909C6.87231 11.1149 4.38561 13.1219 4.59801 15.2729C4.81131 17.4275 7.64181 18.908 10.9187 18.5849ZM7.24401 14.1938C7.92261 12.8195 9.68481 12.0428 11.2454 12.4478C12.8591 12.8645 13.6817 14.3864 13.0238 15.8678C12.3542 17.3816 10.43 18.188 8.79831 17.6615C7.22151 17.1521 6.55461 15.5969 7.24401 14.1938ZM8.54541 16.5221C9.05661 16.7534 9.73791 16.5338 10.0538 16.0271C10.3652 15.5159 10.2005 14.9318 9.68751 14.714C9.18081 14.5007 8.52561 14.7212 8.21151 15.2117C7.89291 15.704 8.04141 16.2935 8.54541 16.5221ZM10.5308 14.8949C10.7279 14.9777 10.9817 14.8841 11.096 14.687C11.2067 14.489 11.1356 14.2676 10.9358 14.1938C10.7414 14.1182 10.4984 14.21 10.3841 14.4026C10.2734 14.5952 10.3355 14.8148 10.5308 14.8949ZM19.5857 9.74955C19.5597 9.83178 19.5177 9.90805 19.462 9.97393C19.4064 10.0398 19.3382 10.094 19.2615 10.1334C19.1848 10.1728 19.101 10.1965 19.015 10.2033C18.929 10.2101 18.8426 10.1998 18.7606 10.173C18.6786 10.1462 18.6028 10.1034 18.5375 10.0471C18.4722 9.99074 18.4187 9.92203 18.3801 9.84491C18.3415 9.76779 18.3185 9.68378 18.3126 9.59774C18.3067 9.5117 18.3179 9.42534 18.3455 9.34365C18.414 9.13532 18.426 8.91258 18.3805 8.69807C18.335 8.48355 18.2335 8.28492 18.0863 8.12235C17.9387 7.9604 17.7514 7.83989 17.5428 7.77278C17.3342 7.70568 17.1117 7.69433 16.8974 7.73985C16.8137 7.75776 16.7273 7.75901 16.6432 7.74353C16.559 7.72805 16.4787 7.69614 16.4069 7.64964C16.2618 7.55571 16.16 7.408 16.1239 7.239C16.0877 7.07001 16.1201 6.89357 16.2141 6.7485C16.308 6.60343 16.4557 6.50162 16.6247 6.46545C17.063 6.37181 17.5183 6.39523 17.9447 6.53336C18.371 6.6715 18.7535 6.91948 19.0537 7.25236C19.3538 7.58524 19.561 7.99128 19.6544 8.42965C19.7478 8.86801 19.7241 9.32325 19.5857 9.74955ZM16.0613 3.83205C16.9615 3.64022 17.8963 3.6885 18.7719 3.97205C19.6475 4.25561 20.4332 4.76446 21.05 5.44755C21.6673 6.13173 22.0936 6.96625 22.2864 7.86734C22.4791 8.76842 22.4314 9.70435 22.148 10.5812C22.1176 10.6759 22.0687 10.7637 22.0042 10.8395C21.9398 10.9153 21.8609 10.9776 21.7722 11.0228C21.6835 11.068 21.5868 11.0952 21.4875 11.1028C21.3883 11.1104 21.2885 11.0983 21.194 11.0672C21.0027 11.0049 20.8439 10.8693 20.7525 10.6901C20.661 10.5109 20.6444 10.3028 20.7062 10.1114C20.9077 9.48871 20.9417 8.824 20.8049 8.18404C20.6681 7.54407 20.3652 6.95139 19.9268 6.46553C19.4884 5.97968 18.9298 5.61777 18.3072 5.41617C17.6846 5.21457 17.0199 5.18039 16.3799 5.31705C16.1877 5.34757 15.9911 5.30324 15.8306 5.1932C15.6701 5.08316 15.5579 4.91577 15.5171 4.72549C15.4763 4.53522 15.5099 4.33653 15.6112 4.17033C15.7124 4.00413 15.8735 3.88307 16.0613 3.83205Z" fill="#0A0D14" style="fill:#0A0D14;fill:color(display-p3 0.0392 0.0510 0.0784);fill-opacity:1;"/>
</svg>
