<svg width="25" height="24" viewBox="0 0 25 24" fill="none" xmlns="http://www.w3.org/2000/svg">
<path d="M19.8746 13.9769C19.8746 17.0027 15.7976 19.7585 10.9412 19.7585C6.48621 19.7576 2.60001 17.5697 2.60001 14.2802C2.60001 12.5279 3.66201 10.6019 5.51601 8.80102C8.06481 6.32962 11.1221 5.17132 12.5882 6.59782C13.0364 7.03162 13.2389 7.60762 13.2353 8.27002C15.0128 7.75162 16.5203 7.90642 17.27 8.94682C17.6741 9.50752 17.7488 10.1888 17.5634 10.9331C18.9233 11.4821 19.8746 12.5261 19.8746 13.9769ZM15.8786 12.1139C15.5312 11.7449 15.5186 11.2859 15.7004 10.8449C15.8876 10.3877 15.8921 10.1141 15.8084 9.99892C15.5708 9.66772 14.4287 9.67222 12.9338 10.2788C12.7872 10.3405 12.6332 10.3828 12.4757 10.4048C12.1661 10.4462 11.8718 10.4057 11.591 10.1663C11.2139 9.84322 11.1644 9.39682 11.3012 8.98192C11.4947 8.37892 11.4632 8.01352 11.3345 7.88842C11.1671 7.72642 10.6352 7.71652 9.84141 8.01712C8.87931 8.38162 7.77321 9.11872 6.76881 10.0925C5.23251 11.5856 4.40001 13.0958 4.40001 14.2802C4.40001 16.298 7.34841 17.9585 10.9412 17.9585C14.9192 17.9585 18.0746 15.8255 18.0746 13.9769C18.0746 13.3127 17.5013 12.7718 16.5689 12.4901C16.2143 12.3884 16.0865 12.3362 15.8786 12.1148V12.1139ZM22.2272 10.6586C22.1673 10.8897 22.018 11.0875 21.8123 11.2085C21.6066 11.3295 21.3612 11.3638 21.1301 11.3039C20.8991 11.244 20.7013 11.0948 20.5802 10.889C20.4592 10.6833 20.4249 10.4379 20.4848 10.2068C20.6396 9.61346 20.6402 8.9904 20.4866 8.39674C20.333 7.80307 20.0304 7.25847 19.6073 6.81457C19.1842 6.37068 18.6548 6.04222 18.0692 5.86032C17.4836 5.67843 16.8612 5.64913 16.2611 5.77522C16.1448 5.80087 16.0245 5.80318 15.9073 5.78201C15.7901 5.76085 15.6783 5.71662 15.5783 5.65191C15.4783 5.5872 15.3921 5.50328 15.3248 5.40502C15.2575 5.30676 15.2104 5.19612 15.1861 5.0795C15.1619 4.96289 15.161 4.84262 15.1836 4.72568C15.2062 4.60873 15.2518 4.49743 15.3177 4.39823C15.3836 4.29903 15.4686 4.2139 15.5676 4.14777C15.6667 4.08165 15.7779 4.03585 15.8948 4.01302C16.7946 3.82466 17.7275 3.8691 18.6053 4.14214C19.483 4.41519 20.2766 4.90779 20.9107 5.5733C21.5448 6.2388 21.9986 7.05517 22.229 7.94509C22.4594 8.83501 22.4588 9.76901 22.2272 10.6586Z" fill="#0A0D14" style="fill:#0A0D14;fill:color(display-p3 0.0392 0.0510 0.0784);fill-opacity:1;"/>
</svg>
