<svg width="25" height="24" viewBox="0 0 25 24" fill="none" xmlns="http://www.w3.org/2000/svg">
<path d="M8.22771 17.8446L8.87931 18.2253C9.97816 18.8662 11.2279 19.2026 12.5 19.2C13.924 19.2 15.3161 18.7777 16.5001 17.9866C17.6842 17.1954 18.607 16.0709 19.1519 14.7553C19.6969 13.4397 19.8395 11.992 19.5617 10.5953C19.2839 9.19869 18.5981 7.91577 17.5912 6.90883C16.5842 5.90189 15.3013 5.21616 13.9047 4.93835C12.508 4.66053 11.0603 4.80312 9.74469 5.34807C8.42906 5.89302 7.30458 6.81586 6.51343 7.99989C5.72228 9.18393 5.30001 10.576 5.30001 12C5.30001 13.2924 5.63931 14.5317 6.27561 15.6216L6.65541 16.2732L6.06771 18.4341L8.22771 17.8446ZM3.50361 21L4.72041 16.5288C3.91864 15.1544 3.4974 13.5912 3.50001 12C3.50001 7.0293 7.52931 3 12.5 3C17.4707 3 21.5 7.0293 21.5 12C21.5 16.9707 17.4707 21 12.5 21C10.9095 21.0026 9.347 20.5817 7.97301 19.7805L3.50361 21ZM9.25191 7.7772C9.37251 7.7682 9.49401 7.7682 9.61461 7.7736C9.66321 7.7772 9.71181 7.7826 9.76041 7.788C9.90351 7.8042 10.061 7.8915 10.1141 8.0121C10.3823 8.6205 10.6433 9.2334 10.8953 9.8481C10.9511 9.9849 10.9178 10.1604 10.8116 10.3314C10.7386 10.447 10.6596 10.5588 10.5749 10.6662C10.4732 10.7967 10.2545 11.0361 10.2545 11.0361C10.2545 11.0361 10.1654 11.1423 10.1996 11.2746C10.2122 11.325 10.2536 11.3979 10.2914 11.4591L10.3445 11.5446C10.5749 11.9289 10.8845 12.3186 11.2625 12.6858C11.3705 12.7902 11.4758 12.8973 11.5892 12.9972C12.0104 13.3689 12.4874 13.6722 13.0022 13.8972L13.0067 13.899C13.0832 13.9323 13.1219 13.9503 13.2335 13.998C13.2893 14.0214 13.3469 14.0421 13.4054 14.0574C13.4659 14.0728 13.5295 14.0699 13.5883 14.0491C13.6471 14.0282 13.6984 13.9904 13.7357 13.9404C14.3873 13.1511 14.4467 13.0998 14.4521 13.0998V13.1016C14.4974 13.0594 14.5512 13.0273 14.6098 13.0076C14.6685 12.9879 14.7307 12.981 14.7923 12.9873C14.8463 12.9909 14.9012 13.0008 14.9516 13.0233C15.4295 13.242 16.2116 13.5831 16.2116 13.5831L16.7354 13.818C16.8236 13.8603 16.9037 13.9602 16.9064 14.0565C16.91 14.1168 16.9154 14.214 16.8947 14.3922C16.8659 14.6253 16.7957 14.9052 16.7255 15.0519C16.6774 15.152 16.6136 15.2438 16.5365 15.3237C16.4457 15.4191 16.3463 15.5058 16.2395 15.5829C16.2026 15.6107 16.1651 15.6377 16.127 15.6639C16.0151 15.7349 15.9001 15.801 15.7823 15.8619C15.5506 15.985 15.2947 16.0556 15.0326 16.0689C14.8661 16.0779 14.6996 16.0905 14.5322 16.0815C14.525 16.0815 14.021 16.0032 14.021 16.0032C12.7414 15.6666 11.5581 15.0361 10.565 14.1618C10.3616 13.9827 10.1735 13.7901 9.98091 13.5984C9.17991 12.8019 8.57511 11.9424 8.20791 11.1306C8.01996 10.7322 7.91844 10.2985 7.91001 9.858C7.9063 9.31157 8.08492 8.7795 8.41761 8.346C8.48331 8.2614 8.54541 8.1732 8.65251 8.0715C8.76681 7.9635 8.83881 7.9059 8.91711 7.8663C9.02122 7.81413 9.13479 7.78352 9.25101 7.7763L9.25191 7.7772Z" fill="#0A0D14" style="fill:#0A0D14;fill:color(display-p3 0.0392 0.0510 0.0784);fill-opacity:1;"/>
</svg>
