<svg width="25" height="24" viewBox="0 0 25 24" fill="none" xmlns="http://www.w3.org/2000/svg">
<path d="M3.50361 21L4.72041 16.5288C3.91864 15.1544 3.4974 13.5912 3.50001 12C3.50001 7.0293 7.52931 3 12.5 3C17.4707 3 21.5 7.0293 21.5 12C21.5 16.9707 17.4707 21 12.5 21C10.9095 21.0026 9.347 20.5817 7.97301 19.7805L3.50361 21ZM9.25191 7.7772C9.13569 7.78442 9.02212 7.81503 8.91801 7.8672C8.82038 7.92249 8.73126 7.9916 8.65341 8.0724C8.54541 8.1741 8.48421 8.2623 8.41851 8.3478C8.08588 8.7807 7.90696 9.31208 7.91001 9.858C7.91181 10.299 8.02701 10.7283 8.20701 11.1297C8.57511 11.9415 9.18081 12.801 9.98091 13.5975C10.1735 13.7892 10.3616 13.9818 10.5641 14.1609C11.5572 15.0352 12.7405 15.6657 14.0201 16.0023L14.5322 16.0806C14.6987 16.0896 14.8652 16.077 15.0326 16.0689C15.2947 16.0554 15.5507 15.9844 15.7823 15.861C15.9317 15.7818 16.0019 15.7422 16.127 15.663C16.127 15.663 16.1657 15.6378 16.2395 15.582C16.361 15.492 16.4357 15.4281 16.5365 15.3228C16.6112 15.2454 16.676 15.1545 16.7255 15.051C16.7957 14.9043 16.8659 14.6244 16.8947 14.3913C16.9163 14.2131 16.91 14.1159 16.9073 14.0556C16.9037 13.9593 16.8236 13.8594 16.7363 13.8171L16.2125 13.5822C16.2125 13.5822 15.4295 13.2411 14.9516 13.0233C14.9012 13.0013 14.8472 12.9888 14.7923 12.9864C14.7307 12.9801 14.6685 12.987 14.6098 13.0067C14.5512 13.0264 14.4974 13.0585 14.4521 13.1007V13.0989C14.4476 13.0989 14.3873 13.1502 13.7366 13.9386C13.6993 13.9888 13.6478 14.0267 13.5888 14.0476C13.5298 14.0684 13.466 14.0712 13.4054 14.0556C13.3468 14.0399 13.2893 14.0201 13.2335 13.9962C13.1219 13.9494 13.0832 13.9314 13.0067 13.8981L13.0022 13.8963C12.4873 13.6715 12.0106 13.3679 11.5892 12.9963C11.4758 12.8973 11.3705 12.7893 11.2625 12.6849C10.9084 12.3458 10.5999 11.9622 10.3445 11.5437L10.2914 11.4582C10.2533 11.4007 10.2224 11.3388 10.1996 11.2737C10.1654 11.1414 10.2545 11.0352 10.2545 11.0352C10.2545 11.0352 10.4732 10.7958 10.5749 10.6662C10.6596 10.5585 10.7386 10.4464 10.8116 10.3305C10.9178 10.1595 10.9511 9.984 10.8953 9.8481C10.6433 9.2325 10.3823 8.6196 10.1141 8.0112C10.061 7.8906 9.90351 7.8042 9.76041 7.7871C9.71181 7.7817 9.66321 7.7763 9.61461 7.7727C9.49375 7.7667 9.37263 7.7679 9.25191 7.7763V7.7772Z" fill="#0A0D14" style="fill:#0A0D14;fill:color(display-p3 0.0392 0.0510 0.0784);fill-opacity:1;"/>
</svg>
