<svg width="25" height="24" viewBox="0 0 25 24" fill="none" xmlns="http://www.w3.org/2000/svg">
<path d="M8.89999 10.5069V12.4815C7.82359 13.1043 7.09999 14.268 7.09999 15.6C7.09999 17.589 8.71099 19.2 10.7 19.2C12.032 19.2 13.1957 18.4764 13.8185 17.4H15.7922C15.0515 19.497 13.0508 21 10.7 21C7.71739 21 5.29999 18.5826 5.29999 15.6C5.29999 13.2483 6.80299 11.2485 8.89999 10.5069ZM12.5 16.5C11.0087 16.5 9.79999 15.2913 9.79999 13.8V10.2C9.79999 9.2604 10.2806 8.4324 11.0087 7.9491C10.2797 7.4676 9.79999 6.6396 9.79999 5.7C9.79999 4.2087 11.0087 3 12.5 3C13.9913 3 15.2 4.2087 15.2 5.7C15.2 6.6396 14.7194 7.4676 13.9913 7.9509C14.7203 8.4324 15.2 9.2604 15.2 10.2V14.6991L16.4906 14.7C17.0738 14.7 17.6183 14.9826 17.954 15.4524L18.0341 15.5739L20.4713 19.6374L18.9287 20.5626L16.4897 16.5L15.2 16.4991L12.5 16.5ZM12.5 9.3C12.0032 9.3 11.6 9.7032 11.6 10.2V13.8C11.6 14.2968 12.0032 14.7 12.5 14.7H13.3991L13.4 10.2C13.4 9.7032 12.9968 9.3 12.5 9.3ZM12.5 4.8C12.0032 4.8 11.6 5.2032 11.6 5.7C11.6 6.1968 12.0032 6.6 12.5 6.6C12.9968 6.6 13.4 6.1968 13.4 5.7C13.4 5.2032 12.9968 4.8 12.5 4.8Z" fill="#0A0D14" style="fill:#0A0D14;fill:color(display-p3 0.0392 0.0510 0.0784);fill-opacity:1;"/>
</svg>
