<svg width="25" height="24" viewBox="0 0 25 24" fill="none" xmlns="http://www.w3.org/2000/svg">
<path d="M8.89999 10.5069V12.4815C7.82359 13.1043 7.09999 14.268 7.09999 15.6C7.09999 17.589 8.71099 19.2 10.7 19.2C12.032 19.2 13.1957 18.4764 13.8185 17.4H15.7922C15.0515 19.497 13.0508 21 10.7 21C7.71739 21 5.29999 18.5826 5.29999 15.6C5.29999 13.2483 6.80299 11.2485 8.89999 10.5069ZM12.5 16.5C11.0087 16.5 9.79999 15.2913 9.79999 13.8V10.2C9.79999 8.7087 11.0087 7.5 12.5 7.5C13.9913 7.5 15.2 8.7087 15.2 10.2V14.7H16.4906C17.0738 14.7 17.6183 14.9826 17.954 15.4524L18.0341 15.5739L20.4713 19.6374L18.9287 20.5626L16.4897 16.5H12.5ZM12.5 3C13.742 3 14.75 4.008 14.75 5.25C14.75 6.492 13.742 7.5 12.5 7.5C11.258 7.5 10.25 6.492 10.25 5.25C10.25 4.008 11.258 3 12.5 3Z" fill="#0A0D14" style="fill:#0A0D14;fill:color(display-p3 0.0392 0.0510 0.0784);fill-opacity:1;"/>
</svg>
