<svg width="25" height="24" viewBox="0 0 25 24" fill="none" xmlns="http://www.w3.org/2000/svg">
<path d="M2.32104 7.49771C5.20023 5.16519 8.79461 3.89493 12.5 3.90041C16.3565 3.90041 19.898 5.24771 22.679 7.49771L20.9825 9.59741C18.5831 7.65388 15.5878 6.59559 12.5 6.60041C9.28705 6.60041 6.33505 7.72361 4.01754 9.59741L2.32104 7.49771ZM5.14795 10.9987C7.22749 9.31391 9.82366 8.39639 12.5 8.40041C15.2846 8.40041 17.8424 9.37331 19.8521 10.9978L18.1556 13.0984C16.5559 11.8026 14.5588 11.0971 12.5 11.1004C10.358 11.1004 8.39065 11.8492 6.84445 13.0984L5.14795 10.9978V10.9987ZM7.97575 14.4997C9.25541 13.4628 10.853 12.8981 12.5 12.9004C14.2136 12.9004 15.7877 13.4989 17.0243 14.4988L15.3278 16.5994C14.5279 15.9516 13.5294 15.5988 12.5 15.6004C11.4707 15.5988 10.4722 15.9516 9.67225 16.5994L7.97575 14.4988V14.4997ZM10.8035 18.0007C11.2833 17.6117 11.8824 17.3997 12.5 17.4004C13.1426 17.4004 13.733 17.6254 14.1965 17.9998L12.5 20.1004L10.8035 17.9998V18.0007Z" fill="#0A0D14" style="fill:#0A0D14;fill:color(display-p3 0.0392 0.0510 0.0784);fill-opacity:1;"/>
</svg>
