<svg width="25" height="24" viewBox="0 0 25 24" fill="none" xmlns="http://www.w3.org/2000/svg">
<path d="M12.5 17.4004C13.1426 17.4004 13.733 17.6254 14.1974 17.9998L12.5 20.1004L10.8026 17.9998C11.2827 17.6109 11.8821 17.3992 12.5 17.4004ZM4.22717 2.4541L20.1365 18.3643L18.8639 19.6369L14.2019 14.9749C13.653 14.7928 13.0783 14.7001 12.5 14.7004C11.2148 14.7004 10.034 15.1495 9.10697 15.8992L7.97657 14.4988C9.15921 13.5407 10.6162 12.984 12.1364 12.9094L9.79997 10.573C8.51492 10.9373 7.31715 11.5585 6.27917 12.3991L5.14697 10.9987C6.11699 10.2132 7.2066 9.58818 8.37437 9.1474L6.31877 7.0909C5.29555 7.57817 4.3334 8.18446 3.45227 8.8972L2.32007 7.4977C3.14357 6.8317 4.03277 6.2458 4.97687 5.7499L2.95367 3.7276L4.22717 2.4541ZM14.75 10.4569L12.6944 8.4022L12.5 8.4004C15.2855 8.4004 17.8433 9.3733 19.853 10.9987L18.7208 12.3991C17.5611 11.4596 16.2035 10.7956 14.75 10.4569ZM12.5 3.9004C16.3565 3.9004 19.898 5.2477 22.679 7.4977L21.5477 8.8972C18.9884 6.82419 15.7935 5.69535 12.5 5.7004C11.7098 5.7004 10.934 5.7634 10.178 5.8867L8.65247 4.3594C9.88457 4.0597 11.1743 3.9004 12.5 3.9004Z" fill="#0A0D14" style="fill:#0A0D14;fill:color(display-p3 0.0392 0.0510 0.0784);fill-opacity:1;"/>
</svg>
