<svg width="25" height="24" viewBox="0 0 25 24" fill="none" xmlns="http://www.w3.org/2000/svg">
<path d="M12.5 17.3994C13.1426 17.3994 13.733 17.6244 14.1974 17.9988L12.5 20.0994L10.8026 17.9988C11.2827 17.6099 11.8821 17.3982 12.5 17.3994ZM4.22717 2.45312L20.1365 18.3633L18.8639 19.6359L15.5501 16.3239L15.3278 16.5993C14.528 15.9512 13.5294 15.5981 12.5 15.5994C11.4709 15.598 10.4727 15.9508 9.67307 16.5984L7.97657 14.4978C9.15921 13.5397 10.6162 12.9831 12.1364 12.9084L10.5407 11.3136C9.18755 11.6146 7.92263 12.2252 6.84527 13.0974L5.14697 10.9977C6.11699 10.2122 7.2066 9.5872 8.37437 9.14642L6.99647 7.76942C5.92846 8.24707 4.92707 8.86151 4.01747 9.59732L2.32007 7.49673C3.14357 6.83073 4.03277 6.24482 4.97687 5.74892L2.95367 3.72663L4.22717 2.45312ZM16.1756 11.8824L12.6944 8.40212L12.5 8.39942C15.2855 8.39942 17.8433 9.37233 19.853 10.9977L18.1556 13.0983C17.5509 12.6089 16.8854 12.1998 16.1756 11.8815V11.8824ZM12.5 3.89942C16.3565 3.89942 19.898 5.24673 22.679 7.49673L20.9834 9.59642C18.5837 7.65271 15.5881 6.5944 12.5 6.59942C11.9852 6.59942 11.4776 6.62822 10.979 6.68402L8.65067 4.35932C9.88457 4.05872 11.1743 3.89942 12.5 3.89942Z" fill="#0A0D14" style="fill:#0A0D14;fill:color(display-p3 0.0392 0.0510 0.0784);fill-opacity:1;"/>
</svg>
