<svg width="25" height="24" viewBox="0 0 25 24" fill="none" xmlns="http://www.w3.org/2000/svg">
<path d="M2.32104 7.49771C5.20023 5.16519 8.79461 3.89493 12.5 3.90041C16.3565 3.90041 19.898 5.24771 22.679 7.49771L21.5486 8.89811C18.9892 6.82458 15.794 5.6954 12.5 5.70041C9.07195 5.70041 5.92464 6.89741 3.45144 8.89811L2.32104 7.49771ZM5.14795 10.9987C7.22749 9.31391 9.82366 8.39639 12.5 8.40041C15.2846 8.40041 17.8424 9.37331 19.8521 10.9978L18.7208 12.3982C16.9612 10.9729 14.7645 10.1968 12.5 10.2004C10.1438 10.2004 7.97934 11.0239 6.27924 12.3982L5.14795 10.9978V10.9987ZM7.97575 14.4997C9.25541 13.4628 10.853 12.8981 12.5 12.9004C14.2136 12.9004 15.7877 13.4989 17.0243 14.4988L15.893 15.8992C14.9333 15.1218 13.7352 14.6985 12.5 14.7004C11.2148 14.7004 10.034 15.1495 9.10704 15.8992L7.97575 14.4988V14.4997ZM10.8035 18.0007C11.2833 17.6117 11.8824 17.3997 12.5 17.4004C13.1426 17.4004 13.733 17.6254 14.1965 17.9998L12.5 20.1004L10.8035 17.9998V18.0007Z" fill="#0A0D14" style="fill:#0A0D14;fill:color(display-p3 0.0392 0.0510 0.0784);fill-opacity:1;"/>
</svg>
