<svg width="25" height="24" viewBox="0 0 25 24" fill="none" xmlns="http://www.w3.org/2000/svg">
<path d="M11.15 16.502H5.3V14.702H11.15C11.7249 14.7022 12.2887 14.8597 12.7805 15.1574C13.2722 15.4552 13.6731 15.8819 13.9397 16.3912C14.2063 16.9005 14.3284 17.4731 14.2928 18.0468C14.2573 18.6206 14.0654 19.1737 13.7379 19.6462C13.4105 20.1187 12.96 20.4926 12.4352 20.7273C11.9104 20.9621 11.3314 21.0488 10.7609 20.978C10.1904 20.9072 9.6502 20.6816 9.19874 20.3257C8.74728 19.9698 8.40183 19.4972 8.1998 18.959L9.8855 18.3263C9.97206 18.5569 10.1201 18.7595 10.3136 18.9121C10.507 19.0646 10.7386 19.1613 10.9831 19.1917C11.2276 19.222 11.4757 19.1849 11.7006 19.0843C11.9255 18.9837 12.1186 18.8235 12.259 18.621C12.3993 18.4185 12.4816 18.1815 12.4968 17.9356C12.5121 17.6897 12.4598 17.4443 12.3455 17.226C12.2313 17.0077 12.0595 16.8248 11.8488 16.6972C11.638 16.5696 11.3964 16.5021 11.15 16.502ZM6.2 11.102H18.35C18.9249 11.1022 19.4887 11.2597 19.9805 11.5574C20.4722 11.8552 20.8731 12.2819 21.1397 12.7912C21.4063 13.3005 21.5284 13.8731 21.4928 14.4468C21.4573 15.0206 21.2654 15.5737 20.9379 16.0462C20.6105 16.5187 20.16 16.8926 19.6352 17.1273C19.1104 17.3621 18.5314 17.4488 17.9609 17.378C17.3904 17.3072 16.8502 17.0816 16.3987 16.7257C15.9473 16.3698 15.6018 15.8972 15.3998 15.359L17.0855 14.7263C17.1721 14.9569 17.3201 15.1595 17.5136 15.3121C17.707 15.4646 17.9386 15.5613 18.1831 15.5917C18.4276 15.622 18.6757 15.5849 18.9006 15.4843C19.1255 15.3837 19.3186 15.2235 19.459 15.021C19.5993 14.8185 19.6816 14.5815 19.6968 14.3356C19.7121 14.0897 19.6598 13.8443 19.5455 13.626C19.4313 13.4077 19.2595 13.2248 19.0488 13.0972C18.838 12.9696 18.5964 12.9021 18.35 12.902H6.2C5.48392 12.902 4.79716 12.6175 4.29081 12.1111C3.78446 11.6048 3.5 10.918 3.5 10.202C3.5 9.48587 3.78446 8.79911 4.29081 8.29276C4.79716 7.78642 5.48392 7.50195 6.2 7.50195H13.85C14.0964 7.50185 14.338 7.43433 14.5488 7.3067C14.7595 7.17907 14.9313 6.9962 15.0455 6.77791C15.1598 6.55962 15.2121 6.31423 15.1968 6.06832C15.1816 5.82242 15.0993 5.58538 14.959 5.38289C14.8186 5.1804 14.6255 5.02018 14.4006 4.91959C14.1757 4.819 13.9276 4.78188 13.6831 4.81224C13.4386 4.84261 13.207 4.9393 13.0136 5.09185C12.8201 5.2444 12.6721 5.44698 12.5855 5.67765L10.8998 5.04585C11.1594 4.35538 11.6531 3.77788 12.2947 3.41398C12.9364 3.05008 13.6854 2.92286 14.4113 3.05447C15.1371 3.18608 15.7938 3.56818 16.2668 4.1342C16.7399 4.70022 16.9993 5.41428 17 6.15195C17 6.98738 16.6681 7.7886 16.0774 8.37934C15.4866 8.97008 14.6854 9.30195 13.85 9.30195H6.2C5.96131 9.30195 5.73239 9.39677 5.5636 9.56556C5.39482 9.73434 5.3 9.96326 5.3 10.202C5.3 10.4406 5.39482 10.6696 5.5636 10.8383C5.73239 11.0071 5.96131 11.102 6.2 11.102Z" fill="#0A0D14" style="fill:#0A0D14;fill:color(display-p3 0.0392 0.0510 0.0784);fill-opacity:1;"/>
</svg>
