<svg width="25" height="24" viewBox="0 0 25 24" fill="none" xmlns="http://www.w3.org/2000/svg">
<path d="M5.23608 5.63574L6.50868 6.90834C5.20548 8.21154 4.39998 10.0115 4.39998 11.9996C4.39998 13.9886 5.20548 15.7886 6.50868 17.0909L5.23698 18.3626C3.60708 16.7345 2.59998 14.4845 2.59998 11.9996C2.59998 9.51474 3.60798 7.26474 5.23608 5.63574ZM19.7639 5.63574C21.3929 7.26474 22.4 9.51474 22.4 11.9996C22.4 14.4845 21.392 16.7354 19.7639 18.3635L18.4913 17.0909C19.7945 15.7877 20.6 13.9877 20.6 11.9996C20.6 10.0115 19.7945 8.21244 18.4922 6.90924L19.763 5.63664L19.7639 5.63574ZM13.4 5.69964V11.0996H16.1L11.6 18.2996V12.8996H8.89998L13.4 5.69964ZM7.78128 8.18094L9.05478 9.45444C8.40318 10.1051 7.99998 11.0051 7.99998 11.9996C7.99998 12.9941 8.40318 13.8941 9.05478 14.5448L7.78128 15.8183C6.80478 14.8409 6.19998 13.4909 6.19998 11.9996C6.19998 10.5083 6.80478 9.15834 7.78128 8.18094ZM17.2196 8.18184C18.1961 9.15924 18.8 10.5092 18.8 11.9996C18.8 13.4909 18.1952 14.8409 17.2187 15.8183L15.9452 14.5448C16.5968 13.8941 17 12.9941 17 11.9996C17 11.006 16.5977 10.106 15.947 9.45534L17.2196 8.18184Z" fill="#0A0D14" style="fill:#0A0D14;fill:color(display-p3 0.0392 0.0510 0.0784);fill-opacity:1;"/>
</svg>
