<svg width="25" height="24" viewBox="0 0 25 24" fill="none" xmlns="http://www.w3.org/2000/svg">
<path d="M5.23608 5.63672L6.50868 6.90932C5.20548 8.21252 4.39998 10.0125 4.39998 12.0006C4.39998 13.9896 5.20548 15.7896 6.50868 17.0919L5.23698 18.3636C3.60708 16.7355 2.59998 14.4855 2.59998 12.0006C2.59998 9.51572 3.60798 7.26572 5.23608 5.63672ZM19.7639 5.63672C21.3929 7.26572 22.4 9.51572 22.4 12.0006C22.4 14.4855 21.392 16.7364 19.7639 18.3645L18.4913 17.0919C19.7945 15.7887 20.6 13.9887 20.6 12.0006C20.6 10.0125 19.7945 8.21342 18.4922 6.91022L19.763 5.63762L19.7639 5.63672ZM13.4 5.70062V11.1006H16.1L11.6 18.3006V12.9006H8.89998L13.4 5.70062ZM7.78128 8.18192L9.05478 9.45542C8.40318 10.1061 7.99998 11.0061 7.99998 12.0006C7.99998 12.9951 8.40318 13.8951 9.05478 14.5458L7.78128 15.8193C6.80478 14.8419 6.19998 13.4919 6.19998 12.0006C6.19998 10.5093 6.80478 9.15932 7.78128 8.18192ZM17.2196 8.18282C18.1961 9.16022 18.8 10.5102 18.8 12.0006C18.8 13.4919 18.1952 14.8419 17.2187 15.8193L15.9452 14.5458C16.5968 13.8951 17 12.9951 17 12.0006C17 11.007 16.5977 10.107 15.947 9.45632L17.2196 8.18282Z" fill="#0A0D14" style="fill:#0A0D14;fill:color(display-p3 0.0392 0.0510 0.0784);fill-opacity:1;"/>
</svg>
