<svg width="25" height="24" viewBox="0 0 25 24" fill="none" xmlns="http://www.w3.org/2000/svg">
<path d="M11.6 15.5422C9.90433 15.3123 8.35923 14.4471 7.27716 13.1214C6.19508 11.7958 5.65678 10.1088 5.77111 8.40142C5.88543 6.69407 6.64386 5.09384 7.89301 3.92433C9.14216 2.75483 10.7888 2.10332 12.5 2.10157C14.2133 2.09991 15.8631 2.74981 17.1149 3.9195C18.3667 5.08919 19.127 6.69114 19.2414 8.40058C19.3559 10.11 18.816 11.799 17.7313 13.1252C16.6466 14.4513 15.0982 15.3154 13.4 15.5422V17.4016H17.9V19.2016H13.4V22.8016H11.6V19.2016H7.1V17.4016H11.6V15.5422Z" fill="#0A0D14" style="fill:#0A0D14;fill:color(display-p3 0.0392 0.0510 0.0784);fill-opacity:1;"/>
</svg>
