<svg width="25" height="24" viewBox="0 0 25 24" fill="none" xmlns="http://www.w3.org/2000/svg">
<path d="M11.6 15.5422C9.90433 15.3123 8.35923 14.4471 7.27716 13.1214C6.19508 11.7958 5.65678 10.1088 5.77111 8.40142C5.88543 6.69407 6.64386 5.09384 7.89301 3.92433C9.14216 2.75483 10.7888 2.10332 12.5 2.10157C14.2133 2.09991 15.8631 2.74981 17.1149 3.9195C18.3667 5.08919 19.127 6.69114 19.2414 8.40058C19.3559 10.11 18.816 11.799 17.7313 13.1252C16.6466 14.4513 15.0982 15.3154 13.4 15.5422V17.4016H17.9V19.2016H13.4V22.8016H11.6V19.2016H7.1V17.4016H11.6V15.5422ZM12.5 13.8016C13.8128 13.8016 15.0719 13.2801 16.0002 12.3517C16.9285 11.4234 17.45 10.1644 17.45 8.85157C17.45 7.53874 16.9285 6.27969 16.0002 5.35139C15.0719 4.42308 13.8128 3.90157 12.5 3.90157C11.1872 3.90157 9.92812 4.42308 8.99982 5.35139C8.07151 6.27969 7.55 7.53874 7.55 8.85157C7.55 10.1644 8.07151 11.4234 8.99982 12.3517C9.92812 13.2801 11.1872 13.8016 12.5 13.8016Z" fill="#0A0D14" style="fill:#0A0D14;fill:color(display-p3 0.0392 0.0510 0.0784);fill-opacity:1;"/>
</svg>
