<svg width="25" height="24" viewBox="0 0 25 24" fill="none" xmlns="http://www.w3.org/2000/svg">
<path d="M20 12C20 16.1421 16.6421 19.5 12.5 19.5C8.35786 19.5 5 16.1421 5 12C5 7.85786 8.35786 4.5 12.5 4.5C16.6421 4.5 20 7.85786 20 12ZM14.4544 17.6745L12.8384 13.1855L11.2025 17.8594C11.6203 17.9515 12.0545 18 12.5 18C13.1843 18 13.8418 17.8855 14.4544 17.6745ZM16.3056 16.639C17.6454 15.5386 18.5 13.8691 18.5 12C18.5 11.2306 18.3552 10.4952 18.0914 9.81923C17.9036 10.9094 17.5722 12.3311 17.3596 13.0555L16.3056 16.639ZM16.1545 7.24096C15.1425 6.46271 13.8753 6 12.5 6C10.6052 6 8.91556 6.87831 7.81597 8.25H8.85877V9.75H8.2966L10.3626 15.7185L12.0326 10.9472L11.6016 9.75H9.98376L9.98379 8.25H13.7338L13.7338 9.75H13.1959L15.1619 15.2113L15.9205 12.6322C16.3133 11.2572 15.9897 10.658 15.6667 10.06C15.4501 9.65899 15.2338 9.25849 15.2338 8.625C15.2338 8.00192 15.6136 7.46758 16.1545 7.24096ZM6.81859 10.0658C6.61204 10.6726 6.5 11.3233 6.5 12C6.5 14.1074 7.58642 15.961 9.22972 17.0313L6.81859 10.0658Z" fill="#0A0D14" style="fill:#0A0D14;fill:color(display-p3 0.0392 0.0510 0.0784);fill-opacity:1;"/>
</svg>
