<svg width="25" height="24" viewBox="0 0 25 24" fill="none" xmlns="http://www.w3.org/2000/svg">
<path d="M5.99231 12C5.99231 14.5789 7.49231 16.8 9.66153 17.8558L6.55769 9.35192C6.18499 10.185 5.99233 11.0873 5.99231 12ZM12.5 18.5077C13.2558 18.5077 13.9827 18.375 14.6635 18.1385L14.6173 18.0519L12.6153 12.5711L10.6654 18.2423C11.2423 18.4153 11.8597 18.5077 12.5 18.5077ZM13.3942 8.94808L15.7481 15.9461L16.4 13.7769C16.6769 12.8769 16.8904 12.2308 16.8904 11.6711C16.8904 10.8634 16.6019 10.3096 16.3596 9.88269C16.025 9.34039 15.7192 8.88461 15.7192 8.35385C15.7192 7.75385 16.1692 7.2 16.8153 7.2H16.8961C15.697 6.09918 14.1278 5.4896 12.5 5.49231C11.4222 5.49211 10.3613 5.75984 9.4126 6.27142C8.46396 6.78302 7.65736 7.5224 7.06539 8.42308L7.48077 8.43461C8.16154 8.43461 9.21154 8.34808 9.21154 8.34808C9.56923 8.33077 9.60961 8.84423 9.25769 8.88461C9.25769 8.88461 8.90577 8.93077 8.50769 8.94808L10.8846 15.9981L12.3096 11.7289L11.2942 8.94808C11.0668 8.93553 10.8398 8.91629 10.6135 8.89039C10.2615 8.86731 10.3019 8.33077 10.6538 8.34808C10.6538 8.34808 11.7269 8.43461 12.3673 8.43461C13.0481 8.43461 14.0981 8.34808 14.0981 8.34808C14.45 8.33077 14.4961 8.84423 14.1442 8.88461C14.1442 8.88461 13.7923 8.925 13.3942 8.94808ZM15.7711 17.625C16.7556 17.0526 17.5727 16.2318 18.1406 15.2447C18.7086 14.2576 19.0075 13.1388 19.0077 12C19.0077 10.8692 18.7192 9.80769 18.2115 8.87885C18.3147 9.90074 18.16 10.9321 17.7615 11.8789L15.7711 17.625ZM12.5 19.5C10.5109 19.5 8.60322 18.7098 7.1967 17.3033C5.79018 15.8968 5 13.9892 5 12C5 10.0109 5.79018 8.10322 7.1967 6.6967C8.60322 5.29018 10.5109 4.5 12.5 4.5C14.4892 4.5 16.3968 5.29018 17.8033 6.6967C19.2098 8.10322 20 10.0109 20 12C20 13.9892 19.2098 15.8968 17.8033 17.3033C16.3968 18.7098 14.4892 19.5 12.5 19.5Z" fill="#0A0D14" style="fill:#0A0D14;fill:color(display-p3 0.0392 0.0510 0.0784);fill-opacity:1;"/>
</svg>
