<svg width="25" height="24" viewBox="0 0 25 24" fill="none" xmlns="http://www.w3.org/2000/svg">
<path d="M6.0173 15.1365C7.0289 12.8685 8.8973 10.2405 10.0556 8.8707C8.9324 7.7493 8.1098 7.1328 7.5194 6.8007C6.81685 7.47203 6.2579 8.27899 5.8764 9.1727C5.49491 10.0664 5.29882 11.0283 5.3 12C5.3 13.125 5.5574 14.1888 6.0173 15.1365ZM9.6632 5.3805C11.1032 5.745 12.5 6.5631 12.5 6.5631V6.5586C12.5 6.5586 13.8968 5.745 15.3359 5.3796C14.4398 4.99579 13.4749 4.79858 12.5 4.8C11.492 4.8 10.5335 5.007 9.6632 5.3805ZM17.4806 6.8007C16.8911 7.1337 16.0694 7.7502 14.9462 8.8707C16.1045 10.2414 17.972 12.8676 18.9836 15.1356C19.4567 14.1581 19.7017 13.086 19.7 12C19.7 9.957 18.8486 8.112 17.4806 6.8007ZM17.8478 16.8204C16.5851 14.808 14.1668 12.3708 12.5 11.1117C10.835 12.3717 8.4149 14.8089 7.1531 16.8222C7.82752 17.5716 8.65217 18.1707 9.5734 18.5804C10.4946 18.99 11.4918 19.2012 12.5 19.2C13.5085 19.2011 14.5059 18.9897 15.4273 18.5797C16.3487 18.1697 17.1734 17.5703 17.8478 16.8204ZM12.5 21C7.5293 21 3.5 16.9707 3.5 12C3.5 7.0293 7.5293 3 12.5 3C17.4707 3 21.5 7.0293 21.5 12C21.5 16.9707 17.4707 21 12.5 21Z" fill="#0A0D14" style="fill:#0A0D14;fill:color(display-p3 0.0392 0.0510 0.0784);fill-opacity:1;"/>
</svg>
