<svg width="25" height="24" viewBox="0 0 25 24" fill="none" xmlns="http://www.w3.org/2000/svg">
<path d="M6.57621 18.7743C8.21439 20.212 10.3204 21.0033 12.5 21C14.6803 21.003 16.7871 20.2118 18.4265 18.7743C19.8341 17.3406 15.1892 12.243 12.5 10.2117C9.81351 12.243 5.16501 17.3406 6.57621 18.7743ZM14.9462 7.9698C16.8218 10.191 20.5595 15.7053 19.5038 17.6538C20.7984 16.0552 21.5033 14.0597 21.5 12.0027C21.5016 10.8112 21.2657 9.6314 20.806 8.5322C20.3462 7.433 19.6719 6.43651 18.8225 5.601C18.8225 5.601 18.8027 5.5848 18.7613 5.5695C18.6933 5.54586 18.6218 5.53429 18.5498 5.5353C18.1061 5.5353 17.0612 5.8611 14.9462 7.9698ZM6.24051 5.5704C6.19731 5.5857 6.17931 5.601 6.17571 5.6019C5.32692 6.43761 4.65315 7.43405 4.19374 8.53304C3.73434 9.63204 3.4985 10.8115 3.50001 12.0027C3.50001 14.1438 4.24881 16.1076 5.49621 17.6529C4.44501 15.699 8.18001 10.1892 10.0556 7.9707C7.94061 5.8602 6.89391 5.5362 6.45201 5.5362C6.38018 5.53386 6.3086 5.54579 6.24141 5.5713V5.5695L6.24051 5.5704ZM12.5 5.6631C12.5 5.6631 10.2914 4.3707 8.56701 4.3095C7.88931 4.2852 7.47621 4.5309 7.42581 4.5633C9.03411 3.4842 10.7441 3 12.4883 3H12.5C14.2505 3 15.9542 3.4842 17.5742 4.5633C17.5238 4.5291 17.1134 4.2843 16.4348 4.3095C14.7095 4.3707 12.5 5.6595 12.5 5.6595V5.6631Z" fill="#0A0D14" style="fill:#0A0D14;fill:color(display-p3 0.0392 0.0510 0.0784);fill-opacity:1;"/>
</svg>
