<svg width="25" height="24" viewBox="0 0 25 24" fill="none" xmlns="http://www.w3.org/2000/svg">
<path d="M20.1158 4.10742C20.2535 4.10742 20.3921 4.17762 20.4614 4.24692C20.4955 4.31077 20.5133 4.38202 20.5133 4.45437C20.5133 4.52673 20.4955 4.59797 20.4614 4.66182L14.9921 14.3548L18.4535 20.7232C18.4877 20.7872 18.5056 20.8586 18.5056 20.9311C18.5056 21.0037 18.4877 21.0751 18.4535 21.139C18.3589 21.2256 18.2361 21.2748 18.1079 21.2776H15.6149C15.2693 21.2776 15.0614 21.0004 14.9228 20.7925L11.3921 14.3539C11.6 14.0776 16.9307 4.59342 16.9307 4.59342C17.0693 4.31712 17.2772 4.10922 17.6237 4.10922H20.1158V4.10742ZM9.73074 7.50042C10.0772 7.50042 10.2842 7.77762 10.4237 7.98462L12.1535 10.9618C12.0158 11.1004 9.45354 15.6688 9.45354 15.6688C9.31584 15.8776 9.10794 16.1548 8.76144 16.1548H6.33864C6.21015 16.1522 6.08698 16.103 5.99214 16.0162C5.95795 15.9523 5.94006 15.8809 5.94006 15.8083C5.94006 15.7358 5.95795 15.6644 5.99214 15.6004L8.55354 10.9618L6.89214 8.05482C6.85795 7.99086 6.84006 7.91945 6.84006 7.84692C6.84006 7.77439 6.85795 7.70298 6.89214 7.63902C6.98698 7.55228 7.11015 7.50301 7.23864 7.50042H9.73164H9.73074Z" fill="#0A0D14" style="fill:#0A0D14;fill:color(display-p3 0.0392 0.0510 0.0784);fill-opacity:1;"/>
</svg>
