<svg width="25" height="24" viewBox="0 0 25 24" fill="none" xmlns="http://www.w3.org/2000/svg">
<path d="M21.0887 7.04898C21.5 8.65278 21.5 12.0008 21.5 12.0008C21.5 12.0008 21.5 15.3488 21.0887 16.9526C20.8601 17.8391 20.1914 18.5366 19.3445 18.7724C17.8064 19.2008 12.5 19.2008 12.5 19.2008C12.5 19.2008 7.1963 19.2008 5.6555 18.7724C4.805 18.533 4.1372 17.8364 3.9113 16.9526C3.5 15.3488 3.5 12.0008 3.5 12.0008C3.5 12.0008 3.5 8.65278 3.9113 7.04898C4.1399 6.16248 4.8086 5.46498 5.6555 5.22918C7.1963 4.80078 12.5 4.80078 12.5 4.80078C12.5 4.80078 17.8064 4.80078 19.3445 5.22918C20.195 5.46858 20.8628 6.16518 21.0887 7.04898ZM10.7 15.1508L16.1 12.0008L10.7 8.85078V15.1508Z" fill="#0A0D14" style="fill:#0A0D14;fill:color(display-p3 0.0392 0.0510 0.0784);fill-opacity:1;"/>
</svg>
