<svg width="25" height="24" viewBox="0 0 25 24" fill="none" xmlns="http://www.w3.org/2000/svg">
<path d="M12.129 5.2821C12.2517 5.06892 12.479 4.9375 12.725 4.9375C13.885 4.9375 15.0428 4.97394 16.2025 5.05231C18.0847 5.18093 18.9784 6.24572 19.3376 6.87559C19.7849 6.94441 20.379 6.94144 20.5162 7.48031C20.6216 7.8941 20.3535 8.10527 20.1004 8.34145C19.738 8.67952 19.2511 9.22355 19.3849 9.75731C19.4266 9.9236 19.5042 10.0853 19.6219 10.331L19.6231 10.3336C19.8622 10.8337 20.1364 11.4659 20.1798 12.6697C20.2969 15.9251 17.483 17.842 14.7411 17.979C12.933 19.341 9.98218 20.2482 5.32301 19.4472C5.02678 19.3963 4.75453 19.1961 4.61422 18.9159C4.53669 18.761 4.4943 18.5706 4.52386 18.3641C4.5534 18.1578 4.64811 17.9808 4.77202 17.8398C7.19332 15.0831 9.74793 12.4049 12.0124 9.51617C12.4071 9.01272 12.733 8.55634 12.8757 8.28025C13.1065 7.5908 12.8684 7.19703 12.4061 6.43268C12.1944 6.08272 11.8891 5.69916 12.129 5.2821ZM13.6203 9.66464C14.2761 9.66848 15.0086 9.851 15.784 10.321C17.3772 11.2866 17.535 13.3179 17.003 14.9386C16.88 15.3133 16.6792 15.7622 16.3757 16.2334C17.8279 15.636 18.865 14.3706 18.8056 12.7191C18.7711 11.7591 18.5685 11.3154 18.3831 10.9276C18.376 10.9128 18.3686 10.8975 18.361 10.8819C18.2613 10.6746 18.1278 10.3973 18.0513 10.0918C17.8482 9.28185 18.1827 8.56253 18.5118 8.08373C18.3769 7.99979 18.2727 7.8701 18.2215 7.7137C18.2215 7.7137 18.2217 7.71434 18.2211 7.71275C18.2119 7.68929 18.0871 7.38929 17.7874 7.10023C17.4816 6.80528 16.9665 6.48277 16.1095 6.42416C15.3875 6.37538 14.6655 6.34326 13.9423 6.32649C14.281 6.98559 14.511 7.78247 14.1588 8.77714C14.0457 9.09651 13.8144 9.39172 13.6203 9.66464ZM12.9964 11.1231C12.4574 11.2749 12.0862 11.5952 11.9628 11.7342C9.92535 14.027 7.55192 16.7511 6.28069 18.2043C10.3679 18.7652 12.7319 17.8365 14.0642 16.7634C15.036 15.9808 15.5082 15.0837 15.6966 14.5097C16.0224 13.5174 16.0992 12.1199 15.0713 11.4968C14.2064 10.9726 13.5054 10.9797 12.9964 11.1231Z" fill="#0A0D14" style="fill:#0A0D14;fill:color(display-p3 0.0392 0.0510 0.0784);fill-opacity:1;"/>
</svg>
