<svg width="25" height="24" viewBox="0 0 25 24" fill="none" xmlns="http://www.w3.org/2000/svg">
<path d="M16.4607 5.21564C18.6874 5.36783 19.2772 6.97144 19.3399 7.16333L20.3125 7.23471C20.41 7.23471 20.4394 7.37036 20.3533 7.41218C19.361 7.94911 19.0578 9.04012 19.236 9.7508C19.3032 10.0188 19.426 10.2679 19.5449 10.5158C19.7748 10.9968 20.0331 11.5793 20.0752 12.7515C20.1626 15.1808 18.1921 17.3824 15.7336 17.6957C16.611 16.8056 17.0942 15.8629 17.3235 15.1646C17.778 13.7803 17.7045 12.6775 17.3643 11.8348C17.0289 11.0039 16.4605 10.4913 16.0277 10.2289C14.7658 9.46407 13.6135 9.41106 12.6953 9.65753C13.044 9.21187 13.3521 8.75663 13.5947 8.2592C14.0327 7.02215 13.5186 6.1233 13.0672 5.62046C12.9232 5.43608 13.0213 5.12891 13.2955 5.12891C14.3527 5.12891 15.4053 5.14433 16.4607 5.21564ZM5.98904 17.3291C7.43206 15.6776 9.52363 13.284 11.3611 11.2163C11.78 10.7448 13.4374 9.46296 15.6714 10.817C16.3301 11.2163 17.4942 12.4408 16.6704 14.9502C16.0682 16.7843 13.3649 20.7966 4.85086 19.3328C4.68058 19.3036 4.4675 19.0672 4.68734 18.8169C4.99846 18.4628 5.44819 17.948 5.98904 17.3291Z" fill="#0A0D14" style="fill:#0A0D14;fill:color(display-p3 0.0392 0.0510 0.0784);fill-opacity:1;"/>
</svg>
