<svg width="25" height="24" viewBox="0 0 25 24" fill="none" xmlns="http://www.w3.org/2000/svg">
<path d="M10.6118 20.8551C9.67775 20.855 8.75286 20.6709 7.88996 20.3133C7.02705 19.9558 6.24302 19.4318 5.58262 18.7712C4.92223 18.1106 4.39841 17.3265 4.04108 16.4635C3.68374 15.6005 3.49988 14.6756 3.5 13.7415C3.5 10.461 5.7203 7.554 8.7416 6.879C12.2705 6.087 13.8752 5.4678 15.11 3C16.0082 4.7415 15.4007 6.339 15.11 7.2093C19.3382 6.1932 20.8439 4.2573 21.2066 4.0161C21.2066 7.5729 20.0987 9.8229 19.0295 11.2746C20.3579 11.2242 20.8376 10.839 21.4991 10.7463C21.2066 12.0495 20.1491 13.8873 17.6021 15.0618C17.2943 16.6907 16.4272 18.161 15.1508 19.2187C13.8744 20.2764 12.2686 20.8552 10.6109 20.8551H10.6118ZM13.9508 15.0483C13.9508 15.339 13.9031 15.4839 13.5881 15.4839L10.7531 15.4857L13.4171 12.5625C14.1911 11.7885 14.1911 11.4015 14.1911 10.4133C14.1911 10.1127 14.1479 9.768 14.2343 9.4683C14.2766 9.3387 14.1911 9.2955 14.0624 9.3387C13.7609 9.4242 13.2452 9.4242 12.3857 9.4242H8.5175C8.3024 9.4242 8.216 9.2955 8.3024 9.1236C8.3024 9.0804 8.3024 8.9517 8.216 8.9517C7.658 9.2091 7.5284 10.3701 7.5716 11.1009C7.5716 11.4879 7.7867 11.703 8.0873 11.703H11.1392L8.0018 15.0555C7.7858 15.3138 7.5716 15.6576 7.5716 16.1301V17.076C7.5716 17.5062 7.8299 17.7636 8.3024 17.85H13.6916C14.1911 17.85 14.5313 17.6403 14.5313 17.0805V16.0644C14.5313 15.8772 14.5313 15.1932 13.9508 15.0483Z" fill="#0A0D14" style="fill:#0A0D14;fill:color(display-p3 0.0392 0.0510 0.0784);fill-opacity:1;"/>
</svg>
