<svg width="25" height="24" viewBox="0 0 25 24" fill="none" xmlns="http://www.w3.org/2000/svg">
<path d="M9.134 8.634C6.9542 9.1227 5.3 11.2872 5.3 13.7415C5.29998 15.0646 5.79368 16.3401 6.68449 17.3184C7.5753 18.2968 8.7991 18.9075 10.1164 19.0311C11.4338 19.1546 12.7498 18.7822 13.807 17.9867C14.8643 17.1911 15.5866 16.0297 15.8327 14.7297C15.8857 14.4471 16.0056 14.1813 16.1824 13.9546C16.3591 13.7279 16.5877 13.5468 16.8488 13.4265C17.2826 13.2267 17.6678 13.0008 18.0044 12.7578C17.2277 12.2151 16.937 11.082 17.5814 10.2072C18.1185 9.48074 18.5407 8.67605 18.8333 7.8213C17.7745 8.31222 16.6684 8.6937 15.5321 8.9598C14.3972 9.2325 13.3793 8.3856 13.3127 7.3272C12.2507 7.842 10.9097 8.2362 9.1349 8.634H9.134ZM19.0304 11.2746C20.0798 11.2746 20.7557 10.893 21.5 10.7463C21.2075 12.0495 20.15 13.8873 17.603 15.0618C17.2756 16.804 16.3094 18.3611 14.8938 19.428C13.4781 20.495 11.7151 20.9949 9.95017 20.8297C8.18521 20.6646 6.54551 19.8464 5.35236 18.5354C4.15922 17.2244 3.49862 15.5151 3.5 13.7424C3.5 10.461 5.7203 7.554 8.7416 6.8772C12.2705 6.087 13.8752 5.4678 15.11 3C15.7301 4.1997 15.7301 5.6028 15.11 7.2093C17.6444 6.6063 19.6766 5.5425 21.2066 4.0161C21.2066 8.3379 19.5668 10.4835 19.0295 11.2746H19.0304ZM13.7744 14.8134C14.3 14.9439 14.3 15.5622 14.3 15.7314V16.6512C14.3 17.1561 13.9922 17.3469 13.5404 17.3469H8.6678C8.2403 17.2686 8.0072 17.0355 8.0072 16.6467V15.7917C8.0072 15.3642 8.2016 15.0537 8.396 14.8197L11.2328 11.7876H8.4734C8.2016 11.7876 8.0072 11.5932 8.0072 11.244C7.9676 10.5825 8.0846 9.534 8.5895 9.3C8.6678 9.3 8.6678 9.417 8.6678 9.4557C8.5895 9.6114 8.6678 9.7275 8.8622 9.7275H12.3605C13.1372 9.7275 13.6034 9.7275 13.8761 9.6501C13.9931 9.6114 14.0705 9.6501 14.0318 9.7671C13.9535 10.0389 13.9922 10.3494 13.9922 10.6221C13.9922 11.5158 13.9922 11.8659 13.2929 12.5652L10.8827 15.2085L13.4477 15.2067C13.7321 15.2067 13.7753 15.0753 13.7753 14.8134H13.7744Z" fill="#0A0D14" style="fill:#0A0D14;fill:color(display-p3 0.0392 0.0510 0.0784);fill-opacity:1;"/>
</svg>
