<svg width="25" height="24" viewBox="0 0 25 24" fill="none" xmlns="http://www.w3.org/2000/svg">
<path d="M13.7357 18.2078H15.0425L15.4727 19.6811L17.8172 18.2078H20.5802V6.05604H13.7357V18.2078ZM15.1262 7.37454H19.1897V16.8875H17.6309L16.0739 17.8658L15.7913 16.8902L15.1262 16.8875V7.37544V7.37454ZM12.5792 11.6153H9.6614C9.74659 10.249 9.78741 8.8803 9.7838 7.51134H12.6386C12.6386 7.51134 12.7484 6.25134 12.1598 6.26574H7.2215C7.4159 5.53314 7.6607 4.77624 7.9532 3.99414C7.9532 3.99414 6.6095 3.99414 6.1532 5.19924C5.9633 5.69604 5.4152 7.60854 4.4396 9.56244C4.7681 9.52644 5.8553 9.49674 6.4952 8.32224C6.6131 7.99284 6.6356 7.95054 6.7814 7.51044H8.3924C8.3924 8.09634 8.3258 11.2463 8.2988 11.6126H5.3828C4.7267 11.6126 4.5143 12.932 4.5143 12.932H8.1737C7.928 15.7184 6.6104 18.0665 4.22 19.9205C5.363 20.2472 6.5024 19.8692 7.0658 19.3679C7.0658 19.3679 8.3483 18.2006 9.0512 15.4997L12.0626 19.1267C12.0626 19.1267 12.5036 17.6255 11.9933 16.8938C11.5703 16.3952 10.4273 15.047 9.9404 14.5583L9.1241 15.2063C9.3671 14.426 9.5138 13.6673 9.5633 12.9347H13.0031C13.0031 12.9347 12.9986 11.6153 12.5801 11.6153H12.5792Z" fill="#0A0D14" style="fill:#0A0D14;fill:color(display-p3 0.0392 0.0510 0.0784);fill-opacity:1;"/>
</svg>
