<svg width="25" height="24" viewBox="0 0 25 24" fill="none" xmlns="http://www.w3.org/2000/svg">
<path d="M12.8096 17.3671L11.2904 18.3337L9.37251 15.3187C8.97651 16.5805 8.31771 17.7172 7.44741 18.7612C7.08561 19.1959 6.70941 19.5874 6.27651 19.9987C6.13701 20.131 5.57901 20.644 5.48631 20.7367L4.21371 19.4641C4.33881 19.339 4.92201 18.8026 5.03721 18.6937C5.42421 18.3265 5.75271 17.9827 6.06501 17.6083C7.20441 16.2421 7.89201 14.7193 7.98831 12.9004H4.40001V11.1004H8.00001V7.50038H7.21881C6.59871 8.63978 5.81661 9.50018 4.86261 10.0717L3.93741 8.52908C5.19291 7.77488 6.11991 6.18548 6.67161 3.70508L8.42841 4.09568C8.30241 4.66538 8.15571 5.19998 7.98831 5.70038H12.05V7.50038H9.80001V11.1004H12.05V12.9004H9.96651L12.8096 17.3671ZM16.2638 17.3041L17.2682 16.5004H18.8V7.50038H15.2V16.5004H15.8624L16.2638 17.3041ZM13.4 5.70038H20.6V18.3004H17.9L15.65 20.1004L14.75 18.3004H13.4V5.70038Z" fill="#0A0D14" style="fill:#0A0D14;fill:color(display-p3 0.0392 0.0510 0.0784);fill-opacity:1;"/>
</svg>
